<?xml version="1.0" encoding="UTF-8" standalone="no"?><svg xmlns="http://www.w3.org/2000/svg" xmlns:xlink="http://www.w3.org/1999/xlink" contentScriptType="application/ecmascript" contentStyleType="text/css" height="321px" preserveAspectRatio="none" style="width:418px;height:321px;" version="1.1" viewBox="0 0 418 321" width="418px" zoomAndPan="magnify"><defs><filter height="300%" id="f1dpywep2kg87z" width="300%" x="-1" y="-1"><feGaussianBlur result="blurOut" stdDeviation="2.0"/><feColorMatrix in="blurOut" result="blurOut2" type="matrix" values="0 0 0 0 0 0 0 0 0 0 0 0 0 0 0 0 0 0 .4 0"/><feOffset dx="4.0" dy="4.0" in="blurOut2" result="blurOut3"/><feBlend in="SourceGraphic" in2="blurOut3" mode="normal"/></filter></defs><g><text fill="#000000" font-family="sans-serif" font-size="18" lengthAdjust="spacingAndGlyphs" textLength="176" x="116.75" y="27.4023">MobileApp &lt;- Login</text><rect fill="#FFFFFF" filter="url(#f1dpywep2kg87z)" height="87.9316" style="stroke: #A80036; stroke-width: 1.0;" width="10" x="198" y="161.3086"/><rect fill="#FFFFFF" filter="url(#f1dpywep2kg87z)" height="29.3105" style="stroke: #A80036; stroke-width: 1.0;" width="10" x="372" y="190.6191"/><line style="stroke: #A80036; stroke-width: 1.0; stroke-dasharray: 5.0,5.0;" x1="203" x2="203" y1="86.6875" y2="267.2402"/><line style="stroke: #A80036; stroke-width: 1.0; stroke-dasharray: 5.0,5.0;" x1="376.5" x2="376.5" y1="86.6875" y2="267.2402"/><text fill="#000000" font-family="sans-serif" font-size="14" lengthAdjust="spacingAndGlyphs" textLength="74" x="163" y="83.7344">MobileApp</text><ellipse cx="203" cy="54.1992" fill="#FEFECE" filter="url(#f1dpywep2kg87z)" rx="12" ry="12" style="stroke: #A80036; stroke-width: 2.0;"/><polygon fill="#A80036" points="199,42.1992,205,37.1992,203,42.1992,205,47.1992,199,42.1992" style="stroke: #A80036; stroke-width: 1.0;"/><text fill="#000000" font-family="sans-serif" font-size="14" lengthAdjust="spacingAndGlyphs" textLength="74" x="163" y="279.7754">MobileApp</text><ellipse cx="203" cy="298.7285" fill="#FEFECE" filter="url(#f1dpywep2kg87z)" rx="12" ry="12" style="stroke: #A80036; stroke-width: 2.0;"/><polygon fill="#A80036" points="199,286.7285,205,281.7285,203,286.7285,205,291.7285,199,286.7285" style="stroke: #A80036; stroke-width: 1.0;"/><text fill="#000000" font-family="sans-serif" font-size="14" lengthAdjust="spacingAndGlyphs" textLength="43" x="352.5" y="83.7344">Server</text><ellipse cx="377" cy="54.1992" fill="#FEFECE" filter="url(#f1dpywep2kg87z)" rx="12" ry="12" style="stroke: #A80036; stroke-width: 2.0;"/><polygon fill="#A80036" points="373,42.1992,379,37.1992,377,42.1992,379,47.1992,373,42.1992" style="stroke: #A80036; stroke-width: 1.0;"/><text fill="#000000" font-family="sans-serif" font-size="14" lengthAdjust="spacingAndGlyphs" textLength="43" x="352.5" y="279.7754">Server</text><ellipse cx="377" cy="298.7285" fill="#FEFECE" filter="url(#f1dpywep2kg87z)" rx="12" ry="12" style="stroke: #A80036; stroke-width: 2.0;"/><polygon fill="#A80036" points="373,286.7285,379,281.7285,377,286.7285,379,291.7285,373,286.7285" style="stroke: #A80036; stroke-width: 1.0;"/><rect fill="#FFFFFF" filter="url(#f1dpywep2kg87z)" height="87.9316" style="stroke: #A80036; stroke-width: 1.0;" width="10" x="198" y="161.3086"/><rect fill="#FFFFFF" filter="url(#f1dpywep2kg87z)" height="29.3105" style="stroke: #A80036; stroke-width: 1.0;" width="10" x="372" y="190.6191"/><rect fill="#EEEEEE" filter="url(#f1dpywep2kg87z)" height="3" style="stroke: #EEEEEE; stroke-width: 1.0;" width="403.5" x="3" y="117.3428"/><line style="stroke: #000000; stroke-width: 1.0;" x1="3" x2="406.5" y1="117.3428" y2="117.3428"/><line style="stroke: #000000; stroke-width: 1.0;" x1="3" x2="406.5" y1="120.3428" y2="120.3428"/><rect fill="#EEEEEE" filter="url(#f1dpywep2kg87z)" height="23.3105" style="stroke: #000000; stroke-width: 2.0;" width="155" x="127.25" y="106.6875"/><text fill="#000000" font-family="sans-serif" font-size="13" font-weight="bold" lengthAdjust="spacingAndGlyphs" textLength="137" x="133.25" y="123.2559">MobileApp &lt;- Login</text><polygon fill="#A80036" points="186,157.3086,196,161.3086,186,165.3086,190,161.3086" style="stroke: #A80036; stroke-width: 1.0;"/><line style="stroke: #A80036; stroke-width: 1.0;" x1="3" x2="192" y1="161.3086" y2="161.3086"/><text fill="#000000" font-family="sans-serif" font-size="13" lengthAdjust="spacingAndGlyphs" textLength="35" x="10" y="156.5664">Login</text><polygon fill="#A80036" points="360,186.6191,370,190.6191,360,194.6191,364,190.6191" style="stroke: #A80036; stroke-width: 1.0;"/><line style="stroke: #A80036; stroke-width: 1.0;" x1="208" x2="366" y1="190.6191" y2="190.6191"/><text fill="#000000" font-family="sans-serif" font-size="13" lengthAdjust="spacingAndGlyphs" textLength="80" x="215" y="185.877">Authenticate</text><polygon fill="#A80036" points="219,215.9297,209,219.9297,219,223.9297,215,219.9297" style="stroke: #A80036; stroke-width: 1.0;"/><line style="stroke: #A80036; stroke-width: 1.0; stroke-dasharray: 2.0,2.0;" x1="213" x2="376" y1="219.9297" y2="219.9297"/><text fill="#000000" font-family="sans-serif" font-size="13" lengthAdjust="spacingAndGlyphs" textLength="140" x="225" y="215.1875">sequence of Response</text><polygon fill="#A80036" points="14,245.2402,4,249.2402,14,253.2402,10,249.2402" style="stroke: #A80036; stroke-width: 1.0;"/><line style="stroke: #A80036; stroke-width: 1.0; stroke-dasharray: 2.0,2.0;" x1="8" x2="202" y1="249.2402" y2="249.2402"/><text fill="#0000FF" font-family="sans-serif" font-size="13" lengthAdjust="spacingAndGlyphs" textLength="134" x="20" y="244.498">MegaDatabase.Empty</text><text fill="#000000" font-family="sans-serif" font-size="13" lengthAdjust="spacingAndGlyphs" textLength="10" x="158" y="244.498">&lt;</text><text fill="#008000" font-family="sans-serif" font-size="13" lengthAdjust="spacingAndGlyphs" textLength="18" x="168" y="244.498">?, ?</text><text fill="#000000" font-family="sans-serif" font-size="13" lengthAdjust="spacingAndGlyphs" textLength="10" x="186" y="244.498">&gt;</text><!--MD5=[fc342c5142ffe32b6b8ea6ff55d7ef06]
@startuml
control "MobileApp" as _0
control "Server" as _1
skinparam maxMessageSize 250
title MobileApp <- Login
== MobileApp <- Login ==
[->_0 : Login
activate _0
 _0->_1 : Authenticate
 activate _1
 _0<- -_1 : sequence of Response
 deactivate _1
[<- -_0 : <color blue>MegaDatabase.Empty</color> <<color green>?, ?</color>>
deactivate _0
@enduml

PlantUML version 1.2020.10(Sun May 17 19:35:57 AEST 2020)
(GPL source distribution)
Java Runtime: Java(TM) SE Runtime Environment
JVM: Java HotSpot(TM) 64-Bit Server VM
Java Version: 13.0.1+9
Operating System: Mac OS X
Default Encoding: UTF-8
Language: en
Country: AU
--></g></svg>