<?xml version="1.0" encoding="UTF-8" standalone="no"?><svg xmlns="http://www.w3.org/2000/svg" xmlns:xlink="http://www.w3.org/1999/xlink" contentScriptType="application/ecmascript" contentStyleType="text/css" height="546px" preserveAspectRatio="none" style="width:570px;height:546px;" version="1.1" viewBox="0 0 570 546" width="570px" zoomAndPan="magnify"><defs><filter height="300%" id="fqof1qq2tagqa" width="300%" x="-1" y="-1"><feGaussianBlur result="blurOut" stdDeviation="2.0"/><feColorMatrix in="blurOut" result="blurOut2" type="matrix" values="0 0 0 0 0 0 0 0 0 0 0 0 0 0 0 0 0 0 .4 0"/><feOffset dx="4.0" dy="4.0" in="blurOut2" result="blurOut3"/><feBlend in="SourceGraphic" in2="blurOut3" mode="normal"/></filter></defs><g><!--MD5=[f77682fd75c3e1fc6a82f566c0814d0f]
class _0--><rect codeLine="7" fill="#FEFECE" filter="url(#fqof1qq2tagqa)" height="86.4141" id="_0" style="stroke: #A80036; stroke-width: 1.5;" width="142" x="7" y="205"/><ellipse cx="56.75" cy="221" fill="#DA70D6" rx="11" ry="11" style="stroke: #A80036; stroke-width: 1.0;"/><path d="M54.2656,224.2969 C53.6094,224.2969 53.2188,224.6094 53.2188,225.1563 C53.2188,225.4063 53.3594,225.6719 53.5781,225.8281 C53.7344,225.9531 53.9531,226 54.3594,226 L57.8281,226 C59.3125,226 60.3281,225.6094 61.1563,224.7188 C61.9375,223.9063 62.3438,222.8594 62.3438,221.6094 L62.3438,220.8125 C62.3438,218.1406 60.4531,216.0938 57.9688,216.0938 L54.3594,216.0938 C53.9063,216.0938 53.7813,216.1094 53.625,216.2031 C53.375,216.3594 53.2188,216.6563 53.2188,216.9375 C53.2188,217.4844 53.5938,217.7813 54.2656,217.7813 L54.2656,224.2969 Z M55.9531,224.2969 L55.9531,217.7813 L57.8281,217.7813 C58.7344,217.7813 59.375,218.0625 59.8906,218.6563 C60.375,219.2344 60.6563,219.9844 60.6563,220.7813 L60.6563,221.5625 C60.6563,222.4375 60.4219,223.0313 59.9531,223.5469 C59.4219,224.0938 58.8594,224.2969 57.8438,224.2969 L55.9531,224.2969 Z "/><text fill="#000000" font-family="sans-serif" font-size="12" lengthAdjust="spacingAndGlyphs" textLength="34" x="77.25" y="225.1543">cards</text><line style="stroke: #A80036; stroke-width: 1.5;" x1="8" x2="148" y1="237" y2="237"/><ellipse cx="18" cy="248" fill="none" rx="3" ry="3" style="stroke: #038048; stroke-width: 1.0;"/><text fill="#000000" font-family="sans-serif" font-size="11" lengthAdjust="spacingAndGlyphs" textLength="116" x="27" y="251.2104">card_number : string</text><ellipse cx="18" cy="260.8047" fill="none" rx="3" ry="3" style="stroke: #038048; stroke-width: 1.0;"/><text fill="#000000" font-family="sans-serif" font-size="11" lengthAdjust="spacingAndGlyphs" textLength="78" x="27" y="264.0151">expiry : string</text><ellipse cx="18" cy="273.6094" fill="none" rx="3" ry="3" style="stroke: #038048; stroke-width: 1.0;"/><text fill="#000000" font-family="sans-serif" font-size="11" lengthAdjust="spacingAndGlyphs" textLength="35" x="27" y="276.8198">id : int</text><line style="stroke: #A80036; stroke-width: 1.5;" x1="8" x2="148" y1="283.4141" y2="283.4141"/><!--MD5=[37d6e5304215b5e345f427169db70937]
class _1--><rect codeLine="12" fill="#FEFECE" filter="url(#fqof1qq2tagqa)" height="150.4375" id="_1" style="stroke: #A80036; stroke-width: 1.5;" width="159" x="121.5" y="377"/><ellipse cx="164.85" cy="393" fill="#DA70D6" rx="11" ry="11" style="stroke: #A80036; stroke-width: 1.0;"/><path d="M162.3656,396.2969 C161.7094,396.2969 161.3188,396.6094 161.3188,397.1563 C161.3188,397.4063 161.4594,397.6719 161.6781,397.8281 C161.8344,397.9531 162.0531,398 162.4594,398 L165.9281,398 C167.4125,398 168.4281,397.6094 169.2563,396.7188 C170.0375,395.9063 170.4438,394.8594 170.4438,393.6094 L170.4438,392.8125 C170.4438,390.1406 168.5531,388.0938 166.0688,388.0938 L162.4594,388.0938 C162.0063,388.0938 161.8813,388.1094 161.725,388.2031 C161.475,388.3594 161.3188,388.6563 161.3188,388.9375 C161.3188,389.4844 161.6938,389.7813 162.3656,389.7813 L162.3656,396.2969 Z M164.0531,396.2969 L164.0531,389.7813 L165.9281,389.7813 C166.8344,389.7813 167.475,390.0625 167.9906,390.6563 C168.475,391.2344 168.7563,391.9844 168.7563,392.7813 L168.7563,393.5625 C168.7563,394.4375 168.5219,395.0313 168.0531,395.5469 C167.5219,396.0938 166.9594,396.2969 165.9438,396.2969 L164.0531,396.2969 Z "/><text fill="#000000" font-family="sans-serif" font-size="12" lengthAdjust="spacingAndGlyphs" textLength="64" x="185.15" y="397.1543">customers</text><line style="stroke: #A80036; stroke-width: 1.5;" x1="122.5" x2="279.5" y1="409" y2="409"/><ellipse cx="132.5" cy="420" fill="none" rx="3" ry="3" style="stroke: #038048; stroke-width: 1.0;"/><text fill="#000000" font-family="sans-serif" font-size="11" lengthAdjust="spacingAndGlyphs" textLength="74" x="141.5" y="423.2104">email : string</text><ellipse cx="132.5" cy="432.8047" fill="none" rx="3" ry="3" style="stroke: #038048; stroke-width: 1.0;"/><text fill="#000000" font-family="sans-serif" font-size="11" lengthAdjust="spacingAndGlyphs" textLength="102" x="141.5" y="436.0151">first_name : string</text><ellipse cx="132.5" cy="445.6094" fill="none" rx="3" ry="3" style="stroke: #038048; stroke-width: 1.0;"/><text fill="#000000" font-family="sans-serif" font-size="11" lengthAdjust="spacingAndGlyphs" textLength="35" x="141.5" y="448.8198">id : int</text><ellipse cx="132.5" cy="458.4141" fill="none" rx="3" ry="3" style="stroke: #038048; stroke-width: 1.0;"/><text fill="#000000" font-family="sans-serif" font-size="11" lengthAdjust="spacingAndGlyphs" textLength="133" x="141.5" y="461.6245">last_login_at : datetime</text><ellipse cx="132.5" cy="471.2188" fill="none" rx="3" ry="3" style="stroke: #038048; stroke-width: 1.0;"/><text fill="#000000" font-family="sans-serif" font-size="11" lengthAdjust="spacingAndGlyphs" textLength="101" x="141.5" y="474.4292">last_name : string</text><ellipse cx="132.5" cy="484.0234" fill="none" rx="3" ry="3" style="stroke: #038048; stroke-width: 1.0;"/><text fill="#000000" font-family="sans-serif" font-size="11" lengthAdjust="spacingAndGlyphs" textLength="95" x="141.5" y="487.2339">password : string</text><ellipse cx="132.5" cy="496.8281" fill="none" rx="3" ry="3" style="stroke: #038048; stroke-width: 1.0;"/><text fill="#000000" font-family="sans-serif" font-size="11" lengthAdjust="spacingAndGlyphs" textLength="78" x="141.5" y="500.0386">phone : string</text><ellipse cx="132.5" cy="509.6328" fill="none" rx="3" ry="3" style="stroke: #038048; stroke-width: 1.0;"/><text fill="#000000" font-family="sans-serif" font-size="11" lengthAdjust="spacingAndGlyphs" textLength="117" x="141.5" y="512.8433">signup_at : datetime</text><line style="stroke: #A80036; stroke-width: 1.5;" x1="122.5" x2="279.5" y1="519.4375" y2="519.4375"/><!--MD5=[95d1cea1cd7f69d371fe62aa72675e9c]
class _2--><rect codeLine="22" fill="#FEFECE" filter="url(#fqof1qq2tagqa)" height="137.6328" id="_2" style="stroke: #A80036; stroke-width: 1.5;" width="224" x="184" y="179"/><ellipse cx="271.25" cy="195" fill="#DA70D6" rx="11" ry="11" style="stroke: #A80036; stroke-width: 1.0;"/><path d="M268.7656,198.2969 C268.1094,198.2969 267.7188,198.6094 267.7188,199.1563 C267.7188,199.4063 267.8594,199.6719 268.0781,199.8281 C268.2344,199.9531 268.4531,200 268.8594,200 L272.3281,200 C273.8125,200 274.8281,199.6094 275.6563,198.7188 C276.4375,197.9063 276.8438,196.8594 276.8438,195.6094 L276.8438,194.8125 C276.8438,192.1406 274.9531,190.0938 272.4688,190.0938 L268.8594,190.0938 C268.4063,190.0938 268.2813,190.1094 268.125,190.2031 C267.875,190.3594 267.7188,190.6563 267.7188,190.9375 C267.7188,191.4844 268.0938,191.7813 268.7656,191.7813 L268.7656,198.2969 Z M270.4531,198.2969 L270.4531,191.7813 L272.3281,191.7813 C273.2344,191.7813 273.875,192.0625 274.3906,192.6563 C274.875,193.2344 275.1563,193.9844 275.1563,194.7813 L275.1563,195.5625 C275.1563,196.4375 274.9219,197.0313 274.4531,197.5469 C273.9219,198.0938 273.3594,198.2969 272.3438,198.2969 L270.4531,198.2969 Z "/><text fill="#000000" font-family="sans-serif" font-size="12" lengthAdjust="spacingAndGlyphs" textLength="41" x="291.75" y="199.1543">orders</text><line style="stroke: #A80036; stroke-width: 1.5;" x1="185" x2="407" y1="211" y2="211"/><ellipse cx="195" cy="222" fill="none" rx="3" ry="3" style="stroke: #038048; stroke-width: 1.0;"/><text fill="#000000" font-family="sans-serif" font-size="11" lengthAdjust="spacingAndGlyphs" textLength="124" x="204" y="225.2104">created_at : datetime</text><ellipse cx="195" cy="234.8047" fill="none" rx="3" ry="3" style="stroke: #038048; stroke-width: 1.0;"/><text fill="#000000" font-family="sans-serif" font-size="11" lengthAdjust="spacingAndGlyphs" textLength="76" x="204" y="238.0151">customer_id :</text><text fill="#000000" font-family="sans-serif" font-size="11" font-weight="bold" lengthAdjust="spacingAndGlyphs" textLength="87" x="284" y="238.0151">customers.id</text><text fill="#000000" font-family="sans-serif" font-size="11" lengthAdjust="spacingAndGlyphs" textLength="27" x="375" y="238.0151">«FK»</text><ellipse cx="195" cy="247.6094" fill="none" rx="3" ry="3" style="stroke: #038048; stroke-width: 1.0;"/><text fill="#000000" font-family="sans-serif" font-size="11" lengthAdjust="spacingAndGlyphs" textLength="35" x="204" y="250.8198">id : int</text><ellipse cx="195" cy="260.4141" fill="none" rx="3" ry="3" style="stroke: #038048; stroke-width: 1.0;"/><text fill="#000000" font-family="sans-serif" font-size="11" lengthAdjust="spacingAndGlyphs" textLength="46" x="204" y="263.6245">review :</text><text fill="#000000" font-family="sans-serif" font-size="11" font-weight="bold" lengthAdjust="spacingAndGlyphs" textLength="66" x="254" y="263.6245">reviews.id</text><text fill="#000000" font-family="sans-serif" font-size="11" lengthAdjust="spacingAndGlyphs" textLength="27" x="324" y="263.6245">«FK»</text><ellipse cx="195" cy="273.2188" fill="none" rx="3" ry="3" style="stroke: #038048; stroke-width: 1.0;"/><text fill="#000000" font-family="sans-serif" font-size="11" lengthAdjust="spacingAndGlyphs" textLength="59" x="204" y="276.4292">status : int</text><ellipse cx="195" cy="286.0234" fill="none" rx="3" ry="3" style="stroke: #038048; stroke-width: 1.0;"/><text fill="#000000" font-family="sans-serif" font-size="11" lengthAdjust="spacingAndGlyphs" textLength="84" x="204" y="289.2339">total_price : int</text><ellipse cx="195" cy="298.8281" fill="none" rx="3" ry="3" style="stroke: #038048; stroke-width: 1.0;"/><text fill="#000000" font-family="sans-serif" font-size="11" lengthAdjust="spacingAndGlyphs" textLength="127" x="204" y="302.0386">updated_at : datetime</text><line style="stroke: #A80036; stroke-width: 1.5;" x1="185" x2="407" y1="308.6328" y2="308.6328"/><!--MD5=[5598b231efb7df47efa6733795d42804]
class _4--><rect codeLine="31" fill="#FEFECE" filter="url(#fqof1qq2tagqa)" height="99.2188" id="_4" style="stroke: #A80036; stroke-width: 1.5;" width="202" x="349" y="13.5"/><ellipse cx="395.25" cy="29.5" fill="#DA70D6" rx="11" ry="11" style="stroke: #A80036; stroke-width: 1.0;"/><path d="M392.7656,32.7969 C392.1094,32.7969 391.7188,33.1094 391.7188,33.6563 C391.7188,33.9063 391.8594,34.1719 392.0781,34.3281 C392.2344,34.4531 392.4531,34.5 392.8594,34.5 L396.3281,34.5 C397.8125,34.5 398.8281,34.1094 399.6563,33.2188 C400.4375,32.4063 400.8438,31.3594 400.8438,30.1094 L400.8438,29.3125 C400.8438,26.6406 398.9531,24.5938 396.4688,24.5938 L392.8594,24.5938 C392.4063,24.5938 392.2813,24.6094 392.125,24.7031 C391.875,24.8594 391.7188,25.1563 391.7188,25.4375 C391.7188,25.9844 392.0938,26.2813 392.7656,26.2813 L392.7656,32.7969 Z M394.4531,32.7969 L394.4531,26.2813 L396.3281,26.2813 C397.2344,26.2813 397.875,26.5625 398.3906,27.1563 C398.875,27.7344 399.1563,28.4844 399.1563,29.2813 L399.1563,30.0625 C399.1563,30.9375 398.9219,31.5313 398.4531,32.0469 C397.9219,32.5938 397.3594,32.7969 396.3438,32.7969 L394.4531,32.7969 Z "/><text fill="#000000" font-family="sans-serif" font-size="12" lengthAdjust="spacingAndGlyphs" textLength="101" x="415.75" y="33.6543">orders_products</text><line style="stroke: #A80036; stroke-width: 1.5;" x1="350" x2="550" y1="45.5" y2="45.5"/><ellipse cx="360" cy="56.5" fill="none" rx="3" ry="3" style="stroke: #038048; stroke-width: 1.0;"/><text fill="#000000" font-family="sans-serif" font-size="11" lengthAdjust="spacingAndGlyphs" textLength="102" x="369" y="59.7104">comments : string</text><ellipse cx="360" cy="69.3047" fill="none" rx="3" ry="3" style="stroke: #038048; stroke-width: 1.0;"/><text fill="#000000" font-family="sans-serif" font-size="11" lengthAdjust="spacingAndGlyphs" textLength="53" x="369" y="72.5151">order_id :</text><text fill="#000000" font-family="sans-serif" font-size="11" font-weight="bold" lengthAdjust="spacingAndGlyphs" textLength="60" x="426" y="72.5151">orders.id</text><text fill="#000000" font-family="sans-serif" font-size="11" lengthAdjust="spacingAndGlyphs" textLength="27" x="490" y="72.5151">«FK»</text><ellipse cx="360" cy="82.1094" fill="none" rx="3" ry="3" style="stroke: #038048; stroke-width: 1.0;"/><text fill="#000000" font-family="sans-serif" font-size="11" lengthAdjust="spacingAndGlyphs" textLength="65" x="369" y="85.3198">product_id :</text><text fill="#000000" font-family="sans-serif" font-size="11" font-weight="bold" lengthAdjust="spacingAndGlyphs" textLength="76" x="438" y="85.3198">products.id</text><text fill="#000000" font-family="sans-serif" font-size="11" lengthAdjust="spacingAndGlyphs" textLength="27" x="518" y="85.3198">«FK»</text><ellipse cx="360" cy="94.9141" fill="none" rx="3" ry="3" style="stroke: #038048; stroke-width: 1.0;"/><text fill="#000000" font-family="sans-serif" font-size="11" lengthAdjust="spacingAndGlyphs" textLength="71" x="369" y="98.1245">quantity : int</text><line style="stroke: #A80036; stroke-width: 1.5;" x1="350" x2="550" y1="104.7188" y2="104.7188"/><!--MD5=[6a3af1c95ca99f945e9d9cfb177ddaa5]
class _6--><rect codeLine="37" fill="#FEFECE" filter="url(#fqof1qq2tagqa)" height="112.0234" id="_6" style="stroke: #A80036; stroke-width: 1.5;" width="201" x="22.5" y="7"/><ellipse cx="69.75" cy="23" fill="#DA70D6" rx="11" ry="11" style="stroke: #A80036; stroke-width: 1.0;"/><path d="M67.2656,26.2969 C66.6094,26.2969 66.2188,26.6094 66.2188,27.1563 C66.2188,27.4063 66.3594,27.6719 66.5781,27.8281 C66.7344,27.9531 66.9531,28 67.3594,28 L70.8281,28 C72.3125,28 73.3281,27.6094 74.1563,26.7188 C74.9375,25.9063 75.3438,24.8594 75.3438,23.6094 L75.3438,22.8125 C75.3438,20.1406 73.4531,18.0938 70.9688,18.0938 L67.3594,18.0938 C66.9063,18.0938 66.7813,18.1094 66.625,18.2031 C66.375,18.3594 66.2188,18.6563 66.2188,18.9375 C66.2188,19.4844 66.5938,19.7813 67.2656,19.7813 L67.2656,26.2969 Z M68.9531,26.2969 L68.9531,19.7813 L70.8281,19.7813 C71.7344,19.7813 72.375,20.0625 72.8906,20.6563 C73.375,21.2344 73.6563,21.9844 73.6563,22.7813 L73.6563,23.5625 C73.6563,24.4375 73.4219,25.0313 72.9531,25.5469 C72.4219,26.0938 71.8594,26.2969 70.8438,26.2969 L68.9531,26.2969 Z "/><text fill="#000000" font-family="sans-serif" font-size="12" lengthAdjust="spacingAndGlyphs" textLength="98" x="90.25" y="27.1543">payment_details</text><line style="stroke: #A80036; stroke-width: 1.5;" x1="23.5" x2="222.5" y1="39" y2="39"/><ellipse cx="33.5" cy="50" fill="none" rx="3" ry="3" style="stroke: #038048; stroke-width: 1.0;"/><text fill="#000000" font-family="sans-serif" font-size="11" lengthAdjust="spacingAndGlyphs" textLength="35" x="42.5" y="53.2104">id : int</text><ellipse cx="33.5" cy="62.8047" fill="none" rx="3" ry="3" style="stroke: #038048; stroke-width: 1.0;"/><text fill="#000000" font-family="sans-serif" font-size="11" lengthAdjust="spacingAndGlyphs" textLength="53" x="42.5" y="66.0151">order_id :</text><text fill="#000000" font-family="sans-serif" font-size="11" font-weight="bold" lengthAdjust="spacingAndGlyphs" textLength="60" x="99.5" y="66.0151">orders.id</text><text fill="#000000" font-family="sans-serif" font-size="11" lengthAdjust="spacingAndGlyphs" textLength="27" x="163.5" y="66.0151">«FK»</text><ellipse cx="33.5" cy="75.6094" fill="none" rx="3" ry="3" style="stroke: #038048; stroke-width: 1.0;"/><text fill="#000000" font-family="sans-serif" font-size="11" lengthAdjust="spacingAndGlyphs" textLength="104" x="42.5" y="78.8198">paid_at : datetime</text><ellipse cx="33.5" cy="88.4141" fill="none" rx="3" ry="3" style="stroke: #038048; stroke-width: 1.0;"/><text fill="#000000" font-family="sans-serif" font-size="11" lengthAdjust="spacingAndGlyphs" textLength="88" x="42.5" y="91.6245">payment_card :</text><text fill="#000000" font-family="sans-serif" font-size="11" font-weight="bold" lengthAdjust="spacingAndGlyphs" textLength="52" x="134.5" y="91.6245">cards.id</text><text fill="#000000" font-family="sans-serif" font-size="11" lengthAdjust="spacingAndGlyphs" textLength="27" x="190.5" y="91.6245">«FK»</text><ellipse cx="33.5" cy="101.2188" fill="none" rx="3" ry="3" style="stroke: #038048; stroke-width: 1.0;"/><text fill="#000000" font-family="sans-serif" font-size="11" lengthAdjust="spacingAndGlyphs" textLength="51" x="42.5" y="104.4292">type : int</text><line style="stroke: #A80036; stroke-width: 1.5;" x1="23.5" x2="222.5" y1="111.0234" y2="111.0234"/><!--MD5=[9f3b5866fc3516bb7b126afd03fd81f9]
class _5--><rect codeLine="44" fill="#FEFECE" filter="url(#fqof1qq2tagqa)" height="112.0234" id="_5" style="stroke: #A80036; stroke-width: 1.5;" width="106" x="443" y="192"/><ellipse cx="467" cy="208" fill="#DA70D6" rx="11" ry="11" style="stroke: #A80036; stroke-width: 1.0;"/><path d="M464.5156,211.2969 C463.8594,211.2969 463.4688,211.6094 463.4688,212.1563 C463.4688,212.4063 463.6094,212.6719 463.8281,212.8281 C463.9844,212.9531 464.2031,213 464.6094,213 L468.0781,213 C469.5625,213 470.5781,212.6094 471.4063,211.7188 C472.1875,210.9063 472.5938,209.8594 472.5938,208.6094 L472.5938,207.8125 C472.5938,205.1406 470.7031,203.0938 468.2188,203.0938 L464.6094,203.0938 C464.1563,203.0938 464.0313,203.1094 463.875,203.2031 C463.625,203.3594 463.4688,203.6563 463.4688,203.9375 C463.4688,204.4844 463.8438,204.7813 464.5156,204.7813 L464.5156,211.2969 Z M466.2031,211.2969 L466.2031,204.7813 L468.0781,204.7813 C468.9844,204.7813 469.625,205.0625 470.1406,205.6563 C470.625,206.2344 470.9063,206.9844 470.9063,207.7813 L470.9063,208.5625 C470.9063,209.4375 470.6719,210.0313 470.2031,210.5469 C469.6719,211.0938 469.1094,211.2969 468.0938,211.2969 L466.2031,211.2969 Z "/><text fill="#000000" font-family="sans-serif" font-size="12" lengthAdjust="spacingAndGlyphs" textLength="54" x="483" y="212.1543">products</text><line style="stroke: #A80036; stroke-width: 1.5;" x1="444" x2="548" y1="224" y2="224"/><ellipse cx="454" cy="235" fill="none" rx="3" ry="3" style="stroke: #038048; stroke-width: 1.0;"/><text fill="#000000" font-family="sans-serif" font-size="11" lengthAdjust="spacingAndGlyphs" textLength="80" x="463" y="238.2104">details : string</text><ellipse cx="454" cy="247.8047" fill="none" rx="3" ry="3" style="stroke: #038048; stroke-width: 1.0;"/><text fill="#000000" font-family="sans-serif" font-size="11" lengthAdjust="spacingAndGlyphs" textLength="35" x="463" y="251.0151">id : int</text><ellipse cx="454" cy="260.6094" fill="none" rx="3" ry="3" style="stroke: #038048; stroke-width: 1.0;"/><text fill="#000000" font-family="sans-serif" font-size="11" lengthAdjust="spacingAndGlyphs" textLength="78" x="463" y="263.8198">image : string</text><ellipse cx="454" cy="273.4141" fill="none" rx="3" ry="3" style="stroke: #038048; stroke-width: 1.0;"/><text fill="#000000" font-family="sans-serif" font-size="11" lengthAdjust="spacingAndGlyphs" textLength="75" x="463" y="276.6245">name : string</text><ellipse cx="454" cy="286.2188" fill="none" rx="3" ry="3" style="stroke: #038048; stroke-width: 1.0;"/><text fill="#000000" font-family="sans-serif" font-size="11" lengthAdjust="spacingAndGlyphs" textLength="53" x="463" y="289.4292">price : int</text><line style="stroke: #A80036; stroke-width: 1.5;" x1="444" x2="548" y1="296.0234" y2="296.0234"/><!--MD5=[4df2e88eba431a2a56d213b7bca710d9]
class _3--><rect codeLine="51" fill="#FEFECE" filter="url(#fqof1qq2tagqa)" height="99.2188" id="_3" style="stroke: #A80036; stroke-width: 1.5;" width="150" x="316" y="402.5"/><ellipse cx="362.75" cy="418.5" fill="#DA70D6" rx="11" ry="11" style="stroke: #A80036; stroke-width: 1.0;"/><path d="M360.2656,421.7969 C359.6094,421.7969 359.2188,422.1094 359.2188,422.6563 C359.2188,422.9063 359.3594,423.1719 359.5781,423.3281 C359.7344,423.4531 359.9531,423.5 360.3594,423.5 L363.8281,423.5 C365.3125,423.5 366.3281,423.1094 367.1563,422.2188 C367.9375,421.4063 368.3438,420.3594 368.3438,419.1094 L368.3438,418.3125 C368.3438,415.6406 366.4531,413.5938 363.9688,413.5938 L360.3594,413.5938 C359.9063,413.5938 359.7813,413.6094 359.625,413.7031 C359.375,413.8594 359.2188,414.1563 359.2188,414.4375 C359.2188,414.9844 359.5938,415.2813 360.2656,415.2813 L360.2656,421.7969 Z M361.9531,421.7969 L361.9531,415.2813 L363.8281,415.2813 C364.7344,415.2813 365.375,415.5625 365.8906,416.1563 C366.375,416.7344 366.6563,417.4844 366.6563,418.2813 L366.6563,419.0625 C366.6563,419.9375 366.4219,420.5313 365.9531,421.0469 C365.4219,421.5938 364.8594,421.7969 363.8438,421.7969 L361.9531,421.7969 Z "/><text fill="#000000" font-family="sans-serif" font-size="12" lengthAdjust="spacingAndGlyphs" textLength="48" x="383.25" y="422.6543">reviews</text><line style="stroke: #A80036; stroke-width: 1.5;" x1="317" x2="465" y1="434.5" y2="434.5"/><ellipse cx="327" cy="445.5" fill="none" rx="3" ry="3" style="stroke: #038048; stroke-width: 1.0;"/><text fill="#000000" font-family="sans-serif" font-size="11" lengthAdjust="spacingAndGlyphs" textLength="96" x="336" y="448.7104">comment : string</text><ellipse cx="327" cy="458.3047" fill="none" rx="3" ry="3" style="stroke: #038048; stroke-width: 1.0;"/><text fill="#000000" font-family="sans-serif" font-size="11" lengthAdjust="spacingAndGlyphs" textLength="124" x="336" y="461.5151">created_at : datetime</text><ellipse cx="327" cy="471.1094" fill="none" rx="3" ry="3" style="stroke: #038048; stroke-width: 1.0;"/><text fill="#000000" font-family="sans-serif" font-size="11" lengthAdjust="spacingAndGlyphs" textLength="35" x="336" y="474.3198">id : int</text><ellipse cx="327" cy="483.9141" fill="none" rx="3" ry="3" style="stroke: #038048; stroke-width: 1.0;"/><text fill="#000000" font-family="sans-serif" font-size="11" lengthAdjust="spacingAndGlyphs" textLength="56" x="336" y="487.1245">score : int</text><line style="stroke: #A80036; stroke-width: 1.5;" x1="317" x2="465" y1="493.7188" y2="493.7188"/><!--MD5=[03837af55dfe97398128afec89a6c29c]
reverse link _2 to _1--><path codeLine="57" d="M260.54,324.4 C252.458,341.583 243.879,359.825 235.825,376.952 " fill="none" id="_2&lt;-_1" style="stroke: #A80036; stroke-width: 1.0;"/><line style="stroke: #A80036; stroke-width: 1.0;" x1="260.5659" x2="256.7304" y1="324.3456" y2="317.106"/><line style="stroke: #A80036; stroke-width: 1.0;" x1="260.5659" x2="271.2096" y1="324.3456" y2="317.106"/><line style="stroke: #A80036; stroke-width: 1.0;" x1="260.5659" x2="263.97" y1="324.3456" y2="317.106"/><text fill="#000000" font-family="sans-serif" font-size="13" lengthAdjust="spacingAndGlyphs" textLength="0" x="239.0562" y="365.8781"/><!--MD5=[d55d8d636913339d8dba5a305028d51c]
reverse link _2 to _3--><path codeLine="58" d="M331.455,324.389 C343.716,350.459 357.123,378.968 368.106,402.321 " fill="none" id="_2&lt;-_3" style="stroke: #A80036; stroke-width: 1.0;"/><line style="stroke: #A80036; stroke-width: 1.0;" x1="331.4341" x2="320.7904" y1="324.3456" y2="317.106"/><line style="stroke: #A80036; stroke-width: 1.0;" x1="331.4341" x2="335.2696" y1="324.3456" y2="317.106"/><line style="stroke: #A80036; stroke-width: 1.0;" x1="331.4341" x2="328.03" y1="324.3456" y2="317.106"/><text fill="#000000" font-family="sans-serif" font-size="13" lengthAdjust="spacingAndGlyphs" textLength="0" x="364.6053" y="391.3411"/><!--MD5=[d0d5cc847fa5100f895ab3c37b23b328]
reverse link _4 to _2--><path codeLine="59" d="M403.832,118.862 C387.943,137.743 369.956,159.118 353.289,178.923 " fill="none" id="_4&lt;-_2" style="stroke: #A80036; stroke-width: 1.0;"/><line style="stroke: #A80036; stroke-width: 1.0;" x1="403.9832" x2="403.0146" y1="118.6804" y2="112.56"/><line style="stroke: #A80036; stroke-width: 1.0;" x1="403.9832" x2="415.2554" y1="118.6804" y2="112.56"/><line style="stroke: #A80036; stroke-width: 1.0;" x1="403.9832" x2="409.135" y1="118.6804" y2="112.56"/><text fill="#000000" font-family="sans-serif" font-size="13" lengthAdjust="spacingAndGlyphs" textLength="0" x="358.9907" y="168.1187"/><!--MD5=[26fa8168f33829c77acfe5915b22f042]
reverse link _4 to _5--><path codeLine="60" d="M464.185,120.43 C469.886,143.11 476.438,169.178 482.109,191.739 " fill="none" id="_4&lt;-_5" style="stroke: #A80036; stroke-width: 1.0;"/><line style="stroke: #A80036; stroke-width: 1.0;" x1="464.156" x2="454.4473" y1="120.3187" y2="112.56"/><line style="stroke: #A80036; stroke-width: 1.0;" x1="464.156" x2="469.9647" y1="120.3187" y2="112.56"/><line style="stroke: #A80036; stroke-width: 1.0;" x1="464.156" x2="462.206" y1="120.3187" y2="112.56"/><text fill="#000000" font-family="sans-serif" font-size="13" lengthAdjust="spacingAndGlyphs" textLength="0" x="480.1723" y="181.0417"/><!--MD5=[1d9f3cc741a101bfe8505315f351841b]
reverse link _6 to _0--><path codeLine="61" d="M107.447,127.251 C101.1363,152.912 94.0179,181.861 88.3608,204.866 " fill="none" id="_6&lt;-_0" style="stroke: #A80036; stroke-width: 1.0;"/><line style="stroke: #A80036; stroke-width: 1.0;" x1="107.466" x2="101.6074" y1="127.1716" y2="119.403"/><line style="stroke: #A80036; stroke-width: 1.0;" x1="107.466" x2="117.1446" y1="127.1716" y2="119.403"/><line style="stroke: #A80036; stroke-width: 1.0;" x1="107.466" x2="109.376" y1="127.1716" y2="119.403"/><text fill="#000000" font-family="sans-serif" font-size="13" lengthAdjust="spacingAndGlyphs" textLength="0" x="89.6933" y="193.8407"/><!--MD5=[29189b78692bdea7ff81e1840c75ed83]
reverse link _6 to _2--><path codeLine="62" d="M181.26,125.628 C197.429,142.731 215.076,161.399 231.575,178.851 " fill="none" id="_6&lt;-_2" style="stroke: #A80036; stroke-width: 1.0;"/><line style="stroke: #A80036; stroke-width: 1.0;" x1="180.8703" x2="169.5611" y1="125.2169" y2="119.403"/><line style="stroke: #A80036; stroke-width: 1.0;" x1="180.8703" x2="181.1889" y1="125.2169" y2="119.403"/><line style="stroke: #A80036; stroke-width: 1.0;" x1="180.8703" x2="175.375" y1="125.2169" y2="119.403"/><text fill="#000000" font-family="sans-serif" font-size="13" lengthAdjust="spacingAndGlyphs" textLength="0" x="224.7249" y="168.0392"/><!--MD5=[06ea5128eb8d3aabcf422a53875dd6cb]
@startuml
''''''''''''''''''''''''''''''''''''''''''
''                                      ''
''  AUTOGENERATED CODE - - DO NOT EDIT!  ''
''                                      ''
''''''''''''''''''''''''''''''''''''''''''

class "cards" as _0 << (D,orchid) >> {
+ card_number : string
+ expiry : string
+ id : int
}
class "customers" as _1 << (D,orchid) >> {
+ email : string
+ first_name : string
+ id : int
+ last_login_at : datetime
+ last_name : string
+ password : string
+ phone : string
+ signup_at : datetime
}
class "orders" as _2 << (D,orchid) >> {
+ created_at : datetime
+ customer_id : **customers.id** <<FK>>
+ id : int
+ review : **reviews.id** <<FK>>
+ status : int
+ total_price : int
+ updated_at : datetime
}
class "orders_products" as _4 << (D,orchid) >> {
+ comments : string
+ order_id : **orders.id** <<FK>>
+ product_id : **products.id** <<FK>>
+ quantity : int
}
class "payment_details" as _6 << (D,orchid) >> {
+ id : int
+ order_id : **orders.id** <<FK>>
+ paid_at : datetime
+ payment_card : **cards.id** <<FK>>
+ type : int
}
class "products" as _5 << (D,orchid) >> {
+ details : string
+ id : int
+ image : string
+ name : string
+ price : int
}
class "reviews" as _3 << (D,orchid) >> {
+ comment : string
+ created_at : datetime
+ id : int
+ score : int
}
_2 }- - " " _1
_2 }- - " " _3
_4 }- - " " _2
_4 }- - " " _5
_6 }- - " " _0
_6 }- - " " _2
@enduml

@startuml

class "cards" as _0 << (D,orchid) >> {
+ card_number : string
+ expiry : string
+ id : int
}
class "customers" as _1 << (D,orchid) >> {
+ email : string
+ first_name : string
+ id : int
+ last_login_at : datetime
+ last_name : string
+ password : string
+ phone : string
+ signup_at : datetime
}
class "orders" as _2 << (D,orchid) >> {
+ created_at : datetime
+ customer_id : **customers.id** <<FK>>
+ id : int
+ review : **reviews.id** <<FK>>
+ status : int
+ total_price : int
+ updated_at : datetime
}
class "orders_products" as _4 << (D,orchid) >> {
+ comments : string
+ order_id : **orders.id** <<FK>>
+ product_id : **products.id** <<FK>>
+ quantity : int
}
class "payment_details" as _6 << (D,orchid) >> {
+ id : int
+ order_id : **orders.id** <<FK>>
+ paid_at : datetime
+ payment_card : **cards.id** <<FK>>
+ type : int
}
class "products" as _5 << (D,orchid) >> {
+ details : string
+ id : int
+ image : string
+ name : string
+ price : int
}
class "reviews" as _3 << (D,orchid) >> {
+ comment : string
+ created_at : datetime
+ id : int
+ score : int
}
_2 }- - " " _1
_2 }- - " " _3
_4 }- - " " _2
_4 }- - " " _5
_6 }- - " " _0
_6 }- - " " _2
@enduml

PlantUML version 1.2020.16beta7(Unknown compile time)
(GPL source distribution)
Java Runtime: Java(TM) SE Runtime Environment
JVM: Java HotSpot(TM) 64-Bit Server VM
Default Encoding: UTF-8
Language: en
Country: US
--></g></svg>