<?xml version="1.0" encoding="UTF-8" standalone="no"?><svg xmlns="http://www.w3.org/2000/svg" xmlns:xlink="http://www.w3.org/1999/xlink" contentScriptType="application/ecmascript" contentStyleType="text/css" height="546px" preserveAspectRatio="none" style="width:572px;height:546px;" version="1.1" viewBox="0 0 572 546" width="572px" zoomAndPan="magnify"><defs><filter height="300%" id="fqof1qq2tagqa" width="300%" x="-1" y="-1"><feGaussianBlur result="blurOut" stdDeviation="2.0"/><feColorMatrix in="blurOut" result="blurOut2" type="matrix" values="0 0 0 0 0 0 0 0 0 0 0 0 0 0 0 0 0 0 .4 0"/><feOffset dx="4.0" dy="4.0" in="blurOut2" result="blurOut3"/><feBlend in="SourceGraphic" in2="blurOut3" mode="normal"/></filter></defs><g><!--MD5=[f77682fd75c3e1fc6a82f566c0814d0f]
class _0--><rect fill="#FEFECE" filter="url(#fqof1qq2tagqa)" height="86.4141" id="_0" style="stroke: #A80036; stroke-width: 1.5;" width="146" x="7" y="205"/><ellipse cx="58.25" cy="221" fill="#DA70D6" rx="11" ry="11" style="stroke: #A80036; stroke-width: 1.0;"/><path d="M57.8438,216.8125 L57.8438,224.7969 L58.5,224.7969 Q59.9375,224.7969 60.5469,223.8906 Q61.1719,222.9688 61.1719,220.7969 Q61.1719,218.625 60.5469,217.7188 Q59.9375,216.8125 58.5,216.8125 L57.8438,216.8125 Z M55.3906,214.6094 L58.0156,214.6094 Q61.0469,214.6094 62.375,216.0625 Q63.7188,217.5 63.7188,220.7969 Q63.7188,224.0938 62.375,225.5469 Q61.0469,227 58.0156,227 L55.3906,227 L55.3906,214.6094 Z "/><text fill="#000000" font-family="sans-serif" font-size="12" lengthAdjust="spacingAndGlyphs" textLength="35" x="78.75" y="225.1543">cards</text><line style="stroke: #A80036; stroke-width: 1.5;" x1="8" x2="152" y1="237" y2="237"/><ellipse cx="18" cy="248" fill="none" rx="3" ry="3" style="stroke: #038048; stroke-width: 1.0;"/><text fill="#000000" font-family="sans-serif" font-size="11" lengthAdjust="spacingAndGlyphs" textLength="120" x="27" y="251.2104">card_number : string</text><ellipse cx="18" cy="260.8047" fill="none" rx="3" ry="3" style="stroke: #038048; stroke-width: 1.0;"/><text fill="#000000" font-family="sans-serif" font-size="11" lengthAdjust="spacingAndGlyphs" textLength="79" x="27" y="264.0151">expiry : string</text><ellipse cx="18" cy="273.6094" fill="none" rx="3" ry="3" style="stroke: #038048; stroke-width: 1.0;"/><text fill="#000000" font-family="sans-serif" font-size="11" lengthAdjust="spacingAndGlyphs" textLength="36" x="27" y="276.8198">id : int</text><line style="stroke: #A80036; stroke-width: 1.5;" x1="8" x2="152" y1="283.4141" y2="283.4141"/><!--MD5=[37d6e5304215b5e345f427169db70937]
class _1--><rect fill="#FEFECE" filter="url(#fqof1qq2tagqa)" height="150.4375" id="_1" style="stroke: #A80036; stroke-width: 1.5;" width="159" x="125.5" y="377"/><ellipse cx="167.95" cy="393" fill="#DA70D6" rx="11" ry="11" style="stroke: #A80036; stroke-width: 1.0;"/><path d="M167.5438,388.8125 L167.5438,396.7969 L168.2,396.7969 Q169.6375,396.7969 170.2469,395.8906 Q170.8719,394.9688 170.8719,392.7969 Q170.8719,390.625 170.2469,389.7188 Q169.6375,388.8125 168.2,388.8125 L167.5438,388.8125 Z M165.0906,386.6094 L167.7156,386.6094 Q170.7469,386.6094 172.075,388.0625 Q173.4188,389.5 173.4188,392.7969 Q173.4188,396.0938 172.075,397.5469 Q170.7469,399 167.7156,399 L165.0906,399 L165.0906,386.6094 Z "/><text fill="#000000" font-family="sans-serif" font-size="12" lengthAdjust="spacingAndGlyphs" textLength="66" x="188.05" y="397.1543">customers</text><line style="stroke: #A80036; stroke-width: 1.5;" x1="126.5" x2="283.5" y1="409" y2="409"/><ellipse cx="136.5" cy="420" fill="none" rx="3" ry="3" style="stroke: #038048; stroke-width: 1.0;"/><text fill="#000000" font-family="sans-serif" font-size="11" lengthAdjust="spacingAndGlyphs" textLength="76" x="145.5" y="423.2104">email : string</text><ellipse cx="136.5" cy="432.8047" fill="none" rx="3" ry="3" style="stroke: #038048; stroke-width: 1.0;"/><text fill="#000000" font-family="sans-serif" font-size="11" lengthAdjust="spacingAndGlyphs" textLength="106" x="145.5" y="436.0151">first_name : string</text><ellipse cx="136.5" cy="445.6094" fill="none" rx="3" ry="3" style="stroke: #038048; stroke-width: 1.0;"/><text fill="#000000" font-family="sans-serif" font-size="11" lengthAdjust="spacingAndGlyphs" textLength="36" x="145.5" y="448.8198">id : int</text><ellipse cx="136.5" cy="458.4141" fill="none" rx="3" ry="3" style="stroke: #038048; stroke-width: 1.0;"/><text fill="#000000" font-family="sans-serif" font-size="11" lengthAdjust="spacingAndGlyphs" textLength="133" x="145.5" y="461.6245">last_login_at : datetime</text><ellipse cx="136.5" cy="471.2188" fill="none" rx="3" ry="3" style="stroke: #038048; stroke-width: 1.0;"/><text fill="#000000" font-family="sans-serif" font-size="11" lengthAdjust="spacingAndGlyphs" textLength="104" x="145.5" y="474.4292">last_name : string</text><ellipse cx="136.5" cy="484.0234" fill="none" rx="3" ry="3" style="stroke: #038048; stroke-width: 1.0;"/><text fill="#000000" font-family="sans-serif" font-size="11" lengthAdjust="spacingAndGlyphs" textLength="101" x="145.5" y="487.2339">password : string</text><ellipse cx="136.5" cy="496.8281" fill="none" rx="3" ry="3" style="stroke: #038048; stroke-width: 1.0;"/><text fill="#000000" font-family="sans-serif" font-size="11" lengthAdjust="spacingAndGlyphs" textLength="80" x="145.5" y="500.0386">phone : string</text><ellipse cx="136.5" cy="509.6328" fill="none" rx="3" ry="3" style="stroke: #038048; stroke-width: 1.0;"/><text fill="#000000" font-family="sans-serif" font-size="11" lengthAdjust="spacingAndGlyphs" textLength="117" x="145.5" y="512.8433">signup_at : datetime</text><line style="stroke: #A80036; stroke-width: 1.5;" x1="126.5" x2="283.5" y1="519.4375" y2="519.4375"/><!--MD5=[95d1cea1cd7f69d371fe62aa72675e9c]
class _2--><rect fill="#FEFECE" filter="url(#fqof1qq2tagqa)" height="137.6328" id="_2" style="stroke: #A80036; stroke-width: 1.5;" width="221" x="188.5" y="179"/><ellipse cx="274.25" cy="195" fill="#DA70D6" rx="11" ry="11" style="stroke: #A80036; stroke-width: 1.0;"/><path d="M273.8438,190.8125 L273.8438,198.7969 L274.5,198.7969 Q275.9375,198.7969 276.5469,197.8906 Q277.1719,196.9688 277.1719,194.7969 Q277.1719,192.625 276.5469,191.7188 Q275.9375,190.8125 274.5,190.8125 L273.8438,190.8125 Z M271.3906,188.6094 L274.0156,188.6094 Q277.0469,188.6094 278.375,190.0625 Q279.7188,191.5 279.7188,194.7969 Q279.7188,198.0938 278.375,199.5469 Q277.0469,201 274.0156,201 L271.3906,201 L271.3906,188.6094 Z "/><text fill="#000000" font-family="sans-serif" font-size="12" lengthAdjust="spacingAndGlyphs" textLength="41" x="294.75" y="199.1543">orders</text><line style="stroke: #A80036; stroke-width: 1.5;" x1="189.5" x2="408.5" y1="211" y2="211"/><ellipse cx="199.5" cy="222" fill="none" rx="3" ry="3" style="stroke: #038048; stroke-width: 1.0;"/><text fill="#000000" font-family="sans-serif" font-size="11" lengthAdjust="spacingAndGlyphs" textLength="122" x="208.5" y="225.2104">created_at : datetime</text><ellipse cx="199.5" cy="234.8047" fill="none" rx="3" ry="3" style="stroke: #038048; stroke-width: 1.0;"/><text fill="#000000" font-family="sans-serif" font-size="11" lengthAdjust="spacingAndGlyphs" textLength="78" x="208.5" y="238.0151">customer_id :</text><text fill="#000000" font-family="sans-serif" font-size="11" font-weight="bold" lengthAdjust="spacingAndGlyphs" textLength="82" x="290.5" y="238.0151">customers.id</text><text fill="#000000" font-family="sans-serif" font-size="11" lengthAdjust="spacingAndGlyphs" textLength="27" x="376.5" y="238.0151">«FK»</text><ellipse cx="199.5" cy="247.6094" fill="none" rx="3" ry="3" style="stroke: #038048; stroke-width: 1.0;"/><text fill="#000000" font-family="sans-serif" font-size="11" lengthAdjust="spacingAndGlyphs" textLength="36" x="208.5" y="250.8198">id : int</text><ellipse cx="199.5" cy="260.4141" fill="none" rx="3" ry="3" style="stroke: #038048; stroke-width: 1.0;"/><text fill="#000000" font-family="sans-serif" font-size="11" lengthAdjust="spacingAndGlyphs" textLength="45" x="208.5" y="263.6245">review :</text><text fill="#000000" font-family="sans-serif" font-size="11" font-weight="bold" lengthAdjust="spacingAndGlyphs" textLength="66" x="257.5" y="263.6245">reviews.id</text><text fill="#000000" font-family="sans-serif" font-size="11" lengthAdjust="spacingAndGlyphs" textLength="27" x="327.5" y="263.6245">«FK»</text><ellipse cx="199.5" cy="273.2188" fill="none" rx="3" ry="3" style="stroke: #038048; stroke-width: 1.0;"/><text fill="#000000" font-family="sans-serif" font-size="11" lengthAdjust="spacingAndGlyphs" textLength="62" x="208.5" y="276.4292">status : int</text><ellipse cx="199.5" cy="286.0234" fill="none" rx="3" ry="3" style="stroke: #038048; stroke-width: 1.0;"/><text fill="#000000" font-family="sans-serif" font-size="11" lengthAdjust="spacingAndGlyphs" textLength="85" x="208.5" y="289.2339">total_price : int</text><ellipse cx="199.5" cy="298.8281" fill="none" rx="3" ry="3" style="stroke: #038048; stroke-width: 1.0;"/><text fill="#000000" font-family="sans-serif" font-size="11" lengthAdjust="spacingAndGlyphs" textLength="125" x="208.5" y="302.0386">updated_at : datetime</text><line style="stroke: #A80036; stroke-width: 1.5;" x1="189.5" x2="408.5" y1="308.6328" y2="308.6328"/><!--MD5=[5598b231efb7df47efa6733795d42804]
class _4--><rect fill="#FEFECE" filter="url(#fqof1qq2tagqa)" height="99.2188" id="_4" style="stroke: #A80036; stroke-width: 1.5;" width="200" x="353" y="13.5"/><ellipse cx="397.25" cy="29.5" fill="#DA70D6" rx="11" ry="11" style="stroke: #A80036; stroke-width: 1.0;"/><path d="M396.8438,25.3125 L396.8438,33.2969 L397.5,33.2969 Q398.9375,33.2969 399.5469,32.3906 Q400.1719,31.4688 400.1719,29.2969 Q400.1719,27.125 399.5469,26.2188 Q398.9375,25.3125 397.5,25.3125 L396.8438,25.3125 Z M394.3906,23.1094 L397.0156,23.1094 Q400.0469,23.1094 401.375,24.5625 Q402.7188,26 402.7188,29.2969 Q402.7188,32.5938 401.375,34.0469 Q400.0469,35.5 397.0156,35.5 L394.3906,35.5 L394.3906,23.1094 Z "/><text fill="#000000" font-family="sans-serif" font-size="12" lengthAdjust="spacingAndGlyphs" textLength="103" x="417.75" y="33.6543">orders_products</text><line style="stroke: #A80036; stroke-width: 1.5;" x1="354" x2="552" y1="45.5" y2="45.5"/><ellipse cx="364" cy="56.5" fill="none" rx="3" ry="3" style="stroke: #038048; stroke-width: 1.0;"/><text fill="#000000" font-family="sans-serif" font-size="11" lengthAdjust="spacingAndGlyphs" textLength="105" x="373" y="59.7104">comments : string</text><ellipse cx="364" cy="69.3047" fill="none" rx="3" ry="3" style="stroke: #038048; stroke-width: 1.0;"/><text fill="#000000" font-family="sans-serif" font-size="11" lengthAdjust="spacingAndGlyphs" textLength="55" x="373" y="72.5151">order_id :</text><text fill="#000000" font-family="sans-serif" font-size="11" font-weight="bold" lengthAdjust="spacingAndGlyphs" textLength="57" x="432" y="72.5151">orders.id</text><text fill="#000000" font-family="sans-serif" font-size="11" lengthAdjust="spacingAndGlyphs" textLength="27" x="493" y="72.5151">«FK»</text><ellipse cx="364" cy="82.1094" fill="none" rx="3" ry="3" style="stroke: #038048; stroke-width: 1.0;"/><text fill="#000000" font-family="sans-serif" font-size="11" lengthAdjust="spacingAndGlyphs" textLength="67" x="373" y="85.3198">product_id :</text><text fill="#000000" font-family="sans-serif" font-size="11" font-weight="bold" lengthAdjust="spacingAndGlyphs" textLength="72" x="444" y="85.3198">products.id</text><text fill="#000000" font-family="sans-serif" font-size="11" lengthAdjust="spacingAndGlyphs" textLength="27" x="520" y="85.3198">«FK»</text><ellipse cx="364" cy="94.9141" fill="none" rx="3" ry="3" style="stroke: #038048; stroke-width: 1.0;"/><text fill="#000000" font-family="sans-serif" font-size="11" lengthAdjust="spacingAndGlyphs" textLength="71" x="373" y="98.1245">quantity : int</text><line style="stroke: #A80036; stroke-width: 1.5;" x1="354" x2="552" y1="104.7188" y2="104.7188"/><!--MD5=[6a3af1c95ca99f945e9d9cfb177ddaa5]
class _6--><rect fill="#FEFECE" filter="url(#fqof1qq2tagqa)" height="112.0234" id="_6" style="stroke: #A80036; stroke-width: 1.5;" width="200" x="72" y="7"/><ellipse cx="116.75" cy="23" fill="#DA70D6" rx="11" ry="11" style="stroke: #A80036; stroke-width: 1.0;"/><path d="M116.3438,18.8125 L116.3438,26.7969 L117,26.7969 Q118.4375,26.7969 119.0469,25.8906 Q119.6719,24.9688 119.6719,22.7969 Q119.6719,20.625 119.0469,19.7188 Q118.4375,18.8125 117,18.8125 L116.3438,18.8125 Z M113.8906,16.6094 L116.5156,16.6094 Q119.5469,16.6094 120.875,18.0625 Q122.2188,19.5 122.2188,22.7969 Q122.2188,26.0938 120.875,27.5469 Q119.5469,29 116.5156,29 L113.8906,29 L113.8906,16.6094 Z "/><text fill="#000000" font-family="sans-serif" font-size="12" lengthAdjust="spacingAndGlyphs" textLength="102" x="137.25" y="27.1543">payment_details</text><line style="stroke: #A80036; stroke-width: 1.5;" x1="73" x2="271" y1="39" y2="39"/><ellipse cx="83" cy="50" fill="none" rx="3" ry="3" style="stroke: #038048; stroke-width: 1.0;"/><text fill="#000000" font-family="sans-serif" font-size="11" lengthAdjust="spacingAndGlyphs" textLength="36" x="92" y="53.2104">id : int</text><ellipse cx="83" cy="62.8047" fill="none" rx="3" ry="3" style="stroke: #038048; stroke-width: 1.0;"/><text fill="#000000" font-family="sans-serif" font-size="11" lengthAdjust="spacingAndGlyphs" textLength="55" x="92" y="66.0151">order_id :</text><text fill="#000000" font-family="sans-serif" font-size="11" font-weight="bold" lengthAdjust="spacingAndGlyphs" textLength="57" x="151" y="66.0151">orders.id</text><text fill="#000000" font-family="sans-serif" font-size="11" lengthAdjust="spacingAndGlyphs" textLength="27" x="212" y="66.0151">«FK»</text><ellipse cx="83" cy="75.6094" fill="none" rx="3" ry="3" style="stroke: #038048; stroke-width: 1.0;"/><text fill="#000000" font-family="sans-serif" font-size="11" lengthAdjust="spacingAndGlyphs" textLength="103" x="92" y="78.8198">paid_at : datetime</text><ellipse cx="83" cy="88.4141" fill="none" rx="3" ry="3" style="stroke: #038048; stroke-width: 1.0;"/><text fill="#000000" font-family="sans-serif" font-size="11" lengthAdjust="spacingAndGlyphs" textLength="88" x="92" y="91.6245">payment_card :</text><text fill="#000000" font-family="sans-serif" font-size="11" font-weight="bold" lengthAdjust="spacingAndGlyphs" textLength="51" x="184" y="91.6245">cards.id</text><text fill="#000000" font-family="sans-serif" font-size="11" lengthAdjust="spacingAndGlyphs" textLength="27" x="239" y="91.6245">«FK»</text><ellipse cx="83" cy="101.2188" fill="none" rx="3" ry="3" style="stroke: #038048; stroke-width: 1.0;"/><text fill="#000000" font-family="sans-serif" font-size="11" lengthAdjust="spacingAndGlyphs" textLength="50" x="92" y="104.4292">type : int</text><line style="stroke: #A80036; stroke-width: 1.5;" x1="73" x2="271" y1="111.0234" y2="111.0234"/><!--MD5=[9f3b5866fc3516bb7b126afd03fd81f9]
class _5--><rect fill="#FEFECE" filter="url(#fqof1qq2tagqa)" height="112.0234" id="_5" style="stroke: #A80036; stroke-width: 1.5;" width="109" x="444.5" y="192"/><ellipse cx="468.95" cy="208" fill="#DA70D6" rx="11" ry="11" style="stroke: #A80036; stroke-width: 1.0;"/><path d="M468.5438,203.8125 L468.5438,211.7969 L469.2,211.7969 Q470.6375,211.7969 471.2469,210.8906 Q471.8719,209.9688 471.8719,207.7969 Q471.8719,205.625 471.2469,204.7188 Q470.6375,203.8125 469.2,203.8125 L468.5438,203.8125 Z M466.0906,201.6094 L468.7156,201.6094 Q471.7469,201.6094 473.075,203.0625 Q474.4188,204.5 474.4188,207.7969 Q474.4188,211.0938 473.075,212.5469 Q471.7469,214 468.7156,214 L466.0906,214 L466.0906,201.6094 Z "/><text fill="#000000" font-family="sans-serif" font-size="12" lengthAdjust="spacingAndGlyphs" textLength="56" x="485.05" y="212.1543">products</text><line style="stroke: #A80036; stroke-width: 1.5;" x1="445.5" x2="552.5" y1="224" y2="224"/><ellipse cx="455.5" cy="235" fill="none" rx="3" ry="3" style="stroke: #038048; stroke-width: 1.0;"/><text fill="#000000" font-family="sans-serif" font-size="11" lengthAdjust="spacingAndGlyphs" textLength="83" x="464.5" y="238.2104">details : string</text><ellipse cx="455.5" cy="247.8047" fill="none" rx="3" ry="3" style="stroke: #038048; stroke-width: 1.0;"/><text fill="#000000" font-family="sans-serif" font-size="11" lengthAdjust="spacingAndGlyphs" textLength="36" x="464.5" y="251.0151">id : int</text><ellipse cx="455.5" cy="260.6094" fill="none" rx="3" ry="3" style="stroke: #038048; stroke-width: 1.0;"/><text fill="#000000" font-family="sans-serif" font-size="11" lengthAdjust="spacingAndGlyphs" textLength="80" x="464.5" y="263.8198">image : string</text><ellipse cx="455.5" cy="273.4141" fill="none" rx="3" ry="3" style="stroke: #038048; stroke-width: 1.0;"/><text fill="#000000" font-family="sans-serif" font-size="11" lengthAdjust="spacingAndGlyphs" textLength="77" x="464.5" y="276.6245">name : string</text><ellipse cx="455.5" cy="286.2188" fill="none" rx="3" ry="3" style="stroke: #038048; stroke-width: 1.0;"/><text fill="#000000" font-family="sans-serif" font-size="11" lengthAdjust="spacingAndGlyphs" textLength="54" x="464.5" y="289.4292">price : int</text><line style="stroke: #A80036; stroke-width: 1.5;" x1="445.5" x2="552.5" y1="296.0234" y2="296.0234"/><!--MD5=[4df2e88eba431a2a56d213b7bca710d9]
class _3--><rect fill="#FEFECE" filter="url(#fqof1qq2tagqa)" height="99.2188" id="_3" style="stroke: #A80036; stroke-width: 1.5;" width="148" x="320" y="402.5"/><ellipse cx="366.75" cy="418.5" fill="#DA70D6" rx="11" ry="11" style="stroke: #A80036; stroke-width: 1.0;"/><path d="M366.3438,414.3125 L366.3438,422.2969 L367,422.2969 Q368.4375,422.2969 369.0469,421.3906 Q369.6719,420.4688 369.6719,418.2969 Q369.6719,416.125 369.0469,415.2188 Q368.4375,414.3125 367,414.3125 L366.3438,414.3125 Z M363.8906,412.1094 L366.5156,412.1094 Q369.5469,412.1094 370.875,413.5625 Q372.2188,415 372.2188,418.2969 Q372.2188,421.5938 370.875,423.0469 Q369.5469,424.5 366.5156,424.5 L363.8906,424.5 L363.8906,412.1094 Z "/><text fill="#000000" font-family="sans-serif" font-size="12" lengthAdjust="spacingAndGlyphs" textLength="46" x="387.25" y="422.6543">reviews</text><line style="stroke: #A80036; stroke-width: 1.5;" x1="321" x2="467" y1="434.5" y2="434.5"/><ellipse cx="331" cy="445.5" fill="none" rx="3" ry="3" style="stroke: #038048; stroke-width: 1.0;"/><text fill="#000000" font-family="sans-serif" font-size="11" lengthAdjust="spacingAndGlyphs" textLength="98" x="340" y="448.7104">comment : string</text><ellipse cx="331" cy="458.3047" fill="none" rx="3" ry="3" style="stroke: #038048; stroke-width: 1.0;"/><text fill="#000000" font-family="sans-serif" font-size="11" lengthAdjust="spacingAndGlyphs" textLength="122" x="340" y="461.5151">created_at : datetime</text><ellipse cx="331" cy="471.1094" fill="none" rx="3" ry="3" style="stroke: #038048; stroke-width: 1.0;"/><text fill="#000000" font-family="sans-serif" font-size="11" lengthAdjust="spacingAndGlyphs" textLength="36" x="340" y="474.3198">id : int</text><ellipse cx="331" cy="483.9141" fill="none" rx="3" ry="3" style="stroke: #038048; stroke-width: 1.0;"/><text fill="#000000" font-family="sans-serif" font-size="11" lengthAdjust="spacingAndGlyphs" textLength="58" x="340" y="487.1245">score : int</text><line style="stroke: #A80036; stroke-width: 1.5;" x1="321" x2="467" y1="493.7188" y2="493.7188"/><!--MD5=[03837af55dfe97398128afec89a6c29c]
reverse link _2 to _1--><path d="M263.8255,324.3361 C255.9335,341.4635 247.5657,359.6235 239.6934,376.708 " fill="none" id="_2&lt;-_1" style="stroke: #A80036; stroke-width: 1.0;"/><line style="stroke: #A80036; stroke-width: 1.0;" x1="263.8279" x2="259.9102" y1="324.3308" y2="317.0651"/><line style="stroke: #A80036; stroke-width: 1.0;" x1="263.8279" x2="274.4416" y1="324.3308" y2="317.0651"/><line style="stroke: #A80036; stroke-width: 1.0;" x1="263.8279" x2="267.1759" y1="324.3308" y2="317.0651"/><text fill="#000000" font-family="sans-serif" font-size="13" lengthAdjust="spacingAndGlyphs" textLength="0" x="242.8095" y="365.8693"/><!--MD5=[d55d8d636913339d8dba5a305028d51c]
reverse link _2 to _3--><path d="M334.5564,324.3526 C346.7036,350.4373 359.9653,378.915 370.8743,402.3406 " fill="none" id="_2&lt;-_3" style="stroke: #A80036; stroke-width: 1.0;"/><line style="stroke: #A80036; stroke-width: 1.0;" x1="334.54" x2="323.9105" y1="324.3173" y2="317.0651"/><line style="stroke: #A80036; stroke-width: 1.0;" x1="334.54" x2="338.4149" y1="324.3173" y2="317.0651"/><line style="stroke: #A80036; stroke-width: 1.0;" x1="334.54" x2="331.1627" y1="324.3173" y2="317.0651"/><text fill="#000000" font-family="sans-serif" font-size="13" lengthAdjust="spacingAndGlyphs" textLength="0" x="367.341" y="391.3634"/><!--MD5=[d0d5cc847fa5100f895ab3c37b23b328]
reverse link _4 to _2--><path d="M406.4862,118.877 C390.7791,137.7459 373.0536,159.0395 356.5937,178.8127 " fill="none" id="_4&lt;-_2" style="stroke: #A80036; stroke-width: 1.0;"/><line style="stroke: #A80036; stroke-width: 1.0;" x1="406.6126" x2="405.5823" y1="118.7251" y2="112.5766"/><line style="stroke: #A80036; stroke-width: 1.0;" x1="406.6126" x2="417.8793" y1="118.7251" y2="112.5766"/><line style="stroke: #A80036; stroke-width: 1.0;" x1="406.6126" x2="411.7308" y1="118.7251" y2="112.5766"/><text fill="#000000" font-family="sans-serif" font-size="13" lengthAdjust="spacingAndGlyphs" textLength="0" x="362.3268" y="167.997"/><!--MD5=[26fa8168f33829c77acfe5915b22f042]
reverse link _4 to _5--><path d="M467.2868,120.4577 C472.9316,143.1595 479.398,169.1659 485.0131,191.7483 " fill="none" id="_4&lt;-_5" style="stroke: #A80036; stroke-width: 1.0;"/><line style="stroke: #A80036; stroke-width: 1.0;" x1="467.2578" x2="457.5636" y1="120.3402" y2="112.5766"/><line style="stroke: #A80036; stroke-width: 1.0;" x1="467.2578" x2="473.0908" y1="120.3402" y2="112.5766"/><line style="stroke: #A80036; stroke-width: 1.0;" x1="467.2578" x2="465.3272" y1="120.3402" y2="112.5766"/><text fill="#000000" font-family="sans-serif" font-size="13" lengthAdjust="spacingAndGlyphs" textLength="0" x="483.0647" y="181.0521"/><!--MD5=[1d9f3cc741a101bfe8505315f351841b]
reverse link _6 to _0--><path d="M140.5631,126.2155 C127.682,152.1176 113.1022,181.4358 101.476,204.8145 " fill="none" id="_6&lt;-_0" style="stroke: #A80036; stroke-width: 1.0;"/><line style="stroke: #A80036; stroke-width: 1.0;" x1="140.585" x2="136.9842" y1="126.1712" y2="119.0081"/><line style="stroke: #A80036; stroke-width: 1.0;" x1="140.585" x2="151.3104" y1="126.1712" y2="119.0081"/><line style="stroke: #A80036; stroke-width: 1.0;" x1="140.585" x2="144.1473" y1="126.1712" y2="119.0081"/><text fill="#000000" font-family="sans-serif" font-size="13" lengthAdjust="spacingAndGlyphs" textLength="0" x="104.58" y="193.781"/><!--MD5=[29189b78692bdea7ff81e1840c75ed83]
reverse link _6 to _2--><path d="M215.0554,125.7185 C226.7717,142.7856 239.5276,161.367 251.4764,178.7726 " fill="none" id="_6&lt;-_2" style="stroke: #A80036; stroke-width: 1.0;"/><line style="stroke: #A80036; stroke-width: 1.0;" x1="214.9765" x2="203.8534" y1="125.6035" y2="119.0081"/><line style="stroke: #A80036; stroke-width: 1.0;" x1="214.9765" x2="217.0442" y1="125.6035" y2="119.0081"/><line style="stroke: #A80036; stroke-width: 1.0;" x1="214.9765" x2="210.4488" y1="125.6035" y2="119.0081"/><text fill="#000000" font-family="sans-serif" font-size="13" lengthAdjust="spacingAndGlyphs" textLength="0" x="246.3693" y="167.9528"/><!--MD5=[e46b92fcf38c756e75844300386b86f5]
@startuml
''''''''''''''''''''''''''''''''''''''''''
''                                      ''
''  AUTOGENERATED CODE - - DO NOT EDIT!  ''
''                                      ''
''''''''''''''''''''''''''''''''''''''''''

class "cards" as _0 << (D,orchid) >> {
+ card_number : string
+ expiry : string
+ id : int
}
class "customers" as _1 << (D,orchid) >> {
+ email : string
+ first_name : string
+ id : int
+ last_login_at : datetime
+ last_name : string
+ password : string
+ phone : string
+ signup_at : datetime
}
class "orders" as _2 << (D,orchid) >> {
+ created_at : datetime
+ customer_id : **customers.id** <<FK>>
+ id : int
+ review : **reviews.id** <<FK>>
+ status : int
+ total_price : int
+ updated_at : datetime
}
class "orders_products" as _4 << (D,orchid) >> {
+ comments : string
+ order_id : **orders.id** <<FK>>
+ product_id : **products.id** <<FK>>
+ quantity : int
}
class "payment_details" as _6 << (D,orchid) >> {
+ id : int
+ order_id : **orders.id** <<FK>>
+ paid_at : datetime
+ payment_card : **cards.id** <<FK>>
+ type : int
}
class "products" as _5 << (D,orchid) >> {
+ details : string
+ id : int
+ image : string
+ name : string
+ price : int
}
class "reviews" as _3 << (D,orchid) >> {
+ comment : string
+ created_at : datetime
+ id : int
+ score : int
}
_2 }- - " " _1
_2 }- - " " _3
_4 }- - " " _2
_4 }- - " " _5
_6 }- - " " _0
_6 }- - " " _2
@enduml

@startuml

class "cards" as _0 << (D,orchid) >> {
+ card_number : string
+ expiry : string
+ id : int
}
class "customers" as _1 << (D,orchid) >> {
+ email : string
+ first_name : string
+ id : int
+ last_login_at : datetime
+ last_name : string
+ password : string
+ phone : string
+ signup_at : datetime
}
class "orders" as _2 << (D,orchid) >> {
+ created_at : datetime
+ customer_id : **customers.id** <<FK>>
+ id : int
+ review : **reviews.id** <<FK>>
+ status : int
+ total_price : int
+ updated_at : datetime
}
class "orders_products" as _4 << (D,orchid) >> {
+ comments : string
+ order_id : **orders.id** <<FK>>
+ product_id : **products.id** <<FK>>
+ quantity : int
}
class "payment_details" as _6 << (D,orchid) >> {
+ id : int
+ order_id : **orders.id** <<FK>>
+ paid_at : datetime
+ payment_card : **cards.id** <<FK>>
+ type : int
}
class "products" as _5 << (D,orchid) >> {
+ details : string
+ id : int
+ image : string
+ name : string
+ price : int
}
class "reviews" as _3 << (D,orchid) >> {
+ comment : string
+ created_at : datetime
+ id : int
+ score : int
}
_2 }- - " " _1
_2 }- - " " _3
_4 }- - " " _2
_4 }- - " " _5
_6 }- - " " _0
_6 }- - " " _2
@enduml

PlantUML version 1.2020.15(Sun Jun 28 11:39:45 UTC 2020)
(GPL source distribution)
Java Runtime: OpenJDK Runtime Environment
JVM: OpenJDK 64-Bit Server VM
Default Encoding: UTF-8
Language: en
Country: null
--></g></svg>