<?xml version="1.0" encoding="UTF-8" standalone="no"?><svg xmlns="http://www.w3.org/2000/svg" xmlns:xlink="http://www.w3.org/1999/xlink" contentScriptType="application/ecmascript" contentStyleType="text/css" height="494px" preserveAspectRatio="none" style="width:597px;height:494px;" version="1.1" viewBox="0 0 597 494" width="597px" zoomAndPan="magnify"><defs><filter height="300%" id="f1gylkk7qqbmri" width="300%" x="-1" y="-1"><feGaussianBlur result="blurOut" stdDeviation="2.0"/><feColorMatrix in="blurOut" result="blurOut2" type="matrix" values="0 0 0 0 0 0 0 0 0 0 0 0 0 0 0 0 0 0 .4 0"/><feOffset dx="4.0" dy="4.0" in="blurOut2" result="blurOut3"/><feBlend in="SourceGraphic" in2="blurOut3" mode="normal"/></filter></defs><g><!--MD5=[f77682fd75c3e1fc6a82f566c0814d0f]
class _0--><rect codeLine="7" fill="#FEFECE" filter="url(#f1gylkk7qqbmri)" height="86.4141" id="_0" style="stroke: #A80036; stroke-width: 1.5;" width="142" x="27" y="179"/><ellipse cx="53.25" cy="195" fill="#DA70D6" rx="11" ry="11" style="stroke: #A80036; stroke-width: 1.0;"/><path d="M50.7656,198.2969 C50.1094,198.2969 49.7188,198.6094 49.7188,199.1563 C49.7188,199.4063 49.8594,199.6719 50.0781,199.8281 C50.2344,199.9531 50.4531,200 50.8594,200 L54.3281,200 C55.8125,200 56.8281,199.6094 57.6563,198.7188 C58.4375,197.9063 58.8438,196.8594 58.8438,195.6094 L58.8438,194.8125 C58.8438,192.1406 56.9531,190.0938 54.4688,190.0938 L50.8594,190.0938 C50.4063,190.0938 50.2813,190.1094 50.125,190.2031 C49.875,190.3594 49.7188,190.6563 49.7188,190.9375 C49.7188,191.4844 50.0938,191.7813 50.7656,191.7813 L50.7656,198.2969 Z M52.4531,198.2969 L52.4531,191.7813 L54.3281,191.7813 C55.2344,191.7813 55.875,192.0625 56.3906,192.6563 C56.875,193.2344 57.1563,193.9844 57.1563,194.7813 L57.1563,195.5625 C57.1563,196.4375 56.9219,197.0313 56.4531,197.5469 C55.9219,198.0938 55.3594,198.2969 54.3438,198.2969 L52.4531,198.2969 Z "/><text fill="#000000" font-family="sans-serif" font-size="12" lengthAdjust="spacingAndGlyphs" textLength="85" x="69.75" y="199.1543">card_payment</text><line style="stroke: #A80036; stroke-width: 1.5;" x1="28" x2="168" y1="211" y2="211"/><ellipse cx="38" cy="222" fill="none" rx="3" ry="3" style="stroke: #038048; stroke-width: 1.0;"/><text fill="#000000" font-family="sans-serif" font-size="11" lengthAdjust="spacingAndGlyphs" textLength="116" x="47" y="225.2104">card_number : string</text><ellipse cx="38" cy="234.8047" fill="none" rx="3" ry="3" style="stroke: #038048; stroke-width: 1.0;"/><text fill="#000000" font-family="sans-serif" font-size="11" lengthAdjust="spacingAndGlyphs" textLength="78" x="47" y="238.0151">expiry : string</text><ellipse cx="38" cy="247.6094" fill="none" rx="3" ry="3" style="stroke: #038048; stroke-width: 1.0;"/><text fill="#000000" font-family="sans-serif" font-size="11" lengthAdjust="spacingAndGlyphs" textLength="35" x="47" y="250.8198">id : int</text><line style="stroke: #A80036; stroke-width: 1.5;" x1="28" x2="168" y1="257.4141" y2="257.4141"/><!--MD5=[37d6e5304215b5e345f427169db70937]
class _1--><rect codeLine="12" fill="#FEFECE" filter="url(#f1gylkk7qqbmri)" height="137.6328" id="_1" style="stroke: #A80036; stroke-width: 1.5;" width="146" x="158" y="338"/><ellipse cx="195.5" cy="354" fill="#DA70D6" rx="11" ry="11" style="stroke: #A80036; stroke-width: 1.0;"/><path d="M193.0156,357.2969 C192.3594,357.2969 191.9688,357.6094 191.9688,358.1563 C191.9688,358.4063 192.1094,358.6719 192.3281,358.8281 C192.4844,358.9531 192.7031,359 193.1094,359 L196.5781,359 C198.0625,359 199.0781,358.6094 199.9063,357.7188 C200.6875,356.9063 201.0938,355.8594 201.0938,354.6094 L201.0938,353.8125 C201.0938,351.1406 199.2031,349.0938 196.7188,349.0938 L193.1094,349.0938 C192.6563,349.0938 192.5313,349.1094 192.375,349.2031 C192.125,349.3594 191.9688,349.6563 191.9688,349.9375 C191.9688,350.4844 192.3438,350.7813 193.0156,350.7813 L193.0156,357.2969 Z M194.7031,357.2969 L194.7031,350.7813 L196.5781,350.7813 C197.4844,350.7813 198.125,351.0625 198.6406,351.6563 C199.125,352.2344 199.4063,352.9844 199.4063,353.7813 L199.4063,354.5625 C199.4063,355.4375 199.1719,356.0313 198.7031,356.5469 C198.1719,357.0938 197.6094,357.2969 196.5938,357.2969 L194.7031,357.2969 Z "/><text fill="#000000" font-family="sans-serif" font-size="12" lengthAdjust="spacingAndGlyphs" textLength="64" x="214.5" y="358.1543">customers</text><line style="stroke: #A80036; stroke-width: 1.5;" x1="159" x2="303" y1="370" y2="370"/><ellipse cx="169" cy="381" fill="none" rx="3" ry="3" style="stroke: #038048; stroke-width: 1.0;"/><text fill="#000000" font-family="sans-serif" font-size="11" lengthAdjust="spacingAndGlyphs" textLength="74" x="178" y="384.2104">email : string</text><ellipse cx="169" cy="393.8047" fill="none" rx="3" ry="3" style="stroke: #038048; stroke-width: 1.0;"/><text fill="#000000" font-family="sans-serif" font-size="11" lengthAdjust="spacingAndGlyphs" textLength="102" x="178" y="397.0151">first_name : string</text><ellipse cx="169" cy="406.6094" fill="none" rx="3" ry="3" style="stroke: #038048; stroke-width: 1.0;"/><text fill="#000000" font-family="sans-serif" font-size="11" lengthAdjust="spacingAndGlyphs" textLength="35" x="178" y="409.8198">id : int</text><ellipse cx="169" cy="419.4141" fill="none" rx="3" ry="3" style="stroke: #038048; stroke-width: 1.0;"/><text fill="#000000" font-family="sans-serif" font-size="11" lengthAdjust="spacingAndGlyphs" textLength="101" x="178" y="422.6245">last_name : string</text><ellipse cx="169" cy="432.2188" fill="none" rx="3" ry="3" style="stroke: #038048; stroke-width: 1.0;"/><text fill="#000000" font-family="sans-serif" font-size="11" lengthAdjust="spacingAndGlyphs" textLength="120" x="178" y="435.4292">middle_name : string</text><ellipse cx="169" cy="445.0234" fill="none" rx="3" ry="3" style="stroke: #038048; stroke-width: 1.0;"/><text fill="#000000" font-family="sans-serif" font-size="11" lengthAdjust="spacingAndGlyphs" textLength="95" x="178" y="448.2339">password : string</text><ellipse cx="169" cy="457.8281" fill="none" rx="3" ry="3" style="stroke: #038048; stroke-width: 1.0;"/><text fill="#000000" font-family="sans-serif" font-size="11" lengthAdjust="spacingAndGlyphs" textLength="78" x="178" y="461.0386">phone : string</text><line style="stroke: #A80036; stroke-width: 1.5;" x1="159" x2="303" y1="467.6328" y2="467.6328"/><!--MD5=[95d1cea1cd7f69d371fe62aa72675e9c]
class _2--><rect codeLine="21" fill="#FEFECE" filter="url(#f1gylkk7qqbmri)" height="112.0234" id="_2" style="stroke: #A80036; stroke-width: 1.5;" width="224" x="204" y="166"/><ellipse cx="291.25" cy="182" fill="#DA70D6" rx="11" ry="11" style="stroke: #A80036; stroke-width: 1.0;"/><path d="M288.7656,185.2969 C288.1094,185.2969 287.7188,185.6094 287.7188,186.1563 C287.7188,186.4063 287.8594,186.6719 288.0781,186.8281 C288.2344,186.9531 288.4531,187 288.8594,187 L292.3281,187 C293.8125,187 294.8281,186.6094 295.6563,185.7188 C296.4375,184.9063 296.8438,183.8594 296.8438,182.6094 L296.8438,181.8125 C296.8438,179.1406 294.9531,177.0938 292.4688,177.0938 L288.8594,177.0938 C288.4063,177.0938 288.2813,177.1094 288.125,177.2031 C287.875,177.3594 287.7188,177.6563 287.7188,177.9375 C287.7188,178.4844 288.0938,178.7813 288.7656,178.7813 L288.7656,185.2969 Z M290.4531,185.2969 L290.4531,178.7813 L292.3281,178.7813 C293.2344,178.7813 293.875,179.0625 294.3906,179.6563 C294.875,180.2344 295.1563,180.9844 295.1563,181.7813 L295.1563,182.5625 C295.1563,183.4375 294.9219,184.0313 294.4531,184.5469 C293.9219,185.0938 293.3594,185.2969 292.3438,185.2969 L290.4531,185.2969 Z "/><text fill="#000000" font-family="sans-serif" font-size="12" lengthAdjust="spacingAndGlyphs" textLength="41" x="311.75" y="186.1543">orders</text><line style="stroke: #A80036; stroke-width: 1.5;" x1="205" x2="427" y1="198" y2="198"/><ellipse cx="215" cy="209" fill="none" rx="3" ry="3" style="stroke: #038048; stroke-width: 1.0;"/><text fill="#000000" font-family="sans-serif" font-size="11" lengthAdjust="spacingAndGlyphs" textLength="76" x="224" y="212.2104">customer_id :</text><text fill="#000000" font-family="sans-serif" font-size="11" font-weight="bold" lengthAdjust="spacingAndGlyphs" textLength="87" x="304" y="212.2104">customers.id</text><text fill="#000000" font-family="sans-serif" font-size="11" lengthAdjust="spacingAndGlyphs" textLength="27" x="395" y="212.2104">«FK»</text><ellipse cx="215" cy="221.8047" fill="none" rx="3" ry="3" style="stroke: #038048; stroke-width: 1.0;"/><text fill="#000000" font-family="sans-serif" font-size="11" lengthAdjust="spacingAndGlyphs" textLength="35" x="224" y="225.0151">id : int</text><ellipse cx="215" cy="234.6094" fill="none" rx="3" ry="3" style="stroke: #038048; stroke-width: 1.0;"/><text fill="#000000" font-family="sans-serif" font-size="11" lengthAdjust="spacingAndGlyphs" textLength="46" x="224" y="237.8198">review :</text><text fill="#000000" font-family="sans-serif" font-size="11" font-weight="bold" lengthAdjust="spacingAndGlyphs" textLength="66" x="274" y="237.8198">reviews.id</text><text fill="#000000" font-family="sans-serif" font-size="11" lengthAdjust="spacingAndGlyphs" textLength="27" x="344" y="237.8198">«FK»</text><ellipse cx="215" cy="247.4141" fill="none" rx="3" ry="3" style="stroke: #038048; stroke-width: 1.0;"/><text fill="#000000" font-family="sans-serif" font-size="11" lengthAdjust="spacingAndGlyphs" textLength="59" x="224" y="250.6245">status : int</text><ellipse cx="215" cy="260.2188" fill="none" rx="3" ry="3" style="stroke: #038048; stroke-width: 1.0;"/><text fill="#000000" font-family="sans-serif" font-size="11" lengthAdjust="spacingAndGlyphs" textLength="84" x="224" y="263.4292">total_price : int</text><line style="stroke: #A80036; stroke-width: 1.5;" x1="205" x2="427" y1="270.0234" y2="270.0234"/><!--MD5=[5598b231efb7df47efa6733795d42804]
class _4--><rect codeLine="28" fill="#FEFECE" filter="url(#f1gylkk7qqbmri)" height="99.2188" id="_4" style="stroke: #A80036; stroke-width: 1.5;" width="202" x="376" y="7"/><ellipse cx="422.25" cy="23" fill="#DA70D6" rx="11" ry="11" style="stroke: #A80036; stroke-width: 1.0;"/><path d="M419.7656,26.2969 C419.1094,26.2969 418.7188,26.6094 418.7188,27.1563 C418.7188,27.4063 418.8594,27.6719 419.0781,27.8281 C419.2344,27.9531 419.4531,28 419.8594,28 L423.3281,28 C424.8125,28 425.8281,27.6094 426.6563,26.7188 C427.4375,25.9063 427.8438,24.8594 427.8438,23.6094 L427.8438,22.8125 C427.8438,20.1406 425.9531,18.0938 423.4688,18.0938 L419.8594,18.0938 C419.4063,18.0938 419.2813,18.1094 419.125,18.2031 C418.875,18.3594 418.7188,18.6563 418.7188,18.9375 C418.7188,19.4844 419.0938,19.7813 419.7656,19.7813 L419.7656,26.2969 Z M421.4531,26.2969 L421.4531,19.7813 L423.3281,19.7813 C424.2344,19.7813 424.875,20.0625 425.3906,20.6563 C425.875,21.2344 426.1563,21.9844 426.1563,22.7813 L426.1563,23.5625 C426.1563,24.4375 425.9219,25.0313 425.4531,25.5469 C424.9219,26.0938 424.3594,26.2969 423.3438,26.2969 L421.4531,26.2969 Z "/><text fill="#000000" font-family="sans-serif" font-size="12" lengthAdjust="spacingAndGlyphs" textLength="101" x="442.75" y="27.1543">orders_products</text><line style="stroke: #A80036; stroke-width: 1.5;" x1="377" x2="577" y1="39" y2="39"/><ellipse cx="387" cy="50" fill="none" rx="3" ry="3" style="stroke: #038048; stroke-width: 1.0;"/><text fill="#000000" font-family="sans-serif" font-size="11" lengthAdjust="spacingAndGlyphs" textLength="102" x="396" y="53.2104">comments : string</text><ellipse cx="387" cy="62.8047" fill="none" rx="3" ry="3" style="stroke: #038048; stroke-width: 1.0;"/><text fill="#000000" font-family="sans-serif" font-size="11" lengthAdjust="spacingAndGlyphs" textLength="53" x="396" y="66.0151">order_id :</text><text fill="#000000" font-family="sans-serif" font-size="11" font-weight="bold" lengthAdjust="spacingAndGlyphs" textLength="60" x="453" y="66.0151">orders.id</text><text fill="#000000" font-family="sans-serif" font-size="11" lengthAdjust="spacingAndGlyphs" textLength="27" x="517" y="66.0151">«FK»</text><ellipse cx="387" cy="75.6094" fill="none" rx="3" ry="3" style="stroke: #038048; stroke-width: 1.0;"/><text fill="#000000" font-family="sans-serif" font-size="11" lengthAdjust="spacingAndGlyphs" textLength="65" x="396" y="78.8198">product_id :</text><text fill="#000000" font-family="sans-serif" font-size="11" font-weight="bold" lengthAdjust="spacingAndGlyphs" textLength="76" x="465" y="78.8198">products.id</text><text fill="#000000" font-family="sans-serif" font-size="11" lengthAdjust="spacingAndGlyphs" textLength="27" x="545" y="78.8198">«FK»</text><ellipse cx="387" cy="88.4141" fill="none" rx="3" ry="3" style="stroke: #038048; stroke-width: 1.0;"/><text fill="#000000" font-family="sans-serif" font-size="11" lengthAdjust="spacingAndGlyphs" textLength="71" x="396" y="91.6245">quantity : int</text><line style="stroke: #A80036; stroke-width: 1.5;" x1="377" x2="577" y1="98.2188" y2="98.2188"/><!--MD5=[6a3af1c95ca99f945e9d9cfb177ddaa5]
class _6--><rect codeLine="34" fill="#FEFECE" filter="url(#f1gylkk7qqbmri)" height="99.2188" id="_6" style="stroke: #A80036; stroke-width: 1.5;" width="258" x="7" y="7"/><ellipse cx="82.75" cy="23" fill="#DA70D6" rx="11" ry="11" style="stroke: #A80036; stroke-width: 1.0;"/><path d="M80.2656,26.2969 C79.6094,26.2969 79.2188,26.6094 79.2188,27.1563 C79.2188,27.4063 79.3594,27.6719 79.5781,27.8281 C79.7344,27.9531 79.9531,28 80.3594,28 L83.8281,28 C85.3125,28 86.3281,27.6094 87.1563,26.7188 C87.9375,25.9063 88.3438,24.8594 88.3438,23.6094 L88.3438,22.8125 C88.3438,20.1406 86.4531,18.0938 83.9688,18.0938 L80.3594,18.0938 C79.9063,18.0938 79.7813,18.1094 79.625,18.2031 C79.375,18.3594 79.2188,18.6563 79.2188,18.9375 C79.2188,19.4844 79.5938,19.7813 80.2656,19.7813 L80.2656,26.2969 Z M81.9531,26.2969 L81.9531,19.7813 L83.8281,19.7813 C84.7344,19.7813 85.375,20.0625 85.8906,20.6563 C86.375,21.2344 86.6563,21.9844 86.6563,22.7813 L86.6563,23.5625 C86.6563,24.4375 86.4219,25.0313 85.9531,25.5469 C85.4219,26.0938 84.8594,26.2969 83.8438,26.2969 L81.9531,26.2969 Z "/><text fill="#000000" font-family="sans-serif" font-size="12" lengthAdjust="spacingAndGlyphs" textLength="98" x="103.25" y="27.1543">payment_details</text><line style="stroke: #A80036; stroke-width: 1.5;" x1="8" x2="264" y1="39" y2="39"/><ellipse cx="18" cy="50" fill="none" rx="3" ry="3" style="stroke: #038048; stroke-width: 1.0;"/><text fill="#000000" font-family="sans-serif" font-size="11" lengthAdjust="spacingAndGlyphs" textLength="35" x="27" y="53.2104">id : int</text><ellipse cx="18" cy="62.8047" fill="none" rx="3" ry="3" style="stroke: #038048; stroke-width: 1.0;"/><text fill="#000000" font-family="sans-serif" font-size="11" lengthAdjust="spacingAndGlyphs" textLength="53" x="27" y="66.0151">order_id :</text><text fill="#000000" font-family="sans-serif" font-size="11" font-weight="bold" lengthAdjust="spacingAndGlyphs" textLength="60" x="84" y="66.0151">orders.id</text><text fill="#000000" font-family="sans-serif" font-size="11" lengthAdjust="spacingAndGlyphs" textLength="27" x="148" y="66.0151">«FK»</text><ellipse cx="18" cy="75.6094" fill="none" rx="3" ry="3" style="stroke: #038048; stroke-width: 1.0;"/><text fill="#000000" font-family="sans-serif" font-size="11" lengthAdjust="spacingAndGlyphs" textLength="88" x="27" y="78.8198">payment_card :</text><text fill="#000000" font-family="sans-serif" font-size="11" font-weight="bold" lengthAdjust="spacingAndGlyphs" textLength="109" x="119" y="78.8198">card_payment.id</text><text fill="#000000" font-family="sans-serif" font-size="11" lengthAdjust="spacingAndGlyphs" textLength="27" x="232" y="78.8198">«FK»</text><ellipse cx="18" cy="88.4141" fill="none" rx="3" ry="3" style="stroke: #038048; stroke-width: 1.0;"/><text fill="#000000" font-family="sans-serif" font-size="11" lengthAdjust="spacingAndGlyphs" textLength="62" x="27" y="91.6245">type : float</text><line style="stroke: #A80036; stroke-width: 1.5;" x1="8" x2="264" y1="98.2188" y2="98.2188"/><!--MD5=[9f3b5866fc3516bb7b126afd03fd81f9]
class _5--><rect codeLine="40" fill="#FEFECE" filter="url(#f1gylkk7qqbmri)" height="112.0234" id="_5" style="stroke: #A80036; stroke-width: 1.5;" width="106" x="463" y="166"/><ellipse cx="487" cy="182" fill="#DA70D6" rx="11" ry="11" style="stroke: #A80036; stroke-width: 1.0;"/><path d="M484.5156,185.2969 C483.8594,185.2969 483.4688,185.6094 483.4688,186.1563 C483.4688,186.4063 483.6094,186.6719 483.8281,186.8281 C483.9844,186.9531 484.2031,187 484.6094,187 L488.0781,187 C489.5625,187 490.5781,186.6094 491.4063,185.7188 C492.1875,184.9063 492.5938,183.8594 492.5938,182.6094 L492.5938,181.8125 C492.5938,179.1406 490.7031,177.0938 488.2188,177.0938 L484.6094,177.0938 C484.1563,177.0938 484.0313,177.1094 483.875,177.2031 C483.625,177.3594 483.4688,177.6563 483.4688,177.9375 C483.4688,178.4844 483.8438,178.7813 484.5156,178.7813 L484.5156,185.2969 Z M486.2031,185.2969 L486.2031,178.7813 L488.0781,178.7813 C488.9844,178.7813 489.625,179.0625 490.1406,179.6563 C490.625,180.2344 490.9063,180.9844 490.9063,181.7813 L490.9063,182.5625 C490.9063,183.4375 490.6719,184.0313 490.2031,184.5469 C489.6719,185.0938 489.1094,185.2969 488.0938,185.2969 L486.2031,185.2969 Z "/><text fill="#000000" font-family="sans-serif" font-size="12" lengthAdjust="spacingAndGlyphs" textLength="54" x="503" y="186.1543">products</text><line style="stroke: #A80036; stroke-width: 1.5;" x1="464" x2="568" y1="198" y2="198"/><ellipse cx="474" cy="209" fill="none" rx="3" ry="3" style="stroke: #038048; stroke-width: 1.0;"/><text fill="#000000" font-family="sans-serif" font-size="11" lengthAdjust="spacingAndGlyphs" textLength="80" x="483" y="212.2104">details : string</text><ellipse cx="474" cy="221.8047" fill="none" rx="3" ry="3" style="stroke: #038048; stroke-width: 1.0;"/><text fill="#000000" font-family="sans-serif" font-size="11" lengthAdjust="spacingAndGlyphs" textLength="35" x="483" y="225.0151">id : int</text><ellipse cx="474" cy="234.6094" fill="none" rx="3" ry="3" style="stroke: #038048; stroke-width: 1.0;"/><text fill="#000000" font-family="sans-serif" font-size="11" lengthAdjust="spacingAndGlyphs" textLength="78" x="483" y="237.8198">image : string</text><ellipse cx="474" cy="247.4141" fill="none" rx="3" ry="3" style="stroke: #038048; stroke-width: 1.0;"/><text fill="#000000" font-family="sans-serif" font-size="11" lengthAdjust="spacingAndGlyphs" textLength="75" x="483" y="250.6245">name : string</text><ellipse cx="474" cy="260.2188" fill="none" rx="3" ry="3" style="stroke: #038048; stroke-width: 1.0;"/><text fill="#000000" font-family="sans-serif" font-size="11" lengthAdjust="spacingAndGlyphs" textLength="53" x="483" y="263.4292">price : int</text><line style="stroke: #A80036; stroke-width: 1.5;" x1="464" x2="568" y1="270.0234" y2="270.0234"/><!--MD5=[4df2e88eba431a2a56d213b7bca710d9]
class _3--><rect codeLine="47" fill="#FEFECE" filter="url(#f1gylkk7qqbmri)" height="86.4141" id="_3" style="stroke: #A80036; stroke-width: 1.5;" width="122" x="339" y="364"/><ellipse cx="372.9" cy="380" fill="#DA70D6" rx="11" ry="11" style="stroke: #A80036; stroke-width: 1.0;"/><path d="M370.4156,383.2969 C369.7594,383.2969 369.3688,383.6094 369.3688,384.1563 C369.3688,384.4063 369.5094,384.6719 369.7281,384.8281 C369.8844,384.9531 370.1031,385 370.5094,385 L373.9781,385 C375.4625,385 376.4781,384.6094 377.3063,383.7188 C378.0875,382.9063 378.4938,381.8594 378.4938,380.6094 L378.4938,379.8125 C378.4938,377.1406 376.6031,375.0938 374.1188,375.0938 L370.5094,375.0938 C370.0563,375.0938 369.9313,375.1094 369.775,375.2031 C369.525,375.3594 369.3688,375.6563 369.3688,375.9375 C369.3688,376.4844 369.7438,376.7813 370.4156,376.7813 L370.4156,383.2969 Z M372.1031,383.2969 L372.1031,376.7813 L373.9781,376.7813 C374.8844,376.7813 375.525,377.0625 376.0406,377.6563 C376.525,378.2344 376.8063,378.9844 376.8063,379.7813 L376.8063,380.5625 C376.8063,381.4375 376.5719,382.0313 376.1031,382.5469 C375.5719,383.0938 375.0094,383.2969 373.9938,383.2969 L372.1031,383.2969 Z "/><text fill="#000000" font-family="sans-serif" font-size="12" lengthAdjust="spacingAndGlyphs" textLength="48" x="391.1" y="384.1543">reviews</text><line style="stroke: #A80036; stroke-width: 1.5;" x1="340" x2="460" y1="396" y2="396"/><ellipse cx="350" cy="407" fill="none" rx="3" ry="3" style="stroke: #038048; stroke-width: 1.0;"/><text fill="#000000" font-family="sans-serif" font-size="11" lengthAdjust="spacingAndGlyphs" textLength="96" x="359" y="410.2104">comment : string</text><ellipse cx="350" cy="419.8047" fill="none" rx="3" ry="3" style="stroke: #038048; stroke-width: 1.0;"/><text fill="#000000" font-family="sans-serif" font-size="11" lengthAdjust="spacingAndGlyphs" textLength="35" x="359" y="423.0151">id : int</text><ellipse cx="350" cy="432.6094" fill="none" rx="3" ry="3" style="stroke: #038048; stroke-width: 1.0;"/><text fill="#000000" font-family="sans-serif" font-size="11" lengthAdjust="spacingAndGlyphs" textLength="56" x="359" y="435.8198">score : int</text><line style="stroke: #A80036; stroke-width: 1.5;" x1="340" x2="460" y1="442.4141" y2="442.4141"/><!--MD5=[03837af55dfe97398128afec89a6c29c]
reverse link _2 to _1--><path codeLine="52" d="M286.746,285.981 C278.975,302.713 270.547,320.858 262.654,337.851 " fill="none" id="_2&lt;-_1" style="stroke: #A80036; stroke-width: 1.0;"/><line style="stroke: #A80036; stroke-width: 1.0;" x1="286.8971" x2="283.0114" y1="285.6586" y2="278.403"/><line style="stroke: #A80036; stroke-width: 1.0;" x1="286.8971" x2="297.5226" y1="285.6586" y2="278.403"/><line style="stroke: #A80036; stroke-width: 1.0;" x1="286.8971" x2="290.267" y1="285.6586" y2="278.403"/><text fill="#000000" font-family="sans-serif" font-size="13" lengthAdjust="spacingAndGlyphs" textLength="0" x="265.7121" y="327.0392"/><!--MD5=[d55d8d636913339d8dba5a305028d51c]
reverse link _2 to _3--><path codeLine="53" d="M344.881,285.919 C356.698,311.663 370.054,340.761 380.66,363.866 " fill="none" id="_2&lt;-_3" style="stroke: #A80036; stroke-width: 1.0;"/><line style="stroke: #A80036; stroke-width: 1.0;" x1="344.7679" x2="334.1602" y1="285.6738" y2="278.403"/><line style="stroke: #A80036; stroke-width: 1.0;" x1="344.7679" x2="348.7018" y1="285.6738" y2="278.403"/><line style="stroke: #A80036; stroke-width: 1.0;" x1="344.7679" x2="341.431" y1="285.6738" y2="278.403"/><text fill="#000000" font-family="sans-serif" font-size="13" lengthAdjust="spacingAndGlyphs" textLength="0" x="377.2589" y="352.8407"/><!--MD5=[d0d5cc847fa5100f895ab3c37b23b328]
reverse link _4 to _2--><path codeLine="54" d="M423.401,111.931 C406.285,129.313 387.335,148.557 370.178,165.981 " fill="none" id="_4&lt;-_2" style="stroke: #A80036; stroke-width: 1.0;"/><line style="stroke: #A80036; stroke-width: 1.0;" x1="423.5179" x2="423.4308" y1="111.8132" y2="106.113"/><line style="stroke: #A80036; stroke-width: 1.0;" x1="423.5179" x2="434.8312" y1="111.8132" y2="106.113"/><line style="stroke: #A80036; stroke-width: 1.0;" x1="423.5179" x2="429.131" y1="111.8132" y2="106.113"/><text fill="#000000" font-family="sans-serif" font-size="13" lengthAdjust="spacingAndGlyphs" textLength="0" x="376.8633" y="154.9165"/><!--MD5=[26fa8168f33829c77acfe5915b22f042]
reverse link _4 to _5--><path codeLine="55" d="M490.527,114.208 C494.528,130.983 498.901,149.315 502.876,165.981 " fill="none" id="_4&lt;-_5" style="stroke: #A80036; stroke-width: 1.0;"/><line style="stroke: #A80036; stroke-width: 1.0;" x1="490.4515" x2="480.8141" y1="113.8949" y2="106.113"/><line style="stroke: #A80036; stroke-width: 1.0;" x1="490.4515" x2="496.3779" y1="113.8949" y2="106.113"/><line style="stroke: #A80036; stroke-width: 1.0;" x1="490.4515" x2="488.596" y1="113.8949" y2="106.113"/><text fill="#000000" font-family="sans-serif" font-size="13" lengthAdjust="spacingAndGlyphs" textLength="0" x="500.9382" y="154.9165"/><!--MD5=[1d9f3cc741a101bfe8505315f351841b]
reverse link _6 to _0--><path codeLine="56" d="M122.838,114.133 C117.891,135.416 112.36,159.216 107.775,178.943 " fill="none" id="_6&lt;-_0" style="stroke: #A80036; stroke-width: 1.0;"/><line style="stroke: #A80036; stroke-width: 1.0;" x1="122.8907" x2="116.9097" y1="113.9053" y2="106.113"/><line style="stroke: #A80036; stroke-width: 1.0;" x1="122.8907" x2="132.4943" y1="113.9053" y2="106.113"/><line style="stroke: #A80036; stroke-width: 1.0;" x1="122.8907" x2="124.702" y1="113.9053" y2="106.113"/><text fill="#000000" font-family="sans-serif" font-size="13" lengthAdjust="spacingAndGlyphs" textLength="0" x="109.0139" y="167.93"/><!--MD5=[29189b78692bdea7ff81e1840c75ed83]
reverse link _6 to _2--><path codeLine="57" d="M195.924,111.931 C215.06,129.313 236.247,148.557 255.429,165.981 " fill="none" id="_6&lt;-_2" style="stroke: #A80036; stroke-width: 1.0;"/><line style="stroke: #A80036; stroke-width: 1.0;" x1="195.4408" x2="184.1401" y1="111.4919" y2="106.113"/><line style="stroke: #A80036; stroke-width: 1.0;" x1="195.4408" x2="194.8979" y1="111.4919" y2="106.113"/><line style="stroke: #A80036; stroke-width: 1.0;" x1="195.4408" x2="189.519" y1="111.4919" y2="106.113"/><text fill="#000000" font-family="sans-serif" font-size="13" lengthAdjust="spacingAndGlyphs" textLength="0" x="247.4121" y="154.9165"/><!--MD5=[ac155e1a5d82a781cae4a33fa195383a]
@startuml
''''''''''''''''''''''''''''''''''''''''''
''                                      ''
''  AUTOGENERATED CODE - - DO NOT EDIT!  ''
''                                      ''
''''''''''''''''''''''''''''''''''''''''''

class "card_payment" as _0 << (D,orchid) >> {
+ card_number : string
+ expiry : string
+ id : int
}
class "customers" as _1 << (D,orchid) >> {
+ email : string
+ first_name : string
+ id : int
+ last_name : string
+ middle_name : string
+ password : string
+ phone : string
}
class "orders" as _2 << (D,orchid) >> {
+ customer_id : **customers.id** <<FK>>
+ id : int
+ review : **reviews.id** <<FK>>
+ status : int
+ total_price : int
}
class "orders_products" as _4 << (D,orchid) >> {
+ comments : string
+ order_id : **orders.id** <<FK>>
+ product_id : **products.id** <<FK>>
+ quantity : int
}
class "payment_details" as _6 << (D,orchid) >> {
+ id : int
+ order_id : **orders.id** <<FK>>
+ payment_card : **card_payment.id** <<FK>>
+ type : float
}
class "products" as _5 << (D,orchid) >> {
+ details : string
+ id : int
+ image : string
+ name : string
+ price : int
}
class "reviews" as _3 << (D,orchid) >> {
+ comment : string
+ id : int
+ score : int
}
_2 }- - " " _1
_2 }- - " " _3
_4 }- - " " _2
_4 }- - " " _5
_6 }- - " " _0
_6 }- - " " _2
@enduml

@startuml

class "card_payment" as _0 << (D,orchid) >> {
+ card_number : string
+ expiry : string
+ id : int
}
class "customers" as _1 << (D,orchid) >> {
+ email : string
+ first_name : string
+ id : int
+ last_name : string
+ middle_name : string
+ password : string
+ phone : string
}
class "orders" as _2 << (D,orchid) >> {
+ customer_id : **customers.id** <<FK>>
+ id : int
+ review : **reviews.id** <<FK>>
+ status : int
+ total_price : int
}
class "orders_products" as _4 << (D,orchid) >> {
+ comments : string
+ order_id : **orders.id** <<FK>>
+ product_id : **products.id** <<FK>>
+ quantity : int
}
class "payment_details" as _6 << (D,orchid) >> {
+ id : int
+ order_id : **orders.id** <<FK>>
+ payment_card : **card_payment.id** <<FK>>
+ type : float
}
class "products" as _5 << (D,orchid) >> {
+ details : string
+ id : int
+ image : string
+ name : string
+ price : int
}
class "reviews" as _3 << (D,orchid) >> {
+ comment : string
+ id : int
+ score : int
}
_2 }- - " " _1
_2 }- - " " _3
_4 }- - " " _2
_4 }- - " " _5
_6 }- - " " _0
_6 }- - " " _2
@enduml

PlantUML version 1.2020.16beta7(Unknown compile time)
(GPL source distribution)
Java Runtime: Java(TM) SE Runtime Environment
JVM: Java HotSpot(TM) 64-Bit Server VM
Default Encoding: UTF-8
Language: en
Country: US
--></g></svg>