<?xml version="1.0" encoding="UTF-8" standalone="no"?><svg xmlns="http://www.w3.org/2000/svg" xmlns:xlink="http://www.w3.org/1999/xlink" contentScriptType="application/ecmascript" contentStyleType="text/css" height="78px" preserveAspectRatio="none" style="width:95px;height:78px;" version="1.1" viewBox="0 0 95 78" width="95px" zoomAndPan="magnify"><defs><filter height="300%" id="f1wqrjhlp2hdvp" width="300%" x="-1" y="-1"><feGaussianBlur result="blurOut" stdDeviation="2.0"/><feColorMatrix in="blurOut" result="blurOut2" type="matrix" values="0 0 0 0 0 0 0 0 0 0 0 0 0 0 0 0 0 0 .4 0"/><feOffset dx="4.0" dy="4.0" in="blurOut2" result="blurOut3"/><feBlend in="SourceGraphic" in2="blurOut3" mode="normal"/></filter></defs><g><!--MD5=[f77682fd75c3e1fc6a82f566c0814d0f]
class _0--><rect fill="#FEFECE" filter="url(#f1wqrjhlp2hdvp)" height="60.9551" id="_0" style="stroke: #A80036; stroke-width: 1.5;" width="77" x="7" y="7"/><ellipse cx="22.9" cy="23" fill="#DA70D6" rx="11" ry="11" style="stroke: #A80036; stroke-width: 1.0;"/><path d="M21.9859,19.3149 L21.9859,27.292 L22.65,27.292 Q24.0943,27.292 24.7086,26.3831 Q25.3229,25.4741 25.3229,23.291 Q25.3229,21.1245 24.7086,20.2197 Q24.0943,19.3149 22.65,19.3149 Z M19.5372,17.1069 L22.1603,17.1069 Q25.1983,17.1069 26.5348,18.5554 Q27.8712,20.0039 27.8712,23.291 Q27.8712,26.5864 26.5348,28.0432 Q25.1983,29.5 22.1603,29.5 L19.5372,29.5 Z "/><text fill="#000000" font-family="sans-serif" font-size="12" lengthAdjust="spacingAndGlyphs" textLength="43" x="37.1" y="27.5352">STRING</text><line style="stroke: #A80036; stroke-width: 1.5;" x1="8" x2="83" y1="39" y2="39"/><ellipse cx="18" cy="50" fill="none" rx="3" ry="3" style="stroke: #038048; stroke-width: 1.0;"/><text fill="#000000" font-family="sans-serif" font-size="11" lengthAdjust="spacingAndGlyphs" textLength="51" x="27" y="53.6348">id : string</text><line style="stroke: #A80036; stroke-width: 1.5;" x1="8" x2="83" y1="59.9551" y2="59.9551"/><!--MD5=[49c0a116448a696231adfb09bd5a5ff1]
@startuml

class "STRING" as _0 << (D,orchid) >> {
+ id : string
}
@enduml

PlantUML version 1.2019.11(Sun Sep 22 20:02:15 AEST 2019)
(GPL source distribution)
Java Runtime: Java(TM) SE Runtime Environment
JVM: Java HotSpot(TM) 64-Bit Server VM
Java Version: 13.0.1+9
Operating System: Mac OS X
Default Encoding: UTF-8
Language: en
Country: AU
--></g></svg>