<?xml version="1.0" encoding="UTF-8" standalone="no"?><svg xmlns="http://www.w3.org/2000/svg" xmlns:xlink="http://www.w3.org/1999/xlink" contentScriptType="application/ecmascript" contentStyleType="text/css" height="322px" preserveAspectRatio="none" style="width:483px;height:322px;" version="1.1" viewBox="0 0 483 322" width="483px" zoomAndPan="magnify"><defs><filter height="300%" id="f12fkopm5n60v2" width="300%" x="-1" y="-1"><feGaussianBlur result="blurOut" stdDeviation="2.0"/><feColorMatrix in="blurOut" result="blurOut2" type="matrix" values="0 0 0 0 0 0 0 0 0 0 0 0 0 0 0 0 0 0 .4 0"/><feOffset dx="4.0" dy="4.0" in="blurOut2" result="blurOut3"/><feBlend in="SourceGraphic" in2="blurOut3" mode="normal"/></filter></defs><g><!--MD5=[f77682fd75c3e1fc6a82f566c0814d0f]
class _0--><rect codeLine="7" fill="#FEFECE" filter="url(#f12fkopm5n60v2)" height="143.5703" id="_0" style="stroke: #A80036; stroke-width: 1.5;" width="246" x="107" y="7"/><ellipse cx="165.25" cy="25.9688" fill="#DA70D6" rx="11" ry="11" style="stroke: #A80036; stroke-width: 1.0;"/><path d="M162.7656,29.2656 C162.1094,29.2656 161.7188,29.5781 161.7188,30.125 C161.7188,30.375 161.8594,30.6406 162.0781,30.7969 C162.2344,30.9219 162.4531,30.9688 162.8594,30.9688 L166.3281,30.9688 C167.8125,30.9688 168.8281,30.5781 169.6563,29.6875 C170.4375,28.875 170.8438,27.8281 170.8438,26.5781 L170.8438,25.7813 C170.8438,23.1094 168.9531,21.0625 166.4688,21.0625 L162.8594,21.0625 C162.4063,21.0625 162.2813,21.0781 162.125,21.1719 C161.875,21.3281 161.7188,21.625 161.7188,21.9063 C161.7188,22.4531 162.0938,22.75 162.7656,22.75 L162.7656,29.2656 Z M164.4531,29.2656 L164.4531,22.75 L166.3281,22.75 C167.2344,22.75 167.875,23.0313 168.3906,23.625 C168.875,24.2031 169.1563,24.9531 169.1563,25.75 L169.1563,26.5313 C169.1563,27.4063 168.9219,28 168.4531,28.5156 C167.9219,29.0625 167.3594,29.2656 166.3438,29.2656 L164.4531,29.2656 Z "/><text fill="#000000" font-family="sans-serif" font-size="12" font-style="italic" lengthAdjust="spacingAndGlyphs" textLength="125" x="183.75" y="23.1387">«OrderServer.Order»</text><text fill="#000000" font-family="sans-serif" font-size="12" lengthAdjust="spacingAndGlyphs" textLength="36" x="228.25" y="37.1074">Order</text><line style="stroke: #A80036; stroke-width: 1.5;" x1="108" x2="352" y1="44.9375" y2="44.9375"/><ellipse cx="118" cy="55.9375" fill="none" rx="3" ry="3" style="stroke: #038048; stroke-width: 1.0;"/><text fill="#000000" font-family="sans-serif" font-size="11" lengthAdjust="spacingAndGlyphs" textLength="35" x="127" y="59.1479">id : int</text><ellipse cx="118" cy="68.7422" fill="none" rx="3" ry="3" style="stroke: #038048; stroke-width: 1.0;"/><text fill="#000000" font-family="sans-serif" font-size="11" lengthAdjust="spacingAndGlyphs" textLength="39" x="127" y="71.9526">items :</text><text fill="#000000" font-family="sans-serif" font-size="11" font-weight="bold" lengthAdjust="spacingAndGlyphs" textLength="177" x="170" y="71.9526">Sequence &lt;OrderProduct&gt;</text><ellipse cx="118" cy="81.5469" fill="none" rx="3" ry="3" style="stroke: #038048; stroke-width: 1.0;"/><text fill="#000000" font-family="sans-serif" font-size="11" lengthAdjust="spacingAndGlyphs" textLength="59" x="127" y="84.7573">paid : bool</text><ellipse cx="118" cy="94.3516" fill="none" rx="3" ry="3" style="stroke: #038048; stroke-width: 1.0;"/><text fill="#000000" font-family="sans-serif" font-size="11" lengthAdjust="spacingAndGlyphs" textLength="141" x="127" y="97.562">review_comment : string</text><ellipse cx="118" cy="107.1563" fill="none" rx="3" ry="3" style="stroke: #038048; stroke-width: 1.0;"/><text fill="#000000" font-family="sans-serif" font-size="11" lengthAdjust="spacingAndGlyphs" textLength="101" x="127" y="110.3667">review_score : int</text><ellipse cx="118" cy="119.9609" fill="none" rx="3" ry="3" style="stroke: #038048; stroke-width: 1.0;"/><text fill="#000000" font-family="sans-serif" font-size="11" lengthAdjust="spacingAndGlyphs" textLength="41" x="127" y="123.1714">status :</text><text fill="#000000" font-family="sans-serif" font-size="11" font-weight="bold" lengthAdjust="spacingAndGlyphs" textLength="83" x="172" y="123.1714">OrderStatus</text><ellipse cx="118" cy="132.7656" fill="none" rx="3" ry="3" style="stroke: #038048; stroke-width: 1.0;"/><text fill="#000000" font-family="sans-serif" font-size="11" lengthAdjust="spacingAndGlyphs" textLength="84" x="127" y="135.9761">total_price : int</text><line style="stroke: #A80036; stroke-width: 1.5;" x1="108" x2="352" y1="142.5703" y2="142.5703"/><!--MD5=[37d6e5304215b5e345f427169db70937]
class _1--><rect codeLine="16" fill="#FEFECE" filter="url(#f12fkopm5n60v2)" height="92.3516" id="_1" style="stroke: #A80036; stroke-width: 1.5;" width="200" x="7" y="211"/><ellipse cx="22" cy="229.9688" fill="#DA70D6" rx="11" ry="11" style="stroke: #A80036; stroke-width: 1.0;"/><path d="M19.5156,233.2656 C18.8594,233.2656 18.4688,233.5781 18.4688,234.125 C18.4688,234.375 18.6094,234.6406 18.8281,234.7969 C18.9844,234.9219 19.2031,234.9688 19.6094,234.9688 L23.0781,234.9688 C24.5625,234.9688 25.5781,234.5781 26.4063,233.6875 C27.1875,232.875 27.5938,231.8281 27.5938,230.5781 L27.5938,229.7813 C27.5938,227.1094 25.7031,225.0625 23.2188,225.0625 L19.6094,225.0625 C19.1563,225.0625 19.0313,225.0781 18.875,225.1719 C18.625,225.3281 18.4688,225.625 18.4688,225.9063 C18.4688,226.4531 18.8438,226.75 19.5156,226.75 L19.5156,233.2656 Z M21.2031,233.2656 L21.2031,226.75 L23.0781,226.75 C23.9844,226.75 24.625,227.0313 25.1406,227.625 C25.625,228.2031 25.9063,228.9531 25.9063,229.75 L25.9063,230.5313 C25.9063,231.4063 25.6719,232 25.2031,232.5156 C24.6719,233.0625 24.1094,233.2656 23.0938,233.2656 L21.2031,233.2656 Z "/><text fill="#000000" font-family="sans-serif" font-size="12" font-style="italic" lengthAdjust="spacingAndGlyphs" textLength="172" x="34" y="227.1387">«OrderServer.OrderProduct»</text><text fill="#000000" font-family="sans-serif" font-size="12" lengthAdjust="spacingAndGlyphs" textLength="33" x="103.5" y="241.1074">items</text><line style="stroke: #A80036; stroke-width: 1.5;" x1="8" x2="206" y1="248.9375" y2="248.9375"/><ellipse cx="18" cy="259.9375" fill="none" rx="3" ry="3" style="stroke: #038048; stroke-width: 1.0;"/><text fill="#000000" font-family="sans-serif" font-size="11" lengthAdjust="spacingAndGlyphs" textLength="102" x="27" y="263.1479">comments : string</text><ellipse cx="18" cy="272.7422" fill="none" rx="3" ry="3" style="stroke: #038048; stroke-width: 1.0;"/><text fill="#000000" font-family="sans-serif" font-size="11" lengthAdjust="spacingAndGlyphs" textLength="83" x="27" y="275.9526">product_id : int</text><ellipse cx="18" cy="285.5469" fill="none" rx="3" ry="3" style="stroke: #038048; stroke-width: 1.0;"/><text fill="#000000" font-family="sans-serif" font-size="11" lengthAdjust="spacingAndGlyphs" textLength="71" x="27" y="288.7573">quantity : int</text><line style="stroke: #A80036; stroke-width: 1.5;" x1="8" x2="206" y1="295.3516" y2="295.3516"/><!--MD5=[95d1cea1cd7f69d371fe62aa72675e9c]
class _2--><rect codeLine="21" fill="#FEFECE" filter="url(#f12fkopm5n60v2)" height="48" id="_2" style="stroke: #A80036; stroke-width: 1.5;" width="222" x="242" y="233"/><ellipse cx="257" cy="249" fill="#DA70D6" rx="11" ry="11" style="stroke: #A80036; stroke-width: 1.0;"/><path d="M254.5156,252.2969 C253.8594,252.2969 253.4688,252.6094 253.4688,253.1563 C253.4688,253.4063 253.6094,253.6719 253.8281,253.8281 C253.9844,253.9531 254.2031,254 254.6094,254 L258.0781,254 C259.5625,254 260.5781,253.6094 261.4063,252.7188 C262.1875,251.9063 262.5938,250.8594 262.5938,249.6094 L262.5938,248.8125 C262.5938,246.1406 260.7031,244.0938 258.2188,244.0938 L254.6094,244.0938 C254.1563,244.0938 254.0313,244.1094 253.875,244.2031 C253.625,244.3594 253.4688,244.6563 253.4688,244.9375 C253.4688,245.4844 253.8438,245.7813 254.5156,245.7813 L254.5156,252.2969 Z M256.2031,252.2969 L256.2031,245.7813 L258.0781,245.7813 C258.9844,245.7813 259.625,246.0625 260.1406,246.6563 C260.625,247.2344 260.9063,247.9844 260.9063,248.7813 L260.9063,249.5625 C260.9063,250.4375 260.6719,251.0313 260.2031,251.5469 C259.6719,252.0938 259.1094,252.2969 258.0938,252.2969 L256.2031,252.2969 Z "/><text fill="#000000" font-family="sans-serif" font-size="12" lengthAdjust="spacingAndGlyphs" textLength="190" x="271" y="253.1543">OrderServer.OrderStatus enum</text><line style="stroke: #A80036; stroke-width: 1.5;" x1="243" x2="463" y1="265" y2="265"/><line style="stroke: #A80036; stroke-width: 1.5;" x1="243" x2="463" y1="273" y2="273"/><!--MD5=[bde1413f829cc278731640fabc810278]
reverse link _0 to _1--><path codeLine="23" d="M172.64,162.075 C160.873,178.913 148.903,196.041 138.463,210.9791 " fill="none" id="_0&lt;-_1" style="stroke: #A80036; stroke-width: 1.0;"/><polygon fill="#A80036" points="180.326,151.079,173.6103,153.7056,173.4518,160.9149,180.1675,158.2884,180.326,151.079" style="stroke: #A80036; stroke-width: 1.0;"/><text fill="#000000" font-family="sans-serif" font-size="13" lengthAdjust="spacingAndGlyphs" textLength="23" x="118.5198" y="199.8337">0..*</text><!--MD5=[eed656a2cfbc263ae3905a2379d727ae]
reverse link _0 to _2--><path codeLine="24" d="M287.149,161.774 C305.343,187.807 324.047,214.5714 336.85,232.8908 " fill="none" id="_0&lt;-_2" style="stroke: #A80036; stroke-width: 1.0;"/><polygon fill="#A80036" points="279.674,151.079,279.8325,158.2884,286.5482,160.9149,286.3897,153.7056,279.674,151.079" style="stroke: #A80036; stroke-width: 1.0;"/><text fill="#000000" font-family="sans-serif" font-size="13" lengthAdjust="spacingAndGlyphs" textLength="24" x="301.1241" y="221.8749">1..1</text><!--MD5=[9116f7aacf8fe497e9efad648a954c24]
@startuml
''''''''''''''''''''''''''''''''''''''''''
''                                      ''
''  AUTOGENERATED CODE - - DO NOT EDIT!  ''
''                                      ''
''''''''''''''''''''''''''''''''''''''''''

class "Order" as _0 << (D,orchid) OrderServer.Order >> {
+ id : int
+ items : **Sequence <OrderProduct>**
+ paid : bool
+ review_comment : string
+ review_score : int
+ status : **OrderStatus**
+ total_price : int
}
class "items" as _1 << (D,orchid) OrderServer.OrderProduct >> {
+ comments : string
+ product_id : int
+ quantity : int
}
class "OrderServer.OrderStatus enum" as _2<< (D,orchid) >> {
}
_0 *- - "0..*" _1
_0 *- - "1..1 " _2
@enduml

@startuml

class "Order" as _0 << (D,orchid) OrderServer.Order >> {
+ id : int
+ items : **Sequence <OrderProduct>**
+ paid : bool
+ review_comment : string
+ review_score : int
+ status : **OrderStatus**
+ total_price : int
}
class "items" as _1 << (D,orchid) OrderServer.OrderProduct >> {
+ comments : string
+ product_id : int
+ quantity : int
}
class "OrderServer.OrderStatus enum" as _2<< (D,orchid) >> {
}
_0 *- - "0..*" _1
_0 *- - "1..1 " _2
@enduml

PlantUML version 1.2020.16beta7(Unknown compile time)
(GPL source distribution)
Java Runtime: Java(TM) SE Runtime Environment
JVM: Java HotSpot(TM) 64-Bit Server VM
Default Encoding: UTF-8
Language: en
Country: US
--></g></svg>