<?xml version="1.0" encoding="UTF-8" standalone="no"?><svg xmlns="http://www.w3.org/2000/svg" xmlns:xlink="http://www.w3.org/1999/xlink" contentScriptType="application/ecmascript" contentStyleType="text/css" height="118px" preserveAspectRatio="none" style="width:154px;height:118px;" version="1.1" viewBox="0 0 154 118" width="154px" zoomAndPan="magnify"><defs><filter height="300%" id="f1xzensq6izq6f" width="300%" x="-1" y="-1"><feGaussianBlur result="blurOut" stdDeviation="2.0"/><feColorMatrix in="blurOut" result="blurOut2" type="matrix" values="0 0 0 0 0 0 0 0 0 0 0 0 0 0 0 0 0 0 .4 0"/><feOffset dx="4.0" dy="4.0" in="blurOut2" result="blurOut3"/><feBlend in="SourceGraphic" in2="blurOut3" mode="normal"/></filter></defs><g><!--MD5=[f77682fd75c3e1fc6a82f566c0814d0f]
class _0--><rect codeLine="7" fill="#FEFECE" filter="url(#f1xzensq6izq6f)" height="92.3516" id="_0" style="stroke: #A80036; stroke-width: 1.5;" width="128" x="7" y="7"/><ellipse cx="24.25" cy="25.9688" fill="#DA70D6" rx="11" ry="11" style="stroke: #A80036; stroke-width: 1.0;"/><path d="M21.7656,29.2656 C21.1094,29.2656 20.7188,29.5781 20.7188,30.125 C20.7188,30.375 20.8594,30.6406 21.0781,30.7969 C21.2344,30.9219 21.4531,30.9688 21.8594,30.9688 L25.3281,30.9688 C26.8125,30.9688 27.8281,30.5781 28.6563,29.6875 C29.4375,28.875 29.8438,27.8281 29.8438,26.5781 L29.8438,25.7813 C29.8438,23.1094 27.9531,21.0625 25.4688,21.0625 L21.8594,21.0625 C21.4063,21.0625 21.2813,21.0781 21.125,21.1719 C20.875,21.3281 20.7188,21.625 20.7188,21.9063 C20.7188,22.4531 21.0938,22.75 21.7656,22.75 L21.7656,29.2656 Z M23.4531,29.2656 L23.4531,22.75 L25.3281,22.75 C26.2344,22.75 26.875,23.0313 27.3906,23.625 C27.875,24.2031 28.1563,24.9531 28.1563,25.75 L28.1563,26.5313 C28.1563,27.4063 27.9219,28 27.4531,28.5156 C26.9219,29.0625 26.3594,29.2656 25.3438,29.2656 L23.4531,29.2656 Z "/><text fill="#000000" font-family="sans-serif" font-size="12" font-style="italic" lengthAdjust="spacingAndGlyphs" textLength="95" x="36.75" y="23.1387">«OrderProduct»</text><text fill="#000000" font-family="sans-serif" font-size="12" lengthAdjust="spacingAndGlyphs" textLength="81" x="43.75" y="37.1074">OrderProduct</text><line style="stroke: #A80036; stroke-width: 1.5;" x1="8" x2="134" y1="44.9375" y2="44.9375"/><ellipse cx="18" cy="55.9375" fill="none" rx="3" ry="3" style="stroke: #038048; stroke-width: 1.0;"/><text fill="#000000" font-family="sans-serif" font-size="11" lengthAdjust="spacingAndGlyphs" textLength="102" x="27" y="59.1479">comments : string</text><ellipse cx="18" cy="68.7422" fill="none" rx="3" ry="3" style="stroke: #038048; stroke-width: 1.0;"/><text fill="#000000" font-family="sans-serif" font-size="11" lengthAdjust="spacingAndGlyphs" textLength="83" x="27" y="71.9526">product_id : int</text><ellipse cx="18" cy="81.5469" fill="none" rx="3" ry="3" style="stroke: #038048; stroke-width: 1.0;"/><text fill="#000000" font-family="sans-serif" font-size="11" lengthAdjust="spacingAndGlyphs" textLength="71" x="27" y="84.7573">quantity : int</text><line style="stroke: #A80036; stroke-width: 1.5;" x1="8" x2="134" y1="91.3516" y2="91.3516"/><!--MD5=[1532d8ff6feb9cffd5ae3d7d5ff071a5]
@startuml
''''''''''''''''''''''''''''''''''''''''''
''                                      ''
''  AUTOGENERATED CODE - - DO NOT EDIT!  ''
''                                      ''
''''''''''''''''''''''''''''''''''''''''''

class "OrderProduct" as _0 << (D,orchid) OrderProduct >> {
+ comments : string
+ product_id : int
+ quantity : int
}
@enduml

@startuml

class "OrderProduct" as _0 << (D,orchid) OrderProduct >> {
+ comments : string
+ product_id : int
+ quantity : int
}
@enduml

PlantUML version 1.2020.16beta7(Unknown compile time)
(GPL source distribution)
Java Runtime: Java(TM) SE Runtime Environment
JVM: Java HotSpot(TM) 64-Bit Server VM
Default Encoding: UTF-8
Language: en
Country: US
--></g></svg>