<?xml version="1.0" encoding="UTF-8" standalone="no"?><svg xmlns="http://www.w3.org/2000/svg" xmlns:xlink="http://www.w3.org/1999/xlink" contentScriptType="application/ecmascript" contentStyleType="text/css" height="689px" preserveAspectRatio="none" style="width:391px;height:689px;" version="1.1" viewBox="0 0 391 689" width="391px" zoomAndPan="magnify"><defs><filter height="300%" id="fujqf42194lr3" width="300%" x="-1" y="-1"><feGaussianBlur result="blurOut" stdDeviation="2.0"/><feColorMatrix in="blurOut" result="blurOut2" type="matrix" values="0 0 0 0 0 0 0 0 0 0 0 0 0 0 0 0 0 0 .4 0"/><feOffset dx="4.0" dy="4.0" in="blurOut2" result="blurOut3"/><feBlend in="SourceGraphic" in2="blurOut3" mode="normal"/></filter></defs><g><text fill="#000000" font-family="sans-serif" font-size="18" lengthAdjust="spacingAndGlyphs" textLength="57" x="178" y="16.708">simple</text><!--MD5=[758d88821a0e741df1f73accbabae398]
cluster X_0--><rect fill="#FFFAF0" filter="url(#fujqf42194lr3)" height="182" rx="12.5" ry="12.5" style="stroke: #000000; stroke-width: 1.5;" width="357" x="22" y="496.9531"/><rect fill="#FFFFFF" height="149.7031" rx="12.5" ry="12.5" style="stroke: #FFFFFF; stroke-width: 1.0;" width="351" x="25" y="526.25"/><line style="stroke: #000000; stroke-width: 1.5;" x1="22" x2="379" y1="523.25" y2="523.25"/><text fill="#000000" font-family="sans-serif" font-size="14" lengthAdjust="spacingAndGlyphs" textLength="52" x="162" y="513.9482">Banana</text><!--MD5=[cecb9a85ae19b9003f4441b135e71cd6]
cluster X_1--><rect fill="#FFFAF0" filter="url(#fujqf42194lr3)" height="107" rx="12.5" ry="12.5" style="stroke: #000000; stroke-width: 1.5;" width="159" x="199.5" y="365.9531"/><rect fill="#FFFFFF" height="74.7031" rx="12.5" ry="12.5" style="stroke: #FFFFFF; stroke-width: 1.0;" width="153" x="202.5" y="395.25"/><line style="stroke: #000000; stroke-width: 1.5;" x1="199.5" x2="358.5" y1="392.25" y2="392.25"/><text fill="#000000" font-family="sans-serif" font-size="14" lengthAdjust="spacingAndGlyphs" textLength="23" x="240.5" y="382.9482">Bar</text><!--MD5=[51e8d94a944361a156a1f52e5c4894ba]
cluster X_2--><rect fill="#FFFAF0" filter="url(#fujqf42194lr3)" height="182" rx="12.5" ry="12.5" style="stroke: #000000; stroke-width: 1.5;" width="357" x="22" y="44.9531"/><rect fill="#FFFFFF" height="149.7031" rx="12.5" ry="12.5" style="stroke: #FFFFFF; stroke-width: 1.0;" width="351" x="25" y="74.25"/><line style="stroke: #000000; stroke-width: 1.5;" x1="22" x2="379" y1="71.25" y2="71.25"/><text fill="#000000" font-family="sans-serif" font-size="14" lengthAdjust="spacingAndGlyphs" textLength="26" x="162" y="61.9482">Foo</text><!--MD5=[52e5ef116ba828aa6123157a74d6ac2a]
cluster X_3--><rect fill="#FFFAF0" filter="url(#fujqf42194lr3)" height="91" rx="12.5" ry="12.5" style="stroke: #000000; stroke-width: 1.5;" width="125" x="216.5" y="250.9531"/><rect fill="#FFFFFF" height="58.7031" rx="12.5" ry="12.5" style="stroke: #FFFFFF; stroke-width: 1.0;" width="119" x="219.5" y="280.25"/><line style="stroke: #000000; stroke-width: 1.5;" x1="216.5" x2="341.5" y1="277.25" y2="277.25"/><text fill="#000000" font-family="sans-serif" font-size="14" lengthAdjust="spacingAndGlyphs" textLength="56" x="251" y="267.9482">ThisApp</text><rect fill="#FFFAF0" filter="url(#fujqf42194lr3)" height="40" rx="12.5" ry="12.5" style="stroke: #000000; stroke-width: 1.5;" width="168" x="195" y="622.9531"/><text fill="#000000" font-family="sans-serif" font-size="14" lengthAdjust="spacingAndGlyphs" textLength="158" x="200" y="647.7998">AnotherEndpoint client</text><rect fill="#FFFAF0" filter="url(#fujqf42194lr3)" height="40" rx="12.5" ry="12.5" style="stroke: #000000; stroke-width: 1.5;" width="134" x="212" y="547.9531"/><text fill="#000000" font-family="sans-serif" font-size="14" lengthAdjust="spacingAndGlyphs" textLength="124" x="217" y="572.7998">DoesntExist client</text><rect fill="#FFFAF0" filter="url(#fujqf42194lr3)" height="40" rx="12.5" ry="12.5" style="stroke: #000000; stroke-width: 1.5;" width="97" x="38" y="585.9531"/><text fill="#000000" font-family="sans-serif" font-size="14" lengthAdjust="spacingAndGlyphs" textLength="87" x="43" y="610.7998">thisEndpoint</text><rect fill="#FFFAF0" filter="url(#fujqf42194lr3)" height="40" rx="12.5" ry="12.5" style="stroke: #000000; stroke-width: 1.5;" width="127" x="215.5" y="416.9531"/><text fill="#000000" font-family="sans-serif" font-size="14" lengthAdjust="spacingAndGlyphs" textLength="117" x="220.5" y="441.7998">AnotherEndpoint</text><rect fill="#FFFAF0" filter="url(#fujqf42194lr3)" height="40" rx="12.5" ry="12.5" style="stroke: #000000; stroke-width: 1.5;" width="168" x="195" y="170.9531"/><text fill="#000000" font-family="sans-serif" font-size="14" lengthAdjust="spacingAndGlyphs" textLength="158" x="200" y="195.7998">AnotherEndpoint client</text><rect fill="#FFFAF0" filter="url(#fujqf42194lr3)" height="40" rx="12.5" ry="12.5" style="stroke: #000000; stroke-width: 1.5;" width="134" x="212" y="95.9531"/><text fill="#000000" font-family="sans-serif" font-size="14" lengthAdjust="spacingAndGlyphs" textLength="124" x="217" y="120.7998">DoesntExist client</text><rect fill="#FFFAF0" filter="url(#fujqf42194lr3)" height="40" rx="12.5" ry="12.5" style="stroke: #000000; stroke-width: 1.5;" width="97" x="38" y="133.9531"/><text fill="#000000" font-family="sans-serif" font-size="14" lengthAdjust="spacingAndGlyphs" textLength="87" x="43" y="158.7998">thisEndpoint</text><rect fill="#FFFAF0" filter="url(#fujqf42194lr3)" height="40" rx="12.5" ry="12.5" style="stroke: #000000; stroke-width: 1.5;" width="93" x="232.5" y="285.9531"/><text fill="#000000" font-family="sans-serif" font-size="14" lengthAdjust="spacingAndGlyphs" textLength="83" x="237.5" y="310.7998">DoesntExist</text><!--MD5=[f66a3fcae2732dd8e1fa566b839f94c6]
link _2 to _0--><path d="M135.08,615.1943 C151.6,618.403 170.698,622.1123 189.449,625.7541 " fill="none" id="_2-&gt;_0" style="stroke: #C0C0C0; stroke-width: 1.0;"/><polygon fill="#C0C0C0" points="194.725,626.779,186.6538,621.1349,189.8169,625.8248,185.127,628.9879,194.725,626.779" style="stroke: #C0C0C0; stroke-width: 1.0;"/><!--MD5=[4774900c3c3f97c2994a86017828dd12]
link _0 to _3--><path d="M201.758,622.8059 C186.078,614.8423 171.787,603.7836 163.25,588.4531 C135.849,539.2461 196.01,488.5211 239.439,460.0351 " fill="none" id="_0-&gt;_3" style="stroke: #000000; stroke-width: 1.0;"/><polygon fill="#000000" points="243.85,457.1801,234.1212,458.7133,239.6528,459.8973,238.4687,465.4289,243.85,457.1801" style="stroke: #000000; stroke-width: 1.0;"/><!--MD5=[797b2ad59651ef14175f94513191e355]
link _2 to _1--><path d="M135.08,596.4621 C156.686,592.1521 182.701,586.9631 206.581,582.1991 " fill="none" id="_2-&gt;_1" style="stroke: #C0C0C0; stroke-width: 1.0;"/><polygon fill="#C0C0C0" points="211.642,581.1901,202.0332,579.0291,206.7387,582.1688,203.599,586.8743,211.642,581.1901" style="stroke: #C0C0C0; stroke-width: 1.0;"/><!--MD5=[dedb7ffd7ada16f1d73d836d6c69be12]
link _1 to _7--><path d="M247.061,547.9201 C219.024,528.2651 180.157,495.4631 163.25,455.4531 C141.818,404.7351 198.166,356.2971 239.568,328.9251 " fill="none" id="_1-&gt;_7" style="stroke: #000000; stroke-width: 1.0;"/><polygon fill="#000000" points="243.777,326.1801,234.0536,327.7472,239.5893,328.9119,238.4245,334.4476,243.777,326.1801" style="stroke: #000000; stroke-width: 1.0;"/><!--MD5=[ab8cfac35efbe81c697ce9e92bffb793]
link _6 to _4--><path d="M135.08,163.1941 C151.6,166.4031 170.698,170.1121 189.449,173.7541 " fill="none" id="_6-&gt;_4" style="stroke: #C0C0C0; stroke-width: 1.0;"/><polygon fill="#C0C0C0" points="194.725,174.7791,186.6541,169.1346,189.8169,173.8247,185.1269,176.9875,194.725,174.7791" style="stroke: #C0C0C0; stroke-width: 1.0;"/><!--MD5=[bb4def495cbc1064a52389496df6c195]
link _4 to _3--><path d="M239.527,211.0301 C198.643,234.8311 143.309,277.2651 163.25,324.4531 C179.299,362.4311 215.133,393.9151 242.71,413.8251 " fill="none" id="_4-&gt;_3" style="stroke: #000000; stroke-width: 1.0;"/><polygon fill="#000000" points="247.061,416.9201,242.0463,408.4435,242.9868,414.0216,237.4087,414.9622,247.061,416.9201" style="stroke: #000000; stroke-width: 1.0;"/><!--MD5=[c6d103796782b03246687d21fec6ff16]
link _6 to _5--><path d="M135.08,144.4621 C156.686,140.1521 182.701,134.9631 206.581,130.1991 " fill="none" id="_6-&gt;_5" style="stroke: #C0C0C0; stroke-width: 1.0;"/><polygon fill="#C0C0C0" points="211.642,129.1901,202.0332,127.0291,206.7387,130.1688,203.599,134.8743,211.642,129.1901" style="stroke: #C0C0C0; stroke-width: 1.0;"/><!--MD5=[9c3896718b649f82f723c8b5802be855]
link _5 to _7--><path d="M211.726,131.5051 C192.298,139.6311 173.57,151.9211 163.25,170.4531 C138.511,214.8791 193.247,258.1121 235.608,283.3711 " fill="none" id="_5-&gt;_7" style="stroke: #000000; stroke-width: 1.0;"/><polygon fill="#000000" points="239.925,285.9101,234.1943,277.9002,235.6149,283.3758,230.1393,284.7964,239.925,285.9101" style="stroke: #000000; stroke-width: 1.0;"/><!--MD5=[10df86134222726c2352c916fd84548d]
@startuml


title simple
left to right direction
scale max 16384 height
hide empty description
skinparam state {
  BackgroundColor FloralWhite
  BorderColor Black
  ArrowColor Crimson
}
state "Banana" as X_0 <<highlight>> {
  state "AnotherEndpoint client" as _0 <<highlight>>
  state "DoesntExist client" as _1 <<highlight>>
  state "thisEndpoint" as _2 <<highlight>>
}
state "Bar" as X_1 <<highlight>> {
  state "AnotherEndpoint" as _3 <<highlight>>
}
state "Foo" as X_2 <<highlight>> {
  state "AnotherEndpoint client" as _4 <<highlight>>
  state "DoesntExist client" as _5 <<highlight>>
  state "thisEndpoint" as _6 <<highlight>>
}
state "ThisApp" as X_3 {
  state "DoesntExist" as _7
}
_2 -[#silver]-> _0
_0 -[#black]> _3
_2 -[#silver]-> _1
_1 -[#black]> _7
_6 -[#silver]-> _4
_4 -[#black]> _3
_6 -[#silver]-> _5
_5 -[#black]> _7
@enduml

PlantUML version 1.2019.11(Sun Sep 22 10:02:15 UTC 2019)
(GPL source distribution)
Java Runtime: OpenJDK Runtime Environment
JVM: OpenJDK 64-Bit Server VM
Java Version: 1.8.0_222-b10
Operating System: Linux
Default Encoding: UTF-8
Language: en
Country: null
--></g></svg>
