<?xml version="1.0" encoding="UTF-8" standalone="no"?><svg xmlns="http://www.w3.org/2000/svg" xmlns:xlink="http://www.w3.org/1999/xlink" contentScriptType="application/ecmascript" contentStyleType="text/css" height="92px" preserveAspectRatio="none" style="width:162px;height:92px;" version="1.1" viewBox="0 0 162 92" width="162px" zoomAndPan="magnify"><defs><filter height="300%" id="fua2wod15j61y" width="300%" x="-1" y="-1"><feGaussianBlur result="blurOut" stdDeviation="2.0"/><feColorMatrix in="blurOut" result="blurOut2" type="matrix" values="0 0 0 0 0 0 0 0 0 0 0 0 0 0 0 0 0 0 .4 0"/><feOffset dx="4.0" dy="4.0" in="blurOut2" result="blurOut3"/><feBlend in="SourceGraphic" in2="blurOut3" mode="normal"/></filter></defs><g><!--MD5=[f77682fd75c3e1fc6a82f566c0814d0f]
class _0--><rect fill="#FEFECE" filter="url(#fua2wod15j61y)" height="66.7422" id="_0" style="stroke: #A80036; stroke-width: 1.5;" width="136" x="7" y="7"/><ellipse cx="33.25" cy="25.9688" fill="#DA70D6" rx="11" ry="11" style="stroke: #A80036; stroke-width: 1.0;"/><path d="M30.7656,29.2656 C30.1094,29.2656 29.7188,29.5781 29.7188,30.125 C29.7188,30.375 29.8594,30.6406 30.0781,30.7969 C30.2344,30.9219 30.4531,30.9688 30.8594,30.9688 L34.3281,30.9688 C35.8125,30.9688 36.8281,30.5781 37.6563,29.6875 C38.4375,28.875 38.8438,27.8281 38.8438,26.5781 L38.8438,25.7813 C38.8438,23.1094 36.9531,21.0625 34.4688,21.0625 L30.8594,21.0625 C30.4063,21.0625 30.2813,21.0781 30.125,21.1719 C29.875,21.3281 29.7188,21.625 29.7188,21.9063 C29.7188,22.4531 30.0938,22.75 30.7656,22.75 L30.7656,29.2656 Z M32.4531,29.2656 L32.4531,22.75 L34.3281,22.75 C35.2344,22.75 35.875,23.0313 36.3906,23.625 C36.875,24.2031 37.1563,24.9531 37.1563,25.75 L37.1563,26.5313 C37.1563,27.4063 36.9219,28 36.4531,28.5156 C35.9219,29.0625 35.3594,29.2656 34.3438,29.2656 L32.4531,29.2656 Z "/><text fill="#000000" font-family="sans-serif" font-size="12" font-style="italic" lengthAdjust="spacingAndGlyphs" textLength="83" x="47.75" y="23.1387">«SimpleObj2»</text><text fill="#000000" font-family="sans-serif" font-size="12" lengthAdjust="spacingAndGlyphs" textLength="70" x="54.25" y="37.1074">SimpleObj2</text><line style="stroke: #A80036; stroke-width: 1.5;" x1="8" x2="142" y1="44.9375" y2="44.9375"/><ellipse cx="18" cy="55.9375" fill="none" rx="3" ry="3" style="stroke: #038048; stroke-width: 1.0;"/><text fill="#000000" font-family="sans-serif" font-size="11" lengthAdjust="spacingAndGlyphs" textLength="40" x="27" y="59.1479">name :</text><text fill="#000000" font-family="sans-serif" font-size="11" font-weight="bold" lengthAdjust="spacingAndGlyphs" textLength="66" x="71" y="59.1479">SimpleObj</text><line style="stroke: #A80036; stroke-width: 1.5;" x1="8" x2="142" y1="65.7422" y2="65.7422"/><!--MD5=[331b0882d43a76c01bab315c6c32244f]
@startuml
''''''''''''''''''''''''''''''''''''''''''
''                                      ''
''  AUTOGENERATED CODE - - DO NOT EDIT!  ''
''                                      ''
''''''''''''''''''''''''''''''''''''''''''

class "SimpleObj2" as _0 << (D,orchid) SimpleObj2 >> {
+ name : **SimpleObj**
}
@enduml

@startuml

class "SimpleObj2" as _0 << (D,orchid) SimpleObj2 >> {
+ name : **SimpleObj**
}
@enduml

PlantUML version 1.2020.16beta1(Unknown compile time)
(GPL source distribution)
Java Runtime: Java(TM) SE Runtime Environment
JVM: Java HotSpot(TM) 64-Bit Server VM
Default Encoding: UTF-8
Language: en
Country: US
--></g></svg>