<?xml version="1.0" encoding="UTF-8" standalone="no"?><svg xmlns="http://www.w3.org/2000/svg" xmlns:xlink="http://www.w3.org/1999/xlink" contentScriptType="application/ecmascript" contentStyleType="text/css" height="86px" preserveAspectRatio="none" style="width:129px;height:86px;" version="1.1" viewBox="0 0 129 86" width="129px" zoomAndPan="magnify"><defs><filter height="300%" id="frbrednlfo943" width="300%" x="-1" y="-1"><feGaussianBlur result="blurOut" stdDeviation="2.0"/><feColorMatrix in="blurOut" result="blurOut2" type="matrix" values="0 0 0 0 0 0 0 0 0 0 0 0 0 0 0 0 0 0 .4 0"/><feOffset dx="4.0" dy="4.0" in="blurOut2" result="blurOut3"/><feBlend in="SourceGraphic" in2="blurOut3" mode="normal"/></filter></defs><g><!--MD5=[f77682fd75c3e1fc6a82f566c0814d0f]
class _0--><rect fill="#FEFECE" filter="url(#frbrednlfo943)" height="60.8047" id="_0" style="stroke: #A80036; stroke-width: 1.5;" width="103" x="7" y="7"/><ellipse cx="26.5" cy="23" fill="#DA70D6" rx="11" ry="11" style="stroke: #A80036; stroke-width: 1.0;"/><path d="M26.0938,18.8125 L26.0938,26.7969 L26.75,26.7969 Q28.1875,26.7969 28.7969,25.8906 Q29.4219,24.9688 29.4219,22.7969 Q29.4219,20.625 28.7969,19.7188 Q28.1875,18.8125 26.75,18.8125 L26.0938,18.8125 Z M23.6406,16.6094 L26.2656,16.6094 Q29.2969,16.6094 30.625,18.0625 Q31.9688,19.5 31.9688,22.7969 Q31.9688,26.0938 30.625,27.5469 Q29.2969,29 26.2656,29 L23.6406,29 L23.6406,16.6094 Z "/><text fill="#000000" font-family="sans-serif" font-size="12" lengthAdjust="spacingAndGlyphs" textLength="61" x="41.5" y="27.1543">SimpleObj</text><line style="stroke: #A80036; stroke-width: 1.5;" x1="8" x2="109" y1="39" y2="39"/><ellipse cx="18" cy="50" fill="none" rx="3" ry="3" style="stroke: #038048; stroke-width: 1.0;"/><text fill="#000000" font-family="sans-serif" font-size="11" lengthAdjust="spacingAndGlyphs" textLength="77" x="27" y="53.2104">name : string</text><line style="stroke: #A80036; stroke-width: 1.5;" x1="8" x2="109" y1="59.8047" y2="59.8047"/><!--MD5=[57c3b92640c53406f3205d6ae16b1cfe]
@startuml
''''''''''''''''''''''''''''''''''''''''''
''                                      ''
''  AUTOGENERATED CODE - - DO NOT EDIT!  ''
''                                      ''
''''''''''''''''''''''''''''''''''''''''''

class "SimpleObj" as _0 << (D,orchid) >> {
+ name : string
}
@enduml

@startuml

class "SimpleObj" as _0 << (D,orchid) >> {
+ name : string
}
@enduml

PlantUML version 1.2020.14(Sat Jun 20 14:14:34 UTC 2020)
(GPL source distribution)
Java Runtime: OpenJDK Runtime Environment
JVM: OpenJDK 64-Bit Server VM
Default Encoding: UTF-8
Language: en
Country: null
--></g></svg>