<?xml version="1.0" encoding="UTF-8" standalone="no"?><svg xmlns="http://www.w3.org/2000/svg" xmlns:xlink="http://www.w3.org/1999/xlink" contentScriptType="application/ecmascript" contentStyleType="text/css" height="207px" preserveAspectRatio="none" style="width:207px;height:207px;" version="1.1" viewBox="0 0 207 207" width="207px" zoomAndPan="magnify"><defs><filter height="300%" id="f109w3bcaapihq" width="300%" x="-1" y="-1"><feGaussianBlur result="blurOut" stdDeviation="2.0"/><feColorMatrix in="blurOut" result="blurOut2" type="matrix" values="0 0 0 0 0 0 0 0 0 0 0 0 0 0 0 0 0 0 .4 0"/><feOffset dx="4.0" dy="4.0" in="blurOut2" result="blurOut3"/><feBlend in="SourceGraphic" in2="blurOut3" mode="normal"/></filter></defs><g><!--MD5=[f77682fd75c3e1fc6a82f566c0814d0f]
class _0--><rect fill="#FEFECE" filter="url(#f109w3bcaapihq)" height="60.8047" id="_0" style="stroke: #A80036; stroke-width: 1.5;" width="173" x="11" y="128"/><ellipse cx="26" cy="144" fill="#DA70D6" rx="11" ry="11" style="stroke: #A80036; stroke-width: 1.0;"/><path d="M25.5938,139.8125 L25.5938,147.7969 L26.25,147.7969 Q27.6875,147.7969 28.2969,146.8906 Q28.9219,145.9688 28.9219,143.7969 Q28.9219,141.625 28.2969,140.7188 Q27.6875,139.8125 26.25,139.8125 L25.5938,139.8125 Z M23.1406,137.6094 L25.7656,137.6094 Q28.7969,137.6094 30.125,139.0625 Q31.4688,140.5 31.4688,143.7969 Q31.4688,147.0938 30.125,148.5469 Q28.7969,150 25.7656,150 L23.1406,150 L23.1406,137.6094 Z "/><text fill="#000000" font-family="sans-serif" font-size="12" lengthAdjust="spacingAndGlyphs" textLength="141" x="40" y="148.1543">simpleredoc.SimpleObj</text><line style="stroke: #A80036; stroke-width: 1.5;" x1="12" x2="183" y1="160" y2="160"/><ellipse cx="22" cy="171" fill="none" rx="3" ry="3" style="stroke: #038048; stroke-width: 1.0;"/><text fill="#000000" font-family="sans-serif" font-size="11" lengthAdjust="spacingAndGlyphs" textLength="77" x="31" y="174.2104">name : string</text><line style="stroke: #A80036; stroke-width: 1.5;" x1="12" x2="183" y1="180.8047" y2="180.8047"/><!--MD5=[37d6e5304215b5e345f427169db70937]
class _1--><rect fill="#FEFECE" filter="url(#f109w3bcaapihq)" height="60.8047" id="_1" style="stroke: #A80036; stroke-width: 1.5;" width="181" x="7" y="7"/><ellipse cx="22" cy="23" fill="#DA70D6" rx="11" ry="11" style="stroke: #A80036; stroke-width: 1.0;"/><path d="M21.5938,18.8125 L21.5938,26.7969 L22.25,26.7969 Q23.6875,26.7969 24.2969,25.8906 Q24.9219,24.9688 24.9219,22.7969 Q24.9219,20.625 24.2969,19.7188 Q23.6875,18.8125 22.25,18.8125 L21.5938,18.8125 Z M19.1406,16.6094 L21.7656,16.6094 Q24.7969,16.6094 26.125,18.0625 Q27.4688,19.5 27.4688,22.7969 Q27.4688,26.0938 26.125,27.5469 Q24.7969,29 21.7656,29 L19.1406,29 L19.1406,16.6094 Z "/><text fill="#000000" font-family="sans-serif" font-size="12" lengthAdjust="spacingAndGlyphs" textLength="149" x="36" y="27.1543">simpleredoc.SimpleObj2</text><line style="stroke: #A80036; stroke-width: 1.5;" x1="8" x2="187" y1="39" y2="39"/><ellipse cx="18" cy="50" fill="none" rx="3" ry="3" style="stroke: #038048; stroke-width: 1.0;"/><text fill="#000000" font-family="sans-serif" font-size="11" lengthAdjust="spacingAndGlyphs" textLength="40" x="27" y="53.2104">name :</text><text fill="#000000" font-family="sans-serif" font-size="11" font-weight="bold" lengthAdjust="spacingAndGlyphs" textLength="65" x="71" y="53.2104">SimpleObj</text><line style="stroke: #A80036; stroke-width: 1.5;" x1="8" x2="187" y1="59.8047" y2="59.8047"/><!--MD5=[533817dd71937d491a48f9e800845371]
reverse link _1 to _0--><path d="M97.5,81.1434 C97.5,96.663 97.5,113.7908 97.5,127.9764 " fill="none" id="_1&lt;-_0" style="stroke: #A80036; stroke-width: 1.0;"/><polygon fill="#A80036" points="97.5,68.0334,93.5,74.0334,97.5,80.0334,101.5,74.0334,97.5,68.0334" style="stroke: #A80036; stroke-width: 1.0;"/><text fill="#000000" font-family="sans-serif" font-size="13" lengthAdjust="spacingAndGlyphs" textLength="24" x="66.4375" y="116.7615">1..1</text><!--MD5=[746d827730d41abc0e298492ebb6270e]
@startuml
''''''''''''''''''''''''''''''''''''''''''
''                                      ''
''  AUTOGENERATED CODE - - DO NOT EDIT!  ''
''                                      ''
''''''''''''''''''''''''''''''''''''''''''

class "simpleredoc.SimpleObj" as _0 << (D,orchid) >> {
+ name : string
}
class "simpleredoc.SimpleObj2" as _1 << (D,orchid) >> {
+ name : **SimpleObj**
}
_1 *- - "1..1 " _0
@enduml

@startuml

class "simpleredoc.SimpleObj" as _0 << (D,orchid) >> {
+ name : string
}
class "simpleredoc.SimpleObj2" as _1 << (D,orchid) >> {
+ name : **SimpleObj**
}
_1 *- - "1..1 " _0
@enduml

PlantUML version 1.2020.13(Sat Jun 13 12:26:38 UTC 2020)
(GPL source distribution)
Java Runtime: OpenJDK Runtime Environment
JVM: OpenJDK 64-Bit Server VM
Default Encoding: UTF-8
Language: en
Country: null
--></g></svg>