<?xml version="1.0" encoding="UTF-8" standalone="no"?><svg xmlns="http://www.w3.org/2000/svg" xmlns:xlink="http://www.w3.org/1999/xlink" contentScriptType="application/ecmascript" contentStyleType="text/css" height="86px" preserveAspectRatio="none" style="width:162px;height:86px;" version="1.1" viewBox="0 0 162 86" width="162px" zoomAndPan="magnify"><defs><filter height="300%" id="f1gm3scubr1dwn" width="300%" x="-1" y="-1"><feGaussianBlur result="blurOut" stdDeviation="2.0"/><feColorMatrix in="blurOut" result="blurOut2" type="matrix" values="0 0 0 0 0 0 0 0 0 0 0 0 0 0 0 0 0 0 .4 0"/><feOffset dx="4.0" dy="4.0" in="blurOut2" result="blurOut3"/><feBlend in="SourceGraphic" in2="blurOut3" mode="normal"/></filter></defs><g><!--MD5=[f77682fd75c3e1fc6a82f566c0814d0f]
class _0--><rect fill="#FEFECE" filter="url(#f1gm3scubr1dwn)" height="60.8047" id="_0" style="stroke: #A80036; stroke-width: 1.5;" width="136" x="7" y="7"/><ellipse cx="37.3" cy="23" fill="#DA70D6" rx="11" ry="11" style="stroke: #A80036; stroke-width: 1.0;"/><path d="M34.8156,26.2969 C34.1594,26.2969 33.7688,26.6094 33.7688,27.1563 C33.7688,27.4063 33.9094,27.6719 34.1281,27.8281 C34.2844,27.9531 34.5031,28 34.9094,28 L38.3781,28 C39.8625,28 40.8781,27.6094 41.7063,26.7188 C42.4875,25.9063 42.8938,24.8594 42.8938,23.6094 L42.8938,22.8125 C42.8938,20.1406 41.0031,18.0938 38.5188,18.0938 L34.9094,18.0938 C34.4563,18.0938 34.3313,18.1094 34.175,18.2031 C33.925,18.3594 33.7688,18.6563 33.7688,18.9375 C33.7688,19.4844 34.1438,19.7813 34.8156,19.7813 L34.8156,26.2969 Z M36.5031,26.2969 L36.5031,19.7813 L38.3781,19.7813 C39.2844,19.7813 39.925,20.0625 40.4406,20.6563 C40.925,21.2344 41.2063,21.9844 41.2063,22.7813 L41.2063,23.5625 C41.2063,24.4375 40.9719,25.0313 40.5031,25.5469 C39.9719,26.0938 39.4094,26.2969 38.3938,26.2969 L36.5031,26.2969 Z "/><text fill="#000000" font-family="sans-serif" font-size="12" lengthAdjust="spacingAndGlyphs" textLength="70" x="54.7" y="27.1543">SimpleObj2</text><line style="stroke: #A80036; stroke-width: 1.5;" x1="8" x2="142" y1="39" y2="39"/><ellipse cx="18" cy="50" fill="none" rx="3" ry="3" style="stroke: #038048; stroke-width: 1.0;"/><text fill="#000000" font-family="sans-serif" font-size="11" lengthAdjust="spacingAndGlyphs" textLength="40" x="27" y="53.2104">name :</text><text fill="#000000" font-family="sans-serif" font-size="11" font-weight="bold" lengthAdjust="spacingAndGlyphs" textLength="66" x="71" y="53.2104">SimpleObj</text><line style="stroke: #A80036; stroke-width: 1.5;" x1="8" x2="142" y1="59.8047" y2="59.8047"/><!--MD5=[cf37a22346ae7b63d5948f29532768a0]
@startuml
''''''''''''''''''''''''''''''''''''''''''
''                                      ''
''  AUTOGENERATED CODE - - DO NOT EDIT!  ''
''                                      ''
''''''''''''''''''''''''''''''''''''''''''

class "SimpleObj2" as _0 << (D,orchid) >> {
+ name : **SimpleObj**
}
@enduml

@startuml

class "SimpleObj2" as _0 << (D,orchid) >> {
+ name : **SimpleObj**
}
@enduml

PlantUML version 1.2020.13(Sat Jun 13 12:26:38 UTC 2020)
(GPL source distribution)
Java Runtime: Java(TM) SE Runtime Environment
JVM: Java HotSpot(TM) 64-Bit Server VM
Default Encoding: UTF-8
Language: en
Country: US
--></g></svg>