<?xml version="1.0" encoding="UTF-8" standalone="no"?><svg xmlns="http://www.w3.org/2000/svg" xmlns:xlink="http://www.w3.org/1999/xlink" contentScriptType="application/ecmascript" contentStyleType="text/css" height="86px" preserveAspectRatio="none" style="width:161px;height:86px;" version="1.1" viewBox="0 0 161 86" width="161px" zoomAndPan="magnify"><defs><filter height="300%" id="f1gm3scubr1dwn" width="300%" x="-1" y="-1"><feGaussianBlur result="blurOut" stdDeviation="2.0"/><feColorMatrix in="blurOut" result="blurOut2" type="matrix" values="0 0 0 0 0 0 0 0 0 0 0 0 0 0 0 0 0 0 .4 0"/><feOffset dx="4.0" dy="4.0" in="blurOut2" result="blurOut3"/><feBlend in="SourceGraphic" in2="blurOut3" mode="normal"/></filter></defs><g><!--MD5=[f77682fd75c3e1fc6a82f566c0814d0f]
class _0--><rect fill="#FEFECE" filter="url(#f1gm3scubr1dwn)" height="60.8047" id="_0" style="stroke: #A80036; stroke-width: 1.5;" width="135" x="7" y="7"/><ellipse cx="37.3" cy="23" fill="#DA70D6" rx="11" ry="11" style="stroke: #A80036; stroke-width: 1.0;"/><path d="M36.8938,18.8125 L36.8938,26.7969 L37.55,26.7969 Q38.9875,26.7969 39.5969,25.8906 Q40.2219,24.9688 40.2219,22.7969 Q40.2219,20.625 39.5969,19.7188 Q38.9875,18.8125 37.55,18.8125 L36.8938,18.8125 Z M34.4406,16.6094 L37.0656,16.6094 Q40.0969,16.6094 41.425,18.0625 Q42.7688,19.5 42.7688,22.7969 Q42.7688,26.0938 41.425,27.5469 Q40.0969,29 37.0656,29 L34.4406,29 L34.4406,16.6094 Z "/><text fill="#000000" font-family="sans-serif" font-size="12" lengthAdjust="spacingAndGlyphs" textLength="69" x="54.7" y="27.1543">SimpleObj2</text><line style="stroke: #A80036; stroke-width: 1.5;" x1="8" x2="141" y1="39" y2="39"/><ellipse cx="18" cy="50" fill="none" rx="3" ry="3" style="stroke: #038048; stroke-width: 1.0;"/><text fill="#000000" font-family="sans-serif" font-size="11" lengthAdjust="spacingAndGlyphs" textLength="40" x="27" y="53.2104">name :</text><text fill="#000000" font-family="sans-serif" font-size="11" font-weight="bold" lengthAdjust="spacingAndGlyphs" textLength="65" x="71" y="53.2104">SimpleObj</text><line style="stroke: #A80036; stroke-width: 1.5;" x1="8" x2="141" y1="59.8047" y2="59.8047"/><!--MD5=[132003deb0683767325e68487625a5cf]
@startuml
''''''''''''''''''''''''''''''''''''''''''
''                                      ''
''  AUTOGENERATED CODE - - DO NOT EDIT!  ''
''                                      ''
''''''''''''''''''''''''''''''''''''''''''

class "SimpleObj2" as _0 << (D,orchid) >> {
+ name : **SimpleObj**
}
@enduml

@startuml

class "SimpleObj2" as _0 << (D,orchid) >> {
+ name : **SimpleObj**
}
@enduml

PlantUML version 1.2020.14(Sat Jun 20 14:14:34 UTC 2020)
(GPL source distribution)
Java Runtime: OpenJDK Runtime Environment
JVM: OpenJDK 64-Bit Server VM
Default Encoding: UTF-8
Language: en
Country: null
--></g></svg>