<?xml version="1.0" encoding="UTF-8" standalone="no"?><svg xmlns="http://www.w3.org/2000/svg" xmlns:xlink="http://www.w3.org/1999/xlink" contentScriptType="application/ecmascript" contentStyleType="text/css" height="78px" preserveAspectRatio="none" style="width:119px;height:78px;" version="1.1" viewBox="0 0 119 78" width="119px" zoomAndPan="magnify"><defs><filter height="300%" id="frbrednlfo943" width="300%" x="-1" y="-1"><feGaussianBlur result="blurOut" stdDeviation="2.0"/><feColorMatrix in="blurOut" result="blurOut2" type="matrix" values="0 0 0 0 0 0 0 0 0 0 0 0 0 0 0 0 0 0 .4 0"/><feOffset dx="4.0" dy="4.0" in="blurOut2" result="blurOut3"/><feBlend in="SourceGraphic" in2="blurOut3" mode="normal"/></filter></defs><g><!--MD5=[f77682fd75c3e1fc6a82f566c0814d0f]
class _0--><rect fill="#FEFECE" filter="url(#frbrednlfo943)" height="60.8047" id="_0" style="stroke: #A80036; stroke-width: 1.5;" width="101" x="7" y="7"/><ellipse cx="25.15" cy="23" fill="#DA70D6" rx="11" ry="11" style="stroke: #A80036; stroke-width: 1.0;"/><path d="M22.6656,26.2969 C22.0094,26.2969 21.6188,26.6094 21.6188,27.1563 C21.6188,27.4063 21.7594,27.6719 21.9781,27.8281 C22.1344,27.9531 22.3531,28 22.7594,28 L26.2281,28 C27.7125,28 28.7281,27.6094 29.5563,26.7188 C30.3375,25.9063 30.7438,24.8594 30.7438,23.6094 L30.7438,22.8125 C30.7438,20.1406 28.8531,18.0938 26.3688,18.0938 L22.7594,18.0938 C22.3063,18.0938 22.1813,18.1094 22.025,18.2031 C21.775,18.3594 21.6188,18.6563 21.6188,18.9375 C21.6188,19.4844 21.9938,19.7813 22.6656,19.7813 L22.6656,26.2969 Z M24.3531,26.2969 L24.3531,19.7813 L26.2281,19.7813 C27.1344,19.7813 27.775,20.0625 28.2906,20.6563 C28.775,21.2344 29.0563,21.9844 29.0563,22.7813 L29.0563,23.5625 C29.0563,24.4375 28.8219,25.0313 28.3531,25.5469 C27.8219,26.0938 27.2594,26.2969 26.2438,26.2969 L24.3531,26.2969 Z "/><text fill="#000000" font-family="sans-serif" font-size="12" lengthAdjust="spacingAndGlyphs" textLength="62" x="39.85" y="27.1543">SimpleObj</text><line style="stroke: #A80036; stroke-width: 1.5;" x1="8" x2="107" y1="39" y2="39"/><ellipse cx="18" cy="50" fill="none" rx="3" ry="3" style="stroke: #038048; stroke-width: 1.0;"/><text fill="#000000" font-family="sans-serif" font-size="11" lengthAdjust="spacingAndGlyphs" textLength="75" x="27" y="53.2104">name : string</text><line style="stroke: #A80036; stroke-width: 1.5;" x1="8" x2="107" y1="59.8047" y2="59.8047"/><!--MD5=[77c3de4db97e034d5da4c9e554a3073c]
@startuml
''''''''''''''''''''''''''''''''''''''''''
''                                      ''
''  AUTOGENERATED CODE - - DO NOT EDIT!  ''
''                                      ''
''''''''''''''''''''''''''''''''''''''''''

class "SimpleObj" as _0 << (D,orchid) >> {
+ name : string
}
@enduml

@startuml

class "SimpleObj" as _0 << (D,orchid) >> {
+ name : string
}
@enduml

PlantUML version 1.2020.12(Sat Jun 06 10:54:15 UTC 2020)
(GPL source distribution)
Java Runtime: Java(TM) SE Runtime Environment
JVM: Java HotSpot(TM) 64-Bit Server VM
Default Encoding: UTF-8
Language: en
Country: US
--></g></svg>