<?xml version="1.0" encoding="UTF-8" standalone="no"?><svg xmlns="http://www.w3.org/2000/svg" xmlns:xlink="http://www.w3.org/1999/xlink" contentScriptType="application/ecmascript" contentStyleType="text/css" height="219px" preserveAspectRatio="none" style="width:214px;height:219px;" version="1.1" viewBox="0 0 214 219" width="214px" zoomAndPan="magnify"><defs><filter height="300%" id="f1h8mlu0sd81ue" width="300%" x="-1" y="-1"><feGaussianBlur result="blurOut" stdDeviation="2.0"/><feColorMatrix in="blurOut" result="blurOut2" type="matrix" values="0 0 0 0 0 0 0 0 0 0 0 0 0 0 0 0 0 0 .4 0"/><feOffset dx="4.0" dy="4.0" in="blurOut2" result="blurOut3"/><feBlend in="SourceGraphic" in2="blurOut3" mode="normal"/></filter></defs><g><!--MD5=[f77682fd75c3e1fc6a82f566c0814d0f]
class _0--><rect codeLine="7" fill="#FEFECE" filter="url(#f1h8mlu0sd81ue)" height="66.7422" id="_0" style="stroke: #A80036; stroke-width: 1.5;" width="180" x="11" y="134"/><ellipse cx="26" cy="152.9688" fill="#DA70D6" rx="11" ry="11" style="stroke: #A80036; stroke-width: 1.0;"/><path d="M23.5156,156.2656 C22.8594,156.2656 22.4688,156.5781 22.4688,157.125 C22.4688,157.375 22.6094,157.6406 22.8281,157.7969 C22.9844,157.9219 23.2031,157.9688 23.6094,157.9688 L27.0781,157.9688 C28.5625,157.9688 29.5781,157.5781 30.4063,156.6875 C31.1875,155.875 31.5938,154.8281 31.5938,153.5781 L31.5938,152.7813 C31.5938,150.1094 29.7031,148.0625 27.2188,148.0625 L23.6094,148.0625 C23.1563,148.0625 23.0313,148.0781 22.875,148.1719 C22.625,148.3281 22.4688,148.625 22.4688,148.9063 C22.4688,149.4531 22.8438,149.75 23.5156,149.75 L23.5156,156.2656 Z M25.2031,156.2656 L25.2031,149.75 L27.0781,149.75 C27.9844,149.75 28.625,150.0313 29.1406,150.625 C29.625,151.2031 29.9063,151.9531 29.9063,152.75 L29.9063,153.5313 C29.9063,154.4063 29.6719,155 29.2031,155.5156 C28.6719,156.0625 28.1094,156.2656 27.0938,156.2656 L25.2031,156.2656 Z "/><text fill="#000000" font-family="sans-serif" font-size="12" font-style="italic" lengthAdjust="spacingAndGlyphs" textLength="152" x="38" y="150.1387">«simpleredoc.SimpleObj»</text><text fill="#000000" font-family="sans-serif" font-size="12" lengthAdjust="spacingAndGlyphs" textLength="33" x="97.5" y="164.1074">name</text><line style="stroke: #A80036; stroke-width: 1.5;" x1="12" x2="190" y1="171.9375" y2="171.9375"/><ellipse cx="22" cy="182.9375" fill="none" rx="3" ry="3" style="stroke: #038048; stroke-width: 1.0;"/><text fill="#000000" font-family="sans-serif" font-size="11" lengthAdjust="spacingAndGlyphs" textLength="75" x="31" y="186.1479">name : string</text><line style="stroke: #A80036; stroke-width: 1.5;" x1="12" x2="190" y1="192.7422" y2="192.7422"/><!--MD5=[37d6e5304215b5e345f427169db70937]
class _1--><rect codeLine="10" fill="#FEFECE" filter="url(#f1h8mlu0sd81ue)" height="66.7422" id="_1" style="stroke: #A80036; stroke-width: 1.5;" width="188" x="7" y="7"/><ellipse cx="22" cy="25.9688" fill="#DA70D6" rx="11" ry="11" style="stroke: #A80036; stroke-width: 1.0;"/><path d="M19.5156,29.2656 C18.8594,29.2656 18.4688,29.5781 18.4688,30.125 C18.4688,30.375 18.6094,30.6406 18.8281,30.7969 C18.9844,30.9219 19.2031,30.9688 19.6094,30.9688 L23.0781,30.9688 C24.5625,30.9688 25.5781,30.5781 26.4063,29.6875 C27.1875,28.875 27.5938,27.8281 27.5938,26.5781 L27.5938,25.7813 C27.5938,23.1094 25.7031,21.0625 23.2188,21.0625 L19.6094,21.0625 C19.1563,21.0625 19.0313,21.0781 18.875,21.1719 C18.625,21.3281 18.4688,21.625 18.4688,21.9063 C18.4688,22.4531 18.8438,22.75 19.5156,22.75 L19.5156,29.2656 Z M21.2031,29.2656 L21.2031,22.75 L23.0781,22.75 C23.9844,22.75 24.625,23.0313 25.1406,23.625 C25.625,24.2031 25.9063,24.9531 25.9063,25.75 L25.9063,26.5313 C25.9063,27.4063 25.6719,28 25.2031,28.5156 C24.6719,29.0625 24.1094,29.2656 23.0938,29.2656 L21.2031,29.2656 Z "/><text fill="#000000" font-family="sans-serif" font-size="12" font-style="italic" lengthAdjust="spacingAndGlyphs" textLength="160" x="34" y="23.1387">«simpleredoc.SimpleObj2»</text><text fill="#000000" font-family="sans-serif" font-size="12" lengthAdjust="spacingAndGlyphs" textLength="70" x="79" y="37.1074">SimpleObj2</text><line style="stroke: #A80036; stroke-width: 1.5;" x1="8" x2="194" y1="44.9375" y2="44.9375"/><ellipse cx="18" cy="55.9375" fill="none" rx="3" ry="3" style="stroke: #038048; stroke-width: 1.0;"/><text fill="#000000" font-family="sans-serif" font-size="11" lengthAdjust="spacingAndGlyphs" textLength="40" x="27" y="59.1479">name :</text><text fill="#000000" font-family="sans-serif" font-size="11" font-weight="bold" lengthAdjust="spacingAndGlyphs" textLength="66" x="71" y="59.1479">SimpleObj</text><line style="stroke: #A80036; stroke-width: 1.5;" x1="8" x2="194" y1="65.7422" y2="65.7422"/><!--MD5=[533817dd71937d491a48f9e800845371]
reverse link _1 to _0--><path codeLine="13" d="M101,87.097 C101,102.5382 101,119.4673 101,133.7126 " fill="none" id="_1&lt;-_0" style="stroke: #A80036; stroke-width: 1.0;"/><polygon fill="#A80036" points="101,74.016,97,80.016,101,86.016,105,80.016,101,74.016" style="stroke: #A80036; stroke-width: 1.0;"/><text fill="#000000" font-family="sans-serif" font-size="13" lengthAdjust="spacingAndGlyphs" textLength="24" x="70.3313" y="122.9463">1..1</text><!--MD5=[57a7c4be4a1be4346c761958788a8992]
@startuml
''''''''''''''''''''''''''''''''''''''''''
''                                      ''
''  AUTOGENERATED CODE - - DO NOT EDIT!  ''
''                                      ''
''''''''''''''''''''''''''''''''''''''''''

class "name" as _0 << (D,orchid) simpleredoc.SimpleObj >> {
+ name : string
}
class "SimpleObj2" as _1 << (D,orchid) simpleredoc.SimpleObj2 >> {
+ name : **SimpleObj**
}
_1 *- - "1..1 " _0
@enduml

@startuml

class "name" as _0 << (D,orchid) simpleredoc.SimpleObj >> {
+ name : string
}
class "SimpleObj2" as _1 << (D,orchid) simpleredoc.SimpleObj2 >> {
+ name : **SimpleObj**
}
_1 *- - "1..1 " _0
@enduml

PlantUML version 1.2020.16beta3(Unknown compile time)
(GPL source distribution)
Java Runtime: Java(TM) SE Runtime Environment
JVM: Java HotSpot(TM) 64-Bit Server VM
Default Encoding: UTF-8
Language: en
Country: US
--></g></svg>