<?xml version="1.0" encoding="UTF-8" standalone="no"?><svg xmlns="http://www.w3.org/2000/svg" xmlns:xlink="http://www.w3.org/1999/xlink" contentScriptType="application/ecmascript" contentStyleType="text/css" height="92px" preserveAspectRatio="none" style="width:161px;height:92px;" version="1.1" viewBox="0 0 161 92" width="161px" zoomAndPan="magnify"><defs><filter height="300%" id="fua2wod15j61y" width="300%" x="-1" y="-1"><feGaussianBlur result="blurOut" stdDeviation="2.0"/><feColorMatrix in="blurOut" result="blurOut2" type="matrix" values="0 0 0 0 0 0 0 0 0 0 0 0 0 0 0 0 0 0 .4 0"/><feOffset dx="4.0" dy="4.0" in="blurOut2" result="blurOut3"/><feBlend in="SourceGraphic" in2="blurOut3" mode="normal"/></filter></defs><g><!--MD5=[f77682fd75c3e1fc6a82f566c0814d0f]
class _0--><rect fill="#FEFECE" filter="url(#fua2wod15j61y)" height="66.7422" id="_0" style="stroke: #A80036; stroke-width: 1.5;" width="135" x="7" y="7"/><ellipse cx="32.8" cy="25.9688" fill="#DA70D6" rx="11" ry="11" style="stroke: #A80036; stroke-width: 1.0;"/><path d="M32.3938,21.7813 L32.3938,29.7656 L33.05,29.7656 Q34.4875,29.7656 35.0969,28.8594 Q35.7219,27.9375 35.7219,25.7656 Q35.7219,23.5938 35.0969,22.6875 Q34.4875,21.7813 33.05,21.7813 L32.3938,21.7813 Z M29.9406,19.5781 L32.5656,19.5781 Q35.5969,19.5781 36.925,21.0313 Q38.2688,22.4688 38.2688,25.7656 Q38.2688,29.0625 36.925,30.5156 Q35.5969,31.9688 32.5656,31.9688 L29.9406,31.9688 L29.9406,19.5781 Z "/><text fill="#000000" font-family="sans-serif" font-size="12" font-style="italic" lengthAdjust="spacingAndGlyphs" textLength="83" x="47.2" y="23.1387">«SimpleObj2»</text><text fill="#000000" font-family="sans-serif" font-size="12" lengthAdjust="spacingAndGlyphs" textLength="69" x="54.2" y="37.1074">SimpleObj2</text><line style="stroke: #A80036; stroke-width: 1.5;" x1="8" x2="141" y1="44.9375" y2="44.9375"/><ellipse cx="18" cy="55.9375" fill="none" rx="3" ry="3" style="stroke: #038048; stroke-width: 1.0;"/><text fill="#000000" font-family="sans-serif" font-size="11" lengthAdjust="spacingAndGlyphs" textLength="40" x="27" y="59.1479">name :</text><text fill="#000000" font-family="sans-serif" font-size="11" font-weight="bold" lengthAdjust="spacingAndGlyphs" textLength="65" x="71" y="59.1479">SimpleObj</text><line style="stroke: #A80036; stroke-width: 1.5;" x1="8" x2="141" y1="65.7422" y2="65.7422"/><!--MD5=[ccc0f47c94dd85cbef3296218006b66e]
@startuml
''''''''''''''''''''''''''''''''''''''''''
''                                      ''
''  AUTOGENERATED CODE - - DO NOT EDIT!  ''
''                                      ''
''''''''''''''''''''''''''''''''''''''''''

class "SimpleObj2" as _0 << (D,orchid) SimpleObj2 >> {
+ name : **SimpleObj**
}
@enduml

@startuml

class "SimpleObj2" as _0 << (D,orchid) SimpleObj2 >> {
+ name : **SimpleObj**
}
@enduml

PlantUML version 1.2020.15(Sun Jun 28 11:39:45 UTC 2020)
(GPL source distribution)
Java Runtime: OpenJDK Runtime Environment
JVM: OpenJDK 64-Bit Server VM
Default Encoding: UTF-8
Language: en
Country: null
--></g></svg>