<?xml version="1.0" encoding="UTF-8" standalone="no"?><svg xmlns="http://www.w3.org/2000/svg" xmlns:xlink="http://www.w3.org/1999/xlink" contentScriptType="application/ecmascript" contentStyleType="text/css" height="207px" preserveAspectRatio="none" style="width:207px;height:207px;" version="1.1" viewBox="0 0 207 207" width="207px" zoomAndPan="magnify"><defs><filter height="300%" id="f109w3bcaapihq" width="300%" x="-1" y="-1"><feGaussianBlur result="blurOut" stdDeviation="2.0"/><feColorMatrix in="blurOut" result="blurOut2" type="matrix" values="0 0 0 0 0 0 0 0 0 0 0 0 0 0 0 0 0 0 .4 0"/><feOffset dx="4.0" dy="4.0" in="blurOut2" result="blurOut3"/><feBlend in="SourceGraphic" in2="blurOut3" mode="normal"/></filter></defs><g><!--MD5=[f77682fd75c3e1fc6a82f566c0814d0f]
class _0--><rect fill="#FEFECE" filter="url(#f109w3bcaapihq)" height="60.8047" id="_0" style="stroke: #A80036; stroke-width: 1.5;" width="173" x="11" y="128"/><ellipse cx="26" cy="144" fill="#DA70D6" rx="11" ry="11" style="stroke: #A80036; stroke-width: 1.0;"/><path d="M23.5156,147.2969 C22.8594,147.2969 22.4688,147.6094 22.4688,148.1563 C22.4688,148.4063 22.6094,148.6719 22.8281,148.8281 C22.9844,148.9531 23.2031,149 23.6094,149 L27.0781,149 C28.5625,149 29.5781,148.6094 30.4063,147.7188 C31.1875,146.9063 31.5938,145.8594 31.5938,144.6094 L31.5938,143.8125 C31.5938,141.1406 29.7031,139.0938 27.2188,139.0938 L23.6094,139.0938 C23.1563,139.0938 23.0313,139.1094 22.875,139.2031 C22.625,139.3594 22.4688,139.6563 22.4688,139.9375 C22.4688,140.4844 22.8438,140.7813 23.5156,140.7813 L23.5156,147.2969 Z M25.2031,147.2969 L25.2031,140.7813 L27.0781,140.7813 C27.9844,140.7813 28.625,141.0625 29.1406,141.6563 C29.625,142.2344 29.9063,142.9844 29.9063,143.7813 L29.9063,144.5625 C29.9063,145.4375 29.6719,146.0313 29.2031,146.5469 C28.6719,147.0938 28.1094,147.2969 27.0938,147.2969 L25.2031,147.2969 Z "/><text fill="#000000" font-family="sans-serif" font-size="12" lengthAdjust="spacingAndGlyphs" textLength="141" x="40" y="148.1543">simpleredoc.SimpleObj</text><line style="stroke: #A80036; stroke-width: 1.5;" x1="12" x2="183" y1="160" y2="160"/><ellipse cx="22" cy="171" fill="none" rx="3" ry="3" style="stroke: #038048; stroke-width: 1.0;"/><text fill="#000000" font-family="sans-serif" font-size="11" lengthAdjust="spacingAndGlyphs" textLength="75" x="31" y="174.2104">name : string</text><line style="stroke: #A80036; stroke-width: 1.5;" x1="12" x2="183" y1="180.8047" y2="180.8047"/><!--MD5=[37d6e5304215b5e345f427169db70937]
class _1--><rect fill="#FEFECE" filter="url(#f109w3bcaapihq)" height="60.8047" id="_1" style="stroke: #A80036; stroke-width: 1.5;" width="181" x="7" y="7"/><ellipse cx="22" cy="23" fill="#DA70D6" rx="11" ry="11" style="stroke: #A80036; stroke-width: 1.0;"/><path d="M19.5156,26.2969 C18.8594,26.2969 18.4688,26.6094 18.4688,27.1563 C18.4688,27.4063 18.6094,27.6719 18.8281,27.8281 C18.9844,27.9531 19.2031,28 19.6094,28 L23.0781,28 C24.5625,28 25.5781,27.6094 26.4063,26.7188 C27.1875,25.9063 27.5938,24.8594 27.5938,23.6094 L27.5938,22.8125 C27.5938,20.1406 25.7031,18.0938 23.2188,18.0938 L19.6094,18.0938 C19.1563,18.0938 19.0313,18.1094 18.875,18.2031 C18.625,18.3594 18.4688,18.6563 18.4688,18.9375 C18.4688,19.4844 18.8438,19.7813 19.5156,19.7813 L19.5156,26.2969 Z M21.2031,26.2969 L21.2031,19.7813 L23.0781,19.7813 C23.9844,19.7813 24.625,20.0625 25.1406,20.6563 C25.625,21.2344 25.9063,21.9844 25.9063,22.7813 L25.9063,23.5625 C25.9063,24.4375 25.6719,25.0313 25.2031,25.5469 C24.6719,26.0938 24.1094,26.2969 23.0938,26.2969 L21.2031,26.2969 Z "/><text fill="#000000" font-family="sans-serif" font-size="12" lengthAdjust="spacingAndGlyphs" textLength="149" x="36" y="27.1543">simpleredoc.SimpleObj2</text><line style="stroke: #A80036; stroke-width: 1.5;" x1="8" x2="187" y1="39" y2="39"/><ellipse cx="18" cy="50" fill="none" rx="3" ry="3" style="stroke: #038048; stroke-width: 1.0;"/><text fill="#000000" font-family="sans-serif" font-size="11" lengthAdjust="spacingAndGlyphs" textLength="40" x="27" y="53.2104">name :</text><text fill="#000000" font-family="sans-serif" font-size="11" font-weight="bold" lengthAdjust="spacingAndGlyphs" textLength="66" x="71" y="53.2104">SimpleObj</text><line style="stroke: #A80036; stroke-width: 1.5;" x1="8" x2="187" y1="59.8047" y2="59.8047"/><!--MD5=[533817dd71937d491a48f9e800845371]
reverse link _1 to _0--><path d="M97.5,81.228 C97.5,96.6381 97.5,113.6833 97.5,127.7447 " fill="none" id="_1&lt;-_0" style="stroke: #A80036; stroke-width: 1.0;"/><polygon fill="#A80036" points="97.5,68.222,93.5,74.222,97.5,80.222,101.5,74.222,97.5,68.222" style="stroke: #A80036; stroke-width: 1.0;"/><text fill="#000000" font-family="sans-serif" font-size="13" lengthAdjust="spacingAndGlyphs" textLength="24" x="66.6125" y="116.9553">1..1</text><!--MD5=[470a481870abc48f32da3db09b01cef6]
@startuml
''''''''''''''''''''''''''''''''''''''''''
''                                      ''
''  AUTOGENERATED CODE - - DO NOT EDIT!  ''
''                                      ''
''''''''''''''''''''''''''''''''''''''''''

class "simpleredoc.SimpleObj" as _0 << (D,orchid) >> {
+ name : string
}
class "simpleredoc.SimpleObj2" as _1 << (D,orchid) >> {
+ name : **SimpleObj**
}
_1 *- - "1..1 " _0
@enduml

@startuml

class "simpleredoc.SimpleObj" as _0 << (D,orchid) >> {
+ name : string
}
class "simpleredoc.SimpleObj2" as _1 << (D,orchid) >> {
+ name : **SimpleObj**
}
_1 *- - "1..1 " _0
@enduml

PlantUML version 1.2020.15beta1(Unknown compile time)
(GPL source distribution)
Java Runtime: Java(TM) SE Runtime Environment
JVM: Java HotSpot(TM) 64-Bit Server VM
Default Encoding: UTF-8
Language: en
Country: US
--></g></svg>