<?xml version="1.0" encoding="UTF-8" standalone="no"?><svg xmlns="http://www.w3.org/2000/svg" xmlns:xlink="http://www.w3.org/1999/xlink" contentScriptType="application/ecmascript" contentStyleType="text/css" height="200px" preserveAspectRatio="none" style="width:198px;height:200px;" version="1.1" viewBox="0 0 198 200" width="198px" zoomAndPan="magnify"><defs><filter height="300%" id="f109w3bcaapihq" width="300%" x="-1" y="-1"><feGaussianBlur result="blurOut" stdDeviation="2.0"/><feColorMatrix in="blurOut" result="blurOut2" type="matrix" values="0 0 0 0 0 0 0 0 0 0 0 0 0 0 0 0 0 0 .4 0"/><feOffset dx="4.0" dy="4.0" in="blurOut2" result="blurOut3"/><feBlend in="SourceGraphic" in2="blurOut3" mode="normal"/></filter></defs><g><!--MD5=[f77682fd75c3e1fc6a82f566c0814d0f]
class _0--><rect fill="#FEFECE" filter="url(#f109w3bcaapihq)" height="60.8047" id="_0" style="stroke: #A80036; stroke-width: 1.5;" width="173" x="10" y="129"/><ellipse cx="25" cy="145" fill="#DA70D6" rx="11" ry="11" style="stroke: #A80036; stroke-width: 1.0;"/><path d="M22.5156,148.2969 C21.8594,148.2969 21.4688,148.6094 21.4688,149.1563 C21.4688,149.4063 21.6094,149.6719 21.8281,149.8281 C21.9844,149.9531 22.2031,150 22.6094,150 L26.0781,150 C27.5625,150 28.5781,149.6094 29.4063,148.7188 C30.1875,147.9063 30.5938,146.8594 30.5938,145.6094 L30.5938,144.8125 C30.5938,142.1406 28.7031,140.0938 26.2188,140.0938 L22.6094,140.0938 C22.1563,140.0938 22.0313,140.1094 21.875,140.2031 C21.625,140.3594 21.4688,140.6563 21.4688,140.9375 C21.4688,141.4844 21.8438,141.7813 22.5156,141.7813 L22.5156,148.2969 Z M24.2031,148.2969 L24.2031,141.7813 L26.0781,141.7813 C26.9844,141.7813 27.625,142.0625 28.1406,142.6563 C28.625,143.2344 28.9063,143.9844 28.9063,144.7813 L28.9063,145.5625 C28.9063,146.4375 28.6719,147.0313 28.2031,147.5469 C27.6719,148.0938 27.1094,148.2969 26.0938,148.2969 L24.2031,148.2969 Z "/><text fill="#000000" font-family="sans-serif" font-size="12" lengthAdjust="spacingAndGlyphs" textLength="141" x="39" y="149.1543">simpleredoc.SimpleObj</text><line style="stroke: #A80036; stroke-width: 1.5;" x1="11" x2="182" y1="161" y2="161"/><ellipse cx="21" cy="172" fill="none" rx="3" ry="3" style="stroke: #038048; stroke-width: 1.0;"/><text fill="#000000" font-family="sans-serif" font-size="11" lengthAdjust="spacingAndGlyphs" textLength="75" x="30" y="175.2104">name : string</text><line style="stroke: #A80036; stroke-width: 1.5;" x1="11" x2="182" y1="181.8047" y2="181.8047"/><!--MD5=[37d6e5304215b5e345f427169db70937]
class _1--><rect fill="#FEFECE" filter="url(#f109w3bcaapihq)" height="60.8047" id="_1" style="stroke: #A80036; stroke-width: 1.5;" width="181" x="6" y="8"/><ellipse cx="21" cy="24" fill="#DA70D6" rx="11" ry="11" style="stroke: #A80036; stroke-width: 1.0;"/><path d="M18.5156,27.2969 C17.8594,27.2969 17.4688,27.6094 17.4688,28.1563 C17.4688,28.4063 17.6094,28.6719 17.8281,28.8281 C17.9844,28.9531 18.2031,29 18.6094,29 L22.0781,29 C23.5625,29 24.5781,28.6094 25.4063,27.7188 C26.1875,26.9063 26.5938,25.8594 26.5938,24.6094 L26.5938,23.8125 C26.5938,21.1406 24.7031,19.0938 22.2188,19.0938 L18.6094,19.0938 C18.1563,19.0938 18.0313,19.1094 17.875,19.2031 C17.625,19.3594 17.4688,19.6563 17.4688,19.9375 C17.4688,20.4844 17.8438,20.7813 18.5156,20.7813 L18.5156,27.2969 Z M20.2031,27.2969 L20.2031,20.7813 L22.0781,20.7813 C22.9844,20.7813 23.625,21.0625 24.1406,21.6563 C24.625,22.2344 24.9063,22.9844 24.9063,23.7813 L24.9063,24.5625 C24.9063,25.4375 24.6719,26.0313 24.2031,26.5469 C23.6719,27.0938 23.1094,27.2969 22.0938,27.2969 L20.2031,27.2969 Z "/><text fill="#000000" font-family="sans-serif" font-size="12" lengthAdjust="spacingAndGlyphs" textLength="149" x="35" y="28.1543">simpleredoc.SimpleObj2</text><line style="stroke: #A80036; stroke-width: 1.5;" x1="7" x2="186" y1="40" y2="40"/><ellipse cx="17" cy="51" fill="none" rx="3" ry="3" style="stroke: #038048; stroke-width: 1.0;"/><text fill="#000000" font-family="sans-serif" font-size="11" lengthAdjust="spacingAndGlyphs" textLength="40" x="26" y="54.2104">name :</text><text fill="#000000" font-family="sans-serif" font-size="11" font-weight="bold" lengthAdjust="spacingAndGlyphs" textLength="66" x="70" y="54.2104">SimpleObj</text><line style="stroke: #A80036; stroke-width: 1.5;" x1="7" x2="186" y1="60.8047" y2="60.8047"/><!--MD5=[533817dd71937d491a48f9e800845371]
reverse link _1 to _0--><path d="M96.5,82.228 C96.5,97.6381 96.5,114.6833 96.5,128.7447 " fill="none" id="_1&lt;-_0" style="stroke: #A80036; stroke-width: 1.0;"/><polygon fill="#A80036" points="96.5,69.222,92.5,75.222,96.5,81.222,100.5,75.222,96.5,69.222" style="stroke: #A80036; stroke-width: 1.0;"/><text fill="#000000" font-family="sans-serif" font-size="13" lengthAdjust="spacingAndGlyphs" textLength="24" x="65.6125" y="117.9553">1..1</text><!--MD5=[984baaaf4494d472d04d4d0e251d90bd]
@startuml
''''''''''''''''''''''''''''''''''''''''''
''                                      ''
''  AUTOGENERATED CODE - - DO NOT EDIT!  ''
''                                      ''
''''''''''''''''''''''''''''''''''''''''''

class "simpleredoc.SimpleObj" as _0 << (D,orchid) >> {
+ name : string
}
class "simpleredoc.SimpleObj2" as _1 << (D,orchid) >> {
+ name : **SimpleObj**
}
_1 *- - "1..1 " _0
@enduml

@startuml

class "simpleredoc.SimpleObj" as _0 << (D,orchid) >> {
+ name : string
}
class "simpleredoc.SimpleObj2" as _1 << (D,orchid) >> {
+ name : **SimpleObj**
}
_1 *- - "1..1 " _0
@enduml

PlantUML version 1.2020.11(Sat May 30 10:13:43 UTC 2020)
(GPL source distribution)
Java Runtime: Java(TM) SE Runtime Environment
JVM: Java HotSpot(TM) 64-Bit Server VM
Default Encoding: UTF-8
Language: en
Country: US
--></g></svg>