<?xml version="1.0" encoding="UTF-8" standalone="no"?><svg xmlns="http://www.w3.org/2000/svg" xmlns:xlink="http://www.w3.org/1999/xlink" contentScriptType="application/ecmascript" contentStyleType="text/css" height="730px" preserveAspectRatio="none" style="width:878px;height:730px;" version="1.1" viewBox="0 0 878 730" width="878px" zoomAndPan="magnify"><defs><filter height="300%" id="fmsrdf44d2m8c" width="300%" x="-1" y="-1"><feGaussianBlur result="blurOut" stdDeviation="2.0"/><feColorMatrix in="blurOut" result="blurOut2" type="matrix" values="0 0 0 0 0 0 0 0 0 0 0 0 0 0 0 0 0 0 .4 0"/><feOffset dx="4.0" dy="4.0" in="blurOut2" result="blurOut3"/><feBlend in="SourceGraphic" in2="blurOut3" mode="normal"/></filter></defs><g><!--MD5=[f77682fd75c3e1fc6a82f566c0814d0f]
class _0--><rect fill="#FEFECE" filter="url(#fmsrdf44d2m8c)" height="163.2422" id="_0" style="stroke: #A80036; stroke-width: 1.5;" width="350" x="22.5" y="7"/><ellipse cx="155.25" cy="23" fill="#DA70D6" rx="11" ry="11" style="stroke: #A80036; stroke-width: 1.0;"/><path d="M154.8438,18.8125 L154.8438,26.7969 L155.5,26.7969 Q156.9375,26.7969 157.5469,25.8906 Q158.1719,24.9688 158.1719,22.7969 Q158.1719,20.625 157.5469,19.7188 Q156.9375,18.8125 155.5,18.8125 L154.8438,18.8125 Z M152.3906,16.6094 L155.0156,16.6094 Q158.0469,16.6094 159.375,18.0625 Q160.7188,19.5 160.7188,22.7969 Q160.7188,26.0938 159.375,27.5469 Q158.0469,29 155.0156,29 L152.3906,29 L152.3906,16.6094 Z "/><text fill="#000000" font-family="sans-serif" font-size="12" lengthAdjust="spacingAndGlyphs" textLength="76" x="175.75" y="27.1543">audio_guide</text><line style="stroke: #A80036; stroke-width: 1.5;" x1="23.5" x2="371.5" y1="39" y2="39"/><ellipse cx="33.5" cy="50" fill="none" rx="3" ry="3" style="stroke: #038048; stroke-width: 1.0;"/><text fill="#000000" font-family="sans-serif" font-size="11" lengthAdjust="spacingAndGlyphs" textLength="122" x="42.5" y="53.2104">activation_date : date</text><ellipse cx="33.5" cy="62.8047" fill="none" rx="3" ry="3" style="stroke: #038048; stroke-width: 1.0;"/><text fill="#000000" font-family="sans-serif" font-size="11" lengthAdjust="spacingAndGlyphs" textLength="110" x="42.5" y="66.0151">audio_guide_id : int</text><ellipse cx="33.5" cy="75.6094" fill="none" rx="3" ry="3" style="stroke: #038048; stroke-width: 1.0;"/><text fill="#000000" font-family="sans-serif" font-size="11" lengthAdjust="spacingAndGlyphs" textLength="73" x="42.5" y="78.8198">issue_point :</text><text fill="#000000" font-family="sans-serif" font-size="11" font-weight="bold" lengthAdjust="spacingAndGlyphs" textLength="126" x="119.5" y="78.8198">location.location_id</text><text fill="#000000" font-family="sans-serif" font-size="11" lengthAdjust="spacingAndGlyphs" textLength="27" x="249.5" y="78.8198">«FK»</text><ellipse cx="33.5" cy="88.4141" fill="none" rx="3" ry="3" style="stroke: #038048; stroke-width: 1.0;"/><text fill="#000000" font-family="sans-serif" font-size="11" lengthAdjust="spacingAndGlyphs" textLength="89" x="42.5" y="91.6245">language : float</text><ellipse cx="33.5" cy="101.2188" fill="none" rx="3" ry="3" style="stroke: #038048; stroke-width: 1.0;"/><text fill="#000000" font-family="sans-serif" font-size="11" lengthAdjust="spacingAndGlyphs" textLength="99" x="42.5" y="104.4292">listen_time : float</text><ellipse cx="33.5" cy="114.0234" fill="none" rx="3" ry="3" style="stroke: #038048; stroke-width: 1.0;"/><text fill="#000000" font-family="sans-serif" font-size="11" lengthAdjust="spacingAndGlyphs" textLength="57" x="42.5" y="117.2339">payment :</text><text fill="#000000" font-family="sans-serif" font-size="11" font-weight="bold" lengthAdjust="spacingAndGlyphs" textLength="232" x="103.5" y="117.2339">payment_details.payment_details_id</text><text fill="#000000" font-family="sans-serif" font-size="11" lengthAdjust="spacingAndGlyphs" textLength="27" x="339.5" y="117.2339">«FK»</text><ellipse cx="33.5" cy="126.8281" fill="none" rx="3" ry="3" style="stroke: #038048; stroke-width: 1.0;"/><text fill="#000000" font-family="sans-serif" font-size="11" lengthAdjust="spacingAndGlyphs" textLength="77" x="42.5" y="130.0386">return_point :</text><text fill="#000000" font-family="sans-serif" font-size="11" font-weight="bold" lengthAdjust="spacingAndGlyphs" textLength="126" x="123.5" y="130.0386">location.location_id</text><text fill="#000000" font-family="sans-serif" font-size="11" lengthAdjust="spacingAndGlyphs" textLength="27" x="253.5" y="130.0386">«FK»</text><ellipse cx="33.5" cy="139.6328" fill="none" rx="3" ry="3" style="stroke: #038048; stroke-width: 1.0;"/><text fill="#000000" font-family="sans-serif" font-size="11" lengthAdjust="spacingAndGlyphs" textLength="54" x="42.5" y="142.8433">ticket_id :</text><text fill="#000000" font-family="sans-serif" font-size="11" font-weight="bold" lengthAdjust="spacingAndGlyphs" textLength="94" x="100.5" y="142.8433">ticket.ticket_id</text><text fill="#000000" font-family="sans-serif" font-size="11" lengthAdjust="spacingAndGlyphs" textLength="27" x="198.5" y="142.8433">«FK»</text><ellipse cx="33.5" cy="152.4375" fill="none" rx="3" ry="3" style="stroke: #038048; stroke-width: 1.0;"/><text fill="#000000" font-family="sans-serif" font-size="11" lengthAdjust="spacingAndGlyphs" textLength="61" x="42.5" y="155.6479">type : float</text><line style="stroke: #A80036; stroke-width: 1.5;" x1="23.5" x2="371.5" y1="162.2422" y2="162.2422"/><!--MD5=[5598b231efb7df47efa6733795d42804]
class _4--><rect fill="#FEFECE" filter="url(#fmsrdf44d2m8c)" height="124.8281" id="_4" style="stroke: #A80036; stroke-width: 1.5;" width="194" x="498.5" y="587"/><ellipse cx="547.25" cy="603" fill="#DA70D6" rx="11" ry="11" style="stroke: #A80036; stroke-width: 1.0;"/><path d="M546.8438,598.8125 L546.8438,606.7969 L547.5,606.7969 Q548.9375,606.7969 549.5469,605.8906 Q550.1719,604.9688 550.1719,602.7969 Q550.1719,600.625 549.5469,599.7188 Q548.9375,598.8125 547.5,598.8125 L546.8438,598.8125 Z M544.3906,596.6094 L547.0156,596.6094 Q550.0469,596.6094 551.375,598.0625 Q552.7188,599.5 552.7188,602.7969 Q552.7188,606.0938 551.375,607.5469 Q550.0469,609 547.0156,609 L544.3906,609 L544.3906,596.6094 Z "/><text fill="#000000" font-family="sans-serif" font-size="12" lengthAdjust="spacingAndGlyphs" textLength="88" x="567.75" y="607.1543">card_payment</text><line style="stroke: #A80036; stroke-width: 1.5;" x1="499.5" x2="691.5" y1="619" y2="619"/><ellipse cx="509.5" cy="630" fill="none" rx="3" ry="3" style="stroke: #038048; stroke-width: 1.0;"/><text fill="#000000" font-family="sans-serif" font-size="11" lengthAdjust="spacingAndGlyphs" textLength="110" x="518.5" y="633.2104">bank_name : string</text><ellipse cx="509.5" cy="642.8047" fill="none" rx="3" ry="3" style="stroke: #038048; stroke-width: 1.0;"/><text fill="#000000" font-family="sans-serif" font-size="11" lengthAdjust="spacingAndGlyphs" textLength="146" x="518.5" y="646.0151">bank_short_name : string</text><ellipse cx="509.5" cy="655.6094" fill="none" rx="3" ry="3" style="stroke: #038048; stroke-width: 1.0;"/><text fill="#000000" font-family="sans-serif" font-size="11" lengthAdjust="spacingAndGlyphs" textLength="84" x="518.5" y="658.8198">branch : string</text><ellipse cx="509.5" cy="668.4141" fill="none" rx="3" ry="3" style="stroke: #038048; stroke-width: 1.0;"/><text fill="#000000" font-family="sans-serif" font-size="11" lengthAdjust="spacingAndGlyphs" textLength="168" x="518.5" y="671.6245">card_number_snippet : string</text><ellipse cx="509.5" cy="681.2188" fill="none" rx="3" ry="3" style="stroke: #038048; stroke-width: 1.0;"/><text fill="#000000" font-family="sans-serif" font-size="11" lengthAdjust="spacingAndGlyphs" textLength="79" x="518.5" y="684.4292">expiry : string</text><ellipse cx="509.5" cy="694.0234" fill="none" rx="3" ry="3" style="stroke: #038048; stroke-width: 1.0;"/><text fill="#000000" font-family="sans-serif" font-size="11" lengthAdjust="spacingAndGlyphs" textLength="36" x="518.5" y="697.2339">id : int</text><line style="stroke: #A80036; stroke-width: 1.5;" x1="499.5" x2="691.5" y1="703.8281" y2="703.8281"/><!--MD5=[9f3b5866fc3516bb7b126afd03fd81f9]
class _5--><rect fill="#FEFECE" filter="url(#fmsrdf44d2m8c)" height="99.2188" id="_5" style="stroke: #A80036; stroke-width: 1.5;" width="132" x="727.5" y="600"/><ellipse cx="747" cy="616" fill="#DA70D6" rx="11" ry="11" style="stroke: #A80036; stroke-width: 1.0;"/><path d="M746.5938,611.8125 L746.5938,619.7969 L747.25,619.7969 Q748.6875,619.7969 749.2969,618.8906 Q749.9219,617.9688 749.9219,615.7969 Q749.9219,613.625 749.2969,612.7188 Q748.6875,611.8125 747.25,611.8125 L746.5938,611.8125 Z M744.1406,609.6094 L746.7656,609.6094 Q749.7969,609.6094 751.125,611.0625 Q752.4688,612.5 752.4688,615.7969 Q752.4688,619.0938 751.125,620.5469 Q749.7969,622 746.7656,622 L744.1406,622 L744.1406,609.6094 Z "/><text fill="#000000" font-family="sans-serif" font-size="12" lengthAdjust="spacingAndGlyphs" textLength="90" x="762" y="620.1543">cash_payment</text><line style="stroke: #A80036; stroke-width: 1.5;" x1="728.5" x2="858.5" y1="632" y2="632"/><ellipse cx="738.5" cy="643" fill="none" rx="3" ry="3" style="stroke: #038048; stroke-width: 1.0;"/><text fill="#000000" font-family="sans-serif" font-size="11" lengthAdjust="spacingAndGlyphs" textLength="64" x="747.5" y="646.2104">city : string</text><ellipse cx="738.5" cy="655.8047" fill="none" rx="3" ry="3" style="stroke: #038048; stroke-width: 1.0;"/><text fill="#000000" font-family="sans-serif" font-size="11" lengthAdjust="spacingAndGlyphs" textLength="87" x="747.5" y="659.0151">country : string</text><ellipse cx="738.5" cy="668.6094" fill="none" rx="3" ry="3" style="stroke: #038048; stroke-width: 1.0;"/><text fill="#000000" font-family="sans-serif" font-size="11" lengthAdjust="spacingAndGlyphs" textLength="106" x="747.5" y="671.8198">first_name : string</text><ellipse cx="738.5" cy="681.4141" fill="none" rx="3" ry="3" style="stroke: #038048; stroke-width: 1.0;"/><text fill="#000000" font-family="sans-serif" font-size="11" lengthAdjust="spacingAndGlyphs" textLength="36" x="747.5" y="684.6245">id : int</text><line style="stroke: #A80036; stroke-width: 1.5;" x1="728.5" x2="858.5" y1="691.2188" y2="691.2188"/><!--MD5=[6a3af1c95ca99f945e9d9cfb177ddaa5]
class _6--><rect fill="#FEFECE" filter="url(#fmsrdf44d2m8c)" height="73.6094" id="_6" style="stroke: #A80036; stroke-width: 1.5;" width="239" x="134" y="427.5"/><ellipse cx="190.75" cy="443.5" fill="#DA70D6" rx="11" ry="11" style="stroke: #A80036; stroke-width: 1.0;"/><path d="M190.3438,439.3125 L190.3438,447.2969 L191,447.2969 Q192.4375,447.2969 193.0469,446.3906 Q193.6719,445.4688 193.6719,443.2969 Q193.6719,441.125 193.0469,440.2188 Q192.4375,439.3125 191,439.3125 L190.3438,439.3125 Z M187.8906,437.1094 L190.5156,437.1094 Q193.5469,437.1094 194.875,438.5625 Q196.2188,440 196.2188,443.2969 Q196.2188,446.5938 194.875,448.0469 Q193.5469,449.5 190.5156,449.5 L187.8906,449.5 L187.8906,437.1094 Z "/><text fill="#000000" font-family="sans-serif" font-size="12" lengthAdjust="spacingAndGlyphs" textLength="117" x="211.25" y="447.6543">checkpoint_lookup</text><line style="stroke: #A80036; stroke-width: 1.5;" x1="135" x2="372" y1="459.5" y2="459.5"/><ellipse cx="145" cy="470.5" fill="none" rx="3" ry="3" style="stroke: #038048; stroke-width: 1.0;"/><text fill="#000000" font-family="sans-serif" font-size="11" lengthAdjust="spacingAndGlyphs" textLength="145" x="154" y="473.7104">checkpoint_lookup_id : int</text><ellipse cx="145" cy="483.3047" fill="none" rx="3" ry="3" style="stroke: #038048; stroke-width: 1.0;"/><text fill="#000000" font-family="sans-serif" font-size="11" lengthAdjust="spacingAndGlyphs" textLength="52" x="154" y="486.5151">location :</text><text fill="#000000" font-family="sans-serif" font-size="11" font-weight="bold" lengthAdjust="spacingAndGlyphs" textLength="126" x="210" y="486.5151">location.location_id</text><text fill="#000000" font-family="sans-serif" font-size="11" lengthAdjust="spacingAndGlyphs" textLength="27" x="340" y="486.5151">«FK»</text><line style="stroke: #A80036; stroke-width: 1.5;" x1="135" x2="372" y1="493.1094" y2="493.1094"/><!--MD5=[de0bfa585452079efdc6062f86f7fa4a]
class _7--><rect fill="#FEFECE" filter="url(#fmsrdf44d2m8c)" height="86.4141" id="_7" style="stroke: #A80036; stroke-width: 1.5;" width="122" x="408.5" y="421.5"/><ellipse cx="437" cy="437.5" fill="#DA70D6" rx="11" ry="11" style="stroke: #A80036; stroke-width: 1.0;"/><path d="M436.5938,433.3125 L436.5938,441.2969 L437.25,441.2969 Q438.6875,441.2969 439.2969,440.3906 Q439.9219,439.4688 439.9219,437.2969 Q439.9219,435.125 439.2969,434.2188 Q438.6875,433.3125 437.25,433.3125 L436.5938,433.3125 Z M434.1406,431.1094 L436.7656,431.1094 Q439.7969,431.1094 441.125,432.5625 Q442.4688,434 442.4688,437.2969 Q442.4688,440.5938 441.125,442.0469 Q439.7969,443.5 436.7656,443.5 L434.1406,443.5 L434.1406,431.1094 Z "/><text fill="#000000" font-family="sans-serif" font-size="12" lengthAdjust="spacingAndGlyphs" textLength="60" x="454" y="441.6543">exhibition</text><line style="stroke: #A80036; stroke-width: 1.5;" x1="409.5" x2="529.5" y1="453.5" y2="453.5"/><ellipse cx="419.5" cy="464.5" fill="none" rx="3" ry="3" style="stroke: #038048; stroke-width: 1.0;"/><text fill="#000000" font-family="sans-serif" font-size="11" lengthAdjust="spacingAndGlyphs" textLength="72" x="428.5" y="467.7104">capacity : int</text><ellipse cx="419.5" cy="477.3047" fill="none" rx="3" ry="3" style="stroke: #038048; stroke-width: 1.0;"/><text fill="#000000" font-family="sans-serif" font-size="11" lengthAdjust="spacingAndGlyphs" textLength="96" x="428.5" y="480.5151">exhibition_id : int</text><ellipse cx="419.5" cy="490.1094" fill="none" rx="3" ry="3" style="stroke: #038048; stroke-width: 1.0;"/><text fill="#000000" font-family="sans-serif" font-size="11" lengthAdjust="spacingAndGlyphs" textLength="87" x="428.5" y="493.3198">time : datetime</text><line style="stroke: #A80036; stroke-width: 1.5;" x1="409.5" x2="529.5" y1="499.9141" y2="499.9141"/><!--MD5=[37d6e5304215b5e345f427169db70937]
class _1--><rect fill="#FEFECE" filter="url(#fmsrdf44d2m8c)" height="99.2188" id="_1" style="stroke: #A80036; stroke-width: 1.5;" width="113" x="7" y="600"/><ellipse cx="35.95" cy="616" fill="#DA70D6" rx="11" ry="11" style="stroke: #A80036; stroke-width: 1.0;"/><path d="M35.5438,611.8125 L35.5438,619.7969 L36.2,619.7969 Q37.6375,619.7969 38.2469,618.8906 Q38.8719,617.9688 38.8719,615.7969 Q38.8719,613.625 38.2469,612.7188 Q37.6375,611.8125 36.2,611.8125 L35.5438,611.8125 Z M33.0906,609.6094 L35.7156,609.6094 Q38.7469,609.6094 40.075,611.0625 Q41.4188,612.5 41.4188,615.7969 Q41.4188,619.0938 40.075,620.5469 Q38.7469,622 35.7156,622 L33.0906,622 L33.0906,609.6094 Z "/><text fill="#000000" font-family="sans-serif" font-size="12" lengthAdjust="spacingAndGlyphs" textLength="50" x="53.05" y="620.1543">location</text><line style="stroke: #A80036; stroke-width: 1.5;" x1="8" x2="119" y1="632" y2="632"/><ellipse cx="18" cy="643" fill="none" rx="3" ry="3" style="stroke: #038048; stroke-width: 1.0;"/><text fill="#000000" font-family="sans-serif" font-size="11" lengthAdjust="spacingAndGlyphs" textLength="86" x="27" y="646.2104">location_id : int</text><ellipse cx="18" cy="655.8047" fill="none" rx="3" ry="3" style="stroke: #038048; stroke-width: 1.0;"/><text fill="#000000" font-family="sans-serif" font-size="11" lengthAdjust="spacingAndGlyphs" textLength="69" x="27" y="659.0151">name : float</text><ellipse cx="18" cy="668.6094" fill="none" rx="3" ry="3" style="stroke: #038048; stroke-width: 1.0;"/><text fill="#000000" font-family="sans-serif" font-size="11" lengthAdjust="spacingAndGlyphs" textLength="87" x="27" y="671.8198">time : datetime</text><ellipse cx="18" cy="681.4141" fill="none" rx="3" ry="3" style="stroke: #038048; stroke-width: 1.0;"/><text fill="#000000" font-family="sans-serif" font-size="11" lengthAdjust="spacingAndGlyphs" textLength="61" x="27" y="684.6245">type : float</text><line style="stroke: #A80036; stroke-width: 1.5;" x1="8" x2="119" y1="691.2188" y2="691.2188"/><!--MD5=[95d1cea1cd7f69d371fe62aa72675e9c]
class _2--><rect fill="#FEFECE" filter="url(#fmsrdf44d2m8c)" height="124.8281" id="_2" style="stroke: #A80036; stroke-width: 1.5;" width="258" x="565.5" y="402"/><ellipse cx="639.25" cy="418" fill="#DA70D6" rx="11" ry="11" style="stroke: #A80036; stroke-width: 1.0;"/><path d="M638.8438,413.8125 L638.8438,421.7969 L639.5,421.7969 Q640.9375,421.7969 641.5469,420.8906 Q642.1719,419.9688 642.1719,417.7969 Q642.1719,415.625 641.5469,414.7188 Q640.9375,413.8125 639.5,413.8125 L638.8438,413.8125 Z M636.3906,411.6094 L639.0156,411.6094 Q642.0469,411.6094 643.375,413.0625 Q644.7188,414.5 644.7188,417.7969 Q644.7188,421.0938 643.375,422.5469 Q642.0469,424 639.0156,424 L636.3906,424 L636.3906,411.6094 Z "/><text fill="#000000" font-family="sans-serif" font-size="12" lengthAdjust="spacingAndGlyphs" textLength="102" x="659.75" y="422.1543">payment_details</text><line style="stroke: #A80036; stroke-width: 1.5;" x1="566.5" x2="822.5" y1="434" y2="434"/><ellipse cx="576.5" cy="445" fill="none" rx="3" ry="3" style="stroke: #038048; stroke-width: 1.0;"/><text fill="#000000" font-family="sans-serif" font-size="11" lengthAdjust="spacingAndGlyphs" textLength="70" x="585.5" y="448.2104">online : bool</text><ellipse cx="576.5" cy="457.8047" fill="none" rx="3" ry="3" style="stroke: #038048; stroke-width: 1.0;"/><text fill="#000000" font-family="sans-serif" font-size="11" lengthAdjust="spacingAndGlyphs" textLength="88" x="585.5" y="461.0151">payment_card :</text><text fill="#000000" font-family="sans-serif" font-size="11" font-weight="bold" lengthAdjust="spacingAndGlyphs" textLength="105" x="677.5" y="461.0151">card_payment.id</text><text fill="#000000" font-family="sans-serif" font-size="11" lengthAdjust="spacingAndGlyphs" textLength="27" x="786.5" y="461.0151">«FK»</text><ellipse cx="576.5" cy="470.6094" fill="none" rx="3" ry="3" style="stroke: #038048; stroke-width: 1.0;"/><text fill="#000000" font-family="sans-serif" font-size="11" lengthAdjust="spacingAndGlyphs" textLength="90" x="585.5" y="473.8198">payment_cash :</text><text fill="#000000" font-family="sans-serif" font-size="11" font-weight="bold" lengthAdjust="spacingAndGlyphs" textLength="107" x="679.5" y="473.8198">cash_payment.id</text><text fill="#000000" font-family="sans-serif" font-size="11" lengthAdjust="spacingAndGlyphs" textLength="27" x="790.5" y="473.8198">«FK»</text><ellipse cx="576.5" cy="483.4141" fill="none" rx="3" ry="3" style="stroke: #038048; stroke-width: 1.0;"/><text fill="#000000" font-family="sans-serif" font-size="11" lengthAdjust="spacingAndGlyphs" textLength="135" x="585.5" y="486.6245">payment_details_id : int</text><ellipse cx="576.5" cy="496.2188" fill="none" rx="3" ry="3" style="stroke: #038048; stroke-width: 1.0;"/><text fill="#000000" font-family="sans-serif" font-size="11" lengthAdjust="spacingAndGlyphs" textLength="84" x="585.5" y="499.4292">price : decimal</text><ellipse cx="576.5" cy="509.0234" fill="none" rx="3" ry="3" style="stroke: #038048; stroke-width: 1.0;"/><text fill="#000000" font-family="sans-serif" font-size="11" lengthAdjust="spacingAndGlyphs" textLength="61" x="585.5" y="512.2339">type : float</text><line style="stroke: #A80036; stroke-width: 1.5;" x1="566.5" x2="822.5" y1="518.8281" y2="518.8281"/><!--MD5=[4df2e88eba431a2a56d213b7bca710d9]
class _3--><rect fill="#FEFECE" filter="url(#fmsrdf44d2m8c)" height="112.0234" id="_3" style="stroke: #A80036; stroke-width: 1.5;" width="396" x="189.5" y="230"/><ellipse cx="365.75" cy="246" fill="#DA70D6" rx="11" ry="11" style="stroke: #A80036; stroke-width: 1.0;"/><path d="M365.3438,241.8125 L365.3438,249.7969 L366,249.7969 Q367.4375,249.7969 368.0469,248.8906 Q368.6719,247.9688 368.6719,245.7969 Q368.6719,243.625 368.0469,242.7188 Q367.4375,241.8125 366,241.8125 L365.3438,241.8125 Z M362.8906,239.6094 L365.5156,239.6094 Q368.5469,239.6094 369.875,241.0625 Q371.2188,242.5 371.2188,245.7969 Q371.2188,249.0938 369.875,250.5469 Q368.5469,252 365.5156,252 L362.8906,252 L362.8906,239.6094 Z "/><text fill="#000000" font-family="sans-serif" font-size="12" lengthAdjust="spacingAndGlyphs" textLength="35" x="386.25" y="250.1543">ticket</text><line style="stroke: #A80036; stroke-width: 1.5;" x1="190.5" x2="584.5" y1="262" y2="262"/><ellipse cx="200.5" cy="273" fill="none" rx="3" ry="3" style="stroke: #038048; stroke-width: 1.0;"/><text fill="#000000" font-family="sans-serif" font-size="11" lengthAdjust="spacingAndGlyphs" textLength="132" x="209.5" y="276.2104">arrival_transport : float</text><ellipse cx="200.5" cy="285.8047" fill="none" rx="3" ry="3" style="stroke: #038048; stroke-width: 1.0;"/><text fill="#000000" font-family="sans-serif" font-size="11" lengthAdjust="spacingAndGlyphs" textLength="75" x="209.5" y="289.0151">checkpoints :</text><text fill="#000000" font-family="sans-serif" font-size="11" font-weight="bold" lengthAdjust="spacingAndGlyphs" textLength="260" x="288.5" y="289.0151">checkpoint_lookup.checkpoint_lookup_id</text><text fill="#000000" font-family="sans-serif" font-size="11" lengthAdjust="spacingAndGlyphs" textLength="27" x="552.5" y="289.0151">«FK»</text><ellipse cx="200.5" cy="298.6094" fill="none" rx="3" ry="3" style="stroke: #038048; stroke-width: 1.0;"/><text fill="#000000" font-family="sans-serif" font-size="11" lengthAdjust="spacingAndGlyphs" textLength="62" x="209.5" y="301.8198">exhibition :</text><text fill="#000000" font-family="sans-serif" font-size="11" font-weight="bold" lengthAdjust="spacingAndGlyphs" textLength="150" x="275.5" y="301.8198">exhibition.exhibition_id</text><text fill="#000000" font-family="sans-serif" font-size="11" lengthAdjust="spacingAndGlyphs" textLength="27" x="429.5" y="301.8198">«FK»</text><ellipse cx="200.5" cy="311.4141" fill="none" rx="3" ry="3" style="stroke: #038048; stroke-width: 1.0;"/><text fill="#000000" font-family="sans-serif" font-size="11" lengthAdjust="spacingAndGlyphs" textLength="57" x="209.5" y="314.6245">payment :</text><text fill="#000000" font-family="sans-serif" font-size="11" font-weight="bold" lengthAdjust="spacingAndGlyphs" textLength="232" x="270.5" y="314.6245">payment_details.payment_details_id</text><text fill="#000000" font-family="sans-serif" font-size="11" lengthAdjust="spacingAndGlyphs" textLength="27" x="506.5" y="314.6245">«FK»</text><ellipse cx="200.5" cy="324.2188" fill="none" rx="3" ry="3" style="stroke: #038048; stroke-width: 1.0;"/><text fill="#000000" font-family="sans-serif" font-size="11" lengthAdjust="spacingAndGlyphs" textLength="72" x="209.5" y="327.4292">ticket_id : int</text><line style="stroke: #A80036; stroke-width: 1.5;" x1="190.5" x2="584.5" y1="334.0234" y2="334.0234"/><!--MD5=[bde1413f829cc278731640fabc810278]
reverse link _0 to _1--><path d="M159.0037,178.018 C139.6578,240.5916 117.4031,326.1871 99.5,402 C83.3917,470.2128 66.7819,549.5024 60.6602,599.5868 " fill="none" id="_0&lt;-_1" style="stroke: #A80036; stroke-width: 1.0;"/><line style="stroke: #A80036; stroke-width: 1.0;" x1="159.0858" x2="153.8327" y1="177.7548" y2="170.1181"/><line style="stroke: #A80036; stroke-width: 1.0;" x1="159.0858" x2="169.1061" y1="177.7548" y2="170.1181"/><line style="stroke: #A80036; stroke-width: 1.0;" x1="159.0858" x2="161.4694" y1="177.7548" y2="170.1181"/><text fill="#000000" font-family="sans-serif" font-size="13" lengthAdjust="spacingAndGlyphs" textLength="0" x="60.0099" y="588.933"/><!--MD5=[bde1413f829cc278731640fabc810278]
reverse link _0 to _1--><path d="M188.4525,178.018 C174.6578,240.5916 152.4031,326.1871 134.5,402 C118.3917,470.2128 101.7819,549.5024 87.1951,599.5868 " fill="none" id="_0&lt;-_1-1" style="stroke: #A80036; stroke-width: 1.0;"/><line style="stroke: #A80036; stroke-width: 1.0;" x1="188.4706" x2="182.3587" y1="177.9344" y2="170.1181"/><line style="stroke: #A80036; stroke-width: 1.0;" x1="188.4706" x2="197.9913" y1="177.9344" y2="170.1181"/><line style="stroke: #A80036; stroke-width: 1.0;" x1="188.4706" x2="190.175" y1="177.9344" y2="170.1181"/><text fill="#000000" font-family="sans-serif" font-size="13" lengthAdjust="spacingAndGlyphs" textLength="0" x="90.1104" y="588.933"/><!--MD5=[eed656a2cfbc263ae3905a2379d727ae]
reverse link _0 to _2--><path d="M380.4799,117.1072 C457.5428,137.34 543.1552,171.7203 603.5,230 C651.0106,275.8848 674.146,349.4068 685.1245,401.8919 " fill="none" id="_0&lt;-_2" style="stroke: #A80036; stroke-width: 1.0;"/><line style="stroke: #A80036; stroke-width: 1.0;" x1="380.3193" x2="372.5717" y1="117.0659" y2="122.8198"/><line style="stroke: #A80036; stroke-width: 1.0;" x1="380.3193" x2="372.5717" y1="117.0659" y2="107.3246"/><line style="stroke: #A80036; stroke-width: 1.0;" x1="380.3193" x2="372.5717" y1="117.0659" y2="115.0722"/><text fill="#000000" font-family="sans-serif" font-size="13" lengthAdjust="spacingAndGlyphs" textLength="0" x="683.8092" y="390.8702"/><!--MD5=[ea448699c80579924a53b8b5046cae45]
reverse link _0 to _3--><path d="M282.056,176.3937 C299.53,194.5575 317.4811,213.2171 333.5058,229.8745 " fill="none" id="_0&lt;-_3" style="stroke: #A80036; stroke-width: 1.0;"/><line style="stroke: #A80036; stroke-width: 1.0;" x1="281.6982" x2="270.3866" y1="176.0217" y2="170.2565"/><line style="stroke: #A80036; stroke-width: 1.0;" x1="281.6982" x2="281.917" y1="176.0217" y2="170.2565"/><line style="stroke: #A80036; stroke-width: 1.0;" x1="281.6982" x2="276.1518" y1="176.0217" y2="170.2565"/><text fill="#000000" font-family="sans-serif" font-size="13" lengthAdjust="spacingAndGlyphs" textLength="0" x="326.3315" y="218.7964"/><!--MD5=[68addd6110fd42dc811da417aeccbe4e]
reverse link _2 to _4--><path d="M657.0679,534.4488 C647.8379,551.6969 638.0116,570.0591 628.9824,586.9319 " fill="none" id="_2&lt;-_4" style="stroke: #A80036; stroke-width: 1.0;"/><line style="stroke: #A80036; stroke-width: 1.0;" x1="657.2085" x2="653.9295" y1="534.1862" y2="527.1326"/><line style="stroke: #A80036; stroke-width: 1.0;" x1="657.2085" x2="668.0367" y1="534.1862" y2="527.1326"/><line style="stroke: #A80036; stroke-width: 1.0;" x1="657.2085" x2="660.9831" y1="534.1862" y2="527.1326"/><text fill="#000000" font-family="sans-serif" font-size="13" lengthAdjust="spacingAndGlyphs" textLength="0" x="632.6226" y="575.9148"/><!--MD5=[6d4ebb2bb2edf03631fc8b5de109183a]
reverse link _2 to _5--><path d="M731.924,534.4337 C743.5642,556.1856 756.1532,579.7105 766.8966,599.7865 " fill="none" id="_2&lt;-_5" style="stroke: #A80036; stroke-width: 1.0;"/><line style="stroke: #A80036; stroke-width: 1.0;" x1="731.7915" x2="720.9633" y1="534.1862" y2="527.1326"/><line style="stroke: #A80036; stroke-width: 1.0;" x1="731.7915" x2="735.0705" y1="534.1862" y2="527.1326"/><line style="stroke: #A80036; stroke-width: 1.0;" x1="731.7915" x2="728.0169" y1="534.1862" y2="527.1326"/><text fill="#000000" font-family="sans-serif" font-size="13" lengthAdjust="spacingAndGlyphs" textLength="0" x="762.8742" y="588.8017"/><!--MD5=[e6e008698320a9f27e8a0afb4bfaa138]
reverse link _3 to _2--><path d="M491.149,346.265 C521.9469,364.1719 555.7481,383.825 586.7974,401.8781 " fill="none" id="_3&lt;-_2" style="stroke: #A80036; stroke-width: 1.0;"/><line style="stroke: #A80036; stroke-width: 1.0;" x1="491.1313" x2="480.1942" y1="346.2546" y2="342.2335"/><line style="stroke: #A80036; stroke-width: 1.0;" x1="491.1313" x2="488.2364" y1="346.2546" y2="342.2335"/><line style="stroke: #A80036; stroke-width: 1.0;" x1="491.1313" x2="484.2153" y1="346.2546" y2="342.2335"/><text fill="#000000" font-family="sans-serif" font-size="13" lengthAdjust="spacingAndGlyphs" textLength="0" x="574.113" y="390.8548"/><!--MD5=[510df503d95d0230a43042b22d704e04]
reverse link _3 to _6--><path d="M340.169,349.0492 C320.5398,375.197 298.4392,404.637 281.4684,427.2435 " fill="none" id="_3&lt;-_6" style="stroke: #A80036; stroke-width: 1.0;"/><line style="stroke: #A80036; stroke-width: 1.0;" x1="340.2987" x2="338.7037" y1="348.8764" y2="342.4785"/><line style="stroke: #A80036; stroke-width: 1.0;" x1="340.2987" x2="351.4995" y1="348.8764" y2="342.4785"/><line style="stroke: #A80036; stroke-width: 1.0;" x1="340.2987" x2="345.1016" y1="348.8764" y2="342.4785"/><text fill="#000000" font-family="sans-serif" font-size="13" lengthAdjust="spacingAndGlyphs" textLength="0" x="286.094" y="416.3848"/><!--MD5=[302fddd2497c975672137639babeaac0]
reverse link _3 to _7--><path d="M416.7909,349.7614 C427.7087,373.5275 439.8356,399.9257 449.7024,421.4039 " fill="none" id="_3&lt;-_7" style="stroke: #A80036; stroke-width: 1.0;"/><line style="stroke: #A80036; stroke-width: 1.0;" x1="416.7848" x2="406.1757" y1="349.7481" y2="342.4785"/><line style="stroke: #A80036; stroke-width: 1.0;" x1="416.7848" x2="420.7149" y1="349.7481" y2="342.4785"/><line style="stroke: #A80036; stroke-width: 1.0;" x1="416.7848" x2="413.4453" y1="349.7481" y2="342.4785"/><text fill="#000000" font-family="sans-serif" font-size="13" lengthAdjust="spacingAndGlyphs" textLength="0" x="446.2284" y="410.3846"/><!--MD5=[299d30f220ef4c56106067915d61f792]
reverse link _6 to _1--><path d="M209.1428,507.6899 C180.827,535.2606 144.0291,571.0901 114.5063,599.836 " fill="none" id="_6&lt;-_1" style="stroke: #A80036; stroke-width: 1.0;"/><line style="stroke: #A80036; stroke-width: 1.0;" x1="209.3189" x2="209.4698" y1="507.5184" y2="501.9375"/><line style="stroke: #A80036; stroke-width: 1.0;" x1="209.3189" x2="220.6316" y1="507.5184" y2="501.9375"/><line style="stroke: #A80036; stroke-width: 1.0;" x1="209.3189" x2="215.0507" y1="507.5184" y2="501.9375"/><text fill="#000000" font-family="sans-serif" font-size="13" lengthAdjust="spacingAndGlyphs" textLength="0" x="121.3978" y="588.8582"/><!--MD5=[30da466556c6c5fa22d7a96f8b2d5af1]
@startuml
''''''''''''''''''''''''''''''''''''''''''
''                                      ''
''  AUTOGENERATED CODE - - DO NOT EDIT!  ''
''                                      ''
''''''''''''''''''''''''''''''''''''''''''

class "audio_guide" as _0 << (D,orchid) >> {
+ activation_date : date
+ audio_guide_id : int
+ issue_point : **location.location_id** <<FK>>
+ language : float
+ listen_time : float
+ payment : **payment_details.payment_details_id** <<FK>>
+ return_point : **location.location_id** <<FK>>
+ ticket_id : **ticket.ticket_id** <<FK>>
+ type : float
}
class "card_payment" as _4 << (D,orchid) >> {
+ bank_name : string
+ bank_short_name : string
+ branch : string
+ card_number_snippet : string
+ expiry : string
+ id : int
}
class "cash_payment" as _5 << (D,orchid) >> {
+ city : string
+ country : string
+ first_name : string
+ id : int
}
class "checkpoint_lookup" as _6 << (D,orchid) >> {
+ checkpoint_lookup_id : int
+ location : **location.location_id** <<FK>>
}
class "exhibition" as _7 << (D,orchid) >> {
+ capacity : int
+ exhibition_id : int
+ time : datetime
}
class "location" as _1 << (D,orchid) >> {
+ location_id : int
+ name : float
+ time : datetime
+ type : float
}
class "payment_details" as _2 << (D,orchid) >> {
+ online : bool
+ payment_card : **card_payment.id** <<FK>>
+ payment_cash : **cash_payment.id** <<FK>>
+ payment_details_id : int
+ price : decimal
+ type : float
}
class "ticket" as _3 << (D,orchid) >> {
+ arrival_transport : float
+ checkpoints : **checkpoint_lookup.checkpoint_lookup_id** <<FK>>
+ exhibition : **exhibition.exhibition_id** <<FK>>
+ payment : **payment_details.payment_details_id** <<FK>>
+ ticket_id : int
}
_0 }- - " " _1
_0 }- - " " _1
_0 }- - " " _2
_0 }- - " " _3
_2 }- - " " _4
_2 }- - " " _5
_3 }- - " " _2
_3 }- - " " _6
_3 }- - " " _7
_6 }- - " " _1
@enduml

@startuml

class "audio_guide" as _0 << (D,orchid) >> {
+ activation_date : date
+ audio_guide_id : int
+ issue_point : **location.location_id** <<FK>>
+ language : float
+ listen_time : float
+ payment : **payment_details.payment_details_id** <<FK>>
+ return_point : **location.location_id** <<FK>>
+ ticket_id : **ticket.ticket_id** <<FK>>
+ type : float
}
class "card_payment" as _4 << (D,orchid) >> {
+ bank_name : string
+ bank_short_name : string
+ branch : string
+ card_number_snippet : string
+ expiry : string
+ id : int
}
class "cash_payment" as _5 << (D,orchid) >> {
+ city : string
+ country : string
+ first_name : string
+ id : int
}
class "checkpoint_lookup" as _6 << (D,orchid) >> {
+ checkpoint_lookup_id : int
+ location : **location.location_id** <<FK>>
}
class "exhibition" as _7 << (D,orchid) >> {
+ capacity : int
+ exhibition_id : int
+ time : datetime
}
class "location" as _1 << (D,orchid) >> {
+ location_id : int
+ name : float
+ time : datetime
+ type : float
}
class "payment_details" as _2 << (D,orchid) >> {
+ online : bool
+ payment_card : **card_payment.id** <<FK>>
+ payment_cash : **cash_payment.id** <<FK>>
+ payment_details_id : int
+ price : decimal
+ type : float
}
class "ticket" as _3 << (D,orchid) >> {
+ arrival_transport : float
+ checkpoints : **checkpoint_lookup.checkpoint_lookup_id** <<FK>>
+ exhibition : **exhibition.exhibition_id** <<FK>>
+ payment : **payment_details.payment_details_id** <<FK>>
+ ticket_id : int
}
_0 }- - " " _1
_0 }- - " " _1
_0 }- - " " _2
_0 }- - " " _3
_2 }- - " " _4
_2 }- - " " _5
_3 }- - " " _2
_3 }- - " " _6
_3 }- - " " _7
_6 }- - " " _1
@enduml

PlantUML version 1.2020.14(Sat Jun 20 14:14:34 UTC 2020)
(GPL source distribution)
Java Runtime: OpenJDK Runtime Environment
JVM: OpenJDK 64-Bit Server VM
Default Encoding: UTF-8
Language: en
Country: null
--></g></svg>