<?xml version="1.0" encoding="UTF-8" standalone="no"?><svg xmlns="http://www.w3.org/2000/svg" xmlns:xlink="http://www.w3.org/1999/xlink" contentScriptType="application/ecmascript" contentStyleType="text/css" height="730px" preserveAspectRatio="none" style="width:884px;height:730px;" version="1.1" viewBox="0 0 884 730" width="884px" zoomAndPan="magnify"><defs><filter height="300%" id="fmsrdf44d2m8c" width="300%" x="-1" y="-1"><feGaussianBlur result="blurOut" stdDeviation="2.0"/><feColorMatrix in="blurOut" result="blurOut2" type="matrix" values="0 0 0 0 0 0 0 0 0 0 0 0 0 0 0 0 0 0 .4 0"/><feOffset dx="4.0" dy="4.0" in="blurOut2" result="blurOut3"/><feBlend in="SourceGraphic" in2="blurOut3" mode="normal"/></filter></defs><g><!--MD5=[f77682fd75c3e1fc6a82f566c0814d0f]
class _0--><rect codeLine="7" fill="#FEFECE" filter="url(#fmsrdf44d2m8c)" height="163.2422" id="_0" style="stroke: #A80036; stroke-width: 1.5;" width="361" x="34" y="7"/><ellipse cx="173.75" cy="23" fill="#DA70D6" rx="11" ry="11" style="stroke: #A80036; stroke-width: 1.0;"/><path d="M171.2656,26.2969 C170.6094,26.2969 170.2188,26.6094 170.2188,27.1563 C170.2188,27.4063 170.3594,27.6719 170.5781,27.8281 C170.7344,27.9531 170.9531,28 171.3594,28 L174.8281,28 C176.3125,28 177.3281,27.6094 178.1563,26.7188 C178.9375,25.9063 179.3438,24.8594 179.3438,23.6094 L179.3438,22.8125 C179.3438,20.1406 177.4531,18.0938 174.9688,18.0938 L171.3594,18.0938 C170.9063,18.0938 170.7813,18.1094 170.625,18.2031 C170.375,18.3594 170.2188,18.6563 170.2188,18.9375 C170.2188,19.4844 170.5938,19.7813 171.2656,19.7813 L171.2656,26.2969 Z M172.9531,26.2969 L172.9531,19.7813 L174.8281,19.7813 C175.7344,19.7813 176.375,20.0625 176.8906,20.6563 C177.375,21.2344 177.6563,21.9844 177.6563,22.7813 L177.6563,23.5625 C177.6563,24.4375 177.4219,25.0313 176.9531,25.5469 C176.4219,26.0938 175.8594,26.2969 174.8438,26.2969 L172.9531,26.2969 Z "/><text fill="#000000" font-family="sans-serif" font-size="12" lengthAdjust="spacingAndGlyphs" textLength="73" x="194.25" y="27.1543">audio_guide</text><line style="stroke: #A80036; stroke-width: 1.5;" x1="35" x2="394" y1="39" y2="39"/><ellipse cx="45" cy="50" fill="none" rx="3" ry="3" style="stroke: #038048; stroke-width: 1.0;"/><text fill="#000000" font-family="sans-serif" font-size="11" lengthAdjust="spacingAndGlyphs" textLength="124" x="54" y="53.2104">activation_date : date</text><ellipse cx="45" cy="62.8047" fill="none" rx="3" ry="3" style="stroke: #038048; stroke-width: 1.0;"/><text fill="#000000" font-family="sans-serif" font-size="11" lengthAdjust="spacingAndGlyphs" textLength="110" x="54" y="66.0151">audio_guide_id : int</text><ellipse cx="45" cy="75.6094" fill="none" rx="3" ry="3" style="stroke: #038048; stroke-width: 1.0;"/><text fill="#000000" font-family="sans-serif" font-size="11" lengthAdjust="spacingAndGlyphs" textLength="71" x="54" y="78.8198">issue_point :</text><text fill="#000000" font-family="sans-serif" font-size="11" font-weight="bold" lengthAdjust="spacingAndGlyphs" textLength="134" x="129" y="78.8198">location.location_id</text><text fill="#000000" font-family="sans-serif" font-size="11" lengthAdjust="spacingAndGlyphs" textLength="27" x="267" y="78.8198">«FK»</text><ellipse cx="45" cy="88.4141" fill="none" rx="3" ry="3" style="stroke: #038048; stroke-width: 1.0;"/><text fill="#000000" font-family="sans-serif" font-size="11" lengthAdjust="spacingAndGlyphs" textLength="89" x="54" y="91.6245">language : float</text><ellipse cx="45" cy="101.2188" fill="none" rx="3" ry="3" style="stroke: #038048; stroke-width: 1.0;"/><text fill="#000000" font-family="sans-serif" font-size="11" lengthAdjust="spacingAndGlyphs" textLength="99" x="54" y="104.4292">listen_time : float</text><ellipse cx="45" cy="114.0234" fill="none" rx="3" ry="3" style="stroke: #038048; stroke-width: 1.0;"/><text fill="#000000" font-family="sans-serif" font-size="11" lengthAdjust="spacingAndGlyphs" textLength="58" x="54" y="117.2339">payment :</text><text fill="#000000" font-family="sans-serif" font-size="11" font-weight="bold" lengthAdjust="spacingAndGlyphs" textLength="242" x="116" y="117.2339">payment_details.payment_details_id</text><text fill="#000000" font-family="sans-serif" font-size="11" lengthAdjust="spacingAndGlyphs" textLength="27" x="362" y="117.2339">«FK»</text><ellipse cx="45" cy="126.8281" fill="none" rx="3" ry="3" style="stroke: #038048; stroke-width: 1.0;"/><text fill="#000000" font-family="sans-serif" font-size="11" lengthAdjust="spacingAndGlyphs" textLength="75" x="54" y="130.0386">return_point :</text><text fill="#000000" font-family="sans-serif" font-size="11" font-weight="bold" lengthAdjust="spacingAndGlyphs" textLength="134" x="133" y="130.0386">location.location_id</text><text fill="#000000" font-family="sans-serif" font-size="11" lengthAdjust="spacingAndGlyphs" textLength="27" x="271" y="130.0386">«FK»</text><ellipse cx="45" cy="139.6328" fill="none" rx="3" ry="3" style="stroke: #038048; stroke-width: 1.0;"/><text fill="#000000" font-family="sans-serif" font-size="11" lengthAdjust="spacingAndGlyphs" textLength="54" x="54" y="142.8433">ticket_id :</text><text fill="#000000" font-family="sans-serif" font-size="11" font-weight="bold" lengthAdjust="spacingAndGlyphs" textLength="102" x="112" y="142.8433">ticket.ticket_id</text><text fill="#000000" font-family="sans-serif" font-size="11" lengthAdjust="spacingAndGlyphs" textLength="27" x="218" y="142.8433">«FK»</text><ellipse cx="45" cy="152.4375" fill="none" rx="3" ry="3" style="stroke: #038048; stroke-width: 1.0;"/><text fill="#000000" font-family="sans-serif" font-size="11" lengthAdjust="spacingAndGlyphs" textLength="62" x="54" y="155.6479">type : float</text><line style="stroke: #A80036; stroke-width: 1.5;" x1="35" x2="394" y1="162.2422" y2="162.2422"/><!--MD5=[5598b231efb7df47efa6733795d42804]
class _4--><rect codeLine="18" fill="#FEFECE" filter="url(#fmsrdf44d2m8c)" height="124.8281" id="_4" style="stroke: #A80036; stroke-width: 1.5;" width="190" x="512.5" y="587"/><ellipse cx="560.75" cy="603" fill="#DA70D6" rx="11" ry="11" style="stroke: #A80036; stroke-width: 1.0;"/><path d="M558.2656,606.2969 C557.6094,606.2969 557.2188,606.6094 557.2188,607.1563 C557.2188,607.4063 557.3594,607.6719 557.5781,607.8281 C557.7344,607.9531 557.9531,608 558.3594,608 L561.8281,608 C563.3125,608 564.3281,607.6094 565.1563,606.7188 C565.9375,605.9063 566.3438,604.8594 566.3438,603.6094 L566.3438,602.8125 C566.3438,600.1406 564.4531,598.0938 561.9688,598.0938 L558.3594,598.0938 C557.9063,598.0938 557.7813,598.1094 557.625,598.2031 C557.375,598.3594 557.2188,598.6563 557.2188,598.9375 C557.2188,599.4844 557.5938,599.7813 558.2656,599.7813 L558.2656,606.2969 Z M559.9531,606.2969 L559.9531,599.7813 L561.8281,599.7813 C562.7344,599.7813 563.375,600.0625 563.8906,600.6563 C564.375,601.2344 564.6563,601.9844 564.6563,602.7813 L564.6563,603.5625 C564.6563,604.4375 564.4219,605.0313 563.9531,605.5469 C563.4219,606.0938 562.8594,606.2969 561.8438,606.2969 L559.9531,606.2969 Z "/><text fill="#000000" font-family="sans-serif" font-size="12" lengthAdjust="spacingAndGlyphs" textLength="85" x="581.25" y="607.1543">card_payment</text><line style="stroke: #A80036; stroke-width: 1.5;" x1="513.5" x2="701.5" y1="619" y2="619"/><ellipse cx="523.5" cy="630" fill="none" rx="3" ry="3" style="stroke: #038048; stroke-width: 1.0;"/><text fill="#000000" font-family="sans-serif" font-size="11" lengthAdjust="spacingAndGlyphs" textLength="108" x="532.5" y="633.2104">bank_name : string</text><ellipse cx="523.5" cy="642.8047" fill="none" rx="3" ry="3" style="stroke: #038048; stroke-width: 1.0;"/><text fill="#000000" font-family="sans-serif" font-size="11" lengthAdjust="spacingAndGlyphs" textLength="142" x="532.5" y="646.0151">bank_short_name : string</text><ellipse cx="523.5" cy="655.6094" fill="none" rx="3" ry="3" style="stroke: #038048; stroke-width: 1.0;"/><text fill="#000000" font-family="sans-serif" font-size="11" lengthAdjust="spacingAndGlyphs" textLength="80" x="532.5" y="658.8198">branch : string</text><ellipse cx="523.5" cy="668.4141" fill="none" rx="3" ry="3" style="stroke: #038048; stroke-width: 1.0;"/><text fill="#000000" font-family="sans-serif" font-size="11" lengthAdjust="spacingAndGlyphs" textLength="164" x="532.5" y="671.6245">card_number_snippet : string</text><ellipse cx="523.5" cy="681.2188" fill="none" rx="3" ry="3" style="stroke: #038048; stroke-width: 1.0;"/><text fill="#000000" font-family="sans-serif" font-size="11" lengthAdjust="spacingAndGlyphs" textLength="78" x="532.5" y="684.4292">expiry : string</text><ellipse cx="523.5" cy="694.0234" fill="none" rx="3" ry="3" style="stroke: #038048; stroke-width: 1.0;"/><text fill="#000000" font-family="sans-serif" font-size="11" lengthAdjust="spacingAndGlyphs" textLength="35" x="532.5" y="697.2339">id : int</text><line style="stroke: #A80036; stroke-width: 1.5;" x1="513.5" x2="701.5" y1="703.8281" y2="703.8281"/><!--MD5=[9f3b5866fc3516bb7b126afd03fd81f9]
class _5--><rect codeLine="26" fill="#FEFECE" filter="url(#fmsrdf44d2m8c)" height="99.2188" id="_5" style="stroke: #A80036; stroke-width: 1.5;" width="128" x="737.5" y="600"/><ellipse cx="757" cy="616" fill="#DA70D6" rx="11" ry="11" style="stroke: #A80036; stroke-width: 1.0;"/><path d="M754.5156,619.2969 C753.8594,619.2969 753.4688,619.6094 753.4688,620.1563 C753.4688,620.4063 753.6094,620.6719 753.8281,620.8281 C753.9844,620.9531 754.2031,621 754.6094,621 L758.0781,621 C759.5625,621 760.5781,620.6094 761.4063,619.7188 C762.1875,618.9063 762.5938,617.8594 762.5938,616.6094 L762.5938,615.8125 C762.5938,613.1406 760.7031,611.0938 758.2188,611.0938 L754.6094,611.0938 C754.1563,611.0938 754.0313,611.1094 753.875,611.2031 C753.625,611.3594 753.4688,611.6563 753.4688,611.9375 C753.4688,612.4844 753.8438,612.7813 754.5156,612.7813 L754.5156,619.2969 Z M756.2031,619.2969 L756.2031,612.7813 L758.0781,612.7813 C758.9844,612.7813 759.625,613.0625 760.1406,613.6563 C760.625,614.2344 760.9063,614.9844 760.9063,615.7813 L760.9063,616.5625 C760.9063,617.4375 760.6719,618.0313 760.2031,618.5469 C759.6719,619.0938 759.1094,619.2969 758.0938,619.2969 L756.2031,619.2969 Z "/><text fill="#000000" font-family="sans-serif" font-size="12" lengthAdjust="spacingAndGlyphs" textLength="86" x="772" y="620.1543">cash_payment</text><line style="stroke: #A80036; stroke-width: 1.5;" x1="738.5" x2="864.5" y1="632" y2="632"/><ellipse cx="748.5" cy="643" fill="none" rx="3" ry="3" style="stroke: #038048; stroke-width: 1.0;"/><text fill="#000000" font-family="sans-serif" font-size="11" lengthAdjust="spacingAndGlyphs" textLength="62" x="757.5" y="646.2104">city : string</text><ellipse cx="748.5" cy="655.8047" fill="none" rx="3" ry="3" style="stroke: #038048; stroke-width: 1.0;"/><text fill="#000000" font-family="sans-serif" font-size="11" lengthAdjust="spacingAndGlyphs" textLength="84" x="757.5" y="659.0151">country : string</text><ellipse cx="748.5" cy="668.6094" fill="none" rx="3" ry="3" style="stroke: #038048; stroke-width: 1.0;"/><text fill="#000000" font-family="sans-serif" font-size="11" lengthAdjust="spacingAndGlyphs" textLength="102" x="757.5" y="671.8198">first_name : string</text><ellipse cx="748.5" cy="681.4141" fill="none" rx="3" ry="3" style="stroke: #038048; stroke-width: 1.0;"/><text fill="#000000" font-family="sans-serif" font-size="11" lengthAdjust="spacingAndGlyphs" textLength="35" x="757.5" y="684.6245">id : int</text><line style="stroke: #A80036; stroke-width: 1.5;" x1="738.5" x2="864.5" y1="691.2188" y2="691.2188"/><!--MD5=[6a3af1c95ca99f945e9d9cfb177ddaa5]
class _6--><rect codeLine="32" fill="#FEFECE" filter="url(#fmsrdf44d2m8c)" height="73.6094" id="_6" style="stroke: #A80036; stroke-width: 1.5;" width="246" x="134.5" y="427.5"/><ellipse cx="196.75" cy="443.5" fill="#DA70D6" rx="11" ry="11" style="stroke: #A80036; stroke-width: 1.0;"/><path d="M194.2656,446.7969 C193.6094,446.7969 193.2188,447.1094 193.2188,447.6563 C193.2188,447.9063 193.3594,448.1719 193.5781,448.3281 C193.7344,448.4531 193.9531,448.5 194.3594,448.5 L197.8281,448.5 C199.3125,448.5 200.3281,448.1094 201.1563,447.2188 C201.9375,446.4063 202.3438,445.3594 202.3438,444.1094 L202.3438,443.3125 C202.3438,440.6406 200.4531,438.5938 197.9688,438.5938 L194.3594,438.5938 C193.9063,438.5938 193.7813,438.6094 193.625,438.7031 C193.375,438.8594 193.2188,439.1563 193.2188,439.4375 C193.2188,439.9844 193.5938,440.2813 194.2656,440.2813 L194.2656,446.7969 Z M195.9531,446.7969 L195.9531,440.2813 L197.8281,440.2813 C198.7344,440.2813 199.375,440.5625 199.8906,441.1563 C200.375,441.7344 200.6563,442.4844 200.6563,443.2813 L200.6563,444.0625 C200.6563,444.9375 200.4219,445.5313 199.9531,446.0469 C199.4219,446.5938 198.8594,446.7969 197.8438,446.7969 L195.9531,446.7969 Z "/><text fill="#000000" font-family="sans-serif" font-size="12" lengthAdjust="spacingAndGlyphs" textLength="113" x="217.25" y="447.6543">checkpoint_lookup</text><line style="stroke: #A80036; stroke-width: 1.5;" x1="135.5" x2="379.5" y1="459.5" y2="459.5"/><ellipse cx="145.5" cy="470.5" fill="none" rx="3" ry="3" style="stroke: #038048; stroke-width: 1.0;"/><text fill="#000000" font-family="sans-serif" font-size="11" lengthAdjust="spacingAndGlyphs" textLength="145" x="154.5" y="473.7104">checkpoint_lookup_id : int</text><ellipse cx="145.5" cy="483.3047" fill="none" rx="3" ry="3" style="stroke: #038048; stroke-width: 1.0;"/><text fill="#000000" font-family="sans-serif" font-size="11" lengthAdjust="spacingAndGlyphs" textLength="51" x="154.5" y="486.5151">location :</text><text fill="#000000" font-family="sans-serif" font-size="11" font-weight="bold" lengthAdjust="spacingAndGlyphs" textLength="134" x="209.5" y="486.5151">location.location_id</text><text fill="#000000" font-family="sans-serif" font-size="11" lengthAdjust="spacingAndGlyphs" textLength="27" x="347.5" y="486.5151">«FK»</text><line style="stroke: #A80036; stroke-width: 1.5;" x1="135.5" x2="379.5" y1="493.1094" y2="493.1094"/><!--MD5=[de0bfa585452079efdc6062f86f7fa4a]
class _7--><rect codeLine="36" fill="#FEFECE" filter="url(#fmsrdf44d2m8c)" height="86.4141" id="_7" style="stroke: #A80036; stroke-width: 1.5;" width="123" x="416" y="421.5"/><ellipse cx="445.85" cy="437.5" fill="#DA70D6" rx="11" ry="11" style="stroke: #A80036; stroke-width: 1.0;"/><path d="M443.3656,440.7969 C442.7094,440.7969 442.3188,441.1094 442.3188,441.6563 C442.3188,441.9063 442.4594,442.1719 442.6781,442.3281 C442.8344,442.4531 443.0531,442.5 443.4594,442.5 L446.9281,442.5 C448.4125,442.5 449.4281,442.1094 450.2563,441.2188 C451.0375,440.4063 451.4438,439.3594 451.4438,438.1094 L451.4438,437.3125 C451.4438,434.6406 449.5531,432.5938 447.0688,432.5938 L443.4594,432.5938 C443.0063,432.5938 442.8813,432.6094 442.725,432.7031 C442.475,432.8594 442.3188,433.1563 442.3188,433.4375 C442.3188,433.9844 442.6938,434.2813 443.3656,434.2813 L443.3656,440.7969 Z M445.0531,440.7969 L445.0531,434.2813 L446.9281,434.2813 C447.8344,434.2813 448.475,434.5625 448.9906,435.1563 C449.475,435.7344 449.7563,436.4844 449.7563,437.2813 L449.7563,438.0625 C449.7563,438.9375 449.5219,439.5313 449.0531,440.0469 C448.5219,440.5938 447.9594,440.7969 446.9438,440.7969 L445.0531,440.7969 Z "/><text fill="#000000" font-family="sans-serif" font-size="12" lengthAdjust="spacingAndGlyphs" textLength="58" x="463.15" y="441.6543">exhibition</text><line style="stroke: #A80036; stroke-width: 1.5;" x1="417" x2="538" y1="453.5" y2="453.5"/><ellipse cx="427" cy="464.5" fill="none" rx="3" ry="3" style="stroke: #038048; stroke-width: 1.0;"/><text fill="#000000" font-family="sans-serif" font-size="11" lengthAdjust="spacingAndGlyphs" textLength="72" x="436" y="467.7104">capacity : int</text><ellipse cx="427" cy="477.3047" fill="none" rx="3" ry="3" style="stroke: #038048; stroke-width: 1.0;"/><text fill="#000000" font-family="sans-serif" font-size="11" lengthAdjust="spacingAndGlyphs" textLength="97" x="436" y="480.5151">exhibition_id : int</text><ellipse cx="427" cy="490.1094" fill="none" rx="3" ry="3" style="stroke: #038048; stroke-width: 1.0;"/><text fill="#000000" font-family="sans-serif" font-size="11" lengthAdjust="spacingAndGlyphs" textLength="89" x="436" y="493.3198">time : datetime</text><line style="stroke: #A80036; stroke-width: 1.5;" x1="417" x2="538" y1="499.9141" y2="499.9141"/><!--MD5=[37d6e5304215b5e345f427169db70937]
class _1--><rect codeLine="41" fill="#FEFECE" filter="url(#fmsrdf44d2m8c)" height="99.2188" id="_1" style="stroke: #A80036; stroke-width: 1.5;" width="115" x="7" y="600"/><ellipse cx="38.2" cy="616" fill="#DA70D6" rx="11" ry="11" style="stroke: #A80036; stroke-width: 1.0;"/><path d="M35.7156,619.2969 C35.0594,619.2969 34.6688,619.6094 34.6688,620.1563 C34.6688,620.4063 34.8094,620.6719 35.0281,620.8281 C35.1844,620.9531 35.4031,621 35.8094,621 L39.2781,621 C40.7625,621 41.7781,620.6094 42.6063,619.7188 C43.3875,618.9063 43.7938,617.8594 43.7938,616.6094 L43.7938,615.8125 C43.7938,613.1406 41.9031,611.0938 39.4188,611.0938 L35.8094,611.0938 C35.3563,611.0938 35.2313,611.1094 35.075,611.2031 C34.825,611.3594 34.6688,611.6563 34.6688,611.9375 C34.6688,612.4844 35.0438,612.7813 35.7156,612.7813 L35.7156,619.2969 Z M37.4031,619.2969 L37.4031,612.7813 L39.2781,612.7813 C40.1844,612.7813 40.825,613.0625 41.3406,613.6563 C41.825,614.2344 42.1063,614.9844 42.1063,615.7813 L42.1063,616.5625 C42.1063,617.4375 41.8719,618.0313 41.4031,618.5469 C40.8719,619.0938 40.3094,619.2969 39.2938,619.2969 L37.4031,619.2969 Z "/><text fill="#000000" font-family="sans-serif" font-size="12" lengthAdjust="spacingAndGlyphs" textLength="47" x="55.8" y="620.1543">location</text><line style="stroke: #A80036; stroke-width: 1.5;" x1="8" x2="121" y1="632" y2="632"/><ellipse cx="18" cy="643" fill="none" rx="3" ry="3" style="stroke: #038048; stroke-width: 1.0;"/><text fill="#000000" font-family="sans-serif" font-size="11" lengthAdjust="spacingAndGlyphs" textLength="85" x="27" y="646.2104">location_id : int</text><ellipse cx="18" cy="655.8047" fill="none" rx="3" ry="3" style="stroke: #038048; stroke-width: 1.0;"/><text fill="#000000" font-family="sans-serif" font-size="11" lengthAdjust="spacingAndGlyphs" textLength="69" x="27" y="659.0151">name : float</text><ellipse cx="18" cy="668.6094" fill="none" rx="3" ry="3" style="stroke: #038048; stroke-width: 1.0;"/><text fill="#000000" font-family="sans-serif" font-size="11" lengthAdjust="spacingAndGlyphs" textLength="89" x="27" y="671.8198">time : datetime</text><ellipse cx="18" cy="681.4141" fill="none" rx="3" ry="3" style="stroke: #038048; stroke-width: 1.0;"/><text fill="#000000" font-family="sans-serif" font-size="11" lengthAdjust="spacingAndGlyphs" textLength="62" x="27" y="684.6245">type : float</text><line style="stroke: #A80036; stroke-width: 1.5;" x1="8" x2="121" y1="691.2188" y2="691.2188"/><!--MD5=[95d1cea1cd7f69d371fe62aa72675e9c]
class _2--><rect codeLine="47" fill="#FEFECE" filter="url(#fmsrdf44d2m8c)" height="124.8281" id="_2" style="stroke: #A80036; stroke-width: 1.5;" width="261" x="574" y="402"/><ellipse cx="651.25" cy="418" fill="#DA70D6" rx="11" ry="11" style="stroke: #A80036; stroke-width: 1.0;"/><path d="M648.7656,421.2969 C648.1094,421.2969 647.7188,421.6094 647.7188,422.1563 C647.7188,422.4063 647.8594,422.6719 648.0781,422.8281 C648.2344,422.9531 648.4531,423 648.8594,423 L652.3281,423 C653.8125,423 654.8281,422.6094 655.6563,421.7188 C656.4375,420.9063 656.8438,419.8594 656.8438,418.6094 L656.8438,417.8125 C656.8438,415.1406 654.9531,413.0938 652.4688,413.0938 L648.8594,413.0938 C648.4063,413.0938 648.2813,413.1094 648.125,413.2031 C647.875,413.3594 647.7188,413.6563 647.7188,413.9375 C647.7188,414.4844 648.0938,414.7813 648.7656,414.7813 L648.7656,421.2969 Z M650.4531,421.2969 L650.4531,414.7813 L652.3281,414.7813 C653.2344,414.7813 653.875,415.0625 654.3906,415.6563 C654.875,416.2344 655.1563,416.9844 655.1563,417.7813 L655.1563,418.5625 C655.1563,419.4375 654.9219,420.0313 654.4531,420.5469 C653.9219,421.0938 653.3594,421.2969 652.3438,421.2969 L650.4531,421.2969 Z "/><text fill="#000000" font-family="sans-serif" font-size="12" lengthAdjust="spacingAndGlyphs" textLength="98" x="671.75" y="422.1543">payment_details</text><line style="stroke: #A80036; stroke-width: 1.5;" x1="575" x2="834" y1="434" y2="434"/><ellipse cx="585" cy="445" fill="none" rx="3" ry="3" style="stroke: #038048; stroke-width: 1.0;"/><text fill="#000000" font-family="sans-serif" font-size="11" lengthAdjust="spacingAndGlyphs" textLength="70" x="594" y="448.2104">online : bool</text><ellipse cx="585" cy="457.8047" fill="none" rx="3" ry="3" style="stroke: #038048; stroke-width: 1.0;"/><text fill="#000000" font-family="sans-serif" font-size="11" lengthAdjust="spacingAndGlyphs" textLength="88" x="594" y="461.0151">payment_card :</text><text fill="#000000" font-family="sans-serif" font-size="11" font-weight="bold" lengthAdjust="spacingAndGlyphs" textLength="109" x="686" y="461.0151">card_payment.id</text><text fill="#000000" font-family="sans-serif" font-size="11" lengthAdjust="spacingAndGlyphs" textLength="27" x="799" y="461.0151">«FK»</text><ellipse cx="585" cy="470.6094" fill="none" rx="3" ry="3" style="stroke: #038048; stroke-width: 1.0;"/><text fill="#000000" font-family="sans-serif" font-size="11" lengthAdjust="spacingAndGlyphs" textLength="90" x="594" y="473.8198">payment_cash :</text><text fill="#000000" font-family="sans-serif" font-size="11" font-weight="bold" lengthAdjust="spacingAndGlyphs" textLength="110" x="688" y="473.8198">cash_payment.id</text><text fill="#000000" font-family="sans-serif" font-size="11" lengthAdjust="spacingAndGlyphs" textLength="27" x="802" y="473.8198">«FK»</text><ellipse cx="585" cy="483.4141" fill="none" rx="3" ry="3" style="stroke: #038048; stroke-width: 1.0;"/><text fill="#000000" font-family="sans-serif" font-size="11" lengthAdjust="spacingAndGlyphs" textLength="136" x="594" y="486.6245">payment_details_id : int</text><ellipse cx="585" cy="496.2188" fill="none" rx="3" ry="3" style="stroke: #038048; stroke-width: 1.0;"/><text fill="#000000" font-family="sans-serif" font-size="11" lengthAdjust="spacingAndGlyphs" textLength="84" x="594" y="499.4292">price : decimal</text><ellipse cx="585" cy="509.0234" fill="none" rx="3" ry="3" style="stroke: #038048; stroke-width: 1.0;"/><text fill="#000000" font-family="sans-serif" font-size="11" lengthAdjust="spacingAndGlyphs" textLength="62" x="594" y="512.2339">type : float</text><line style="stroke: #A80036; stroke-width: 1.5;" x1="575" x2="834" y1="518.8281" y2="518.8281"/><!--MD5=[4df2e88eba431a2a56d213b7bca710d9]
class _3--><rect codeLine="55" fill="#FEFECE" filter="url(#fmsrdf44d2m8c)" height="112.0234" id="_3" style="stroke: #A80036; stroke-width: 1.5;" width="405" x="163" y="230"/><ellipse cx="344.75" cy="246" fill="#DA70D6" rx="11" ry="11" style="stroke: #A80036; stroke-width: 1.0;"/><path d="M342.2656,249.2969 C341.6094,249.2969 341.2188,249.6094 341.2188,250.1563 C341.2188,250.4063 341.3594,250.6719 341.5781,250.8281 C341.7344,250.9531 341.9531,251 342.3594,251 L345.8281,251 C347.3125,251 348.3281,250.6094 349.1563,249.7188 C349.9375,248.9063 350.3438,247.8594 350.3438,246.6094 L350.3438,245.8125 C350.3438,243.1406 348.4531,241.0938 345.9688,241.0938 L342.3594,241.0938 C341.9063,241.0938 341.7813,241.1094 341.625,241.2031 C341.375,241.3594 341.2188,241.6563 341.2188,241.9375 C341.2188,242.4844 341.5938,242.7813 342.2656,242.7813 L342.2656,249.2969 Z M343.9531,249.2969 L343.9531,242.7813 L345.8281,242.7813 C346.7344,242.7813 347.375,243.0625 347.8906,243.6563 C348.375,244.2344 348.6563,244.9844 348.6563,245.7813 L348.6563,246.5625 C348.6563,247.4375 348.4219,248.0313 347.9531,248.5469 C347.4219,249.0938 346.8594,249.2969 345.8438,249.2969 L343.9531,249.2969 Z "/><text fill="#000000" font-family="sans-serif" font-size="12" lengthAdjust="spacingAndGlyphs" textLength="33" x="365.25" y="250.1543">ticket</text><line style="stroke: #A80036; stroke-width: 1.5;" x1="164" x2="567" y1="262" y2="262"/><ellipse cx="174" cy="273" fill="none" rx="3" ry="3" style="stroke: #038048; stroke-width: 1.0;"/><text fill="#000000" font-family="sans-serif" font-size="11" lengthAdjust="spacingAndGlyphs" textLength="127" x="183" y="276.2104">arrival_transport : float</text><ellipse cx="174" cy="285.8047" fill="none" rx="3" ry="3" style="stroke: #038048; stroke-width: 1.0;"/><text fill="#000000" font-family="sans-serif" font-size="11" lengthAdjust="spacingAndGlyphs" textLength="74" x="183" y="289.0151">checkpoints :</text><text fill="#000000" font-family="sans-serif" font-size="11" font-weight="bold" lengthAdjust="spacingAndGlyphs" textLength="270" x="261" y="289.0151">checkpoint_lookup.checkpoint_lookup_id</text><text fill="#000000" font-family="sans-serif" font-size="11" lengthAdjust="spacingAndGlyphs" textLength="27" x="535" y="289.0151">«FK»</text><ellipse cx="174" cy="298.6094" fill="none" rx="3" ry="3" style="stroke: #038048; stroke-width: 1.0;"/><text fill="#000000" font-family="sans-serif" font-size="11" lengthAdjust="spacingAndGlyphs" textLength="63" x="183" y="301.8198">exhibition :</text><text fill="#000000" font-family="sans-serif" font-size="11" font-weight="bold" lengthAdjust="spacingAndGlyphs" textLength="156" x="250" y="301.8198">exhibition.exhibition_id</text><text fill="#000000" font-family="sans-serif" font-size="11" lengthAdjust="spacingAndGlyphs" textLength="27" x="410" y="301.8198">«FK»</text><ellipse cx="174" cy="311.4141" fill="none" rx="3" ry="3" style="stroke: #038048; stroke-width: 1.0;"/><text fill="#000000" font-family="sans-serif" font-size="11" lengthAdjust="spacingAndGlyphs" textLength="58" x="183" y="314.6245">payment :</text><text fill="#000000" font-family="sans-serif" font-size="11" font-weight="bold" lengthAdjust="spacingAndGlyphs" textLength="242" x="245" y="314.6245">payment_details.payment_details_id</text><text fill="#000000" font-family="sans-serif" font-size="11" lengthAdjust="spacingAndGlyphs" textLength="27" x="491" y="314.6245">«FK»</text><ellipse cx="174" cy="324.2188" fill="none" rx="3" ry="3" style="stroke: #038048; stroke-width: 1.0;"/><text fill="#000000" font-family="sans-serif" font-size="11" lengthAdjust="spacingAndGlyphs" textLength="72" x="183" y="327.4292">ticket_id : int</text><line style="stroke: #A80036; stroke-width: 1.5;" x1="164" x2="567" y1="334.0234" y2="334.0234"/><!--MD5=[bde1413f829cc278731640fabc810278]
reverse link _0 to _1--><path codeLine="62" d="M150.282,177.325 C141.963,194.456 134.364,212.53 128.5,230 C84.9338,359.792 62.0336,520.548 59.0979,599.734 " fill="none" id="_0&lt;-_1" style="stroke: #A80036; stroke-width: 1.0;"/><line style="stroke: #A80036; stroke-width: 1.0;" x1="150.3376" x2="146.7205" y1="177.2145" y2="170.046"/><line style="stroke: #A80036; stroke-width: 1.0;" x1="150.3376" x2="161.0575" y1="177.2145" y2="170.046"/><line style="stroke: #A80036; stroke-width: 1.0;" x1="150.3376" x2="153.889" y1="177.2145" y2="170.046"/><text fill="#000000" font-family="sans-serif" font-size="13" lengthAdjust="spacingAndGlyphs" textLength="0" x="58.1032" y="589.1"/><!--MD5=[bde1413f829cc278731640fabc810278]
reverse link _0 to _1--><path codeLine="63" d="M184.426,177.784 C176.828,194.779 169.312,212.686 163.5,230 C119.934,359.792 97.0336,520.548 80.8891,599.734 " fill="none" id="_0&lt;-_1-1" style="stroke: #A80036; stroke-width: 1.0;"/><line style="stroke: #A80036; stroke-width: 1.0;" x1="184.6277" x2="180.6259" y1="177.3381" y2="170.046"/><line style="stroke: #A80036; stroke-width: 1.0;" x1="184.6277" x2="195.2101" y1="177.3381" y2="170.046"/><line style="stroke: #A80036; stroke-width: 1.0;" x1="184.6277" x2="187.918" y1="177.3381" y2="170.046"/><text fill="#000000" font-family="sans-serif" font-size="13" lengthAdjust="spacingAndGlyphs" textLength="0" x="82.8226" y="589.1"/><!--MD5=[eed656a2cfbc263ae3905a2379d727ae]
reverse link _0 to _2--><path codeLine="64" d="M402.879,131.264 C466.466,152.577 534.243,184.061 585.5,230 C636.916,276.082 669.19,349.579 686.95,401.797 " fill="none" id="_0&lt;-_2" style="stroke: #A80036; stroke-width: 1.0;"/><line style="stroke: #A80036; stroke-width: 1.0;" x1="402.7449" x2="395.147" y1="131.2195" y2="136.3129"/><line style="stroke: #A80036; stroke-width: 1.0;" x1="402.7449" x2="395.147" y1="131.2195" y2="121.1171"/><line style="stroke: #A80036; stroke-width: 1.0;" x1="402.7449" x2="395.147" y1="131.2195" y2="128.715"/><text fill="#000000" font-family="sans-serif" font-size="13" lengthAdjust="spacingAndGlyphs" textLength="0" x="684.6895" y="390.7643"/><!--MD5=[ea448699c80579924a53b8b5046cae45]
reverse link _0 to _3--><path codeLine="65" d="M281.905,176.769 C295.845,194.817 310.158,213.348 322.912,229.861 " fill="none" id="_0&lt;-_3" style="stroke: #A80036; stroke-width: 1.0;"/><line style="stroke: #A80036; stroke-width: 1.0;" x1="281.6797" x2="270.4581" y1="176.4769" y2="170.146"/><line style="stroke: #A80036; stroke-width: 1.0;" x1="281.6797" x2="283.1199" y1="176.4769" y2="170.146"/><line style="stroke: #A80036; stroke-width: 1.0;" x1="281.6797" x2="276.789" y1="176.4769" y2="170.146"/><text fill="#000000" font-family="sans-serif" font-size="13" lengthAdjust="spacingAndGlyphs" textLength="0" x="317.1992" y="218.7812"/><!--MD5=[68addd6110fd42dc811da417aeccbe4e]
reverse link _2 to _4--><path codeLine="66" d="M667.935,534.483 C658.833,551.656 649.132,569.957 640.228,586.756 " fill="none" id="_2&lt;-_4" style="stroke: #A80036; stroke-width: 1.0;"/><line style="stroke: #A80036; stroke-width: 1.0;" x1="668.048" x2="664.7267" y1="534.2683" y2="527.2"/><line style="stroke: #A80036; stroke-width: 1.0;" x1="668.048" x2="678.8633" y1="534.2683" y2="527.2"/><line style="stroke: #A80036; stroke-width: 1.0;" x1="668.048" x2="671.795" y1="534.2683" y2="527.2"/><text fill="#000000" font-family="sans-serif" font-size="13" lengthAdjust="spacingAndGlyphs" textLength="0" x="643.7809" y="575.7185"/><!--MD5=[6d4ebb2bb2edf03631fc8b5de109183a]
reverse link _2 to _5--><path codeLine="67" d="M741.07,534.493 C752.589,556.225 765.065,579.763 775.674,599.777 " fill="none" id="_2&lt;-_5" style="stroke: #A80036; stroke-width: 1.0;"/><line style="stroke: #A80036; stroke-width: 1.0;" x1="740.952" x2="730.1367" y1="534.2683" y2="527.2"/><line style="stroke: #A80036; stroke-width: 1.0;" x1="740.952" x2="744.2733" y1="534.2683" y2="527.2"/><line style="stroke: #A80036; stroke-width: 1.0;" x1="740.952" x2="737.205" y1="534.2683" y2="527.2"/><text fill="#000000" font-family="sans-serif" font-size="13" lengthAdjust="spacingAndGlyphs" textLength="0" x="771.761" y="588.7909"/><!--MD5=[e6e008698320a9f27e8a0afb4bfaa138]
reverse link _3 to _2--><path codeLine="68" d="M478.682,345.928 C513.224,363.912 551.286,383.729 586.16,401.886 " fill="none" id="_3&lt;-_2" style="stroke: #A80036; stroke-width: 1.0;"/><line style="stroke: #A80036; stroke-width: 1.0;" x1="478.4629" x2="467.6726" y1="345.8144" y2="342.12"/><line style="stroke: #A80036; stroke-width: 1.0;" x1="478.4629" x2="475.0614" y1="345.8144" y2="342.12"/><line style="stroke: #A80036; stroke-width: 1.0;" x1="478.4629" x2="471.367" y1="345.8144" y2="342.12"/><text fill="#000000" font-family="sans-serif" font-size="13" lengthAdjust="spacingAndGlyphs" textLength="0" x="572.2457" y="390.8636"/><!--MD5=[510df503d95d0230a43042b22d704e04]
reverse link _3 to _6--><path codeLine="69" d="M327.395,349.273 C311.421,375.379 293.41,404.814 279.672,427.265 " fill="none" id="_3&lt;-_6" style="stroke: #A80036; stroke-width: 1.0;"/><line style="stroke: #A80036; stroke-width: 1.0;" x1="327.4479" x2="324.8005" y1="349.1845" y2="342.361"/><line style="stroke: #A80036; stroke-width: 1.0;" x1="327.4479" x2="338.4475" y1="349.1845" y2="342.361"/><line style="stroke: #A80036; stroke-width: 1.0;" x1="327.4479" x2="331.624" y1="349.1845" y2="342.361"/><text fill="#000000" font-family="sans-serif" font-size="13" lengthAdjust="spacingAndGlyphs" textLength="0" x="283.2651" y="416.4101"/><!--MD5=[302fddd2497c975672137639babeaac0]
reverse link _3 to _7--><path codeLine="70" d="M405.048,349.324 C420.157,373.133 437.018,399.705 450.671,421.22 " fill="none" id="_3&lt;-_7" style="stroke: #A80036; stroke-width: 1.0;"/><line style="stroke: #A80036; stroke-width: 1.0;" x1="404.9155" x2="393.8747" y1="349.1163" y2="342.361"/><line style="stroke: #A80036; stroke-width: 1.0;" x1="404.9155" x2="407.3853" y1="349.1163" y2="342.361"/><line style="stroke: #A80036; stroke-width: 1.0;" x1="404.9155" x2="400.63" y1="349.1163" y2="342.361"/><text fill="#000000" font-family="sans-serif" font-size="13" lengthAdjust="spacingAndGlyphs" textLength="0" x="446.2566" y="410.4897"/><!--MD5=[299d30f220ef4c56106067915d61f792]
reverse link _6 to _1--><path codeLine="71" d="M213.311,507.4 C184.243,534.961 146.101,571.127 115.71,599.944 " fill="none" id="_6&lt;-_1" style="stroke: #A80036; stroke-width: 1.0;"/><line style="stroke: #A80036; stroke-width: 1.0;" x1="213.5641" x2="213.8642" y1="507.1598" y2="501.655"/><line style="stroke: #A80036; stroke-width: 1.0;" x1="213.5641" x2="224.8738" y1="507.1598" y2="501.655"/><line style="stroke: #A80036; stroke-width: 1.0;" x1="213.5641" x2="219.369" y1="507.1598" y2="501.655"/><text fill="#000000" font-family="sans-serif" font-size="13" lengthAdjust="spacingAndGlyphs" textLength="0" x="122.6302" y="588.9814"/><!--MD5=[0c5cfa1f604ad118d62b6fd327a326e0]
@startuml
''''''''''''''''''''''''''''''''''''''''''
''                                      ''
''  AUTOGENERATED CODE - - DO NOT EDIT!  ''
''                                      ''
''''''''''''''''''''''''''''''''''''''''''

class "audio_guide" as _0 << (D,orchid) >> {
+ activation_date : date
+ audio_guide_id : int
+ issue_point : **location.location_id** <<FK>>
+ language : float
+ listen_time : float
+ payment : **payment_details.payment_details_id** <<FK>>
+ return_point : **location.location_id** <<FK>>
+ ticket_id : **ticket.ticket_id** <<FK>>
+ type : float
}
class "card_payment" as _4 << (D,orchid) >> {
+ bank_name : string
+ bank_short_name : string
+ branch : string
+ card_number_snippet : string
+ expiry : string
+ id : int
}
class "cash_payment" as _5 << (D,orchid) >> {
+ city : string
+ country : string
+ first_name : string
+ id : int
}
class "checkpoint_lookup" as _6 << (D,orchid) >> {
+ checkpoint_lookup_id : int
+ location : **location.location_id** <<FK>>
}
class "exhibition" as _7 << (D,orchid) >> {
+ capacity : int
+ exhibition_id : int
+ time : datetime
}
class "location" as _1 << (D,orchid) >> {
+ location_id : int
+ name : float
+ time : datetime
+ type : float
}
class "payment_details" as _2 << (D,orchid) >> {
+ online : bool
+ payment_card : **card_payment.id** <<FK>>
+ payment_cash : **cash_payment.id** <<FK>>
+ payment_details_id : int
+ price : decimal
+ type : float
}
class "ticket" as _3 << (D,orchid) >> {
+ arrival_transport : float
+ checkpoints : **checkpoint_lookup.checkpoint_lookup_id** <<FK>>
+ exhibition : **exhibition.exhibition_id** <<FK>>
+ payment : **payment_details.payment_details_id** <<FK>>
+ ticket_id : int
}
_0 }- - " " _1
_0 }- - " " _1
_0 }- - " " _2
_0 }- - " " _3
_2 }- - " " _4
_2 }- - " " _5
_3 }- - " " _2
_3 }- - " " _6
_3 }- - " " _7
_6 }- - " " _1
@enduml

@startuml

class "audio_guide" as _0 << (D,orchid) >> {
+ activation_date : date
+ audio_guide_id : int
+ issue_point : **location.location_id** <<FK>>
+ language : float
+ listen_time : float
+ payment : **payment_details.payment_details_id** <<FK>>
+ return_point : **location.location_id** <<FK>>
+ ticket_id : **ticket.ticket_id** <<FK>>
+ type : float
}
class "card_payment" as _4 << (D,orchid) >> {
+ bank_name : string
+ bank_short_name : string
+ branch : string
+ card_number_snippet : string
+ expiry : string
+ id : int
}
class "cash_payment" as _5 << (D,orchid) >> {
+ city : string
+ country : string
+ first_name : string
+ id : int
}
class "checkpoint_lookup" as _6 << (D,orchid) >> {
+ checkpoint_lookup_id : int
+ location : **location.location_id** <<FK>>
}
class "exhibition" as _7 << (D,orchid) >> {
+ capacity : int
+ exhibition_id : int
+ time : datetime
}
class "location" as _1 << (D,orchid) >> {
+ location_id : int
+ name : float
+ time : datetime
+ type : float
}
class "payment_details" as _2 << (D,orchid) >> {
+ online : bool
+ payment_card : **card_payment.id** <<FK>>
+ payment_cash : **cash_payment.id** <<FK>>
+ payment_details_id : int
+ price : decimal
+ type : float
}
class "ticket" as _3 << (D,orchid) >> {
+ arrival_transport : float
+ checkpoints : **checkpoint_lookup.checkpoint_lookup_id** <<FK>>
+ exhibition : **exhibition.exhibition_id** <<FK>>
+ payment : **payment_details.payment_details_id** <<FK>>
+ ticket_id : int
}
_0 }- - " " _1
_0 }- - " " _1
_0 }- - " " _2
_0 }- - " " _3
_2 }- - " " _4
_2 }- - " " _5
_3 }- - " " _2
_3 }- - " " _6
_3 }- - " " _7
_6 }- - " " _1
@enduml

PlantUML version 1.2020.16beta3(Unknown compile time)
(GPL source distribution)
Java Runtime: Java(TM) SE Runtime Environment
JVM: Java HotSpot(TM) 64-Bit Server VM
Default Encoding: UTF-8
Language: en
Country: US
--></g></svg>