<?xml version="1.0" encoding="UTF-8" standalone="no"?><svg xmlns="http://www.w3.org/2000/svg" xmlns:xlink="http://www.w3.org/1999/xlink" contentScriptType="application/ecmascript" contentStyleType="text/css" height="320px" preserveAspectRatio="none" style="width:366px;height:320px;" version="1.1" viewBox="0 0 366 320" width="366px" zoomAndPan="magnify"><defs><filter height="300%" id="fv99vrrrc2k8n" width="300%" x="-1" y="-1"><feGaussianBlur result="blurOut" stdDeviation="2.0"/><feColorMatrix in="blurOut" result="blurOut2" type="matrix" values="0 0 0 0 0 0 0 0 0 0 0 0 0 0 0 0 0 0 .4 0"/><feOffset dx="4.0" dy="4.0" in="blurOut2" result="blurOut3"/><feBlend in="SourceGraphic" in2="blurOut3" mode="normal"/></filter></defs><g><text fill="#000000" font-family="sans-serif" font-size="18" lengthAdjust="spacingAndGlyphs" textLength="108" x="136" y="16.708">FirstDivision</text><!--MD5=[758d88821a0e741df1f73accbabae398]
cluster X_0--><rect fill="#FFFAF0" filter="url(#fv99vrrrc2k8n)" height="91" rx="12.5" ry="12.5" style="stroke: #000000; stroke-width: 1.5;" width="302.5" x="51.5" y="218.9531"/><rect fill="#FFFFFF" height="58.7031" rx="12.5" ry="12.5" style="stroke: #FFFFFF; stroke-width: 1.0;" width="296.5" x="54.5" y="248.25"/><line style="stroke: #000000; stroke-width: 1.5;" x1="51.5" x2="354" y1="245.25" y2="245.25"/><text fill="#000000" font-family="sans-serif" font-size="14" lengthAdjust="spacingAndGlyphs" textLength="72" x="164.25" y="235.9482">MobileApp</text><!--MD5=[cecb9a85ae19b9003f4441b135e71cd6]
cluster X_1--><rect fill="#FFFAF0" filter="url(#fv99vrrrc2k8n)" height="91" rx="12.5" ry="12.5" style="stroke: #000000; stroke-width: 1.5;" width="340" x="14" y="36.9531"/><rect fill="#FFFFFF" height="58.7031" rx="12.5" ry="12.5" style="stroke: #FFFFFF; stroke-width: 1.0;" width="334" x="17" y="66.25"/><line style="stroke: #000000; stroke-width: 1.5;" x1="14" x2="354" y1="63.25" y2="63.25"/><text fill="#000000" font-family="sans-serif" font-size="14" lengthAdjust="spacingAndGlyphs" textLength="81" x="143.5" y="53.9482">MobileApp2</text><!--MD5=[51e8d94a944361a156a1f52e5c4894ba]
cluster X_2--><rect fill="#FFFAF0" filter="url(#fv99vrrrc2k8n)" height="75" rx="12.5" ry="12.5" style="stroke: #000000; stroke-width: 1.5;" width="114" x="219.5" y="135.9531"/><rect fill="#FFFFFF" height="42.7031" rx="12.5" ry="12.5" style="stroke: #FFFFFF; stroke-width: 1.0;" width="108" x="222.5" y="165.25"/><line style="stroke: #000000; stroke-width: 1.5;" x1="219.5" x2="333.5" y1="162.25" y2="162.25"/><text fill="#000000" font-family="sans-serif" font-size="14" lengthAdjust="spacingAndGlyphs" textLength="44" x="254.5" y="152.9482">Server</text><rect fill="#FFFAF0" filter="url(#fv99vrrrc2k8n)" height="40" rx="12.5" ry="12.5" style="stroke: #000000; stroke-width: 1.5;" width="139" x="207" y="261.9531"/><text fill="#000000" font-family="sans-serif" font-size="14" lengthAdjust="spacingAndGlyphs" textLength="129" x="212" y="286.7998">Authenticate client</text><rect fill="#FFFAF0" filter="url(#fv99vrrrc2k8n)" height="40" rx="12.5" ry="12.5" style="stroke: #000000; stroke-width: 1.5;" width="50" x="59.5" y="261.9531"/><text fill="#000000" font-family="sans-serif" font-size="14" lengthAdjust="spacingAndGlyphs" textLength="37" x="66" y="286.7998">Login</text><rect fill="#FFFAF0" filter="url(#fv99vrrrc2k8n)" height="40" rx="12.5" ry="12.5" style="stroke: #000000; stroke-width: 1.5;" width="139" x="207" y="79.9531"/><text fill="#000000" font-family="sans-serif" font-size="14" lengthAdjust="spacingAndGlyphs" textLength="129" x="212" y="104.7998">Authenticate client</text><rect fill="#FFFAF0" filter="url(#fv99vrrrc2k8n)" height="40" rx="12.5" ry="12.5" style="stroke: #000000; stroke-width: 1.5;" width="125" x="22" y="79.9531"/><text fill="#000000" font-family="sans-serif" font-size="14" lengthAdjust="spacingAndGlyphs" textLength="115" x="27" y="104.7998">SecondEndpoint</text><rect fill="#FFFAF0" filter="url(#fv99vrrrc2k8n)" height="40" rx="12.5" ry="12.5" style="stroke: #000000; stroke-width: 1.5;" width="98" x="227.5" y="162.9531"/><text fill="#000000" font-family="sans-serif" font-size="14" lengthAdjust="spacingAndGlyphs" textLength="88" x="232.5" y="187.7998">Authenticate</text><!--MD5=[b4e3d399786c33682cf7201d5a7381ec]
link _1 to _0--><path d="M109.6006,281.9531 C132.9504,281.9531 168.9434,281.9531 201.5348,281.9531 " fill="none" id="_1-&gt;_0" style="stroke: #C0C0C0; stroke-width: 1.0;"/><polygon fill="#C0C0C0" points="206.7339,281.9531,197.7339,277.9531,201.7339,281.9531,197.7339,285.9531,206.7339,281.9531" style="stroke: #C0C0C0; stroke-width: 1.0;"/><!--MD5=[66d2e95ee2e3e1b5b59548f8bdae5bf2]
link _0 to _4--><path d="M276.5,261.8437 C276.5,243.9099 276.5,225.976 276.5,208.0422 " fill="none" id="_0-&gt;_4" style="stroke: #000000; stroke-width: 1.0;"/><polygon fill="#000000" points="276.5,202.9839,272.5,211.9839,276.5,207.9839,280.5,211.9839,276.5,202.9839" style="stroke: #000000; stroke-width: 1.0;"/><!--MD5=[450ea2f654882f822490fe83b2b538b8]
link _3 to _2--><path d="M147.1023,99.9531 C164.5072,99.9531 183.5852,99.9531 201.6174,99.9531 " fill="none" id="_3-&gt;_2" style="stroke: #C0C0C0; stroke-width: 1.0;"/><polygon fill="#C0C0C0" points="206.6734,99.9531,197.6734,95.9531,201.6734,99.9531,197.6734,103.9531,206.6734,99.9531" style="stroke: #C0C0C0; stroke-width: 1.0;"/><!--MD5=[7147dd2715d95ef75e19400737a46bd1]
link _2 to _4--><path d="M276.5,120.1003 C276.5,132.6807 276.5,145.2612 276.5,157.8416 " fill="none" id="_2-&gt;_4" style="stroke: #000000; stroke-width: 1.0;"/><polygon fill="#000000" points="276.5,162.8515,280.5,153.8515,276.5,157.8515,272.5,153.8515,276.5,162.8515" style="stroke: #000000; stroke-width: 1.0;"/><!--MD5=[16f06a412d0c89ca956b387a058a2628]
@startuml
title FirstDivision
left to right direction
scale max 16384 height
hide empty description
skinparam state {
  BackgroundColor FloralWhite
  BorderColor Black
  ArrowColor Crimson
}
state "MobileApp" as X_0 <<highlight>> {
  state "Authenticate client" as _0 <<highlight>>
  state "Login" as _1 <<highlight>>
}
state "MobileApp2" as X_1 <<highlight>> {
  state "Authenticate client" as _2 <<highlight>>
  state "SecondEndpoint" as _3 <<highlight>>
}
state "Server" as X_2 {
  state "Authenticate" as _4
}
_1 -[#silver]-> _0
_0 -[#black]> _4
_3 -[#silver]-> _2
_2 -[#black]> _4
@enduml

PlantUML version 1.2020.10(Sun May 17 09:35:57 GMT 2020)
(GPL source distribution)
Java Runtime: OpenJDK Runtime Environment
JVM: OpenJDK 64-Bit Server VM
Java Version: 14-ea+33
Operating System: Linux
Default Encoding: UTF-8
Language: en
Country: US
--></g></svg>