<?xml version="1.0" encoding="UTF-8" standalone="no"?><svg xmlns="http://www.w3.org/2000/svg" xmlns:xlink="http://www.w3.org/1999/xlink" contentScriptType="application/ecmascript" contentStyleType="text/css" height="305px" preserveAspectRatio="none" style="width:671px;height:305px;" version="1.1" viewBox="0 0 671 305" width="671px" zoomAndPan="magnify"><defs><filter height="300%" id="fr5ss1nsueb4n" width="300%" x="-1" y="-1"><feGaussianBlur result="blurOut" stdDeviation="2.0"/><feColorMatrix in="blurOut" result="blurOut2" type="matrix" values="0 0 0 0 0 0 0 0 0 0 0 0 0 0 0 0 0 0 .4 0"/><feOffset dx="4.0" dy="4.0" in="blurOut2" result="blurOut3"/><feBlend in="SourceGraphic" in2="blurOut3" mode="normal"/></filter></defs><g><text fill="#000000" font-family="sans-serif" font-size="18" lengthAdjust="spacingAndGlyphs" textLength="80" x="286.5" y="16.708">Frontend</text><!--MD5=[834ef74a6aa73a899f9de7987f49a674]
entity _0--><rect fill="#FFFAF0" filter="url(#fr5ss1nsueb4n)" height="46.2969" style="stroke: #000000; stroke-width: 1.5;" width="85" x="67.5" y="133.9531"/><rect fill="#FFFAF0" height="10" style="stroke: #000000; stroke-width: 1.5;" width="15" x="132.5" y="138.9531"/><rect fill="#FFFAF0" height="2" style="stroke: #000000; stroke-width: 1.5;" width="4" x="130.5" y="140.9531"/><rect fill="#FFFAF0" height="2" style="stroke: #000000; stroke-width: 1.5;" width="4" x="130.5" y="144.9531"/><text fill="#000000" font-family="sans-serif" font-size="14" lengthAdjust="spacingAndGlyphs" textLength="45" x="82.5" y="166.9482">Mobile</text><!--MD5=[5793e68b51480d2da18d2edf8802f392]
entity _1--><rect fill="#FFFAF0" filter="url(#fr5ss1nsueb4n)" height="46.2969" style="stroke: #000000; stroke-width: 1.5;" width="138" x="7" y="239.9531"/><rect fill="#FFFAF0" height="10" style="stroke: #000000; stroke-width: 1.5;" width="15" x="125" y="244.9531"/><rect fill="#FFFAF0" height="2" style="stroke: #000000; stroke-width: 1.5;" width="4" x="123" y="246.9531"/><rect fill="#FFFAF0" height="2" style="stroke: #000000; stroke-width: 1.5;" width="4" x="123" y="250.9531"/><text fill="#000000" font-family="sans-serif" font-size="14" lengthAdjust="spacingAndGlyphs" textLength="98" x="22" y="272.9482">ProductServer</text><!--MD5=[fc69c2ef26418c6b4957312aae07cc91]
entity _2--><rect fill="#FFFAF0" filter="url(#fr5ss1nsueb4n)" height="46.2969" style="stroke: #000000; stroke-width: 1.5;" width="123" x="180.5" y="239.9531"/><rect fill="#FFFAF0" height="10" style="stroke: #000000; stroke-width: 1.5;" width="15" x="283.5" y="244.9531"/><rect fill="#FFFAF0" height="2" style="stroke: #000000; stroke-width: 1.5;" width="4" x="281.5" y="246.9531"/><rect fill="#FFFAF0" height="2" style="stroke: #000000; stroke-width: 1.5;" width="4" x="281.5" y="250.9531"/><text fill="#000000" font-family="sans-serif" font-size="14" lengthAdjust="spacingAndGlyphs" textLength="83" x="195.5" y="272.9482">OrderServer</text><!--MD5=[491502b257624c25ed563d7bf73ae0a0]
entity _3--><rect fill="#FFFAF0" filter="url(#fr5ss1nsueb4n)" height="46.2969" style="stroke: #000000; stroke-width: 1.5;" width="96" x="324" y="133.9531"/><rect fill="#FFFAF0" height="10" style="stroke: #000000; stroke-width: 1.5;" width="15" x="400" y="138.9531"/><rect fill="#FFFAF0" height="2" style="stroke: #000000; stroke-width: 1.5;" width="4" x="398" y="140.9531"/><rect fill="#FFFAF0" height="2" style="stroke: #000000; stroke-width: 1.5;" width="4" x="398" y="144.9531"/><text fill="#000000" font-family="sans-serif" font-size="14" lengthAdjust="spacingAndGlyphs" textLength="56" x="339" y="166.9482">Website</text><!--MD5=[e10aba13bcd25b8e2f2c6ecd09c6015a]
entity _4--><rect fill="#FFFAF0" filter="url(#fr5ss1nsueb4n)" height="46.2969" style="stroke: #000000; stroke-width: 1.5;" width="134" x="339" y="239.9531"/><rect fill="#FFFAF0" height="10" style="stroke: #000000; stroke-width: 1.5;" width="15" x="453" y="244.9531"/><rect fill="#FFFAF0" height="2" style="stroke: #000000; stroke-width: 1.5;" width="4" x="451" y="246.9531"/><rect fill="#FFFAF0" height="2" style="stroke: #000000; stroke-width: 1.5;" width="4" x="451" y="250.9531"/><text fill="#000000" font-family="sans-serif" font-size="14" lengthAdjust="spacingAndGlyphs" textLength="94" x="354" y="272.9482">IdentityServer</text><!--MD5=[9e283554f6c225a5c09d9b9f4b518823]
entity _5--><rect fill="#FFFAF0" filter="url(#fr5ss1nsueb4n)" height="46.2969" style="stroke: #000000; stroke-width: 1.5;" width="144" x="508" y="239.9531"/><rect fill="#FFFAF0" height="10" style="stroke: #000000; stroke-width: 1.5;" width="15" x="632" y="244.9531"/><rect fill="#FFFAF0" height="2" style="stroke: #000000; stroke-width: 1.5;" width="4" x="630" y="246.9531"/><rect fill="#FFFAF0" height="2" style="stroke: #000000; stroke-width: 1.5;" width="4" x="630" y="250.9531"/><text fill="#000000" font-family="sans-serif" font-size="14" lengthAdjust="spacingAndGlyphs" textLength="104" x="523" y="272.9482">PaymentServer</text><!--MD5=[91935b7652ee4fab4148391a7b11bd92]
entity _6--><rect fill="#FFFAF0" filter="url(#fr5ss1nsueb4n)" height="46.2969" style="stroke: #000000; stroke-width: 1.5;" width="161" x="29.5" y="27.9531"/><rect fill="#FFFAF0" height="10" style="stroke: #000000; stroke-width: 1.5;" width="15" x="170.5" y="32.9531"/><rect fill="#FFFAF0" height="2" style="stroke: #000000; stroke-width: 1.5;" width="4" x="168.5" y="34.9531"/><rect fill="#FFFAF0" height="2" style="stroke: #000000; stroke-width: 1.5;" width="4" x="168.5" y="38.9531"/><text fill="#000000" font-family="sans-serif" font-size="14" lengthAdjust="spacingAndGlyphs" textLength="121" x="44.5" y="60.9482">Dine-in Customer</text><!--MD5=[298d702d1872fc728c85faa77d789d69]
entity _7--><rect fill="#FFFAF0" filter="url(#fr5ss1nsueb4n)" height="46.2969" style="stroke: #000000; stroke-width: 1.5;" width="156" x="294" y="27.9531"/><rect fill="#FFFAF0" height="10" style="stroke: #000000; stroke-width: 1.5;" width="15" x="430" y="32.9531"/><rect fill="#FFFAF0" height="2" style="stroke: #000000; stroke-width: 1.5;" width="4" x="428" y="34.9531"/><rect fill="#FFFAF0" height="2" style="stroke: #000000; stroke-width: 1.5;" width="4" x="428" y="38.9531"/><text fill="#000000" font-family="sans-serif" font-size="14" lengthAdjust="spacingAndGlyphs" textLength="116" x="309" y="60.9482">Online Customer</text><!--MD5=[b84326987e98dcb917912705a3ef9c62]
link _0 to _1--><path d="M102.6225,179.9535 C97.4896,195.9561 90.6116,217.3992 85.1325,234.4811 " fill="none" id="_0-&gt;_1" style="stroke: #DC143C; stroke-width: 1.0;"/><polygon fill="#DC143C" points="83.4805,239.6315,90.0384,232.2835,85.0078,234.8705,82.4207,229.8399,83.4805,239.6315" style="stroke: #DC143C; stroke-width: 1.0;"/><!--MD5=[0fa3c531946f58762b8ab90cbdfa2c60]
link _0 to _2--><path d="M138.642,179.9535 C159.3428,196.5768 187.3544,219.071 208.9947,236.4488 " fill="none" id="_0-&gt;_2" style="stroke: #DC143C; stroke-width: 1.0;"/><polygon fill="#DC143C" points="212.958,239.6315,208.4452,230.8774,209.0594,236.5008,203.436,237.1151,212.958,239.6315" style="stroke: #DC143C; stroke-width: 1.0;"/><!--MD5=[93ef791431a7b6117d678d1cd8d8ef27]
link _3 to _4--><path d="M379.3775,179.9535 C384.5104,195.9561 391.3884,217.3992 396.8675,234.4811 " fill="none" id="_3-&gt;_4" style="stroke: #DC143C; stroke-width: 1.0;"/><polygon fill="#DC143C" points="398.5195,239.6315,399.5793,229.8399,396.9922,234.8705,391.9616,232.2835,398.5195,239.6315" style="stroke: #DC143C; stroke-width: 1.0;"/><!--MD5=[37cfd5b081b6d21ad2c5815c40d55060]
link _3 to _1--><path d="M323.7837,174.2197 C275.2829,191.5883 200.0209,218.5402 145.1645,238.1847 " fill="none" id="_3-&gt;_1" style="stroke: #DC143C; stroke-width: 1.0;"/><polygon fill="#DC143C" points="140.2547,239.943,150.0764,240.6743,144.9619,238.2572,147.379,233.1427,140.2547,239.943" style="stroke: #DC143C; stroke-width: 1.0;"/><!--MD5=[450ea2f654882f822490fe83b2b538b8]
link _3 to _2--><path d="M343.7919,179.9535 C323.4048,196.5768 295.8176,219.071 274.5053,236.4488 " fill="none" id="_3-&gt;_2" style="stroke: #DC143C; stroke-width: 1.0;"/><polygon fill="#DC143C" points="270.6019,239.6315,280.1048,237.044,274.4769,236.4718,275.0491,230.8439,270.6019,239.6315" style="stroke: #DC143C; stroke-width: 1.0;"/><!--MD5=[6d0ac5e9347bdb5725f48fc0bd3bd7ba]
link _3 to _5--><path d="M417.1329,179.9535 C450.408,196.911 495.6711,219.9778 530.0358,237.4906 " fill="none" id="_3-&gt;_5" style="stroke: #DC143C; stroke-width: 1.0;"/><polygon fill="#DC143C" points="534.5965,239.8148,528.3939,232.1645,530.1416,237.5446,524.7615,239.2923,534.5965,239.8148" style="stroke: #DC143C; stroke-width: 1.0;"/><!--MD5=[9585cf7d1d21c22dd47359ade972c561]
link _6 to _0--><path d="M110,73.9535 C110,89.9561 110,111.3992 110,128.4811 " fill="none" id="_6-&gt;_0" style="stroke: #DC143C; stroke-width: 1.0;"/><polygon fill="#DC143C" points="110,133.6315,114,124.6315,110,128.6315,106,124.6315,110,133.6315" style="stroke: #DC143C; stroke-width: 1.0;"/><!--MD5=[a305417ff70b0b26159d69c3ce20cf46]
link _7 to _3--><path d="M372,73.9535 C372,89.9561 372,111.3992 372,128.4811 " fill="none" id="_7-&gt;_3" style="stroke: #DC143C; stroke-width: 1.0;"/><polygon fill="#DC143C" points="372,133.6315,376,124.6315,372,128.6315,368,124.6315,372,133.6315" style="stroke: #DC143C; stroke-width: 1.0;"/><!--MD5=[f719dce49813d0d7d5b854bd010383e7]
@startuml
''''''''''''''''''''''''''''''''''''''''''
''                                      ''
''  AUTOGENERATED CODE - - DO NOT EDIT!  ''
''                                      ''
''''''''''''''''''''''''''''''''''''''''''


title Frontend
hide stereotype
scale max 16384 height
skinparam component {
  BackgroundColor FloralWhite
  BorderColor Black
  ArrowColor Crimson
}
[Mobile] as _0 <<highlight>>
[ProductServer] as _1
_0 - -> _1
[OrderServer] as _2
_0 - -> _2
[Website] as _3 <<highlight>>
[IdentityServer] as _4
_3 - -> _4
_3 - -> _1
_3 - -> _2
[PaymentServer] as _5
_3 - -> _5
[Dine-in Customer] as _6
_6 - -> _0
[Online Customer] as _7
_7 - -> _3
@enduml

@startuml


title Frontend
hide stereotype
scale max 16384 height
skinparam component {
  BackgroundColor FloralWhite
  BorderColor Black
  ArrowColor Crimson
}
[Mobile] as _0 <<highlight>>
[ProductServer] as _1
_0 - -> _1
[OrderServer] as _2
_0 - -> _2
[Website] as _3 <<highlight>>
[IdentityServer] as _4
_3 - -> _4
_3 - -> _1
_3 - -> _2
[PaymentServer] as _5
_3 - -> _5
[Dine-in Customer] as _6
_6 - -> _0
[Online Customer] as _7
_7 - -> _3
@enduml

PlantUML version 1.2020.15(Sun Jun 28 11:39:45 UTC 2020)
(GPL source distribution)
Java Runtime: OpenJDK Runtime Environment
JVM: OpenJDK 64-Bit Server VM
Default Encoding: UTF-8
Language: en
Country: null
--></g></svg>