<?xml version="1.0" encoding="UTF-8" standalone="no"?><svg xmlns="http://www.w3.org/2000/svg" xmlns:xlink="http://www.w3.org/1999/xlink" contentScriptType="application/ecmascript" contentStyleType="text/css" height="305px" preserveAspectRatio="none" style="width:770px;height:305px;" version="1.1" viewBox="0 0 770 305" width="770px" zoomAndPan="magnify"><defs><filter height="300%" id="fp10dklntd4ha" width="300%" x="-1" y="-1"><feGaussianBlur result="blurOut" stdDeviation="2.0"/><feColorMatrix in="blurOut" result="blurOut2" type="matrix" values="0 0 0 0 0 0 0 0 0 0 0 0 0 0 0 0 0 0 .4 0"/><feOffset dx="4.0" dy="4.0" in="blurOut2" result="blurOut3"/><feBlend in="SourceGraphic" in2="blurOut3" mode="normal"/></filter></defs><g><text fill="#000000" font-family="sans-serif" font-size="18" lengthAdjust="spacingAndGlyphs" textLength="74" x="339" y="16.708">Backend</text><!--MD5=[834ef74a6aa73a899f9de7987f49a674]
entity _0--><rect fill="#FFFAF0" filter="url(#fp10dklntd4ha)" height="46.2969" style="stroke: #000000; stroke-width: 1.5;" width="144" x="106.5" y="133.9531"/><rect fill="#FFFAF0" height="10" style="stroke: #000000; stroke-width: 1.5;" width="15" x="230.5" y="138.9531"/><rect fill="#FFFAF0" height="2" style="stroke: #000000; stroke-width: 1.5;" width="4" x="228.5" y="140.9531"/><rect fill="#FFFAF0" height="2" style="stroke: #000000; stroke-width: 1.5;" width="4" x="228.5" y="144.9531"/><text fill="#000000" font-family="sans-serif" font-size="14" lengthAdjust="spacingAndGlyphs" textLength="104" x="121.5" y="166.9482">PaymentServer</text><!--MD5=[5793e68b51480d2da18d2edf8802f392]
entity _1--><rect fill="#FFFAF0" filter="url(#fp10dklntd4ha)" height="46.2969" style="stroke: #000000; stroke-width: 1.5;" width="68" x="161.5" y="239.9531"/><rect fill="#FFFAF0" height="10" style="stroke: #000000; stroke-width: 1.5;" width="15" x="209.5" y="244.9531"/><rect fill="#FFFAF0" height="2" style="stroke: #000000; stroke-width: 1.5;" width="4" x="207.5" y="246.9531"/><rect fill="#FFFAF0" height="2" style="stroke: #000000; stroke-width: 1.5;" width="4" x="207.5" y="250.9531"/><text fill="#000000" font-family="sans-serif" font-size="14" lengthAdjust="spacingAndGlyphs" textLength="28" x="176.5" y="272.9482">Visa</text><!--MD5=[fc69c2ef26418c6b4957312aae07cc91]
entity _2--><rect fill="#FFFAF0" filter="url(#fp10dklntd4ha)" height="46.2969" style="stroke: #000000; stroke-width: 1.5;" width="119" x="7" y="239.9531"/><rect fill="#FFFAF0" height="10" style="stroke: #000000; stroke-width: 1.5;" width="15" x="106" y="244.9531"/><rect fill="#FFFAF0" height="2" style="stroke: #000000; stroke-width: 1.5;" width="4" x="104" y="246.9531"/><rect fill="#FFFAF0" height="2" style="stroke: #000000; stroke-width: 1.5;" width="4" x="104" y="250.9531"/><text fill="#000000" font-family="sans-serif" font-size="14" lengthAdjust="spacingAndGlyphs" textLength="79" x="22" y="272.9482">MasterCard</text><!--MD5=[491502b257624c25ed563d7bf73ae0a0]
entity _3--><rect fill="#FFFAF0" filter="url(#fp10dklntd4ha)" height="46.2969" style="stroke: #000000; stroke-width: 1.5;" width="134" x="285.5" y="133.9531"/><rect fill="#FFFAF0" height="10" style="stroke: #000000; stroke-width: 1.5;" width="15" x="399.5" y="138.9531"/><rect fill="#FFFAF0" height="2" style="stroke: #000000; stroke-width: 1.5;" width="4" x="397.5" y="140.9531"/><rect fill="#FFFAF0" height="2" style="stroke: #000000; stroke-width: 1.5;" width="4" x="397.5" y="144.9531"/><text fill="#000000" font-family="sans-serif" font-size="14" lengthAdjust="spacingAndGlyphs" textLength="94" x="300.5" y="166.9482">IdentityServer</text><!--MD5=[e10aba13bcd25b8e2f2c6ecd09c6015a]
entity _4--><rect fill="#FFFAF0" filter="url(#fp10dklntd4ha)" height="46.2969" style="stroke: #000000; stroke-width: 1.5;" width="144" x="280.5" y="239.9531"/><rect fill="#FFFAF0" height="10" style="stroke: #000000; stroke-width: 1.5;" width="15" x="404.5" y="244.9531"/><rect fill="#FFFAF0" height="2" style="stroke: #000000; stroke-width: 1.5;" width="4" x="402.5" y="246.9531"/><rect fill="#FFFAF0" height="2" style="stroke: #000000; stroke-width: 1.5;" width="4" x="402.5" y="250.9531"/><text fill="#000000" font-family="sans-serif" font-size="14" lengthAdjust="spacingAndGlyphs" textLength="104" x="295.5" y="272.9482">MegaDatabase</text><!--MD5=[9e283554f6c225a5c09d9b9f4b518823]
entity _5--><rect fill="#FFFAF0" filter="url(#fp10dklntd4ha)" height="46.2969" style="stroke: #000000; stroke-width: 1.5;" width="116" x="120.5" y="27.9531"/><rect fill="#FFFAF0" height="10" style="stroke: #000000; stroke-width: 1.5;" width="15" x="216.5" y="32.9531"/><rect fill="#FFFAF0" height="2" style="stroke: #000000; stroke-width: 1.5;" width="4" x="214.5" y="34.9531"/><rect fill="#FFFAF0" height="2" style="stroke: #000000; stroke-width: 1.5;" width="4" x="214.5" y="38.9531"/><text fill="#000000" font-family="sans-serif" font-size="14" lengthAdjust="spacingAndGlyphs" textLength="76" x="135.5" y="60.9482">Dashboard</text><!--MD5=[91935b7652ee4fab4148391a7b11bd92]
entity _6--><rect fill="#FFFAF0" filter="url(#fp10dklntd4ha)" height="46.2969" style="stroke: #000000; stroke-width: 1.5;" width="85" x="564" y="27.9531"/><rect fill="#FFFAF0" height="10" style="stroke: #000000; stroke-width: 1.5;" width="15" x="629" y="32.9531"/><rect fill="#FFFAF0" height="2" style="stroke: #000000; stroke-width: 1.5;" width="4" x="627" y="34.9531"/><rect fill="#FFFAF0" height="2" style="stroke: #000000; stroke-width: 1.5;" width="4" x="627" y="38.9531"/><text fill="#000000" font-family="sans-serif" font-size="14" lengthAdjust="spacingAndGlyphs" textLength="45" x="579" y="60.9482">Mobile</text><!--MD5=[298d702d1872fc728c85faa77d789d69]
entity _7--><rect fill="#FFFAF0" filter="url(#fp10dklntd4ha)" height="46.2969" style="stroke: #000000; stroke-width: 1.5;" width="138" x="454.5" y="133.9531"/><rect fill="#FFFAF0" height="10" style="stroke: #000000; stroke-width: 1.5;" width="15" x="572.5" y="138.9531"/><rect fill="#FFFAF0" height="2" style="stroke: #000000; stroke-width: 1.5;" width="4" x="570.5" y="140.9531"/><rect fill="#FFFAF0" height="2" style="stroke: #000000; stroke-width: 1.5;" width="4" x="570.5" y="144.9531"/><text fill="#000000" font-family="sans-serif" font-size="14" lengthAdjust="spacingAndGlyphs" textLength="98" x="469.5" y="166.9482">ProductServer</text><!--MD5=[44fe721b4d4a777d892a0da9deb1717d]
entity _8--><rect fill="#FFFAF0" filter="url(#fp10dklntd4ha)" height="46.2969" style="stroke: #000000; stroke-width: 1.5;" width="123" x="628" y="133.9531"/><rect fill="#FFFAF0" height="10" style="stroke: #000000; stroke-width: 1.5;" width="15" x="731" y="138.9531"/><rect fill="#FFFAF0" height="2" style="stroke: #000000; stroke-width: 1.5;" width="4" x="729" y="140.9531"/><rect fill="#FFFAF0" height="2" style="stroke: #000000; stroke-width: 1.5;" width="4" x="729" y="144.9531"/><text fill="#000000" font-family="sans-serif" font-size="14" lengthAdjust="spacingAndGlyphs" textLength="83" x="643" y="166.9482">OrderServer</text><!--MD5=[11856a0957c24329d384e205f38b26b0]
entity _9--><rect fill="#FFFAF0" filter="url(#fp10dklntd4ha)" height="46.2969" style="stroke: #000000; stroke-width: 1.5;" width="96" x="326.5" y="27.9531"/><rect fill="#FFFAF0" height="10" style="stroke: #000000; stroke-width: 1.5;" width="15" x="402.5" y="32.9531"/><rect fill="#FFFAF0" height="2" style="stroke: #000000; stroke-width: 1.5;" width="4" x="400.5" y="34.9531"/><rect fill="#FFFAF0" height="2" style="stroke: #000000; stroke-width: 1.5;" width="4" x="400.5" y="38.9531"/><text fill="#000000" font-family="sans-serif" font-size="14" lengthAdjust="spacingAndGlyphs" textLength="56" x="341.5" y="60.9482">Website</text><!--MD5=[b84326987e98dcb917912705a3ef9c62]
link _0 to _1--><path d="M182.1887,179.9535 C184.7552,195.9561 188.1942,217.3992 190.9337,234.4811 " fill="none" id="_0-&gt;_1" style="stroke: #DC143C; stroke-width: 1.0;"/><polygon fill="#DC143C" points="191.7597,239.6315,194.2839,230.1116,190.9678,234.6946,186.3848,231.3786,191.7597,239.6315" style="stroke: #DC143C; stroke-width: 1.0;"/><!--MD5=[0fa3c531946f58762b8ab90cbdfa2c60]
link _0 to _2--><path d="M154.1977,179.9535 C136.852,196.3699 113.4567,218.5119 95.1927,235.7975 " fill="none" id="_0-&gt;_2" style="stroke: #DC143C; stroke-width: 1.0;"/><polygon fill="#DC143C" points="91.1417,239.6315,100.4279,236.3503,94.7732,236.1946,94.9288,230.5399,91.1417,239.6315" style="stroke: #DC143C; stroke-width: 1.0;"/><!--MD5=[93ef791431a7b6117d678d1cd8d8ef27]
link _3 to _4--><path d="M352.5,179.9535 C352.5,195.9561 352.5,217.3992 352.5,234.4811 " fill="none" id="_3-&gt;_4" style="stroke: #DC143C; stroke-width: 1.0;"/><polygon fill="#DC143C" points="352.5,239.6315,356.5,230.6315,352.5,234.6315,348.5,230.6315,352.5,239.6315" style="stroke: #DC143C; stroke-width: 1.0;"/><!--MD5=[d4654c54feb3981cfc6680d91eccfd0c]
link _5 to _0--><path d="M178.5,73.9535 C178.5,89.9561 178.5,111.3992 178.5,128.4811 " fill="none" id="_5-&gt;_0" style="stroke: #DC143C; stroke-width: 1.0;"/><polygon fill="#DC143C" points="178.5,133.6315,182.5,124.6315,178.5,128.6315,174.5,124.6315,178.5,133.6315" style="stroke: #DC143C; stroke-width: 1.0;"/><!--MD5=[a95ccebab27d805ca2570b1585a03a39]
link _6 to _7--><path d="M588.4902,73.9535 C575.7439,90.232 558.5893,112.1402 545.1054,129.3607 " fill="none" id="_6-&gt;_7" style="stroke: #DC143C; stroke-width: 1.0;"/><polygon fill="#DC143C" points="541.7612,133.6315,550.4591,129.0113,544.8437,129.6948,544.1603,124.0793,541.7612,133.6315" style="stroke: #DC143C; stroke-width: 1.0;"/><!--MD5=[b98b025d6c536a7f26cfa45310a3f1f3]
link _6 to _8--><path d="M624.5098,73.9535 C637.2561,90.232 654.4107,112.1402 667.8946,129.3607 " fill="none" id="_6-&gt;_8" style="stroke: #DC143C; stroke-width: 1.0;"/><polygon fill="#DC143C" points="671.2388,133.6315,668.8397,124.0793,668.1563,129.6948,662.5409,129.0113,671.2388,133.6315" style="stroke: #DC143C; stroke-width: 1.0;"/><!--MD5=[ba6b2ddf8f73b79ebac92cf65f82987c]
link _9 to _3--><path d="M369.7263,73.9535 C366.405,89.9561 361.9546,111.3992 358.4093,128.4811 " fill="none" id="_9-&gt;_3" style="stroke: #DC143C; stroke-width: 1.0;"/><polygon fill="#DC143C" points="357.3403,133.6315,363.0859,125.6322,358.3564,128.7359,355.2528,124.0064,357.3403,133.6315" style="stroke: #DC143C; stroke-width: 1.0;"/><!--MD5=[980e23bd63edb9ba29c096c13c23f6fb]
link _9 to _7--><path d="M406.8308,73.9535 C430.3754,90.7034 462.2986,113.4138 486.8005,130.8448 " fill="none" id="_9-&gt;_7" style="stroke: #DC143C; stroke-width: 1.0;"/><polygon fill="#DC143C" points="490.9754,133.8148,485.9605,125.3383,486.9012,130.9164,481.3231,131.8571,490.9754,133.8148" style="stroke: #DC143C; stroke-width: 1.0;"/><!--MD5=[c6701b45e5593f743f3ddfb627fefd79]
link _9 to _8--><path d="M422.6846,67.1676 C476.1595,85.1623 562.8093,114.3207 622.7868,134.5036 " fill="none" id="_9-&gt;_8" style="stroke: #DC143C; stroke-width: 1.0;"/><polygon fill="#DC143C" points="627.7805,136.184,620.5263,129.5224,623.0416,134.5893,617.9748,137.1046,627.7805,136.184" style="stroke: #DC143C; stroke-width: 1.0;"/><!--MD5=[c6fa416527323d829d6b3db489aca473]
link _9 to _0--><path d="M331.9709,73.9535 C300.7435,90.8418 258.3117,113.7896 225.9787,131.2758 " fill="none" id="_9-&gt;_0" style="stroke: #DC143C; stroke-width: 1.0;"/><polygon fill="#DC143C" points="221.2841,133.8148,231.1034,133.0518,225.6821,131.4363,227.2976,126.015,221.2841,133.8148" style="stroke: #DC143C; stroke-width: 1.0;"/><!--MD5=[3429bf075d35a239dea23401f7515637]
@startuml
''''''''''''''''''''''''''''''''''''''''''
''                                      ''
''  AUTOGENERATED CODE - - DO NOT EDIT!  ''
''                                      ''
''''''''''''''''''''''''''''''''''''''''''


title Backend
hide stereotype
scale max 16384 height
skinparam component {
  BackgroundColor FloralWhite
  BorderColor Black
  ArrowColor Crimson
}
[PaymentServer] as _0 <<highlight>>
[Visa] as _1
_0 - -> _1
[MasterCard] as _2
_0 - -> _2
[IdentityServer] as _3 <<highlight>>
[MegaDatabase] as _4 <<highlight>>
_3 - -> _4
[Dashboard] as _5
_5 - -> _0
[Mobile] as _6
[ProductServer] as _7 <<highlight>>
_6 - -> _7
[OrderServer] as _8 <<highlight>>
_6 - -> _8
[Website] as _9
_9 - -> _3
_9 - -> _7
_9 - -> _8
_9 - -> _0
@enduml

@startuml


title Backend
hide stereotype
scale max 16384 height
skinparam component {
  BackgroundColor FloralWhite
  BorderColor Black
  ArrowColor Crimson
}
[PaymentServer] as _0 <<highlight>>
[Visa] as _1
_0 - -> _1
[MasterCard] as _2
_0 - -> _2
[IdentityServer] as _3 <<highlight>>
[MegaDatabase] as _4 <<highlight>>
_3 - -> _4
[Dashboard] as _5
_5 - -> _0
[Mobile] as _6
[ProductServer] as _7 <<highlight>>
_6 - -> _7
[OrderServer] as _8 <<highlight>>
_6 - -> _8
[Website] as _9
_9 - -> _3
_9 - -> _7
_9 - -> _8
_9 - -> _0
@enduml

PlantUML version 1.2020.15(Sun Jun 28 11:39:45 UTC 2020)
(GPL source distribution)
Java Runtime: OpenJDK Runtime Environment
JVM: OpenJDK 64-Bit Server VM
Default Encoding: UTF-8
Language: en
Country: null
--></g></svg>