<?xml version="1.0" encoding="UTF-8" standalone="no"?><svg xmlns="http://www.w3.org/2000/svg" xmlns:xlink="http://www.w3.org/1999/xlink" contentScriptType="application/ecmascript" contentStyleType="text/css" height="78px" preserveAspectRatio="none" style="width:235px;height:78px;" version="1.1" viewBox="0 0 235 78" width="235px" zoomAndPan="magnify"><defs><filter height="300%" id="f98d4y5h6unkn" width="300%" x="-1" y="-1"><feGaussianBlur result="blurOut" stdDeviation="2.0"/><feColorMatrix in="blurOut" result="blurOut2" type="matrix" values="0 0 0 0 0 0 0 0 0 0 0 0 0 0 0 0 0 0 .4 0"/><feOffset dx="4.0" dy="4.0" in="blurOut2" result="blurOut3"/><feBlend in="SourceGraphic" in2="blurOut3" mode="normal"/></filter></defs><g><!--MD5=[f77682fd75c3e1fc6a82f566c0814d0f]
class _0--><rect fill="#FEFECE" filter="url(#f98d4y5h6unkn)" height="60.8047" id="_0" style="stroke: #A80036; stroke-width: 1.5;" width="217" x="7" y="7"/><ellipse cx="85.25" cy="23" fill="#DA70D6" rx="11" ry="11" style="stroke: #A80036; stroke-width: 1.0;"/><path d="M84.8438,18.8125 L84.8438,26.7969 L85.5,26.7969 Q86.9375,26.7969 87.5547,25.8828 Q88.1719,24.9688 88.1719,22.7969 Q88.1719,20.625 87.5547,19.7188 Q86.9375,18.8125 85.5,18.8125 L84.8438,18.8125 Z M82.3906,16.6094 L85.0156,16.6094 Q88.0469,16.6094 89.3828,18.0547 Q90.7188,19.5 90.7188,22.7969 Q90.7188,26.0938 89.3828,27.5469 Q88.0469,29 85.0156,29 L82.3906,29 L82.3906,16.6094 Z "/><text fill="#000000" font-family="sans-serif" font-size="12" lengthAdjust="spacingAndGlyphs" textLength="52" x="105.75" y="27.1543">Request</text><line style="stroke: #A80036; stroke-width: 1.5;" x1="8" x2="223" y1="39" y2="39"/><ellipse cx="18" cy="50" fill="none" rx="3" ry="3" style="stroke: #038048; stroke-width: 1.0;"/><text fill="#000000" font-family="sans-serif" font-size="11" lengthAdjust="spacingAndGlyphs" textLength="40" x="27" y="53.2104">query :</text><text fill="#000000" font-family="sans-serif" font-size="11" font-weight="bold" lengthAdjust="spacingAndGlyphs" textLength="147" x="71" y="53.2104">Sequence &lt;Response&gt;</text><line style="stroke: #A80036; stroke-width: 1.5;" x1="8" x2="223" y1="59.8047" y2="59.8047"/><!--MD5=[5ef3927197d008e45b13bd87cf1b14cc]
@startuml

class "Request" as _0 << (D,orchid) >> {
+ query : **Sequence <Response>**
}
@enduml

PlantUML version 1.2019.11(Sun Sep 22 10:02:15 UTC 2019)
(GPL source distribution)
Java Runtime: OpenJDK Runtime Environment
JVM: OpenJDK 64-Bit Server VM
Java Version: 1.8.0_222-b10
Operating System: Linux
Default Encoding: UTF-8
Language: en
Country: null
--></g></svg>