<?xml version="1.0" encoding="UTF-8" standalone="no"?><svg xmlns="http://www.w3.org/2000/svg" xmlns:xlink="http://www.w3.org/1999/xlink" contentScriptType="application/ecmascript" contentStyleType="text/css" height="66px" preserveAspectRatio="none" style="width:183px;height:66px;" version="1.1" viewBox="0 0 183 66" width="183px" zoomAndPan="magnify"><defs><filter height="300%" id="f1ldkouqk47lji" width="300%" x="-1" y="-1"><feGaussianBlur result="blurOut" stdDeviation="2.0"/><feColorMatrix in="blurOut" result="blurOut2" type="matrix" values="0 0 0 0 0 0 0 0 0 0 0 0 0 0 0 0 0 0 .4 0"/><feOffset dx="4.0" dy="4.0" in="blurOut2" result="blurOut3"/><feBlend in="SourceGraphic" in2="blurOut3" mode="normal"/></filter></defs><g><!--MD5=[f77682fd75c3e1fc6a82f566c0814d0f]
class _0--><rect fill="#FEFECE" filter="url(#f1ldkouqk47lji)" height="48" id="_0" style="stroke: #A80036; stroke-width: 1.5;" width="165" x="7" y="7"/><ellipse cx="22" cy="23" fill="#DA70D6" rx="11" ry="11" style="stroke: #A80036; stroke-width: 1.0;"/><path d="M21.5938,18.8125 L21.5938,26.7969 L22.25,26.7969 Q23.6875,26.7969 24.3047,25.8828 Q24.9219,24.9688 24.9219,22.7969 Q24.9219,20.625 24.3047,19.7188 Q23.6875,18.8125 22.25,18.8125 L21.5938,18.8125 Z M19.1406,16.6094 L21.7656,16.6094 Q24.7969,16.6094 26.1328,18.0547 Q27.4688,19.5 27.4688,22.7969 Q27.4688,26.0938 26.1328,27.5469 Q24.7969,29 21.7656,29 L19.1406,29 L19.1406,16.6094 Z "/><text fill="#000000" font-family="sans-serif" font-size="12" lengthAdjust="spacingAndGlyphs" textLength="133" x="36" y="27.1543">MegaDatabaseEmpty</text><line style="stroke: #A80036; stroke-width: 1.5;" x1="8" x2="171" y1="39" y2="39"/><line style="stroke: #A80036; stroke-width: 1.5;" x1="8" x2="171" y1="47" y2="47"/><!--MD5=[77ee34843a98942e801716da428e1fd2]
@startuml

class "MegaDatabaseEmpty" as _0<< (D,orchid) >> {
}
@enduml

PlantUML version 1.2019.11(Sun Sep 22 10:02:15 UTC 2019)
(GPL source distribution)
Java Runtime: OpenJDK Runtime Environment
JVM: OpenJDK 64-Bit Server VM
Java Version: 1.8.0_222-b10
Operating System: Linux
Default Encoding: UTF-8
Language: en
Country: null
--></g></svg>
