<?xml version="1.0" encoding="UTF-8" standalone="no"?><svg xmlns="http://www.w3.org/2000/svg" xmlns:xlink="http://www.w3.org/1999/xlink" contentScriptType="application/ecmascript" contentStyleType="text/css" height="74px" preserveAspectRatio="none" style="width:185px;height:74px;" version="1.1" viewBox="0 0 185 74" width="185px" zoomAndPan="magnify"><defs><filter height="300%" id="f1ldkouqk47lji" width="300%" x="-1" y="-1"><feGaussianBlur result="blurOut" stdDeviation="2.0"/><feColorMatrix in="blurOut" result="blurOut2" type="matrix" values="0 0 0 0 0 0 0 0 0 0 0 0 0 0 0 0 0 0 .4 0"/><feOffset dx="4.0" dy="4.0" in="blurOut2" result="blurOut3"/><feBlend in="SourceGraphic" in2="blurOut3" mode="normal"/></filter></defs><g><!--MD5=[f77682fd75c3e1fc6a82f566c0814d0f]
class _0--><rect fill="#FEFECE" filter="url(#f1ldkouqk47lji)" height="48" id="_0" style="stroke: #A80036; stroke-width: 1.5;" width="159" x="7" y="7"/><ellipse cx="22" cy="23" fill="#DA70D6" rx="11" ry="11" style="stroke: #A80036; stroke-width: 1.0;"/><path d="M19.5156,26.2969 C18.8594,26.2969 18.4688,26.6094 18.4688,27.1563 C18.4688,27.4063 18.6094,27.6719 18.8281,27.8281 C18.9844,27.9531 19.2031,28 19.6094,28 L23.0781,28 C24.5625,28 25.5781,27.6094 26.4063,26.7188 C27.1875,25.9063 27.5938,24.8594 27.5938,23.6094 L27.5938,22.8125 C27.5938,20.1406 25.7031,18.0938 23.2188,18.0938 L19.6094,18.0938 C19.1563,18.0938 19.0313,18.1094 18.875,18.2031 C18.625,18.3594 18.4688,18.6563 18.4688,18.9375 C18.4688,19.4844 18.8438,19.7813 19.5156,19.7813 L19.5156,26.2969 Z M21.2031,26.2969 L21.2031,19.7813 L23.0781,19.7813 C23.9844,19.7813 24.625,20.0625 25.1406,20.6563 C25.625,21.2344 25.9063,21.9844 25.9063,22.7813 L25.9063,23.5625 C25.9063,24.4375 25.6719,25.0313 25.2031,25.5469 C24.6719,26.0938 24.1094,26.2969 23.0938,26.2969 L21.2031,26.2969 Z "/><text fill="#000000" font-family="sans-serif" font-size="12" lengthAdjust="spacingAndGlyphs" textLength="127" x="36" y="27.1543">MegaDatabaseEmpty</text><line style="stroke: #A80036; stroke-width: 1.5;" x1="8" x2="165" y1="39" y2="39"/><line style="stroke: #A80036; stroke-width: 1.5;" x1="8" x2="165" y1="47" y2="47"/><!--MD5=[57149baa3d8ca6de96d0816da134622b]
@startuml
''''''''''''''''''''''''''''''''''''''''''
''                                      ''
''  AUTOGENERATED CODE - - DO NOT EDIT!  ''
''                                      ''
''''''''''''''''''''''''''''''''''''''''''

class "MegaDatabaseEmpty" as _0<< (D,orchid) >> {
}
@enduml

@startuml

class "MegaDatabaseEmpty" as _0<< (D,orchid) >> {
}
@enduml

PlantUML version 1.2020.16beta1(Unknown compile time)
(GPL source distribution)
Java Runtime: Java(TM) SE Runtime Environment
JVM: Java HotSpot(TM) 64-Bit Server VM
Default Encoding: UTF-8
Language: en
Country: US
--></g></svg>