<?xml version="1.0" encoding="UTF-8" standalone="no"?><svg xmlns="http://www.w3.org/2000/svg" xmlns:xlink="http://www.w3.org/1999/xlink" contentScriptType="application/ecmascript" contentStyleType="text/css" height="92px" preserveAspectRatio="none" style="width:121px;height:92px;" version="1.1" viewBox="0 0 121 92" width="121px" zoomAndPan="magnify"><defs><filter height="300%" id="fy0dj18fma2vx" width="300%" x="-1" y="-1"><feGaussianBlur result="blurOut" stdDeviation="2.0"/><feColorMatrix in="blurOut" result="blurOut2" type="matrix" values="0 0 0 0 0 0 0 0 0 0 0 0 0 0 0 0 0 0 .4 0"/><feOffset dx="4.0" dy="4.0" in="blurOut2" result="blurOut3"/><feBlend in="SourceGraphic" in2="blurOut3" mode="normal"/></filter></defs><g><!--MD5=[f77682fd75c3e1fc6a82f566c0814d0f]
class _0--><rect fill="#FEFECE" filter="url(#fy0dj18fma2vx)" height="66.7422" id="_0" style="stroke: #A80036; stroke-width: 1.5;" width="95" x="7" y="7"/><ellipse cx="27.85" cy="25.9688" fill="#DA70D6" rx="11" ry="11" style="stroke: #A80036; stroke-width: 1.0;"/><path d="M27.4438,21.7813 L27.4438,29.7656 L28.1,29.7656 Q29.5375,29.7656 30.1469,28.8594 Q30.7719,27.9375 30.7719,25.7656 Q30.7719,23.5938 30.1469,22.6875 Q29.5375,21.7813 28.1,21.7813 L27.4438,21.7813 Z M24.9906,19.5781 L27.6156,19.5781 Q30.6469,19.5781 31.975,21.0313 Q33.3188,22.4688 33.3188,25.7656 Q33.3188,29.0625 31.975,30.5156 Q30.6469,31.9688 27.6156,31.9688 L24.9906,31.9688 L24.9906,19.5781 Z "/><text fill="#000000" font-family="sans-serif" font-size="12" font-style="italic" lengthAdjust="spacingAndGlyphs" textLength="54" x="41.15" y="23.1387">«Money»</text><text fill="#000000" font-family="sans-serif" font-size="12" lengthAdjust="spacingAndGlyphs" textLength="40" x="48.15" y="37.1074">Money</text><line style="stroke: #A80036; stroke-width: 1.5;" x1="8" x2="101" y1="44.9375" y2="44.9375"/><ellipse cx="18" cy="55.9375" fill="none" rx="3" ry="3" style="stroke: #038048; stroke-width: 1.0;"/><text fill="#000000" font-family="sans-serif" font-size="11" lengthAdjust="spacingAndGlyphs" textLength="69" x="27" y="59.1479">amount : int</text><line style="stroke: #A80036; stroke-width: 1.5;" x1="8" x2="101" y1="65.7422" y2="65.7422"/><!--MD5=[2032ac4007d5323f67a3afcbd9b737e7]
@startuml
''''''''''''''''''''''''''''''''''''''''''
''                                      ''
''  AUTOGENERATED CODE - - DO NOT EDIT!  ''
''                                      ''
''''''''''''''''''''''''''''''''''''''''''

class "Money" as _0 << (D,orchid) Money >> {
+ amount : int
}
@enduml

@startuml

class "Money" as _0 << (D,orchid) Money >> {
+ amount : int
}
@enduml

PlantUML version 1.2020.15(Sun Jun 28 11:39:45 UTC 2020)
(GPL source distribution)
Java Runtime: OpenJDK Runtime Environment
JVM: OpenJDK 64-Bit Server VM
Default Encoding: UTF-8
Language: en
Country: null
--></g></svg>