<?xml version="1.0" encoding="UTF-8" standalone="no"?><svg xmlns="http://www.w3.org/2000/svg" xmlns:xlink="http://www.w3.org/1999/xlink" contentScriptType="application/ecmascript" contentStyleType="text/css" height="78px" preserveAspectRatio="none" style="width:108px;height:78px;" version="1.1" viewBox="0 0 108 78" width="108px" zoomAndPan="magnify"><defs><filter height="300%" id="frgg4tfif85ct" width="300%" x="-1" y="-1"><feGaussianBlur result="blurOut" stdDeviation="2.0"/><feColorMatrix in="blurOut" result="blurOut2" type="matrix" values="0 0 0 0 0 0 0 0 0 0 0 0 0 0 0 0 0 0 .4 0"/><feOffset dx="4.0" dy="4.0" in="blurOut2" result="blurOut3"/><feBlend in="SourceGraphic" in2="blurOut3" mode="normal"/></filter></defs><g><!--MD5=[f77682fd75c3e1fc6a82f566c0814d0f]
class _0--><rect fill="#FEFECE" filter="url(#frgg4tfif85ct)" height="60.9551" id="_0" style="stroke: #A80036; stroke-width: 1.5;" width="90" x="7" y="7"/><ellipse cx="31.45" cy="23" fill="#DA70D6" rx="11" ry="11" style="stroke: #A80036; stroke-width: 1.0;"/><path d="M30.5359,19.3149 L30.5359,27.292 L31.2,27.292 Q32.6443,27.292 33.2586,26.3831 Q33.8729,25.4741 33.8729,23.291 Q33.8729,21.1245 33.2586,20.2197 Q32.6443,19.3149 31.2,19.3149 Z M28.0872,17.1069 L30.7103,17.1069 Q33.7483,17.1069 35.0848,18.5554 Q36.4212,20.0039 36.4212,23.291 Q36.4212,26.5864 35.0848,28.0432 Q33.7483,29.5 30.7103,29.5 L28.0872,29.5 Z "/><text fill="#000000" font-family="sans-serif" font-size="12" lengthAdjust="spacingAndGlyphs" textLength="37" x="47.55" y="27.5352">Money</text><line style="stroke: #A80036; stroke-width: 1.5;" x1="8" x2="96" y1="39" y2="39"/><ellipse cx="18" cy="50" fill="none" rx="3" ry="3" style="stroke: #038048; stroke-width: 1.0;"/><text fill="#000000" font-family="sans-serif" font-size="11" lengthAdjust="spacingAndGlyphs" textLength="64" x="27" y="53.6348">amount : int</text><line style="stroke: #A80036; stroke-width: 1.5;" x1="8" x2="96" y1="59.9551" y2="59.9551"/><!--MD5=[ff47b9a352aac37f9d3cc6edecab9e66]
@startuml
''''''''''''''''''''''''''''''''''''''''''
''                                      ''
''  AUTOGENERATED CODE - - DO NOT EDIT!  ''
''                                      ''
''''''''''''''''''''''''''''''''''''''''''

class "Money" as _0 << (D,orchid) >> {
+ amount : int
}
@enduml

@startuml

class "Money" as _0 << (D,orchid) >> {
+ amount : int
}
@enduml

PlantUML version 1.2020.10(Sun May 17 19:35:57 AEST 2020)
(GPL source distribution)
Java Runtime: Java(TM) SE Runtime Environment
JVM: Java HotSpot(TM) 64-Bit Server VM
Java Version: 13.0.1+9
Operating System: Mac OS X
Default Encoding: UTF-8
Language: en
Country: AU
--></g></svg>