<?xml version="1.0" encoding="UTF-8" standalone="no"?><svg xmlns="http://www.w3.org/2000/svg" xmlns:xlink="http://www.w3.org/1999/xlink" contentScriptType="application/ecmascript" contentStyleType="text/css" height="92px" preserveAspectRatio="none" style="width:120px;height:92px;" version="1.1" viewBox="0 0 120 92" width="120px" zoomAndPan="magnify"><defs><filter height="300%" id="fy0dj18fma2vx" width="300%" x="-1" y="-1"><feGaussianBlur result="blurOut" stdDeviation="2.0"/><feColorMatrix in="blurOut" result="blurOut2" type="matrix" values="0 0 0 0 0 0 0 0 0 0 0 0 0 0 0 0 0 0 .4 0"/><feOffset dx="4.0" dy="4.0" in="blurOut2" result="blurOut3"/><feBlend in="SourceGraphic" in2="blurOut3" mode="normal"/></filter></defs><g><!--MD5=[f77682fd75c3e1fc6a82f566c0814d0f]
class _0--><rect fill="#FEFECE" filter="url(#fy0dj18fma2vx)" height="66.7422" id="_0" style="stroke: #A80036; stroke-width: 1.5;" width="94" x="7" y="7"/><ellipse cx="27.85" cy="25.9688" fill="#DA70D6" rx="11" ry="11" style="stroke: #A80036; stroke-width: 1.0;"/><path d="M25.3656,29.2656 C24.7094,29.2656 24.3188,29.5781 24.3188,30.125 C24.3188,30.375 24.4594,30.6406 24.6781,30.7969 C24.8344,30.9219 25.0531,30.9688 25.4594,30.9688 L28.9281,30.9688 C30.4125,30.9688 31.4281,30.5781 32.2563,29.6875 C33.0375,28.875 33.4438,27.8281 33.4438,26.5781 L33.4438,25.7813 C33.4438,23.1094 31.5531,21.0625 29.0688,21.0625 L25.4594,21.0625 C25.0063,21.0625 24.8813,21.0781 24.725,21.1719 C24.475,21.3281 24.3188,21.625 24.3188,21.9063 C24.3188,22.4531 24.6938,22.75 25.3656,22.75 L25.3656,29.2656 Z M27.0531,29.2656 L27.0531,22.75 L28.9281,22.75 C29.8344,22.75 30.475,23.0313 30.9906,23.625 C31.475,24.2031 31.7563,24.9531 31.7563,25.75 L31.7563,26.5313 C31.7563,27.4063 31.5219,28 31.0531,28.5156 C30.5219,29.0625 29.9594,29.2656 28.9438,29.2656 L27.0531,29.2656 Z "/><text fill="#000000" font-family="sans-serif" font-size="12" font-style="italic" lengthAdjust="spacingAndGlyphs" textLength="53" x="41.15" y="23.1387">«Money»</text><text fill="#000000" font-family="sans-serif" font-size="12" lengthAdjust="spacingAndGlyphs" textLength="40" x="47.65" y="37.1074">Money</text><line style="stroke: #A80036; stroke-width: 1.5;" x1="8" x2="100" y1="44.9375" y2="44.9375"/><ellipse cx="18" cy="55.9375" fill="none" rx="3" ry="3" style="stroke: #038048; stroke-width: 1.0;"/><text fill="#000000" font-family="sans-serif" font-size="11" lengthAdjust="spacingAndGlyphs" textLength="68" x="27" y="59.1479">amount : int</text><line style="stroke: #A80036; stroke-width: 1.5;" x1="8" x2="100" y1="65.7422" y2="65.7422"/><!--MD5=[6f8e56f99e36e024a6f38f90ca7f95a2]
@startuml
''''''''''''''''''''''''''''''''''''''''''
''                                      ''
''  AUTOGENERATED CODE - - DO NOT EDIT!  ''
''                                      ''
''''''''''''''''''''''''''''''''''''''''''

class "Money" as _0 << (D,orchid) Money >> {
+ amount : int
}
@enduml

@startuml

class "Money" as _0 << (D,orchid) Money >> {
+ amount : int
}
@enduml

PlantUML version 1.2020.16beta1(Unknown compile time)
(GPL source distribution)
Java Runtime: Java(TM) SE Runtime Environment
JVM: Java HotSpot(TM) 64-Bit Server VM
Default Encoding: UTF-8
Language: en
Country: US
--></g></svg>