<?xml version="1.0" encoding="UTF-8" standalone="no"?><svg xmlns="http://www.w3.org/2000/svg" xmlns:xlink="http://www.w3.org/1999/xlink" contentScriptType="application/ecmascript" contentStyleType="text/css" height="86px" preserveAspectRatio="none" style="width:120px;height:86px;" version="1.1" viewBox="0 0 120 86" width="120px" zoomAndPan="magnify"><defs><filter height="300%" id="frgg4tfif85ct" width="300%" x="-1" y="-1"><feGaussianBlur result="blurOut" stdDeviation="2.0"/><feColorMatrix in="blurOut" result="blurOut2" type="matrix" values="0 0 0 0 0 0 0 0 0 0 0 0 0 0 0 0 0 0 .4 0"/><feOffset dx="4.0" dy="4.0" in="blurOut2" result="blurOut3"/><feBlend in="SourceGraphic" in2="blurOut3" mode="normal"/></filter></defs><g><!--MD5=[f77682fd75c3e1fc6a82f566c0814d0f]
class _0--><rect fill="#FEFECE" filter="url(#frgg4tfif85ct)" height="60.8047" id="_0" style="stroke: #A80036; stroke-width: 1.5;" width="94" x="7" y="7"/><ellipse cx="31.9" cy="23" fill="#DA70D6" rx="11" ry="11" style="stroke: #A80036; stroke-width: 1.0;"/><path d="M29.4156,26.2969 C28.7594,26.2969 28.3688,26.6094 28.3688,27.1563 C28.3688,27.4063 28.5094,27.6719 28.7281,27.8281 C28.8844,27.9531 29.1031,28 29.5094,28 L32.9781,28 C34.4625,28 35.4781,27.6094 36.3063,26.7188 C37.0875,25.9063 37.4938,24.8594 37.4938,23.6094 L37.4938,22.8125 C37.4938,20.1406 35.6031,18.0938 33.1188,18.0938 L29.5094,18.0938 C29.0563,18.0938 28.9313,18.1094 28.775,18.2031 C28.525,18.3594 28.3688,18.6563 28.3688,18.9375 C28.3688,19.4844 28.7438,19.7813 29.4156,19.7813 L29.4156,26.2969 Z M31.1031,26.2969 L31.1031,19.7813 L32.9781,19.7813 C33.8844,19.7813 34.525,20.0625 35.0406,20.6563 C35.525,21.2344 35.8063,21.9844 35.8063,22.7813 L35.8063,23.5625 C35.8063,24.4375 35.5719,25.0313 35.1031,25.5469 C34.5719,26.0938 34.0094,26.2969 32.9938,26.2969 L31.1031,26.2969 Z "/><text fill="#000000" font-family="sans-serif" font-size="12" lengthAdjust="spacingAndGlyphs" textLength="40" x="48.1" y="27.1543">Money</text><line style="stroke: #A80036; stroke-width: 1.5;" x1="8" x2="100" y1="39" y2="39"/><ellipse cx="18" cy="50" fill="none" rx="3" ry="3" style="stroke: #038048; stroke-width: 1.0;"/><text fill="#000000" font-family="sans-serif" font-size="11" lengthAdjust="spacingAndGlyphs" textLength="68" x="27" y="53.2104">amount : int</text><line style="stroke: #A80036; stroke-width: 1.5;" x1="8" x2="100" y1="59.8047" y2="59.8047"/><!--MD5=[5eff16d7aa919bd60cc708ff2e2889c5]
@startuml
''''''''''''''''''''''''''''''''''''''''''
''                                      ''
''  AUTOGENERATED CODE - - DO NOT EDIT!  ''
''                                      ''
''''''''''''''''''''''''''''''''''''''''''

class "Money" as _0 << (D,orchid) >> {
+ amount : int
}
@enduml

@startuml

class "Money" as _0 << (D,orchid) >> {
+ amount : int
}
@enduml

PlantUML version 1.2020.16beta1(Unknown compile time)
(GPL source distribution)
Java Runtime: Java(TM) SE Runtime Environment
JVM: Java HotSpot(TM) 64-Bit Server VM
Default Encoding: UTF-8
Language: en
Country: US
--></g></svg>