<?xml version="1.0" encoding="UTF-8" standalone="no"?><svg xmlns="http://www.w3.org/2000/svg" xmlns:xlink="http://www.w3.org/1999/xlink" contentScriptType="application/ecmascript" contentStyleType="text/css" height="142px" preserveAspectRatio="none" style="width:212px;height:142px;" version="1.1" viewBox="0 0 212 142" width="212px" zoomAndPan="magnify"><defs><filter height="300%" id="f1k3oxousiynno" width="300%" x="-1" y="-1"><feGaussianBlur result="blurOut" stdDeviation="2.0"/><feColorMatrix in="blurOut" result="blurOut2" type="matrix" values="0 0 0 0 0 0 0 0 0 0 0 0 0 0 0 0 0 0 .4 0"/><feOffset dx="4.0" dy="4.0" in="blurOut2" result="blurOut3"/><feBlend in="SourceGraphic" in2="blurOut3" mode="normal"/></filter></defs><g><!--MD5=[f77682fd75c3e1fc6a82f566c0814d0f]
class _0--><rect fill="#FEFECE" filter="url(#f1k3oxousiynno)" height="124.8281" id="_0" style="stroke: #A80036; stroke-width: 1.5;" width="194" x="7" y="7"/><ellipse cx="28.3" cy="23" fill="#DA70D6" rx="11" ry="11" style="stroke: #A80036; stroke-width: 1.0;"/><path d="M27.8938,18.8125 L27.8938,26.7969 L28.55,26.7969 Q29.9875,26.7969 30.6047,25.8828 Q31.2219,24.9688 31.2219,22.7969 Q31.2219,20.625 30.6047,19.7188 Q29.9875,18.8125 28.55,18.8125 L27.8938,18.8125 Z M25.4406,16.6094 L28.0656,16.6094 Q31.0969,16.6094 32.4328,18.0547 Q33.7688,19.5 33.7688,22.7969 Q33.7688,26.0938 32.4328,27.5469 Q31.0969,29 28.0656,29 L25.4406,29 L25.4406,16.6094 Z "/><text fill="#000000" font-family="sans-serif" font-size="12" lengthAdjust="spacingAndGlyphs" textLength="148" x="43.7" y="27.1543">RelModel.card_payment</text><line style="stroke: #A80036; stroke-width: 1.5;" x1="8" x2="200" y1="39" y2="39"/><ellipse cx="18" cy="50" fill="none" rx="3" ry="3" style="stroke: #038048; stroke-width: 1.0;"/><text fill="#000000" font-family="sans-serif" font-size="11" lengthAdjust="spacingAndGlyphs" textLength="110" x="27" y="53.2104">bank_name : string</text><ellipse cx="18" cy="62.8047" fill="none" rx="3" ry="3" style="stroke: #038048; stroke-width: 1.0;"/><text fill="#000000" font-family="sans-serif" font-size="11" lengthAdjust="spacingAndGlyphs" textLength="146" x="27" y="66.0151">bank_short_name : string</text><ellipse cx="18" cy="75.6094" fill="none" rx="3" ry="3" style="stroke: #038048; stroke-width: 1.0;"/><text fill="#000000" font-family="sans-serif" font-size="11" lengthAdjust="spacingAndGlyphs" textLength="84" x="27" y="78.8198">branch : string</text><ellipse cx="18" cy="88.4141" fill="none" rx="3" ry="3" style="stroke: #038048; stroke-width: 1.0;"/><text fill="#000000" font-family="sans-serif" font-size="11" lengthAdjust="spacingAndGlyphs" textLength="168" x="27" y="91.6245">card_number_snippet : string</text><ellipse cx="18" cy="101.2188" fill="none" rx="3" ry="3" style="stroke: #038048; stroke-width: 1.0;"/><text fill="#000000" font-family="sans-serif" font-size="11" lengthAdjust="spacingAndGlyphs" textLength="79" x="27" y="104.4292">expiry : string</text><ellipse cx="18" cy="114.0234" fill="none" rx="3" ry="3" style="stroke: #038048; stroke-width: 1.0;"/><text fill="#000000" font-family="sans-serif" font-size="11" lengthAdjust="spacingAndGlyphs" textLength="36" x="27" y="117.2339">id : int</text><line style="stroke: #A80036; stroke-width: 1.5;" x1="8" x2="200" y1="123.8281" y2="123.8281"/><!--MD5=[f957f3ab5c63cb7a65ce68bfcfb08111]
@startuml

class "RelModel.card_payment" as _0 << (D,orchid) >> {
+ bank_name : string
+ bank_short_name : string
+ branch : string
+ card_number_snippet : string
+ expiry : string
+ id : int
}
@enduml

PlantUML version 1.2019.11(Sun Sep 22 10:02:15 UTC 2019)
(GPL source distribution)
Java Runtime: OpenJDK Runtime Environment
JVM: OpenJDK 64-Bit Server VM
Java Version: 1.8.0_222-b10
Operating System: Linux
Default Encoding: UTF-8
Language: en
Country: null
--></g></svg>
