<?xml version="1.0" encoding="UTF-8" standalone="no"?><svg xmlns="http://www.w3.org/2000/svg" xmlns:xlink="http://www.w3.org/1999/xlink" contentScriptType="application/ecmascript" contentStyleType="text/css" height="201px" preserveAspectRatio="none" style="width:256px;height:201px;" version="1.1" viewBox="0 0 256 201" width="256px" zoomAndPan="magnify"><defs><filter height="300%" id="f1wi6nq4f6gs36" width="300%" x="-1" y="-1"><feGaussianBlur result="blurOut" stdDeviation="2.0"/><feColorMatrix in="blurOut" result="blurOut2" type="matrix" values="0 0 0 0 0 0 0 0 0 0 0 0 0 0 0 0 0 0 .4 0"/><feOffset dx="4.0" dy="4.0" in="blurOut2" result="blurOut3"/><feBlend in="SourceGraphic" in2="blurOut3" mode="normal"/></filter></defs><g><!--MD5=[f77682fd75c3e1fc6a82f566c0814d0f]
class _0--><rect fill="#FEFECE" filter="url(#f1wi6nq4f6gs36)" height="73.6094" id="_0" style="stroke: #A80036; stroke-width: 1.5;" width="239" x="6" y="8"/><ellipse cx="34.5" cy="24" fill="#DA70D6" rx="11" ry="11" style="stroke: #A80036; stroke-width: 1.0;"/><path d="M34.0938,19.8125 L34.0938,27.7969 L34.75,27.7969 Q36.1875,27.7969 36.8047,26.8828 Q37.4219,25.9688 37.4219,23.7969 Q37.4219,21.625 36.8047,20.7188 Q36.1875,19.8125 34.75,19.8125 L34.0938,19.8125 Z M31.6406,17.6094 L34.2656,17.6094 Q37.2969,17.6094 38.6328,19.0547 Q39.9688,20.5 39.9688,23.7969 Q39.9688,27.0938 38.6328,28.5469 Q37.2969,30 34.2656,30 L31.6406,30 L31.6406,17.6094 Z "/><text fill="#000000" font-family="sans-serif" font-size="12" lengthAdjust="spacingAndGlyphs" textLength="177" x="51.5" y="28.1543">RelModel.checkpoint_lookup</text><line style="stroke: #A80036; stroke-width: 1.5;" x1="7" x2="244" y1="40" y2="40"/><ellipse cx="17" cy="51" fill="none" rx="3" ry="3" style="stroke: #038048; stroke-width: 1.0;"/><text fill="#000000" font-family="sans-serif" font-size="11" lengthAdjust="spacingAndGlyphs" textLength="145" x="26" y="54.2104">checkpoint_lookup_id : int</text><ellipse cx="17" cy="63.8047" fill="none" rx="3" ry="3" style="stroke: #038048; stroke-width: 1.0;"/><text fill="#000000" font-family="sans-serif" font-size="11" lengthAdjust="spacingAndGlyphs" textLength="52" x="26" y="67.0151">location :</text><text fill="#000000" font-family="sans-serif" font-size="11" font-weight="bold" lengthAdjust="spacingAndGlyphs" textLength="126" x="82" y="67.0151">location.location_id</text><text fill="#000000" font-family="sans-serif" font-size="11" lengthAdjust="spacingAndGlyphs" textLength="27" x="212" y="67.0151">«FK»</text><line style="stroke: #A80036; stroke-width: 1.5;" x1="7" x2="244" y1="73.6094" y2="73.6094"/><!--MD5=[37d6e5304215b5e345f427169db70937]
class _1--><rect fill="#FEFECE" filter="url(#f1wi6nq4f6gs36)" height="48" id="_1" style="stroke: #A80036; stroke-width: 1.5;" width="46" x="102.5" y="142"/><ellipse cx="117.5" cy="158" fill="#ADD1B2" rx="11" ry="11" style="stroke: #A80036; stroke-width: 1.0;"/><path d="M120.4688,163.6406 Q119.8906,163.9375 119.25,164.0859 Q118.6094,164.2344 117.9063,164.2344 Q115.4063,164.2344 114.0859,162.5859 Q112.7656,160.9375 112.7656,157.8125 Q112.7656,154.6875 114.0859,153.0313 Q115.4063,151.375 117.9063,151.375 Q118.6094,151.375 119.2578,151.5313 Q119.9063,151.6875 120.4688,151.9844 L120.4688,154.7031 Q119.8438,154.125 119.25,153.8516 Q118.6563,153.5781 118.0313,153.5781 Q116.6875,153.5781 116,154.6484 Q115.3125,155.7188 115.3125,157.8125 Q115.3125,159.9063 116,160.9766 Q116.6875,162.0469 118.0313,162.0469 Q118.6563,162.0469 119.25,161.7734 Q119.8438,161.5 120.4688,160.9219 L120.4688,163.6406 Z "/><text fill="#000000" font-family="sans-serif" font-size="12" lengthAdjust="spacingAndGlyphs" textLength="14" x="131.5" y="162.1543">_1</text><line style="stroke: #A80036; stroke-width: 1.5;" x1="103.5" x2="147.5" y1="174" y2="174"/><line style="stroke: #A80036; stroke-width: 1.5;" x1="103.5" x2="147.5" y1="182" y2="182"/><!--MD5=[bde1413f829cc278731640fabc810278]
reverse link _0 to _1--><path d="M125.5,90.43 C125.5,107.9103 125.5,127.2482 125.5,141.8505 " fill="none" id="_0&lt;-_1" style="stroke: #A80036; stroke-width: 1.0;"/><line style="stroke: #A80036; stroke-width: 1.0;" x1="125.5" x2="117.5" y1="90.027" y2="82.027"/><line style="stroke: #A80036; stroke-width: 1.0;" x1="125.5" x2="133.5" y1="90.027" y2="82.027"/><line style="stroke: #A80036; stroke-width: 1.0;" x1="125.5" x2="125.5" y1="90.027" y2="82.027"/><text fill="#000000" font-family="sans-serif" font-size="13" lengthAdjust="spacingAndGlyphs" textLength="0" x="124.9875" y="130.8242"/><!--MD5=[854709f7c9f00fa9684dd60c0daebc77]
@startuml

class "RelModel.checkpoint_lookup" as _0 << (D,orchid) >> {
+ checkpoint_lookup_id : int
+ location : **location.location_id** <<FK>>
}
_0 }- - " " _1
@enduml

PlantUML version 1.2019.11(Sun Sep 22 10:02:15 UTC 2019)
(GPL source distribution)
Java Runtime: OpenJDK Runtime Environment
JVM: OpenJDK 64-Bit Server VM
Java Version: 1.8.0_222-b10
Operating System: Linux
Default Encoding: UTF-8
Language: en
Country: null
--></g></svg>
