<?xml version="1.0" encoding="UTF-8" standalone="no"?><svg xmlns="http://www.w3.org/2000/svg" xmlns:xlink="http://www.w3.org/1999/xlink" contentScriptType="application/ecmascript" contentStyleType="text/css" height="334px" preserveAspectRatio="none" style="width:392px;height:334px;" version="1.1" viewBox="0 0 392 334" width="392px" zoomAndPan="magnify"><defs><filter height="300%" id="f1wswptso0mk3h" width="300%" x="-1" y="-1"><feGaussianBlur result="blurOut" stdDeviation="2.0"/><feColorMatrix in="blurOut" result="blurOut2" type="matrix" values="0 0 0 0 0 0 0 0 0 0 0 0 0 0 0 0 0 0 .4 0"/><feOffset dx="4.0" dy="4.0" in="blurOut2" result="blurOut3"/><feBlend in="SourceGraphic" in2="blurOut3" mode="normal"/></filter></defs><g><!--MD5=[f77682fd75c3e1fc6a82f566c0814d0f]
class _0--><rect fill="#FEFECE" filter="url(#f1wswptso0mk3h)" height="48" id="_0" style="stroke: #A80036; stroke-width: 1.5;" width="169" x="6" y="269.5"/><ellipse cx="21" cy="285.5" fill="#DA70D6" rx="11" ry="11" style="stroke: #A80036; stroke-width: 1.0;"/><path d="M20.5938,281.3125 L20.5938,289.2969 L21.25,289.2969 Q22.6875,289.2969 23.2969,288.3906 Q23.9219,287.4688 23.9219,285.2969 Q23.9219,283.125 23.2969,282.2188 Q22.6875,281.3125 21.25,281.3125 L20.5938,281.3125 Z M18.1406,279.1094 L20.7656,279.1094 Q23.7969,279.1094 25.125,280.5625 Q26.4688,282 26.4688,285.2969 Q26.4688,288.5938 25.125,290.0469 Q23.7969,291.5 20.7656,291.5 L18.1406,291.5 L18.1406,279.1094 Z "/><text fill="#000000" font-family="sans-serif" font-size="12" lengthAdjust="spacingAndGlyphs" textLength="137" x="35" y="289.6543">MegaDatabase.Empty</text><line style="stroke: #A80036; stroke-width: 1.5;" x1="7" x2="174" y1="301.5" y2="301.5"/><line style="stroke: #A80036; stroke-width: 1.5;" x1="7" x2="174" y1="309.5" y2="309.5"/><!--MD5=[37d6e5304215b5e345f427169db70937]
class _1--><rect fill="#FEFECE" filter="url(#f1wswptso0mk3h)" height="60.8047" id="_1" style="stroke: #A80036; stroke-width: 1.5;" width="171" x="210" y="263"/><ellipse cx="225" cy="279" fill="#DA70D6" rx="11" ry="11" style="stroke: #A80036; stroke-width: 1.0;"/><path d="M224.5938,274.8125 L224.5938,282.7969 L225.25,282.7969 Q226.6875,282.7969 227.2969,281.8906 Q227.9219,280.9688 227.9219,278.7969 Q227.9219,276.625 227.2969,275.7188 Q226.6875,274.8125 225.25,274.8125 L224.5938,274.8125 Z M222.1406,272.6094 L224.7656,272.6094 Q227.7969,272.6094 229.125,274.0625 Q230.4688,275.5 230.4688,278.7969 Q230.4688,282.0938 229.125,283.5469 Q227.7969,285 224.7656,285 L222.1406,285 L222.1406,272.6094 Z "/><text fill="#000000" font-family="sans-serif" font-size="12" lengthAdjust="spacingAndGlyphs" textLength="139" x="239" y="283.1543">MegaDatabase.Money</text><line style="stroke: #A80036; stroke-width: 1.5;" x1="211" x2="380" y1="295" y2="295"/><ellipse cx="221" cy="306" fill="none" rx="3" ry="3" style="stroke: #038048; stroke-width: 1.0;"/><text fill="#000000" font-family="sans-serif" font-size="11" lengthAdjust="spacingAndGlyphs" textLength="69" x="230" y="309.2104">amount : int</text><line style="stroke: #A80036; stroke-width: 1.5;" x1="211" x2="380" y1="315.8047" y2="315.8047"/><!--MD5=[95d1cea1cd7f69d371fe62aa72675e9c]
class _2--><rect fill="#FEFECE" filter="url(#f1wswptso0mk3h)" height="60.8047" id="_2" style="stroke: #A80036; stroke-width: 1.5;" width="217" x="84" y="8"/><ellipse cx="140.25" cy="24" fill="#DA70D6" rx="11" ry="11" style="stroke: #A80036; stroke-width: 1.0;"/><path d="M139.8438,19.8125 L139.8438,27.7969 L140.5,27.7969 Q141.9375,27.7969 142.5469,26.8906 Q143.1719,25.9688 143.1719,23.7969 Q143.1719,21.625 142.5469,20.7188 Q141.9375,19.8125 140.5,19.8125 L139.8438,19.8125 Z M137.3906,17.6094 L140.0156,17.6094 Q143.0469,17.6094 144.375,19.0625 Q145.7188,20.5 145.7188,23.7969 Q145.7188,27.0938 144.375,28.5469 Q143.0469,30 140.0156,30 L137.3906,30 L137.3906,17.6094 Z "/><text fill="#000000" font-family="sans-serif" font-size="12" lengthAdjust="spacingAndGlyphs" textLength="96" x="160.75" y="28.1543">Server.Request</text><line style="stroke: #A80036; stroke-width: 1.5;" x1="85" x2="300" y1="40" y2="40"/><ellipse cx="95" cy="51" fill="none" rx="3" ry="3" style="stroke: #038048; stroke-width: 1.0;"/><text fill="#000000" font-family="sans-serif" font-size="11" lengthAdjust="spacingAndGlyphs" textLength="40" x="104" y="54.2104">query :</text><text fill="#000000" font-family="sans-serif" font-size="11" font-weight="bold" lengthAdjust="spacingAndGlyphs" textLength="147" x="148" y="54.2104">Sequence &lt;Response&gt;</text><line style="stroke: #A80036; stroke-width: 1.5;" x1="85" x2="300" y1="60.8047" y2="60.8047"/><!--MD5=[4df2e88eba431a2a56d213b7bca710d9]
class _3--><rect fill="#FEFECE" filter="url(#f1wswptso0mk3h)" height="73.6094" id="_3" style="stroke: #A80036; stroke-width: 1.5;" width="221" x="82" y="129"/><ellipse cx="135.25" cy="145" fill="#DA70D6" rx="11" ry="11" style="stroke: #A80036; stroke-width: 1.0;"/><path d="M134.8438,140.8125 L134.8438,148.7969 L135.5,148.7969 Q136.9375,148.7969 137.5469,147.8906 Q138.1719,146.9688 138.1719,144.7969 Q138.1719,142.625 137.5469,141.7188 Q136.9375,140.8125 135.5,140.8125 L134.8438,140.8125 Z M132.3906,138.6094 L135.0156,138.6094 Q138.0469,138.6094 139.375,140.0625 Q140.7188,141.5 140.7188,144.7969 Q140.7188,148.0938 139.375,149.5469 Q138.0469,151 135.0156,151 L132.3906,151 L132.3906,138.6094 Z "/><text fill="#000000" font-family="sans-serif" font-size="12" lengthAdjust="spacingAndGlyphs" textLength="106" x="155.75" y="149.1543">Server.Response</text><line style="stroke: #A80036; stroke-width: 1.5;" x1="83" x2="302" y1="161" y2="161"/><ellipse cx="93" cy="172" fill="none" rx="3" ry="3" style="stroke: #038048; stroke-width: 1.0;"/><text fill="#000000" font-family="sans-serif" font-size="11" lengthAdjust="spacingAndGlyphs" textLength="52" x="102" y="175.2104">balance :</text><text fill="#000000" font-family="sans-serif" font-size="11" font-weight="bold" lengthAdjust="spacingAndGlyphs" textLength="139" x="158" y="175.2104">MegaDatabase.Empty</text><ellipse cx="93" cy="184.8047" fill="none" rx="3" ry="3" style="stroke: #038048; stroke-width: 1.0;"/><text fill="#000000" font-family="sans-serif" font-size="11" lengthAdjust="spacingAndGlyphs" textLength="40" x="102" y="188.0151">query :</text><text fill="#000000" font-family="sans-serif" font-size="11" font-weight="bold" lengthAdjust="spacingAndGlyphs" textLength="142" x="146" y="188.0151">MegaDatabase.Money</text><line style="stroke: #A80036; stroke-width: 1.5;" x1="83" x2="302" y1="194.6094" y2="194.6094"/><!--MD5=[d55d8d636913339d8dba5a305028d51c]
reverse link _2 to _3--><path d="M192.5,82.3716 C192.5,97.5208 192.5,114.3342 192.5,128.8888 " fill="none" id="_2&lt;-_3" style="stroke: #A80036; stroke-width: 1.0;"/><polygon fill="#A80036" points="192.5,69.0394,188.5,75.0394,192.5,81.0394,196.5,75.0394,192.5,69.0394" style="stroke: #A80036; stroke-width: 1.0;"/><text fill="#000000" font-family="sans-serif" font-size="13" lengthAdjust="spacingAndGlyphs" textLength="23" x="167.4516" y="118.0559">0..*</text><!--MD5=[7ecbe2165298d12861085e98d6b29611]
reverse link _3 to _0--><path d="M154.4851,213.5186 C139.2836,232.5205 122.4333,253.5834 109.8419,269.3226 " fill="none" id="_3&lt;-_0" style="stroke: #A80036; stroke-width: 1.0;"/><polygon fill="#A80036" points="162.7232,203.221,155.8516,205.4075,155.2269,212.5915,162.0986,210.405,162.7232,203.221" style="stroke: #A80036; stroke-width: 1.0;"/><text fill="#000000" font-family="sans-serif" font-size="13" lengthAdjust="spacingAndGlyphs" textLength="24" x="83.2108" y="258.2892">1..1</text><!--MD5=[78d397c859dd83567ec038622751e188]
reverse link _3 to _1--><path d="M231.0847,213.7627 C244.3743,230.2133 258.8904,248.1822 270.7726,262.8909 " fill="none" id="_3&lt;-_1" style="stroke: #A80036; stroke-width: 1.0;"/><polygon fill="#A80036" points="222.5688,203.221,223.2277,210.4019,230.1096,212.5556,229.4508,205.3747,222.5688,203.221" style="stroke: #A80036; stroke-width: 1.0;"/><text fill="#000000" font-family="sans-serif" font-size="13" lengthAdjust="spacingAndGlyphs" textLength="24" x="234.7851" y="252.1316">1..1</text><!--MD5=[d3e8bed6947cfa138d523a3932fbde97]
@startuml
''''''''''''''''''''''''''''''''''''''''''
''                                      ''
''  AUTOGENERATED CODE - - DO NOT EDIT!  ''
''                                      ''
''''''''''''''''''''''''''''''''''''''''''

class "MegaDatabase.Empty" as _0<< (D,orchid) >> {
}
class "MegaDatabase.Money" as _1 << (D,orchid) >> {
+ amount : int
}
class "Server.Request" as _2 << (D,orchid) >> {
+ query : **Sequence <Response>**
}
class "Server.Response" as _3 << (D,orchid) >> {
+ balance : **MegaDatabase.Empty**
+ query : **MegaDatabase.Money**
}
_2 *- - "0..*" _3
_3 *- - "1..1 " _0
_3 *- - "1..1 " _1
@enduml

@startuml

class "MegaDatabase.Empty" as _0<< (D,orchid) >> {
}
class "MegaDatabase.Money" as _1 << (D,orchid) >> {
+ amount : int
}
class "Server.Request" as _2 << (D,orchid) >> {
+ query : **Sequence <Response>**
}
class "Server.Response" as _3 << (D,orchid) >> {
+ balance : **MegaDatabase.Empty**
+ query : **MegaDatabase.Money**
}
_2 *- - "0..*" _3
_3 *- - "1..1 " _0
_3 *- - "1..1 " _1
@enduml

PlantUML version 1.2020.10(Sun May 17 09:35:57 GMT 2020)
(GPL source distribution)
Java Runtime: OpenJDK Runtime Environment
JVM: OpenJDK 64-Bit Server VM
Java Version: 14-ea+33
Operating System: Linux
Default Encoding: UTF-8
Language: en
Country: US
--></g></svg>