<?xml version="1.0" encoding="UTF-8" standalone="no"?><svg xmlns="http://www.w3.org/2000/svg" xmlns:xlink="http://www.w3.org/1999/xlink" contentScriptType="application/ecmascript" contentStyleType="text/css" height="78px" preserveAspectRatio="none" style="width:210px;height:78px;" version="1.1" viewBox="0 0 210 78" width="210px" zoomAndPan="magnify"><defs><filter height="300%" id="f98d4y5h6unkn" width="300%" x="-1" y="-1"><feGaussianBlur result="blurOut" stdDeviation="2.0"/><feColorMatrix in="blurOut" result="blurOut2" type="matrix" values="0 0 0 0 0 0 0 0 0 0 0 0 0 0 0 0 0 0 .4 0"/><feOffset dx="4.0" dy="4.0" in="blurOut2" result="blurOut3"/><feBlend in="SourceGraphic" in2="blurOut3" mode="normal"/></filter></defs><g><!--MD5=[f77682fd75c3e1fc6a82f566c0814d0f]
class _0--><rect fill="#FEFECE" filter="url(#f98d4y5h6unkn)" height="60.9551" id="_0" style="stroke: #A80036; stroke-width: 1.5;" width="192" x="7" y="7"/><ellipse cx="75.25" cy="23" fill="#DA70D6" rx="11" ry="11" style="stroke: #A80036; stroke-width: 1.0;"/><path d="M74.3359,19.3149 L74.3359,27.292 L75,27.292 Q76.4443,27.292 77.0586,26.3831 Q77.6729,25.4741 77.6729,23.291 Q77.6729,21.1245 77.0586,20.2197 Q76.4443,19.3149 75,19.3149 Z M71.8872,17.1069 L74.5103,17.1069 Q77.5483,17.1069 78.8848,18.5554 Q80.2212,20.0039 80.2212,23.291 Q80.2212,26.5864 78.8848,28.0432 Q77.5483,29.5 74.5103,29.5 L71.8872,29.5 Z "/><text fill="#000000" font-family="sans-serif" font-size="12" lengthAdjust="spacingAndGlyphs" textLength="47" x="95.75" y="27.5352">Request</text><line style="stroke: #A80036; stroke-width: 1.5;" x1="8" x2="198" y1="39" y2="39"/><ellipse cx="18" cy="50" fill="none" rx="3" ry="3" style="stroke: #038048; stroke-width: 1.0;"/><text fill="#000000" font-family="sans-serif" font-size="11" lengthAdjust="spacingAndGlyphs" textLength="37" x="27" y="53.6348">query :</text><text fill="#000000" font-family="sans-serif" font-size="11" font-weight="bold" lengthAdjust="spacingAndGlyphs" textLength="126" x="67" y="53.6348">Sequence &lt;Response&gt;</text><line style="stroke: #A80036; stroke-width: 1.5;" x1="8" x2="198" y1="59.9551" y2="59.9551"/><!--MD5=[5af47bfd8d706d8713e24e60abdb9073]
@startuml

class "Request" as _0 << (D,orchid) >> {
+ query : **Sequence <Response>**
}
@enduml

PlantUML version 1.2019.11(Sun Sep 22 20:02:15 AEST 2019)
(GPL source distribution)
Java Runtime: Java(TM) SE Runtime Environment
JVM: Java HotSpot(TM) 64-Bit Server VM
Java Version: 13.0.1+9
Operating System: Mac OS X
Default Encoding: UTF-8
Language: en
Country: AU
--></g></svg>