<?xml version="1.0" encoding="UTF-8" standalone="no"?><svg xmlns="http://www.w3.org/2000/svg" xmlns:xlink="http://www.w3.org/1999/xlink" contentScriptType="application/ecmascript" contentStyleType="text/css" height="320px" preserveAspectRatio="none" style="width:370px;height:320px;" version="1.1" viewBox="0 0 370 320" width="370px" zoomAndPan="magnify"><defs><filter height="300%" id="fys70d8dbbfa3" width="300%" x="-1" y="-1"><feGaussianBlur result="blurOut" stdDeviation="2.0"/><feColorMatrix in="blurOut" result="blurOut2" type="matrix" values="0 0 0 0 0 0 0 0 0 0 0 0 0 0 0 0 0 0 .4 0"/><feOffset dx="4.0" dy="4.0" in="blurOut2" result="blurOut3"/><feBlend in="SourceGraphic" in2="blurOut3" mode="normal"/></filter></defs><g><text fill="#000000" font-family="sans-serif" font-size="18" lengthAdjust="spacingAndGlyphs" textLength="280" x="40.5" y="26.708">MobileApp2 &lt;- SecondEndpoint</text><rect fill="#FFFFFF" filter="url(#fys70d8dbbfa3)" height="87.3984" style="stroke: #A80036; stroke-width: 1.0;" width="10" x="212" y="160.5156"/><rect fill="#FFFFFF" filter="url(#fys70d8dbbfa3)" height="29.1328" style="stroke: #A80036; stroke-width: 1.0;" width="10" x="323" y="189.6484"/><line style="stroke: #A80036; stroke-width: 1.0; stroke-dasharray: 5.0,5.0;" x1="216.5" x2="216.5" y1="86.25" y2="265.9141"/><line style="stroke: #A80036; stroke-width: 1.0; stroke-dasharray: 5.0,5.0;" x1="328" x2="328" y1="86.25" y2="265.9141"/><text fill="#000000" font-family="sans-serif" font-size="14" lengthAdjust="spacingAndGlyphs" textLength="81" x="173.5" y="82.9482">MobileApp2</text><ellipse cx="217" cy="53.9531" fill="#FEFECE" filter="url(#fys70d8dbbfa3)" rx="12" ry="12" style="stroke: #A80036; stroke-width: 2.0;"/><polygon fill="#A80036" points="213,41.9531,219,36.9531,217,41.9531,219,46.9531,213,41.9531" style="stroke: #A80036; stroke-width: 1.0;"/><text fill="#000000" font-family="sans-serif" font-size="14" lengthAdjust="spacingAndGlyphs" textLength="81" x="173.5" y="277.9092">MobileApp2</text><ellipse cx="217" cy="297.2109" fill="#FEFECE" filter="url(#fys70d8dbbfa3)" rx="12" ry="12" style="stroke: #A80036; stroke-width: 2.0;"/><polygon fill="#A80036" points="213,285.2109,219,280.2109,217,285.2109,219,290.2109,213,285.2109" style="stroke: #A80036; stroke-width: 1.0;"/><text fill="#000000" font-family="sans-serif" font-size="14" lengthAdjust="spacingAndGlyphs" textLength="44" x="303" y="82.9482">Server</text><ellipse cx="328" cy="53.9531" fill="#FEFECE" filter="url(#fys70d8dbbfa3)" rx="12" ry="12" style="stroke: #A80036; stroke-width: 2.0;"/><polygon fill="#A80036" points="324,41.9531,330,36.9531,328,41.9531,330,46.9531,324,41.9531" style="stroke: #A80036; stroke-width: 1.0;"/><text fill="#000000" font-family="sans-serif" font-size="14" lengthAdjust="spacingAndGlyphs" textLength="44" x="303" y="277.9092">Server</text><ellipse cx="328" cy="297.2109" fill="#FEFECE" filter="url(#fys70d8dbbfa3)" rx="12" ry="12" style="stroke: #A80036; stroke-width: 2.0;"/><polygon fill="#A80036" points="324,285.2109,330,280.2109,328,285.2109,330,290.2109,324,285.2109" style="stroke: #A80036; stroke-width: 1.0;"/><rect fill="#FFFFFF" filter="url(#fys70d8dbbfa3)" height="87.3984" style="stroke: #A80036; stroke-width: 1.0;" width="10" x="212" y="160.5156"/><rect fill="#FFFFFF" filter="url(#fys70d8dbbfa3)" height="29.1328" style="stroke: #A80036; stroke-width: 1.0;" width="10" x="323" y="189.6484"/><rect fill="#EEEEEE" filter="url(#fys70d8dbbfa3)" height="3" style="stroke: #EEEEEE; stroke-width: 1.0;" width="355" x="3" y="116.8164"/><line style="stroke: #000000; stroke-width: 1.0;" x1="3" x2="358" y1="116.8164" y2="116.8164"/><line style="stroke: #000000; stroke-width: 1.0;" x1="3" x2="358" y1="119.8164" y2="119.8164"/><rect fill="#EEEEEE" filter="url(#fys70d8dbbfa3)" height="23.1328" style="stroke: #000000; stroke-width: 2.0;" width="253" x="54" y="106.25"/><text fill="#000000" font-family="sans-serif" font-size="13" font-weight="bold" lengthAdjust="spacingAndGlyphs" textLength="234" x="60" y="122.3169">MobileApp2 &lt;- SecondEndpoint</text><polygon fill="#A80036" points="200,156.5156,210,160.5156,200,164.5156,204,160.5156" style="stroke: #A80036; stroke-width: 1.0;"/><line style="stroke: #A80036; stroke-width: 1.0;" x1="3" x2="206" y1="160.5156" y2="160.5156"/><text fill="#000000" font-family="sans-serif" font-size="13" lengthAdjust="spacingAndGlyphs" textLength="104" x="10" y="155.4497">SecondEndpoint</text><polygon fill="#A80036" points="311,185.6484,321,189.6484,311,193.6484,315,189.6484" style="stroke: #A80036; stroke-width: 1.0;"/><line style="stroke: #A80036; stroke-width: 1.0;" x1="222" x2="317" y1="189.6484" y2="189.6484"/><text fill="#000000" font-family="sans-serif" font-size="13" lengthAdjust="spacingAndGlyphs" textLength="82" x="229" y="184.5825">Authenticate</text><polygon fill="#A80036" points="233,214.7813,223,218.7813,233,222.7813,229,218.7813" style="stroke: #A80036; stroke-width: 1.0;"/><line style="stroke: #A80036; stroke-width: 1.0; stroke-dasharray: 2.0,2.0;" x1="227" x2="327" y1="218.7813" y2="218.7813"/><text fill="#000000" font-family="sans-serif" font-size="13" lengthAdjust="spacingAndGlyphs" textLength="62" x="239" y="213.7153">Response</text><polygon fill="#A80036" points="14,243.9141,4,247.9141,14,251.9141,10,247.9141" style="stroke: #A80036; stroke-width: 1.0;"/><line style="stroke: #A80036; stroke-width: 1.0; stroke-dasharray: 2.0,2.0;" x1="8" x2="216" y1="247.9141" y2="247.9141"/><text fill="#0000FF" font-family="sans-serif" font-size="13" lengthAdjust="spacingAndGlyphs" textLength="142" x="20" y="242.8481">MegaDatabase.Empty</text><text fill="#000000" font-family="sans-serif" font-size="13" lengthAdjust="spacingAndGlyphs" textLength="11" x="166" y="242.8481">&lt;</text><text fill="#008000" font-family="sans-serif" font-size="13" lengthAdjust="spacingAndGlyphs" textLength="22" x="177" y="242.8481">?, ?</text><text fill="#000000" font-family="sans-serif" font-size="13" lengthAdjust="spacingAndGlyphs" textLength="11" x="199" y="242.8481">&gt;</text><!--MD5=[4c829833a18c95f2cea738146c1e166f]
@startuml


control "MobileApp2" as _0
control "Server" as _1
skinparam maxMessageSize 250
title MobileApp2 <- SecondEndpoint
== MobileApp2 <- SecondEndpoint ==
[->_0 : SecondEndpoint
activate _0
 _0->_1 : Authenticate
 activate _1
 _0<- -_1 : Response
 deactivate _1
[<- -_0 : <color blue>MegaDatabase.Empty</color> <<color green>?, ?</color>>
deactivate _0
@enduml

PlantUML version 1.2020.09(Sun May 10 10:51:06 UTC 2020)
(GPL source distribution)
Java Runtime: OpenJDK Runtime Environment
JVM: OpenJDK 64-Bit Server VM
Java Version: 1.8.0_252-b09
Operating System: Linux
Default Encoding: UTF-8
Language: en
Country: null
--></g></svg>