<?xml version="1.0" encoding="UTF-8" standalone="no"?><svg xmlns="http://www.w3.org/2000/svg" xmlns:xlink="http://www.w3.org/1999/xlink" contentScriptType="application/ecmascript" contentStyleType="text/css" height="390px" preserveAspectRatio="none" style="width:231px;height:390px;" version="1.1" viewBox="0 0 231 390" width="231px" zoomAndPan="magnify"><defs><filter height="300%" id="f1p8j1wwn7h8z" width="300%" x="-1" y="-1"><feGaussianBlur result="blurOut" stdDeviation="2.0"/><feColorMatrix in="blurOut" result="blurOut2" type="matrix" values="0 0 0 0 0 0 0 0 0 0 0 0 0 0 0 0 0 0 .4 0"/><feOffset dx="4.0" dy="4.0" in="blurOut2" result="blurOut3"/><feBlend in="SourceGraphic" in2="blurOut3" mode="normal"/></filter></defs><g><text fill="#000000" font-family="sans-serif" font-size="18" lengthAdjust="spacingAndGlyphs" textLength="158" x="32" y="26.708">Website &lt;- Order</text><rect fill="#FFFFFF" filter="url(#f1p8j1wwn7h8z)" height="157.6641" style="stroke: #A80036; stroke-width: 1.0;" width="10" x="58" y="160.5156"/><rect fill="#FFFFFF" filter="url(#f1p8j1wwn7h8z)" height="128.5313" style="stroke: #A80036; stroke-width: 1.0;" width="10" x="143.5" y="189.6484"/><rect fill="#FFFFFF" filter="url(#f1p8j1wwn7h8z)" height="46.2656" style="stroke: #000000; stroke-width: 2.0;" width="187" x="22" y="204.6484"/><rect fill="#FFFFFF" filter="url(#f1p8j1wwn7h8z)" height="46.2656" style="stroke: #000000; stroke-width: 2.0;" width="181" x="22" y="264.9141"/><line style="stroke: #A80036; stroke-width: 1.0; stroke-dasharray: 5.0,5.0;" x1="63" x2="63" y1="86.25" y2="328.1797"/><line style="stroke: #A80036; stroke-width: 1.0; stroke-dasharray: 5.0,5.0;" x1="148" x2="148" y1="86.25" y2="328.1797"/><text fill="#000000" font-family="sans-serif" font-size="14" lengthAdjust="spacingAndGlyphs" textLength="56" x="32" y="82.9482">Website</text><path d="M42.5,41.9531 L42.5,65.9531 M42.5,53.9531 L59.5,53.9531 " fill="none" filter="url(#f1p8j1wwn7h8z)" style="stroke: #A80036; stroke-width: 2.0;"/><ellipse cx="71.5" cy="53.9531" fill="#FEFECE" filter="url(#f1p8j1wwn7h8z)" rx="12" ry="12" style="stroke: #A80036; stroke-width: 2.0;"/><text fill="#000000" font-family="sans-serif" font-size="14" lengthAdjust="spacingAndGlyphs" textLength="56" x="32" y="340.1748">Website</text><path d="M42.5,347.4766 L42.5,371.4766 M42.5,359.4766 L59.5,359.4766 " fill="none" filter="url(#f1p8j1wwn7h8z)" style="stroke: #A80036; stroke-width: 2.0;"/><ellipse cx="71.5" cy="359.4766" fill="#FEFECE" filter="url(#f1p8j1wwn7h8z)" rx="12" ry="12" style="stroke: #A80036; stroke-width: 2.0;"/><text fill="#000000" font-family="sans-serif" font-size="14" lengthAdjust="spacingAndGlyphs" textLength="83" x="104" y="82.9482">OrderServer</text><ellipse cx="148.5" cy="53.9531" fill="#FEFECE" filter="url(#f1p8j1wwn7h8z)" rx="12" ry="12" style="stroke: #A80036; stroke-width: 2.0;"/><polygon fill="#A80036" points="144.5,41.9531,150.5,36.9531,148.5,41.9531,150.5,46.9531,144.5,41.9531" style="stroke: #A80036; stroke-width: 1.0;"/><text fill="#000000" font-family="sans-serif" font-size="14" lengthAdjust="spacingAndGlyphs" textLength="83" x="104" y="340.1748">OrderServer</text><ellipse cx="148.5" cy="359.4766" fill="#FEFECE" filter="url(#f1p8j1wwn7h8z)" rx="12" ry="12" style="stroke: #A80036; stroke-width: 2.0;"/><polygon fill="#A80036" points="144.5,347.4766,150.5,342.4766,148.5,347.4766,150.5,352.4766,144.5,347.4766" style="stroke: #A80036; stroke-width: 1.0;"/><rect fill="#FFFFFF" filter="url(#f1p8j1wwn7h8z)" height="157.6641" style="stroke: #A80036; stroke-width: 1.0;" width="10" x="58" y="160.5156"/><rect fill="#FFFFFF" filter="url(#f1p8j1wwn7h8z)" height="128.5313" style="stroke: #A80036; stroke-width: 1.0;" width="10" x="143.5" y="189.6484"/><rect fill="#EEEEEE" filter="url(#f1p8j1wwn7h8z)" height="3" style="stroke: #EEEEEE; stroke-width: 1.0;" width="216" x="3" y="116.8164"/><line style="stroke: #000000; stroke-width: 1.0;" x1="3" x2="219" y1="116.8164" y2="116.8164"/><line style="stroke: #000000; stroke-width: 1.0;" x1="3" x2="219" y1="119.8164" y2="119.8164"/><rect fill="#EEEEEE" filter="url(#f1p8j1wwn7h8z)" height="23.1328" style="stroke: #000000; stroke-width: 2.0;" width="147" x="37.5" y="106.25"/><text fill="#000000" font-family="sans-serif" font-size="13" font-weight="bold" lengthAdjust="spacingAndGlyphs" textLength="128" x="43.5" y="122.3169">Website &lt;- Order</text><polygon fill="#A80036" points="46,156.5156,56,160.5156,46,164.5156,50,160.5156" style="stroke: #A80036; stroke-width: 1.0;"/><line style="stroke: #A80036; stroke-width: 1.0;" x1="3" x2="52" y1="160.5156" y2="160.5156"/><text fill="#000000" font-family="sans-serif" font-size="13" lengthAdjust="spacingAndGlyphs" textLength="36" x="10" y="155.4497">Order</text><polygon fill="#A80036" points="131.5,185.6484,141.5,189.6484,131.5,193.6484,135.5,189.6484" style="stroke: #A80036; stroke-width: 1.0;"/><line style="stroke: #A80036; stroke-width: 1.0;" x1="68" x2="137.5" y1="189.6484" y2="189.6484"/><text fill="#000000" font-family="sans-serif" font-size="13" lengthAdjust="spacingAndGlyphs" textLength="36" x="75" y="184.5825">Order</text><path d="M22,204.6484 L92,204.6484 L92,211.6484 L82,221.6484 L22,221.6484 L22,204.6484 " fill="#EEEEEE" style="stroke: #000000; stroke-width: 1.0;"/><rect fill="none" height="46.2656" style="stroke: #000000; stroke-width: 2.0;" width="187" x="22" y="204.6484"/><text fill="#000000" font-family="sans-serif" font-size="13" font-weight="bold" lengthAdjust="spacingAndGlyphs" textLength="25" x="37" y="217.7153">opt</text><text fill="#000000" font-family="sans-serif" font-size="11" font-weight="bold" lengthAdjust="spacingAndGlyphs" textLength="97" x="107" y="216.8589">[order_id is nil]</text><polygon fill="#A80036" points="79,238.9141,69,242.9141,79,246.9141,75,242.9141" style="stroke: #A80036; stroke-width: 1.0;"/><line style="stroke: #A80036; stroke-width: 1.0; stroke-dasharray: 2.0,2.0;" x1="73" x2="142.5" y1="242.9141" y2="242.9141"/><text fill="#000000" font-family="sans-serif" font-size="13" lengthAdjust="spacingAndGlyphs" textLength="36" x="85" y="237.8481">Order</text><path d="M22,264.9141 L97,264.9141 L97,271.9141 L87,281.9141 L22,281.9141 L22,264.9141 " fill="#EEEEEE" style="stroke: #000000; stroke-width: 1.0;"/><rect fill="none" height="46.2656" style="stroke: #000000; stroke-width: 2.0;" width="181" x="22" y="264.9141"/><text fill="#000000" font-family="sans-serif" font-size="13" font-weight="bold" lengthAdjust="spacingAndGlyphs" textLength="30" x="37" y="277.981">else</text><polygon fill="#A80036" points="79,299.1797,69,303.1797,79,307.1797,75,303.1797" style="stroke: #A80036; stroke-width: 1.0;"/><line style="stroke: #A80036; stroke-width: 1.0; stroke-dasharray: 2.0,2.0;" x1="73" x2="142.5" y1="303.1797" y2="303.1797"/><text fill="#000000" font-family="sans-serif" font-size="13" lengthAdjust="spacingAndGlyphs" textLength="36" x="85" y="298.1138">Order</text><!--MD5=[37e79e1225fa3f1e7d57250bd6cb0961]
@startuml
''''''''''''''''''''''''''''''''''''''''''
''                                      ''
''  AUTOGENERATED CODE - - DO NOT EDIT!  ''
''                                      ''
''''''''''''''''''''''''''''''''''''''''''


boundary "Website" as _0
control "OrderServer" as _1
skinparam maxMessageSize 250
title Website <- Order
== Website <- Order ==
[->_0 : Order
activate _0
 _0->_1 : Order
 activate _1
 opt order_id is nil
  _0<- -_1 : Order
 end
 group else
  _0<- -_1 : Order
 end
 deactivate _1
deactivate _0
@enduml

@startuml


boundary "Website" as _0
control "OrderServer" as _1
skinparam maxMessageSize 250
title Website <- Order
== Website <- Order ==
[->_0 : Order
activate _0
 _0->_1 : Order
 activate _1
 opt order_id is nil
  _0<- -_1 : Order
 end
 group else
  _0<- -_1 : Order
 end
 deactivate _1
deactivate _0
@enduml

PlantUML version 1.2020.15(Sun Jun 28 11:39:45 UTC 2020)
(GPL source distribution)
Java Runtime: OpenJDK Runtime Environment
JVM: OpenJDK 64-Bit Server VM
Default Encoding: UTF-8
Language: en
Country: null
--></g></svg>