<?xml version="1.0" encoding="UTF-8" standalone="no"?><svg xmlns="http://www.w3.org/2000/svg" xmlns:xlink="http://www.w3.org/1999/xlink" contentScriptType="application/ecmascript" contentStyleType="text/css" height="568px" preserveAspectRatio="none" style="width:553px;height:568px;" version="1.1" viewBox="0 0 553 568" width="553px" zoomAndPan="magnify"><defs><filter height="300%" id="fiz8mxitrk6m2" width="300%" x="-1" y="-1"><feGaussianBlur result="blurOut" stdDeviation="2.0"/><feColorMatrix in="blurOut" result="blurOut2" type="matrix" values="0 0 0 0 0 0 0 0 0 0 0 0 0 0 0 0 0 0 .4 0"/><feOffset dx="4.0" dy="4.0" in="blurOut2" result="blurOut3"/><feBlend in="SourceGraphic" in2="blurOut3" mode="normal"/></filter></defs><g><text fill="#000000" font-family="sans-serif" font-size="18" lengthAdjust="spacingAndGlyphs" textLength="138" x="203" y="26.708">Website &lt;- Pay</text><rect fill="#FFFFFF" filter="url(#fiz8mxitrk6m2)" height="327.3281" style="stroke: #A80036; stroke-width: 1.0;" width="10" x="49" y="160.5156"/><rect fill="#FFFFFF" filter="url(#fiz8mxitrk6m2)" height="298.1953" style="stroke: #A80036; stroke-width: 1.0;" width="10" x="247" y="189.6484"/><rect fill="#FFFFFF" filter="url(#fiz8mxitrk6m2)" height="58.2656" style="stroke: #A80036; stroke-width: 1.0;" width="10" x="354.5" y="333.1797"/><rect fill="#FFFFFF" filter="url(#fiz8mxitrk6m2)" height="30" style="stroke: #A80036; stroke-width: 1.0;" width="10" x="424" y="242.9141"/><rect fill="#FFFFFF" filter="url(#fiz8mxitrk6m2)" height="76.2656" style="stroke: #000000; stroke-width: 2.0;" width="269" x="187" y="204.6484"/><rect fill="#FFFFFF" filter="url(#fiz8mxitrk6m2)" height="104.5313" style="stroke: #000000; stroke-width: 2.0;" width="344" x="187" y="294.9141"/><rect fill="#FFFFFF" filter="url(#fiz8mxitrk6m2)" height="46.2656" style="stroke: #000000; stroke-width: 2.0;" width="304" x="13" y="413.4453"/><line style="stroke: #A80036; stroke-width: 1.0; stroke-dasharray: 5.0,5.0;" x1="54" x2="54" y1="86.25" y2="505.8438"/><line style="stroke: #A80036; stroke-width: 1.0; stroke-dasharray: 5.0,5.0;" x1="252" x2="252" y1="86.25" y2="505.8438"/><line style="stroke: #A80036; stroke-width: 1.0; stroke-dasharray: 5.0,5.0;" x1="359" x2="359" y1="86.25" y2="505.8438"/><line style="stroke: #A80036; stroke-width: 1.0; stroke-dasharray: 5.0,5.0;" x1="429" x2="429" y1="86.25" y2="505.8438"/><text fill="#000000" font-family="sans-serif" font-size="14" lengthAdjust="spacingAndGlyphs" textLength="56" x="23" y="82.9482">Website</text><path d="M33.5,41.9531 L33.5,65.9531 M33.5,53.9531 L50.5,53.9531 " fill="none" filter="url(#fiz8mxitrk6m2)" style="stroke: #A80036; stroke-width: 2.0;"/><ellipse cx="62.5" cy="53.9531" fill="#FEFECE" filter="url(#fiz8mxitrk6m2)" rx="12" ry="12" style="stroke: #A80036; stroke-width: 2.0;"/><text fill="#000000" font-family="sans-serif" font-size="14" lengthAdjust="spacingAndGlyphs" textLength="56" x="23" y="517.8389">Website</text><path d="M33.5,525.1406 L33.5,549.1406 M33.5,537.1406 L50.5,537.1406 " fill="none" filter="url(#fiz8mxitrk6m2)" style="stroke: #A80036; stroke-width: 2.0;"/><ellipse cx="62.5" cy="537.1406" fill="#FEFECE" filter="url(#fiz8mxitrk6m2)" rx="12" ry="12" style="stroke: #A80036; stroke-width: 2.0;"/><text fill="#000000" font-family="sans-serif" font-size="14" lengthAdjust="spacingAndGlyphs" textLength="104" x="197" y="82.9482">PaymentServer</text><ellipse cx="252" cy="53.9531" fill="#FEFECE" filter="url(#fiz8mxitrk6m2)" rx="12" ry="12" style="stroke: #A80036; stroke-width: 2.0;"/><polygon fill="#A80036" points="248,41.9531,254,36.9531,252,41.9531,254,46.9531,248,41.9531" style="stroke: #A80036; stroke-width: 1.0;"/><text fill="#000000" font-family="sans-serif" font-size="14" lengthAdjust="spacingAndGlyphs" textLength="104" x="197" y="517.8389">PaymentServer</text><ellipse cx="252" cy="537.1406" fill="#FEFECE" filter="url(#fiz8mxitrk6m2)" rx="12" ry="12" style="stroke: #A80036; stroke-width: 2.0;"/><polygon fill="#A80036" points="248,525.1406,254,520.1406,252,525.1406,254,530.1406,248,525.1406" style="stroke: #A80036; stroke-width: 1.0;"/><text fill="#000000" font-family="sans-serif" font-size="14" lengthAdjust="spacingAndGlyphs" textLength="79" x="317" y="82.9482">MasterCard</text><ellipse cx="359.5" cy="53.9531" fill="#FEFECE" filter="url(#fiz8mxitrk6m2)" rx="12" ry="12" style="stroke: #A80036; stroke-width: 2.0;"/><polygon fill="#A80036" points="355.5,41.9531,361.5,36.9531,359.5,41.9531,361.5,46.9531,355.5,41.9531" style="stroke: #A80036; stroke-width: 1.0;"/><text fill="#000000" font-family="sans-serif" font-size="14" lengthAdjust="spacingAndGlyphs" textLength="79" x="317" y="517.8389">MasterCard</text><ellipse cx="359.5" cy="537.1406" fill="#FEFECE" filter="url(#fiz8mxitrk6m2)" rx="12" ry="12" style="stroke: #A80036; stroke-width: 2.0;"/><polygon fill="#A80036" points="355.5,525.1406,361.5,520.1406,359.5,525.1406,361.5,530.1406,355.5,525.1406" style="stroke: #A80036; stroke-width: 1.0;"/><text fill="#000000" font-family="sans-serif" font-size="14" lengthAdjust="spacingAndGlyphs" textLength="28" x="412" y="82.9482">Visa</text><ellipse cx="429" cy="53.9531" fill="#FEFECE" filter="url(#fiz8mxitrk6m2)" rx="12" ry="12" style="stroke: #A80036; stroke-width: 2.0;"/><polygon fill="#A80036" points="425,41.9531,431,36.9531,429,41.9531,431,46.9531,425,41.9531" style="stroke: #A80036; stroke-width: 1.0;"/><text fill="#000000" font-family="sans-serif" font-size="14" lengthAdjust="spacingAndGlyphs" textLength="28" x="412" y="517.8389">Visa</text><ellipse cx="429" cy="537.1406" fill="#FEFECE" filter="url(#fiz8mxitrk6m2)" rx="12" ry="12" style="stroke: #A80036; stroke-width: 2.0;"/><polygon fill="#A80036" points="425,525.1406,431,520.1406,429,525.1406,431,530.1406,425,525.1406" style="stroke: #A80036; stroke-width: 1.0;"/><rect fill="#FFFFFF" filter="url(#fiz8mxitrk6m2)" height="327.3281" style="stroke: #A80036; stroke-width: 1.0;" width="10" x="49" y="160.5156"/><rect fill="#FFFFFF" filter="url(#fiz8mxitrk6m2)" height="298.1953" style="stroke: #A80036; stroke-width: 1.0;" width="10" x="247" y="189.6484"/><rect fill="#FFFFFF" filter="url(#fiz8mxitrk6m2)" height="58.2656" style="stroke: #A80036; stroke-width: 1.0;" width="10" x="354.5" y="333.1797"/><rect fill="#FFFFFF" filter="url(#fiz8mxitrk6m2)" height="30" style="stroke: #A80036; stroke-width: 1.0;" width="10" x="424" y="242.9141"/><rect fill="#EEEEEE" filter="url(#fiz8mxitrk6m2)" height="3" style="stroke: #EEEEEE; stroke-width: 1.0;" width="538" x="3" y="116.8164"/><line style="stroke: #000000; stroke-width: 1.0;" x1="3" x2="541" y1="116.8164" y2="116.8164"/><line style="stroke: #000000; stroke-width: 1.0;" x1="3" x2="541" y1="119.8164" y2="119.8164"/><rect fill="#EEEEEE" filter="url(#fiz8mxitrk6m2)" height="23.1328" style="stroke: #000000; stroke-width: 2.0;" width="132" x="206" y="106.25"/><text fill="#000000" font-family="sans-serif" font-size="13" font-weight="bold" lengthAdjust="spacingAndGlyphs" textLength="113" x="212" y="122.3169">Website &lt;- Pay</text><polygon fill="#A80036" points="37,156.5156,47,160.5156,37,164.5156,41,160.5156" style="stroke: #A80036; stroke-width: 1.0;"/><line style="stroke: #A80036; stroke-width: 1.0;" x1="3" x2="43" y1="160.5156" y2="160.5156"/><text fill="#000000" font-family="sans-serif" font-size="13" lengthAdjust="spacingAndGlyphs" textLength="23" x="10" y="155.4497">Pay</text><polygon fill="#A80036" points="235,185.6484,245,189.6484,235,193.6484,239,189.6484" style="stroke: #A80036; stroke-width: 1.0;"/><line style="stroke: #A80036; stroke-width: 1.0;" x1="59" x2="241" y1="189.6484" y2="189.6484"/><text fill="#000000" font-family="sans-serif" font-size="13" lengthAdjust="spacingAndGlyphs" textLength="23" x="66" y="184.5825">Pay</text><path d="M187,204.6484 L257,204.6484 L257,211.6484 L247,221.6484 L187,221.6484 L187,204.6484 " fill="#EEEEEE" style="stroke: #000000; stroke-width: 1.0;"/><rect fill="none" height="76.2656" style="stroke: #000000; stroke-width: 2.0;" width="269" x="187" y="204.6484"/><text fill="#000000" font-family="sans-serif" font-size="13" font-weight="bold" lengthAdjust="spacingAndGlyphs" textLength="25" x="202" y="217.7153">opt</text><text fill="#000000" font-family="sans-serif" font-size="11" font-weight="bold" lengthAdjust="spacingAndGlyphs" textLength="171" x="272" y="216.8589">[processor_type == "visa"]</text><polygon fill="#A80036" points="412,238.9141,422,242.9141,412,246.9141,416,242.9141" style="stroke: #A80036; stroke-width: 1.0;"/><line style="stroke: #A80036; stroke-width: 1.0;" x1="257" x2="418" y1="242.9141" y2="242.9141"/><text fill="#000000" font-family="sans-serif" font-size="13" lengthAdjust="spacingAndGlyphs" textLength="23" x="264" y="237.8481">Pay</text><path d="M187,294.9141 L526,294.9141 L526,301.9141 L516,311.9141 L187,311.9141 L187,294.9141 " fill="#EEEEEE" style="stroke: #000000; stroke-width: 1.0;"/><rect fill="none" height="104.5313" style="stroke: #000000; stroke-width: 2.0;" width="344" x="187" y="294.9141"/><text fill="#000000" font-family="sans-serif" font-size="13" font-weight="bold" lengthAdjust="spacingAndGlyphs" textLength="294" x="202" y="307.981">else if processor_type == "mastercard"</text><polygon fill="#A80036" points="342.5,329.1797,352.5,333.1797,342.5,337.1797,346.5,333.1797" style="stroke: #A80036; stroke-width: 1.0;"/><line style="stroke: #A80036; stroke-width: 1.0;" x1="257" x2="348.5" y1="333.1797" y2="333.1797"/><text fill="#000000" font-family="sans-serif" font-size="13" lengthAdjust="spacingAndGlyphs" textLength="65" x="264" y="328.1138">POST /pay</text><polygon fill="#A80036" points="268,358.3125,258,362.3125,268,366.3125,264,362.3125" style="stroke: #A80036; stroke-width: 1.0;"/><line style="stroke: #A80036; stroke-width: 1.0; stroke-dasharray: 2.0,2.0;" x1="262" x2="353.5" y1="362.3125" y2="362.3125"/><text fill="#000000" font-family="sans-serif" font-size="13" lengthAdjust="spacingAndGlyphs" textLength="31" x="274" y="357.2466">error</text><polygon fill="#A80036" points="268,387.4453,258,391.4453,268,395.4453,264,391.4453" style="stroke: #A80036; stroke-width: 1.0;"/><line style="stroke: #A80036; stroke-width: 1.0; stroke-dasharray: 2.0,2.0;" x1="262" x2="358.5" y1="391.4453" y2="391.4453"/><text fill="#000000" font-family="sans-serif" font-size="13" lengthAdjust="spacingAndGlyphs" textLength="65" x="274" y="386.3794">SimpleObj</text><path d="M13,413.4453 L88,413.4453 L88,420.4453 L78,430.4453 L13,430.4453 L13,413.4453 " fill="#EEEEEE" style="stroke: #000000; stroke-width: 1.0;"/><rect fill="none" height="46.2656" style="stroke: #000000; stroke-width: 2.0;" width="304" x="13" y="413.4453"/><text fill="#000000" font-family="sans-serif" font-size="13" font-weight="bold" lengthAdjust="spacingAndGlyphs" textLength="30" x="28" y="426.5122">else</text><polygon fill="#A80036" points="70,447.7109,60,451.7109,70,455.7109,66,451.7109" style="stroke: #A80036; stroke-width: 1.0;"/><line style="stroke: #A80036; stroke-width: 1.0; stroke-dasharray: 2.0,2.0;" x1="64" x2="246" y1="451.7109" y2="451.7109"/><text fill="#000000" font-family="sans-serif" font-size="13" lengthAdjust="spacingAndGlyphs" textLength="164" x="76" y="446.645">500 &lt; NotSupportedError</text><polygon fill="#A80036" points="65,483.8438,55,487.8438,65,491.8438,61,487.8438" style="stroke: #A80036; stroke-width: 1.0;"/><line style="stroke: #A80036; stroke-width: 1.0; stroke-dasharray: 2.0,2.0;" x1="59" x2="251" y1="487.8438" y2="487.8438"/><text fill="#000000" font-family="sans-serif" font-size="13" lengthAdjust="spacingAndGlyphs" textLength="24" x="71" y="482.7778">200</text><!--MD5=[edefd83b051d8e1ab808ea97fbd96f0d]
@startuml
''''''''''''''''''''''''''''''''''''''''''
''                                      ''
''  AUTOGENERATED CODE - - DO NOT EDIT!  ''
''                                      ''
''''''''''''''''''''''''''''''''''''''''''


boundary "Website" as _0
control "PaymentServer" as _1
control "MasterCard" as _3
control "Visa" as _2
skinparam maxMessageSize 250
title Website <- Pay
== Website <- Pay ==
[->_0 : Pay
activate _0
 _0->_1 : Pay
 activate _1
 opt processor_type == "visa"
   _1->_2 : Pay
   activate _2
   deactivate _2
 end
 group else if processor_type == "mastercard"
   _1->_3 : POST /pay
   activate _3
   _1<- -_3 : error
   _1<- -_3 : SimpleObj
   deactivate _3
 end
 group else
  _0<- -_1 : 500 < NotSupportedError
 end
 _0<- -_1 : 200
 deactivate _1
deactivate _0
@enduml

@startuml


boundary "Website" as _0
control "PaymentServer" as _1
control "MasterCard" as _3
control "Visa" as _2
skinparam maxMessageSize 250
title Website <- Pay
== Website <- Pay ==
[->_0 : Pay
activate _0
 _0->_1 : Pay
 activate _1
 opt processor_type == "visa"
   _1->_2 : Pay
   activate _2
   deactivate _2
 end
 group else if processor_type == "mastercard"
   _1->_3 : POST /pay
   activate _3
   _1<- -_3 : error
   _1<- -_3 : SimpleObj
   deactivate _3
 end
 group else
  _0<- -_1 : 500 < NotSupportedError
 end
 _0<- -_1 : 200
 deactivate _1
deactivate _0
@enduml

PlantUML version 1.2020.15(Sun Jun 28 11:39:45 UTC 2020)
(GPL source distribution)
Java Runtime: OpenJDK Runtime Environment
JVM: OpenJDK 64-Bit Server VM
Default Encoding: UTF-8
Language: en
Country: null
--></g></svg>