<?xml version="1.0" encoding="UTF-8" standalone="no"?><svg xmlns="http://www.w3.org/2000/svg" xmlns:xlink="http://www.w3.org/1999/xlink" contentScriptType="application/ecmascript" contentStyleType="text/css" height="568px" preserveAspectRatio="none" style="width:554px;height:568px;" version="1.1" viewBox="0 0 554 568" width="554px" zoomAndPan="magnify"><defs><filter height="300%" id="fiz8mxitrk6m2" width="300%" x="-1" y="-1"><feGaussianBlur result="blurOut" stdDeviation="2.0"/><feColorMatrix in="blurOut" result="blurOut2" type="matrix" values="0 0 0 0 0 0 0 0 0 0 0 0 0 0 0 0 0 0 .4 0"/><feOffset dx="4.0" dy="4.0" in="blurOut2" result="blurOut3"/><feBlend in="SourceGraphic" in2="blurOut3" mode="normal"/></filter></defs><g><text fill="#000000" font-family="sans-serif" font-size="18" lengthAdjust="spacingAndGlyphs" textLength="142" x="201.75" y="26.708">Website &lt;- Pay</text><rect fill="#FFFFFF" filter="url(#fiz8mxitrk6m2)" height="327.3281" style="stroke: #A80036; stroke-width: 1.0;" width="10" x="51" y="160.5156"/><rect fill="#FFFFFF" filter="url(#fiz8mxitrk6m2)" height="298.1953" style="stroke: #A80036; stroke-width: 1.0;" width="10" x="246" y="189.6484"/><rect fill="#FFFFFF" filter="url(#fiz8mxitrk6m2)" height="58.2656" style="stroke: #A80036; stroke-width: 1.0;" width="10" x="358.5" y="333.1797"/><rect fill="#FFFFFF" filter="url(#fiz8mxitrk6m2)" height="30" style="stroke: #A80036; stroke-width: 1.0;" width="10" x="430" y="242.9141"/><rect fill="#FFFFFF" filter="url(#fiz8mxitrk6m2)" height="76.2656" style="stroke: #000000; stroke-width: 2.0;" width="280" x="182.5" y="204.6484"/><rect fill="#FFFFFF" filter="url(#fiz8mxitrk6m2)" height="104.5313" style="stroke: #000000; stroke-width: 2.0;" width="350" x="182.5" y="294.9141"/><rect fill="#FFFFFF" filter="url(#fiz8mxitrk6m2)" height="46.2656" style="stroke: #000000; stroke-width: 2.0;" width="306.5" x="13" y="413.4453"/><line style="stroke: #A80036; stroke-width: 1.0; stroke-dasharray: 5.0,5.0;" x1="56" x2="56" y1="86.25" y2="505.8438"/><line style="stroke: #A80036; stroke-width: 1.0; stroke-dasharray: 5.0,5.0;" x1="250.5" x2="250.5" y1="86.25" y2="505.8438"/><line style="stroke: #A80036; stroke-width: 1.0; stroke-dasharray: 5.0,5.0;" x1="363.5" x2="363.5" y1="86.25" y2="505.8438"/><line style="stroke: #A80036; stroke-width: 1.0; stroke-dasharray: 5.0,5.0;" x1="434.5" x2="434.5" y1="86.25" y2="505.8438"/><text fill="#000000" font-family="sans-serif" font-size="14" lengthAdjust="spacingAndGlyphs" textLength="60" x="23" y="82.9482">Website</text><path d="M35.5,41.9531 L35.5,65.9531 M35.5,53.9531 L52.5,53.9531 " fill="none" filter="url(#fiz8mxitrk6m2)" style="stroke: #A80036; stroke-width: 2.0;"/><ellipse cx="64.5" cy="53.9531" fill="#FEFECE" filter="url(#fiz8mxitrk6m2)" rx="12" ry="12" style="stroke: #A80036; stroke-width: 2.0;"/><text fill="#000000" font-family="sans-serif" font-size="14" lengthAdjust="spacingAndGlyphs" textLength="60" x="23" y="517.8389">Website</text><path d="M35.5,525.1406 L35.5,549.1406 M35.5,537.1406 L52.5,537.1406 " fill="none" filter="url(#fiz8mxitrk6m2)" style="stroke: #A80036; stroke-width: 2.0;"/><ellipse cx="64.5" cy="537.1406" fill="#FEFECE" filter="url(#fiz8mxitrk6m2)" rx="12" ry="12" style="stroke: #A80036; stroke-width: 2.0;"/><text fill="#000000" font-family="sans-serif" font-size="14" lengthAdjust="spacingAndGlyphs" textLength="111" x="192.5" y="82.9482">PaymentServer</text><ellipse cx="251" cy="53.9531" fill="#FEFECE" filter="url(#fiz8mxitrk6m2)" rx="12" ry="12" style="stroke: #A80036; stroke-width: 2.0;"/><polygon fill="#A80036" points="247,41.9531,253,36.9531,251,41.9531,253,46.9531,247,41.9531" style="stroke: #A80036; stroke-width: 1.0;"/><text fill="#000000" font-family="sans-serif" font-size="14" lengthAdjust="spacingAndGlyphs" textLength="111" x="192.5" y="517.8389">PaymentServer</text><ellipse cx="251" cy="537.1406" fill="#FEFECE" filter="url(#fiz8mxitrk6m2)" rx="12" ry="12" style="stroke: #A80036; stroke-width: 2.0;"/><polygon fill="#A80036" points="247,525.1406,253,520.1406,251,525.1406,253,530.1406,247,525.1406" style="stroke: #A80036; stroke-width: 1.0;"/><text fill="#000000" font-family="sans-serif" font-size="14" lengthAdjust="spacingAndGlyphs" textLength="82" x="319.5" y="82.9482">MasterCard</text><ellipse cx="363.5" cy="53.9531" fill="#FEFECE" filter="url(#fiz8mxitrk6m2)" rx="12" ry="12" style="stroke: #A80036; stroke-width: 2.0;"/><polygon fill="#A80036" points="359.5,41.9531,365.5,36.9531,363.5,41.9531,365.5,46.9531,359.5,41.9531" style="stroke: #A80036; stroke-width: 1.0;"/><text fill="#000000" font-family="sans-serif" font-size="14" lengthAdjust="spacingAndGlyphs" textLength="82" x="319.5" y="517.8389">MasterCard</text><ellipse cx="363.5" cy="537.1406" fill="#FEFECE" filter="url(#fiz8mxitrk6m2)" rx="12" ry="12" style="stroke: #A80036; stroke-width: 2.0;"/><polygon fill="#A80036" points="359.5,525.1406,365.5,520.1406,363.5,525.1406,365.5,530.1406,359.5,525.1406" style="stroke: #A80036; stroke-width: 1.0;"/><text fill="#000000" font-family="sans-serif" font-size="14" lengthAdjust="spacingAndGlyphs" textLength="29" x="417.5" y="82.9482">Visa</text><ellipse cx="435" cy="53.9531" fill="#FEFECE" filter="url(#fiz8mxitrk6m2)" rx="12" ry="12" style="stroke: #A80036; stroke-width: 2.0;"/><polygon fill="#A80036" points="431,41.9531,437,36.9531,435,41.9531,437,46.9531,431,41.9531" style="stroke: #A80036; stroke-width: 1.0;"/><text fill="#000000" font-family="sans-serif" font-size="14" lengthAdjust="spacingAndGlyphs" textLength="29" x="417.5" y="517.8389">Visa</text><ellipse cx="435" cy="537.1406" fill="#FEFECE" filter="url(#fiz8mxitrk6m2)" rx="12" ry="12" style="stroke: #A80036; stroke-width: 2.0;"/><polygon fill="#A80036" points="431,525.1406,437,520.1406,435,525.1406,437,530.1406,431,525.1406" style="stroke: #A80036; stroke-width: 1.0;"/><rect fill="#FFFFFF" filter="url(#fiz8mxitrk6m2)" height="327.3281" style="stroke: #A80036; stroke-width: 1.0;" width="10" x="51" y="160.5156"/><rect fill="#FFFFFF" filter="url(#fiz8mxitrk6m2)" height="298.1953" style="stroke: #A80036; stroke-width: 1.0;" width="10" x="246" y="189.6484"/><rect fill="#FFFFFF" filter="url(#fiz8mxitrk6m2)" height="58.2656" style="stroke: #A80036; stroke-width: 1.0;" width="10" x="358.5" y="333.1797"/><rect fill="#FFFFFF" filter="url(#fiz8mxitrk6m2)" height="30" style="stroke: #A80036; stroke-width: 1.0;" width="10" x="430" y="242.9141"/><rect fill="#EEEEEE" filter="url(#fiz8mxitrk6m2)" height="3" style="stroke: #EEEEEE; stroke-width: 1.0;" width="539.5" x="3" y="116.8164"/><line style="stroke: #000000; stroke-width: 1.0;" x1="3" x2="542.5" y1="116.8164" y2="116.8164"/><line style="stroke: #000000; stroke-width: 1.0;" x1="3" x2="542.5" y1="119.8164" y2="119.8164"/><rect fill="#EEEEEE" filter="url(#fiz8mxitrk6m2)" height="23.1328" style="stroke: #000000; stroke-width: 2.0;" width="133" x="206.25" y="106.25"/><text fill="#000000" font-family="sans-serif" font-size="13" font-weight="bold" lengthAdjust="spacingAndGlyphs" textLength="114" x="212.25" y="122.3169">Website &lt;- Pay</text><polygon fill="#A80036" points="39,156.5156,49,160.5156,39,164.5156,43,160.5156" style="stroke: #A80036; stroke-width: 1.0;"/><line style="stroke: #A80036; stroke-width: 1.0;" x1="3" x2="45" y1="160.5156" y2="160.5156"/><text fill="#000000" font-family="sans-serif" font-size="13" lengthAdjust="spacingAndGlyphs" textLength="24" x="10" y="155.4497">Pay</text><polygon fill="#A80036" points="234,185.6484,244,189.6484,234,193.6484,238,189.6484" style="stroke: #A80036; stroke-width: 1.0;"/><line style="stroke: #A80036; stroke-width: 1.0;" x1="61" x2="240" y1="189.6484" y2="189.6484"/><text fill="#000000" font-family="sans-serif" font-size="13" lengthAdjust="spacingAndGlyphs" textLength="24" x="68" y="184.5825">Pay</text><path d="M182.5,204.6484 L254.5,204.6484 L254.5,211.6484 L244.5,221.6484 L182.5,221.6484 L182.5,204.6484 " fill="#EEEEEE" style="stroke: #000000; stroke-width: 1.0;"/><rect fill="none" height="76.2656" style="stroke: #000000; stroke-width: 2.0;" width="280" x="182.5" y="204.6484"/><text fill="#000000" font-family="sans-serif" font-size="13" font-weight="bold" lengthAdjust="spacingAndGlyphs" textLength="27" x="197.5" y="217.7153">opt</text><text fill="#000000" font-family="sans-serif" font-size="11" font-weight="bold" lengthAdjust="spacingAndGlyphs" textLength="175" x="269.5" y="216.8589">[processor_type == "visa"]</text><polygon fill="#A80036" points="418,238.9141,428,242.9141,418,246.9141,422,242.9141" style="stroke: #A80036; stroke-width: 1.0;"/><line style="stroke: #A80036; stroke-width: 1.0;" x1="256" x2="424" y1="242.9141" y2="242.9141"/><text fill="#000000" font-family="sans-serif" font-size="13" lengthAdjust="spacingAndGlyphs" textLength="24" x="263" y="237.8481">Pay</text><path d="M182.5,294.9141 L527.5,294.9141 L527.5,301.9141 L517.5,311.9141 L182.5,311.9141 L182.5,294.9141 " fill="#EEEEEE" style="stroke: #000000; stroke-width: 1.0;"/><rect fill="none" height="104.5313" style="stroke: #000000; stroke-width: 2.0;" width="350" x="182.5" y="294.9141"/><text fill="#000000" font-family="sans-serif" font-size="13" font-weight="bold" lengthAdjust="spacingAndGlyphs" textLength="300" x="197.5" y="307.981">else if processor_type == "mastercard"</text><polygon fill="#A80036" points="346.5,329.1797,356.5,333.1797,346.5,337.1797,350.5,333.1797" style="stroke: #A80036; stroke-width: 1.0;"/><line style="stroke: #A80036; stroke-width: 1.0;" x1="256" x2="352.5" y1="333.1797" y2="333.1797"/><text fill="#000000" font-family="sans-serif" font-size="13" lengthAdjust="spacingAndGlyphs" textLength="66" x="263" y="328.1138">POST /pay</text><polygon fill="#A80036" points="267,358.3125,257,362.3125,267,366.3125,263,362.3125" style="stroke: #A80036; stroke-width: 1.0;"/><line style="stroke: #A80036; stroke-width: 1.0; stroke-dasharray: 2.0,2.0;" x1="261" x2="357.5" y1="362.3125" y2="362.3125"/><text fill="#000000" font-family="sans-serif" font-size="13" lengthAdjust="spacingAndGlyphs" textLength="31" x="273" y="357.2466">error</text><polygon fill="#A80036" points="267,387.4453,257,391.4453,267,395.4453,263,391.4453" style="stroke: #A80036; stroke-width: 1.0;"/><line style="stroke: #A80036; stroke-width: 1.0; stroke-dasharray: 2.0,2.0;" x1="261" x2="362.5" y1="391.4453" y2="391.4453"/><text fill="#000000" font-family="sans-serif" font-size="13" lengthAdjust="spacingAndGlyphs" textLength="64" x="273" y="386.3794">SimpleObj</text><path d="M13,413.4453 L88,413.4453 L88,420.4453 L78,430.4453 L13,430.4453 L13,413.4453 " fill="#EEEEEE" style="stroke: #000000; stroke-width: 1.0;"/><rect fill="none" height="46.2656" style="stroke: #000000; stroke-width: 2.0;" width="306.5" x="13" y="413.4453"/><text fill="#000000" font-family="sans-serif" font-size="13" font-weight="bold" lengthAdjust="spacingAndGlyphs" textLength="30" x="28" y="426.5122">else</text><polygon fill="#A80036" points="72,447.7109,62,451.7109,72,455.7109,68,451.7109" style="stroke: #A80036; stroke-width: 1.0;"/><line style="stroke: #A80036; stroke-width: 1.0; stroke-dasharray: 2.0,2.0;" x1="66" x2="245" y1="451.7109" y2="451.7109"/><text fill="#000000" font-family="sans-serif" font-size="13" lengthAdjust="spacingAndGlyphs" textLength="161" x="78" y="446.645">500 &lt; NotSupportedError</text><polygon fill="#A80036" points="67,483.8438,57,487.8438,67,491.8438,63,487.8438" style="stroke: #A80036; stroke-width: 1.0;"/><line style="stroke: #A80036; stroke-width: 1.0; stroke-dasharray: 2.0,2.0;" x1="61" x2="250" y1="487.8438" y2="487.8438"/><text fill="#000000" font-family="sans-serif" font-size="13" lengthAdjust="spacingAndGlyphs" textLength="24" x="73" y="482.7778">200</text><!--MD5=[09edf5982a342f7a2be0bbeb4c1f6b1e]
@startuml
''''''''''''''''''''''''''''''''''''''''''
''                                      ''
''  AUTOGENERATED CODE - - DO NOT EDIT!  ''
''                                      ''
''''''''''''''''''''''''''''''''''''''''''


boundary "Website" as _0
control "PaymentServer" as _1
control "MasterCard" as _3
control "Visa" as _2
skinparam maxMessageSize 250
title Website <- Pay
== Website <- Pay ==
[->_0 : Pay
activate _0
 _0->_1 : Pay
 activate _1
 opt processor_type == "visa"
   _1->_2 : Pay
   activate _2
   deactivate _2
 end
 group else if processor_type == "mastercard"
   _1->_3 : POST /pay
   activate _3
   _1<- -_3 : error
   _1<- -_3 : SimpleObj
   deactivate _3
 end
 group else
  _0<- -_1 : 500 < NotSupportedError
 end
 _0<- -_1 : 200
 deactivate _1
deactivate _0
@enduml

@startuml


boundary "Website" as _0
control "PaymentServer" as _1
control "MasterCard" as _3
control "Visa" as _2
skinparam maxMessageSize 250
title Website <- Pay
== Website <- Pay ==
[->_0 : Pay
activate _0
 _0->_1 : Pay
 activate _1
 opt processor_type == "visa"
   _1->_2 : Pay
   activate _2
   deactivate _2
 end
 group else if processor_type == "mastercard"
   _1->_3 : POST /pay
   activate _3
   _1<- -_3 : error
   _1<- -_3 : SimpleObj
   deactivate _3
 end
 group else
  _0<- -_1 : 500 < NotSupportedError
 end
 _0<- -_1 : 200
 deactivate _1
deactivate _0
@enduml

PlantUML version 1.2020.16beta7(Unknown compile time)
(GPL source distribution)
Java Runtime: Java(TM) SE Runtime Environment
JVM: Java HotSpot(TM) 64-Bit Server VM
Default Encoding: UTF-8
Language: en
Country: US
--></g></svg>