<?xml version="1.0" encoding="UTF-8" standalone="no"?><svg xmlns="http://www.w3.org/2000/svg" xmlns:xlink="http://www.w3.org/1999/xlink" contentScriptType="application/ecmascript" contentStyleType="text/css" height="449px" preserveAspectRatio="none" style="width:471px;height:449px;" version="1.1" viewBox="0 0 471 449" width="471px" zoomAndPan="magnify"><defs><filter height="300%" id="f1ddsh5v0g0650" width="300%" x="-1" y="-1"><feGaussianBlur result="blurOut" stdDeviation="2.0"/><feColorMatrix in="blurOut" result="blurOut2" type="matrix" values="0 0 0 0 0 0 0 0 0 0 0 0 0 0 0 0 0 0 .4 0"/><feOffset dx="4.0" dy="4.0" in="blurOut2" result="blurOut3"/><feBlend in="SourceGraphic" in2="blurOut3" mode="normal"/></filter></defs><g><text fill="#000000" font-family="sans-serif" font-size="18" lengthAdjust="spacingAndGlyphs" textLength="142" x="160.25" y="26.708">Website &lt;- Pay</text><rect fill="#FFFFFF" filter="url(#f1ddsh5v0g0650)" height="208.7969" style="stroke: #A80036; stroke-width: 1.0;" width="10" x="51" y="160.5156"/><rect fill="#FFFFFF" filter="url(#f1ddsh5v0g0650)" height="179.6641" style="stroke: #A80036; stroke-width: 1.0;" width="10" x="246" y="189.6484"/><rect fill="#FFFFFF" filter="url(#f1ddsh5v0g0650)" height="30" style="stroke: #A80036; stroke-width: 1.0;" width="10" x="332" y="242.9141"/><rect fill="#FFFFFF" filter="url(#f1ddsh5v0g0650)" height="76.2656" style="stroke: #000000; stroke-width: 2.0;" width="267" x="182.5" y="204.6484"/><rect fill="#FFFFFF" filter="url(#f1ddsh5v0g0650)" height="46.2656" style="stroke: #000000; stroke-width: 2.0;" width="306.5" x="13" y="294.9141"/><line style="stroke: #A80036; stroke-width: 1.0; stroke-dasharray: 5.0,5.0;" x1="56" x2="56" y1="86.25" y2="387.3125"/><line style="stroke: #A80036; stroke-width: 1.0; stroke-dasharray: 5.0,5.0;" x1="250.5" x2="250.5" y1="86.25" y2="387.3125"/><line style="stroke: #A80036; stroke-width: 1.0; stroke-dasharray: 5.0,5.0;" x1="336.5" x2="336.5" y1="86.25" y2="387.3125"/><text fill="#000000" font-family="sans-serif" font-size="14" lengthAdjust="spacingAndGlyphs" textLength="60" x="23" y="82.9482">Website</text><path d="M35.5,41.9531 L35.5,65.9531 M35.5,53.9531 L52.5,53.9531 " fill="none" filter="url(#f1ddsh5v0g0650)" style="stroke: #A80036; stroke-width: 2.0;"/><ellipse cx="64.5" cy="53.9531" fill="#FEFECE" filter="url(#f1ddsh5v0g0650)" rx="12" ry="12" style="stroke: #A80036; stroke-width: 2.0;"/><text fill="#000000" font-family="sans-serif" font-size="14" lengthAdjust="spacingAndGlyphs" textLength="60" x="23" y="399.3076">Website</text><path d="M35.5,406.6094 L35.5,430.6094 M35.5,418.6094 L52.5,418.6094 " fill="none" filter="url(#f1ddsh5v0g0650)" style="stroke: #A80036; stroke-width: 2.0;"/><ellipse cx="64.5" cy="418.6094" fill="#FEFECE" filter="url(#f1ddsh5v0g0650)" rx="12" ry="12" style="stroke: #A80036; stroke-width: 2.0;"/><text fill="#000000" font-family="sans-serif" font-size="14" lengthAdjust="spacingAndGlyphs" textLength="111" x="192.5" y="82.9482">PaymentServer</text><ellipse cx="251" cy="53.9531" fill="#FEFECE" filter="url(#f1ddsh5v0g0650)" rx="12" ry="12" style="stroke: #A80036; stroke-width: 2.0;"/><polygon fill="#A80036" points="247,41.9531,253,36.9531,251,41.9531,253,46.9531,247,41.9531" style="stroke: #A80036; stroke-width: 1.0;"/><text fill="#000000" font-family="sans-serif" font-size="14" lengthAdjust="spacingAndGlyphs" textLength="111" x="192.5" y="399.3076">PaymentServer</text><ellipse cx="251" cy="418.6094" fill="#FEFECE" filter="url(#f1ddsh5v0g0650)" rx="12" ry="12" style="stroke: #A80036; stroke-width: 2.0;"/><polygon fill="#A80036" points="247,406.6094,253,401.6094,251,406.6094,253,411.6094,247,406.6094" style="stroke: #A80036; stroke-width: 1.0;"/><text fill="#000000" font-family="sans-serif" font-size="14" lengthAdjust="spacingAndGlyphs" textLength="29" x="319.5" y="82.9482">Visa</text><ellipse cx="337" cy="53.9531" fill="#FEFECE" filter="url(#f1ddsh5v0g0650)" rx="12" ry="12" style="stroke: #A80036; stroke-width: 2.0;"/><polygon fill="#A80036" points="333,41.9531,339,36.9531,337,41.9531,339,46.9531,333,41.9531" style="stroke: #A80036; stroke-width: 1.0;"/><text fill="#000000" font-family="sans-serif" font-size="14" lengthAdjust="spacingAndGlyphs" textLength="29" x="319.5" y="399.3076">Visa</text><ellipse cx="337" cy="418.6094" fill="#FEFECE" filter="url(#f1ddsh5v0g0650)" rx="12" ry="12" style="stroke: #A80036; stroke-width: 2.0;"/><polygon fill="#A80036" points="333,406.6094,339,401.6094,337,406.6094,339,411.6094,333,406.6094" style="stroke: #A80036; stroke-width: 1.0;"/><rect fill="#FFFFFF" filter="url(#f1ddsh5v0g0650)" height="208.7969" style="stroke: #A80036; stroke-width: 1.0;" width="10" x="51" y="160.5156"/><rect fill="#FFFFFF" filter="url(#f1ddsh5v0g0650)" height="179.6641" style="stroke: #A80036; stroke-width: 1.0;" width="10" x="246" y="189.6484"/><rect fill="#FFFFFF" filter="url(#f1ddsh5v0g0650)" height="30" style="stroke: #A80036; stroke-width: 1.0;" width="10" x="332" y="242.9141"/><rect fill="#EEEEEE" filter="url(#f1ddsh5v0g0650)" height="3" style="stroke: #EEEEEE; stroke-width: 1.0;" width="456.5" x="3" y="116.8164"/><line style="stroke: #000000; stroke-width: 1.0;" x1="3" x2="459.5" y1="116.8164" y2="116.8164"/><line style="stroke: #000000; stroke-width: 1.0;" x1="3" x2="459.5" y1="119.8164" y2="119.8164"/><rect fill="#EEEEEE" filter="url(#f1ddsh5v0g0650)" height="23.1328" style="stroke: #000000; stroke-width: 2.0;" width="133" x="164.75" y="106.25"/><text fill="#000000" font-family="sans-serif" font-size="13" font-weight="bold" lengthAdjust="spacingAndGlyphs" textLength="114" x="170.75" y="122.3169">Website &lt;- Pay</text><polygon fill="#A80036" points="39,156.5156,49,160.5156,39,164.5156,43,160.5156" style="stroke: #A80036; stroke-width: 1.0;"/><line style="stroke: #A80036; stroke-width: 1.0;" x1="3" x2="45" y1="160.5156" y2="160.5156"/><text fill="#000000" font-family="sans-serif" font-size="13" lengthAdjust="spacingAndGlyphs" textLength="24" x="10" y="155.4497">Pay</text><polygon fill="#A80036" points="234,185.6484,244,189.6484,234,193.6484,238,189.6484" style="stroke: #A80036; stroke-width: 1.0;"/><line style="stroke: #A80036; stroke-width: 1.0;" x1="61" x2="240" y1="189.6484" y2="189.6484"/><text fill="#000000" font-family="sans-serif" font-size="13" lengthAdjust="spacingAndGlyphs" textLength="24" x="68" y="184.5825">Pay</text><path d="M182.5,204.6484 L254.5,204.6484 L254.5,211.6484 L244.5,221.6484 L182.5,221.6484 L182.5,204.6484 " fill="#EEEEEE" style="stroke: #000000; stroke-width: 1.0;"/><rect fill="none" height="76.2656" style="stroke: #000000; stroke-width: 2.0;" width="267" x="182.5" y="204.6484"/><text fill="#000000" font-family="sans-serif" font-size="13" font-weight="bold" lengthAdjust="spacingAndGlyphs" textLength="27" x="197.5" y="217.7153">opt</text><text fill="#000000" font-family="sans-serif" font-size="11" font-weight="bold" lengthAdjust="spacingAndGlyphs" textLength="175" x="269.5" y="216.8589">[processor_type == "visa"]</text><polygon fill="#A80036" points="320,238.9141,330,242.9141,320,246.9141,324,242.9141" style="stroke: #A80036; stroke-width: 1.0;"/><line style="stroke: #A80036; stroke-width: 1.0;" x1="256" x2="326" y1="242.9141" y2="242.9141"/><text fill="#000000" font-family="sans-serif" font-size="13" lengthAdjust="spacingAndGlyphs" textLength="24" x="263" y="237.8481">Pay</text><path d="M13,294.9141 L88,294.9141 L88,301.9141 L78,311.9141 L13,311.9141 L13,294.9141 " fill="#EEEEEE" style="stroke: #000000; stroke-width: 1.0;"/><rect fill="none" height="46.2656" style="stroke: #000000; stroke-width: 2.0;" width="306.5" x="13" y="294.9141"/><text fill="#000000" font-family="sans-serif" font-size="13" font-weight="bold" lengthAdjust="spacingAndGlyphs" textLength="30" x="28" y="307.981">else</text><polygon fill="#A80036" points="72,329.1797,62,333.1797,72,337.1797,68,333.1797" style="stroke: #A80036; stroke-width: 1.0;"/><line style="stroke: #A80036; stroke-width: 1.0; stroke-dasharray: 2.0,2.0;" x1="66" x2="245" y1="333.1797" y2="333.1797"/><text fill="#000000" font-family="sans-serif" font-size="13" lengthAdjust="spacingAndGlyphs" textLength="161" x="78" y="328.1138">500 &lt; NotSupportedError</text><polygon fill="#A80036" points="67,365.3125,57,369.3125,67,373.3125,63,369.3125" style="stroke: #A80036; stroke-width: 1.0;"/><line style="stroke: #A80036; stroke-width: 1.0; stroke-dasharray: 2.0,2.0;" x1="61" x2="250" y1="369.3125" y2="369.3125"/><text fill="#000000" font-family="sans-serif" font-size="13" lengthAdjust="spacingAndGlyphs" textLength="24" x="73" y="364.2466">200</text><!--MD5=[0165f37e2f9ed076dcd7b445b9d31629]
@startuml
''''''''''''''''''''''''''''''''''''''''''
''                                      ''
''  AUTOGENERATED CODE - - DO NOT EDIT!  ''
''                                      ''
''''''''''''''''''''''''''''''''''''''''''


boundary "Website" as _0
control "PaymentServer" as _1
control "Visa" as _2
skinparam maxMessageSize 250
title Website <- Pay
== Website <- Pay ==
[->_0 : Pay
activate _0
 _0->_1 : Pay
 activate _1
 opt processor_type == "visa"
   _1->_2 : Pay
   activate _2
   deactivate _2
 end
 group else
  _0<- -_1 : 500 < NotSupportedError
 end
 _0<- -_1 : 200
 deactivate _1
deactivate _0
@enduml

@startuml


boundary "Website" as _0
control "PaymentServer" as _1
control "Visa" as _2
skinparam maxMessageSize 250
title Website <- Pay
== Website <- Pay ==
[->_0 : Pay
activate _0
 _0->_1 : Pay
 activate _1
 opt processor_type == "visa"
   _1->_2 : Pay
   activate _2
   deactivate _2
 end
 group else
  _0<- -_1 : 500 < NotSupportedError
 end
 _0<- -_1 : 200
 deactivate _1
deactivate _0
@enduml

PlantUML version 1.2020.16beta7(Unknown compile time)
(GPL source distribution)
Java Runtime: Java(TM) SE Runtime Environment
JVM: Java HotSpot(TM) 64-Bit Server VM
Default Encoding: UTF-8
Language: en
Country: US
--></g></svg>