<?xml version="1.0" encoding="UTF-8" standalone="no"?><svg xmlns="http://www.w3.org/2000/svg" xmlns:xlink="http://www.w3.org/1999/xlink" contentScriptType="application/ecmascript" contentStyleType="text/css" height="411px" preserveAspectRatio="none" style="width:425px;height:411px;" version="1.1" viewBox="0 0 425 411" width="425px" zoomAndPan="magnify"><defs><filter height="300%" id="f117jx2dxpp6ps" width="300%" x="-1" y="-1"><feGaussianBlur result="blurOut" stdDeviation="2.0"/><feColorMatrix in="blurOut" result="blurOut2" type="matrix" values="0 0 0 0 0 0 0 0 0 0 0 0 0 0 0 0 0 0 .4 0"/><feOffset dx="4.0" dy="4.0" in="blurOut2" result="blurOut3"/><feBlend in="SourceGraphic" in2="blurOut3" mode="normal"/></filter></defs><g><text fill="#000000" font-family="sans-serif" font-size="18" lengthAdjust="spacingAndGlyphs" textLength="163" x="126.5" y="26.708">Website &lt;- Profile</text><rect fill="#FFFFFF" filter="url(#f117jx2dxpp6ps)" height="145.6641" style="stroke: #A80036; stroke-width: 1.0;" width="10" x="85" y="174.5156"/><rect fill="#FFFFFF" filter="url(#f117jx2dxpp6ps)" height="87.3984" style="stroke: #A80036; stroke-width: 1.0;" width="10" x="216" y="203.6484"/><rect fill="#FFFFFF" filter="url(#f117jx2dxpp6ps)" height="29.1328" style="stroke: #A80036; stroke-width: 1.0;" width="10" x="348" y="232.7813"/><line style="stroke: #A80036; stroke-width: 1.0; stroke-dasharray: 5.0,5.0;" x1="90" x2="90" y1="100.25" y2="338.1797"/><line style="stroke: #A80036; stroke-width: 1.0; stroke-dasharray: 5.0,5.0;" x1="221" x2="221" y1="100.25" y2="338.1797"/><line style="stroke: #A80036; stroke-width: 1.0; stroke-dasharray: 5.0,5.0;" x1="353" x2="353" y1="100.25" y2="338.1797"/><text fill="#000000" font-family="sans-serif" font-size="14" lengthAdjust="spacingAndGlyphs" textLength="56" x="59" y="96.9482">Website</text><path d="M69.5,55.9531 L69.5,79.9531 M69.5,67.9531 L86.5,67.9531 " fill="none" filter="url(#f117jx2dxpp6ps)" style="stroke: #A80036; stroke-width: 2.0;"/><ellipse cx="98.5" cy="67.9531" fill="#FEFECE" filter="url(#f117jx2dxpp6ps)" rx="12" ry="12" style="stroke: #A80036; stroke-width: 2.0;"/><text fill="#000000" font-family="sans-serif" font-size="14" lengthAdjust="spacingAndGlyphs" textLength="56" x="59" y="350.1748">Website</text><path d="M69.5,357.4766 L69.5,381.4766 M69.5,369.4766 L86.5,369.4766 " fill="none" filter="url(#f117jx2dxpp6ps)" style="stroke: #A80036; stroke-width: 2.0;"/><ellipse cx="98.5" cy="369.4766" fill="#FEFECE" filter="url(#f117jx2dxpp6ps)" rx="12" ry="12" style="stroke: #A80036; stroke-width: 2.0;"/><text fill="#000000" font-family="sans-serif" font-size="14" lengthAdjust="spacingAndGlyphs" textLength="94" x="171" y="96.9482">IdentityServer</text><ellipse cx="221" cy="67.9531" fill="#FEFECE" filter="url(#f117jx2dxpp6ps)" rx="12" ry="12" style="stroke: #A80036; stroke-width: 2.0;"/><polygon fill="#A80036" points="217,55.9531,223,50.9531,221,55.9531,223,60.9531,217,55.9531" style="stroke: #A80036; stroke-width: 1.0;"/><text fill="#000000" font-family="sans-serif" font-size="14" lengthAdjust="spacingAndGlyphs" textLength="94" x="171" y="350.1748">IdentityServer</text><ellipse cx="221" cy="369.4766" fill="#FEFECE" filter="url(#f117jx2dxpp6ps)" rx="12" ry="12" style="stroke: #A80036; stroke-width: 2.0;"/><polygon fill="#A80036" points="217,357.4766,223,352.4766,221,357.4766,223,362.4766,217,357.4766" style="stroke: #A80036; stroke-width: 1.0;"/><text fill="#000000" font-family="sans-serif" font-size="14" lengthAdjust="spacingAndGlyphs" textLength="104" x="298" y="96.9482">MegaDatabase</text><path d="M335,47.9531 C335,37.9531 353,37.9531 353,37.9531 C353,37.9531 371,37.9531 371,47.9531 L371,73.9531 C371,83.9531 353,83.9531 353,83.9531 C353,83.9531 335,83.9531 335,73.9531 L335,47.9531 " fill="#FEFECE" filter="url(#f117jx2dxpp6ps)" style="stroke: #000000; stroke-width: 1.5;"/><path d="M335,47.9531 C335,57.9531 353,57.9531 353,57.9531 C353,57.9531 371,57.9531 371,47.9531 " fill="none" style="stroke: #000000; stroke-width: 1.5;"/><text fill="#000000" font-family="sans-serif" font-size="14" lengthAdjust="spacingAndGlyphs" textLength="104" x="298" y="350.1748">MegaDatabase</text><path d="M335,363.4766 C335,353.4766 353,353.4766 353,353.4766 C353,353.4766 371,353.4766 371,363.4766 L371,389.4766 C371,399.4766 353,399.4766 353,399.4766 C353,399.4766 335,399.4766 335,389.4766 L335,363.4766 " fill="#FEFECE" filter="url(#f117jx2dxpp6ps)" style="stroke: #000000; stroke-width: 1.5;"/><path d="M335,363.4766 C335,373.4766 353,373.4766 353,373.4766 C353,373.4766 371,373.4766 371,363.4766 " fill="none" style="stroke: #000000; stroke-width: 1.5;"/><rect fill="#FFFFFF" filter="url(#f117jx2dxpp6ps)" height="145.6641" style="stroke: #A80036; stroke-width: 1.0;" width="10" x="85" y="174.5156"/><rect fill="#FFFFFF" filter="url(#f117jx2dxpp6ps)" height="87.3984" style="stroke: #A80036; stroke-width: 1.0;" width="10" x="216" y="203.6484"/><rect fill="#FFFFFF" filter="url(#f117jx2dxpp6ps)" height="29.1328" style="stroke: #A80036; stroke-width: 1.0;" width="10" x="348" y="232.7813"/><rect fill="#EEEEEE" filter="url(#f117jx2dxpp6ps)" height="3" style="stroke: #EEEEEE; stroke-width: 1.0;" width="410" x="3" y="130.8164"/><line style="stroke: #000000; stroke-width: 1.0;" x1="3" x2="413" y1="130.8164" y2="130.8164"/><line style="stroke: #000000; stroke-width: 1.0;" x1="3" x2="413" y1="133.8164" y2="133.8164"/><rect fill="#EEEEEE" filter="url(#f117jx2dxpp6ps)" height="23.1328" style="stroke: #000000; stroke-width: 2.0;" width="153" x="131.5" y="120.25"/><text fill="#000000" font-family="sans-serif" font-size="13" font-weight="bold" lengthAdjust="spacingAndGlyphs" textLength="134" x="137.5" y="136.3169">Website &lt;- Profile</text><polygon fill="#A80036" points="73,170.5156,83,174.5156,73,178.5156,77,174.5156" style="stroke: #A80036; stroke-width: 1.0;"/><line style="stroke: #A80036; stroke-width: 1.0;" x1="3" x2="79" y1="174.5156" y2="174.5156"/><text fill="#000000" font-family="sans-serif" font-size="13" lengthAdjust="spacingAndGlyphs" textLength="39" x="10" y="169.4497">Profile</text><polygon fill="#A80036" points="204,199.6484,214,203.6484,204,207.6484,208,203.6484" style="stroke: #A80036; stroke-width: 1.0;"/><line style="stroke: #A80036; stroke-width: 1.0;" x1="95" x2="210" y1="203.6484" y2="203.6484"/><text fill="#000000" font-family="sans-serif" font-size="13" lengthAdjust="spacingAndGlyphs" textLength="102" x="102" y="198.5825">CustomerProfile</text><polygon fill="#A80036" points="336,228.7813,346,232.7813,336,236.7813,340,232.7813" style="stroke: #A80036; stroke-width: 1.0;"/><line style="stroke: #A80036; stroke-width: 1.0;" x1="226" x2="342" y1="232.7813" y2="232.7813"/><text fill="#000000" font-family="sans-serif" font-size="13" lengthAdjust="spacingAndGlyphs" textLength="103" x="233" y="227.7153">SelectCustomer</text><polygon fill="#A80036" points="237,257.9141,227,261.9141,237,265.9141,233,261.9141" style="stroke: #A80036; stroke-width: 1.0;"/><line style="stroke: #A80036; stroke-width: 1.0; stroke-dasharray: 2.0,2.0;" x1="231" x2="352" y1="261.9141" y2="261.9141"/><text fill="#000000" font-family="sans-serif" font-size="13" lengthAdjust="spacingAndGlyphs" textLength="15" x="243" y="256.8481">ok</text><polygon fill="#A80036" points="106,287.0469,96,291.0469,106,295.0469,102,291.0469" style="stroke: #A80036; stroke-width: 1.0;"/><line style="stroke: #A80036; stroke-width: 1.0; stroke-dasharray: 2.0,2.0;" x1="100" x2="220" y1="291.0469" y2="291.0469"/><text fill="#000000" font-family="sans-serif" font-size="13" lengthAdjust="spacingAndGlyphs" textLength="63" x="112" y="285.981">Customer</text><polygon fill="#A80036" points="14,316.1797,4,320.1797,14,324.1797,10,320.1797" style="stroke: #A80036; stroke-width: 1.0;"/><line style="stroke: #A80036; stroke-width: 1.0; stroke-dasharray: 2.0,2.0;" x1="8" x2="89" y1="320.1797" y2="320.1797"/><text fill="#000000" font-family="sans-serif" font-size="13" lengthAdjust="spacingAndGlyphs" textLength="63" x="20" y="315.1138">Customer</text><!--MD5=[06e32468585c79d05e06e7cc1d9ae597]
@startuml
''''''''''''''''''''''''''''''''''''''''''
''                                      ''
''  AUTOGENERATED CODE - - DO NOT EDIT!  ''
''                                      ''
''''''''''''''''''''''''''''''''''''''''''


boundary "Website" as _0
control "IdentityServer" as _1
database "MegaDatabase" as _2
skinparam maxMessageSize 250
title Website <- Profile
== Website <- Profile ==
[->_0 : Profile
activate _0
 _0->_1 : CustomerProfile
 activate _1
  _1->_2 : SelectCustomer
  activate _2
  _1<- -_2 : ok
  deactivate _2
 _0<- -_1 : Customer
 deactivate _1
[<- -_0 : Customer
deactivate _0
@enduml

@startuml


boundary "Website" as _0
control "IdentityServer" as _1
database "MegaDatabase" as _2
skinparam maxMessageSize 250
title Website <- Profile
== Website <- Profile ==
[->_0 : Profile
activate _0
 _0->_1 : CustomerProfile
 activate _1
  _1->_2 : SelectCustomer
  activate _2
  _1<- -_2 : ok
  deactivate _2
 _0<- -_1 : Customer
 deactivate _1
[<- -_0 : Customer
deactivate _0
@enduml

PlantUML version 1.2020.15(Sun Jun 28 11:39:45 UTC 2020)
(GPL source distribution)
Java Runtime: OpenJDK Runtime Environment
JVM: OpenJDK 64-Bit Server VM
Default Encoding: UTF-8
Language: en
Country: null
--></g></svg>