<?xml version="1.0" encoding="UTF-8" standalone="no"?><svg xmlns="http://www.w3.org/2000/svg" xmlns:xlink="http://www.w3.org/1999/xlink" contentScriptType="application/ecmascript" contentStyleType="text/css" height="382px" preserveAspectRatio="none" style="width:390px;height:382px;" version="1.1" viewBox="0 0 390 382" width="390px" zoomAndPan="magnify"><defs><filter height="300%" id="f1irk2b8qzj8iw" width="300%" x="-1" y="-1"><feGaussianBlur result="blurOut" stdDeviation="2.0"/><feColorMatrix in="blurOut" result="blurOut2" type="matrix" values="0 0 0 0 0 0 0 0 0 0 0 0 0 0 0 0 0 0 .4 0"/><feOffset dx="4.0" dy="4.0" in="blurOut2" result="blurOut3"/><feBlend in="SourceGraphic" in2="blurOut3" mode="normal"/></filter></defs><g><text fill="#000000" font-family="sans-serif" font-size="18" lengthAdjust="spacingAndGlyphs" textLength="166" x="107.5" y="26.708">Website &lt;- Signup</text><rect fill="#FFFFFF" filter="url(#f1irk2b8qzj8iw)" height="116.5313" style="stroke: #A80036; stroke-width: 1.0;" width="10" x="66" y="174.5156"/><rect fill="#FFFFFF" filter="url(#f1irk2b8qzj8iw)" height="87.3984" style="stroke: #A80036; stroke-width: 1.0;" width="10" x="185" y="203.6484"/><rect fill="#FFFFFF" filter="url(#f1irk2b8qzj8iw)" height="29.1328" style="stroke: #A80036; stroke-width: 1.0;" width="10" x="313" y="232.7813"/><line style="stroke: #A80036; stroke-width: 1.0; stroke-dasharray: 5.0,5.0;" x1="71" x2="71" y1="100.25" y2="309.0469"/><line style="stroke: #A80036; stroke-width: 1.0; stroke-dasharray: 5.0,5.0;" x1="190" x2="190" y1="100.25" y2="309.0469"/><line style="stroke: #A80036; stroke-width: 1.0; stroke-dasharray: 5.0,5.0;" x1="318" x2="318" y1="100.25" y2="309.0469"/><text fill="#000000" font-family="sans-serif" font-size="14" lengthAdjust="spacingAndGlyphs" textLength="56" x="40" y="96.9482">Website</text><path d="M50.5,55.9531 L50.5,79.9531 M50.5,67.9531 L67.5,67.9531 " fill="none" filter="url(#f1irk2b8qzj8iw)" style="stroke: #A80036; stroke-width: 2.0;"/><ellipse cx="79.5" cy="67.9531" fill="#FEFECE" filter="url(#f1irk2b8qzj8iw)" rx="12" ry="12" style="stroke: #A80036; stroke-width: 2.0;"/><text fill="#000000" font-family="sans-serif" font-size="14" lengthAdjust="spacingAndGlyphs" textLength="56" x="40" y="321.042">Website</text><path d="M50.5,328.3438 L50.5,352.3438 M50.5,340.3438 L67.5,340.3438 " fill="none" filter="url(#f1irk2b8qzj8iw)" style="stroke: #A80036; stroke-width: 2.0;"/><ellipse cx="79.5" cy="340.3438" fill="#FEFECE" filter="url(#f1irk2b8qzj8iw)" rx="12" ry="12" style="stroke: #A80036; stroke-width: 2.0;"/><text fill="#000000" font-family="sans-serif" font-size="14" lengthAdjust="spacingAndGlyphs" textLength="94" x="140" y="96.9482">IdentityServer</text><ellipse cx="190" cy="67.9531" fill="#FEFECE" filter="url(#f1irk2b8qzj8iw)" rx="12" ry="12" style="stroke: #A80036; stroke-width: 2.0;"/><polygon fill="#A80036" points="186,55.9531,192,50.9531,190,55.9531,192,60.9531,186,55.9531" style="stroke: #A80036; stroke-width: 1.0;"/><text fill="#000000" font-family="sans-serif" font-size="14" lengthAdjust="spacingAndGlyphs" textLength="94" x="140" y="321.042">IdentityServer</text><ellipse cx="190" cy="340.3438" fill="#FEFECE" filter="url(#f1irk2b8qzj8iw)" rx="12" ry="12" style="stroke: #A80036; stroke-width: 2.0;"/><polygon fill="#A80036" points="186,328.3438,192,323.3438,190,328.3438,192,333.3438,186,328.3438" style="stroke: #A80036; stroke-width: 1.0;"/><text fill="#000000" font-family="sans-serif" font-size="14" lengthAdjust="spacingAndGlyphs" textLength="104" x="263" y="96.9482">MegaDatabase</text><path d="M300,47.9531 C300,37.9531 318,37.9531 318,37.9531 C318,37.9531 336,37.9531 336,47.9531 L336,73.9531 C336,83.9531 318,83.9531 318,83.9531 C318,83.9531 300,83.9531 300,73.9531 L300,47.9531 " fill="#FEFECE" filter="url(#f1irk2b8qzj8iw)" style="stroke: #000000; stroke-width: 1.5;"/><path d="M300,47.9531 C300,57.9531 318,57.9531 318,57.9531 C318,57.9531 336,57.9531 336,47.9531 " fill="none" style="stroke: #000000; stroke-width: 1.5;"/><text fill="#000000" font-family="sans-serif" font-size="14" lengthAdjust="spacingAndGlyphs" textLength="104" x="263" y="321.042">MegaDatabase</text><path d="M300,334.3438 C300,324.3438 318,324.3438 318,324.3438 C318,324.3438 336,324.3438 336,334.3438 L336,360.3438 C336,370.3438 318,370.3438 318,370.3438 C318,370.3438 300,370.3438 300,360.3438 L300,334.3438 " fill="#FEFECE" filter="url(#f1irk2b8qzj8iw)" style="stroke: #000000; stroke-width: 1.5;"/><path d="M300,334.3438 C300,344.3438 318,344.3438 318,344.3438 C318,344.3438 336,344.3438 336,334.3438 " fill="none" style="stroke: #000000; stroke-width: 1.5;"/><rect fill="#FFFFFF" filter="url(#f1irk2b8qzj8iw)" height="116.5313" style="stroke: #A80036; stroke-width: 1.0;" width="10" x="66" y="174.5156"/><rect fill="#FFFFFF" filter="url(#f1irk2b8qzj8iw)" height="87.3984" style="stroke: #A80036; stroke-width: 1.0;" width="10" x="185" y="203.6484"/><rect fill="#FFFFFF" filter="url(#f1irk2b8qzj8iw)" height="29.1328" style="stroke: #A80036; stroke-width: 1.0;" width="10" x="313" y="232.7813"/><rect fill="#EEEEEE" filter="url(#f1irk2b8qzj8iw)" height="3" style="stroke: #EEEEEE; stroke-width: 1.0;" width="375" x="3" y="130.8164"/><line style="stroke: #000000; stroke-width: 1.0;" x1="3" x2="378" y1="130.8164" y2="130.8164"/><line style="stroke: #000000; stroke-width: 1.0;" x1="3" x2="378" y1="133.8164" y2="133.8164"/><rect fill="#EEEEEE" filter="url(#f1irk2b8qzj8iw)" height="23.1328" style="stroke: #000000; stroke-width: 2.0;" width="156" x="112.5" y="120.25"/><text fill="#000000" font-family="sans-serif" font-size="13" font-weight="bold" lengthAdjust="spacingAndGlyphs" textLength="137" x="118.5" y="136.3169">Website &lt;- Signup</text><polygon fill="#A80036" points="54,170.5156,64,174.5156,54,178.5156,58,174.5156" style="stroke: #A80036; stroke-width: 1.0;"/><line style="stroke: #A80036; stroke-width: 1.0;" x1="3" x2="60" y1="174.5156" y2="174.5156"/><text fill="#000000" font-family="sans-serif" font-size="13" lengthAdjust="spacingAndGlyphs" textLength="44" x="10" y="169.4497">Signup</text><polygon fill="#A80036" points="173,199.6484,183,203.6484,173,207.6484,177,203.6484" style="stroke: #A80036; stroke-width: 1.0;"/><line style="stroke: #A80036; stroke-width: 1.0;" x1="76" x2="179" y1="203.6484" y2="203.6484"/><text fill="#000000" font-family="sans-serif" font-size="13" lengthAdjust="spacingAndGlyphs" textLength="90" x="83" y="198.5825">NewCustomer</text><polygon fill="#A80036" points="301,228.7813,311,232.7813,301,236.7813,305,232.7813" style="stroke: #A80036; stroke-width: 1.0;"/><line style="stroke: #A80036; stroke-width: 1.0;" x1="195" x2="307" y1="232.7813" y2="232.7813"/><text fill="#000000" font-family="sans-serif" font-size="13" lengthAdjust="spacingAndGlyphs" textLength="99" x="202" y="227.7153">InsertCustomer</text><polygon fill="#A80036" points="206,257.9141,196,261.9141,206,265.9141,202,261.9141" style="stroke: #A80036; stroke-width: 1.0;"/><line style="stroke: #A80036; stroke-width: 1.0; stroke-dasharray: 2.0,2.0;" x1="200" x2="317" y1="261.9141" y2="261.9141"/><text fill="#000000" font-family="sans-serif" font-size="13" lengthAdjust="spacingAndGlyphs" textLength="15" x="212" y="256.8481">ok</text><polygon fill="#A80036" points="82,287.0469,72,291.0469,82,295.0469,78,291.0469" style="stroke: #A80036; stroke-width: 1.0;"/><line style="stroke: #A80036; stroke-width: 1.0; stroke-dasharray: 2.0,2.0;" x1="76" x2="189" y1="291.0469" y2="291.0469"/><text fill="#000000" font-family="sans-serif" font-size="13" lengthAdjust="spacingAndGlyphs" textLength="63" x="88" y="285.981">Customer</text><!--MD5=[5d1f4fd388a8dbbda583e08f69b5a5b3]
@startuml
''''''''''''''''''''''''''''''''''''''''''
''                                      ''
''  AUTOGENERATED CODE - - DO NOT EDIT!  ''
''                                      ''
''''''''''''''''''''''''''''''''''''''''''


boundary "Website" as _0
control "IdentityServer" as _1
database "MegaDatabase" as _2
skinparam maxMessageSize 250
title Website <- Signup
== Website <- Signup ==
[->_0 : Signup
activate _0
 _0->_1 : NewCustomer
 activate _1
  _1->_2 : InsertCustomer
  activate _2
  _1<- -_2 : ok
  deactivate _2
 _0<- -_1 : Customer
 deactivate _1
deactivate _0
@enduml

@startuml


boundary "Website" as _0
control "IdentityServer" as _1
database "MegaDatabase" as _2
skinparam maxMessageSize 250
title Website <- Signup
== Website <- Signup ==
[->_0 : Signup
activate _0
 _0->_1 : NewCustomer
 activate _1
  _1->_2 : InsertCustomer
  activate _2
  _1<- -_2 : ok
  deactivate _2
 _0<- -_1 : Customer
 deactivate _1
deactivate _0
@enduml

PlantUML version 1.2020.15(Sun Jun 28 11:39:45 UTC 2020)
(GPL source distribution)
Java Runtime: OpenJDK Runtime Environment
JVM: OpenJDK 64-Bit Server VM
Default Encoding: UTF-8
Language: en
Country: null
--></g></svg>