<?xml version="1.0" encoding="UTF-8" standalone="no"?><svg xmlns="http://www.w3.org/2000/svg" xmlns:xlink="http://www.w3.org/1999/xlink" contentScriptType="application/ecmascript" contentStyleType="text/css" height="118px" preserveAspectRatio="none" style="width:157px;height:118px;" version="1.1" viewBox="0 0 157 118" width="157px" zoomAndPan="magnify"><defs><filter height="300%" id="f1xzensq6izq6f" width="300%" x="-1" y="-1"><feGaussianBlur result="blurOut" stdDeviation="2.0"/><feColorMatrix in="blurOut" result="blurOut2" type="matrix" values="0 0 0 0 0 0 0 0 0 0 0 0 0 0 0 0 0 0 .4 0"/><feOffset dx="4.0" dy="4.0" in="blurOut2" result="blurOut3"/><feBlend in="SourceGraphic" in2="blurOut3" mode="normal"/></filter></defs><g><!--MD5=[f77682fd75c3e1fc6a82f566c0814d0f]
class _0--><rect fill="#FEFECE" filter="url(#f1xzensq6izq6f)" height="92.3516" id="_0" style="stroke: #A80036; stroke-width: 1.5;" width="131" x="7" y="7"/><ellipse cx="24.25" cy="25.9688" fill="#DA70D6" rx="11" ry="11" style="stroke: #A80036; stroke-width: 1.0;"/><path d="M23.8438,21.7813 L23.8438,29.7656 L24.5,29.7656 Q25.9375,29.7656 26.5469,28.8594 Q27.1719,27.9375 27.1719,25.7656 Q27.1719,23.5938 26.5469,22.6875 Q25.9375,21.7813 24.5,21.7813 L23.8438,21.7813 Z M21.3906,19.5781 L24.0156,19.5781 Q27.0469,19.5781 28.375,21.0313 Q29.7188,22.4688 29.7188,25.7656 Q29.7188,29.0625 28.375,30.5156 Q27.0469,31.9688 24.0156,31.9688 L21.3906,31.9688 L21.3906,19.5781 Z "/><text fill="#000000" font-family="sans-serif" font-size="12" font-style="italic" lengthAdjust="spacingAndGlyphs" textLength="98" x="36.75" y="23.1387">«OrderProduct»</text><text fill="#000000" font-family="sans-serif" font-size="12" lengthAdjust="spacingAndGlyphs" textLength="84" x="43.75" y="37.1074">OrderProduct</text><line style="stroke: #A80036; stroke-width: 1.5;" x1="8" x2="137" y1="44.9375" y2="44.9375"/><ellipse cx="18" cy="55.9375" fill="none" rx="3" ry="3" style="stroke: #038048; stroke-width: 1.0;"/><text fill="#000000" font-family="sans-serif" font-size="11" lengthAdjust="spacingAndGlyphs" textLength="105" x="27" y="59.1479">comments : string</text><ellipse cx="18" cy="68.7422" fill="none" rx="3" ry="3" style="stroke: #038048; stroke-width: 1.0;"/><text fill="#000000" font-family="sans-serif" font-size="11" lengthAdjust="spacingAndGlyphs" textLength="85" x="27" y="71.9526">product_id : int</text><ellipse cx="18" cy="81.5469" fill="none" rx="3" ry="3" style="stroke: #038048; stroke-width: 1.0;"/><text fill="#000000" font-family="sans-serif" font-size="11" lengthAdjust="spacingAndGlyphs" textLength="71" x="27" y="84.7573">quantity : int</text><line style="stroke: #A80036; stroke-width: 1.5;" x1="8" x2="137" y1="91.3516" y2="91.3516"/><!--MD5=[9e9a2634f5f66a1bceaa912a56e3af52]
@startuml
''''''''''''''''''''''''''''''''''''''''''
''                                      ''
''  AUTOGENERATED CODE - - DO NOT EDIT!  ''
''                                      ''
''''''''''''''''''''''''''''''''''''''''''

class "OrderProduct" as _0 << (D,orchid) OrderProduct >> {
+ comments : string
+ product_id : int
+ quantity : int
}
@enduml

@startuml

class "OrderProduct" as _0 << (D,orchid) OrderProduct >> {
+ comments : string
+ product_id : int
+ quantity : int
}
@enduml

PlantUML version 1.2020.15(Sun Jun 28 11:39:45 UTC 2020)
(GPL source distribution)
Java Runtime: OpenJDK Runtime Environment
JVM: OpenJDK 64-Bit Server VM
Default Encoding: UTF-8
Language: en
Country: null
--></g></svg>