<?xml version="1.0" encoding="UTF-8" standalone="no"?><svg xmlns="http://www.w3.org/2000/svg" xmlns:xlink="http://www.w3.org/1999/xlink" contentScriptType="application/ecmascript" contentStyleType="text/css" height="322px" preserveAspectRatio="none" style="width:492px;height:322px;" version="1.1" viewBox="0 0 492 322" width="492px" zoomAndPan="magnify"><defs><filter height="300%" id="f12fkopm5n60v2" width="300%" x="-1" y="-1"><feGaussianBlur result="blurOut" stdDeviation="2.0"/><feColorMatrix in="blurOut" result="blurOut2" type="matrix" values="0 0 0 0 0 0 0 0 0 0 0 0 0 0 0 0 0 0 .4 0"/><feOffset dx="4.0" dy="4.0" in="blurOut2" result="blurOut3"/><feBlend in="SourceGraphic" in2="blurOut3" mode="normal"/></filter></defs><g><!--MD5=[f77682fd75c3e1fc6a82f566c0814d0f]
class _0--><rect fill="#FEFECE" filter="url(#f12fkopm5n60v2)" height="143.5703" id="_0" style="stroke: #A80036; stroke-width: 1.5;" width="240" x="114.5" y="7"/><ellipse cx="168.25" cy="25.9688" fill="#DA70D6" rx="11" ry="11" style="stroke: #A80036; stroke-width: 1.0;"/><path d="M167.8438,21.7813 L167.8438,29.7656 L168.5,29.7656 Q169.9375,29.7656 170.5469,28.8594 Q171.1719,27.9375 171.1719,25.7656 Q171.1719,23.5938 170.5469,22.6875 Q169.9375,21.7813 168.5,21.7813 L167.8438,21.7813 Z M165.3906,19.5781 L168.0156,19.5781 Q171.0469,19.5781 172.375,21.0313 Q173.7188,22.4688 173.7188,25.7656 Q173.7188,29.0625 172.375,30.5156 Q171.0469,31.9688 168.0156,31.9688 L165.3906,31.9688 L165.3906,19.5781 Z "/><text fill="#000000" font-family="sans-serif" font-size="12" font-style="italic" lengthAdjust="spacingAndGlyphs" textLength="128" x="186.75" y="23.1387">«OrderServer.Order»</text><text fill="#000000" font-family="sans-serif" font-size="12" lengthAdjust="spacingAndGlyphs" textLength="35" x="233.25" y="37.1074">Order</text><line style="stroke: #A80036; stroke-width: 1.5;" x1="115.5" x2="353.5" y1="44.9375" y2="44.9375"/><ellipse cx="125.5" cy="55.9375" fill="none" rx="3" ry="3" style="stroke: #038048; stroke-width: 1.0;"/><text fill="#000000" font-family="sans-serif" font-size="11" lengthAdjust="spacingAndGlyphs" textLength="36" x="134.5" y="59.1479">id : int</text><ellipse cx="125.5" cy="68.7422" fill="none" rx="3" ry="3" style="stroke: #038048; stroke-width: 1.0;"/><text fill="#000000" font-family="sans-serif" font-size="11" lengthAdjust="spacingAndGlyphs" textLength="40" x="134.5" y="71.9526">items :</text><text fill="#000000" font-family="sans-serif" font-size="11" font-weight="bold" lengthAdjust="spacingAndGlyphs" textLength="170" x="178.5" y="71.9526">Sequence &lt;OrderProduct&gt;</text><ellipse cx="125.5" cy="81.5469" fill="none" rx="3" ry="3" style="stroke: #038048; stroke-width: 1.0;"/><text fill="#000000" font-family="sans-serif" font-size="11" lengthAdjust="spacingAndGlyphs" textLength="60" x="134.5" y="84.7573">paid : bool</text><ellipse cx="125.5" cy="94.3516" fill="none" rx="3" ry="3" style="stroke: #038048; stroke-width: 1.0;"/><text fill="#000000" font-family="sans-serif" font-size="11" lengthAdjust="spacingAndGlyphs" textLength="141" x="134.5" y="97.562">review_comment : string</text><ellipse cx="125.5" cy="107.1563" fill="none" rx="3" ry="3" style="stroke: #038048; stroke-width: 1.0;"/><text fill="#000000" font-family="sans-serif" font-size="11" lengthAdjust="spacingAndGlyphs" textLength="101" x="134.5" y="110.3667">review_score : int</text><ellipse cx="125.5" cy="119.9609" fill="none" rx="3" ry="3" style="stroke: #038048; stroke-width: 1.0;"/><text fill="#000000" font-family="sans-serif" font-size="11" lengthAdjust="spacingAndGlyphs" textLength="44" x="134.5" y="123.1714">status :</text><text fill="#000000" font-family="sans-serif" font-size="11" font-weight="bold" lengthAdjust="spacingAndGlyphs" textLength="77" x="182.5" y="123.1714">OrderStatus</text><ellipse cx="125.5" cy="132.7656" fill="none" rx="3" ry="3" style="stroke: #038048; stroke-width: 1.0;"/><text fill="#000000" font-family="sans-serif" font-size="11" lengthAdjust="spacingAndGlyphs" textLength="85" x="134.5" y="135.9761">total_price : int</text><line style="stroke: #A80036; stroke-width: 1.5;" x1="115.5" x2="353.5" y1="142.5703" y2="142.5703"/><!--MD5=[37d6e5304215b5e345f427169db70937]
class _1--><rect fill="#FEFECE" filter="url(#f12fkopm5n60v2)" height="92.3516" id="_1" style="stroke: #A80036; stroke-width: 1.5;" width="205" x="7" y="211"/><ellipse cx="22" cy="229.9688" fill="#DA70D6" rx="11" ry="11" style="stroke: #A80036; stroke-width: 1.0;"/><path d="M21.5938,225.7813 L21.5938,233.7656 L22.25,233.7656 Q23.6875,233.7656 24.2969,232.8594 Q24.9219,231.9375 24.9219,229.7656 Q24.9219,227.5938 24.2969,226.6875 Q23.6875,225.7813 22.25,225.7813 L21.5938,225.7813 Z M19.1406,223.5781 L21.7656,223.5781 Q24.7969,223.5781 26.125,225.0313 Q27.4688,226.4688 27.4688,229.7656 Q27.4688,233.0625 26.125,234.5156 Q24.7969,235.9688 21.7656,235.9688 L19.1406,235.9688 L19.1406,223.5781 Z "/><text fill="#000000" font-family="sans-serif" font-size="12" font-style="italic" lengthAdjust="spacingAndGlyphs" textLength="177" x="34" y="227.1387">«OrderServer.OrderProduct»</text><text fill="#000000" font-family="sans-serif" font-size="12" lengthAdjust="spacingAndGlyphs" textLength="34" x="105.5" y="241.1074">items</text><line style="stroke: #A80036; stroke-width: 1.5;" x1="8" x2="211" y1="248.9375" y2="248.9375"/><ellipse cx="18" cy="259.9375" fill="none" rx="3" ry="3" style="stroke: #038048; stroke-width: 1.0;"/><text fill="#000000" font-family="sans-serif" font-size="11" lengthAdjust="spacingAndGlyphs" textLength="105" x="27" y="263.1479">comments : string</text><ellipse cx="18" cy="272.7422" fill="none" rx="3" ry="3" style="stroke: #038048; stroke-width: 1.0;"/><text fill="#000000" font-family="sans-serif" font-size="11" lengthAdjust="spacingAndGlyphs" textLength="85" x="27" y="275.9526">product_id : int</text><ellipse cx="18" cy="285.5469" fill="none" rx="3" ry="3" style="stroke: #038048; stroke-width: 1.0;"/><text fill="#000000" font-family="sans-serif" font-size="11" lengthAdjust="spacingAndGlyphs" textLength="71" x="27" y="288.7573">quantity : int</text><line style="stroke: #A80036; stroke-width: 1.5;" x1="8" x2="211" y1="295.3516" y2="295.3516"/><!--MD5=[95d1cea1cd7f69d371fe62aa72675e9c]
class _2--><rect fill="#FEFECE" filter="url(#f12fkopm5n60v2)" height="48" id="_2" style="stroke: #A80036; stroke-width: 1.5;" width="226" x="247.5" y="233"/><ellipse cx="262.5" cy="249" fill="#DA70D6" rx="11" ry="11" style="stroke: #A80036; stroke-width: 1.0;"/><path d="M262.0938,244.8125 L262.0938,252.7969 L262.75,252.7969 Q264.1875,252.7969 264.7969,251.8906 Q265.4219,250.9688 265.4219,248.7969 Q265.4219,246.625 264.7969,245.7188 Q264.1875,244.8125 262.75,244.8125 L262.0938,244.8125 Z M259.6406,242.6094 L262.2656,242.6094 Q265.2969,242.6094 266.625,244.0625 Q267.9688,245.5 267.9688,248.7969 Q267.9688,252.0938 266.625,253.5469 Q265.2969,255 262.2656,255 L259.6406,255 L259.6406,242.6094 Z "/><text fill="#000000" font-family="sans-serif" font-size="12" lengthAdjust="spacingAndGlyphs" textLength="194" x="276.5" y="253.1543">OrderServer.OrderStatus enum</text><line style="stroke: #A80036; stroke-width: 1.5;" x1="248.5" x2="472.5" y1="265" y2="265"/><line style="stroke: #A80036; stroke-width: 1.5;" x1="248.5" x2="472.5" y1="273" y2="273"/><!--MD5=[bde1413f829cc278731640fabc810278]
reverse link _0 to _1--><path d="M176.1497,162.0909 C164.3802,178.8506 152.4135,195.8911 141.9291,210.8209 " fill="none" id="_0&lt;-_1" style="stroke: #A80036; stroke-width: 1.0;"/><polygon fill="#A80036" points="183.8379,151.1428,177.1163,153.7542,176.9415,160.9632,183.6632,158.3518,183.8379,151.1428" style="stroke: #A80036; stroke-width: 1.0;"/><text fill="#000000" font-family="sans-serif" font-size="13" lengthAdjust="spacingAndGlyphs" textLength="23" x="122.0031" y="199.9876">0..*</text><!--MD5=[eed656a2cfbc263ae3905a2379d727ae]
reverse link _0 to _2--><path d="M293.1128,161.8022 C311.4764,187.7444 330.3395,214.3923 343.4206,232.8719 " fill="none" id="_0&lt;-_2" style="stroke: #A80036; stroke-width: 1.0;"/><polygon fill="#A80036" points="285.5674,151.1428,285.7691,158.3511,292.5005,160.9373,292.2988,153.729,285.5674,151.1428" style="stroke: #A80036; stroke-width: 1.0;"/><text fill="#000000" font-family="sans-serif" font-size="13" lengthAdjust="spacingAndGlyphs" textLength="24" x="307.4565" y="221.8511">1..1</text><!--MD5=[6380324b2a033ff7a13e9d3c52e1dd3f]
@startuml
''''''''''''''''''''''''''''''''''''''''''
''                                      ''
''  AUTOGENERATED CODE - - DO NOT EDIT!  ''
''                                      ''
''''''''''''''''''''''''''''''''''''''''''

class "Order" as _0 << (D,orchid) OrderServer.Order >> {
+ id : int
+ items : **Sequence <OrderProduct>**
+ paid : bool
+ review_comment : string
+ review_score : int
+ status : **OrderStatus**
+ total_price : int
}
class "items" as _1 << (D,orchid) OrderServer.OrderProduct >> {
+ comments : string
+ product_id : int
+ quantity : int
}
class "OrderServer.OrderStatus enum" as _2<< (D,orchid) >> {
}
_0 *- - "0..*" _1
_0 *- - "1..1 " _2
@enduml

@startuml

class "Order" as _0 << (D,orchid) OrderServer.Order >> {
+ id : int
+ items : **Sequence <OrderProduct>**
+ paid : bool
+ review_comment : string
+ review_score : int
+ status : **OrderStatus**
+ total_price : int
}
class "items" as _1 << (D,orchid) OrderServer.OrderProduct >> {
+ comments : string
+ product_id : int
+ quantity : int
}
class "OrderServer.OrderStatus enum" as _2<< (D,orchid) >> {
}
_0 *- - "0..*" _1
_0 *- - "1..1 " _2
@enduml

PlantUML version 1.2020.15(Sun Jun 28 11:39:45 UTC 2020)
(GPL source distribution)
Java Runtime: OpenJDK Runtime Environment
JVM: OpenJDK 64-Bit Server VM
Default Encoding: UTF-8
Language: en
Country: null
--></g></svg>