<?xml version="1.0" encoding="UTF-8" standalone="no"?><svg xmlns="http://www.w3.org/2000/svg" xmlns:xlink="http://www.w3.org/1999/xlink" contentScriptType="application/ecmascript" contentStyleType="text/css" height="169px" preserveAspectRatio="none" style="width:272px;height:169px;" version="1.1" viewBox="0 0 272 169" width="272px" zoomAndPan="magnify"><defs><filter height="300%" id="f1k6zjt0re31s2" width="300%" x="-1" y="-1"><feGaussianBlur result="blurOut" stdDeviation="2.0"/><feColorMatrix in="blurOut" result="blurOut2" type="matrix" values="0 0 0 0 0 0 0 0 0 0 0 0 0 0 0 0 0 0 .4 0"/><feOffset dx="4.0" dy="4.0" in="blurOut2" result="blurOut3"/><feBlend in="SourceGraphic" in2="blurOut3" mode="normal"/></filter></defs><g><!--MD5=[f77682fd75c3e1fc6a82f566c0814d0f]
class _0--><rect codeLine="7" fill="#FEFECE" filter="url(#f1k6zjt0re31s2)" height="143.5703" id="_0" style="stroke: #A80036; stroke-width: 1.5;" width="246" x="7" y="7"/><ellipse cx="103.75" cy="25.9688" fill="#DA70D6" rx="11" ry="11" style="stroke: #A80036; stroke-width: 1.0;"/><path d="M101.2656,29.2656 C100.6094,29.2656 100.2188,29.5781 100.2188,30.125 C100.2188,30.375 100.3594,30.6406 100.5781,30.7969 C100.7344,30.9219 100.9531,30.9688 101.3594,30.9688 L104.8281,30.9688 C106.3125,30.9688 107.3281,30.5781 108.1563,29.6875 C108.9375,28.875 109.3438,27.8281 109.3438,26.5781 L109.3438,25.7813 C109.3438,23.1094 107.4531,21.0625 104.9688,21.0625 L101.3594,21.0625 C100.9063,21.0625 100.7813,21.0781 100.625,21.1719 C100.375,21.3281 100.2188,21.625 100.2188,21.9063 C100.2188,22.4531 100.5938,22.75 101.2656,22.75 L101.2656,29.2656 Z M102.9531,29.2656 L102.9531,22.75 L104.8281,22.75 C105.7344,22.75 106.375,23.0313 106.8906,23.625 C107.375,24.2031 107.6563,24.9531 107.6563,25.75 L107.6563,26.5313 C107.6563,27.4063 107.4219,28 106.9531,28.5156 C106.4219,29.0625 105.8594,29.2656 104.8438,29.2656 L102.9531,29.2656 Z "/><text fill="#000000" font-family="sans-serif" font-size="12" font-style="italic" lengthAdjust="spacingAndGlyphs" textLength="48" x="122.25" y="23.1387">«Order»</text><text fill="#000000" font-family="sans-serif" font-size="12" lengthAdjust="spacingAndGlyphs" textLength="36" x="128.25" y="37.1074">Order</text><line style="stroke: #A80036; stroke-width: 1.5;" x1="8" x2="252" y1="44.9375" y2="44.9375"/><ellipse cx="18" cy="55.9375" fill="none" rx="3" ry="3" style="stroke: #038048; stroke-width: 1.0;"/><text fill="#000000" font-family="sans-serif" font-size="11" lengthAdjust="spacingAndGlyphs" textLength="35" x="27" y="59.1479">id : int</text><ellipse cx="18" cy="68.7422" fill="none" rx="3" ry="3" style="stroke: #038048; stroke-width: 1.0;"/><text fill="#000000" font-family="sans-serif" font-size="11" lengthAdjust="spacingAndGlyphs" textLength="39" x="27" y="71.9526">items :</text><text fill="#000000" font-family="sans-serif" font-size="11" font-weight="bold" lengthAdjust="spacingAndGlyphs" textLength="177" x="70" y="71.9526">Sequence &lt;OrderProduct&gt;</text><ellipse cx="18" cy="81.5469" fill="none" rx="3" ry="3" style="stroke: #038048; stroke-width: 1.0;"/><text fill="#000000" font-family="sans-serif" font-size="11" lengthAdjust="spacingAndGlyphs" textLength="59" x="27" y="84.7573">paid : bool</text><ellipse cx="18" cy="94.3516" fill="none" rx="3" ry="3" style="stroke: #038048; stroke-width: 1.0;"/><text fill="#000000" font-family="sans-serif" font-size="11" lengthAdjust="spacingAndGlyphs" textLength="141" x="27" y="97.562">review_comment : string</text><ellipse cx="18" cy="107.1563" fill="none" rx="3" ry="3" style="stroke: #038048; stroke-width: 1.0;"/><text fill="#000000" font-family="sans-serif" font-size="11" lengthAdjust="spacingAndGlyphs" textLength="101" x="27" y="110.3667">review_score : int</text><ellipse cx="18" cy="119.9609" fill="none" rx="3" ry="3" style="stroke: #038048; stroke-width: 1.0;"/><text fill="#000000" font-family="sans-serif" font-size="11" lengthAdjust="spacingAndGlyphs" textLength="41" x="27" y="123.1714">status :</text><text fill="#000000" font-family="sans-serif" font-size="11" font-weight="bold" lengthAdjust="spacingAndGlyphs" textLength="83" x="72" y="123.1714">OrderStatus</text><ellipse cx="18" cy="132.7656" fill="none" rx="3" ry="3" style="stroke: #038048; stroke-width: 1.0;"/><text fill="#000000" font-family="sans-serif" font-size="11" lengthAdjust="spacingAndGlyphs" textLength="84" x="27" y="135.9761">total_price : int</text><line style="stroke: #A80036; stroke-width: 1.5;" x1="8" x2="252" y1="142.5703" y2="142.5703"/><!--MD5=[ed5d77fea284d0174c6d17f84db0d250]
@startuml
''''''''''''''''''''''''''''''''''''''''''
''                                      ''
''  AUTOGENERATED CODE - - DO NOT EDIT!  ''
''                                      ''
''''''''''''''''''''''''''''''''''''''''''

class "Order" as _0 << (D,orchid) Order >> {
+ id : int
+ items : **Sequence <OrderProduct>**
+ paid : bool
+ review_comment : string
+ review_score : int
+ status : **OrderStatus**
+ total_price : int
}
@enduml

@startuml

class "Order" as _0 << (D,orchid) Order >> {
+ id : int
+ items : **Sequence <OrderProduct>**
+ paid : bool
+ review_comment : string
+ review_score : int
+ status : **OrderStatus**
+ total_price : int
}
@enduml

PlantUML version 1.2020.16beta7(Unknown compile time)
(GPL source distribution)
Java Runtime: Java(TM) SE Runtime Environment
JVM: Java HotSpot(TM) 64-Bit Server VM
Default Encoding: UTF-8
Language: en
Country: US
--></g></svg>