<?xml version="1.0" encoding="UTF-8" standalone="no"?><svg xmlns="http://www.w3.org/2000/svg" xmlns:xlink="http://www.w3.org/1999/xlink" contentScriptType="application/ecmascript" contentStyleType="text/css" height="118px" preserveAspectRatio="none" style="width:228px;height:118px;" version="1.1" viewBox="0 0 228 118" width="228px" zoomAndPan="magnify"><defs><filter height="300%" id="fkdor55ugrf8r" width="300%" x="-1" y="-1"><feGaussianBlur result="blurOut" stdDeviation="2.0"/><feColorMatrix in="blurOut" result="blurOut2" type="matrix" values="0 0 0 0 0 0 0 0 0 0 0 0 0 0 0 0 0 0 .4 0"/><feOffset dx="4.0" dy="4.0" in="blurOut2" result="blurOut3"/><feBlend in="SourceGraphic" in2="blurOut3" mode="normal"/></filter></defs><g><!--MD5=[f77682fd75c3e1fc6a82f566c0814d0f]
class _0--><rect codeLine="7" fill="#FEFECE" filter="url(#fkdor55ugrf8r)" height="92.3516" id="_0" style="stroke: #A80036; stroke-width: 1.5;" width="202" x="7" y="7"/><ellipse cx="22" cy="25.9688" fill="#DA70D6" rx="11" ry="11" style="stroke: #A80036; stroke-width: 1.0;"/><path d="M19.5156,29.2656 C18.8594,29.2656 18.4688,29.5781 18.4688,30.125 C18.4688,30.375 18.6094,30.6406 18.8281,30.7969 C18.9844,30.9219 19.2031,30.9688 19.6094,30.9688 L23.0781,30.9688 C24.5625,30.9688 25.5781,30.5781 26.4063,29.6875 C27.1875,28.875 27.5938,27.8281 27.5938,26.5781 L27.5938,25.7813 C27.5938,23.1094 25.7031,21.0625 23.2188,21.0625 L19.6094,21.0625 C19.1563,21.0625 19.0313,21.0781 18.875,21.1719 C18.625,21.3281 18.4688,21.625 18.4688,21.9063 C18.4688,22.4531 18.8438,22.75 19.5156,22.75 L19.5156,29.2656 Z M21.2031,29.2656 L21.2031,22.75 L23.0781,22.75 C23.9844,22.75 24.625,23.0313 25.1406,23.625 C25.625,24.2031 25.9063,24.9531 25.9063,25.75 L25.9063,26.5313 C25.9063,27.4063 25.6719,28 25.2031,28.5156 C24.6719,29.0625 24.1094,29.2656 23.0938,29.2656 L21.2031,29.2656 Z "/><text fill="#000000" font-family="sans-serif" font-size="12" font-style="italic" lengthAdjust="spacingAndGlyphs" textLength="174" x="34" y="23.1387">«OrderServer.OrderRequest»</text><text fill="#000000" font-family="sans-serif" font-size="12" lengthAdjust="spacingAndGlyphs" textLength="21" x="110.5" y="37.1074">req</text><line style="stroke: #A80036; stroke-width: 1.5;" x1="8" x2="208" y1="44.9375" y2="44.9375"/><ellipse cx="18" cy="55.9375" fill="none" rx="3" ry="3" style="stroke: #038048; stroke-width: 1.0;"/><text fill="#000000" font-family="sans-serif" font-size="11" lengthAdjust="spacingAndGlyphs" textLength="71" x="27" y="59.1479">order_id : int</text><ellipse cx="18" cy="68.7422" fill="none" rx="3" ry="3" style="stroke: #038048; stroke-width: 1.0;"/><text fill="#000000" font-family="sans-serif" font-size="11" lengthAdjust="spacingAndGlyphs" textLength="83" x="27" y="71.9526">product_id : int</text><ellipse cx="18" cy="81.5469" fill="none" rx="3" ry="3" style="stroke: #038048; stroke-width: 1.0;"/><text fill="#000000" font-family="sans-serif" font-size="11" lengthAdjust="spacingAndGlyphs" textLength="71" x="27" y="84.7573">quantity : int</text><line style="stroke: #A80036; stroke-width: 1.5;" x1="8" x2="208" y1="91.3516" y2="91.3516"/><!--MD5=[3f1bdb415c31d40d3ec76c34b4adce6c]
@startuml
''''''''''''''''''''''''''''''''''''''''''
''                                      ''
''  AUTOGENERATED CODE - - DO NOT EDIT!  ''
''                                      ''
''''''''''''''''''''''''''''''''''''''''''

class "req" as _0 << (D,orchid) OrderServer.OrderRequest >> {
+ order_id : int
+ product_id : int
+ quantity : int
}
@enduml

@startuml

class "req" as _0 << (D,orchid) OrderServer.OrderRequest >> {
+ order_id : int
+ product_id : int
+ quantity : int
}
@enduml

PlantUML version 1.2020.16beta7(Unknown compile time)
(GPL source distribution)
Java Runtime: Java(TM) SE Runtime Environment
JVM: Java HotSpot(TM) 64-Bit Server VM
Default Encoding: UTF-8
Language: en
Country: US
--></g></svg>