<?xml version="1.0" encoding="UTF-8" standalone="no"?><svg xmlns="http://www.w3.org/2000/svg" xmlns:xlink="http://www.w3.org/1999/xlink" contentScriptType="application/ecmascript" contentStyleType="text/css" height="390px" preserveAspectRatio="none" style="width:240px;height:390px;" version="1.1" viewBox="0 0 240 390" width="240px" zoomAndPan="magnify"><defs><filter height="300%" id="feqxvdbzv82p2" width="300%" x="-1" y="-1"><feGaussianBlur result="blurOut" stdDeviation="2.0"/><feColorMatrix in="blurOut" result="blurOut2" type="matrix" values="0 0 0 0 0 0 0 0 0 0 0 0 0 0 0 0 0 0 .4 0"/><feOffset dx="4.0" dy="4.0" in="blurOut2" result="blurOut3"/><feBlend in="SourceGraphic" in2="blurOut3" mode="normal"/></filter></defs><g><text fill="#000000" font-family="sans-serif" font-size="18" lengthAdjust="spacingAndGlyphs" textLength="148" x="41.5" y="26.708">Mobile &lt;- Order</text><rect fill="#FFFFFF" filter="url(#feqxvdbzv82p2)" height="157.6641" style="stroke: #A80036; stroke-width: 1.0;" width="10" x="58" y="160.5156"/><rect fill="#FFFFFF" filter="url(#feqxvdbzv82p2)" height="128.5313" style="stroke: #A80036; stroke-width: 1.0;" width="10" x="142" y="189.6484"/><rect fill="#FFFFFF" filter="url(#feqxvdbzv82p2)" height="46.2656" style="stroke: #000000; stroke-width: 2.0;" width="192" x="26" y="204.6484"/><rect fill="#FFFFFF" filter="url(#feqxvdbzv82p2)" height="46.2656" style="stroke: #000000; stroke-width: 2.0;" width="178" x="26" y="264.9141"/><line style="stroke: #A80036; stroke-width: 1.0; stroke-dasharray: 5.0,5.0;" x1="63" x2="63" y1="86.25" y2="328.1797"/><line style="stroke: #A80036; stroke-width: 1.0; stroke-dasharray: 5.0,5.0;" x1="147" x2="147" y1="86.25" y2="328.1797"/><text fill="#000000" font-family="sans-serif" font-size="14" lengthAdjust="spacingAndGlyphs" textLength="48" x="36" y="82.9482">Mobile</text><path d="M42.5,41.9531 L42.5,65.9531 M42.5,53.9531 L59.5,53.9531 " fill="none" filter="url(#feqxvdbzv82p2)" style="stroke: #A80036; stroke-width: 2.0;"/><ellipse cx="71.5" cy="53.9531" fill="#FEFECE" filter="url(#feqxvdbzv82p2)" rx="12" ry="12" style="stroke: #A80036; stroke-width: 2.0;"/><text fill="#000000" font-family="sans-serif" font-size="14" lengthAdjust="spacingAndGlyphs" textLength="48" x="36" y="340.1748">Mobile</text><path d="M42.5,347.4766 L42.5,371.4766 M42.5,359.4766 L59.5,359.4766 " fill="none" filter="url(#feqxvdbzv82p2)" style="stroke: #A80036; stroke-width: 2.0;"/><ellipse cx="71.5" cy="359.4766" fill="#FEFECE" filter="url(#feqxvdbzv82p2)" rx="12" ry="12" style="stroke: #A80036; stroke-width: 2.0;"/><text fill="#000000" font-family="sans-serif" font-size="14" lengthAdjust="spacingAndGlyphs" textLength="88" x="100" y="82.9482">OrderServer</text><ellipse cx="147" cy="53.9531" fill="#FEFECE" filter="url(#feqxvdbzv82p2)" rx="12" ry="12" style="stroke: #A80036; stroke-width: 2.0;"/><polygon fill="#A80036" points="143,41.9531,149,36.9531,147,41.9531,149,46.9531,143,41.9531" style="stroke: #A80036; stroke-width: 1.0;"/><text fill="#000000" font-family="sans-serif" font-size="14" lengthAdjust="spacingAndGlyphs" textLength="88" x="100" y="340.1748">OrderServer</text><ellipse cx="147" cy="359.4766" fill="#FEFECE" filter="url(#feqxvdbzv82p2)" rx="12" ry="12" style="stroke: #A80036; stroke-width: 2.0;"/><polygon fill="#A80036" points="143,347.4766,149,342.4766,147,347.4766,149,352.4766,143,347.4766" style="stroke: #A80036; stroke-width: 1.0;"/><rect fill="#FFFFFF" filter="url(#feqxvdbzv82p2)" height="157.6641" style="stroke: #A80036; stroke-width: 1.0;" width="10" x="58" y="160.5156"/><rect fill="#FFFFFF" filter="url(#feqxvdbzv82p2)" height="128.5313" style="stroke: #A80036; stroke-width: 1.0;" width="10" x="142" y="189.6484"/><rect fill="#EEEEEE" filter="url(#feqxvdbzv82p2)" height="3" style="stroke: #EEEEEE; stroke-width: 1.0;" width="225" x="3" y="116.8164"/><line style="stroke: #000000; stroke-width: 1.0;" x1="3" x2="228" y1="116.8164" y2="116.8164"/><line style="stroke: #000000; stroke-width: 1.0;" x1="3" x2="228" y1="119.8164" y2="119.8164"/><rect fill="#EEEEEE" filter="url(#feqxvdbzv82p2)" height="23.1328" style="stroke: #000000; stroke-width: 2.0;" width="137" x="47" y="106.25"/><text fill="#000000" font-family="sans-serif" font-size="13" font-weight="bold" lengthAdjust="spacingAndGlyphs" textLength="118" x="53" y="122.3169">Mobile &lt;- Order</text><polygon fill="#A80036" points="46,156.5156,56,160.5156,46,164.5156,50,160.5156" style="stroke: #A80036; stroke-width: 1.0;"/><line style="stroke: #A80036; stroke-width: 1.0;" x1="3" x2="52" y1="160.5156" y2="160.5156"/><text fill="#000000" font-family="sans-serif" font-size="13" lengthAdjust="spacingAndGlyphs" textLength="36" x="10" y="155.4497">Order</text><polygon fill="#A80036" points="130,185.6484,140,189.6484,130,193.6484,134,189.6484" style="stroke: #A80036; stroke-width: 1.0;"/><line style="stroke: #A80036; stroke-width: 1.0;" x1="68" x2="136" y1="189.6484" y2="189.6484"/><text fill="#000000" font-family="sans-serif" font-size="13" lengthAdjust="spacingAndGlyphs" textLength="36" x="75" y="184.5825">Order</text><path d="M26,204.6484 L98,204.6484 L98,211.6484 L88,221.6484 L26,221.6484 L26,204.6484 " fill="#EEEEEE" style="stroke: #000000; stroke-width: 1.0;"/><rect fill="none" height="46.2656" style="stroke: #000000; stroke-width: 2.0;" width="192" x="26" y="204.6484"/><text fill="#000000" font-family="sans-serif" font-size="13" font-weight="bold" lengthAdjust="spacingAndGlyphs" textLength="27" x="41" y="217.7153">opt</text><text fill="#000000" font-family="sans-serif" font-size="11" font-weight="bold" lengthAdjust="spacingAndGlyphs" textLength="100" x="113" y="216.8589">[order_id is nil]</text><polygon fill="#A80036" points="79,238.9141,69,242.9141,79,246.9141,75,242.9141" style="stroke: #A80036; stroke-width: 1.0;"/><line style="stroke: #A80036; stroke-width: 1.0; stroke-dasharray: 2.0,2.0;" x1="73" x2="141" y1="242.9141" y2="242.9141"/><text fill="#000000" font-family="sans-serif" font-size="13" lengthAdjust="spacingAndGlyphs" textLength="36" x="85" y="237.8481">Order</text><path d="M26,264.9141 L101,264.9141 L101,271.9141 L91,281.9141 L26,281.9141 L26,264.9141 " fill="#EEEEEE" style="stroke: #000000; stroke-width: 1.0;"/><rect fill="none" height="46.2656" style="stroke: #000000; stroke-width: 2.0;" width="178" x="26" y="264.9141"/><text fill="#000000" font-family="sans-serif" font-size="13" font-weight="bold" lengthAdjust="spacingAndGlyphs" textLength="30" x="41" y="277.981">else</text><polygon fill="#A80036" points="79,299.1797,69,303.1797,79,307.1797,75,303.1797" style="stroke: #A80036; stroke-width: 1.0;"/><line style="stroke: #A80036; stroke-width: 1.0; stroke-dasharray: 2.0,2.0;" x1="73" x2="141" y1="303.1797" y2="303.1797"/><text fill="#000000" font-family="sans-serif" font-size="13" lengthAdjust="spacingAndGlyphs" textLength="36" x="85" y="298.1138">Order</text><!--MD5=[fb325632ddb224cfe14ec7b16d34cc75]
@startuml
''''''''''''''''''''''''''''''''''''''''''
''                                      ''
''  AUTOGENERATED CODE - - DO NOT EDIT!  ''
''                                      ''
''''''''''''''''''''''''''''''''''''''''''


boundary "Mobile" as _0
control "OrderServer" as _1
skinparam maxMessageSize 250
title Mobile <- Order
== Mobile <- Order ==
[->_0 : Order
activate _0
 _0->_1 : Order
 activate _1
 opt order_id is nil
  _0<- -_1 : Order
 end
 group else
  _0<- -_1 : Order
 end
 deactivate _1
deactivate _0
@enduml

@startuml


boundary "Mobile" as _0
control "OrderServer" as _1
skinparam maxMessageSize 250
title Mobile <- Order
== Mobile <- Order ==
[->_0 : Order
activate _0
 _0->_1 : Order
 activate _1
 opt order_id is nil
  _0<- -_1 : Order
 end
 group else
  _0<- -_1 : Order
 end
 deactivate _1
deactivate _0
@enduml

PlantUML version 1.2020.16beta7(Unknown compile time)
(GPL source distribution)
Java Runtime: Java(TM) SE Runtime Environment
JVM: Java HotSpot(TM) 64-Bit Server VM
Default Encoding: UTF-8
Language: en
Country: US
--></g></svg>