<?xml version="1.0" encoding="UTF-8" standalone="no"?><svg xmlns="http://www.w3.org/2000/svg" xmlns:xlink="http://www.w3.org/1999/xlink" contentScriptType="application/ecmascript" contentStyleType="text/css" height="143px" preserveAspectRatio="none" style="width:210px;height:143px;" version="1.1" viewBox="0 0 210 143" width="210px" zoomAndPan="magnify"><defs><filter height="300%" id="f2jcx6yt7502x" width="300%" x="-1" y="-1"><feGaussianBlur result="blurOut" stdDeviation="2.0"/><feColorMatrix in="blurOut" result="blurOut2" type="matrix" values="0 0 0 0 0 0 0 0 0 0 0 0 0 0 0 0 0 0 .4 0"/><feOffset dx="4.0" dy="4.0" in="blurOut2" result="blurOut3"/><feBlend in="SourceGraphic" in2="blurOut3" mode="normal"/></filter></defs><g><!--MD5=[f77682fd75c3e1fc6a82f566c0814d0f]
class _0--><rect fill="#FEFECE" filter="url(#f2jcx6yt7502x)" height="117.9609" id="_0" style="stroke: #A80036; stroke-width: 1.5;" width="184" x="7" y="7"/><ellipse cx="22" cy="25.9688" fill="#DA70D6" rx="11" ry="11" style="stroke: #A80036; stroke-width: 1.0;"/><path d="M21.5938,21.7813 L21.5938,29.7656 L22.25,29.7656 Q23.6875,29.7656 24.2969,28.8594 Q24.9219,27.9375 24.9219,25.7656 Q24.9219,23.5938 24.2969,22.6875 Q23.6875,21.7813 22.25,21.7813 L21.5938,21.7813 Z M19.1406,19.5781 L21.7656,19.5781 Q24.7969,19.5781 26.125,21.0313 Q27.4688,22.4688 27.4688,25.7656 Q27.4688,29.0625 26.125,30.5156 Q24.7969,31.9688 21.7656,31.9688 L19.1406,31.9688 L19.1406,19.5781 Z "/><text fill="#000000" font-family="sans-serif" font-size="12" font-style="italic" lengthAdjust="spacingAndGlyphs" textLength="156" x="34" y="23.1387">«ProductServer.Product»</text><text fill="#000000" font-family="sans-serif" font-size="12" lengthAdjust="spacingAndGlyphs" textLength="49" x="87.5" y="37.1074">Product</text><line style="stroke: #A80036; stroke-width: 1.5;" x1="8" x2="190" y1="44.9375" y2="44.9375"/><ellipse cx="18" cy="55.9375" fill="none" rx="3" ry="3" style="stroke: #038048; stroke-width: 1.0;"/><text fill="#000000" font-family="sans-serif" font-size="11" lengthAdjust="spacingAndGlyphs" textLength="83" x="27" y="59.1479">details : string</text><ellipse cx="18" cy="68.7422" fill="none" rx="3" ry="3" style="stroke: #038048; stroke-width: 1.0;"/><text fill="#000000" font-family="sans-serif" font-size="11" lengthAdjust="spacingAndGlyphs" textLength="36" x="27" y="71.9526">id : int</text><ellipse cx="18" cy="81.5469" fill="none" rx="3" ry="3" style="stroke: #038048; stroke-width: 1.0;"/><text fill="#000000" font-family="sans-serif" font-size="11" lengthAdjust="spacingAndGlyphs" textLength="80" x="27" y="84.7573">image : string</text><ellipse cx="18" cy="94.3516" fill="none" rx="3" ry="3" style="stroke: #038048; stroke-width: 1.0;"/><text fill="#000000" font-family="sans-serif" font-size="11" lengthAdjust="spacingAndGlyphs" textLength="77" x="27" y="97.562">name : string</text><ellipse cx="18" cy="107.1563" fill="none" rx="3" ry="3" style="stroke: #038048; stroke-width: 1.0;"/><text fill="#000000" font-family="sans-serif" font-size="11" lengthAdjust="spacingAndGlyphs" textLength="54" x="27" y="110.3667">price : int</text><line style="stroke: #A80036; stroke-width: 1.5;" x1="8" x2="190" y1="116.9609" y2="116.9609"/><!--MD5=[af4e05825ed86412caf2a2541e570cc1]
@startuml
''''''''''''''''''''''''''''''''''''''''''
''                                      ''
''  AUTOGENERATED CODE - - DO NOT EDIT!  ''
''                                      ''
''''''''''''''''''''''''''''''''''''''''''

class "Product" as _0 << (D,orchid) ProductServer.Product >> {
+ details : string
+ id : int
+ image : string
+ name : string
+ price : int
}
@enduml

@startuml

class "Product" as _0 << (D,orchid) ProductServer.Product >> {
+ details : string
+ id : int
+ image : string
+ name : string
+ price : int
}
@enduml

PlantUML version 1.2020.15(Sun Jun 28 11:39:45 UTC 2020)
(GPL source distribution)
Java Runtime: OpenJDK Runtime Environment
JVM: OpenJDK 64-Bit Server VM
Default Encoding: UTF-8
Language: en
Country: null
--></g></svg>