<?xml version="1.0" encoding="UTF-8" standalone="no"?><svg xmlns="http://www.w3.org/2000/svg" xmlns:xlink="http://www.w3.org/1999/xlink" contentScriptType="application/ecmascript" contentStyleType="text/css" height="143px" preserveAspectRatio="none" style="width:135px;height:143px;" version="1.1" viewBox="0 0 135 143" width="135px" zoomAndPan="magnify"><defs><filter height="300%" id="f145lw9zdo8xaz" width="300%" x="-1" y="-1"><feGaussianBlur result="blurOut" stdDeviation="2.0"/><feColorMatrix in="blurOut" result="blurOut2" type="matrix" values="0 0 0 0 0 0 0 0 0 0 0 0 0 0 0 0 0 0 .4 0"/><feOffset dx="4.0" dy="4.0" in="blurOut2" result="blurOut3"/><feBlend in="SourceGraphic" in2="blurOut3" mode="normal"/></filter></defs><g><!--MD5=[f77682fd75c3e1fc6a82f566c0814d0f]
class _0--><rect fill="#FEFECE" filter="url(#f145lw9zdo8xaz)" height="117.9609" id="_0" style="stroke: #A80036; stroke-width: 1.5;" width="109" x="7" y="7"/><ellipse cx="30.1" cy="25.9688" fill="#DA70D6" rx="11" ry="11" style="stroke: #A80036; stroke-width: 1.0;"/><path d="M29.6938,21.7813 L29.6938,29.7656 L30.35,29.7656 Q31.7875,29.7656 32.3969,28.8594 Q33.0219,27.9375 33.0219,25.7656 Q33.0219,23.5938 32.3969,22.6875 Q31.7875,21.7813 30.35,21.7813 L29.6938,21.7813 Z M27.2406,19.5781 L29.8656,19.5781 Q32.8969,19.5781 34.225,21.0313 Q35.5688,22.4688 35.5688,25.7656 Q35.5688,29.0625 34.225,30.5156 Q32.8969,31.9688 29.8656,31.9688 L27.2406,31.9688 L27.2406,19.5781 Z "/><text fill="#000000" font-family="sans-serif" font-size="12" font-style="italic" lengthAdjust="spacingAndGlyphs" textLength="63" x="43.9" y="23.1387">«Product»</text><text fill="#000000" font-family="sans-serif" font-size="12" lengthAdjust="spacingAndGlyphs" textLength="49" x="50.9" y="37.1074">Product</text><line style="stroke: #A80036; stroke-width: 1.5;" x1="8" x2="115" y1="44.9375" y2="44.9375"/><ellipse cx="18" cy="55.9375" fill="none" rx="3" ry="3" style="stroke: #038048; stroke-width: 1.0;"/><text fill="#000000" font-family="sans-serif" font-size="11" lengthAdjust="spacingAndGlyphs" textLength="83" x="27" y="59.1479">details : string</text><ellipse cx="18" cy="68.7422" fill="none" rx="3" ry="3" style="stroke: #038048; stroke-width: 1.0;"/><text fill="#000000" font-family="sans-serif" font-size="11" lengthAdjust="spacingAndGlyphs" textLength="36" x="27" y="71.9526">id : int</text><ellipse cx="18" cy="81.5469" fill="none" rx="3" ry="3" style="stroke: #038048; stroke-width: 1.0;"/><text fill="#000000" font-family="sans-serif" font-size="11" lengthAdjust="spacingAndGlyphs" textLength="80" x="27" y="84.7573">image : string</text><ellipse cx="18" cy="94.3516" fill="none" rx="3" ry="3" style="stroke: #038048; stroke-width: 1.0;"/><text fill="#000000" font-family="sans-serif" font-size="11" lengthAdjust="spacingAndGlyphs" textLength="77" x="27" y="97.562">name : string</text><ellipse cx="18" cy="107.1563" fill="none" rx="3" ry="3" style="stroke: #038048; stroke-width: 1.0;"/><text fill="#000000" font-family="sans-serif" font-size="11" lengthAdjust="spacingAndGlyphs" textLength="54" x="27" y="110.3667">price : int</text><line style="stroke: #A80036; stroke-width: 1.5;" x1="8" x2="115" y1="116.9609" y2="116.9609"/><!--MD5=[e6ba0c8ee3abbcace6f18b81d88c8700]
@startuml
''''''''''''''''''''''''''''''''''''''''''
''                                      ''
''  AUTOGENERATED CODE - - DO NOT EDIT!  ''
''                                      ''
''''''''''''''''''''''''''''''''''''''''''

class "Product" as _0 << (D,orchid) Product >> {
+ details : string
+ id : int
+ image : string
+ name : string
+ price : int
}
@enduml

@startuml

class "Product" as _0 << (D,orchid) Product >> {
+ details : string
+ id : int
+ image : string
+ name : string
+ price : int
}
@enduml

PlantUML version 1.2020.15(Sun Jun 28 11:39:45 UTC 2020)
(GPL source distribution)
Java Runtime: OpenJDK Runtime Environment
JVM: OpenJDK 64-Bit Server VM
Default Encoding: UTF-8
Language: en
Country: null
--></g></svg>