<?xml version="1.0" encoding="UTF-8" standalone="no"?><svg xmlns="http://www.w3.org/2000/svg" xmlns:xlink="http://www.w3.org/1999/xlink" contentScriptType="application/ecmascript" contentStyleType="text/css" height="723px" preserveAspectRatio="none" style="width:869px;height:723px;" version="1.1" viewBox="0 0 869 723" width="869px" zoomAndPan="magnify"><defs><filter height="300%" id="fmsrdf44d2m8c" width="300%" x="-1" y="-1"><feGaussianBlur result="blurOut" stdDeviation="2.0"/><feColorMatrix in="blurOut" result="blurOut2" type="matrix" values="0 0 0 0 0 0 0 0 0 0 0 0 0 0 0 0 0 0 .4 0"/><feOffset dx="4.0" dy="4.0" in="blurOut2" result="blurOut3"/><feBlend in="SourceGraphic" in2="blurOut3" mode="normal"/></filter></defs><g><!--MD5=[f77682fd75c3e1fc6a82f566c0814d0f]
class _0--><rect fill="#FEFECE" filter="url(#fmsrdf44d2m8c)" height="163.2422" id="_0" style="stroke: #A80036; stroke-width: 1.5;" width="350" x="21.5" y="8"/><ellipse cx="154.25" cy="24" fill="#DA70D6" rx="11" ry="11" style="stroke: #A80036; stroke-width: 1.0;"/><path d="M153.8438,19.8125 L153.8438,27.7969 L154.5,27.7969 Q155.9375,27.7969 156.5469,26.8906 Q157.1719,25.9688 157.1719,23.7969 Q157.1719,21.625 156.5469,20.7188 Q155.9375,19.8125 154.5,19.8125 L153.8438,19.8125 Z M151.3906,17.6094 L154.0156,17.6094 Q157.0469,17.6094 158.375,19.0625 Q159.7188,20.5 159.7188,23.7969 Q159.7188,27.0938 158.375,28.5469 Q157.0469,30 154.0156,30 L151.3906,30 L151.3906,17.6094 Z "/><text fill="#000000" font-family="sans-serif" font-size="12" lengthAdjust="spacingAndGlyphs" textLength="76" x="174.75" y="28.1543">audio_guide</text><line style="stroke: #A80036; stroke-width: 1.5;" x1="22.5" x2="370.5" y1="40" y2="40"/><ellipse cx="32.5" cy="51" fill="none" rx="3" ry="3" style="stroke: #038048; stroke-width: 1.0;"/><text fill="#000000" font-family="sans-serif" font-size="11" lengthAdjust="spacingAndGlyphs" textLength="122" x="41.5" y="54.2104">activation_date : date</text><ellipse cx="32.5" cy="63.8047" fill="none" rx="3" ry="3" style="stroke: #038048; stroke-width: 1.0;"/><text fill="#000000" font-family="sans-serif" font-size="11" lengthAdjust="spacingAndGlyphs" textLength="110" x="41.5" y="67.0151">audio_guide_id : int</text><ellipse cx="32.5" cy="76.6094" fill="none" rx="3" ry="3" style="stroke: #038048; stroke-width: 1.0;"/><text fill="#000000" font-family="sans-serif" font-size="11" lengthAdjust="spacingAndGlyphs" textLength="73" x="41.5" y="79.8198">issue_point :</text><text fill="#000000" font-family="sans-serif" font-size="11" font-weight="bold" lengthAdjust="spacingAndGlyphs" textLength="126" x="118.5" y="79.8198">location.location_id</text><text fill="#000000" font-family="sans-serif" font-size="11" lengthAdjust="spacingAndGlyphs" textLength="27" x="248.5" y="79.8198">«FK»</text><ellipse cx="32.5" cy="89.4141" fill="none" rx="3" ry="3" style="stroke: #038048; stroke-width: 1.0;"/><text fill="#000000" font-family="sans-serif" font-size="11" lengthAdjust="spacingAndGlyphs" textLength="89" x="41.5" y="92.6245">language : float</text><ellipse cx="32.5" cy="102.2188" fill="none" rx="3" ry="3" style="stroke: #038048; stroke-width: 1.0;"/><text fill="#000000" font-family="sans-serif" font-size="11" lengthAdjust="spacingAndGlyphs" textLength="99" x="41.5" y="105.4292">listen_time : float</text><ellipse cx="32.5" cy="115.0234" fill="none" rx="3" ry="3" style="stroke: #038048; stroke-width: 1.0;"/><text fill="#000000" font-family="sans-serif" font-size="11" lengthAdjust="spacingAndGlyphs" textLength="57" x="41.5" y="118.2339">payment :</text><text fill="#000000" font-family="sans-serif" font-size="11" font-weight="bold" lengthAdjust="spacingAndGlyphs" textLength="232" x="102.5" y="118.2339">payment_details.payment_details_id</text><text fill="#000000" font-family="sans-serif" font-size="11" lengthAdjust="spacingAndGlyphs" textLength="27" x="338.5" y="118.2339">«FK»</text><ellipse cx="32.5" cy="127.8281" fill="none" rx="3" ry="3" style="stroke: #038048; stroke-width: 1.0;"/><text fill="#000000" font-family="sans-serif" font-size="11" lengthAdjust="spacingAndGlyphs" textLength="77" x="41.5" y="131.0386">return_point :</text><text fill="#000000" font-family="sans-serif" font-size="11" font-weight="bold" lengthAdjust="spacingAndGlyphs" textLength="126" x="122.5" y="131.0386">location.location_id</text><text fill="#000000" font-family="sans-serif" font-size="11" lengthAdjust="spacingAndGlyphs" textLength="27" x="252.5" y="131.0386">«FK»</text><ellipse cx="32.5" cy="140.6328" fill="none" rx="3" ry="3" style="stroke: #038048; stroke-width: 1.0;"/><text fill="#000000" font-family="sans-serif" font-size="11" lengthAdjust="spacingAndGlyphs" textLength="54" x="41.5" y="143.8433">ticket_id :</text><text fill="#000000" font-family="sans-serif" font-size="11" font-weight="bold" lengthAdjust="spacingAndGlyphs" textLength="94" x="99.5" y="143.8433">ticket.ticket_id</text><text fill="#000000" font-family="sans-serif" font-size="11" lengthAdjust="spacingAndGlyphs" textLength="27" x="197.5" y="143.8433">«FK»</text><ellipse cx="32.5" cy="153.4375" fill="none" rx="3" ry="3" style="stroke: #038048; stroke-width: 1.0;"/><text fill="#000000" font-family="sans-serif" font-size="11" lengthAdjust="spacingAndGlyphs" textLength="61" x="41.5" y="156.6479">type : float</text><line style="stroke: #A80036; stroke-width: 1.5;" x1="22.5" x2="370.5" y1="163.2422" y2="163.2422"/><!--MD5=[5598b231efb7df47efa6733795d42804]
class _4--><rect fill="#FEFECE" filter="url(#fmsrdf44d2m8c)" height="124.8281" id="_4" style="stroke: #A80036; stroke-width: 1.5;" width="194" x="497.5" y="588"/><ellipse cx="546.25" cy="604" fill="#DA70D6" rx="11" ry="11" style="stroke: #A80036; stroke-width: 1.0;"/><path d="M545.8438,599.8125 L545.8438,607.7969 L546.5,607.7969 Q547.9375,607.7969 548.5469,606.8906 Q549.1719,605.9688 549.1719,603.7969 Q549.1719,601.625 548.5469,600.7188 Q547.9375,599.8125 546.5,599.8125 L545.8438,599.8125 Z M543.3906,597.6094 L546.0156,597.6094 Q549.0469,597.6094 550.375,599.0625 Q551.7188,600.5 551.7188,603.7969 Q551.7188,607.0938 550.375,608.5469 Q549.0469,610 546.0156,610 L543.3906,610 L543.3906,597.6094 Z "/><text fill="#000000" font-family="sans-serif" font-size="12" lengthAdjust="spacingAndGlyphs" textLength="88" x="566.75" y="608.1543">card_payment</text><line style="stroke: #A80036; stroke-width: 1.5;" x1="498.5" x2="690.5" y1="620" y2="620"/><ellipse cx="508.5" cy="631" fill="none" rx="3" ry="3" style="stroke: #038048; stroke-width: 1.0;"/><text fill="#000000" font-family="sans-serif" font-size="11" lengthAdjust="spacingAndGlyphs" textLength="110" x="517.5" y="634.2104">bank_name : string</text><ellipse cx="508.5" cy="643.8047" fill="none" rx="3" ry="3" style="stroke: #038048; stroke-width: 1.0;"/><text fill="#000000" font-family="sans-serif" font-size="11" lengthAdjust="spacingAndGlyphs" textLength="146" x="517.5" y="647.0151">bank_short_name : string</text><ellipse cx="508.5" cy="656.6094" fill="none" rx="3" ry="3" style="stroke: #038048; stroke-width: 1.0;"/><text fill="#000000" font-family="sans-serif" font-size="11" lengthAdjust="spacingAndGlyphs" textLength="84" x="517.5" y="659.8198">branch : string</text><ellipse cx="508.5" cy="669.4141" fill="none" rx="3" ry="3" style="stroke: #038048; stroke-width: 1.0;"/><text fill="#000000" font-family="sans-serif" font-size="11" lengthAdjust="spacingAndGlyphs" textLength="168" x="517.5" y="672.6245">card_number_snippet : string</text><ellipse cx="508.5" cy="682.2188" fill="none" rx="3" ry="3" style="stroke: #038048; stroke-width: 1.0;"/><text fill="#000000" font-family="sans-serif" font-size="11" lengthAdjust="spacingAndGlyphs" textLength="79" x="517.5" y="685.4292">expiry : string</text><ellipse cx="508.5" cy="695.0234" fill="none" rx="3" ry="3" style="stroke: #038048; stroke-width: 1.0;"/><text fill="#000000" font-family="sans-serif" font-size="11" lengthAdjust="spacingAndGlyphs" textLength="36" x="517.5" y="698.2339">id : int</text><line style="stroke: #A80036; stroke-width: 1.5;" x1="498.5" x2="690.5" y1="704.8281" y2="704.8281"/><!--MD5=[9f3b5866fc3516bb7b126afd03fd81f9]
class _5--><rect fill="#FEFECE" filter="url(#fmsrdf44d2m8c)" height="99.2188" id="_5" style="stroke: #A80036; stroke-width: 1.5;" width="132" x="726.5" y="601"/><ellipse cx="746" cy="617" fill="#DA70D6" rx="11" ry="11" style="stroke: #A80036; stroke-width: 1.0;"/><path d="M745.5938,612.8125 L745.5938,620.7969 L746.25,620.7969 Q747.6875,620.7969 748.2969,619.8906 Q748.9219,618.9688 748.9219,616.7969 Q748.9219,614.625 748.2969,613.7188 Q747.6875,612.8125 746.25,612.8125 L745.5938,612.8125 Z M743.1406,610.6094 L745.7656,610.6094 Q748.7969,610.6094 750.125,612.0625 Q751.4688,613.5 751.4688,616.7969 Q751.4688,620.0938 750.125,621.5469 Q748.7969,623 745.7656,623 L743.1406,623 L743.1406,610.6094 Z "/><text fill="#000000" font-family="sans-serif" font-size="12" lengthAdjust="spacingAndGlyphs" textLength="90" x="761" y="621.1543">cash_payment</text><line style="stroke: #A80036; stroke-width: 1.5;" x1="727.5" x2="857.5" y1="633" y2="633"/><ellipse cx="737.5" cy="644" fill="none" rx="3" ry="3" style="stroke: #038048; stroke-width: 1.0;"/><text fill="#000000" font-family="sans-serif" font-size="11" lengthAdjust="spacingAndGlyphs" textLength="64" x="746.5" y="647.2104">city : string</text><ellipse cx="737.5" cy="656.8047" fill="none" rx="3" ry="3" style="stroke: #038048; stroke-width: 1.0;"/><text fill="#000000" font-family="sans-serif" font-size="11" lengthAdjust="spacingAndGlyphs" textLength="87" x="746.5" y="660.0151">country : string</text><ellipse cx="737.5" cy="669.6094" fill="none" rx="3" ry="3" style="stroke: #038048; stroke-width: 1.0;"/><text fill="#000000" font-family="sans-serif" font-size="11" lengthAdjust="spacingAndGlyphs" textLength="106" x="746.5" y="672.8198">first_name : string</text><ellipse cx="737.5" cy="682.4141" fill="none" rx="3" ry="3" style="stroke: #038048; stroke-width: 1.0;"/><text fill="#000000" font-family="sans-serif" font-size="11" lengthAdjust="spacingAndGlyphs" textLength="36" x="746.5" y="685.6245">id : int</text><line style="stroke: #A80036; stroke-width: 1.5;" x1="727.5" x2="857.5" y1="692.2188" y2="692.2188"/><!--MD5=[6a3af1c95ca99f945e9d9cfb177ddaa5]
class _6--><rect fill="#FEFECE" filter="url(#fmsrdf44d2m8c)" height="73.6094" id="_6" style="stroke: #A80036; stroke-width: 1.5;" width="239" x="133" y="428.5"/><ellipse cx="189.75" cy="444.5" fill="#DA70D6" rx="11" ry="11" style="stroke: #A80036; stroke-width: 1.0;"/><path d="M189.3438,440.3125 L189.3438,448.2969 L190,448.2969 Q191.4375,448.2969 192.0469,447.3906 Q192.6719,446.4688 192.6719,444.2969 Q192.6719,442.125 192.0469,441.2188 Q191.4375,440.3125 190,440.3125 L189.3438,440.3125 Z M186.8906,438.1094 L189.5156,438.1094 Q192.5469,438.1094 193.875,439.5625 Q195.2188,441 195.2188,444.2969 Q195.2188,447.5938 193.875,449.0469 Q192.5469,450.5 189.5156,450.5 L186.8906,450.5 L186.8906,438.1094 Z "/><text fill="#000000" font-family="sans-serif" font-size="12" lengthAdjust="spacingAndGlyphs" textLength="117" x="210.25" y="448.6543">checkpoint_lookup</text><line style="stroke: #A80036; stroke-width: 1.5;" x1="134" x2="371" y1="460.5" y2="460.5"/><ellipse cx="144" cy="471.5" fill="none" rx="3" ry="3" style="stroke: #038048; stroke-width: 1.0;"/><text fill="#000000" font-family="sans-serif" font-size="11" lengthAdjust="spacingAndGlyphs" textLength="145" x="153" y="474.7104">checkpoint_lookup_id : int</text><ellipse cx="144" cy="484.3047" fill="none" rx="3" ry="3" style="stroke: #038048; stroke-width: 1.0;"/><text fill="#000000" font-family="sans-serif" font-size="11" lengthAdjust="spacingAndGlyphs" textLength="52" x="153" y="487.5151">location :</text><text fill="#000000" font-family="sans-serif" font-size="11" font-weight="bold" lengthAdjust="spacingAndGlyphs" textLength="126" x="209" y="487.5151">location.location_id</text><text fill="#000000" font-family="sans-serif" font-size="11" lengthAdjust="spacingAndGlyphs" textLength="27" x="339" y="487.5151">«FK»</text><line style="stroke: #A80036; stroke-width: 1.5;" x1="134" x2="371" y1="494.1094" y2="494.1094"/><!--MD5=[de0bfa585452079efdc6062f86f7fa4a]
class _7--><rect fill="#FEFECE" filter="url(#fmsrdf44d2m8c)" height="86.4141" id="_7" style="stroke: #A80036; stroke-width: 1.5;" width="122" x="407.5" y="422.5"/><ellipse cx="436" cy="438.5" fill="#DA70D6" rx="11" ry="11" style="stroke: #A80036; stroke-width: 1.0;"/><path d="M435.5938,434.3125 L435.5938,442.2969 L436.25,442.2969 Q437.6875,442.2969 438.2969,441.3906 Q438.9219,440.4688 438.9219,438.2969 Q438.9219,436.125 438.2969,435.2188 Q437.6875,434.3125 436.25,434.3125 L435.5938,434.3125 Z M433.1406,432.1094 L435.7656,432.1094 Q438.7969,432.1094 440.125,433.5625 Q441.4688,435 441.4688,438.2969 Q441.4688,441.5938 440.125,443.0469 Q438.7969,444.5 435.7656,444.5 L433.1406,444.5 L433.1406,432.1094 Z "/><text fill="#000000" font-family="sans-serif" font-size="12" lengthAdjust="spacingAndGlyphs" textLength="60" x="453" y="442.6543">exhibition</text><line style="stroke: #A80036; stroke-width: 1.5;" x1="408.5" x2="528.5" y1="454.5" y2="454.5"/><ellipse cx="418.5" cy="465.5" fill="none" rx="3" ry="3" style="stroke: #038048; stroke-width: 1.0;"/><text fill="#000000" font-family="sans-serif" font-size="11" lengthAdjust="spacingAndGlyphs" textLength="72" x="427.5" y="468.7104">capacity : int</text><ellipse cx="418.5" cy="478.3047" fill="none" rx="3" ry="3" style="stroke: #038048; stroke-width: 1.0;"/><text fill="#000000" font-family="sans-serif" font-size="11" lengthAdjust="spacingAndGlyphs" textLength="96" x="427.5" y="481.5151">exhibition_id : int</text><ellipse cx="418.5" cy="491.1094" fill="none" rx="3" ry="3" style="stroke: #038048; stroke-width: 1.0;"/><text fill="#000000" font-family="sans-serif" font-size="11" lengthAdjust="spacingAndGlyphs" textLength="87" x="427.5" y="494.3198">time : datetime</text><line style="stroke: #A80036; stroke-width: 1.5;" x1="408.5" x2="528.5" y1="500.9141" y2="500.9141"/><!--MD5=[37d6e5304215b5e345f427169db70937]
class _1--><rect fill="#FEFECE" filter="url(#fmsrdf44d2m8c)" height="99.2188" id="_1" style="stroke: #A80036; stroke-width: 1.5;" width="113" x="6" y="601"/><ellipse cx="34.95" cy="617" fill="#DA70D6" rx="11" ry="11" style="stroke: #A80036; stroke-width: 1.0;"/><path d="M34.5438,612.8125 L34.5438,620.7969 L35.2,620.7969 Q36.6375,620.7969 37.2469,619.8906 Q37.8719,618.9688 37.8719,616.7969 Q37.8719,614.625 37.2469,613.7188 Q36.6375,612.8125 35.2,612.8125 L34.5438,612.8125 Z M32.0906,610.6094 L34.7156,610.6094 Q37.7469,610.6094 39.075,612.0625 Q40.4188,613.5 40.4188,616.7969 Q40.4188,620.0938 39.075,621.5469 Q37.7469,623 34.7156,623 L32.0906,623 L32.0906,610.6094 Z "/><text fill="#000000" font-family="sans-serif" font-size="12" lengthAdjust="spacingAndGlyphs" textLength="50" x="52.05" y="621.1543">location</text><line style="stroke: #A80036; stroke-width: 1.5;" x1="7" x2="118" y1="633" y2="633"/><ellipse cx="17" cy="644" fill="none" rx="3" ry="3" style="stroke: #038048; stroke-width: 1.0;"/><text fill="#000000" font-family="sans-serif" font-size="11" lengthAdjust="spacingAndGlyphs" textLength="86" x="26" y="647.2104">location_id : int</text><ellipse cx="17" cy="656.8047" fill="none" rx="3" ry="3" style="stroke: #038048; stroke-width: 1.0;"/><text fill="#000000" font-family="sans-serif" font-size="11" lengthAdjust="spacingAndGlyphs" textLength="69" x="26" y="660.0151">name : float</text><ellipse cx="17" cy="669.6094" fill="none" rx="3" ry="3" style="stroke: #038048; stroke-width: 1.0;"/><text fill="#000000" font-family="sans-serif" font-size="11" lengthAdjust="spacingAndGlyphs" textLength="87" x="26" y="672.8198">time : datetime</text><ellipse cx="17" cy="682.4141" fill="none" rx="3" ry="3" style="stroke: #038048; stroke-width: 1.0;"/><text fill="#000000" font-family="sans-serif" font-size="11" lengthAdjust="spacingAndGlyphs" textLength="61" x="26" y="685.6245">type : float</text><line style="stroke: #A80036; stroke-width: 1.5;" x1="7" x2="118" y1="692.2188" y2="692.2188"/><!--MD5=[95d1cea1cd7f69d371fe62aa72675e9c]
class _2--><rect fill="#FEFECE" filter="url(#fmsrdf44d2m8c)" height="124.8281" id="_2" style="stroke: #A80036; stroke-width: 1.5;" width="258" x="564.5" y="403"/><ellipse cx="638.25" cy="419" fill="#DA70D6" rx="11" ry="11" style="stroke: #A80036; stroke-width: 1.0;"/><path d="M637.8438,414.8125 L637.8438,422.7969 L638.5,422.7969 Q639.9375,422.7969 640.5469,421.8906 Q641.1719,420.9688 641.1719,418.7969 Q641.1719,416.625 640.5469,415.7188 Q639.9375,414.8125 638.5,414.8125 L637.8438,414.8125 Z M635.3906,412.6094 L638.0156,412.6094 Q641.0469,412.6094 642.375,414.0625 Q643.7188,415.5 643.7188,418.7969 Q643.7188,422.0938 642.375,423.5469 Q641.0469,425 638.0156,425 L635.3906,425 L635.3906,412.6094 Z "/><text fill="#000000" font-family="sans-serif" font-size="12" lengthAdjust="spacingAndGlyphs" textLength="102" x="658.75" y="423.1543">payment_details</text><line style="stroke: #A80036; stroke-width: 1.5;" x1="565.5" x2="821.5" y1="435" y2="435"/><ellipse cx="575.5" cy="446" fill="none" rx="3" ry="3" style="stroke: #038048; stroke-width: 1.0;"/><text fill="#000000" font-family="sans-serif" font-size="11" lengthAdjust="spacingAndGlyphs" textLength="70" x="584.5" y="449.2104">online : bool</text><ellipse cx="575.5" cy="458.8047" fill="none" rx="3" ry="3" style="stroke: #038048; stroke-width: 1.0;"/><text fill="#000000" font-family="sans-serif" font-size="11" lengthAdjust="spacingAndGlyphs" textLength="88" x="584.5" y="462.0151">payment_card :</text><text fill="#000000" font-family="sans-serif" font-size="11" font-weight="bold" lengthAdjust="spacingAndGlyphs" textLength="105" x="676.5" y="462.0151">card_payment.id</text><text fill="#000000" font-family="sans-serif" font-size="11" lengthAdjust="spacingAndGlyphs" textLength="27" x="785.5" y="462.0151">«FK»</text><ellipse cx="575.5" cy="471.6094" fill="none" rx="3" ry="3" style="stroke: #038048; stroke-width: 1.0;"/><text fill="#000000" font-family="sans-serif" font-size="11" lengthAdjust="spacingAndGlyphs" textLength="90" x="584.5" y="474.8198">payment_cash :</text><text fill="#000000" font-family="sans-serif" font-size="11" font-weight="bold" lengthAdjust="spacingAndGlyphs" textLength="107" x="678.5" y="474.8198">cash_payment.id</text><text fill="#000000" font-family="sans-serif" font-size="11" lengthAdjust="spacingAndGlyphs" textLength="27" x="789.5" y="474.8198">«FK»</text><ellipse cx="575.5" cy="484.4141" fill="none" rx="3" ry="3" style="stroke: #038048; stroke-width: 1.0;"/><text fill="#000000" font-family="sans-serif" font-size="11" lengthAdjust="spacingAndGlyphs" textLength="135" x="584.5" y="487.6245">payment_details_id : int</text><ellipse cx="575.5" cy="497.2188" fill="none" rx="3" ry="3" style="stroke: #038048; stroke-width: 1.0;"/><text fill="#000000" font-family="sans-serif" font-size="11" lengthAdjust="spacingAndGlyphs" textLength="84" x="584.5" y="500.4292">price : decimal</text><ellipse cx="575.5" cy="510.0234" fill="none" rx="3" ry="3" style="stroke: #038048; stroke-width: 1.0;"/><text fill="#000000" font-family="sans-serif" font-size="11" lengthAdjust="spacingAndGlyphs" textLength="61" x="584.5" y="513.2339">type : float</text><line style="stroke: #A80036; stroke-width: 1.5;" x1="565.5" x2="821.5" y1="519.8281" y2="519.8281"/><!--MD5=[4df2e88eba431a2a56d213b7bca710d9]
class _3--><rect fill="#FEFECE" filter="url(#fmsrdf44d2m8c)" height="112.0234" id="_3" style="stroke: #A80036; stroke-width: 1.5;" width="396" x="188.5" y="231"/><ellipse cx="364.75" cy="247" fill="#DA70D6" rx="11" ry="11" style="stroke: #A80036; stroke-width: 1.0;"/><path d="M364.3438,242.8125 L364.3438,250.7969 L365,250.7969 Q366.4375,250.7969 367.0469,249.8906 Q367.6719,248.9688 367.6719,246.7969 Q367.6719,244.625 367.0469,243.7188 Q366.4375,242.8125 365,242.8125 L364.3438,242.8125 Z M361.8906,240.6094 L364.5156,240.6094 Q367.5469,240.6094 368.875,242.0625 Q370.2188,243.5 370.2188,246.7969 Q370.2188,250.0938 368.875,251.5469 Q367.5469,253 364.5156,253 L361.8906,253 L361.8906,240.6094 Z "/><text fill="#000000" font-family="sans-serif" font-size="12" lengthAdjust="spacingAndGlyphs" textLength="35" x="385.25" y="251.1543">ticket</text><line style="stroke: #A80036; stroke-width: 1.5;" x1="189.5" x2="583.5" y1="263" y2="263"/><ellipse cx="199.5" cy="274" fill="none" rx="3" ry="3" style="stroke: #038048; stroke-width: 1.0;"/><text fill="#000000" font-family="sans-serif" font-size="11" lengthAdjust="spacingAndGlyphs" textLength="132" x="208.5" y="277.2104">arrival_transport : float</text><ellipse cx="199.5" cy="286.8047" fill="none" rx="3" ry="3" style="stroke: #038048; stroke-width: 1.0;"/><text fill="#000000" font-family="sans-serif" font-size="11" lengthAdjust="spacingAndGlyphs" textLength="75" x="208.5" y="290.0151">checkpoints :</text><text fill="#000000" font-family="sans-serif" font-size="11" font-weight="bold" lengthAdjust="spacingAndGlyphs" textLength="260" x="287.5" y="290.0151">checkpoint_lookup.checkpoint_lookup_id</text><text fill="#000000" font-family="sans-serif" font-size="11" lengthAdjust="spacingAndGlyphs" textLength="27" x="551.5" y="290.0151">«FK»</text><ellipse cx="199.5" cy="299.6094" fill="none" rx="3" ry="3" style="stroke: #038048; stroke-width: 1.0;"/><text fill="#000000" font-family="sans-serif" font-size="11" lengthAdjust="spacingAndGlyphs" textLength="62" x="208.5" y="302.8198">exhibition :</text><text fill="#000000" font-family="sans-serif" font-size="11" font-weight="bold" lengthAdjust="spacingAndGlyphs" textLength="150" x="274.5" y="302.8198">exhibition.exhibition_id</text><text fill="#000000" font-family="sans-serif" font-size="11" lengthAdjust="spacingAndGlyphs" textLength="27" x="428.5" y="302.8198">«FK»</text><ellipse cx="199.5" cy="312.4141" fill="none" rx="3" ry="3" style="stroke: #038048; stroke-width: 1.0;"/><text fill="#000000" font-family="sans-serif" font-size="11" lengthAdjust="spacingAndGlyphs" textLength="57" x="208.5" y="315.6245">payment :</text><text fill="#000000" font-family="sans-serif" font-size="11" font-weight="bold" lengthAdjust="spacingAndGlyphs" textLength="232" x="269.5" y="315.6245">payment_details.payment_details_id</text><text fill="#000000" font-family="sans-serif" font-size="11" lengthAdjust="spacingAndGlyphs" textLength="27" x="505.5" y="315.6245">«FK»</text><ellipse cx="199.5" cy="325.2188" fill="none" rx="3" ry="3" style="stroke: #038048; stroke-width: 1.0;"/><text fill="#000000" font-family="sans-serif" font-size="11" lengthAdjust="spacingAndGlyphs" textLength="72" x="208.5" y="328.4292">ticket_id : int</text><line style="stroke: #A80036; stroke-width: 1.5;" x1="189.5" x2="583.5" y1="335.0234" y2="335.0234"/><!--MD5=[bde1413f829cc278731640fabc810278]
reverse link _0 to _1--><path d="M158.0037,179.018 C138.6578,241.5916 116.4031,327.1871 98.5,403 C82.3917,471.2128 65.7819,550.5024 59.6602,600.5868 " fill="none" id="_0&lt;-_1" style="stroke: #A80036; stroke-width: 1.0;"/><line style="stroke: #A80036; stroke-width: 1.0;" x1="158.0858" x2="152.8327" y1="178.7548" y2="171.1181"/><line style="stroke: #A80036; stroke-width: 1.0;" x1="158.0858" x2="168.1061" y1="178.7548" y2="171.1181"/><line style="stroke: #A80036; stroke-width: 1.0;" x1="158.0858" x2="160.4694" y1="178.7548" y2="171.1181"/><text fill="#000000" font-family="sans-serif" font-size="13" lengthAdjust="spacingAndGlyphs" textLength="0" x="59.0099" y="589.933"/><!--MD5=[bde1413f829cc278731640fabc810278]
reverse link _0 to _1--><path d="M187.4525,179.018 C173.6578,241.5916 151.4031,327.1871 133.5,403 C117.3917,471.2128 100.7819,550.5024 86.1951,600.5868 " fill="none" id="_0&lt;-_1-1" style="stroke: #A80036; stroke-width: 1.0;"/><line style="stroke: #A80036; stroke-width: 1.0;" x1="187.4706" x2="181.3587" y1="178.9344" y2="171.1181"/><line style="stroke: #A80036; stroke-width: 1.0;" x1="187.4706" x2="196.9913" y1="178.9344" y2="171.1181"/><line style="stroke: #A80036; stroke-width: 1.0;" x1="187.4706" x2="189.175" y1="178.9344" y2="171.1181"/><text fill="#000000" font-family="sans-serif" font-size="13" lengthAdjust="spacingAndGlyphs" textLength="0" x="89.1104" y="589.933"/><!--MD5=[eed656a2cfbc263ae3905a2379d727ae]
reverse link _0 to _2--><path d="M379.4799,118.1072 C456.5428,138.34 542.1552,172.7203 602.5,231 C650.0106,276.8848 673.146,350.4068 684.1245,402.8919 " fill="none" id="_0&lt;-_2" style="stroke: #A80036; stroke-width: 1.0;"/><line style="stroke: #A80036; stroke-width: 1.0;" x1="379.3193" x2="371.5717" y1="118.0659" y2="123.8198"/><line style="stroke: #A80036; stroke-width: 1.0;" x1="379.3193" x2="371.5717" y1="118.0659" y2="108.3246"/><line style="stroke: #A80036; stroke-width: 1.0;" x1="379.3193" x2="371.5717" y1="118.0659" y2="116.0722"/><text fill="#000000" font-family="sans-serif" font-size="13" lengthAdjust="spacingAndGlyphs" textLength="0" x="682.8092" y="391.8702"/><!--MD5=[ea448699c80579924a53b8b5046cae45]
reverse link _0 to _3--><path d="M281.056,177.3937 C298.53,195.5575 316.4811,214.2171 332.5058,230.8745 " fill="none" id="_0&lt;-_3" style="stroke: #A80036; stroke-width: 1.0;"/><line style="stroke: #A80036; stroke-width: 1.0;" x1="280.6982" x2="269.3866" y1="177.0217" y2="171.2565"/><line style="stroke: #A80036; stroke-width: 1.0;" x1="280.6982" x2="280.917" y1="177.0217" y2="171.2565"/><line style="stroke: #A80036; stroke-width: 1.0;" x1="280.6982" x2="275.1518" y1="177.0217" y2="171.2565"/><text fill="#000000" font-family="sans-serif" font-size="13" lengthAdjust="spacingAndGlyphs" textLength="0" x="325.3315" y="219.7964"/><!--MD5=[68addd6110fd42dc811da417aeccbe4e]
reverse link _2 to _4--><path d="M656.0679,535.4488 C646.8379,552.6969 637.0116,571.0591 627.9824,587.9319 " fill="none" id="_2&lt;-_4" style="stroke: #A80036; stroke-width: 1.0;"/><line style="stroke: #A80036; stroke-width: 1.0;" x1="656.2085" x2="652.9295" y1="535.1862" y2="528.1326"/><line style="stroke: #A80036; stroke-width: 1.0;" x1="656.2085" x2="667.0367" y1="535.1862" y2="528.1326"/><line style="stroke: #A80036; stroke-width: 1.0;" x1="656.2085" x2="659.9831" y1="535.1862" y2="528.1326"/><text fill="#000000" font-family="sans-serif" font-size="13" lengthAdjust="spacingAndGlyphs" textLength="0" x="631.6226" y="576.9148"/><!--MD5=[6d4ebb2bb2edf03631fc8b5de109183a]
reverse link _2 to _5--><path d="M730.924,535.4337 C742.5642,557.1856 755.1532,580.7105 765.8966,600.7865 " fill="none" id="_2&lt;-_5" style="stroke: #A80036; stroke-width: 1.0;"/><line style="stroke: #A80036; stroke-width: 1.0;" x1="730.7915" x2="719.9633" y1="535.1862" y2="528.1326"/><line style="stroke: #A80036; stroke-width: 1.0;" x1="730.7915" x2="734.0705" y1="535.1862" y2="528.1326"/><line style="stroke: #A80036; stroke-width: 1.0;" x1="730.7915" x2="727.0169" y1="535.1862" y2="528.1326"/><text fill="#000000" font-family="sans-serif" font-size="13" lengthAdjust="spacingAndGlyphs" textLength="0" x="761.8742" y="589.8017"/><!--MD5=[e6e008698320a9f27e8a0afb4bfaa138]
reverse link _3 to _2--><path d="M490.149,347.265 C520.9469,365.1719 554.7481,384.825 585.7974,402.8781 " fill="none" id="_3&lt;-_2" style="stroke: #A80036; stroke-width: 1.0;"/><line style="stroke: #A80036; stroke-width: 1.0;" x1="490.1313" x2="479.1942" y1="347.2546" y2="343.2335"/><line style="stroke: #A80036; stroke-width: 1.0;" x1="490.1313" x2="487.2364" y1="347.2546" y2="343.2335"/><line style="stroke: #A80036; stroke-width: 1.0;" x1="490.1313" x2="483.2153" y1="347.2546" y2="343.2335"/><text fill="#000000" font-family="sans-serif" font-size="13" lengthAdjust="spacingAndGlyphs" textLength="0" x="573.113" y="391.8548"/><!--MD5=[510df503d95d0230a43042b22d704e04]
reverse link _3 to _6--><path d="M339.169,350.0492 C319.5398,376.197 297.4392,405.637 280.4684,428.2435 " fill="none" id="_3&lt;-_6" style="stroke: #A80036; stroke-width: 1.0;"/><line style="stroke: #A80036; stroke-width: 1.0;" x1="339.2987" x2="337.7037" y1="349.8764" y2="343.4785"/><line style="stroke: #A80036; stroke-width: 1.0;" x1="339.2987" x2="350.4995" y1="349.8764" y2="343.4785"/><line style="stroke: #A80036; stroke-width: 1.0;" x1="339.2987" x2="344.1016" y1="349.8764" y2="343.4785"/><text fill="#000000" font-family="sans-serif" font-size="13" lengthAdjust="spacingAndGlyphs" textLength="0" x="285.094" y="417.3848"/><!--MD5=[302fddd2497c975672137639babeaac0]
reverse link _3 to _7--><path d="M415.7909,350.7614 C426.7087,374.5275 438.8356,400.9257 448.7024,422.4039 " fill="none" id="_3&lt;-_7" style="stroke: #A80036; stroke-width: 1.0;"/><line style="stroke: #A80036; stroke-width: 1.0;" x1="415.7848" x2="405.1757" y1="350.7481" y2="343.4785"/><line style="stroke: #A80036; stroke-width: 1.0;" x1="415.7848" x2="419.7149" y1="350.7481" y2="343.4785"/><line style="stroke: #A80036; stroke-width: 1.0;" x1="415.7848" x2="412.4453" y1="350.7481" y2="343.4785"/><text fill="#000000" font-family="sans-serif" font-size="13" lengthAdjust="spacingAndGlyphs" textLength="0" x="445.2284" y="411.3846"/><!--MD5=[299d30f220ef4c56106067915d61f792]
reverse link _6 to _1--><path d="M208.1428,508.6899 C179.827,536.2606 143.0291,572.0901 113.5063,600.836 " fill="none" id="_6&lt;-_1" style="stroke: #A80036; stroke-width: 1.0;"/><line style="stroke: #A80036; stroke-width: 1.0;" x1="208.3189" x2="208.4698" y1="508.5184" y2="502.9375"/><line style="stroke: #A80036; stroke-width: 1.0;" x1="208.3189" x2="219.6316" y1="508.5184" y2="502.9375"/><line style="stroke: #A80036; stroke-width: 1.0;" x1="208.3189" x2="214.0507" y1="508.5184" y2="502.9375"/><text fill="#000000" font-family="sans-serif" font-size="13" lengthAdjust="spacingAndGlyphs" textLength="0" x="120.3978" y="589.8582"/><!--MD5=[555605a817377b39d49a7564fe809227]
@startuml

class "audio_guide" as _0 << (D,orchid) >> {
+ activation_date : date
+ audio_guide_id : int
+ issue_point : **location.location_id** <<FK>>
+ language : float
+ listen_time : float
+ payment : **payment_details.payment_details_id** <<FK>>
+ return_point : **location.location_id** <<FK>>
+ ticket_id : **ticket.ticket_id** <<FK>>
+ type : float
}
class "card_payment" as _4 << (D,orchid) >> {
+ bank_name : string
+ bank_short_name : string
+ branch : string
+ card_number_snippet : string
+ expiry : string
+ id : int
}
class "cash_payment" as _5 << (D,orchid) >> {
+ city : string
+ country : string
+ first_name : string
+ id : int
}
class "checkpoint_lookup" as _6 << (D,orchid) >> {
+ checkpoint_lookup_id : int
+ location : **location.location_id** <<FK>>
}
class "exhibition" as _7 << (D,orchid) >> {
+ capacity : int
+ exhibition_id : int
+ time : datetime
}
class "location" as _1 << (D,orchid) >> {
+ location_id : int
+ name : float
+ time : datetime
+ type : float
}
class "payment_details" as _2 << (D,orchid) >> {
+ online : bool
+ payment_card : **card_payment.id** <<FK>>
+ payment_cash : **cash_payment.id** <<FK>>
+ payment_details_id : int
+ price : decimal
+ type : float
}
class "ticket" as _3 << (D,orchid) >> {
+ arrival_transport : float
+ checkpoints : **checkpoint_lookup.checkpoint_lookup_id** <<FK>>
+ exhibition : **exhibition.exhibition_id** <<FK>>
+ payment : **payment_details.payment_details_id** <<FK>>
+ ticket_id : int
}
_0 }- - " " _1
_0 }- - " " _1
_0 }- - " " _2
_0 }- - " " _3
_2 }- - " " _4
_2 }- - " " _5
_3 }- - " " _2
_3 }- - " " _6
_3 }- - " " _7
_6 }- - " " _1
@enduml

PlantUML version 1.2020.08(Sun Apr 26 14:08:22 UTC 2020)
(GPL source distribution)
Java Runtime: OpenJDK Runtime Environment
JVM: OpenJDK 64-Bit Server VM
Java Version: 1.8.0_252-b09
Operating System: Linux
Default Encoding: UTF-8
Language: en
Country: null
--></g></svg>
