<?xml version="1.0" encoding="UTF-8" standalone="no"?><svg xmlns="http://www.w3.org/2000/svg" xmlns:xlink="http://www.w3.org/1999/xlink" contentScriptType="application/ecmascript" contentStyleType="text/css" height="392px" preserveAspectRatio="none" style="width:390px;height:392px;" version="1.1" viewBox="0 0 390 392" width="390px" zoomAndPan="magnify"><defs><filter height="300%" id="futi05fps9k2a" width="300%" x="-1" y="-1"><feGaussianBlur result="blurOut" stdDeviation="2.0"/><feColorMatrix in="blurOut" result="blurOut2" type="matrix" values="0 0 0 0 0 0 0 0 0 0 0 0 0 0 0 0 0 0 .4 0"/><feOffset dx="4.0" dy="4.0" in="blurOut2" result="blurOut3"/><feBlend in="SourceGraphic" in2="blurOut3" mode="normal"/></filter></defs><g><text fill="#000000" font-family="sans-serif" font-size="18" lengthAdjust="spacingAndGlyphs" textLength="117" x="147.5" y="16.708">ThirdDivision</text><!--MD5=[758d88821a0e741df1f73accbabae398]
cluster X_0--><rect fill="#FFFAF0" filter="url(#futi05fps9k2a)" height="91" rx="12.5" ry="12.5" style="stroke: #000000; stroke-width: 1.5;" width="318.5" x="59.5" y="290.9531"/><rect fill="#FFFFFF" height="58.7031" rx="12.5" ry="12.5" style="stroke: #FFFFFF; stroke-width: 1.0;" width="312.5" x="62.5" y="320.25"/><line style="stroke: #000000; stroke-width: 1.5;" x1="59.5" x2="378" y1="317.25" y2="317.25"/><text fill="#000000" font-family="sans-serif" font-size="14" lengthAdjust="spacingAndGlyphs" textLength="72" x="182.75" y="307.9482">MobileApp</text><!--MD5=[cecb9a85ae19b9003f4441b135e71cd6]
cluster X_1--><rect fill="#FFFAF0" filter="url(#futi05fps9k2a)" height="91" rx="12.5" ry="12.5" style="stroke: #000000; stroke-width: 1.5;" width="356" x="22" y="44.9531"/><rect fill="#FFFFFF" height="58.7031" rx="12.5" ry="12.5" style="stroke: #FFFFFF; stroke-width: 1.0;" width="350" x="25" y="74.25"/><line style="stroke: #000000; stroke-width: 1.5;" x1="22" x2="378" y1="71.25" y2="71.25"/><text fill="#000000" font-family="sans-serif" font-size="14" lengthAdjust="spacingAndGlyphs" textLength="81" x="159.5" y="61.9482">MobileApp2</text><!--MD5=[51e8d94a944361a156a1f52e5c4894ba]
cluster X_2--><rect fill="#FFFAF0" filter="url(#futi05fps9k2a)" height="107" rx="12.5" ry="12.5" style="stroke: #000000; stroke-width: 1.5;" width="130" x="227.5" y="159.9531"/><rect fill="#FFFFFF" height="74.7031" rx="12.5" ry="12.5" style="stroke: #FFFFFF; stroke-width: 1.0;" width="124" x="230.5" y="189.25"/><line style="stroke: #000000; stroke-width: 1.5;" x1="227.5" x2="357.5" y1="186.25" y2="186.25"/><text fill="#000000" font-family="sans-serif" font-size="14" lengthAdjust="spacingAndGlyphs" textLength="44" x="254" y="176.9482">Server</text><rect fill="#FFFAF0" filter="url(#futi05fps9k2a)" height="40" rx="12.5" ry="12.5" style="stroke: #000000; stroke-width: 1.5;" width="139" x="223" y="325.9531"/><text fill="#000000" font-family="sans-serif" font-size="14" lengthAdjust="spacingAndGlyphs" textLength="129" x="228" y="350.7998">Authenticate client</text><rect fill="#FFFAF0" filter="url(#futi05fps9k2a)" height="40" rx="12.5" ry="12.5" style="stroke: #000000; stroke-width: 1.5;" width="50" x="75.5" y="325.9531"/><text fill="#000000" font-family="sans-serif" font-size="14" lengthAdjust="spacingAndGlyphs" textLength="37" x="82" y="350.7998">Login</text><rect fill="#FFFAF0" filter="url(#futi05fps9k2a)" height="40" rx="12.5" ry="12.5" style="stroke: #000000; stroke-width: 1.5;" width="139" x="223" y="79.9531"/><text fill="#000000" font-family="sans-serif" font-size="14" lengthAdjust="spacingAndGlyphs" textLength="129" x="228" y="104.7998">Authenticate client</text><rect fill="#FFFAF0" filter="url(#futi05fps9k2a)" height="40" rx="12.5" ry="12.5" style="stroke: #000000; stroke-width: 1.5;" width="125" x="38" y="79.9531"/><text fill="#000000" font-family="sans-serif" font-size="14" lengthAdjust="spacingAndGlyphs" textLength="115" x="43" y="104.7998">SecondEndpoint</text><rect fill="#FFFAF0" filter="url(#futi05fps9k2a)" height="40" rx="12.5" ry="12.5" style="stroke: #000000; stroke-width: 1.5;" width="98" x="243.5" y="210.9531"/><text fill="#000000" font-family="sans-serif" font-size="14" lengthAdjust="spacingAndGlyphs" textLength="88" x="248.5" y="235.7998">Authenticate</text><!--MD5=[b4e3d399786c33682cf7201d5a7381ec]
link _1 to _0--><path d="M125.564,345.9531 C148.691,345.9531 184.851,345.9531 217.519,345.9531 " fill="none" id="_1-&gt;_0" style="stroke: #C0C0C0; stroke-width: 1.0;"/><polygon fill="#C0C0C0" points="222.729,345.9531,213.729,341.9531,217.729,345.9531,213.729,349.9531,222.729,345.9531" style="stroke: #C0C0C0; stroke-width: 1.0;"/><!--MD5=[66d2e95ee2e3e1b5b59548f8bdae5bf2]
link _0 to _4--><path d="M292.5,325.7383 C292.5,302.6754 292.5,279.6131 292.5,256.5501 " fill="none" id="_0-&gt;_4" style="stroke: #000000; stroke-width: 1.0;"/><polygon fill="#000000" points="292.5,251.3171,288.5,260.3171,292.5,256.3171,296.5,260.3171,292.5,251.3171" style="stroke: #000000; stroke-width: 1.0;"/><!--MD5=[450ea2f654882f822490fe83b2b538b8]
link _3 to _2--><path d="M163.188,99.9531 C180.619,99.9531 199.765,99.9531 217.826,99.9531 " fill="none" id="_3-&gt;_2" style="stroke: #C0C0C0; stroke-width: 1.0;"/><polygon fill="#C0C0C0" points="222.889,99.9531,213.889,95.9531,217.889,99.9531,213.889,103.9531,222.889,99.9531" style="stroke: #C0C0C0; stroke-width: 1.0;"/><!--MD5=[7147dd2715d95ef75e19400737a46bd1]
link _2 to _4--><path d="M292.5,120.2931 C292.5,148.6751 292.5,177.0581 292.5,205.4401 " fill="none" id="_2-&gt;_4" style="stroke: #000000; stroke-width: 1.0;"/><polygon fill="#000000" points="292.5,210.7401,296.5,201.7401,292.5,205.7401,288.5,201.7401,292.5,210.7401" style="stroke: #000000; stroke-width: 1.0;"/><!--MD5=[a6e0b111f46065d64c0bc123ba2bf5a7]
@startuml


title ThirdDivision
left to right direction
scale max 16384 height
hide empty description
skinparam state {
  BackgroundColor FloralWhite
  BorderColor Black
  ArrowColor Crimson
}
state "MobileApp" as X_0 {
  state "Authenticate client" as _0
  state "Login" as _1
}
state "MobileApp2" as X_1 {
  state "Authenticate client" as _2
  state "SecondEndpoint" as _3
}
state "Server" as X_2 <<highlight>> {
  state "Authenticate" as _4 <<highlight>>
}
_1 -[#silver]-> _0
_0 -[#black]> _4
_3 -[#silver]-> _2
_2 -[#black]> _4
@enduml

PlantUML version 1.2019.11(Sun Sep 22 10:02:15 UTC 2019)
(GPL source distribution)
Java Runtime: OpenJDK Runtime Environment
JVM: OpenJDK 64-Bit Server VM
Java Version: 1.8.0_222-b10
Operating System: Linux
Default Encoding: UTF-8
Language: en
Country: null
--></g></svg>