<?xml version="1.0" encoding="UTF-8" standalone="no"?><svg xmlns="http://www.w3.org/2000/svg" xmlns:xlink="http://www.w3.org/1999/xlink" contentScriptType="application/ecmascript" contentStyleType="text/css" height="290px" preserveAspectRatio="none" style="width:367px;height:290px;" version="1.1" viewBox="0 0 367 290" width="367px" zoomAndPan="magnify"><defs><filter height="300%" id="f10sy1mrq99m4h" width="300%" x="-1" y="-1"><feGaussianBlur result="blurOut" stdDeviation="2.0"/><feColorMatrix in="blurOut" result="blurOut2" type="matrix" values="0 0 0 0 0 0 0 0 0 0 0 0 0 0 0 0 0 0 .4 0"/><feOffset dx="4.0" dy="4.0" in="blurOut2" result="blurOut3"/><feBlend in="SourceGraphic" in2="blurOut3" mode="normal"/></filter></defs><g><!--MD5=[f77682fd75c3e1fc6a82f566c0814d0f]
class _0--><rect fill="#FEFECE" filter="url(#f10sy1mrq99m4h)" height="163.2422" id="_0" style="stroke: #A80036; stroke-width: 1.5;" width="350" x="6" y="8"/><ellipse cx="108.75" cy="24" fill="#DA70D6" rx="11" ry="11" style="stroke: #A80036; stroke-width: 1.0;"/><path d="M108.3438,19.8125 L108.3438,27.7969 L109,27.7969 Q110.4375,27.7969 111.0547,26.8828 Q111.6719,25.9688 111.6719,23.7969 Q111.6719,21.625 111.0547,20.7188 Q110.4375,19.8125 109,19.8125 L108.3438,19.8125 Z M105.8906,17.6094 L108.5156,17.6094 Q111.5469,17.6094 112.8828,19.0547 Q114.2188,20.5 114.2188,23.7969 Q114.2188,27.0938 112.8828,28.5469 Q111.5469,30 108.5156,30 L105.8906,30 L105.8906,17.6094 Z "/><text fill="#000000" font-family="sans-serif" font-size="12" lengthAdjust="spacingAndGlyphs" textLength="136" x="129.25" y="28.1543">RelModel.audio_guide</text><line style="stroke: #A80036; stroke-width: 1.5;" x1="7" x2="355" y1="40" y2="40"/><ellipse cx="17" cy="51" fill="none" rx="3" ry="3" style="stroke: #038048; stroke-width: 1.0;"/><text fill="#000000" font-family="sans-serif" font-size="11" lengthAdjust="spacingAndGlyphs" textLength="122" x="26" y="54.2104">activation_date : date</text><ellipse cx="17" cy="63.8047" fill="none" rx="3" ry="3" style="stroke: #038048; stroke-width: 1.0;"/><text fill="#000000" font-family="sans-serif" font-size="11" lengthAdjust="spacingAndGlyphs" textLength="110" x="26" y="67.0151">audio_guide_id : int</text><ellipse cx="17" cy="76.6094" fill="none" rx="3" ry="3" style="stroke: #038048; stroke-width: 1.0;"/><text fill="#000000" font-family="sans-serif" font-size="11" lengthAdjust="spacingAndGlyphs" textLength="73" x="26" y="79.8198">issue_point :</text><text fill="#000000" font-family="sans-serif" font-size="11" font-weight="bold" lengthAdjust="spacingAndGlyphs" textLength="126" x="103" y="79.8198">location.location_id</text><text fill="#000000" font-family="sans-serif" font-size="11" lengthAdjust="spacingAndGlyphs" textLength="27" x="233" y="79.8198">«FK»</text><ellipse cx="17" cy="89.4141" fill="none" rx="3" ry="3" style="stroke: #038048; stroke-width: 1.0;"/><text fill="#000000" font-family="sans-serif" font-size="11" lengthAdjust="spacingAndGlyphs" textLength="89" x="26" y="92.6245">language : float</text><ellipse cx="17" cy="102.2188" fill="none" rx="3" ry="3" style="stroke: #038048; stroke-width: 1.0;"/><text fill="#000000" font-family="sans-serif" font-size="11" lengthAdjust="spacingAndGlyphs" textLength="99" x="26" y="105.4292">listen_time : float</text><ellipse cx="17" cy="115.0234" fill="none" rx="3" ry="3" style="stroke: #038048; stroke-width: 1.0;"/><text fill="#000000" font-family="sans-serif" font-size="11" lengthAdjust="spacingAndGlyphs" textLength="57" x="26" y="118.2339">payment :</text><text fill="#000000" font-family="sans-serif" font-size="11" font-weight="bold" lengthAdjust="spacingAndGlyphs" textLength="232" x="87" y="118.2339">payment_details.payment_details_id</text><text fill="#000000" font-family="sans-serif" font-size="11" lengthAdjust="spacingAndGlyphs" textLength="27" x="323" y="118.2339">«FK»</text><ellipse cx="17" cy="127.8281" fill="none" rx="3" ry="3" style="stroke: #038048; stroke-width: 1.0;"/><text fill="#000000" font-family="sans-serif" font-size="11" lengthAdjust="spacingAndGlyphs" textLength="77" x="26" y="131.0386">return_point :</text><text fill="#000000" font-family="sans-serif" font-size="11" font-weight="bold" lengthAdjust="spacingAndGlyphs" textLength="126" x="107" y="131.0386">location.location_id</text><text fill="#000000" font-family="sans-serif" font-size="11" lengthAdjust="spacingAndGlyphs" textLength="27" x="237" y="131.0386">«FK»</text><ellipse cx="17" cy="140.6328" fill="none" rx="3" ry="3" style="stroke: #038048; stroke-width: 1.0;"/><text fill="#000000" font-family="sans-serif" font-size="11" lengthAdjust="spacingAndGlyphs" textLength="54" x="26" y="143.8433">ticket_id :</text><text fill="#000000" font-family="sans-serif" font-size="11" font-weight="bold" lengthAdjust="spacingAndGlyphs" textLength="94" x="84" y="143.8433">ticket.ticket_id</text><text fill="#000000" font-family="sans-serif" font-size="11" lengthAdjust="spacingAndGlyphs" textLength="27" x="182" y="143.8433">«FK»</text><ellipse cx="17" cy="153.4375" fill="none" rx="3" ry="3" style="stroke: #038048; stroke-width: 1.0;"/><text fill="#000000" font-family="sans-serif" font-size="11" lengthAdjust="spacingAndGlyphs" textLength="61" x="26" y="156.6479">type : float</text><line style="stroke: #A80036; stroke-width: 1.5;" x1="7" x2="355" y1="163.2422" y2="163.2422"/><!--MD5=[37d6e5304215b5e345f427169db70937]
class _1--><rect fill="#FEFECE" filter="url(#f10sy1mrq99m4h)" height="48" id="_1" style="stroke: #A80036; stroke-width: 1.5;" width="46" x="118" y="231"/><ellipse cx="133" cy="247" fill="#ADD1B2" rx="11" ry="11" style="stroke: #A80036; stroke-width: 1.0;"/><path d="M135.9688,252.6406 Q135.3906,252.9375 134.75,253.0859 Q134.1094,253.2344 133.4063,253.2344 Q130.9063,253.2344 129.5859,251.5859 Q128.2656,249.9375 128.2656,246.8125 Q128.2656,243.6875 129.5859,242.0313 Q130.9063,240.375 133.4063,240.375 Q134.1094,240.375 134.7578,240.5313 Q135.4063,240.6875 135.9688,240.9844 L135.9688,243.7031 Q135.3438,243.125 134.75,242.8516 Q134.1563,242.5781 133.5313,242.5781 Q132.1875,242.5781 131.5,243.6484 Q130.8125,244.7188 130.8125,246.8125 Q130.8125,248.9063 131.5,249.9766 Q132.1875,251.0469 133.5313,251.0469 Q134.1563,251.0469 134.75,250.7734 Q135.3438,250.5 135.9688,249.9219 L135.9688,252.6406 Z "/><text fill="#000000" font-family="sans-serif" font-size="12" lengthAdjust="spacingAndGlyphs" textLength="14" x="147" y="251.1543">_1</text><line style="stroke: #A80036; stroke-width: 1.5;" x1="119" x2="163" y1="263" y2="263"/><line style="stroke: #A80036; stroke-width: 1.5;" x1="119" x2="163" y1="271" y2="271"/><!--MD5=[95d1cea1cd7f69d371fe62aa72675e9c]
class _2--><rect fill="#FEFECE" filter="url(#f10sy1mrq99m4h)" height="48" id="_2" style="stroke: #A80036; stroke-width: 1.5;" width="46" x="199" y="231"/><ellipse cx="214" cy="247" fill="#ADD1B2" rx="11" ry="11" style="stroke: #A80036; stroke-width: 1.0;"/><path d="M216.9688,252.6406 Q216.3906,252.9375 215.75,253.0859 Q215.1094,253.2344 214.4063,253.2344 Q211.9063,253.2344 210.5859,251.5859 Q209.2656,249.9375 209.2656,246.8125 Q209.2656,243.6875 210.5859,242.0313 Q211.9063,240.375 214.4063,240.375 Q215.1094,240.375 215.7578,240.5313 Q216.4063,240.6875 216.9688,240.9844 L216.9688,243.7031 Q216.3438,243.125 215.75,242.8516 Q215.1563,242.5781 214.5313,242.5781 Q213.1875,242.5781 212.5,243.6484 Q211.8125,244.7188 211.8125,246.8125 Q211.8125,248.9063 212.5,249.9766 Q213.1875,251.0469 214.5313,251.0469 Q215.1563,251.0469 215.75,250.7734 Q216.3438,250.5 216.9688,249.9219 L216.9688,252.6406 Z "/><text fill="#000000" font-family="sans-serif" font-size="12" lengthAdjust="spacingAndGlyphs" textLength="14" x="228" y="251.1543">_2</text><line style="stroke: #A80036; stroke-width: 1.5;" x1="200" x2="244" y1="263" y2="263"/><line style="stroke: #A80036; stroke-width: 1.5;" x1="200" x2="244" y1="271" y2="271"/><!--MD5=[4df2e88eba431a2a56d213b7bca710d9]
class _3--><rect fill="#FEFECE" filter="url(#f10sy1mrq99m4h)" height="48" id="_3" style="stroke: #A80036; stroke-width: 1.5;" width="46" x="280" y="231"/><ellipse cx="295" cy="247" fill="#ADD1B2" rx="11" ry="11" style="stroke: #A80036; stroke-width: 1.0;"/><path d="M297.9688,252.6406 Q297.3906,252.9375 296.75,253.0859 Q296.1094,253.2344 295.4063,253.2344 Q292.9063,253.2344 291.5859,251.5859 Q290.2656,249.9375 290.2656,246.8125 Q290.2656,243.6875 291.5859,242.0313 Q292.9063,240.375 295.4063,240.375 Q296.1094,240.375 296.7578,240.5313 Q297.4063,240.6875 297.9688,240.9844 L297.9688,243.7031 Q297.3438,243.125 296.75,242.8516 Q296.1563,242.5781 295.5313,242.5781 Q294.1875,242.5781 293.5,243.6484 Q292.8125,244.7188 292.8125,246.8125 Q292.8125,248.9063 293.5,249.9766 Q294.1875,251.0469 295.5313,251.0469 Q296.1563,251.0469 296.75,250.7734 Q297.3438,250.5 297.9688,249.9219 L297.9688,252.6406 Z "/><text fill="#000000" font-family="sans-serif" font-size="12" lengthAdjust="spacingAndGlyphs" textLength="14" x="309" y="251.1543">_3</text><line style="stroke: #A80036; stroke-width: 1.5;" x1="281" x2="325" y1="263" y2="263"/><line style="stroke: #A80036; stroke-width: 1.5;" x1="281" x2="325" y1="271" y2="271"/><!--MD5=[bde1413f829cc278731640fabc810278]
reverse link _0 to _1--><path d="M146.583,179.2346 C142.12,198.4065 138.725,217.0623 137.44,230.9428 " fill="none" id="_0&lt;-_1" style="stroke: #A80036; stroke-width: 1.0;"/><line style="stroke: #A80036; stroke-width: 1.0;" x1="146.6219" x2="140.705" y1="179.072" y2="171.292"/><line style="stroke: #A80036; stroke-width: 1.0;" x1="146.6219" x2="156.265" y1="179.072" y2="171.292"/><line style="stroke: #A80036; stroke-width: 1.0;" x1="146.6219" x2="148.485" y1="179.072" y2="171.292"/><text fill="#000000" font-family="sans-serif" font-size="13" lengthAdjust="spacingAndGlyphs" textLength="0" x="136.0152" y="219.9402"/><!--MD5=[bde1413f829cc278731640fabc810278]
reverse link _0 to _1--><path d="M172.747,179.2346 C167.815,198.4065 162.013,217.0623 156.383,230.9428 " fill="none" id="_0&lt;-_1-1" style="stroke: #A80036; stroke-width: 1.0;"/><line style="stroke: #A80036; stroke-width: 1.0;" x1="172.7936" x2="166.9729" y1="179.0531" y2="171.292"/><line style="stroke: #A80036; stroke-width: 1.0;" x1="172.7936" x2="182.4951" y1="179.0531" y2="171.292"/><line style="stroke: #A80036; stroke-width: 1.0;" x1="172.7936" x2="174.734" y1="179.0531" y2="171.292"/><text fill="#000000" font-family="sans-serif" font-size="13" lengthAdjust="spacingAndGlyphs" textLength="0" x="159.8124" y="219.9402"/><!--MD5=[eed656a2cfbc263ae3905a2379d727ae]
reverse link _0 to _2--><path d="M203.251,179.2346 C208.059,198.4065 212.737,217.0623 216.218,230.9428 " fill="none" id="_0&lt;-_2" style="stroke: #A80036; stroke-width: 1.0;"/><line style="stroke: #A80036; stroke-width: 1.0;" x1="203.2054" x2="193.5001" y1="179.0519" y2="171.292"/><line style="stroke: #A80036; stroke-width: 1.0;" x1="203.2054" x2="209.0199" y1="179.0519" y2="171.292"/><line style="stroke: #A80036; stroke-width: 1.0;" x1="203.2054" x2="201.26" y1="179.0519" y2="171.292"/><text fill="#000000" font-family="sans-serif" font-size="13" lengthAdjust="spacingAndGlyphs" textLength="0" x="214.2239" y="219.9402"/><!--MD5=[ea448699c80579924a53b8b5046cae45]
reverse link _0 to _3--><path d="M246.258,177.956 C260.897,197.575 275.208,216.7538 285.795,230.9428 " fill="none" id="_0&lt;-_3" style="stroke: #A80036; stroke-width: 1.0;"/><line style="stroke: #A80036; stroke-width: 1.0;" x1="246.069" x2="234.8731" y1="177.7039" y2="171.292"/><line style="stroke: #A80036; stroke-width: 1.0;" x1="246.069" x2="247.6969" y1="177.7039" y2="171.292"/><line style="stroke: #A80036; stroke-width: 1.0;" x1="246.069" x2="241.285" y1="177.7039" y2="171.292"/><text fill="#000000" font-family="sans-serif" font-size="13" lengthAdjust="spacingAndGlyphs" textLength="0" x="280.8737" y="219.9402"/><!--MD5=[ba85db29eff976c77e1e282790e41629]
@startuml

class "RelModel.audio_guide" as _0 << (D,orchid) >> {
+ activation_date : date
+ audio_guide_id : int
+ issue_point : **location.location_id** <<FK>>
+ language : float
+ listen_time : float
+ payment : **payment_details.payment_details_id** <<FK>>
+ return_point : **location.location_id** <<FK>>
+ ticket_id : **ticket.ticket_id** <<FK>>
+ type : float
}
_0 }- - " " _1
_0 }- - " " _1
_0 }- - " " _2
_0 }- - " " _3
@enduml

PlantUML version 1.2019.11(Sun Sep 22 10:02:15 UTC 2019)
(GPL source distribution)
Java Runtime: OpenJDK Runtime Environment
JVM: OpenJDK 64-Bit Server VM
Java Version: 1.8.0_222-b10
Operating System: Linux
Default Encoding: UTF-8
Language: en
Country: null
--></g></svg>
