<?xml version="1.0" encoding="UTF-8" standalone="no"?><svg xmlns="http://www.w3.org/2000/svg" xmlns:xlink="http://www.w3.org/1999/xlink" contentScriptType="application/ecmascript" contentStyleType="text/css" height="252px" preserveAspectRatio="none" style="width:275px;height:252px;" version="1.1" viewBox="0 0 275 252" width="275px" zoomAndPan="magnify"><defs><filter height="300%" id="f1ljkchvy9e91j" width="300%" x="-1" y="-1"><feGaussianBlur result="blurOut" stdDeviation="2.0"/><feColorMatrix in="blurOut" result="blurOut2" type="matrix" values="0 0 0 0 0 0 0 0 0 0 0 0 0 0 0 0 0 0 .4 0"/><feOffset dx="4.0" dy="4.0" in="blurOut2" result="blurOut3"/><feBlend in="SourceGraphic" in2="blurOut3" mode="normal"/></filter></defs><g><!--MD5=[f77682fd75c3e1fc6a82f566c0814d0f]
class _0--><rect fill="#FEFECE" filter="url(#f1ljkchvy9e91j)" height="124.8281" id="_0" style="stroke: #A80036; stroke-width: 1.5;" width="258" x="6" y="8"/><ellipse cx="49.8" cy="24" fill="#DA70D6" rx="11" ry="11" style="stroke: #A80036; stroke-width: 1.0;"/><path d="M49.3938,19.8125 L49.3938,27.7969 L50.05,27.7969 Q51.4875,27.7969 52.1047,26.8828 Q52.7219,25.9688 52.7219,23.7969 Q52.7219,21.625 52.1047,20.7188 Q51.4875,19.8125 50.05,19.8125 L49.3938,19.8125 Z M46.9406,17.6094 L49.5656,17.6094 Q52.5969,17.6094 53.9328,19.0547 Q55.2688,20.5 55.2688,23.7969 Q55.2688,27.0938 53.9328,28.5469 Q52.5969,30 49.5656,30 L46.9406,30 L46.9406,17.6094 Z "/><text fill="#000000" font-family="sans-serif" font-size="12" lengthAdjust="spacingAndGlyphs" textLength="162" x="70.2" y="28.1543">RelModel.payment_details</text><line style="stroke: #A80036; stroke-width: 1.5;" x1="7" x2="263" y1="40" y2="40"/><ellipse cx="17" cy="51" fill="none" rx="3" ry="3" style="stroke: #038048; stroke-width: 1.0;"/><text fill="#000000" font-family="sans-serif" font-size="11" lengthAdjust="spacingAndGlyphs" textLength="70" x="26" y="54.2104">online : bool</text><ellipse cx="17" cy="63.8047" fill="none" rx="3" ry="3" style="stroke: #038048; stroke-width: 1.0;"/><text fill="#000000" font-family="sans-serif" font-size="11" lengthAdjust="spacingAndGlyphs" textLength="88" x="26" y="67.0151">payment_card :</text><text fill="#000000" font-family="sans-serif" font-size="11" font-weight="bold" lengthAdjust="spacingAndGlyphs" textLength="105" x="118" y="67.0151">card_payment.id</text><text fill="#000000" font-family="sans-serif" font-size="11" lengthAdjust="spacingAndGlyphs" textLength="27" x="227" y="67.0151">«FK»</text><ellipse cx="17" cy="76.6094" fill="none" rx="3" ry="3" style="stroke: #038048; stroke-width: 1.0;"/><text fill="#000000" font-family="sans-serif" font-size="11" lengthAdjust="spacingAndGlyphs" textLength="90" x="26" y="79.8198">payment_cash :</text><text fill="#000000" font-family="sans-serif" font-size="11" font-weight="bold" lengthAdjust="spacingAndGlyphs" textLength="107" x="120" y="79.8198">cash_payment.id</text><text fill="#000000" font-family="sans-serif" font-size="11" lengthAdjust="spacingAndGlyphs" textLength="27" x="231" y="79.8198">«FK»</text><ellipse cx="17" cy="89.4141" fill="none" rx="3" ry="3" style="stroke: #038048; stroke-width: 1.0;"/><text fill="#000000" font-family="sans-serif" font-size="11" lengthAdjust="spacingAndGlyphs" textLength="135" x="26" y="92.6245">payment_details_id : int</text><ellipse cx="17" cy="102.2188" fill="none" rx="3" ry="3" style="stroke: #038048; stroke-width: 1.0;"/><text fill="#000000" font-family="sans-serif" font-size="11" lengthAdjust="spacingAndGlyphs" textLength="84" x="26" y="105.4292">price : decimal</text><ellipse cx="17" cy="115.0234" fill="none" rx="3" ry="3" style="stroke: #038048; stroke-width: 1.0;"/><text fill="#000000" font-family="sans-serif" font-size="11" lengthAdjust="spacingAndGlyphs" textLength="61" x="26" y="118.2339">type : float</text><line style="stroke: #A80036; stroke-width: 1.5;" x1="7" x2="263" y1="124.8281" y2="124.8281"/><!--MD5=[37d6e5304215b5e345f427169db70937]
class _1--><rect fill="#FEFECE" filter="url(#f1ljkchvy9e91j)" height="48" id="_1" style="stroke: #A80036; stroke-width: 1.5;" width="46" x="72" y="193"/><ellipse cx="87" cy="209" fill="#ADD1B2" rx="11" ry="11" style="stroke: #A80036; stroke-width: 1.0;"/><path d="M89.9688,214.6406 Q89.3906,214.9375 88.75,215.0859 Q88.1094,215.2344 87.4063,215.2344 Q84.9063,215.2344 83.5859,213.5859 Q82.2656,211.9375 82.2656,208.8125 Q82.2656,205.6875 83.5859,204.0313 Q84.9063,202.375 87.4063,202.375 Q88.1094,202.375 88.7578,202.5313 Q89.4063,202.6875 89.9688,202.9844 L89.9688,205.7031 Q89.3438,205.125 88.75,204.8516 Q88.1563,204.5781 87.5313,204.5781 Q86.1875,204.5781 85.5,205.6484 Q84.8125,206.7188 84.8125,208.8125 Q84.8125,210.9063 85.5,211.9766 Q86.1875,213.0469 87.5313,213.0469 Q88.1563,213.0469 88.75,212.7734 Q89.3438,212.5 89.9688,211.9219 L89.9688,214.6406 Z "/><text fill="#000000" font-family="sans-serif" font-size="12" lengthAdjust="spacingAndGlyphs" textLength="14" x="101" y="213.1543">_1</text><line style="stroke: #A80036; stroke-width: 1.5;" x1="73" x2="117" y1="225" y2="225"/><line style="stroke: #A80036; stroke-width: 1.5;" x1="73" x2="117" y1="233" y2="233"/><!--MD5=[95d1cea1cd7f69d371fe62aa72675e9c]
class _2--><rect fill="#FEFECE" filter="url(#f1ljkchvy9e91j)" height="48" id="_2" style="stroke: #A80036; stroke-width: 1.5;" width="46" x="153" y="193"/><ellipse cx="168" cy="209" fill="#ADD1B2" rx="11" ry="11" style="stroke: #A80036; stroke-width: 1.0;"/><path d="M170.9688,214.6406 Q170.3906,214.9375 169.75,215.0859 Q169.1094,215.2344 168.4063,215.2344 Q165.9063,215.2344 164.5859,213.5859 Q163.2656,211.9375 163.2656,208.8125 Q163.2656,205.6875 164.5859,204.0313 Q165.9063,202.375 168.4063,202.375 Q169.1094,202.375 169.7578,202.5313 Q170.4063,202.6875 170.9688,202.9844 L170.9688,205.7031 Q170.3438,205.125 169.75,204.8516 Q169.1563,204.5781 168.5313,204.5781 Q167.1875,204.5781 166.5,205.6484 Q165.8125,206.7188 165.8125,208.8125 Q165.8125,210.9063 166.5,211.9766 Q167.1875,213.0469 168.5313,213.0469 Q169.1563,213.0469 169.75,212.7734 Q170.3438,212.5 170.9688,211.9219 L170.9688,214.6406 Z "/><text fill="#000000" font-family="sans-serif" font-size="12" lengthAdjust="spacingAndGlyphs" textLength="14" x="182" y="213.1543">_2</text><line style="stroke: #A80036; stroke-width: 1.5;" x1="154" x2="198" y1="225" y2="225"/><line style="stroke: #A80036; stroke-width: 1.5;" x1="154" x2="198" y1="233" y2="233"/><!--MD5=[bde1413f829cc278731640fabc810278]
reverse link _0 to _1--><path d="M115.78,140.932 C110.583,159.7066 105.3156,178.7349 101.3844,192.9363 " fill="none" id="_0&lt;-_1" style="stroke: #A80036; stroke-width: 1.0;"/><line style="stroke: #A80036; stroke-width: 1.0;" x1="115.7854" x2="110.21" y1="140.91" y2="133.2"/><line style="stroke: #A80036; stroke-width: 1.0;" x1="115.7854" x2="125.63" y1="140.91" y2="133.2"/><line style="stroke: #A80036; stroke-width: 1.0;" x1="115.7854" x2="117.92" y1="140.91" y2="133.2"/><text fill="#000000" font-family="sans-serif" font-size="13" lengthAdjust="spacingAndGlyphs" textLength="0" x="102.5079" y="181.932"/><!--MD5=[eed656a2cfbc263ae3905a2379d727ae]
reverse link _0 to _2--><path d="M154.701,140.932 C160.027,159.7066 165.427,178.7349 169.456,192.9363 " fill="none" id="_0&lt;-_2" style="stroke: #A80036; stroke-width: 1.0;"/><line style="stroke: #A80036; stroke-width: 1.0;" x1="154.691" x2="144.8109" y1="140.8961" y2="133.2"/><line style="stroke: #A80036; stroke-width: 1.0;" x1="154.691" x2="160.2031" y1="140.8961" y2="133.2"/><line style="stroke: #A80036; stroke-width: 1.0;" x1="154.691" x2="152.507" y1="140.8961" y2="133.2"/><text fill="#000000" font-family="sans-serif" font-size="13" lengthAdjust="spacingAndGlyphs" textLength="0" x="167.2666" y="181.932"/><!--MD5=[10c441c7dc873e77c999deb1eb565ad8]
@startuml

class "RelModel.payment_details" as _0 << (D,orchid) >> {
+ online : bool
+ payment_card : **card_payment.id** <<FK>>
+ payment_cash : **cash_payment.id** <<FK>>
+ payment_details_id : int
+ price : decimal
+ type : float
}
_0 }- - " " _1
_0 }- - " " _2
@enduml

PlantUML version 1.2019.11(Sun Sep 22 10:02:15 UTC 2019)
(GPL source distribution)
Java Runtime: OpenJDK Runtime Environment
JVM: OpenJDK 64-Bit Server VM
Java Version: 1.8.0_222-b10
Operating System: Linux
Default Encoding: UTF-8
Language: en
Country: null
--></g></svg>
