<?xml version="1.0" encoding="UTF-8" standalone="no"?><svg xmlns="http://www.w3.org/2000/svg" xmlns:xlink="http://www.w3.org/1999/xlink" contentScriptType="application/ecmascript" contentStyleType="text/css" height="239px" preserveAspectRatio="none" style="width:413px;height:239px;" version="1.1" viewBox="0 0 413 239" width="413px" zoomAndPan="magnify"><defs><filter height="300%" id="ftudjjhew9ojx" width="300%" x="-1" y="-1"><feGaussianBlur result="blurOut" stdDeviation="2.0"/><feColorMatrix in="blurOut" result="blurOut2" type="matrix" values="0 0 0 0 0 0 0 0 0 0 0 0 0 0 0 0 0 0 .4 0"/><feOffset dx="4.0" dy="4.0" in="blurOut2" result="blurOut3"/><feBlend in="SourceGraphic" in2="blurOut3" mode="normal"/></filter></defs><g><!--MD5=[f77682fd75c3e1fc6a82f566c0814d0f]
class _0--><rect fill="#FEFECE" filter="url(#ftudjjhew9ojx)" height="112.0234" id="_0" style="stroke: #A80036; stroke-width: 1.5;" width="396" x="6" y="8"/><ellipse cx="152.25" cy="24" fill="#DA70D6" rx="11" ry="11" style="stroke: #A80036; stroke-width: 1.0;"/><path d="M151.8438,19.8125 L151.8438,27.7969 L152.5,27.7969 Q153.9375,27.7969 154.5547,26.8828 Q155.1719,25.9688 155.1719,23.7969 Q155.1719,21.625 154.5547,20.7188 Q153.9375,19.8125 152.5,19.8125 L151.8438,19.8125 Z M149.3906,17.6094 L152.0156,17.6094 Q155.0469,17.6094 156.3828,19.0547 Q157.7188,20.5 157.7188,23.7969 Q157.7188,27.0938 156.3828,28.5469 Q155.0469,30 152.0156,30 L149.3906,30 L149.3906,17.6094 Z "/><text fill="#000000" font-family="sans-serif" font-size="12" lengthAdjust="spacingAndGlyphs" textLength="95" x="172.75" y="28.1543">RelModel.ticket</text><line style="stroke: #A80036; stroke-width: 1.5;" x1="7" x2="401" y1="40" y2="40"/><ellipse cx="17" cy="51" fill="none" rx="3" ry="3" style="stroke: #038048; stroke-width: 1.0;"/><text fill="#000000" font-family="sans-serif" font-size="11" lengthAdjust="spacingAndGlyphs" textLength="132" x="26" y="54.2104">arrival_transport : float</text><ellipse cx="17" cy="63.8047" fill="none" rx="3" ry="3" style="stroke: #038048; stroke-width: 1.0;"/><text fill="#000000" font-family="sans-serif" font-size="11" lengthAdjust="spacingAndGlyphs" textLength="75" x="26" y="67.0151">checkpoints :</text><text fill="#000000" font-family="sans-serif" font-size="11" font-weight="bold" lengthAdjust="spacingAndGlyphs" textLength="260" x="105" y="67.0151">checkpoint_lookup.checkpoint_lookup_id</text><text fill="#000000" font-family="sans-serif" font-size="11" lengthAdjust="spacingAndGlyphs" textLength="27" x="369" y="67.0151">«FK»</text><ellipse cx="17" cy="76.6094" fill="none" rx="3" ry="3" style="stroke: #038048; stroke-width: 1.0;"/><text fill="#000000" font-family="sans-serif" font-size="11" lengthAdjust="spacingAndGlyphs" textLength="62" x="26" y="79.8198">exhibition :</text><text fill="#000000" font-family="sans-serif" font-size="11" font-weight="bold" lengthAdjust="spacingAndGlyphs" textLength="150" x="92" y="79.8198">exhibition.exhibition_id</text><text fill="#000000" font-family="sans-serif" font-size="11" lengthAdjust="spacingAndGlyphs" textLength="27" x="246" y="79.8198">«FK»</text><ellipse cx="17" cy="89.4141" fill="none" rx="3" ry="3" style="stroke: #038048; stroke-width: 1.0;"/><text fill="#000000" font-family="sans-serif" font-size="11" lengthAdjust="spacingAndGlyphs" textLength="57" x="26" y="92.6245">payment :</text><text fill="#000000" font-family="sans-serif" font-size="11" font-weight="bold" lengthAdjust="spacingAndGlyphs" textLength="232" x="87" y="92.6245">payment_details.payment_details_id</text><text fill="#000000" font-family="sans-serif" font-size="11" lengthAdjust="spacingAndGlyphs" textLength="27" x="323" y="92.6245">«FK»</text><ellipse cx="17" cy="102.2188" fill="none" rx="3" ry="3" style="stroke: #038048; stroke-width: 1.0;"/><text fill="#000000" font-family="sans-serif" font-size="11" lengthAdjust="spacingAndGlyphs" textLength="72" x="26" y="105.4292">ticket_id : int</text><line style="stroke: #A80036; stroke-width: 1.5;" x1="7" x2="401" y1="112.0234" y2="112.0234"/><!--MD5=[37d6e5304215b5e345f427169db70937]
class _1--><rect fill="#FEFECE" filter="url(#ftudjjhew9ojx)" height="48" id="_1" style="stroke: #A80036; stroke-width: 1.5;" width="46" x="100" y="180"/><ellipse cx="115" cy="196" fill="#ADD1B2" rx="11" ry="11" style="stroke: #A80036; stroke-width: 1.0;"/><path d="M117.9688,201.6406 Q117.3906,201.9375 116.75,202.0859 Q116.1094,202.2344 115.4063,202.2344 Q112.9063,202.2344 111.5859,200.5859 Q110.2656,198.9375 110.2656,195.8125 Q110.2656,192.6875 111.5859,191.0313 Q112.9063,189.375 115.4063,189.375 Q116.1094,189.375 116.7578,189.5313 Q117.4063,189.6875 117.9688,189.9844 L117.9688,192.7031 Q117.3438,192.125 116.75,191.8516 Q116.1563,191.5781 115.5313,191.5781 Q114.1875,191.5781 113.5,192.6484 Q112.8125,193.7188 112.8125,195.8125 Q112.8125,197.9063 113.5,198.9766 Q114.1875,200.0469 115.5313,200.0469 Q116.1563,200.0469 116.75,199.7734 Q117.3438,199.5 117.9688,198.9219 L117.9688,201.6406 Z "/><text fill="#000000" font-family="sans-serif" font-size="12" lengthAdjust="spacingAndGlyphs" textLength="14" x="129" y="200.1543">_1</text><line style="stroke: #A80036; stroke-width: 1.5;" x1="101" x2="145" y1="212" y2="212"/><line style="stroke: #A80036; stroke-width: 1.5;" x1="101" x2="145" y1="220" y2="220"/><!--MD5=[95d1cea1cd7f69d371fe62aa72675e9c]
class _2--><rect fill="#FEFECE" filter="url(#ftudjjhew9ojx)" height="48" id="_2" style="stroke: #A80036; stroke-width: 1.5;" width="46" x="181" y="180"/><ellipse cx="196" cy="196" fill="#ADD1B2" rx="11" ry="11" style="stroke: #A80036; stroke-width: 1.0;"/><path d="M198.9688,201.6406 Q198.3906,201.9375 197.75,202.0859 Q197.1094,202.2344 196.4063,202.2344 Q193.9063,202.2344 192.5859,200.5859 Q191.2656,198.9375 191.2656,195.8125 Q191.2656,192.6875 192.5859,191.0313 Q193.9063,189.375 196.4063,189.375 Q197.1094,189.375 197.7578,189.5313 Q198.4063,189.6875 198.9688,189.9844 L198.9688,192.7031 Q198.3438,192.125 197.75,191.8516 Q197.1563,191.5781 196.5313,191.5781 Q195.1875,191.5781 194.5,192.6484 Q193.8125,193.7188 193.8125,195.8125 Q193.8125,197.9063 194.5,198.9766 Q195.1875,200.0469 196.5313,200.0469 Q197.1563,200.0469 197.75,199.7734 Q198.3438,199.5 198.9688,198.9219 L198.9688,201.6406 Z "/><text fill="#000000" font-family="sans-serif" font-size="12" lengthAdjust="spacingAndGlyphs" textLength="14" x="210" y="200.1543">_2</text><line style="stroke: #A80036; stroke-width: 1.5;" x1="182" x2="226" y1="212" y2="212"/><line style="stroke: #A80036; stroke-width: 1.5;" x1="182" x2="226" y1="220" y2="220"/><!--MD5=[4df2e88eba431a2a56d213b7bca710d9]
class _3--><rect fill="#FEFECE" filter="url(#ftudjjhew9ojx)" height="48" id="_3" style="stroke: #A80036; stroke-width: 1.5;" width="46" x="262" y="180"/><ellipse cx="277" cy="196" fill="#ADD1B2" rx="11" ry="11" style="stroke: #A80036; stroke-width: 1.0;"/><path d="M279.9688,201.6406 Q279.3906,201.9375 278.75,202.0859 Q278.1094,202.2344 277.4063,202.2344 Q274.9063,202.2344 273.5859,200.5859 Q272.2656,198.9375 272.2656,195.8125 Q272.2656,192.6875 273.5859,191.0313 Q274.9063,189.375 277.4063,189.375 Q278.1094,189.375 278.7578,189.5313 Q279.4063,189.6875 279.9688,189.9844 L279.9688,192.7031 Q279.3438,192.125 278.75,191.8516 Q278.1563,191.5781 277.5313,191.5781 Q276.1875,191.5781 275.5,192.6484 Q274.8125,193.7188 274.8125,195.8125 Q274.8125,197.9063 275.5,198.9766 Q276.1875,200.0469 277.5313,200.0469 Q278.1563,200.0469 278.75,199.7734 Q279.3438,199.5 279.9688,198.9219 L279.9688,201.6406 Z "/><text fill="#000000" font-family="sans-serif" font-size="12" lengthAdjust="spacingAndGlyphs" textLength="14" x="291" y="200.1543">_3</text><line style="stroke: #A80036; stroke-width: 1.5;" x1="263" x2="307" y1="212" y2="212"/><line style="stroke: #A80036; stroke-width: 1.5;" x1="263" x2="307" y1="220" y2="220"/><!--MD5=[bde1413f829cc278731640fabc810278]
reverse link _0 to _1--><path d="M167.216,127.668 C156.341,146.1974 145.104,165.3406 136.68,179.6926 " fill="none" id="_0&lt;-_1" style="stroke: #A80036; stroke-width: 1.0;"/><line style="stroke: #A80036; stroke-width: 1.0;" x1="167.472" x2="164.6213" y1="127.2347" y2="120.335"/><line style="stroke: #A80036; stroke-width: 1.0;" x1="167.472" x2="178.4207" y1="127.2347" y2="120.335"/><line style="stroke: #A80036; stroke-width: 1.0;" x1="167.472" x2="171.521" y1="127.2347" y2="120.335"/><text fill="#000000" font-family="sans-serif" font-size="13" lengthAdjust="spacingAndGlyphs" textLength="0" x="139.527" y="169.0226"/><!--MD5=[eed656a2cfbc263ae3905a2379d727ae]
reverse link _0 to _2--><path d="M204,128.6528 C204,146.8736 204,165.5946 204,179.6926 " fill="none" id="_0&lt;-_2" style="stroke: #A80036; stroke-width: 1.0;"/><line style="stroke: #A80036; stroke-width: 1.0;" x1="204" x2="196" y1="128.335" y2="120.335"/><line style="stroke: #A80036; stroke-width: 1.0;" x1="204" x2="212" y1="128.335" y2="120.335"/><line style="stroke: #A80036; stroke-width: 1.0;" x1="204" x2="204" y1="128.335" y2="120.335"/><text fill="#000000" font-family="sans-serif" font-size="13" lengthAdjust="spacingAndGlyphs" textLength="0" x="203.5125" y="169.0226"/><!--MD5=[ea448699c80579924a53b8b5046cae45]
reverse link _0 to _3--><path d="M240.784,127.668 C251.659,146.1974 262.896,165.3406 271.32,179.6926 " fill="none" id="_0&lt;-_3" style="stroke: #A80036; stroke-width: 1.0;"/><line style="stroke: #A80036; stroke-width: 1.0;" x1="240.528" x2="229.5793" y1="127.2347" y2="120.335"/><line style="stroke: #A80036; stroke-width: 1.0;" x1="240.528" x2="243.3787" y1="127.2347" y2="120.335"/><line style="stroke: #A80036; stroke-width: 1.0;" x1="240.528" x2="236.479" y1="127.2347" y2="120.335"/><text fill="#000000" font-family="sans-serif" font-size="13" lengthAdjust="spacingAndGlyphs" textLength="0" x="267.498" y="169.0226"/><!--MD5=[da6e16467889848fefe28ad262a7b5ec]
@startuml

class "RelModel.ticket" as _0 << (D,orchid) >> {
+ arrival_transport : float
+ checkpoints : **checkpoint_lookup.checkpoint_lookup_id** <<FK>>
+ exhibition : **exhibition.exhibition_id** <<FK>>
+ payment : **payment_details.payment_details_id** <<FK>>
+ ticket_id : int
}
_0 }- - " " _1
_0 }- - " " _2
_0 }- - " " _3
@enduml

PlantUML version 1.2019.11(Sun Sep 22 10:02:15 UTC 2019)
(GPL source distribution)
Java Runtime: OpenJDK Runtime Environment
JVM: OpenJDK 64-Bit Server VM
Java Version: 1.8.0_222-b10
Operating System: Linux
Default Encoding: UTF-8
Language: en
Country: null
--></g></svg>
