<?xml version="1.0" encoding="UTF-8" standalone="no"?><svg xmlns="http://www.w3.org/2000/svg" xmlns:xlink="http://www.w3.org/1999/xlink" contentScriptType="application/ecmascript" contentStyleType="text/css" height="438px" preserveAspectRatio="none" style="width:146px;height:438px;" version="1.1" viewBox="0 0 146 438" width="146px" zoomAndPan="magnify"><defs><filter height="300%" id="f1cv38e30ji3n3" width="300%" x="-1" y="-1"><feGaussianBlur result="blurOut" stdDeviation="2.0"/><feColorMatrix in="blurOut" result="blurOut2" type="matrix" values="0 0 0 0 0 0 0 0 0 0 0 0 0 0 0 0 0 0 .4 0"/><feOffset dx="4.0" dy="4.0" in="blurOut2" result="blurOut3"/><feBlend in="SourceGraphic" in2="blurOut3" mode="normal"/></filter></defs><g><text fill="#000000" font-family="sans-serif" font-size="14" font-weight="bold" lengthAdjust="spacingAndGlyphs" textLength="86" x="25.5" y="22.9951">simple &lt;- _</text><rect fill="#FFFFFF" filter="url(#f1cv38e30ji3n3)" height="203.6641" style="stroke: #A80036; stroke-width: 1.0;" width="10" x="29" y="155.8594"/><line style="stroke: #A80036; stroke-width: 1.0; stroke-dasharray: 5.0,5.0;" x1="33.5" x2="33.5" y1="81.5938" y2="384.5234"/><text fill="#000000" font-family="sans-serif" font-size="14" lengthAdjust="spacingAndGlyphs" textLength="45" x="8.5" y="78.292">simple</text><ellipse cx="34" cy="49.2969" fill="#FEFECE" filter="url(#f1cv38e30ji3n3)" rx="12" ry="12" style="stroke: #A80036; stroke-width: 2.0;"/><polygon fill="#A80036" points="30,37.2969,36,32.2969,34,37.2969,36,42.2969,30,37.2969" style="stroke: #A80036; stroke-width: 1.0;"/><text fill="#000000" font-family="sans-serif" font-size="14" lengthAdjust="spacingAndGlyphs" textLength="45" x="8.5" y="396.5186">simple</text><ellipse cx="34" cy="415.8203" fill="#FEFECE" filter="url(#f1cv38e30ji3n3)" rx="12" ry="12" style="stroke: #A80036; stroke-width: 2.0;"/><polygon fill="#A80036" points="30,403.8203,36,398.8203,34,403.8203,36,408.8203,30,403.8203" style="stroke: #A80036; stroke-width: 1.0;"/><rect fill="#FFFFFF" filter="url(#f1cv38e30ji3n3)" height="203.6641" style="stroke: #A80036; stroke-width: 1.0;" width="10" x="29" y="155.8594"/><rect fill="#EEEEEE" filter="url(#f1cv38e30ji3n3)" height="3" style="stroke: #EEEEEE; stroke-width: 1.0;" width="131" x="3" y="112.1602"/><line style="stroke: #000000; stroke-width: 1.0;" x1="3" x2="134" y1="112.1602" y2="112.1602"/><line style="stroke: #000000; stroke-width: 1.0;" x1="3" x2="134" y1="115.1602" y2="115.1602"/><rect fill="#EEEEEE" filter="url(#f1cv38e30ji3n3)" height="23.1328" style="stroke: #000000; stroke-width: 2.0;" width="101" x="18" y="101.5938"/><text fill="#000000" font-family="sans-serif" font-size="13" font-weight="bold" lengthAdjust="spacingAndGlyphs" textLength="82" x="24" y="117.6606">simple &lt;- _</text><polygon fill="#A80036" points="17,151.8594,27,155.8594,17,159.8594,21,155.8594" style="stroke: #A80036; stroke-width: 1.0;"/><line style="stroke: #A80036; stroke-width: 1.0;" x1="3" x2="23" y1="155.8594" y2="155.8594"/><text fill="#000000" font-family="sans-serif" font-size="13" lengthAdjust="spacingAndGlyphs" textLength="7" x="10" y="150.7935">_</text><line style="stroke: #A80036; stroke-width: 1.0;" x1="39" x2="81" y1="184.9922" y2="184.9922"/><line style="stroke: #A80036; stroke-width: 1.0;" x1="81" x2="81" y1="184.9922" y2="197.9922"/><line style="stroke: #A80036; stroke-width: 1.0;" x1="40" x2="81" y1="197.9922" y2="197.9922"/><polygon fill="#A80036" points="50,193.9922,40,197.9922,50,201.9922,46,197.9922" style="stroke: #A80036; stroke-width: 1.0;"/><text fill="#000000" font-family="sans-serif" font-size="13" lengthAdjust="spacingAndGlyphs" textLength="36" x="46" y="179.9263">Apple</text><line style="stroke: #A80036; stroke-width: 1.0;" x1="39" x2="81" y1="227.125" y2="227.125"/><line style="stroke: #A80036; stroke-width: 1.0;" x1="81" x2="81" y1="227.125" y2="240.125"/><line style="stroke: #A80036; stroke-width: 1.0;" x1="40" x2="81" y1="240.125" y2="240.125"/><polygon fill="#A80036" points="50,236.125,40,240.125,50,244.125,46,240.125" style="stroke: #A80036; stroke-width: 1.0;"/><text fill="#000000" font-family="sans-serif" font-size="13" lengthAdjust="spacingAndGlyphs" textLength="49" x="46" y="222.0591">Banana</text><line style="stroke: #A80036; stroke-width: 1.0;" x1="39" x2="81" y1="269.2578" y2="269.2578"/><line style="stroke: #A80036; stroke-width: 1.0;" x1="81" x2="81" y1="269.2578" y2="282.2578"/><line style="stroke: #A80036; stroke-width: 1.0;" x1="40" x2="81" y1="282.2578" y2="282.2578"/><polygon fill="#A80036" points="50,278.2578,40,282.2578,50,286.2578,46,282.2578" style="stroke: #A80036; stroke-width: 1.0;"/><text fill="#000000" font-family="sans-serif" font-size="13" lengthAdjust="spacingAndGlyphs" textLength="23" x="46" y="264.1919">Foo</text><line style="stroke: #A80036; stroke-width: 1.0;" x1="39" x2="81" y1="311.3906" y2="311.3906"/><line style="stroke: #A80036; stroke-width: 1.0;" x1="81" x2="81" y1="311.3906" y2="324.3906"/><line style="stroke: #A80036; stroke-width: 1.0;" x1="40" x2="81" y1="324.3906" y2="324.3906"/><polygon fill="#A80036" points="50,320.3906,40,324.3906,50,328.3906,46,324.3906" style="stroke: #A80036; stroke-width: 1.0;"/><text fill="#000000" font-family="sans-serif" font-size="13" lengthAdjust="spacingAndGlyphs" textLength="22" x="46" y="306.3247">Bar</text><line style="stroke: #A80036; stroke-width: 1.0;" x1="39" x2="81" y1="358.5234" y2="358.5234"/><line style="stroke: #A80036; stroke-width: 1.0;" x1="81" x2="81" y1="358.5234" y2="371.5234"/><line style="stroke: #A80036; stroke-width: 1.0;" x1="34" x2="81" y1="371.5234" y2="371.5234"/><polygon fill="#A80036" points="44,367.5234,34,371.5234,44,375.5234,40,371.5234" style="stroke: #A80036; stroke-width: 1.0;"/><text fill="#000000" font-family="sans-serif" font-size="13" lengthAdjust="spacingAndGlyphs" textLength="76" x="46" y="353.4575">GrpcTesting</text><!--MD5=[9168be5e07644bf7af49b6ed388183ef]
@startuml


control "simple" as _0
skinparam maxMessageSize 250
title simple <- _
== simple <- _ ==
[->_0 : _
activate _0
_0 -> _0 : Apple
_0 -> _0 : Banana
_0 -> _0 : Foo
_0 -> _0 : Bar
_0 -> _0 : GrpcTesting
deactivate _0
@enduml

PlantUML version 1.2019.11(Sun Sep 22 10:02:15 UTC 2019)
(GPL source distribution)
Java Runtime: OpenJDK Runtime Environment
JVM: OpenJDK 64-Bit Server VM
Java Version: 1.8.0_222-b10
Operating System: Linux
Default Encoding: UTF-8
Language: en
Country: null
--></g></svg>
