<?xml version="1.0" encoding="UTF-8" standalone="no"?><svg xmlns="http://www.w3.org/2000/svg" xmlns:xlink="http://www.w3.org/1999/xlink" contentScriptType="application/ecmascript" contentStyleType="text/css" height="420px" preserveAspectRatio="none" style="width:415px;height:420px;" version="1.1" viewBox="0 0 415 420" width="415px" zoomAndPan="magnify"><defs><filter height="300%" id="ftj75tygqd9ev" width="300%" x="-1" y="-1"><feGaussianBlur result="blurOut" stdDeviation="2.0"/><feColorMatrix in="blurOut" result="blurOut2" type="matrix" values="0 0 0 0 0 0 0 0 0 0 0 0 0 0 0 0 0 0 .4 0"/><feOffset dx="4.0" dy="4.0" in="blurOut2" result="blurOut3"/><feBlend in="SourceGraphic" in2="blurOut3" mode="normal"/></filter></defs><g><text fill="#000000" font-family="sans-serif" font-size="18" lengthAdjust="spacingAndGlyphs" textLength="211" x="97.75" y="26.708">PaymentServer &lt;- Pay</text><rect fill="#FFFFFF" filter="url(#ftj75tygqd9ev)" height="179.6641" style="stroke: #A80036; stroke-width: 1.0;" width="10" x="190" y="160.5156"/><rect fill="#FFFFFF" filter="url(#ftj75tygqd9ev)" height="30" style="stroke: #A80036; stroke-width: 1.0;" width="10" x="276" y="213.7813"/><rect fill="#FFFFFF" filter="url(#ftj75tygqd9ev)" height="76.2656" style="stroke: #000000; stroke-width: 2.0;" width="267" x="126.5" y="175.5156"/><rect fill="#FFFFFF" filter="url(#ftj75tygqd9ev)" height="46.2656" style="stroke: #000000; stroke-width: 2.0;" width="257.5" x="6" y="265.7813"/><line style="stroke: #A80036; stroke-width: 1.0; stroke-dasharray: 5.0,5.0;" x1="194.5" x2="194.5" y1="86.25" y2="358.1797"/><line style="stroke: #A80036; stroke-width: 1.0; stroke-dasharray: 5.0,5.0;" x1="280.5" x2="280.5" y1="86.25" y2="358.1797"/><text fill="#000000" font-family="sans-serif" font-size="14" lengthAdjust="spacingAndGlyphs" textLength="111" x="136.5" y="82.9482">PaymentServer</text><ellipse cx="195" cy="53.9531" fill="#FEFECE" filter="url(#ftj75tygqd9ev)" rx="12" ry="12" style="stroke: #A80036; stroke-width: 2.0;"/><polygon fill="#A80036" points="191,41.9531,197,36.9531,195,41.9531,197,46.9531,191,41.9531" style="stroke: #A80036; stroke-width: 1.0;"/><text fill="#000000" font-family="sans-serif" font-size="14" lengthAdjust="spacingAndGlyphs" textLength="111" x="136.5" y="370.1748">PaymentServer</text><ellipse cx="195" cy="389.4766" fill="#FEFECE" filter="url(#ftj75tygqd9ev)" rx="12" ry="12" style="stroke: #A80036; stroke-width: 2.0;"/><polygon fill="#A80036" points="191,377.4766,197,372.4766,195,377.4766,197,382.4766,191,377.4766" style="stroke: #A80036; stroke-width: 1.0;"/><text fill="#000000" font-family="sans-serif" font-size="14" lengthAdjust="spacingAndGlyphs" textLength="29" x="263.5" y="82.9482">Visa</text><ellipse cx="281" cy="53.9531" fill="#FEFECE" filter="url(#ftj75tygqd9ev)" rx="12" ry="12" style="stroke: #A80036; stroke-width: 2.0;"/><polygon fill="#A80036" points="277,41.9531,283,36.9531,281,41.9531,283,46.9531,277,41.9531" style="stroke: #A80036; stroke-width: 1.0;"/><text fill="#000000" font-family="sans-serif" font-size="14" lengthAdjust="spacingAndGlyphs" textLength="29" x="263.5" y="370.1748">Visa</text><ellipse cx="281" cy="389.4766" fill="#FEFECE" filter="url(#ftj75tygqd9ev)" rx="12" ry="12" style="stroke: #A80036; stroke-width: 2.0;"/><polygon fill="#A80036" points="277,377.4766,283,372.4766,281,377.4766,283,382.4766,277,377.4766" style="stroke: #A80036; stroke-width: 1.0;"/><rect fill="#FFFFFF" filter="url(#ftj75tygqd9ev)" height="179.6641" style="stroke: #A80036; stroke-width: 1.0;" width="10" x="190" y="160.5156"/><rect fill="#FFFFFF" filter="url(#ftj75tygqd9ev)" height="30" style="stroke: #A80036; stroke-width: 1.0;" width="10" x="276" y="213.7813"/><rect fill="#EEEEEE" filter="url(#ftj75tygqd9ev)" height="3" style="stroke: #EEEEEE; stroke-width: 1.0;" width="400.5" x="3" y="116.8164"/><line style="stroke: #000000; stroke-width: 1.0;" x1="3" x2="403.5" y1="116.8164" y2="116.8164"/><line style="stroke: #000000; stroke-width: 1.0;" x1="3" x2="403.5" y1="119.8164" y2="119.8164"/><rect fill="#EEEEEE" filter="url(#ftj75tygqd9ev)" height="23.1328" style="stroke: #000000; stroke-width: 2.0;" width="188" x="109.25" y="106.25"/><text fill="#000000" font-family="sans-serif" font-size="13" font-weight="bold" lengthAdjust="spacingAndGlyphs" textLength="169" x="115.25" y="122.3169">PaymentServer &lt;- Pay</text><polygon fill="#A80036" points="178,156.5156,188,160.5156,178,164.5156,182,160.5156" style="stroke: #A80036; stroke-width: 1.0;"/><line style="stroke: #A80036; stroke-width: 1.0;" x1="3" x2="184" y1="160.5156" y2="160.5156"/><text fill="#000000" font-family="sans-serif" font-size="13" lengthAdjust="spacingAndGlyphs" textLength="24" x="10" y="155.4497">Pay</text><path d="M126.5,175.5156 L198.5,175.5156 L198.5,182.5156 L188.5,192.5156 L126.5,192.5156 L126.5,175.5156 " fill="#EEEEEE" style="stroke: #000000; stroke-width: 1.0;"/><rect fill="none" height="76.2656" style="stroke: #000000; stroke-width: 2.0;" width="267" x="126.5" y="175.5156"/><text fill="#000000" font-family="sans-serif" font-size="13" font-weight="bold" lengthAdjust="spacingAndGlyphs" textLength="27" x="141.5" y="188.5825">opt</text><text fill="#000000" font-family="sans-serif" font-size="11" font-weight="bold" lengthAdjust="spacingAndGlyphs" textLength="175" x="213.5" y="187.7261">[processor_type == "visa"]</text><polygon fill="#A80036" points="264,209.7813,274,213.7813,264,217.7813,268,213.7813" style="stroke: #A80036; stroke-width: 1.0;"/><line style="stroke: #A80036; stroke-width: 1.0;" x1="200" x2="270" y1="213.7813" y2="213.7813"/><text fill="#000000" font-family="sans-serif" font-size="13" lengthAdjust="spacingAndGlyphs" textLength="24" x="207" y="208.7153">Pay</text><path d="M6,265.7813 L81,265.7813 L81,272.7813 L71,282.7813 L6,282.7813 L6,265.7813 " fill="#EEEEEE" style="stroke: #000000; stroke-width: 1.0;"/><rect fill="none" height="46.2656" style="stroke: #000000; stroke-width: 2.0;" width="257.5" x="6" y="265.7813"/><text fill="#000000" font-family="sans-serif" font-size="13" font-weight="bold" lengthAdjust="spacingAndGlyphs" textLength="30" x="21" y="278.8481">else</text><polygon fill="#A80036" points="14,300.0469,4,304.0469,14,308.0469,10,304.0469" style="stroke: #A80036; stroke-width: 1.0;"/><line style="stroke: #A80036; stroke-width: 1.0; stroke-dasharray: 2.0,2.0;" x1="8" x2="189" y1="304.0469" y2="304.0469"/><text fill="#000000" font-family="sans-serif" font-size="13" lengthAdjust="spacingAndGlyphs" textLength="161" x="20" y="298.981">500 &lt; NotSupportedError</text><polygon fill="#A80036" points="14,336.1797,4,340.1797,14,344.1797,10,340.1797" style="stroke: #A80036; stroke-width: 1.0;"/><line style="stroke: #A80036; stroke-width: 1.0; stroke-dasharray: 2.0,2.0;" x1="8" x2="194" y1="340.1797" y2="340.1797"/><text fill="#000000" font-family="sans-serif" font-size="13" lengthAdjust="spacingAndGlyphs" textLength="24" x="20" y="335.1138">200</text><!--MD5=[fd4be05080168e791dd78a5f3b22e7c2]
@startuml
''''''''''''''''''''''''''''''''''''''''''
''                                      ''
''  AUTOGENERATED CODE - - DO NOT EDIT!  ''
''                                      ''
''''''''''''''''''''''''''''''''''''''''''


control "PaymentServer" as _0
control "Visa" as _1
skinparam maxMessageSize 250
title PaymentServer <- Pay
== PaymentServer <- Pay ==
[->_0 : Pay
activate _0
opt processor_type == "visa"
  _0->_1 : Pay
  activate _1
  deactivate _1
end
group else
 [<- -_0 : 500 < NotSupportedError
end
[<- -_0 : 200
deactivate _0
@enduml

@startuml


control "PaymentServer" as _0
control "Visa" as _1
skinparam maxMessageSize 250
title PaymentServer <- Pay
== PaymentServer <- Pay ==
[->_0 : Pay
activate _0
opt processor_type == "visa"
  _0->_1 : Pay
  activate _1
  deactivate _1
end
group else
 [<- -_0 : 500 < NotSupportedError
end
[<- -_0 : 200
deactivate _0
@enduml

PlantUML version 1.2020.16beta7(Unknown compile time)
(GPL source distribution)
Java Runtime: Java(TM) SE Runtime Environment
JVM: Java HotSpot(TM) 64-Bit Server VM
Default Encoding: UTF-8
Language: en
Country: US
--></g></svg>