<?xml version="1.0" encoding="UTF-8" standalone="no"?><svg xmlns="http://www.w3.org/2000/svg" xmlns:xlink="http://www.w3.org/1999/xlink" contentScriptType="application/ecmascript" contentStyleType="text/css" height="213px" preserveAspectRatio="none" style="width:221px;height:213px;" version="1.1" viewBox="0 0 221 213" width="221px" zoomAndPan="magnify"><defs><filter height="300%" id="fybtnadt2u6wz" width="300%" x="-1" y="-1"><feGaussianBlur result="blurOut" stdDeviation="2.0"/><feColorMatrix in="blurOut" result="blurOut2" type="matrix" values="0 0 0 0 0 0 0 0 0 0 0 0 0 0 0 0 0 0 .4 0"/><feOffset dx="4.0" dy="4.0" in="blurOut2" result="blurOut3"/><feBlend in="SourceGraphic" in2="blurOut3" mode="normal"/></filter></defs><g><!--MD5=[f77682fd75c3e1fc6a82f566c0814d0f]
class _0--><rect fill="#FEFECE" filter="url(#fybtnadt2u6wz)" height="60.8047" id="_0" style="stroke: #A80036; stroke-width: 1.5;" width="204" x="6" y="8"/><ellipse cx="21" cy="24" fill="#DA70D6" rx="11" ry="11" style="stroke: #A80036; stroke-width: 1.0;"/><path d="M20.5938,19.8125 L20.5938,27.7969 L21.25,27.7969 Q22.6875,27.7969 23.3047,26.8828 Q23.9219,25.9688 23.9219,23.7969 Q23.9219,21.625 23.3047,20.7188 Q22.6875,19.8125 21.25,19.8125 L20.5938,19.8125 Z M18.1406,17.6094 L20.7656,17.6094 Q23.7969,17.6094 25.1328,19.0547 Q26.4688,20.5 26.4688,23.7969 Q26.4688,27.0938 25.1328,28.5469 Q23.7969,30 20.7656,30 L18.1406,30 L18.1406,17.6094 Z "/><text fill="#000000" font-family="sans-serif" font-size="12" lengthAdjust="spacingAndGlyphs" textLength="172" x="35" y="28.1543">App.GET /addressReturnVal</text><line style="stroke: #A80036; stroke-width: 1.5;" x1="7" x2="209" y1="40" y2="40"/><ellipse cx="17" cy="51" fill="none" rx="3" ry="3" style="stroke: #038048; stroke-width: 1.0;"/><text fill="#000000" font-family="sans-serif" font-size="11" lengthAdjust="spacingAndGlyphs" textLength="63" x="26" y="54.2104">sequence :</text><text fill="#000000" font-family="sans-serif" font-size="11" font-weight="bold" lengthAdjust="spacingAndGlyphs" textLength="106" x="93" y="54.2104">Sequence &lt;foo&gt;</text><line style="stroke: #A80036; stroke-width: 1.5;" x1="7" x2="209" y1="60.8047" y2="60.8047"/><!--MD5=[37d6e5304215b5e345f427169db70937]
class _1--><rect fill="#FEFECE" filter="url(#fybtnadt2u6wz)" height="73.6094" id="_1" style="stroke: #A80036; stroke-width: 1.5;" width="92" x="62" y="129"/><ellipse cx="82.4" cy="145" fill="#DA70D6" rx="11" ry="11" style="stroke: #A80036; stroke-width: 1.0;"/><path d="M81.9938,140.8125 L81.9938,148.7969 L82.65,148.7969 Q84.0875,148.7969 84.7047,147.8828 Q85.3219,146.9688 85.3219,144.7969 Q85.3219,142.625 84.7047,141.7188 Q84.0875,140.8125 82.65,140.8125 L81.9938,140.8125 Z M79.5406,138.6094 L82.1656,138.6094 Q85.1969,138.6094 86.5328,140.0547 Q87.8688,141.5 87.8688,144.7969 Q87.8688,148.0938 86.5328,149.5469 Q85.1969,151 82.1656,151 L79.5406,151 L79.5406,138.6094 Z "/><text fill="#000000" font-family="sans-serif" font-size="12" lengthAdjust="spacingAndGlyphs" textLength="48" x="97.6" y="149.1543">App.foo</text><line style="stroke: #A80036; stroke-width: 1.5;" x1="63" x2="153" y1="161" y2="161"/><ellipse cx="73" cy="172" fill="none" rx="3" ry="3" style="stroke: #038048; stroke-width: 1.0;"/><text fill="#000000" font-family="sans-serif" font-size="11" lengthAdjust="spacingAndGlyphs" textLength="48" x="82" y="175.2104">that : int</text><ellipse cx="73" cy="184.8047" fill="none" rx="3" ry="3" style="stroke: #038048; stroke-width: 1.0;"/><text fill="#000000" font-family="sans-serif" font-size="11" lengthAdjust="spacingAndGlyphs" textLength="66" x="82" y="188.0151">this : string</text><line style="stroke: #A80036; stroke-width: 1.5;" x1="63" x2="153" y1="194.6094" y2="194.6094"/><!--MD5=[bde1413f829cc278731640fabc810278]
reverse link _0 to _1--><path d="M108,82.484 C108,97.546 108,114.3003 108,128.7555 " fill="none" id="_0&lt;-_1" style="stroke: #A80036; stroke-width: 1.0;"/><polygon fill="#A80036" points="108,69.242,104,75.242,108,81.242,112,75.242,108,69.242" style="stroke: #A80036; stroke-width: 1.0;"/><text fill="#000000" font-family="sans-serif" font-size="13" lengthAdjust="spacingAndGlyphs" textLength="23" x="82.9516" y="117.8989">0..*</text><!--MD5=[6ff3688482a19f388504677fd9e49f97]
@startuml

class "App.GET /addressReturnVal" as _0 << (D,orchid) >> {
+ sequence : **Sequence <foo>**
}
class "App.foo" as _1 << (D,orchid) >> {
+ that : int
+ this : string
}
_0 *- - "0..*" _1
@enduml

PlantUML version 1.2019.11(Sun Sep 22 10:02:15 UTC 2019)
(GPL source distribution)
Java Runtime: OpenJDK Runtime Environment
JVM: OpenJDK 64-Bit Server VM
Java Version: 1.8.0_222-b10
Operating System: Linux
Default Encoding: UTF-8
Language: en
Country: null
--></g></svg>
