<?xml version="1.0" encoding="UTF-8" standalone="no"?><svg xmlns="http://www.w3.org/2000/svg" xmlns:xlink="http://www.w3.org/1999/xlink" contentScriptType="application/ecmascript" contentStyleType="text/css" height="91px" preserveAspectRatio="none" style="width:110px;height:91px;" version="1.1" viewBox="0 0 110 91" width="110px" zoomAndPan="magnify"><defs><filter height="300%" id="f1c3f2w5kk6aek" width="300%" x="-1" y="-1"><feGaussianBlur result="blurOut" stdDeviation="2.0"/><feColorMatrix in="blurOut" result="blurOut2" type="matrix" values="0 0 0 0 0 0 0 0 0 0 0 0 0 0 0 0 0 0 .4 0"/><feOffset dx="4.0" dy="4.0" in="blurOut2" result="blurOut3"/><feBlend in="SourceGraphic" in2="blurOut3" mode="normal"/></filter></defs><g><!--MD5=[f77682fd75c3e1fc6a82f566c0814d0f]
class _0--><rect fill="#FEFECE" filter="url(#f1c3f2w5kk6aek)" height="73.6094" id="_0" style="stroke: #A80036; stroke-width: 1.5;" width="92" x="7" y="7"/><ellipse cx="27.4" cy="23" fill="#DA70D6" rx="11" ry="11" style="stroke: #A80036; stroke-width: 1.0;"/><path d="M26.9938,18.8125 L26.9938,26.7969 L27.65,26.7969 Q29.0875,26.7969 29.7047,25.8828 Q30.3219,24.9688 30.3219,22.7969 Q30.3219,20.625 29.7047,19.7188 Q29.0875,18.8125 27.65,18.8125 L26.9938,18.8125 Z M24.5406,16.6094 L27.1656,16.6094 Q30.1969,16.6094 31.5328,18.0547 Q32.8688,19.5 32.8688,22.7969 Q32.8688,26.0938 31.5328,27.5469 Q30.1969,29 27.1656,29 L24.5406,29 L24.5406,16.6094 Z "/><text fill="#000000" font-family="sans-serif" font-size="12" lengthAdjust="spacingAndGlyphs" textLength="48" x="42.6" y="27.1543">App.foo</text><line style="stroke: #A80036; stroke-width: 1.5;" x1="8" x2="98" y1="39" y2="39"/><ellipse cx="18" cy="50" fill="none" rx="3" ry="3" style="stroke: #038048; stroke-width: 1.0;"/><text fill="#000000" font-family="sans-serif" font-size="11" lengthAdjust="spacingAndGlyphs" textLength="48" x="27" y="53.2104">that : int</text><ellipse cx="18" cy="62.8047" fill="none" rx="3" ry="3" style="stroke: #038048; stroke-width: 1.0;"/><text fill="#000000" font-family="sans-serif" font-size="11" lengthAdjust="spacingAndGlyphs" textLength="66" x="27" y="66.0151">this : string</text><line style="stroke: #A80036; stroke-width: 1.5;" x1="8" x2="98" y1="72.6094" y2="72.6094"/><!--MD5=[5543394bd7e40b08287a46c4e79ce91e]
@startuml

class "App.foo" as _0 << (D,orchid) >> {
+ that : int
+ this : string
}
@enduml

PlantUML version 1.2019.11(Sun Sep 22 10:02:15 UTC 2019)
(GPL source distribution)
Java Runtime: OpenJDK Runtime Environment
JVM: OpenJDK 64-Bit Server VM
Java Version: 1.8.0_222-b10
Operating System: Linux
Default Encoding: UTF-8
Language: en
Country: null
--></g></svg>
