<?xml version="1.0" encoding="UTF-8" standalone="no"?><svg xmlns="http://www.w3.org/2000/svg" xmlns:xlink="http://www.w3.org/1999/xlink" contentScriptType="application/ecmascript" contentStyleType="text/css" height="213px" preserveAspectRatio="none" style="width:392px;height:213px;" version="1.1" viewBox="0 0 392 213" width="392px" zoomAndPan="magnify"><defs><filter height="300%" id="f1r5nacn4o6qgp" width="300%" x="-1" y="-1"><feGaussianBlur result="blurOut" stdDeviation="2.0"/><feColorMatrix in="blurOut" result="blurOut2" type="matrix" values="0 0 0 0 0 0 0 0 0 0 0 0 0 0 0 0 0 0 .4 0"/><feOffset dx="4.0" dy="4.0" in="blurOut2" result="blurOut3"/><feBlend in="SourceGraphic" in2="blurOut3" mode="normal"/></filter></defs><g><!--MD5=[f77682fd75c3e1fc6a82f566c0814d0f]
class _0--><rect fill="#FEFECE" filter="url(#f1r5nacn4o6qgp)" height="48" id="_0" style="stroke: #A80036; stroke-width: 1.5;" width="169" x="6" y="148.5"/><ellipse cx="21" cy="164.5" fill="#DA70D6" rx="11" ry="11" style="stroke: #A80036; stroke-width: 1.0;"/><path d="M20.5938,160.3125 L20.5938,168.2969 L21.25,168.2969 Q22.6875,168.2969 23.2969,167.3906 Q23.9219,166.4688 23.9219,164.2969 Q23.9219,162.125 23.2969,161.2188 Q22.6875,160.3125 21.25,160.3125 L20.5938,160.3125 Z M18.1406,158.1094 L20.7656,158.1094 Q23.7969,158.1094 25.125,159.5625 Q26.4688,161 26.4688,164.2969 Q26.4688,167.5938 25.125,169.0469 Q23.7969,170.5 20.7656,170.5 L18.1406,170.5 L18.1406,158.1094 Z "/><text fill="#000000" font-family="sans-serif" font-size="12" lengthAdjust="spacingAndGlyphs" textLength="137" x="35" y="168.6543">MegaDatabase.Empty</text><line style="stroke: #A80036; stroke-width: 1.5;" x1="7" x2="174" y1="180.5" y2="180.5"/><line style="stroke: #A80036; stroke-width: 1.5;" x1="7" x2="174" y1="188.5" y2="188.5"/><!--MD5=[37d6e5304215b5e345f427169db70937]
class _1--><rect fill="#FEFECE" filter="url(#f1r5nacn4o6qgp)" height="60.8047" id="_1" style="stroke: #A80036; stroke-width: 1.5;" width="171" x="210" y="142"/><ellipse cx="225" cy="158" fill="#DA70D6" rx="11" ry="11" style="stroke: #A80036; stroke-width: 1.0;"/><path d="M224.5938,153.8125 L224.5938,161.7969 L225.25,161.7969 Q226.6875,161.7969 227.2969,160.8906 Q227.9219,159.9688 227.9219,157.7969 Q227.9219,155.625 227.2969,154.7188 Q226.6875,153.8125 225.25,153.8125 L224.5938,153.8125 Z M222.1406,151.6094 L224.7656,151.6094 Q227.7969,151.6094 229.125,153.0625 Q230.4688,154.5 230.4688,157.7969 Q230.4688,161.0938 229.125,162.5469 Q227.7969,164 224.7656,164 L222.1406,164 L222.1406,151.6094 Z "/><text fill="#000000" font-family="sans-serif" font-size="12" lengthAdjust="spacingAndGlyphs" textLength="139" x="239" y="162.1543">MegaDatabase.Money</text><line style="stroke: #A80036; stroke-width: 1.5;" x1="211" x2="380" y1="174" y2="174"/><ellipse cx="221" cy="185" fill="none" rx="3" ry="3" style="stroke: #038048; stroke-width: 1.0;"/><text fill="#000000" font-family="sans-serif" font-size="11" lengthAdjust="spacingAndGlyphs" textLength="69" x="230" y="188.2104">amount : int</text><line style="stroke: #A80036; stroke-width: 1.5;" x1="211" x2="380" y1="194.8047" y2="194.8047"/><!--MD5=[95d1cea1cd7f69d371fe62aa72675e9c]
class _2--><rect fill="#FEFECE" filter="url(#f1r5nacn4o6qgp)" height="73.6094" id="_2" style="stroke: #A80036; stroke-width: 1.5;" width="221" x="82" y="8"/><ellipse cx="135.25" cy="24" fill="#DA70D6" rx="11" ry="11" style="stroke: #A80036; stroke-width: 1.0;"/><path d="M134.8438,19.8125 L134.8438,27.7969 L135.5,27.7969 Q136.9375,27.7969 137.5469,26.8906 Q138.1719,25.9688 138.1719,23.7969 Q138.1719,21.625 137.5469,20.7188 Q136.9375,19.8125 135.5,19.8125 L134.8438,19.8125 Z M132.3906,17.6094 L135.0156,17.6094 Q138.0469,17.6094 139.375,19.0625 Q140.7188,20.5 140.7188,23.7969 Q140.7188,27.0938 139.375,28.5469 Q138.0469,30 135.0156,30 L132.3906,30 L132.3906,17.6094 Z "/><text fill="#000000" font-family="sans-serif" font-size="12" lengthAdjust="spacingAndGlyphs" textLength="106" x="155.75" y="28.1543">Server.Response</text><line style="stroke: #A80036; stroke-width: 1.5;" x1="83" x2="302" y1="40" y2="40"/><ellipse cx="93" cy="51" fill="none" rx="3" ry="3" style="stroke: #038048; stroke-width: 1.0;"/><text fill="#000000" font-family="sans-serif" font-size="11" lengthAdjust="spacingAndGlyphs" textLength="52" x="102" y="54.2104">balance :</text><text fill="#000000" font-family="sans-serif" font-size="11" font-weight="bold" lengthAdjust="spacingAndGlyphs" textLength="139" x="158" y="54.2104">MegaDatabase.Empty</text><ellipse cx="93" cy="63.8047" fill="none" rx="3" ry="3" style="stroke: #038048; stroke-width: 1.0;"/><text fill="#000000" font-family="sans-serif" font-size="11" lengthAdjust="spacingAndGlyphs" textLength="40" x="102" y="67.0151">query :</text><text fill="#000000" font-family="sans-serif" font-size="11" font-weight="bold" lengthAdjust="spacingAndGlyphs" textLength="142" x="146" y="67.0151">MegaDatabase.Money</text><line style="stroke: #A80036; stroke-width: 1.5;" x1="83" x2="302" y1="73.6094" y2="73.6094"/><!--MD5=[59b725bd629d11771785352f69ebf978]
reverse link _2 to _0--><path d="M154.4851,92.5186 C139.2836,111.5205 122.4333,132.5834 109.8419,148.3226 " fill="none" id="_2&lt;-_0" style="stroke: #A80036; stroke-width: 1.0;"/><polygon fill="#A80036" points="162.7232,82.221,155.8516,84.4075,155.2269,91.5915,162.0986,89.405,162.7232,82.221" style="stroke: #A80036; stroke-width: 1.0;"/><text fill="#000000" font-family="sans-serif" font-size="13" lengthAdjust="spacingAndGlyphs" textLength="24" x="83.2108" y="137.2892">1..1</text><!--MD5=[03837af55dfe97398128afec89a6c29c]
reverse link _2 to _1--><path d="M231.0847,92.7627 C244.3743,109.2133 258.8904,127.1822 270.7726,141.8909 " fill="none" id="_2&lt;-_1" style="stroke: #A80036; stroke-width: 1.0;"/><polygon fill="#A80036" points="222.5688,82.221,223.2277,89.4019,230.1096,91.5556,229.4508,84.3747,222.5688,82.221" style="stroke: #A80036; stroke-width: 1.0;"/><text fill="#000000" font-family="sans-serif" font-size="13" lengthAdjust="spacingAndGlyphs" textLength="24" x="234.7851" y="131.1316">1..1</text><!--MD5=[433c9543cfaba6719b5e4558accd8cbe]
@startuml
''''''''''''''''''''''''''''''''''''''''''
''                                      ''
''  AUTOGENERATED CODE - - DO NOT EDIT!  ''
''                                      ''
''''''''''''''''''''''''''''''''''''''''''

class "MegaDatabase.Empty" as _0<< (D,orchid) >> {
}
class "MegaDatabase.Money" as _1 << (D,orchid) >> {
+ amount : int
}
class "Server.Response" as _2 << (D,orchid) >> {
+ balance : **MegaDatabase.Empty**
+ query : **MegaDatabase.Money**
}
_2 *- - "1..1 " _0
_2 *- - "1..1 " _1
@enduml

@startuml

class "MegaDatabase.Empty" as _0<< (D,orchid) >> {
}
class "MegaDatabase.Money" as _1 << (D,orchid) >> {
+ amount : int
}
class "Server.Response" as _2 << (D,orchid) >> {
+ balance : **MegaDatabase.Empty**
+ query : **MegaDatabase.Money**
}
_2 *- - "1..1 " _0
_2 *- - "1..1 " _1
@enduml

PlantUML version 1.2020.10(Sun May 17 09:35:57 GMT 2020)
(GPL source distribution)
Java Runtime: OpenJDK Runtime Environment
JVM: OpenJDK 64-Bit Server VM
Java Version: 14-ea+33
Operating System: Linux
Default Encoding: UTF-8
Language: en
Country: US
--></g></svg>