<?xml version="1.0" encoding="UTF-8" standalone="no"?><svg xmlns="http://www.w3.org/2000/svg" xmlns:xlink="http://www.w3.org/1999/xlink" contentScriptType="application/ecmascript" contentStyleType="text/css" height="305px" preserveAspectRatio="none" style="width:698px;height:305px;" version="1.1" viewBox="0 0 698 305" width="698px" zoomAndPan="magnify"><defs><filter height="300%" id="f8epac5s2t9u3" width="300%" x="-1" y="-1"><feGaussianBlur result="blurOut" stdDeviation="2.0"/><feColorMatrix in="blurOut" result="blurOut2" type="matrix" values="0 0 0 0 0 0 0 0 0 0 0 0 0 0 0 0 0 0 .4 0"/><feOffset dx="4.0" dy="4.0" in="blurOut2" result="blurOut3"/><feBlend in="SourceGraphic" in2="blurOut3" mode="normal"/></filter></defs><g><text fill="#000000" font-family="sans-serif" font-size="18" lengthAdjust="spacingAndGlyphs" textLength="85" x="297.5" y="16.708">Frontend</text><!--MD5=[834ef74a6aa73a899f9de7987f49a674]
entity _0--><rect fill="#FFFAF0" filter="url(#f8epac5s2t9u3)" height="46.2969" style="stroke: #000000; stroke-width: 1.5;" width="100" x="251" y="133.9531"/><rect fill="#FFFAF0" height="10" style="stroke: #000000; stroke-width: 1.5;" width="15" x="331" y="138.9531"/><rect fill="#FFFAF0" height="2" style="stroke: #000000; stroke-width: 1.5;" width="4" x="329" y="140.9531"/><rect fill="#FFFAF0" height="2" style="stroke: #000000; stroke-width: 1.5;" width="4" x="329" y="144.9531"/><text fill="#000000" font-family="sans-serif" font-size="14" lengthAdjust="spacingAndGlyphs" textLength="60" x="266" y="166.9482">Website</text><!--MD5=[5793e68b51480d2da18d2edf8802f392]
entity _1--><rect fill="#FFFAF0" filter="url(#f8epac5s2t9u3)" height="46.2969" style="stroke: #000000; stroke-width: 1.5;" width="144" x="7" y="239.9531"/><rect fill="#FFFAF0" height="10" style="stroke: #000000; stroke-width: 1.5;" width="15" x="131" y="244.9531"/><rect fill="#FFFAF0" height="2" style="stroke: #000000; stroke-width: 1.5;" width="4" x="129" y="246.9531"/><rect fill="#FFFAF0" height="2" style="stroke: #000000; stroke-width: 1.5;" width="4" x="129" y="250.9531"/><text fill="#000000" font-family="sans-serif" font-size="14" lengthAdjust="spacingAndGlyphs" textLength="104" x="22" y="272.9482">IdentityServer</text><!--MD5=[fc69c2ef26418c6b4957312aae07cc91]
entity _2--><rect fill="#FFFAF0" filter="url(#f8epac5s2t9u3)" height="46.2969" style="stroke: #000000; stroke-width: 1.5;" width="143" x="372.5" y="239.9531"/><rect fill="#FFFAF0" height="10" style="stroke: #000000; stroke-width: 1.5;" width="15" x="495.5" y="244.9531"/><rect fill="#FFFAF0" height="2" style="stroke: #000000; stroke-width: 1.5;" width="4" x="493.5" y="246.9531"/><rect fill="#FFFAF0" height="2" style="stroke: #000000; stroke-width: 1.5;" width="4" x="493.5" y="250.9531"/><text fill="#000000" font-family="sans-serif" font-size="14" lengthAdjust="spacingAndGlyphs" textLength="103" x="387.5" y="272.9482">ProductServer</text><!--MD5=[491502b257624c25ed563d7bf73ae0a0]
entity _3--><rect fill="#FFFAF0" filter="url(#f8epac5s2t9u3)" height="46.2969" style="stroke: #000000; stroke-width: 1.5;" width="128" x="551" y="239.9531"/><rect fill="#FFFAF0" height="10" style="stroke: #000000; stroke-width: 1.5;" width="15" x="659" y="244.9531"/><rect fill="#FFFAF0" height="2" style="stroke: #000000; stroke-width: 1.5;" width="4" x="657" y="246.9531"/><rect fill="#FFFAF0" height="2" style="stroke: #000000; stroke-width: 1.5;" width="4" x="657" y="250.9531"/><text fill="#000000" font-family="sans-serif" font-size="14" lengthAdjust="spacingAndGlyphs" textLength="88" x="566" y="272.9482">OrderServer</text><!--MD5=[e10aba13bcd25b8e2f2c6ecd09c6015a]
entity _4--><rect fill="#FFFAF0" filter="url(#f8epac5s2t9u3)" height="46.2969" style="stroke: #000000; stroke-width: 1.5;" width="151" x="186.5" y="239.9531"/><rect fill="#FFFAF0" height="10" style="stroke: #000000; stroke-width: 1.5;" width="15" x="317.5" y="244.9531"/><rect fill="#FFFAF0" height="2" style="stroke: #000000; stroke-width: 1.5;" width="4" x="315.5" y="246.9531"/><rect fill="#FFFAF0" height="2" style="stroke: #000000; stroke-width: 1.5;" width="4" x="315.5" y="250.9531"/><text fill="#000000" font-family="sans-serif" font-size="14" lengthAdjust="spacingAndGlyphs" textLength="111" x="201.5" y="272.9482">PaymentServer</text><!--MD5=[9e283554f6c225a5c09d9b9f4b518823]
entity _5--><rect fill="#FFFAF0" filter="url(#f8epac5s2t9u3)" height="46.2969" style="stroke: #000000; stroke-width: 1.5;" width="88" x="532" y="133.9531"/><rect fill="#FFFAF0" height="10" style="stroke: #000000; stroke-width: 1.5;" width="15" x="600" y="138.9531"/><rect fill="#FFFAF0" height="2" style="stroke: #000000; stroke-width: 1.5;" width="4" x="598" y="140.9531"/><rect fill="#FFFAF0" height="2" style="stroke: #000000; stroke-width: 1.5;" width="4" x="598" y="144.9531"/><text fill="#000000" font-family="sans-serif" font-size="14" lengthAdjust="spacingAndGlyphs" textLength="48" x="547" y="166.9482">Mobile</text><!--MD5=[91935b7652ee4fab4148391a7b11bd92]
entity _6--><rect fill="#FFFAF0" filter="url(#f8epac5s2t9u3)" height="46.2969" style="stroke: #000000; stroke-width: 1.5;" width="166" x="493" y="27.9531"/><rect fill="#FFFAF0" height="10" style="stroke: #000000; stroke-width: 1.5;" width="15" x="639" y="32.9531"/><rect fill="#FFFAF0" height="2" style="stroke: #000000; stroke-width: 1.5;" width="4" x="637" y="34.9531"/><rect fill="#FFFAF0" height="2" style="stroke: #000000; stroke-width: 1.5;" width="4" x="637" y="38.9531"/><text fill="#000000" font-family="sans-serif" font-size="14" lengthAdjust="spacingAndGlyphs" textLength="126" x="508" y="60.9482">Dine-in Customer</text><!--MD5=[298d702d1872fc728c85faa77d789d69]
entity _7--><rect fill="#FFFAF0" filter="url(#f8epac5s2t9u3)" height="46.2969" style="stroke: #000000; stroke-width: 1.5;" width="160" x="221" y="27.9531"/><rect fill="#FFFAF0" height="10" style="stroke: #000000; stroke-width: 1.5;" width="15" x="361" y="32.9531"/><rect fill="#FFFAF0" height="2" style="stroke: #000000; stroke-width: 1.5;" width="4" x="359" y="34.9531"/><rect fill="#FFFAF0" height="2" style="stroke: #000000; stroke-width: 1.5;" width="4" x="359" y="38.9531"/><text fill="#000000" font-family="sans-serif" font-size="14" lengthAdjust="spacingAndGlyphs" textLength="120" x="236" y="60.9482">Online Customer</text><!--MD5=[b84326987e98dcb917912705a3ef9c62]
link _0 to _1--><path d="M253.92,180.0091 C217.864,196.8996 168.16,220.1846 130.947,237.6176 " fill="none" id="_0-&gt;_1" style="stroke: #DC143C; stroke-width: 1.0;"/><polygon fill="#DC143C" points="126.013,239.9292,135.8599,239.7328,130.5407,237.8078,132.4657,232.4886,126.013,239.9292" style="stroke: #DC143C; stroke-width: 1.0;"/><!--MD5=[0fa3c531946f58762b8ab90cbdfa2c60]
link _0 to _2--><path d="M331.327,180.0091 C354.267,196.6928 385.786,219.6153 409.654,236.9746 " fill="none" id="_0-&gt;_2" style="stroke: #DC143C; stroke-width: 1.0;"/><polygon fill="#DC143C" points="413.717,239.9292,408.7918,231.4003,409.6736,236.988,404.0859,237.8698,413.717,239.9292" style="stroke: #DC143C; stroke-width: 1.0;"/><!--MD5=[4774900c3c3f97c2994a86017828dd12]
link _0 to _3--><path d="M351.101,174.5471 C403.814,192.0062 487.145,219.6061 546.044,239.1142 " fill="none" id="_0-&gt;_3" style="stroke: #DC143C; stroke-width: 1.0;"/><polygon fill="#DC143C" points="550.952,240.7399,543.6653,234.1139,546.2054,239.1684,541.1509,241.7085,550.952,240.7399" style="stroke: #DC143C; stroke-width: 1.0;"/><!--MD5=[66d2e95ee2e3e1b5b59548f8bdae5bf2]
link _0 to _4--><path d="M292.729,180.0091 C286.679,196.1413 278.442,218.1066 272.019,235.2352 " fill="none" id="_0-&gt;_4" style="stroke: #DC143C; stroke-width: 1.0;"/><polygon fill="#DC143C" points="270.259,239.9292,277.1647,232.907,272.0148,235.2476,269.6741,230.0977,270.259,239.9292" style="stroke: #DC143C; stroke-width: 1.0;"/><!--MD5=[c7fbdd7d994d101b2f2fa3a54a2c78c1]
link _5 to _2--><path d="M548.006,180.0091 C526.918,196.6238 497.977,219.426 475.977,236.7591 " fill="none" id="_5-&gt;_2" style="stroke: #DC143C; stroke-width: 1.0;"/><polygon fill="#DC143C" points="471.953,239.9292,481.4979,237.5014,475.8805,236.8349,476.547,231.2174,471.953,239.9292" style="stroke: #DC143C; stroke-width: 1.0;"/><!--MD5=[d05a91d17e08e51ee59c3d220bcce4c8]
link _5 to _3--><path d="M584.271,180.0091 C590.321,196.1413 598.558,218.1066 604.981,235.2352 " fill="none" id="_5-&gt;_3" style="stroke: #DC143C; stroke-width: 1.0;"/><polygon fill="#DC143C" points="606.741,239.9292,607.3259,230.0977,604.9852,235.2476,599.8353,232.907,606.741,239.9292" style="stroke: #DC143C; stroke-width: 1.0;"/><!--MD5=[c6d103796782b03246687d21fec6ff16]
link _6 to _5--><path d="M576,74.0091 C576,90.0031 576,111.7311 576,128.7951 " fill="none" id="_6-&gt;_5" style="stroke: #DC143C; stroke-width: 1.0;"/><polygon fill="#DC143C" points="576,133.9291,580,124.9291,576,128.9291,572,124.9291,576,133.9291" style="stroke: #DC143C; stroke-width: 1.0;"/><!--MD5=[73f95ae1d9c01c0fe28b15a4ec26cb90]
link _7 to _0--><path d="M301,74.0091 C301,90.0031 301,111.7311 301,128.7951 " fill="none" id="_7-&gt;_0" style="stroke: #DC143C; stroke-width: 1.0;"/><polygon fill="#DC143C" points="301,133.9291,305,124.9291,301,128.9291,297,124.9291,301,133.9291" style="stroke: #DC143C; stroke-width: 1.0;"/><!--MD5=[025ed89f9b455bf4b632173c51c17c5b]
@startuml
''''''''''''''''''''''''''''''''''''''''''
''                                      ''
''  AUTOGENERATED CODE - - DO NOT EDIT!  ''
''                                      ''
''''''''''''''''''''''''''''''''''''''''''


title Frontend
hide stereotype
scale max 16384 height
skinparam component {
  BackgroundColor FloralWhite
  BorderColor Black
  ArrowColor Crimson
}
[Website] as _0 <<highlight>>
[IdentityServer] as _1
_0 - -> _1
[ProductServer] as _2
_0 - -> _2
[OrderServer] as _3
_0 - -> _3
[PaymentServer] as _4
_0 - -> _4
[Mobile] as _5 <<highlight>>
_5 - -> _2
_5 - -> _3
[Dine-in Customer] as _6
_6 - -> _5
[Online Customer] as _7
_7 - -> _0
@enduml

@startuml


title Frontend
hide stereotype
scale max 16384 height
skinparam component {
  BackgroundColor FloralWhite
  BorderColor Black
  ArrowColor Crimson
}
[Website] as _0 <<highlight>>
[IdentityServer] as _1
_0 - -> _1
[ProductServer] as _2
_0 - -> _2
[OrderServer] as _3
_0 - -> _3
[PaymentServer] as _4
_0 - -> _4
[Mobile] as _5 <<highlight>>
_5 - -> _2
_5 - -> _3
[Dine-in Customer] as _6
_6 - -> _5
[Online Customer] as _7
_7 - -> _0
@enduml

PlantUML version 1.2020.16beta7(Unknown compile time)
(GPL source distribution)
Java Runtime: Java(TM) SE Runtime Environment
JVM: Java HotSpot(TM) 64-Bit Server VM
Default Encoding: UTF-8
Language: en
Country: US
--></g></svg>