<?xml version="1.0" encoding="UTF-8" standalone="no"?><svg xmlns="http://www.w3.org/2000/svg" xmlns:xlink="http://www.w3.org/1999/xlink" contentScriptType="application/ecmascript" contentStyleType="text/css" height="317px" preserveAspectRatio="none" style="width:418px;height:317px;" version="1.1" viewBox="0 0 418 317" width="418px" zoomAndPan="magnify"><defs><filter height="300%" id="f1dpywep2kg87z" width="300%" x="-1" y="-1"><feGaussianBlur result="blurOut" stdDeviation="2.0"/><feColorMatrix in="blurOut" result="blurOut2" type="matrix" values="0 0 0 0 0 0 0 0 0 0 0 0 0 0 0 0 0 0 .4 0"/><feOffset dx="4.0" dy="4.0" in="blurOut2" result="blurOut3"/><feBlend in="SourceGraphic" in2="blurOut3" mode="normal"/></filter></defs><g><text fill="#000000" font-family="sans-serif" font-size="14" font-weight="bold" lengthAdjust="spacingAndGlyphs" textLength="147" x="131.25" y="23.5352">MobileApp &lt;- Login</text><rect fill="#FFFFFF" filter="url(#f1dpywep2kg87z)" height="87.9316" style="stroke: #A80036; stroke-width: 1.0;" width="10" x="198" y="156.5977"/><rect fill="#FFFFFF" filter="url(#f1dpywep2kg87z)" height="29.3105" style="stroke: #A80036; stroke-width: 1.0;" width="10" x="372" y="185.9082"/><line style="stroke: #A80036; stroke-width: 1.0; stroke-dasharray: 5.0,5.0;" x1="203" x2="203" y1="81.9766" y2="262.5293"/><line style="stroke: #A80036; stroke-width: 1.0; stroke-dasharray: 5.0,5.0;" x1="376.5" x2="376.5" y1="81.9766" y2="262.5293"/><text fill="#000000" font-family="sans-serif" font-size="14" lengthAdjust="spacingAndGlyphs" textLength="74" x="163" y="79.0234">MobileApp</text><ellipse cx="203" cy="49.4883" fill="#FEFECE" filter="url(#f1dpywep2kg87z)" rx="12" ry="12" style="stroke: #A80036; stroke-width: 2.0;"/><polygon fill="#A80036" points="199,37.4883,205,32.4883,203,37.4883,205,42.4883,199,37.4883" style="stroke: #A80036; stroke-width: 1.0;"/><text fill="#000000" font-family="sans-serif" font-size="14" lengthAdjust="spacingAndGlyphs" textLength="74" x="163" y="275.0645">MobileApp</text><ellipse cx="203" cy="294.0176" fill="#FEFECE" filter="url(#f1dpywep2kg87z)" rx="12" ry="12" style="stroke: #A80036; stroke-width: 2.0;"/><polygon fill="#A80036" points="199,282.0176,205,277.0176,203,282.0176,205,287.0176,199,282.0176" style="stroke: #A80036; stroke-width: 1.0;"/><text fill="#000000" font-family="sans-serif" font-size="14" lengthAdjust="spacingAndGlyphs" textLength="43" x="352.5" y="79.0234">Server</text><ellipse cx="377" cy="49.4883" fill="#FEFECE" filter="url(#f1dpywep2kg87z)" rx="12" ry="12" style="stroke: #A80036; stroke-width: 2.0;"/><polygon fill="#A80036" points="373,37.4883,379,32.4883,377,37.4883,379,42.4883,373,37.4883" style="stroke: #A80036; stroke-width: 1.0;"/><text fill="#000000" font-family="sans-serif" font-size="14" lengthAdjust="spacingAndGlyphs" textLength="43" x="352.5" y="275.0645">Server</text><ellipse cx="377" cy="294.0176" fill="#FEFECE" filter="url(#f1dpywep2kg87z)" rx="12" ry="12" style="stroke: #A80036; stroke-width: 2.0;"/><polygon fill="#A80036" points="373,282.0176,379,277.0176,377,282.0176,379,287.0176,373,282.0176" style="stroke: #A80036; stroke-width: 1.0;"/><rect fill="#FFFFFF" filter="url(#f1dpywep2kg87z)" height="87.9316" style="stroke: #A80036; stroke-width: 1.0;" width="10" x="198" y="156.5977"/><rect fill="#FFFFFF" filter="url(#f1dpywep2kg87z)" height="29.3105" style="stroke: #A80036; stroke-width: 1.0;" width="10" x="372" y="185.9082"/><rect fill="#EEEEEE" filter="url(#f1dpywep2kg87z)" height="3" style="stroke: #EEEEEE; stroke-width: 1.0;" width="403.5" x="3" y="112.6318"/><line style="stroke: #000000; stroke-width: 1.0;" x1="3" x2="406.5" y1="112.6318" y2="112.6318"/><line style="stroke: #000000; stroke-width: 1.0;" x1="3" x2="406.5" y1="115.6318" y2="115.6318"/><rect fill="#EEEEEE" filter="url(#f1dpywep2kg87z)" height="23.3105" style="stroke: #000000; stroke-width: 2.0;" width="155" x="127.25" y="101.9766"/><text fill="#000000" font-family="sans-serif" font-size="13" font-weight="bold" lengthAdjust="spacingAndGlyphs" textLength="137" x="133.25" y="118.5449">MobileApp &lt;- Login</text><polygon fill="#A80036" points="186,152.5977,196,156.5977,186,160.5977,190,156.5977" style="stroke: #A80036; stroke-width: 1.0;"/><line style="stroke: #A80036; stroke-width: 1.0;" x1="3" x2="192" y1="156.5977" y2="156.5977"/><text fill="#000000" font-family="sans-serif" font-size="13" lengthAdjust="spacingAndGlyphs" textLength="35" x="10" y="151.8555">Login</text><polygon fill="#A80036" points="360,181.9082,370,185.9082,360,189.9082,364,185.9082" style="stroke: #A80036; stroke-width: 1.0;"/><line style="stroke: #A80036; stroke-width: 1.0;" x1="208" x2="366" y1="185.9082" y2="185.9082"/><text fill="#000000" font-family="sans-serif" font-size="13" lengthAdjust="spacingAndGlyphs" textLength="80" x="215" y="181.166">Authenticate</text><polygon fill="#A80036" points="219,211.2188,209,215.2188,219,219.2188,215,215.2188" style="stroke: #A80036; stroke-width: 1.0;"/><line style="stroke: #A80036; stroke-width: 1.0; stroke-dasharray: 2.0,2.0;" x1="213" x2="376" y1="215.2188" y2="215.2188"/><text fill="#000000" font-family="sans-serif" font-size="13" lengthAdjust="spacingAndGlyphs" textLength="140" x="225" y="210.4766">sequence of Response</text><polygon fill="#A80036" points="14,240.5293,4,244.5293,14,248.5293,10,244.5293" style="stroke: #A80036; stroke-width: 1.0;"/><line style="stroke: #A80036; stroke-width: 1.0; stroke-dasharray: 2.0,2.0;" x1="8" x2="202" y1="244.5293" y2="244.5293"/><text fill="#0000FF" font-family="sans-serif" font-size="13" lengthAdjust="spacingAndGlyphs" textLength="134" x="20" y="239.7871">MegaDatabase.Empty</text><text fill="#000000" font-family="sans-serif" font-size="13" lengthAdjust="spacingAndGlyphs" textLength="10" x="158" y="239.7871">&lt;</text><text fill="#008000" font-family="sans-serif" font-size="13" lengthAdjust="spacingAndGlyphs" textLength="18" x="168" y="239.7871">?, ?</text><text fill="#000000" font-family="sans-serif" font-size="13" lengthAdjust="spacingAndGlyphs" textLength="10" x="186" y="239.7871">&gt;</text><!--MD5=[8d00be67b1884fae6e0349365daf702d]
@startuml
control "MobileApp" as _0
control "Server" as _1
skinparam maxMessageSize 250
title MobileApp <- Login
== MobileApp <- Login ==
[->_0 : Login
activate _0
 _0->_1 : Authenticate
 activate _1
 _0<- -_1 : sequence of Response
 deactivate _1
[<- -_0 : <color blue>MegaDatabase.Empty</color> <<color green>?, ?</color>>
deactivate _0
@enduml

PlantUML version 1.2019.11(Sun Sep 22 20:02:15 AEST 2019)
(GPL source distribution)
Java Runtime: Java(TM) SE Runtime Environment
JVM: Java HotSpot(TM) 64-Bit Server VM
Java Version: 13.0.1+9
Operating System: Mac OS X
Default Encoding: UTF-8
Language: en
Country: AU
--></g></svg>