<?xml version="1.0" encoding="UTF-8" standalone="no"?><svg xmlns="http://www.w3.org/2000/svg" xmlns:xlink="http://www.w3.org/1999/xlink" contentScriptType="application/ecmascript" contentStyleType="text/css" height="347px" preserveAspectRatio="none" style="width:218px;height:347px;" version="1.1" viewBox="0 0 218 347" width="218px" zoomAndPan="magnify"><defs><filter height="300%" id="f1a4r8plmcjya0" width="300%" x="-1" y="-1"><feGaussianBlur result="blurOut" stdDeviation="2.0"/><feColorMatrix in="blurOut" result="blurOut2" type="matrix" values="0 0 0 0 0 0 0 0 0 0 0 0 0 0 0 0 0 0 .4 0"/><feOffset dx="4.0" dy="4.0" in="blurOut2" result="blurOut3"/><feBlend in="SourceGraphic" in2="blurOut3" mode="normal"/></filter></defs><g><!--MD5=[f77682fd75c3e1fc6a82f566c0814d0f]
class _0--><rect fill="#FEFECE" filter="url(#f1a4r8plmcjya0)" height="60.8047" id="_0" style="stroke: #A80036; stroke-width: 1.5;" width="201" x="6" y="8"/><ellipse cx="21" cy="24" fill="#DA70D6" rx="11" ry="11" style="stroke: #A80036; stroke-width: 1.0;"/><path d="M20.5938,19.8125 L20.5938,27.7969 L21.25,27.7969 Q22.6875,27.7969 23.3047,26.8828 Q23.9219,25.9688 23.9219,23.7969 Q23.9219,21.625 23.3047,20.7188 Q22.6875,19.8125 21.25,19.8125 L20.5938,19.8125 Z M18.1406,17.6094 L20.7656,17.6094 Q23.7969,17.6094 25.1328,19.0547 Q26.4688,20.5 26.4688,23.7969 Q26.4688,27.0938 25.1328,28.5469 Q23.7969,30 20.7656,30 L18.1406,30 L18.1406,17.6094 Z "/><text fill="#000000" font-family="sans-serif" font-size="12" lengthAdjust="spacingAndGlyphs" textLength="169" x="35" y="28.1543">Bar.GET /addressReturnVal</text><line style="stroke: #A80036; stroke-width: 1.5;" x1="7" x2="206" y1="40" y2="40"/><ellipse cx="17" cy="51" fill="none" rx="3" ry="3" style="stroke: #038048; stroke-width: 1.0;"/><text fill="#000000" font-family="sans-serif" font-size="11" lengthAdjust="spacingAndGlyphs" textLength="63" x="26" y="54.2104">sequence :</text><text fill="#000000" font-family="sans-serif" font-size="11" font-weight="bold" lengthAdjust="spacingAndGlyphs" textLength="106" x="93" y="54.2104">Sequence &lt;foo&gt;</text><line style="stroke: #A80036; stroke-width: 1.5;" x1="7" x2="206" y1="60.8047" y2="60.8047"/><!--MD5=[37d6e5304215b5e345f427169db70937]
class _1--><rect fill="#FEFECE" filter="url(#f1a4r8plmcjya0)" height="73.6094" id="_1" style="stroke: #A80036; stroke-width: 1.5;" width="104" x="54.5" y="129"/><ellipse cx="81.65" cy="145" fill="#DA70D6" rx="11" ry="11" style="stroke: #A80036; stroke-width: 1.0;"/><path d="M81.2438,140.8125 L81.2438,148.7969 L81.9,148.7969 Q83.3375,148.7969 83.9547,147.8828 Q84.5719,146.9688 84.5719,144.7969 Q84.5719,142.625 83.9547,141.7188 Q83.3375,140.8125 81.9,140.8125 L81.2438,140.8125 Z M78.7906,138.6094 L81.4156,138.6094 Q84.4469,138.6094 85.7828,140.0547 Q87.1188,141.5 87.1188,144.7969 Q87.1188,148.0938 85.7828,149.5469 Q84.4469,151 81.4156,151 L78.7906,151 L78.7906,138.6094 Z "/><text fill="#000000" font-family="sans-serif" font-size="12" lengthAdjust="spacingAndGlyphs" textLength="45" x="98.35" y="149.1543">Bar.foo</text><line style="stroke: #A80036; stroke-width: 1.5;" x1="55.5" x2="157.5" y1="161" y2="161"/><ellipse cx="65.5" cy="172" fill="none" rx="3" ry="3" style="stroke: #038048; stroke-width: 1.0;"/><text fill="#000000" font-family="sans-serif" font-size="11" lengthAdjust="spacingAndGlyphs" textLength="30" x="74.5" y="175.2104">that :</text><text fill="#000000" font-family="sans-serif" font-size="11" font-weight="bold" lengthAdjust="spacingAndGlyphs" textLength="44" x="108.5" y="175.2104">Bar.tar</text><ellipse cx="65.5" cy="184.8047" fill="none" rx="3" ry="3" style="stroke: #038048; stroke-width: 1.0;"/><text fill="#000000" font-family="sans-serif" font-size="11" lengthAdjust="spacingAndGlyphs" textLength="66" x="74.5" y="188.0151">this : string</text><line style="stroke: #A80036; stroke-width: 1.5;" x1="55.5" x2="157.5" y1="194.6094" y2="194.6094"/><!--MD5=[95d1cea1cd7f69d371fe62aa72675e9c]
class _2--><rect fill="#FEFECE" filter="url(#f1a4r8plmcjya0)" height="73.6094" id="_2" style="stroke: #A80036; stroke-width: 1.5;" width="92" x="60.5" y="263"/><ellipse cx="83.15" cy="279" fill="#DA70D6" rx="11" ry="11" style="stroke: #A80036; stroke-width: 1.0;"/><path d="M82.7438,274.8125 L82.7438,282.7969 L83.4,282.7969 Q84.8375,282.7969 85.4547,281.8828 Q86.0719,280.9688 86.0719,278.7969 Q86.0719,276.625 85.4547,275.7188 Q84.8375,274.8125 83.4,274.8125 L82.7438,274.8125 Z M80.2906,272.6094 L82.9156,272.6094 Q85.9469,272.6094 87.2828,274.0547 Q88.6188,275.5 88.6188,278.7969 Q88.6188,282.0938 87.2828,283.5469 Q85.9469,285 82.9156,285 L80.2906,285 L80.2906,272.6094 Z "/><text fill="#000000" font-family="sans-serif" font-size="12" lengthAdjust="spacingAndGlyphs" textLength="43" x="98.85" y="283.1543">Bar.tar</text><line style="stroke: #A80036; stroke-width: 1.5;" x1="61.5" x2="151.5" y1="295" y2="295"/><ellipse cx="71.5" cy="306" fill="none" rx="3" ry="3" style="stroke: #038048; stroke-width: 1.0;"/><text fill="#000000" font-family="sans-serif" font-size="11" lengthAdjust="spacingAndGlyphs" textLength="48" x="80.5" y="309.2104">that : int</text><ellipse cx="71.5" cy="318.8047" fill="none" rx="3" ry="3" style="stroke: #038048; stroke-width: 1.0;"/><text fill="#000000" font-family="sans-serif" font-size="11" lengthAdjust="spacingAndGlyphs" textLength="66" x="80.5" y="322.0151">this : string</text><line style="stroke: #A80036; stroke-width: 1.5;" x1="61.5" x2="151.5" y1="328.6094" y2="328.6094"/><!--MD5=[bde1413f829cc278731640fabc810278]
reverse link _0 to _1--><path d="M106.5,82.484 C106.5,97.546 106.5,114.3 106.5,128.755 " fill="none" id="_0&lt;-_1" style="stroke: #A80036; stroke-width: 1.0;"/><polygon fill="#A80036" points="106.5,69.242,102.5,75.242,106.5,81.242,110.5,75.242,106.5,69.242" style="stroke: #A80036; stroke-width: 1.0;"/><text fill="#000000" font-family="sans-serif" font-size="13" lengthAdjust="spacingAndGlyphs" textLength="23" x="81.4516" y="117.8983">0..*</text><!--MD5=[3d320bbf20f182627c60f67c45b19382]
reverse link _1 to _2--><path d="M106.5,216.256 C106.5,231.755 106.5,248.5733 106.5,262.974 " fill="none" id="_1&lt;-_2" style="stroke: #A80036; stroke-width: 1.0;"/><polygon fill="#A80036" points="106.5,203.07,102.5,209.07,106.5,215.07,110.5,209.07,106.5,203.07" style="stroke: #A80036; stroke-width: 1.0;"/><text fill="#000000" font-family="sans-serif" font-size="13" lengthAdjust="spacingAndGlyphs" textLength="24" x="75.9188" y="251.8797">1..1</text><!--MD5=[209380f909657e6c9a0984abeb4199dd]
@startuml

class "Bar.GET /addressReturnVal" as _0 << (D,orchid) >> {
+ sequence : **Sequence <foo>**
}
class "Bar.foo" as _1 << (D,orchid) >> {
+ that : **Bar.tar**
+ this : string
}
class "Bar.tar" as _2 << (D,orchid) >> {
+ that : int
+ this : string
}
_0 *- - "0..*" _1
_1 *- - "1..1 " _2
@enduml

PlantUML version 1.2019.11(Sun Sep 22 10:02:15 UTC 2019)
(GPL source distribution)
Java Runtime: OpenJDK Runtime Environment
JVM: OpenJDK 64-Bit Server VM
Java Version: 1.8.0_222-b10
Operating System: Linux
Default Encoding: UTF-8
Language: en
Country: null
--></g></svg>
