<?xml version="1.0" encoding="UTF-8" standalone="no"?><svg xmlns="http://www.w3.org/2000/svg" xmlns:xlink="http://www.w3.org/1999/xlink" contentScriptType="application/ecmascript" contentStyleType="text/css" height="344px" preserveAspectRatio="none" style="width:375px;height:344px;" version="1.1" viewBox="0 0 375 344" width="375px" zoomAndPan="magnify"><defs><filter height="300%" id="f1j8dak2t957gi" width="300%" x="-1" y="-1"><feGaussianBlur result="blurOut" stdDeviation="2.0"/><feColorMatrix in="blurOut" result="blurOut2" type="matrix" values="0 0 0 0 0 0 0 0 0 0 0 0 0 0 0 0 0 0 .4 0"/><feOffset dx="4.0" dy="4.0" in="blurOut2" result="blurOut3"/><feBlend in="SourceGraphic" in2="blurOut3" mode="normal"/></filter></defs><g><text fill="#000000" font-family="sans-serif" font-size="14" font-weight="bold" lengthAdjust="spacingAndGlyphs" textLength="159" x="103.75" y="22.9951">Bar &lt;- GET /address</text><rect fill="#FFFFFF" filter="url(#f1j8dak2t957gi)" height="116.5313" style="stroke: #A80036; stroke-width: 1.0;" width="10" x="124" y="155.8594"/><rect fill="#FFFFFF" filter="url(#f1j8dak2t957gi)" height="29.1328" style="stroke: #A80036; stroke-width: 1.0;" width="10" x="337" y="184.9922"/><line style="stroke: #A80036; stroke-width: 1.0; stroke-dasharray: 5.0,5.0;" x1="129" x2="129" y1="81.5938" y2="290.3906"/><line style="stroke: #A80036; stroke-width: 1.0; stroke-dasharray: 5.0,5.0;" x1="341.5" x2="341.5" y1="81.5938" y2="290.3906"/><text fill="#000000" font-family="sans-serif" font-size="14" lengthAdjust="spacingAndGlyphs" textLength="23" x="114.5" y="78.292">Bar</text><ellipse cx="129" cy="49.2969" fill="#FEFECE" filter="url(#f1j8dak2t957gi)" rx="12" ry="12" style="stroke: #A80036; stroke-width: 2.0;"/><polygon fill="#A80036" points="125,37.2969,131,32.2969,129,37.2969,131,42.2969,125,37.2969" style="stroke: #A80036; stroke-width: 1.0;"/><text fill="#000000" font-family="sans-serif" font-size="14" lengthAdjust="spacingAndGlyphs" textLength="23" x="114.5" y="302.3857">Bar</text><ellipse cx="129" cy="321.6875" fill="#FEFECE" filter="url(#f1j8dak2t957gi)" rx="12" ry="12" style="stroke: #A80036; stroke-width: 2.0;"/><polygon fill="#A80036" points="125,309.6875,131,304.6875,129,309.6875,131,314.6875,125,309.6875" style="stroke: #A80036; stroke-width: 1.0;"/><text fill="#000000" font-family="sans-serif" font-size="14" lengthAdjust="spacingAndGlyphs" textLength="27" x="325.5" y="78.292">App</text><ellipse cx="342" cy="49.2969" fill="#FEFECE" filter="url(#f1j8dak2t957gi)" rx="12" ry="12" style="stroke: #A80036; stroke-width: 2.0;"/><polygon fill="#A80036" points="338,37.2969,344,32.2969,342,37.2969,344,42.2969,338,37.2969" style="stroke: #A80036; stroke-width: 1.0;"/><text fill="#000000" font-family="sans-serif" font-size="14" lengthAdjust="spacingAndGlyphs" textLength="27" x="325.5" y="302.3857">App</text><ellipse cx="342" cy="321.6875" fill="#FEFECE" filter="url(#f1j8dak2t957gi)" rx="12" ry="12" style="stroke: #A80036; stroke-width: 2.0;"/><polygon fill="#A80036" points="338,309.6875,344,304.6875,342,309.6875,344,314.6875,338,309.6875" style="stroke: #A80036; stroke-width: 1.0;"/><rect fill="#FFFFFF" filter="url(#f1j8dak2t957gi)" height="116.5313" style="stroke: #A80036; stroke-width: 1.0;" width="10" x="124" y="155.8594"/><rect fill="#FFFFFF" filter="url(#f1j8dak2t957gi)" height="29.1328" style="stroke: #A80036; stroke-width: 1.0;" width="10" x="337" y="184.9922"/><rect fill="#EEEEEE" filter="url(#f1j8dak2t957gi)" height="3" style="stroke: #EEEEEE; stroke-width: 1.0;" width="360.5" x="3" y="112.1602"/><line style="stroke: #000000; stroke-width: 1.0;" x1="3" x2="363.5" y1="112.1602" y2="112.1602"/><line style="stroke: #000000; stroke-width: 1.0;" x1="3" x2="363.5" y1="115.1602" y2="115.1602"/><rect fill="#EEEEEE" filter="url(#f1j8dak2t957gi)" height="23.1328" style="stroke: #000000; stroke-width: 2.0;" width="168" x="99.25" y="101.5938"/><text fill="#000000" font-family="sans-serif" font-size="13" font-weight="bold" lengthAdjust="spacingAndGlyphs" textLength="149" x="105.25" y="117.6606">Bar &lt;- GET /address</text><polygon fill="#A80036" points="112,151.8594,122,155.8594,112,159.8594,116,155.8594" style="stroke: #A80036; stroke-width: 1.0;"/><line style="stroke: #A80036; stroke-width: 1.0;" x1="3" x2="118" y1="155.8594" y2="155.8594"/><text fill="#000000" font-family="sans-serif" font-size="13" lengthAdjust="spacingAndGlyphs" textLength="84" x="10" y="150.7935">GET /address</text><polygon fill="#A80036" points="325,180.9922,335,184.9922,325,188.9922,329,184.9922" style="stroke: #A80036; stroke-width: 1.0;"/><line style="stroke: #A80036; stroke-width: 1.0;" x1="134" x2="331" y1="184.9922" y2="184.9922"/><text fill="#000000" font-family="sans-serif" font-size="13" lengthAdjust="spacingAndGlyphs" textLength="84" x="141" y="179.9263">GET /address</text><polygon fill="#A80036" points="145,210.125,135,214.125,145,218.125,141,214.125" style="stroke: #A80036; stroke-width: 1.0;"/><line style="stroke: #A80036; stroke-width: 1.0; stroke-dasharray: 2.0,2.0;" x1="139" x2="341" y1="214.125" y2="214.125"/><text fill="#0000FF" font-family="sans-serif" font-size="13" lengthAdjust="spacingAndGlyphs" textLength="131" x="151" y="209.0591">sequence of App.foo</text><text fill="#000000" font-family="sans-serif" font-size="13" lengthAdjust="spacingAndGlyphs" textLength="11" x="286" y="209.0591">&lt;</text><text fill="#008000" font-family="sans-serif" font-size="13" lengthAdjust="spacingAndGlyphs" textLength="22" x="297" y="209.0591">?, ?</text><text fill="#000000" font-family="sans-serif" font-size="13" lengthAdjust="spacingAndGlyphs" textLength="11" x="319" y="209.0591">&gt;</text><polygon fill="#A80036" points="14,239.2578,4,243.2578,14,247.2578,10,243.2578" style="stroke: #A80036; stroke-width: 1.0;"/><line style="stroke: #A80036; stroke-width: 1.0; stroke-dasharray: 2.0,2.0;" x1="8" x2="123" y1="243.2578" y2="243.2578"/><text fill="#000000" font-family="sans-serif" font-size="13" lengthAdjust="spacingAndGlyphs" textLength="20" x="20" y="238.1919">foo</text><polygon fill="#A80036" points="14,268.3906,4,272.3906,14,276.3906,10,272.3906" style="stroke: #A80036; stroke-width: 1.0;"/><line style="stroke: #A80036; stroke-width: 1.0; stroke-dasharray: 2.0,2.0;" x1="8" x2="128" y1="272.3906" y2="272.3906"/><text fill="#000000" font-family="sans-serif" font-size="13" lengthAdjust="spacingAndGlyphs" textLength="102" x="20" y="267.3247">sequence of foo</text><!--MD5=[d0243e3b1fdc852d129587861a624a7a]
@startuml


control "Bar" as _0
control "App" as _1
skinparam maxMessageSize 250
title Bar <- GET /address
== Bar <- GET /address ==
[->_0 : GET /address
activate _0
 _0->_1 : GET /address
 activate _1
 _0<- -_1 : <color blue>sequence of App.foo</color> <<color green>?, ?</color>>
 deactivate _1
[<- -_0 : foo
[<- -_0 : sequence of foo
deactivate _0
@enduml

PlantUML version 1.2019.11(Sun Sep 22 10:02:15 UTC 2019)
(GPL source distribution)
Java Runtime: OpenJDK Runtime Environment
JVM: OpenJDK 64-Bit Server VM
Java Version: 1.8.0_222-b10
Operating System: Linux
Default Encoding: UTF-8
Language: en
Country: null
--></g></svg>
