<?xml version="1.0" encoding="UTF-8" standalone="no"?><svg xmlns="http://www.w3.org/2000/svg" xmlns:xlink="http://www.w3.org/1999/xlink" contentScriptType="application/ecmascript" contentStyleType="text/css" height="226px" preserveAspectRatio="none" style="width:121px;height:226px;" version="1.1" viewBox="0 0 121 226" width="121px" zoomAndPan="magnify"><defs><filter height="300%" id="f3dpn2mqw2jz4" width="300%" x="-1" y="-1"><feGaussianBlur result="blurOut" stdDeviation="2.0"/><feColorMatrix in="blurOut" result="blurOut2" type="matrix" values="0 0 0 0 0 0 0 0 0 0 0 0 0 0 0 0 0 0 .4 0"/><feOffset dx="4.0" dy="4.0" in="blurOut2" result="blurOut3"/><feBlend in="SourceGraphic" in2="blurOut3" mode="normal"/></filter></defs><g><!--MD5=[f77682fd75c3e1fc6a82f566c0814d0f]
class _0--><rect fill="#FEFECE" filter="url(#f3dpn2mqw2jz4)" height="73.6094" id="_0" style="stroke: #A80036; stroke-width: 1.5;" width="104" x="6" y="8"/><ellipse cx="33.15" cy="24" fill="#DA70D6" rx="11" ry="11" style="stroke: #A80036; stroke-width: 1.0;"/><path d="M32.7438,19.8125 L32.7438,27.7969 L33.4,27.7969 Q34.8375,27.7969 35.4547,26.8828 Q36.0719,25.9688 36.0719,23.7969 Q36.0719,21.625 35.4547,20.7188 Q34.8375,19.8125 33.4,19.8125 L32.7438,19.8125 Z M30.2906,17.6094 L32.9156,17.6094 Q35.9469,17.6094 37.2828,19.0547 Q38.6188,20.5 38.6188,23.7969 Q38.6188,27.0938 37.2828,28.5469 Q35.9469,30 32.9156,30 L30.2906,30 L30.2906,17.6094 Z "/><text fill="#000000" font-family="sans-serif" font-size="12" lengthAdjust="spacingAndGlyphs" textLength="45" x="49.85" y="28.1543">Bar.foo</text><line style="stroke: #A80036; stroke-width: 1.5;" x1="7" x2="109" y1="40" y2="40"/><ellipse cx="17" cy="51" fill="none" rx="3" ry="3" style="stroke: #038048; stroke-width: 1.0;"/><text fill="#000000" font-family="sans-serif" font-size="11" lengthAdjust="spacingAndGlyphs" textLength="30" x="26" y="54.2104">that :</text><text fill="#000000" font-family="sans-serif" font-size="11" font-weight="bold" lengthAdjust="spacingAndGlyphs" textLength="44" x="60" y="54.2104">Bar.tar</text><ellipse cx="17" cy="63.8047" fill="none" rx="3" ry="3" style="stroke: #038048; stroke-width: 1.0;"/><text fill="#000000" font-family="sans-serif" font-size="11" lengthAdjust="spacingAndGlyphs" textLength="66" x="26" y="67.0151">this : string</text><line style="stroke: #A80036; stroke-width: 1.5;" x1="7" x2="109" y1="73.6094" y2="73.6094"/><!--MD5=[37d6e5304215b5e345f427169db70937]
class _1--><rect fill="#FEFECE" filter="url(#f3dpn2mqw2jz4)" height="73.6094" id="_1" style="stroke: #A80036; stroke-width: 1.5;" width="92" x="12" y="142"/><ellipse cx="34.65" cy="158" fill="#DA70D6" rx="11" ry="11" style="stroke: #A80036; stroke-width: 1.0;"/><path d="M34.2438,153.8125 L34.2438,161.7969 L34.9,161.7969 Q36.3375,161.7969 36.9547,160.8828 Q37.5719,159.9688 37.5719,157.7969 Q37.5719,155.625 36.9547,154.7188 Q36.3375,153.8125 34.9,153.8125 L34.2438,153.8125 Z M31.7906,151.6094 L34.4156,151.6094 Q37.4469,151.6094 38.7828,153.0547 Q40.1188,154.5 40.1188,157.7969 Q40.1188,161.0938 38.7828,162.5469 Q37.4469,164 34.4156,164 L31.7906,164 L31.7906,151.6094 Z "/><text fill="#000000" font-family="sans-serif" font-size="12" lengthAdjust="spacingAndGlyphs" textLength="43" x="50.35" y="162.1543">Bar.tar</text><line style="stroke: #A80036; stroke-width: 1.5;" x1="13" x2="103" y1="174" y2="174"/><ellipse cx="23" cy="185" fill="none" rx="3" ry="3" style="stroke: #038048; stroke-width: 1.0;"/><text fill="#000000" font-family="sans-serif" font-size="11" lengthAdjust="spacingAndGlyphs" textLength="48" x="32" y="188.2104">that : int</text><ellipse cx="23" cy="197.8047" fill="none" rx="3" ry="3" style="stroke: #038048; stroke-width: 1.0;"/><text fill="#000000" font-family="sans-serif" font-size="11" lengthAdjust="spacingAndGlyphs" textLength="66" x="32" y="201.0151">this : string</text><line style="stroke: #A80036; stroke-width: 1.5;" x1="13" x2="103" y1="207.6094" y2="207.6094"/><!--MD5=[bde1413f829cc278731640fabc810278]
reverse link _0 to _1--><path d="M58,95.256 C58,110.755 58,127.5733 58,141.974 " fill="none" id="_0&lt;-_1" style="stroke: #A80036; stroke-width: 1.0;"/><polygon fill="#A80036" points="58,82.07,54,88.07,58,94.07,62,88.07,58,82.07" style="stroke: #A80036; stroke-width: 1.0;"/><text fill="#000000" font-family="sans-serif" font-size="13" lengthAdjust="spacingAndGlyphs" textLength="24" x="27.4188" y="130.8797">1..1</text><!--MD5=[575be84daa92d0a4878e6fe9639caf2a]
@startuml

class "Bar.foo" as _0 << (D,orchid) >> {
+ that : **Bar.tar**
+ this : string
}
class "Bar.tar" as _1 << (D,orchid) >> {
+ that : int
+ this : string
}
_0 *- - "1..1 " _1
@enduml

PlantUML version 1.2019.11(Sun Sep 22 10:02:15 UTC 2019)
(GPL source distribution)
Java Runtime: OpenJDK Runtime Environment
JVM: OpenJDK 64-Bit Server VM
Java Version: 1.8.0_222-b10
Operating System: Linux
Default Encoding: UTF-8
Language: en
Country: null
--></g></svg>
