<?xml version="1.0" encoding="UTF-8" standalone="no"?><svg xmlns="http://www.w3.org/2000/svg" xmlns:xlink="http://www.w3.org/1999/xlink" contentScriptType="application/ecmascript" contentStyleType="text/css" height="143px" preserveAspectRatio="none" style="width:132px;height:143px;" version="1.1" viewBox="0 0 132 143" width="132px" zoomAndPan="magnify"><defs><filter height="300%" id="f145lw9zdo8xaz" width="300%" x="-1" y="-1"><feGaussianBlur result="blurOut" stdDeviation="2.0"/><feColorMatrix in="blurOut" result="blurOut2" type="matrix" values="0 0 0 0 0 0 0 0 0 0 0 0 0 0 0 0 0 0 .4 0"/><feOffset dx="4.0" dy="4.0" in="blurOut2" result="blurOut3"/><feBlend in="SourceGraphic" in2="blurOut3" mode="normal"/></filter></defs><g><!--MD5=[f77682fd75c3e1fc6a82f566c0814d0f]
class _0--><rect codeLine="7" fill="#FEFECE" filter="url(#f145lw9zdo8xaz)" height="117.9609" id="_0" style="stroke: #A80036; stroke-width: 1.5;" width="106" x="7" y="7"/><ellipse cx="29.65" cy="25.9688" fill="#DA70D6" rx="11" ry="11" style="stroke: #A80036; stroke-width: 1.0;"/><path d="M27.1656,29.2656 C26.5094,29.2656 26.1188,29.5781 26.1188,30.125 C26.1188,30.375 26.2594,30.6406 26.4781,30.7969 C26.6344,30.9219 26.8531,30.9688 27.2594,30.9688 L30.7281,30.9688 C32.2125,30.9688 33.2281,30.5781 34.0563,29.6875 C34.8375,28.875 35.2438,27.8281 35.2438,26.5781 L35.2438,25.7813 C35.2438,23.1094 33.3531,21.0625 30.8688,21.0625 L27.2594,21.0625 C26.8063,21.0625 26.6813,21.0781 26.525,21.1719 C26.275,21.3281 26.1188,21.625 26.1188,21.9063 C26.1188,22.4531 26.4938,22.75 27.1656,22.75 L27.1656,29.2656 Z M28.8531,29.2656 L28.8531,22.75 L30.7281,22.75 C31.6344,22.75 32.275,23.0313 32.7906,23.625 C33.275,24.2031 33.5563,24.9531 33.5563,25.75 L33.5563,26.5313 C33.5563,27.4063 33.3219,28 32.8531,28.5156 C32.3219,29.0625 31.7594,29.2656 30.7438,29.2656 L28.8531,29.2656 Z "/><text fill="#000000" font-family="sans-serif" font-size="12" font-style="italic" lengthAdjust="spacingAndGlyphs" textLength="61" x="43.35" y="23.1387">«Product»</text><text fill="#000000" font-family="sans-serif" font-size="12" lengthAdjust="spacingAndGlyphs" textLength="45" x="51.35" y="37.1074">Product</text><line style="stroke: #A80036; stroke-width: 1.5;" x1="8" x2="112" y1="44.9375" y2="44.9375"/><ellipse cx="18" cy="55.9375" fill="none" rx="3" ry="3" style="stroke: #038048; stroke-width: 1.0;"/><text fill="#000000" font-family="sans-serif" font-size="11" lengthAdjust="spacingAndGlyphs" textLength="80" x="27" y="59.1479">details : string</text><ellipse cx="18" cy="68.7422" fill="none" rx="3" ry="3" style="stroke: #038048; stroke-width: 1.0;"/><text fill="#000000" font-family="sans-serif" font-size="11" lengthAdjust="spacingAndGlyphs" textLength="35" x="27" y="71.9526">id : int</text><ellipse cx="18" cy="81.5469" fill="none" rx="3" ry="3" style="stroke: #038048; stroke-width: 1.0;"/><text fill="#000000" font-family="sans-serif" font-size="11" lengthAdjust="spacingAndGlyphs" textLength="78" x="27" y="84.7573">image : string</text><ellipse cx="18" cy="94.3516" fill="none" rx="3" ry="3" style="stroke: #038048; stroke-width: 1.0;"/><text fill="#000000" font-family="sans-serif" font-size="11" lengthAdjust="spacingAndGlyphs" textLength="75" x="27" y="97.562">name : string</text><ellipse cx="18" cy="107.1563" fill="none" rx="3" ry="3" style="stroke: #038048; stroke-width: 1.0;"/><text fill="#000000" font-family="sans-serif" font-size="11" lengthAdjust="spacingAndGlyphs" textLength="53" x="27" y="110.3667">price : int</text><line style="stroke: #A80036; stroke-width: 1.5;" x1="8" x2="112" y1="116.9609" y2="116.9609"/><!--MD5=[ba39fad432d5805c3b3bad0ef0b78675]
@startuml
''''''''''''''''''''''''''''''''''''''''''
''                                      ''
''  AUTOGENERATED CODE - - DO NOT EDIT!  ''
''                                      ''
''''''''''''''''''''''''''''''''''''''''''

class "Product" as _0 << (D,orchid) Product >> {
+ details : string
+ id : int
+ image : string
+ name : string
+ price : int
}
@enduml

@startuml

class "Product" as _0 << (D,orchid) Product >> {
+ details : string
+ id : int
+ image : string
+ name : string
+ price : int
}
@enduml

PlantUML version 1.2020.16beta7(Unknown compile time)
(GPL source distribution)
Java Runtime: Java(TM) SE Runtime Environment
JVM: Java HotSpot(TM) 64-Bit Server VM
Default Encoding: UTF-8
Language: en
Country: US
--></g></svg>