<?xml version="1.0" encoding="UTF-8" standalone="no"?><svg xmlns="http://www.w3.org/2000/svg" xmlns:xlink="http://www.w3.org/1999/xlink" contentScriptType="application/ecmascript" contentStyleType="text/css" height="721px" preserveAspectRatio="none" style="width:875px;height:721px;" version="1.1" viewBox="0 0 875 721" width="875px" zoomAndPan="magnify"><defs><filter height="300%" id="fmsrdf44d2m8c" width="300%" x="-1" y="-1"><feGaussianBlur result="blurOut" stdDeviation="2.0"/><feColorMatrix in="blurOut" result="blurOut2" type="matrix" values="0 0 0 0 0 0 0 0 0 0 0 0 0 0 0 0 0 0 .4 0"/><feOffset dx="4.0" dy="4.0" in="blurOut2" result="blurOut3"/><feBlend in="SourceGraphic" in2="blurOut3" mode="normal"/></filter></defs><g><!--MD5=[f77682fd75c3e1fc6a82f566c0814d0f]
class _0--><rect fill="#FEFECE" filter="url(#fmsrdf44d2m8c)" height="163.2422" id="_0" style="stroke: #A80036; stroke-width: 1.5;" width="361" x="33" y="6"/><ellipse cx="172.75" cy="22" fill="#DA70D6" rx="11" ry="11" style="stroke: #A80036; stroke-width: 1.0;"/><path d="M170.2656,25.2969 C169.6094,25.2969 169.2188,25.6094 169.2188,26.1563 C169.2188,26.4063 169.3594,26.6719 169.5781,26.8281 C169.7344,26.9531 169.9531,27 170.3594,27 L173.8281,27 C175.3125,27 176.3281,26.6094 177.1563,25.7188 C177.9375,24.9063 178.3438,23.8594 178.3438,22.6094 L178.3438,21.8125 C178.3438,19.1406 176.4531,17.0938 173.9688,17.0938 L170.3594,17.0938 C169.9063,17.0938 169.7813,17.1094 169.625,17.2031 C169.375,17.3594 169.2188,17.6563 169.2188,17.9375 C169.2188,18.4844 169.5938,18.7813 170.2656,18.7813 L170.2656,25.2969 Z M171.9531,25.2969 L171.9531,18.7813 L173.8281,18.7813 C174.7344,18.7813 175.375,19.0625 175.8906,19.6563 C176.375,20.2344 176.6563,20.9844 176.6563,21.7813 L176.6563,22.5625 C176.6563,23.4375 176.4219,24.0313 175.9531,24.5469 C175.4219,25.0938 174.8594,25.2969 173.8438,25.2969 L171.9531,25.2969 Z "/><text fill="#000000" font-family="sans-serif" font-size="12" lengthAdjust="spacingAndGlyphs" textLength="73" x="193.25" y="26.1543">audio_guide</text><line style="stroke: #A80036; stroke-width: 1.5;" x1="34" x2="393" y1="38" y2="38"/><ellipse cx="44" cy="49" fill="none" rx="3" ry="3" style="stroke: #038048; stroke-width: 1.0;"/><text fill="#000000" font-family="sans-serif" font-size="11" lengthAdjust="spacingAndGlyphs" textLength="124" x="53" y="52.2104">activation_date : date</text><ellipse cx="44" cy="61.8047" fill="none" rx="3" ry="3" style="stroke: #038048; stroke-width: 1.0;"/><text fill="#000000" font-family="sans-serif" font-size="11" lengthAdjust="spacingAndGlyphs" textLength="110" x="53" y="65.0151">audio_guide_id : int</text><ellipse cx="44" cy="74.6094" fill="none" rx="3" ry="3" style="stroke: #038048; stroke-width: 1.0;"/><text fill="#000000" font-family="sans-serif" font-size="11" lengthAdjust="spacingAndGlyphs" textLength="71" x="53" y="77.8198">issue_point :</text><text fill="#000000" font-family="sans-serif" font-size="11" font-weight="bold" lengthAdjust="spacingAndGlyphs" textLength="134" x="128" y="77.8198">location.location_id</text><text fill="#000000" font-family="sans-serif" font-size="11" lengthAdjust="spacingAndGlyphs" textLength="27" x="266" y="77.8198">«FK»</text><ellipse cx="44" cy="87.4141" fill="none" rx="3" ry="3" style="stroke: #038048; stroke-width: 1.0;"/><text fill="#000000" font-family="sans-serif" font-size="11" lengthAdjust="spacingAndGlyphs" textLength="89" x="53" y="90.6245">language : float</text><ellipse cx="44" cy="100.2188" fill="none" rx="3" ry="3" style="stroke: #038048; stroke-width: 1.0;"/><text fill="#000000" font-family="sans-serif" font-size="11" lengthAdjust="spacingAndGlyphs" textLength="99" x="53" y="103.4292">listen_time : float</text><ellipse cx="44" cy="113.0234" fill="none" rx="3" ry="3" style="stroke: #038048; stroke-width: 1.0;"/><text fill="#000000" font-family="sans-serif" font-size="11" lengthAdjust="spacingAndGlyphs" textLength="58" x="53" y="116.2339">payment :</text><text fill="#000000" font-family="sans-serif" font-size="11" font-weight="bold" lengthAdjust="spacingAndGlyphs" textLength="242" x="115" y="116.2339">payment_details.payment_details_id</text><text fill="#000000" font-family="sans-serif" font-size="11" lengthAdjust="spacingAndGlyphs" textLength="27" x="361" y="116.2339">«FK»</text><ellipse cx="44" cy="125.8281" fill="none" rx="3" ry="3" style="stroke: #038048; stroke-width: 1.0;"/><text fill="#000000" font-family="sans-serif" font-size="11" lengthAdjust="spacingAndGlyphs" textLength="75" x="53" y="129.0386">return_point :</text><text fill="#000000" font-family="sans-serif" font-size="11" font-weight="bold" lengthAdjust="spacingAndGlyphs" textLength="134" x="132" y="129.0386">location.location_id</text><text fill="#000000" font-family="sans-serif" font-size="11" lengthAdjust="spacingAndGlyphs" textLength="27" x="270" y="129.0386">«FK»</text><ellipse cx="44" cy="138.6328" fill="none" rx="3" ry="3" style="stroke: #038048; stroke-width: 1.0;"/><text fill="#000000" font-family="sans-serif" font-size="11" lengthAdjust="spacingAndGlyphs" textLength="54" x="53" y="141.8433">ticket_id :</text><text fill="#000000" font-family="sans-serif" font-size="11" font-weight="bold" lengthAdjust="spacingAndGlyphs" textLength="102" x="111" y="141.8433">ticket.ticket_id</text><text fill="#000000" font-family="sans-serif" font-size="11" lengthAdjust="spacingAndGlyphs" textLength="27" x="217" y="141.8433">«FK»</text><ellipse cx="44" cy="151.4375" fill="none" rx="3" ry="3" style="stroke: #038048; stroke-width: 1.0;"/><text fill="#000000" font-family="sans-serif" font-size="11" lengthAdjust="spacingAndGlyphs" textLength="62" x="53" y="154.6479">type : float</text><line style="stroke: #A80036; stroke-width: 1.5;" x1="34" x2="393" y1="161.2422" y2="161.2422"/><!--MD5=[5598b231efb7df47efa6733795d42804]
class _4--><rect fill="#FEFECE" filter="url(#fmsrdf44d2m8c)" height="124.8281" id="_4" style="stroke: #A80036; stroke-width: 1.5;" width="190" x="511.5" y="586"/><ellipse cx="559.75" cy="602" fill="#DA70D6" rx="11" ry="11" style="stroke: #A80036; stroke-width: 1.0;"/><path d="M557.2656,605.2969 C556.6094,605.2969 556.2188,605.6094 556.2188,606.1563 C556.2188,606.4063 556.3594,606.6719 556.5781,606.8281 C556.7344,606.9531 556.9531,607 557.3594,607 L560.8281,607 C562.3125,607 563.3281,606.6094 564.1563,605.7188 C564.9375,604.9063 565.3438,603.8594 565.3438,602.6094 L565.3438,601.8125 C565.3438,599.1406 563.4531,597.0938 560.9688,597.0938 L557.3594,597.0938 C556.9063,597.0938 556.7813,597.1094 556.625,597.2031 C556.375,597.3594 556.2188,597.6563 556.2188,597.9375 C556.2188,598.4844 556.5938,598.7813 557.2656,598.7813 L557.2656,605.2969 Z M558.9531,605.2969 L558.9531,598.7813 L560.8281,598.7813 C561.7344,598.7813 562.375,599.0625 562.8906,599.6563 C563.375,600.2344 563.6563,600.9844 563.6563,601.7813 L563.6563,602.5625 C563.6563,603.4375 563.4219,604.0313 562.9531,604.5469 C562.4219,605.0938 561.8594,605.2969 560.8438,605.2969 L558.9531,605.2969 Z "/><text fill="#000000" font-family="sans-serif" font-size="12" lengthAdjust="spacingAndGlyphs" textLength="85" x="580.25" y="606.1543">card_payment</text><line style="stroke: #A80036; stroke-width: 1.5;" x1="512.5" x2="700.5" y1="618" y2="618"/><ellipse cx="522.5" cy="629" fill="none" rx="3" ry="3" style="stroke: #038048; stroke-width: 1.0;"/><text fill="#000000" font-family="sans-serif" font-size="11" lengthAdjust="spacingAndGlyphs" textLength="108" x="531.5" y="632.2104">bank_name : string</text><ellipse cx="522.5" cy="641.8047" fill="none" rx="3" ry="3" style="stroke: #038048; stroke-width: 1.0;"/><text fill="#000000" font-family="sans-serif" font-size="11" lengthAdjust="spacingAndGlyphs" textLength="142" x="531.5" y="645.0151">bank_short_name : string</text><ellipse cx="522.5" cy="654.6094" fill="none" rx="3" ry="3" style="stroke: #038048; stroke-width: 1.0;"/><text fill="#000000" font-family="sans-serif" font-size="11" lengthAdjust="spacingAndGlyphs" textLength="80" x="531.5" y="657.8198">branch : string</text><ellipse cx="522.5" cy="667.4141" fill="none" rx="3" ry="3" style="stroke: #038048; stroke-width: 1.0;"/><text fill="#000000" font-family="sans-serif" font-size="11" lengthAdjust="spacingAndGlyphs" textLength="164" x="531.5" y="670.6245">card_number_snippet : string</text><ellipse cx="522.5" cy="680.2188" fill="none" rx="3" ry="3" style="stroke: #038048; stroke-width: 1.0;"/><text fill="#000000" font-family="sans-serif" font-size="11" lengthAdjust="spacingAndGlyphs" textLength="78" x="531.5" y="683.4292">expiry : string</text><ellipse cx="522.5" cy="693.0234" fill="none" rx="3" ry="3" style="stroke: #038048; stroke-width: 1.0;"/><text fill="#000000" font-family="sans-serif" font-size="11" lengthAdjust="spacingAndGlyphs" textLength="35" x="531.5" y="696.2339">id : int</text><line style="stroke: #A80036; stroke-width: 1.5;" x1="512.5" x2="700.5" y1="702.8281" y2="702.8281"/><!--MD5=[9f3b5866fc3516bb7b126afd03fd81f9]
class _5--><rect fill="#FEFECE" filter="url(#fmsrdf44d2m8c)" height="99.2188" id="_5" style="stroke: #A80036; stroke-width: 1.5;" width="128" x="736.5" y="599"/><ellipse cx="756" cy="615" fill="#DA70D6" rx="11" ry="11" style="stroke: #A80036; stroke-width: 1.0;"/><path d="M753.5156,618.2969 C752.8594,618.2969 752.4688,618.6094 752.4688,619.1563 C752.4688,619.4063 752.6094,619.6719 752.8281,619.8281 C752.9844,619.9531 753.2031,620 753.6094,620 L757.0781,620 C758.5625,620 759.5781,619.6094 760.4063,618.7188 C761.1875,617.9063 761.5938,616.8594 761.5938,615.6094 L761.5938,614.8125 C761.5938,612.1406 759.7031,610.0938 757.2188,610.0938 L753.6094,610.0938 C753.1563,610.0938 753.0313,610.1094 752.875,610.2031 C752.625,610.3594 752.4688,610.6563 752.4688,610.9375 C752.4688,611.4844 752.8438,611.7813 753.5156,611.7813 L753.5156,618.2969 Z M755.2031,618.2969 L755.2031,611.7813 L757.0781,611.7813 C757.9844,611.7813 758.625,612.0625 759.1406,612.6563 C759.625,613.2344 759.9063,613.9844 759.9063,614.7813 L759.9063,615.5625 C759.9063,616.4375 759.6719,617.0313 759.2031,617.5469 C758.6719,618.0938 758.1094,618.2969 757.0938,618.2969 L755.2031,618.2969 Z "/><text fill="#000000" font-family="sans-serif" font-size="12" lengthAdjust="spacingAndGlyphs" textLength="86" x="771" y="619.1543">cash_payment</text><line style="stroke: #A80036; stroke-width: 1.5;" x1="737.5" x2="863.5" y1="631" y2="631"/><ellipse cx="747.5" cy="642" fill="none" rx="3" ry="3" style="stroke: #038048; stroke-width: 1.0;"/><text fill="#000000" font-family="sans-serif" font-size="11" lengthAdjust="spacingAndGlyphs" textLength="62" x="756.5" y="645.2104">city : string</text><ellipse cx="747.5" cy="654.8047" fill="none" rx="3" ry="3" style="stroke: #038048; stroke-width: 1.0;"/><text fill="#000000" font-family="sans-serif" font-size="11" lengthAdjust="spacingAndGlyphs" textLength="84" x="756.5" y="658.0151">country : string</text><ellipse cx="747.5" cy="667.6094" fill="none" rx="3" ry="3" style="stroke: #038048; stroke-width: 1.0;"/><text fill="#000000" font-family="sans-serif" font-size="11" lengthAdjust="spacingAndGlyphs" textLength="102" x="756.5" y="670.8198">first_name : string</text><ellipse cx="747.5" cy="680.4141" fill="none" rx="3" ry="3" style="stroke: #038048; stroke-width: 1.0;"/><text fill="#000000" font-family="sans-serif" font-size="11" lengthAdjust="spacingAndGlyphs" textLength="35" x="756.5" y="683.6245">id : int</text><line style="stroke: #A80036; stroke-width: 1.5;" x1="737.5" x2="863.5" y1="690.2188" y2="690.2188"/><!--MD5=[6a3af1c95ca99f945e9d9cfb177ddaa5]
class _6--><rect fill="#FEFECE" filter="url(#fmsrdf44d2m8c)" height="73.6094" id="_6" style="stroke: #A80036; stroke-width: 1.5;" width="246" x="133.5" y="426.5"/><ellipse cx="195.75" cy="442.5" fill="#DA70D6" rx="11" ry="11" style="stroke: #A80036; stroke-width: 1.0;"/><path d="M193.2656,445.7969 C192.6094,445.7969 192.2188,446.1094 192.2188,446.6563 C192.2188,446.9063 192.3594,447.1719 192.5781,447.3281 C192.7344,447.4531 192.9531,447.5 193.3594,447.5 L196.8281,447.5 C198.3125,447.5 199.3281,447.1094 200.1563,446.2188 C200.9375,445.4063 201.3438,444.3594 201.3438,443.1094 L201.3438,442.3125 C201.3438,439.6406 199.4531,437.5938 196.9688,437.5938 L193.3594,437.5938 C192.9063,437.5938 192.7813,437.6094 192.625,437.7031 C192.375,437.8594 192.2188,438.1563 192.2188,438.4375 C192.2188,438.9844 192.5938,439.2813 193.2656,439.2813 L193.2656,445.7969 Z M194.9531,445.7969 L194.9531,439.2813 L196.8281,439.2813 C197.7344,439.2813 198.375,439.5625 198.8906,440.1563 C199.375,440.7344 199.6563,441.4844 199.6563,442.2813 L199.6563,443.0625 C199.6563,443.9375 199.4219,444.5313 198.9531,445.0469 C198.4219,445.5938 197.8594,445.7969 196.8438,445.7969 L194.9531,445.7969 Z "/><text fill="#000000" font-family="sans-serif" font-size="12" lengthAdjust="spacingAndGlyphs" textLength="113" x="216.25" y="446.6543">checkpoint_lookup</text><line style="stroke: #A80036; stroke-width: 1.5;" x1="134.5" x2="378.5" y1="458.5" y2="458.5"/><ellipse cx="144.5" cy="469.5" fill="none" rx="3" ry="3" style="stroke: #038048; stroke-width: 1.0;"/><text fill="#000000" font-family="sans-serif" font-size="11" lengthAdjust="spacingAndGlyphs" textLength="145" x="153.5" y="472.7104">checkpoint_lookup_id : int</text><ellipse cx="144.5" cy="482.3047" fill="none" rx="3" ry="3" style="stroke: #038048; stroke-width: 1.0;"/><text fill="#000000" font-family="sans-serif" font-size="11" lengthAdjust="spacingAndGlyphs" textLength="51" x="153.5" y="485.5151">location :</text><text fill="#000000" font-family="sans-serif" font-size="11" font-weight="bold" lengthAdjust="spacingAndGlyphs" textLength="134" x="208.5" y="485.5151">location.location_id</text><text fill="#000000" font-family="sans-serif" font-size="11" lengthAdjust="spacingAndGlyphs" textLength="27" x="346.5" y="485.5151">«FK»</text><line style="stroke: #A80036; stroke-width: 1.5;" x1="134.5" x2="378.5" y1="492.1094" y2="492.1094"/><!--MD5=[de0bfa585452079efdc6062f86f7fa4a]
class _7--><rect fill="#FEFECE" filter="url(#fmsrdf44d2m8c)" height="86.4141" id="_7" style="stroke: #A80036; stroke-width: 1.5;" width="123" x="415" y="420.5"/><ellipse cx="444.85" cy="436.5" fill="#DA70D6" rx="11" ry="11" style="stroke: #A80036; stroke-width: 1.0;"/><path d="M442.3656,439.7969 C441.7094,439.7969 441.3188,440.1094 441.3188,440.6563 C441.3188,440.9063 441.4594,441.1719 441.6781,441.3281 C441.8344,441.4531 442.0531,441.5 442.4594,441.5 L445.9281,441.5 C447.4125,441.5 448.4281,441.1094 449.2563,440.2188 C450.0375,439.4063 450.4438,438.3594 450.4438,437.1094 L450.4438,436.3125 C450.4438,433.6406 448.5531,431.5938 446.0688,431.5938 L442.4594,431.5938 C442.0063,431.5938 441.8813,431.6094 441.725,431.7031 C441.475,431.8594 441.3188,432.1563 441.3188,432.4375 C441.3188,432.9844 441.6938,433.2813 442.3656,433.2813 L442.3656,439.7969 Z M444.0531,439.7969 L444.0531,433.2813 L445.9281,433.2813 C446.8344,433.2813 447.475,433.5625 447.9906,434.1563 C448.475,434.7344 448.7563,435.4844 448.7563,436.2813 L448.7563,437.0625 C448.7563,437.9375 448.5219,438.5313 448.0531,439.0469 C447.5219,439.5938 446.9594,439.7969 445.9438,439.7969 L444.0531,439.7969 Z "/><text fill="#000000" font-family="sans-serif" font-size="12" lengthAdjust="spacingAndGlyphs" textLength="58" x="462.15" y="440.6543">exhibition</text><line style="stroke: #A80036; stroke-width: 1.5;" x1="416" x2="537" y1="452.5" y2="452.5"/><ellipse cx="426" cy="463.5" fill="none" rx="3" ry="3" style="stroke: #038048; stroke-width: 1.0;"/><text fill="#000000" font-family="sans-serif" font-size="11" lengthAdjust="spacingAndGlyphs" textLength="72" x="435" y="466.7104">capacity : int</text><ellipse cx="426" cy="476.3047" fill="none" rx="3" ry="3" style="stroke: #038048; stroke-width: 1.0;"/><text fill="#000000" font-family="sans-serif" font-size="11" lengthAdjust="spacingAndGlyphs" textLength="97" x="435" y="479.5151">exhibition_id : int</text><ellipse cx="426" cy="489.1094" fill="none" rx="3" ry="3" style="stroke: #038048; stroke-width: 1.0;"/><text fill="#000000" font-family="sans-serif" font-size="11" lengthAdjust="spacingAndGlyphs" textLength="89" x="435" y="492.3198">time : datetime</text><line style="stroke: #A80036; stroke-width: 1.5;" x1="416" x2="537" y1="498.9141" y2="498.9141"/><!--MD5=[37d6e5304215b5e345f427169db70937]
class _1--><rect fill="#FEFECE" filter="url(#fmsrdf44d2m8c)" height="99.2188" id="_1" style="stroke: #A80036; stroke-width: 1.5;" width="115" x="6" y="599"/><ellipse cx="37.2" cy="615" fill="#DA70D6" rx="11" ry="11" style="stroke: #A80036; stroke-width: 1.0;"/><path d="M34.7156,618.2969 C34.0594,618.2969 33.6688,618.6094 33.6688,619.1563 C33.6688,619.4063 33.8094,619.6719 34.0281,619.8281 C34.1844,619.9531 34.4031,620 34.8094,620 L38.2781,620 C39.7625,620 40.7781,619.6094 41.6063,618.7188 C42.3875,617.9063 42.7938,616.8594 42.7938,615.6094 L42.7938,614.8125 C42.7938,612.1406 40.9031,610.0938 38.4188,610.0938 L34.8094,610.0938 C34.3563,610.0938 34.2313,610.1094 34.075,610.2031 C33.825,610.3594 33.6688,610.6563 33.6688,610.9375 C33.6688,611.4844 34.0438,611.7813 34.7156,611.7813 L34.7156,618.2969 Z M36.4031,618.2969 L36.4031,611.7813 L38.2781,611.7813 C39.1844,611.7813 39.825,612.0625 40.3406,612.6563 C40.825,613.2344 41.1063,613.9844 41.1063,614.7813 L41.1063,615.5625 C41.1063,616.4375 40.8719,617.0313 40.4031,617.5469 C39.8719,618.0938 39.3094,618.2969 38.2938,618.2969 L36.4031,618.2969 Z "/><text fill="#000000" font-family="sans-serif" font-size="12" lengthAdjust="spacingAndGlyphs" textLength="47" x="54.8" y="619.1543">location</text><line style="stroke: #A80036; stroke-width: 1.5;" x1="7" x2="120" y1="631" y2="631"/><ellipse cx="17" cy="642" fill="none" rx="3" ry="3" style="stroke: #038048; stroke-width: 1.0;"/><text fill="#000000" font-family="sans-serif" font-size="11" lengthAdjust="spacingAndGlyphs" textLength="85" x="26" y="645.2104">location_id : int</text><ellipse cx="17" cy="654.8047" fill="none" rx="3" ry="3" style="stroke: #038048; stroke-width: 1.0;"/><text fill="#000000" font-family="sans-serif" font-size="11" lengthAdjust="spacingAndGlyphs" textLength="69" x="26" y="658.0151">name : float</text><ellipse cx="17" cy="667.6094" fill="none" rx="3" ry="3" style="stroke: #038048; stroke-width: 1.0;"/><text fill="#000000" font-family="sans-serif" font-size="11" lengthAdjust="spacingAndGlyphs" textLength="89" x="26" y="670.8198">time : datetime</text><ellipse cx="17" cy="680.4141" fill="none" rx="3" ry="3" style="stroke: #038048; stroke-width: 1.0;"/><text fill="#000000" font-family="sans-serif" font-size="11" lengthAdjust="spacingAndGlyphs" textLength="62" x="26" y="683.6245">type : float</text><line style="stroke: #A80036; stroke-width: 1.5;" x1="7" x2="120" y1="690.2188" y2="690.2188"/><!--MD5=[95d1cea1cd7f69d371fe62aa72675e9c]
class _2--><rect fill="#FEFECE" filter="url(#fmsrdf44d2m8c)" height="124.8281" id="_2" style="stroke: #A80036; stroke-width: 1.5;" width="261" x="573" y="401"/><ellipse cx="650.25" cy="417" fill="#DA70D6" rx="11" ry="11" style="stroke: #A80036; stroke-width: 1.0;"/><path d="M647.7656,420.2969 C647.1094,420.2969 646.7188,420.6094 646.7188,421.1563 C646.7188,421.4063 646.8594,421.6719 647.0781,421.8281 C647.2344,421.9531 647.4531,422 647.8594,422 L651.3281,422 C652.8125,422 653.8281,421.6094 654.6563,420.7188 C655.4375,419.9063 655.8438,418.8594 655.8438,417.6094 L655.8438,416.8125 C655.8438,414.1406 653.9531,412.0938 651.4688,412.0938 L647.8594,412.0938 C647.4063,412.0938 647.2813,412.1094 647.125,412.2031 C646.875,412.3594 646.7188,412.6563 646.7188,412.9375 C646.7188,413.4844 647.0938,413.7813 647.7656,413.7813 L647.7656,420.2969 Z M649.4531,420.2969 L649.4531,413.7813 L651.3281,413.7813 C652.2344,413.7813 652.875,414.0625 653.3906,414.6563 C653.875,415.2344 654.1563,415.9844 654.1563,416.7813 L654.1563,417.5625 C654.1563,418.4375 653.9219,419.0313 653.4531,419.5469 C652.9219,420.0938 652.3594,420.2969 651.3438,420.2969 L649.4531,420.2969 Z "/><text fill="#000000" font-family="sans-serif" font-size="12" lengthAdjust="spacingAndGlyphs" textLength="98" x="670.75" y="421.1543">payment_details</text><line style="stroke: #A80036; stroke-width: 1.5;" x1="574" x2="833" y1="433" y2="433"/><ellipse cx="584" cy="444" fill="none" rx="3" ry="3" style="stroke: #038048; stroke-width: 1.0;"/><text fill="#000000" font-family="sans-serif" font-size="11" lengthAdjust="spacingAndGlyphs" textLength="70" x="593" y="447.2104">online : bool</text><ellipse cx="584" cy="456.8047" fill="none" rx="3" ry="3" style="stroke: #038048; stroke-width: 1.0;"/><text fill="#000000" font-family="sans-serif" font-size="11" lengthAdjust="spacingAndGlyphs" textLength="88" x="593" y="460.0151">payment_card :</text><text fill="#000000" font-family="sans-serif" font-size="11" font-weight="bold" lengthAdjust="spacingAndGlyphs" textLength="109" x="685" y="460.0151">card_payment.id</text><text fill="#000000" font-family="sans-serif" font-size="11" lengthAdjust="spacingAndGlyphs" textLength="27" x="798" y="460.0151">«FK»</text><ellipse cx="584" cy="469.6094" fill="none" rx="3" ry="3" style="stroke: #038048; stroke-width: 1.0;"/><text fill="#000000" font-family="sans-serif" font-size="11" lengthAdjust="spacingAndGlyphs" textLength="90" x="593" y="472.8198">payment_cash :</text><text fill="#000000" font-family="sans-serif" font-size="11" font-weight="bold" lengthAdjust="spacingAndGlyphs" textLength="110" x="687" y="472.8198">cash_payment.id</text><text fill="#000000" font-family="sans-serif" font-size="11" lengthAdjust="spacingAndGlyphs" textLength="27" x="801" y="472.8198">«FK»</text><ellipse cx="584" cy="482.4141" fill="none" rx="3" ry="3" style="stroke: #038048; stroke-width: 1.0;"/><text fill="#000000" font-family="sans-serif" font-size="11" lengthAdjust="spacingAndGlyphs" textLength="136" x="593" y="485.6245">payment_details_id : int</text><ellipse cx="584" cy="495.2188" fill="none" rx="3" ry="3" style="stroke: #038048; stroke-width: 1.0;"/><text fill="#000000" font-family="sans-serif" font-size="11" lengthAdjust="spacingAndGlyphs" textLength="84" x="593" y="498.4292">price : decimal</text><ellipse cx="584" cy="508.0234" fill="none" rx="3" ry="3" style="stroke: #038048; stroke-width: 1.0;"/><text fill="#000000" font-family="sans-serif" font-size="11" lengthAdjust="spacingAndGlyphs" textLength="62" x="593" y="511.2339">type : float</text><line style="stroke: #A80036; stroke-width: 1.5;" x1="574" x2="833" y1="517.8281" y2="517.8281"/><!--MD5=[4df2e88eba431a2a56d213b7bca710d9]
class _3--><rect fill="#FEFECE" filter="url(#fmsrdf44d2m8c)" height="112.0234" id="_3" style="stroke: #A80036; stroke-width: 1.5;" width="405" x="162" y="229"/><ellipse cx="343.75" cy="245" fill="#DA70D6" rx="11" ry="11" style="stroke: #A80036; stroke-width: 1.0;"/><path d="M341.2656,248.2969 C340.6094,248.2969 340.2188,248.6094 340.2188,249.1563 C340.2188,249.4063 340.3594,249.6719 340.5781,249.8281 C340.7344,249.9531 340.9531,250 341.3594,250 L344.8281,250 C346.3125,250 347.3281,249.6094 348.1563,248.7188 C348.9375,247.9063 349.3438,246.8594 349.3438,245.6094 L349.3438,244.8125 C349.3438,242.1406 347.4531,240.0938 344.9688,240.0938 L341.3594,240.0938 C340.9063,240.0938 340.7813,240.1094 340.625,240.2031 C340.375,240.3594 340.2188,240.6563 340.2188,240.9375 C340.2188,241.4844 340.5938,241.7813 341.2656,241.7813 L341.2656,248.2969 Z M342.9531,248.2969 L342.9531,241.7813 L344.8281,241.7813 C345.7344,241.7813 346.375,242.0625 346.8906,242.6563 C347.375,243.2344 347.6563,243.9844 347.6563,244.7813 L347.6563,245.5625 C347.6563,246.4375 347.4219,247.0313 346.9531,247.5469 C346.4219,248.0938 345.8594,248.2969 344.8438,248.2969 L342.9531,248.2969 Z "/><text fill="#000000" font-family="sans-serif" font-size="12" lengthAdjust="spacingAndGlyphs" textLength="33" x="364.25" y="249.1543">ticket</text><line style="stroke: #A80036; stroke-width: 1.5;" x1="163" x2="566" y1="261" y2="261"/><ellipse cx="173" cy="272" fill="none" rx="3" ry="3" style="stroke: #038048; stroke-width: 1.0;"/><text fill="#000000" font-family="sans-serif" font-size="11" lengthAdjust="spacingAndGlyphs" textLength="127" x="182" y="275.2104">arrival_transport : float</text><ellipse cx="173" cy="284.8047" fill="none" rx="3" ry="3" style="stroke: #038048; stroke-width: 1.0;"/><text fill="#000000" font-family="sans-serif" font-size="11" lengthAdjust="spacingAndGlyphs" textLength="74" x="182" y="288.0151">checkpoints :</text><text fill="#000000" font-family="sans-serif" font-size="11" font-weight="bold" lengthAdjust="spacingAndGlyphs" textLength="270" x="260" y="288.0151">checkpoint_lookup.checkpoint_lookup_id</text><text fill="#000000" font-family="sans-serif" font-size="11" lengthAdjust="spacingAndGlyphs" textLength="27" x="534" y="288.0151">«FK»</text><ellipse cx="173" cy="297.6094" fill="none" rx="3" ry="3" style="stroke: #038048; stroke-width: 1.0;"/><text fill="#000000" font-family="sans-serif" font-size="11" lengthAdjust="spacingAndGlyphs" textLength="63" x="182" y="300.8198">exhibition :</text><text fill="#000000" font-family="sans-serif" font-size="11" font-weight="bold" lengthAdjust="spacingAndGlyphs" textLength="156" x="249" y="300.8198">exhibition.exhibition_id</text><text fill="#000000" font-family="sans-serif" font-size="11" lengthAdjust="spacingAndGlyphs" textLength="27" x="409" y="300.8198">«FK»</text><ellipse cx="173" cy="310.4141" fill="none" rx="3" ry="3" style="stroke: #038048; stroke-width: 1.0;"/><text fill="#000000" font-family="sans-serif" font-size="11" lengthAdjust="spacingAndGlyphs" textLength="58" x="182" y="313.6245">payment :</text><text fill="#000000" font-family="sans-serif" font-size="11" font-weight="bold" lengthAdjust="spacingAndGlyphs" textLength="242" x="244" y="313.6245">payment_details.payment_details_id</text><text fill="#000000" font-family="sans-serif" font-size="11" lengthAdjust="spacingAndGlyphs" textLength="27" x="490" y="313.6245">«FK»</text><ellipse cx="173" cy="323.2188" fill="none" rx="3" ry="3" style="stroke: #038048; stroke-width: 1.0;"/><text fill="#000000" font-family="sans-serif" font-size="11" lengthAdjust="spacingAndGlyphs" textLength="72" x="182" y="326.4292">ticket_id : int</text><line style="stroke: #A80036; stroke-width: 1.5;" x1="163" x2="566" y1="333.0234" y2="333.0234"/><!--MD5=[bde1413f829cc278731640fabc810278]
reverse link _0 to _1--><path d="M149.282,176.325 C140.963,193.456 133.364,211.53 127.5,229 C83.9338,358.792 61.0336,519.548 58.0979,598.734 " fill="none" id="_0&lt;-_1" style="stroke: #A80036; stroke-width: 1.0;"/><line style="stroke: #A80036; stroke-width: 1.0;" x1="149.3376" x2="145.7205" y1="176.2145" y2="169.046"/><line style="stroke: #A80036; stroke-width: 1.0;" x1="149.3376" x2="160.0575" y1="176.2145" y2="169.046"/><line style="stroke: #A80036; stroke-width: 1.0;" x1="149.3376" x2="152.889" y1="176.2145" y2="169.046"/><text fill="#000000" font-family="sans-serif" font-size="13" lengthAdjust="spacingAndGlyphs" textLength="0" x="57.1032" y="588.1"/><!--MD5=[bde1413f829cc278731640fabc810278]
reverse link _0 to _1--><path d="M183.426,176.784 C175.828,193.779 168.312,211.686 162.5,229 C118.934,358.792 96.0336,519.548 79.8891,598.734 " fill="none" id="_0&lt;-_1-1" style="stroke: #A80036; stroke-width: 1.0;"/><line style="stroke: #A80036; stroke-width: 1.0;" x1="183.6277" x2="179.6259" y1="176.3381" y2="169.046"/><line style="stroke: #A80036; stroke-width: 1.0;" x1="183.6277" x2="194.2101" y1="176.3381" y2="169.046"/><line style="stroke: #A80036; stroke-width: 1.0;" x1="183.6277" x2="186.918" y1="176.3381" y2="169.046"/><text fill="#000000" font-family="sans-serif" font-size="13" lengthAdjust="spacingAndGlyphs" textLength="0" x="81.8226" y="588.1"/><!--MD5=[eed656a2cfbc263ae3905a2379d727ae]
reverse link _0 to _2--><path d="M401.879,130.264 C465.466,151.577 533.243,183.061 584.5,229 C635.916,275.082 668.19,348.579 685.95,400.797 " fill="none" id="_0&lt;-_2" style="stroke: #A80036; stroke-width: 1.0;"/><line style="stroke: #A80036; stroke-width: 1.0;" x1="401.7449" x2="394.147" y1="130.2195" y2="135.3129"/><line style="stroke: #A80036; stroke-width: 1.0;" x1="401.7449" x2="394.147" y1="130.2195" y2="120.1171"/><line style="stroke: #A80036; stroke-width: 1.0;" x1="401.7449" x2="394.147" y1="130.2195" y2="127.715"/><text fill="#000000" font-family="sans-serif" font-size="13" lengthAdjust="spacingAndGlyphs" textLength="0" x="683.6895" y="389.7643"/><!--MD5=[ea448699c80579924a53b8b5046cae45]
reverse link _0 to _3--><path d="M280.905,175.769 C294.845,193.817 309.158,212.348 321.912,228.861 " fill="none" id="_0&lt;-_3" style="stroke: #A80036; stroke-width: 1.0;"/><line style="stroke: #A80036; stroke-width: 1.0;" x1="280.6797" x2="269.4581" y1="175.4769" y2="169.146"/><line style="stroke: #A80036; stroke-width: 1.0;" x1="280.6797" x2="282.1199" y1="175.4769" y2="169.146"/><line style="stroke: #A80036; stroke-width: 1.0;" x1="280.6797" x2="275.789" y1="175.4769" y2="169.146"/><text fill="#000000" font-family="sans-serif" font-size="13" lengthAdjust="spacingAndGlyphs" textLength="0" x="316.1992" y="217.7812"/><!--MD5=[68addd6110fd42dc811da417aeccbe4e]
reverse link _2 to _4--><path d="M666.935,533.483 C657.833,550.656 648.132,568.957 639.228,585.756 " fill="none" id="_2&lt;-_4" style="stroke: #A80036; stroke-width: 1.0;"/><line style="stroke: #A80036; stroke-width: 1.0;" x1="667.048" x2="663.7267" y1="533.2683" y2="526.2"/><line style="stroke: #A80036; stroke-width: 1.0;" x1="667.048" x2="677.8633" y1="533.2683" y2="526.2"/><line style="stroke: #A80036; stroke-width: 1.0;" x1="667.048" x2="670.795" y1="533.2683" y2="526.2"/><text fill="#000000" font-family="sans-serif" font-size="13" lengthAdjust="spacingAndGlyphs" textLength="0" x="642.7809" y="574.7185"/><!--MD5=[6d4ebb2bb2edf03631fc8b5de109183a]
reverse link _2 to _5--><path d="M740.07,533.493 C751.589,555.225 764.065,578.763 774.674,598.777 " fill="none" id="_2&lt;-_5" style="stroke: #A80036; stroke-width: 1.0;"/><line style="stroke: #A80036; stroke-width: 1.0;" x1="739.952" x2="729.1367" y1="533.2683" y2="526.2"/><line style="stroke: #A80036; stroke-width: 1.0;" x1="739.952" x2="743.2733" y1="533.2683" y2="526.2"/><line style="stroke: #A80036; stroke-width: 1.0;" x1="739.952" x2="736.205" y1="533.2683" y2="526.2"/><text fill="#000000" font-family="sans-serif" font-size="13" lengthAdjust="spacingAndGlyphs" textLength="0" x="770.761" y="587.7909"/><!--MD5=[e6e008698320a9f27e8a0afb4bfaa138]
reverse link _3 to _2--><path d="M477.682,344.928 C512.224,362.912 550.286,382.729 585.16,400.886 " fill="none" id="_3&lt;-_2" style="stroke: #A80036; stroke-width: 1.0;"/><line style="stroke: #A80036; stroke-width: 1.0;" x1="477.4629" x2="466.6726" y1="344.8144" y2="341.12"/><line style="stroke: #A80036; stroke-width: 1.0;" x1="477.4629" x2="474.0614" y1="344.8144" y2="341.12"/><line style="stroke: #A80036; stroke-width: 1.0;" x1="477.4629" x2="470.367" y1="344.8144" y2="341.12"/><text fill="#000000" font-family="sans-serif" font-size="13" lengthAdjust="spacingAndGlyphs" textLength="0" x="571.2457" y="389.8636"/><!--MD5=[510df503d95d0230a43042b22d704e04]
reverse link _3 to _6--><path d="M326.395,348.273 C310.421,374.379 292.41,403.814 278.672,426.265 " fill="none" id="_3&lt;-_6" style="stroke: #A80036; stroke-width: 1.0;"/><line style="stroke: #A80036; stroke-width: 1.0;" x1="326.4479" x2="323.8005" y1="348.1845" y2="341.361"/><line style="stroke: #A80036; stroke-width: 1.0;" x1="326.4479" x2="337.4475" y1="348.1845" y2="341.361"/><line style="stroke: #A80036; stroke-width: 1.0;" x1="326.4479" x2="330.624" y1="348.1845" y2="341.361"/><text fill="#000000" font-family="sans-serif" font-size="13" lengthAdjust="spacingAndGlyphs" textLength="0" x="282.2651" y="415.4101"/><!--MD5=[302fddd2497c975672137639babeaac0]
reverse link _3 to _7--><path d="M404.048,348.324 C419.157,372.133 436.018,398.705 449.671,420.22 " fill="none" id="_3&lt;-_7" style="stroke: #A80036; stroke-width: 1.0;"/><line style="stroke: #A80036; stroke-width: 1.0;" x1="403.9155" x2="392.8747" y1="348.1163" y2="341.361"/><line style="stroke: #A80036; stroke-width: 1.0;" x1="403.9155" x2="406.3853" y1="348.1163" y2="341.361"/><line style="stroke: #A80036; stroke-width: 1.0;" x1="403.9155" x2="399.63" y1="348.1163" y2="341.361"/><text fill="#000000" font-family="sans-serif" font-size="13" lengthAdjust="spacingAndGlyphs" textLength="0" x="445.2566" y="409.4897"/><!--MD5=[299d30f220ef4c56106067915d61f792]
reverse link _6 to _1--><path d="M212.311,506.4 C183.243,533.961 145.101,570.127 114.71,598.944 " fill="none" id="_6&lt;-_1" style="stroke: #A80036; stroke-width: 1.0;"/><line style="stroke: #A80036; stroke-width: 1.0;" x1="212.5641" x2="212.8642" y1="506.1598" y2="500.655"/><line style="stroke: #A80036; stroke-width: 1.0;" x1="212.5641" x2="223.8738" y1="506.1598" y2="500.655"/><line style="stroke: #A80036; stroke-width: 1.0;" x1="212.5641" x2="218.369" y1="506.1598" y2="500.655"/><text fill="#000000" font-family="sans-serif" font-size="13" lengthAdjust="spacingAndGlyphs" textLength="0" x="121.6302" y="587.9814"/><!--MD5=[1fc7fe49689e11b042347501730ae37d]
@startuml
''''''''''''''''''''''''''''''''''''''''''
''                                      ''
''  AUTOGENERATED CODE - - DO NOT EDIT!  ''
''                                      ''
''''''''''''''''''''''''''''''''''''''''''

class "audio_guide" as _0 << (D,orchid) >> {
+ activation_date : date
+ audio_guide_id : int
+ issue_point : **location.location_id** <<FK>>
+ language : float
+ listen_time : float
+ payment : **payment_details.payment_details_id** <<FK>>
+ return_point : **location.location_id** <<FK>>
+ ticket_id : **ticket.ticket_id** <<FK>>
+ type : float
}
class "card_payment" as _4 << (D,orchid) >> {
+ bank_name : string
+ bank_short_name : string
+ branch : string
+ card_number_snippet : string
+ expiry : string
+ id : int
}
class "cash_payment" as _5 << (D,orchid) >> {
+ city : string
+ country : string
+ first_name : string
+ id : int
}
class "checkpoint_lookup" as _6 << (D,orchid) >> {
+ checkpoint_lookup_id : int
+ location : **location.location_id** <<FK>>
}
class "exhibition" as _7 << (D,orchid) >> {
+ capacity : int
+ exhibition_id : int
+ time : datetime
}
class "location" as _1 << (D,orchid) >> {
+ location_id : int
+ name : float
+ time : datetime
+ type : float
}
class "payment_details" as _2 << (D,orchid) >> {
+ online : bool
+ payment_card : **card_payment.id** <<FK>>
+ payment_cash : **cash_payment.id** <<FK>>
+ payment_details_id : int
+ price : decimal
+ type : float
}
class "ticket" as _3 << (D,orchid) >> {
+ arrival_transport : float
+ checkpoints : **checkpoint_lookup.checkpoint_lookup_id** <<FK>>
+ exhibition : **exhibition.exhibition_id** <<FK>>
+ payment : **payment_details.payment_details_id** <<FK>>
+ ticket_id : int
}
_0 }- - " " _1
_0 }- - " " _1
_0 }- - " " _2
_0 }- - " " _3
_2 }- - " " _4
_2 }- - " " _5
_3 }- - " " _2
_3 }- - " " _6
_3 }- - " " _7
_6 }- - " " _1
@enduml

@startuml

class "audio_guide" as _0 << (D,orchid) >> {
+ activation_date : date
+ audio_guide_id : int
+ issue_point : **location.location_id** <<FK>>
+ language : float
+ listen_time : float
+ payment : **payment_details.payment_details_id** <<FK>>
+ return_point : **location.location_id** <<FK>>
+ ticket_id : **ticket.ticket_id** <<FK>>
+ type : float
}
class "card_payment" as _4 << (D,orchid) >> {
+ bank_name : string
+ bank_short_name : string
+ branch : string
+ card_number_snippet : string
+ expiry : string
+ id : int
}
class "cash_payment" as _5 << (D,orchid) >> {
+ city : string
+ country : string
+ first_name : string
+ id : int
}
class "checkpoint_lookup" as _6 << (D,orchid) >> {
+ checkpoint_lookup_id : int
+ location : **location.location_id** <<FK>>
}
class "exhibition" as _7 << (D,orchid) >> {
+ capacity : int
+ exhibition_id : int
+ time : datetime
}
class "location" as _1 << (D,orchid) >> {
+ location_id : int
+ name : float
+ time : datetime
+ type : float
}
class "payment_details" as _2 << (D,orchid) >> {
+ online : bool
+ payment_card : **card_payment.id** <<FK>>
+ payment_cash : **cash_payment.id** <<FK>>
+ payment_details_id : int
+ price : decimal
+ type : float
}
class "ticket" as _3 << (D,orchid) >> {
+ arrival_transport : float
+ checkpoints : **checkpoint_lookup.checkpoint_lookup_id** <<FK>>
+ exhibition : **exhibition.exhibition_id** <<FK>>
+ payment : **payment_details.payment_details_id** <<FK>>
+ ticket_id : int
}
_0 }- - " " _1
_0 }- - " " _1
_0 }- - " " _2
_0 }- - " " _3
_2 }- - " " _4
_2 }- - " " _5
_3 }- - " " _2
_3 }- - " " _6
_3 }- - " " _7
_6 }- - " " _1
@enduml

PlantUML version 1.2020.12(Sat Jun 06 10:54:15 UTC 2020)
(GPL source distribution)
Java Runtime: Java(TM) SE Runtime Environment
JVM: Java HotSpot(TM) 64-Bit Server VM
Default Encoding: UTF-8
Language: en
Country: US
--></g></svg>