<?xml version="1.0" encoding="UTF-8" standalone="no"?><svg xmlns="http://www.w3.org/2000/svg" xmlns:xlink="http://www.w3.org/1999/xlink" contentScriptType="application/ecmascript" contentStyleType="text/css" height="91px" preserveAspectRatio="none" style="width:243px;height:91px;" version="1.1" viewBox="0 0 243 91" width="243px" zoomAndPan="magnify"><defs><filter height="300%" id="f1g1em4bmfpydk" width="300%" x="-1" y="-1"><feGaussianBlur result="blurOut" stdDeviation="2.0"/><feColorMatrix in="blurOut" result="blurOut2" type="matrix" values="0 0 0 0 0 0 0 0 0 0 0 0 0 0 0 0 0 0 .4 0"/><feOffset dx="4.0" dy="4.0" in="blurOut2" result="blurOut3"/><feBlend in="SourceGraphic" in2="blurOut3" mode="normal"/></filter></defs><g><!--MD5=[f77682fd75c3e1fc6a82f566c0814d0f]
class _0--><rect fill="#FEFECE" filter="url(#f1g1em4bmfpydk)" height="73.6094" id="_0" style="stroke: #A80036; stroke-width: 1.5;" width="225" x="7" y="7"/><ellipse cx="85.25" cy="23" fill="#DA70D6" rx="11" ry="11" style="stroke: #A80036; stroke-width: 1.0;"/><path d="M82.7656,26.2969 C82.1094,26.2969 81.7188,26.6094 81.7188,27.1563 C81.7188,27.4063 81.8594,27.6719 82.0781,27.8281 C82.2344,27.9531 82.4531,28 82.8594,28 L86.3281,28 C87.8125,28 88.8281,27.6094 89.6563,26.7188 C90.4375,25.9063 90.8438,24.8594 90.8438,23.6094 L90.8438,22.8125 C90.8438,20.1406 88.9531,18.0938 86.4688,18.0938 L82.8594,18.0938 C82.4063,18.0938 82.2813,18.1094 82.125,18.2031 C81.875,18.3594 81.7188,18.6563 81.7188,18.9375 C81.7188,19.4844 82.0938,19.7813 82.7656,19.7813 L82.7656,26.2969 Z M84.4531,26.2969 L84.4531,19.7813 L86.3281,19.7813 C87.2344,19.7813 87.875,20.0625 88.3906,20.6563 C88.875,21.2344 89.1563,21.9844 89.1563,22.7813 L89.1563,23.5625 C89.1563,24.4375 88.9219,25.0313 88.4531,25.5469 C87.9219,26.0938 87.3594,26.2969 86.3438,26.2969 L84.4531,26.2969 Z "/><text fill="#000000" font-family="sans-serif" font-size="12" lengthAdjust="spacingAndGlyphs" textLength="60" x="105.75" y="27.1543">Response</text><line style="stroke: #A80036; stroke-width: 1.5;" x1="8" x2="231" y1="39" y2="39"/><ellipse cx="18" cy="50" fill="none" rx="3" ry="3" style="stroke: #038048; stroke-width: 1.0;"/><text fill="#000000" font-family="sans-serif" font-size="11" lengthAdjust="spacingAndGlyphs" textLength="52" x="27" y="53.2104">balance :</text><text fill="#000000" font-family="sans-serif" font-size="11" font-weight="bold" lengthAdjust="spacingAndGlyphs" textLength="143" x="83" y="53.2104">MegaDatabase.Empty</text><ellipse cx="18" cy="62.8047" fill="none" rx="3" ry="3" style="stroke: #038048; stroke-width: 1.0;"/><text fill="#000000" font-family="sans-serif" font-size="11" lengthAdjust="spacingAndGlyphs" textLength="40" x="27" y="66.0151">query :</text><text fill="#000000" font-family="sans-serif" font-size="11" font-weight="bold" lengthAdjust="spacingAndGlyphs" textLength="145" x="71" y="66.0151">MegaDatabase.Money</text><line style="stroke: #A80036; stroke-width: 1.5;" x1="8" x2="231" y1="72.6094" y2="72.6094"/><!--MD5=[e5ccfacd9da8fa61a2ec4a4e1e96380f]
@startuml
''''''''''''''''''''''''''''''''''''''''''
''                                      ''
''  AUTOGENERATED CODE - - DO NOT EDIT!  ''
''                                      ''
''''''''''''''''''''''''''''''''''''''''''

class "Response" as _0 << (D,orchid) >> {
+ balance : **MegaDatabase.Empty**
+ query : **MegaDatabase.Money**
}
@enduml

@startuml

class "Response" as _0 << (D,orchid) >> {
+ balance : **MegaDatabase.Empty**
+ query : **MegaDatabase.Money**
}
@enduml

PlantUML version 1.2020.12(Sat Jun 06 10:54:15 UTC 2020)
(GPL source distribution)
Java Runtime: Java(TM) SE Runtime Environment
JVM: Java HotSpot(TM) 64-Bit Server VM
Default Encoding: UTF-8
Language: en
Country: US
--></g></svg>