<?xml version="1.0" encoding="UTF-8" standalone="no"?><svg xmlns="http://www.w3.org/2000/svg" xmlns:xlink="http://www.w3.org/1999/xlink" contentScriptType="application/ecmascript" contentStyleType="text/css" height="188px" preserveAspectRatio="none" style="width:644px;height:188px;" version="1.1" viewBox="0 0 644 188" width="644px" zoomAndPan="magnify"><defs><filter height="300%" id="f1mc42v5ohlhh7" width="300%" x="-1" y="-1"><feGaussianBlur result="blurOut" stdDeviation="2.0"/><feColorMatrix in="blurOut" result="blurOut2" type="matrix" values="0 0 0 0 0 0 0 0 0 0 0 0 0 0 0 0 0 0 .4 0"/><feOffset dx="4.0" dy="4.0" in="blurOut2" result="blurOut3"/><feBlend in="SourceGraphic" in2="blurOut3" mode="normal"/></filter></defs><g><!--MD5=[f77682fd75c3e1fc6a82f566c0814d0f]
class _0--><rect fill="#FEFECE" filter="url(#f1mc42v5ohlhh7)" height="48" id="_0" style="stroke: #A80036; stroke-width: 1.5;" width="169" x="6" y="14.5"/><ellipse cx="21" cy="30.5" fill="#DA70D6" rx="11" ry="11" style="stroke: #A80036; stroke-width: 1.0;"/><path d="M20.5938,26.3125 L20.5938,34.2969 L21.25,34.2969 Q22.6875,34.2969 23.2969,33.3906 Q23.9219,32.4688 23.9219,30.2969 Q23.9219,28.125 23.2969,27.2188 Q22.6875,26.3125 21.25,26.3125 L20.5938,26.3125 Z M18.1406,24.1094 L20.7656,24.1094 Q23.7969,24.1094 25.125,25.5625 Q26.4688,27 26.4688,30.2969 Q26.4688,33.5938 25.125,35.0469 Q23.7969,36.5 20.7656,36.5 L18.1406,36.5 L18.1406,24.1094 Z "/><text fill="#000000" font-family="sans-serif" font-size="12" lengthAdjust="spacingAndGlyphs" textLength="137" x="35" y="34.6543">MegaDatabase.Empty</text><line style="stroke: #A80036; stroke-width: 1.5;" x1="7" x2="174" y1="46.5" y2="46.5"/><line style="stroke: #A80036; stroke-width: 1.5;" x1="7" x2="174" y1="54.5" y2="54.5"/><!--MD5=[37d6e5304215b5e345f427169db70937]
class _1--><rect fill="#FEFECE" filter="url(#f1mc42v5ohlhh7)" height="60.8047" id="_1" style="stroke: #A80036; stroke-width: 1.5;" width="171" x="210" y="8"/><ellipse cx="225" cy="24" fill="#DA70D6" rx="11" ry="11" style="stroke: #A80036; stroke-width: 1.0;"/><path d="M224.5938,19.8125 L224.5938,27.7969 L225.25,27.7969 Q226.6875,27.7969 227.2969,26.8906 Q227.9219,25.9688 227.9219,23.7969 Q227.9219,21.625 227.2969,20.7188 Q226.6875,19.8125 225.25,19.8125 L224.5938,19.8125 Z M222.1406,17.6094 L224.7656,17.6094 Q227.7969,17.6094 229.125,19.0625 Q230.4688,20.5 230.4688,23.7969 Q230.4688,27.0938 229.125,28.5469 Q227.7969,30 224.7656,30 L222.1406,30 L222.1406,17.6094 Z "/><text fill="#000000" font-family="sans-serif" font-size="12" lengthAdjust="spacingAndGlyphs" textLength="139" x="239" y="28.1543">MegaDatabase.Money</text><line style="stroke: #A80036; stroke-width: 1.5;" x1="211" x2="380" y1="40" y2="40"/><ellipse cx="221" cy="51" fill="none" rx="3" ry="3" style="stroke: #038048; stroke-width: 1.0;"/><text fill="#000000" font-family="sans-serif" font-size="11" lengthAdjust="spacingAndGlyphs" textLength="69" x="230" y="54.2104">amount : int</text><line style="stroke: #A80036; stroke-width: 1.5;" x1="211" x2="380" y1="60.8047" y2="60.8047"/><!--MD5=[95d1cea1cd7f69d371fe62aa72675e9c]
class _2--><rect fill="#FEFECE" filter="url(#f1mc42v5ohlhh7)" height="60.8047" id="_2" style="stroke: #A80036; stroke-width: 1.5;" width="217" x="416" y="8"/><ellipse cx="472.25" cy="24" fill="#DA70D6" rx="11" ry="11" style="stroke: #A80036; stroke-width: 1.0;"/><path d="M471.8438,19.8125 L471.8438,27.7969 L472.5,27.7969 Q473.9375,27.7969 474.5469,26.8906 Q475.1719,25.9688 475.1719,23.7969 Q475.1719,21.625 474.5469,20.7188 Q473.9375,19.8125 472.5,19.8125 L471.8438,19.8125 Z M469.3906,17.6094 L472.0156,17.6094 Q475.0469,17.6094 476.375,19.0625 Q477.7188,20.5 477.7188,23.7969 Q477.7188,27.0938 476.375,28.5469 Q475.0469,30 472.0156,30 L469.3906,30 L469.3906,17.6094 Z "/><text fill="#000000" font-family="sans-serif" font-size="12" lengthAdjust="spacingAndGlyphs" textLength="96" x="492.75" y="28.1543">Server.Request</text><line style="stroke: #A80036; stroke-width: 1.5;" x1="417" x2="632" y1="40" y2="40"/><ellipse cx="427" cy="51" fill="none" rx="3" ry="3" style="stroke: #038048; stroke-width: 1.0;"/><text fill="#000000" font-family="sans-serif" font-size="11" lengthAdjust="spacingAndGlyphs" textLength="40" x="436" y="54.2104">query :</text><text fill="#000000" font-family="sans-serif" font-size="11" font-weight="bold" lengthAdjust="spacingAndGlyphs" textLength="147" x="480" y="54.2104">Sequence &lt;Response&gt;</text><line style="stroke: #A80036; stroke-width: 1.5;" x1="417" x2="632" y1="60.8047" y2="60.8047"/><!--MD5=[4df2e88eba431a2a56d213b7bca710d9]
class _3--><rect fill="#FEFECE" filter="url(#f1mc42v5ohlhh7)" height="48" id="_3" style="stroke: #A80036; stroke-width: 1.5;" width="46" x="501.5" y="129"/><ellipse cx="516.5" cy="145" fill="#ADD1B2" rx="11" ry="11" style="stroke: #A80036; stroke-width: 1.0;"/><path d="M519.4688,150.6406 Q518.8906,150.9375 518.25,151.0781 Q517.6094,151.2344 516.9063,151.2344 Q514.4063,151.2344 513.0781,149.5938 Q511.7656,147.9375 511.7656,144.8125 Q511.7656,141.6875 513.0781,140.0313 Q514.4063,138.375 516.9063,138.375 Q517.6094,138.375 518.25,138.5313 Q518.9063,138.6875 519.4688,138.9844 L519.4688,141.7031 Q518.8438,141.125 518.25,140.8594 Q517.6563,140.5781 517.0313,140.5781 Q515.6875,140.5781 515,141.6563 Q514.3125,142.7188 514.3125,144.8125 Q514.3125,146.9063 515,147.9844 Q515.6875,149.0469 517.0313,149.0469 Q517.6563,149.0469 518.25,148.7813 Q518.8438,148.5 519.4688,147.9219 L519.4688,150.6406 Z "/><text fill="#000000" font-family="sans-serif" font-size="12" lengthAdjust="spacingAndGlyphs" textLength="14" x="530.5" y="149.1543">_3</text><line style="stroke: #A80036; stroke-width: 1.5;" x1="502.5" x2="546.5" y1="161" y2="161"/><line style="stroke: #A80036; stroke-width: 1.5;" x1="502.5" x2="546.5" y1="169" y2="169"/><!--MD5=[d55d8d636913339d8dba5a305028d51c]
reverse link _2 to _3--><path d="M524.5,82.4994 C524.5,98.2099 524.5,115.3289 524.5,128.7634 " fill="none" id="_2&lt;-_3" style="stroke: #A80036; stroke-width: 1.0;"/><polygon fill="#A80036" points="524.5,69.1839,520.5,75.1839,524.5,81.1839,528.5,75.1839,524.5,69.1839" style="stroke: #A80036; stroke-width: 1.0;"/><text fill="#000000" font-family="sans-serif" font-size="13" lengthAdjust="spacingAndGlyphs" textLength="23" x="498.6969" y="118.1107">0..*</text><!--MD5=[4974fc72f93e4594d3722115c73f6dfc]
@startuml

class "MegaDatabase.Empty" as _0<< (D,orchid) >> {
}
class "MegaDatabase.Money" as _1 << (D,orchid) >> {
+ amount : int
}
class "Server.Request" as _2 << (D,orchid) >> {
+ query : **Sequence <Response>**
}
_2 *- - "0..*" _3
@enduml

PlantUML version 1.2020.09(Sun May 10 10:51:06 UTC 2020)
(GPL source distribution)
Java Runtime: OpenJDK Runtime Environment
JVM: OpenJDK 64-Bit Server VM
Java Version: 1.8.0_252-b09
Operating System: Linux
Default Encoding: UTF-8
Language: en
Country: null
--></g></svg>