<?xml version="1.0" encoding="UTF-8" standalone="no"?><svg xmlns="http://www.w3.org/2000/svg" xmlns:xlink="http://www.w3.org/1999/xlink" contentScriptType="application/ecmascript" contentStyleType="text/css" height="334px" preserveAspectRatio="none" style="width:369px;height:334px;" version="1.1" viewBox="0 0 369 334" width="369px" zoomAndPan="magnify"><defs><filter height="300%" id="f1wswptso0mk3h" width="300%" x="-1" y="-1"><feGaussianBlur result="blurOut" stdDeviation="2.0"/><feColorMatrix in="blurOut" result="blurOut2" type="matrix" values="0 0 0 0 0 0 0 0 0 0 0 0 0 0 0 0 0 0 .4 0"/><feOffset dx="4.0" dy="4.0" in="blurOut2" result="blurOut3"/><feBlend in="SourceGraphic" in2="blurOut3" mode="normal"/></filter></defs><g><!--MD5=[f77682fd75c3e1fc6a82f566c0814d0f]
class _0--><rect fill="#FEFECE" filter="url(#f1wswptso0mk3h)" height="48" id="_0" style="stroke: #A80036; stroke-width: 1.5;" width="158" x="6" y="269.5"/><ellipse cx="21" cy="285.5" fill="#DA70D6" rx="11" ry="11" style="stroke: #A80036; stroke-width: 1.0;"/><path d="M20.0859,281.8149 L20.0859,289.792 L20.75,289.792 Q22.1943,289.792 22.8086,288.8831 Q23.4229,287.9741 23.4229,285.791 Q23.4229,283.6245 22.8086,282.7197 Q22.1943,281.8149 20.75,281.8149 Z M17.6372,279.6069 L20.2603,279.6069 Q23.2983,279.6069 24.6348,281.0554 Q25.9712,282.5039 25.9712,285.791 Q25.9712,289.0864 24.6348,290.5432 Q23.2983,292 20.2603,292 L17.6372,292 Z "/><text fill="#000000" font-family="sans-serif" font-size="12" lengthAdjust="spacingAndGlyphs" textLength="126" x="35" y="290.0352">MegaDatabase.Empty</text><line style="stroke: #A80036; stroke-width: 1.5;" x1="7" x2="163" y1="301.5" y2="301.5"/><line style="stroke: #A80036; stroke-width: 1.5;" x1="7" x2="163" y1="309.5" y2="309.5"/><!--MD5=[37d6e5304215b5e345f427169db70937]
class _1--><rect fill="#FEFECE" filter="url(#f1wswptso0mk3h)" height="60.9551" id="_1" style="stroke: #A80036; stroke-width: 1.5;" width="159" x="199.5" y="263"/><ellipse cx="214.5" cy="279" fill="#DA70D6" rx="11" ry="11" style="stroke: #A80036; stroke-width: 1.0;"/><path d="M213.5859,275.3149 L213.5859,283.292 L214.25,283.292 Q215.6943,283.292 216.3086,282.3831 Q216.9229,281.4741 216.9229,279.291 Q216.9229,277.1245 216.3086,276.2197 Q215.6943,275.3149 214.25,275.3149 Z M211.1372,273.1069 L213.7603,273.1069 Q216.7983,273.1069 218.1348,274.5554 Q219.4712,276.0039 219.4712,279.291 Q219.4712,282.5864 218.1348,284.0432 Q216.7983,285.5 213.7603,285.5 L211.1372,285.5 Z "/><text fill="#000000" font-family="sans-serif" font-size="12" lengthAdjust="spacingAndGlyphs" textLength="127" x="228.5" y="283.5352">MegaDatabase.Money</text><line style="stroke: #A80036; stroke-width: 1.5;" x1="200.5" x2="357.5" y1="295" y2="295"/><ellipse cx="210.5" cy="306" fill="none" rx="3" ry="3" style="stroke: #038048; stroke-width: 1.0;"/><text fill="#000000" font-family="sans-serif" font-size="11" lengthAdjust="spacingAndGlyphs" textLength="64" x="219.5" y="309.6348">amount : int</text><line style="stroke: #A80036; stroke-width: 1.5;" x1="200.5" x2="357.5" y1="315.9551" y2="315.9551"/><!--MD5=[95d1cea1cd7f69d371fe62aa72675e9c]
class _2--><rect fill="#FEFECE" filter="url(#f1wswptso0mk3h)" height="60.9551" id="_2" style="stroke: #A80036; stroke-width: 1.5;" width="192" x="86" y="8"/><ellipse cx="134.25" cy="24" fill="#DA70D6" rx="11" ry="11" style="stroke: #A80036; stroke-width: 1.0;"/><path d="M133.3359,20.3149 L133.3359,28.292 L134,28.292 Q135.4443,28.292 136.0586,27.3831 Q136.6729,26.4741 136.6729,24.291 Q136.6729,22.1245 136.0586,21.2197 Q135.4443,20.3149 134,20.3149 Z M130.8872,18.1069 L133.5103,18.1069 Q136.5483,18.1069 137.8848,19.5554 Q139.2212,21.0039 139.2212,24.291 Q139.2212,27.5864 137.8848,29.0432 Q136.5483,30.5 133.5103,30.5 L130.8872,30.5 Z "/><text fill="#000000" font-family="sans-serif" font-size="12" lengthAdjust="spacingAndGlyphs" textLength="87" x="154.75" y="28.5352">Server.Request</text><line style="stroke: #A80036; stroke-width: 1.5;" x1="87" x2="277" y1="40" y2="40"/><ellipse cx="97" cy="51" fill="none" rx="3" ry="3" style="stroke: #038048; stroke-width: 1.0;"/><text fill="#000000" font-family="sans-serif" font-size="11" lengthAdjust="spacingAndGlyphs" textLength="37" x="106" y="54.6348">query :</text><text fill="#000000" font-family="sans-serif" font-size="11" font-weight="bold" lengthAdjust="spacingAndGlyphs" textLength="126" x="146" y="54.6348">Sequence &lt;Response&gt;</text><line style="stroke: #A80036; stroke-width: 1.5;" x1="87" x2="277" y1="60.9551" y2="60.9551"/><!--MD5=[4df2e88eba431a2a56d213b7bca710d9]
class _3--><rect fill="#FEFECE" filter="url(#f1wswptso0mk3h)" height="73.9102" id="_3" style="stroke: #A80036; stroke-width: 1.5;" width="193" x="85.5" y="129"/><ellipse cx="129.75" cy="145" fill="#DA70D6" rx="11" ry="11" style="stroke: #A80036; stroke-width: 1.0;"/><path d="M128.8359,141.3149 L128.8359,149.292 L129.5,149.292 Q130.9443,149.292 131.5586,148.3831 Q132.1729,147.4741 132.1729,145.291 Q132.1729,143.1245 131.5586,142.2197 Q130.9443,141.3149 129.5,141.3149 Z M126.3872,139.1069 L129.0103,139.1069 Q132.0483,139.1069 133.3848,140.5554 Q134.7212,142.0039 134.7212,145.291 Q134.7212,148.5864 133.3848,150.0432 Q132.0483,151.5 129.0103,151.5 L126.3872,151.5 Z "/><text fill="#000000" font-family="sans-serif" font-size="12" lengthAdjust="spacingAndGlyphs" textLength="96" x="150.25" y="149.5352">Server.Response</text><line style="stroke: #A80036; stroke-width: 1.5;" x1="86.5" x2="277.5" y1="161" y2="161"/><ellipse cx="96.5" cy="172" fill="none" rx="3" ry="3" style="stroke: #038048; stroke-width: 1.0;"/><text fill="#000000" font-family="sans-serif" font-size="11" lengthAdjust="spacingAndGlyphs" textLength="47" x="105.5" y="175.6348">balance :</text><text fill="#000000" font-family="sans-serif" font-size="11" font-weight="bold" lengthAdjust="spacingAndGlyphs" textLength="117" x="155.5" y="175.6348">MegaDatabase.Empty</text><ellipse cx="96.5" cy="184.9551" fill="none" rx="3" ry="3" style="stroke: #038048; stroke-width: 1.0;"/><text fill="#000000" font-family="sans-serif" font-size="11" lengthAdjust="spacingAndGlyphs" textLength="37" x="105.5" y="188.5898">query :</text><text fill="#000000" font-family="sans-serif" font-size="11" font-weight="bold" lengthAdjust="spacingAndGlyphs" textLength="118" x="145.5" y="188.5898">MegaDatabase.Money</text><line style="stroke: #A80036; stroke-width: 1.5;" x1="86.5" x2="277.5" y1="194.9102" y2="194.9102"/><!--MD5=[d55d8d636913339d8dba5a305028d51c]
reverse link _2 to _3--><path d="M182,82.48 C182,97.55 182,114.3 182,128.76 " fill="none" id="_2&lt;-_3" style="stroke: #A80036; stroke-width: 1.0;"/><polygon fill="#A80036" points="182,69.24,178,75.24,182,81.24,186,75.24,182,69.24" style="stroke: #A80036; stroke-width: 1.0;"/><text fill="#000000" font-family="sans-serif" font-size="13" lengthAdjust="spacingAndGlyphs" textLength="22" x="158.0406" y="118.3947">0..*</text><!--MD5=[7ecbe2165298d12861085e98d6b29611]
reverse link _3 to _0--><path d="M145.99,213.59 C131.3,232.6 114.97,253.73 102.91,269.33 " fill="none" id="_3&lt;-_0" style="stroke: #A80036; stroke-width: 1.0;"/><polygon fill="#A80036" points="153.94,203.3,147.1049,205.5981,146.5974,212.7914,153.4325,210.4932,153.94,203.3" style="stroke: #A80036; stroke-width: 1.0;"/><text fill="#000000" font-family="sans-serif" font-size="13" lengthAdjust="spacingAndGlyphs" textLength="24" x="75.9119" y="258.8227">1..1</text><!--MD5=[78d397c859dd83567ec038622751e188]
reverse link _3 to _1--><path d="M218.15,213.77 C230.79,230.12 244.63,248.03 255.91,262.62 " fill="none" id="_3&lt;-_1" style="stroke: #A80036; stroke-width: 1.0;"/><polygon fill="#A80036" points="210.06,203.3,210.5675,210.4932,217.4026,212.7914,216.8951,205.5981,210.06,203.3" style="stroke: #A80036; stroke-width: 1.0;"/><text fill="#000000" font-family="sans-serif" font-size="13" lengthAdjust="spacingAndGlyphs" textLength="24" x="220.2602" y="252.3091">1..1</text><!--MD5=[0ac1548fa21c28d5697963c8597144dd]
@startuml
''''''''''''''''''''''''''''''''''''''''''
''                                      ''
''  AUTOGENERATED CODE - - DO NOT EDIT!  ''
''                                      ''
''''''''''''''''''''''''''''''''''''''''''

class "MegaDatabase.Empty" as _0<< (D,orchid) >> {
}
class "MegaDatabase.Money" as _1 << (D,orchid) >> {
+ amount : int
}
class "Server.Request" as _2 << (D,orchid) >> {
+ query : **Sequence <Response>**
}
class "Server.Response" as _3 << (D,orchid) >> {
+ balance : **MegaDatabase.Empty**
+ query : **MegaDatabase.Money**
}
_2 *- - "0..*" _3
_3 *- - "1..1 " _0
_3 *- - "1..1 " _1
@enduml

@startuml

class "MegaDatabase.Empty" as _0<< (D,orchid) >> {
}
class "MegaDatabase.Money" as _1 << (D,orchid) >> {
+ amount : int
}
class "Server.Request" as _2 << (D,orchid) >> {
+ query : **Sequence <Response>**
}
class "Server.Response" as _3 << (D,orchid) >> {
+ balance : **MegaDatabase.Empty**
+ query : **MegaDatabase.Money**
}
_2 *- - "0..*" _3
_3 *- - "1..1 " _0
_3 *- - "1..1 " _1
@enduml

PlantUML version 1.2020.10(Sun May 17 19:35:57 AEST 2020)
(GPL source distribution)
Java Runtime: Java(TM) SE Runtime Environment
JVM: Java HotSpot(TM) 64-Bit Server VM
Java Version: 13.0.1+9
Operating System: Mac OS X
Default Encoding: UTF-8
Language: en
Country: AU
--></g></svg>