<?xml version="1.0" encoding="UTF-8" standalone="no"?><svg xmlns="http://www.w3.org/2000/svg" xmlns:xlink="http://www.w3.org/1999/xlink" contentScriptType="application/ecmascript" contentStyleType="text/css" height="195px" preserveAspectRatio="none" style="width:653px;height:195px;" version="1.1" viewBox="0 0 653 195" width="653px" zoomAndPan="magnify"><defs><filter height="300%" id="f1mc42v5ohlhh7" width="300%" x="-1" y="-1"><feGaussianBlur result="blurOut" stdDeviation="2.0"/><feColorMatrix in="blurOut" result="blurOut2" type="matrix" values="0 0 0 0 0 0 0 0 0 0 0 0 0 0 0 0 0 0 .4 0"/><feOffset dx="4.0" dy="4.0" in="blurOut2" result="blurOut3"/><feBlend in="SourceGraphic" in2="blurOut3" mode="normal"/></filter></defs><g><!--MD5=[f77682fd75c3e1fc6a82f566c0814d0f]
class _0--><rect fill="#FEFECE" filter="url(#f1mc42v5ohlhh7)" height="48" id="_0" style="stroke: #A80036; stroke-width: 1.5;" width="169" x="7" y="13.5"/><ellipse cx="22" cy="29.5" fill="#DA70D6" rx="11" ry="11" style="stroke: #A80036; stroke-width: 1.0;"/><path d="M21.5938,25.3125 L21.5938,33.2969 L22.25,33.2969 Q23.6875,33.2969 24.2969,32.3906 Q24.9219,31.4688 24.9219,29.2969 Q24.9219,27.125 24.2969,26.2188 Q23.6875,25.3125 22.25,25.3125 L21.5938,25.3125 Z M19.1406,23.1094 L21.7656,23.1094 Q24.7969,23.1094 26.125,24.5625 Q27.4688,26 27.4688,29.2969 Q27.4688,32.5938 26.125,34.0469 Q24.7969,35.5 21.7656,35.5 L19.1406,35.5 L19.1406,23.1094 Z "/><text fill="#000000" font-family="sans-serif" font-size="12" lengthAdjust="spacingAndGlyphs" textLength="137" x="36" y="33.6543">MegaDatabase.Empty</text><line style="stroke: #A80036; stroke-width: 1.5;" x1="8" x2="175" y1="45.5" y2="45.5"/><line style="stroke: #A80036; stroke-width: 1.5;" x1="8" x2="175" y1="53.5" y2="53.5"/><!--MD5=[37d6e5304215b5e345f427169db70937]
class _1--><rect fill="#FEFECE" filter="url(#f1mc42v5ohlhh7)" height="60.8047" id="_1" style="stroke: #A80036; stroke-width: 1.5;" width="171" x="211" y="7"/><ellipse cx="226" cy="23" fill="#DA70D6" rx="11" ry="11" style="stroke: #A80036; stroke-width: 1.0;"/><path d="M225.5938,18.8125 L225.5938,26.7969 L226.25,26.7969 Q227.6875,26.7969 228.2969,25.8906 Q228.9219,24.9688 228.9219,22.7969 Q228.9219,20.625 228.2969,19.7188 Q227.6875,18.8125 226.25,18.8125 L225.5938,18.8125 Z M223.1406,16.6094 L225.7656,16.6094 Q228.7969,16.6094 230.125,18.0625 Q231.4688,19.5 231.4688,22.7969 Q231.4688,26.0938 230.125,27.5469 Q228.7969,29 225.7656,29 L223.1406,29 L223.1406,16.6094 Z "/><text fill="#000000" font-family="sans-serif" font-size="12" lengthAdjust="spacingAndGlyphs" textLength="139" x="240" y="27.1543">MegaDatabase.Money</text><line style="stroke: #A80036; stroke-width: 1.5;" x1="212" x2="381" y1="39" y2="39"/><ellipse cx="222" cy="50" fill="none" rx="3" ry="3" style="stroke: #038048; stroke-width: 1.0;"/><text fill="#000000" font-family="sans-serif" font-size="11" lengthAdjust="spacingAndGlyphs" textLength="69" x="231" y="53.2104">amount : int</text><line style="stroke: #A80036; stroke-width: 1.5;" x1="212" x2="381" y1="59.8047" y2="59.8047"/><!--MD5=[95d1cea1cd7f69d371fe62aa72675e9c]
class _2--><rect fill="#FEFECE" filter="url(#f1mc42v5ohlhh7)" height="60.8047" id="_2" style="stroke: #A80036; stroke-width: 1.5;" width="217" x="417" y="7"/><ellipse cx="473.25" cy="23" fill="#DA70D6" rx="11" ry="11" style="stroke: #A80036; stroke-width: 1.0;"/><path d="M472.8438,18.8125 L472.8438,26.7969 L473.5,26.7969 Q474.9375,26.7969 475.5469,25.8906 Q476.1719,24.9688 476.1719,22.7969 Q476.1719,20.625 475.5469,19.7188 Q474.9375,18.8125 473.5,18.8125 L472.8438,18.8125 Z M470.3906,16.6094 L473.0156,16.6094 Q476.0469,16.6094 477.375,18.0625 Q478.7188,19.5 478.7188,22.7969 Q478.7188,26.0938 477.375,27.5469 Q476.0469,29 473.0156,29 L470.3906,29 L470.3906,16.6094 Z "/><text fill="#000000" font-family="sans-serif" font-size="12" lengthAdjust="spacingAndGlyphs" textLength="96" x="493.75" y="27.1543">Server.Request</text><line style="stroke: #A80036; stroke-width: 1.5;" x1="418" x2="633" y1="39" y2="39"/><ellipse cx="428" cy="50" fill="none" rx="3" ry="3" style="stroke: #038048; stroke-width: 1.0;"/><text fill="#000000" font-family="sans-serif" font-size="11" lengthAdjust="spacingAndGlyphs" textLength="40" x="437" y="53.2104">query :</text><text fill="#000000" font-family="sans-serif" font-size="11" font-weight="bold" lengthAdjust="spacingAndGlyphs" textLength="147" x="481" y="53.2104">Sequence &lt;Response&gt;</text><line style="stroke: #A80036; stroke-width: 1.5;" x1="418" x2="633" y1="59.8047" y2="59.8047"/><!--MD5=[4df2e88eba431a2a56d213b7bca710d9]
class _3--><rect fill="#FEFECE" filter="url(#f1mc42v5ohlhh7)" height="48" id="_3" style="stroke: #A80036; stroke-width: 1.5;" width="46" x="502.5" y="128"/><ellipse cx="517.5" cy="144" fill="#ADD1B2" rx="11" ry="11" style="stroke: #A80036; stroke-width: 1.0;"/><path d="M520.4688,149.6406 Q519.8906,149.9375 519.25,150.0781 Q518.6094,150.2344 517.9063,150.2344 Q515.4063,150.2344 514.0781,148.5938 Q512.7656,146.9375 512.7656,143.8125 Q512.7656,140.6875 514.0781,139.0313 Q515.4063,137.375 517.9063,137.375 Q518.6094,137.375 519.25,137.5313 Q519.9063,137.6875 520.4688,137.9844 L520.4688,140.7031 Q519.8438,140.125 519.25,139.8594 Q518.6563,139.5781 518.0313,139.5781 Q516.6875,139.5781 516,140.6563 Q515.3125,141.7188 515.3125,143.8125 Q515.3125,145.9063 516,146.9844 Q516.6875,148.0469 518.0313,148.0469 Q518.6563,148.0469 519.25,147.7813 Q519.8438,147.5 520.4688,146.9219 L520.4688,149.6406 Z "/><text fill="#000000" font-family="sans-serif" font-size="12" lengthAdjust="spacingAndGlyphs" textLength="14" x="531.5" y="148.1543">_3</text><line style="stroke: #A80036; stroke-width: 1.5;" x1="503.5" x2="547.5" y1="160" y2="160"/><line style="stroke: #A80036; stroke-width: 1.5;" x1="503.5" x2="547.5" y1="168" y2="168"/><!--MD5=[d55d8d636913339d8dba5a305028d51c]
reverse link _2 to _3--><path d="M525.5,81.4994 C525.5,97.2099 525.5,114.3289 525.5,127.7634 " fill="none" id="_2&lt;-_3" style="stroke: #A80036; stroke-width: 1.0;"/><polygon fill="#A80036" points="525.5,68.1839,521.5,74.1839,525.5,80.1839,529.5,74.1839,525.5,68.1839" style="stroke: #A80036; stroke-width: 1.0;"/><text fill="#000000" font-family="sans-serif" font-size="13" lengthAdjust="spacingAndGlyphs" textLength="23" x="499.6969" y="117.1107">0..*</text><!--MD5=[51b5a751bef6e49224ec7a10edb6e299]
@startuml
''''''''''''''''''''''''''''''''''''''''''
''                                      ''
''  AUTOGENERATED CODE - - DO NOT EDIT!  ''
''                                      ''
''''''''''''''''''''''''''''''''''''''''''

class "MegaDatabase.Empty" as _0<< (D,orchid) >> {
}
class "MegaDatabase.Money" as _1 << (D,orchid) >> {
+ amount : int
}
class "Server.Request" as _2 << (D,orchid) >> {
+ query : **Sequence <Response>**
}
_2 *- - "0..*" _3
@enduml

@startuml

class "MegaDatabase.Empty" as _0<< (D,orchid) >> {
}
class "MegaDatabase.Money" as _1 << (D,orchid) >> {
+ amount : int
}
class "Server.Request" as _2 << (D,orchid) >> {
+ query : **Sequence <Response>**
}
_2 *- - "0..*" _3
@enduml

PlantUML version 1.2020.14(Sat Jun 20 14:14:34 UTC 2020)
(GPL source distribution)
Java Runtime: OpenJDK Runtime Environment
JVM: OpenJDK 64-Bit Server VM
Default Encoding: UTF-8
Language: en
Country: null
--></g></svg>