<?xml version="1.0" encoding="UTF-8" standalone="no"?><svg xmlns="http://www.w3.org/2000/svg" xmlns:xlink="http://www.w3.org/1999/xlink" contentScriptType="application/ecmascript" contentStyleType="text/css" height="211px" preserveAspectRatio="none" style="width:379px;height:211px;" version="1.1" viewBox="0 0 379 211" width="379px" zoomAndPan="magnify"><defs><filter height="300%" id="f1r5nacn4o6qgp" width="300%" x="-1" y="-1"><feGaussianBlur result="blurOut" stdDeviation="2.0"/><feColorMatrix in="blurOut" result="blurOut2" type="matrix" values="0 0 0 0 0 0 0 0 0 0 0 0 0 0 0 0 0 0 .4 0"/><feOffset dx="4.0" dy="4.0" in="blurOut2" result="blurOut3"/><feBlend in="SourceGraphic" in2="blurOut3" mode="normal"/></filter></defs><g><!--MD5=[f77682fd75c3e1fc6a82f566c0814d0f]
class _0--><rect fill="#FEFECE" filter="url(#f1r5nacn4o6qgp)" height="48" id="_0" style="stroke: #A80036; stroke-width: 1.5;" width="162" x="6" y="146.5"/><ellipse cx="21" cy="162.5" fill="#DA70D6" rx="11" ry="11" style="stroke: #A80036; stroke-width: 1.0;"/><path d="M18.5156,165.7969 C17.8594,165.7969 17.4688,166.1094 17.4688,166.6563 C17.4688,166.9063 17.6094,167.1719 17.8281,167.3281 C17.9844,167.4531 18.2031,167.5 18.6094,167.5 L22.0781,167.5 C23.5625,167.5 24.5781,167.1094 25.4063,166.2188 C26.1875,165.4063 26.5938,164.3594 26.5938,163.1094 L26.5938,162.3125 C26.5938,159.6406 24.7031,157.5938 22.2188,157.5938 L18.6094,157.5938 C18.1563,157.5938 18.0313,157.6094 17.875,157.7031 C17.625,157.8594 17.4688,158.1563 17.4688,158.4375 C17.4688,158.9844 17.8438,159.2813 18.5156,159.2813 L18.5156,165.7969 Z M20.2031,165.7969 L20.2031,159.2813 L22.0781,159.2813 C22.9844,159.2813 23.625,159.5625 24.1406,160.1563 C24.625,160.7344 24.9063,161.4844 24.9063,162.2813 L24.9063,163.0625 C24.9063,163.9375 24.6719,164.5313 24.2031,165.0469 C23.6719,165.5938 23.1094,165.7969 22.0938,165.7969 L20.2031,165.7969 Z "/><text fill="#000000" font-family="sans-serif" font-size="12" lengthAdjust="spacingAndGlyphs" textLength="130" x="35" y="166.6543">MegaDatabase.Empty</text><line style="stroke: #A80036; stroke-width: 1.5;" x1="7" x2="167" y1="178.5" y2="178.5"/><line style="stroke: #A80036; stroke-width: 1.5;" x1="7" x2="167" y1="186.5" y2="186.5"/><!--MD5=[37d6e5304215b5e345f427169db70937]
class _1--><rect fill="#FEFECE" filter="url(#f1r5nacn4o6qgp)" height="60.8047" id="_1" style="stroke: #A80036; stroke-width: 1.5;" width="165" x="203.5" y="140"/><ellipse cx="218.5" cy="156" fill="#DA70D6" rx="11" ry="11" style="stroke: #A80036; stroke-width: 1.0;"/><path d="M216.0156,159.2969 C215.3594,159.2969 214.9688,159.6094 214.9688,160.1563 C214.9688,160.4063 215.1094,160.6719 215.3281,160.8281 C215.4844,160.9531 215.7031,161 216.1094,161 L219.5781,161 C221.0625,161 222.0781,160.6094 222.9063,159.7188 C223.6875,158.9063 224.0938,157.8594 224.0938,156.6094 L224.0938,155.8125 C224.0938,153.1406 222.2031,151.0938 219.7188,151.0938 L216.1094,151.0938 C215.6563,151.0938 215.5313,151.1094 215.375,151.2031 C215.125,151.3594 214.9688,151.6563 214.9688,151.9375 C214.9688,152.4844 215.3438,152.7813 216.0156,152.7813 L216.0156,159.2969 Z M217.7031,159.2969 L217.7031,152.7813 L219.5781,152.7813 C220.4844,152.7813 221.125,153.0625 221.6406,153.6563 C222.125,154.2344 222.4063,154.9844 222.4063,155.7813 L222.4063,156.5625 C222.4063,157.4375 222.1719,158.0313 221.7031,158.5469 C221.1719,159.0938 220.6094,159.2969 219.5938,159.2969 L217.7031,159.2969 Z "/><text fill="#000000" font-family="sans-serif" font-size="12" lengthAdjust="spacingAndGlyphs" textLength="133" x="232.5" y="160.1543">MegaDatabase.Money</text><line style="stroke: #A80036; stroke-width: 1.5;" x1="204.5" x2="367.5" y1="172" y2="172"/><ellipse cx="214.5" cy="183" fill="none" rx="3" ry="3" style="stroke: #038048; stroke-width: 1.0;"/><text fill="#000000" font-family="sans-serif" font-size="11" lengthAdjust="spacingAndGlyphs" textLength="68" x="223.5" y="186.2104">amount : int</text><line style="stroke: #A80036; stroke-width: 1.5;" x1="204.5" x2="367.5" y1="192.8047" y2="192.8047"/><!--MD5=[95d1cea1cd7f69d371fe62aa72675e9c]
class _2--><rect fill="#FEFECE" filter="url(#f1r5nacn4o6qgp)" height="73.6094" id="_2" style="stroke: #A80036; stroke-width: 1.5;" width="225" x="73.5" y="6"/><ellipse cx="129.75" cy="22" fill="#DA70D6" rx="11" ry="11" style="stroke: #A80036; stroke-width: 1.0;"/><path d="M127.2656,25.2969 C126.6094,25.2969 126.2188,25.6094 126.2188,26.1563 C126.2188,26.4063 126.3594,26.6719 126.5781,26.8281 C126.7344,26.9531 126.9531,27 127.3594,27 L130.8281,27 C132.3125,27 133.3281,26.6094 134.1563,25.7188 C134.9375,24.9063 135.3438,23.8594 135.3438,22.6094 L135.3438,21.8125 C135.3438,19.1406 133.4531,17.0938 130.9688,17.0938 L127.3594,17.0938 C126.9063,17.0938 126.7813,17.1094 126.625,17.2031 C126.375,17.3594 126.2188,17.6563 126.2188,17.9375 C126.2188,18.4844 126.5938,18.7813 127.2656,18.7813 L127.2656,25.2969 Z M128.9531,25.2969 L128.9531,18.7813 L130.8281,18.7813 C131.7344,18.7813 132.375,19.0625 132.8906,19.6563 C133.375,20.2344 133.6563,20.9844 133.6563,21.7813 L133.6563,22.5625 C133.6563,23.4375 133.4219,24.0313 132.9531,24.5469 C132.4219,25.0938 131.8594,25.2969 130.8438,25.2969 L128.9531,25.2969 Z "/><text fill="#000000" font-family="sans-serif" font-size="12" lengthAdjust="spacingAndGlyphs" textLength="104" x="150.25" y="26.1543">Server.Response</text><line style="stroke: #A80036; stroke-width: 1.5;" x1="74.5" x2="297.5" y1="38" y2="38"/><ellipse cx="84.5" cy="49" fill="none" rx="3" ry="3" style="stroke: #038048; stroke-width: 1.0;"/><text fill="#000000" font-family="sans-serif" font-size="11" lengthAdjust="spacingAndGlyphs" textLength="52" x="93.5" y="52.2104">balance :</text><text fill="#000000" font-family="sans-serif" font-size="11" font-weight="bold" lengthAdjust="spacingAndGlyphs" textLength="143" x="149.5" y="52.2104">MegaDatabase.Empty</text><ellipse cx="84.5" cy="61.8047" fill="none" rx="3" ry="3" style="stroke: #038048; stroke-width: 1.0;"/><text fill="#000000" font-family="sans-serif" font-size="11" lengthAdjust="spacingAndGlyphs" textLength="40" x="93.5" y="65.0151">query :</text><text fill="#000000" font-family="sans-serif" font-size="11" font-weight="bold" lengthAdjust="spacingAndGlyphs" textLength="145" x="137.5" y="65.0151">MegaDatabase.Money</text><line style="stroke: #A80036; stroke-width: 1.5;" x1="74.5" x2="297.5" y1="71.6094" y2="71.6094"/><!--MD5=[59b725bd629d11771785352f69ebf978]
reverse link _2 to _0--><path d="M149.246,90.592 C134.254,109.5977 117.587,130.7258 105.2753,146.3328 " fill="none" id="_2&lt;-_0" style="stroke: #A80036; stroke-width: 1.0;"/><polygon fill="#A80036" points="157.365,80.3,150.5085,82.5336,149.9332,89.7217,156.7896,87.4881,157.365,80.3" style="stroke: #A80036; stroke-width: 1.0;"/><text fill="#000000" font-family="sans-serif" font-size="13" lengthAdjust="spacingAndGlyphs" textLength="24" x="78.3708" y="135.302">1..1</text><!--MD5=[03837af55dfe97398128afec89a6c29c]
reverse link _2 to _1--><path d="M223.268,90.771 C236.298,107.1239 250.564,125.0274 262.194,139.624 " fill="none" id="_2&lt;-_1" style="stroke: #A80036; stroke-width: 1.0;"/><polygon fill="#A80036" points="214.924,80.3,215.5348,87.4852,222.4022,89.6849,221.7914,82.4998,214.924,80.3" style="stroke: #A80036; stroke-width: 1.0;"/><text fill="#000000" font-family="sans-serif" font-size="13" lengthAdjust="spacingAndGlyphs" textLength="24" x="226.3965" y="128.8097">1..1</text><!--MD5=[a690148f6ab3a7db3262adc5e5e2a7b7]
@startuml
''''''''''''''''''''''''''''''''''''''''''
''                                      ''
''  AUTOGENERATED CODE - - DO NOT EDIT!  ''
''                                      ''
''''''''''''''''''''''''''''''''''''''''''

class "MegaDatabase.Empty" as _0<< (D,orchid) >> {
}
class "MegaDatabase.Money" as _1 << (D,orchid) >> {
+ amount : int
}
class "Server.Response" as _2 << (D,orchid) >> {
+ balance : **MegaDatabase.Empty**
+ query : **MegaDatabase.Money**
}
_2 *- - "1..1 " _0
_2 *- - "1..1 " _1
@enduml

@startuml

class "MegaDatabase.Empty" as _0<< (D,orchid) >> {
}
class "MegaDatabase.Money" as _1 << (D,orchid) >> {
+ amount : int
}
class "Server.Response" as _2 << (D,orchid) >> {
+ balance : **MegaDatabase.Empty**
+ query : **MegaDatabase.Money**
}
_2 *- - "1..1 " _0
_2 *- - "1..1 " _1
@enduml

PlantUML version 1.2020.12(Sat Jun 06 10:54:15 UTC 2020)
(GPL source distribution)
Java Runtime: Java(TM) SE Runtime Environment
JVM: Java HotSpot(TM) 64-Bit Server VM
Default Encoding: UTF-8
Language: en
Country: US
--></g></svg>