<?xml version="1.0" encoding="UTF-8" standalone="no"?><svg xmlns="http://www.w3.org/2000/svg" xmlns:xlink="http://www.w3.org/1999/xlink" contentScriptType="application/ecmascript" contentStyleType="text/css" height="131px" preserveAspectRatio="none" style="width:158px;height:131px;" version="1.1" viewBox="0 0 158 131" width="158px" zoomAndPan="magnify"><defs><filter height="300%" id="f493jkr6nuamc" width="300%" x="-1" y="-1"><feGaussianBlur result="blurOut" stdDeviation="2.0"/><feColorMatrix in="blurOut" result="blurOut2" type="matrix" values="0 0 0 0 0 0 0 0 0 0 0 0 0 0 0 0 0 0 .4 0"/><feOffset dx="4.0" dy="4.0" in="blurOut2" result="blurOut3"/><feBlend in="SourceGraphic" in2="blurOut3" mode="normal"/></filter></defs><g><!--MD5=[f77682fd75c3e1fc6a82f566c0814d0f]
class _0--><rect fill="#FEFECE" filter="url(#f493jkr6nuamc)" height="105.1563" id="_0" style="stroke: #A80036; stroke-width: 1.5;" width="132" x="7" y="7"/><ellipse cx="35.5" cy="25.9688" fill="#DA70D6" rx="11" ry="11" style="stroke: #A80036; stroke-width: 1.0;"/><path d="M35.0938,21.7813 L35.0938,29.7656 L35.75,29.7656 Q37.1875,29.7656 37.7969,28.8594 Q38.4219,27.9375 38.4219,25.7656 Q38.4219,23.5938 37.7969,22.6875 Q37.1875,21.7813 35.75,21.7813 L35.0938,21.7813 Z M32.6406,19.5781 L35.2656,19.5781 Q38.2969,19.5781 39.625,21.0313 Q40.9688,22.4688 40.9688,25.7656 Q40.9688,29.0625 39.625,30.5156 Q38.2969,31.9688 35.2656,31.9688 L32.6406,31.9688 L32.6406,19.5781 Z "/><text fill="#000000" font-family="sans-serif" font-size="12" font-style="italic" lengthAdjust="spacingAndGlyphs" textLength="74" x="50.5" y="23.1387">«Customer»</text><text fill="#000000" font-family="sans-serif" font-size="12" lengthAdjust="spacingAndGlyphs" textLength="60" x="57.5" y="37.1074">Customer</text><line style="stroke: #A80036; stroke-width: 1.5;" x1="8" x2="138" y1="44.9375" y2="44.9375"/><ellipse cx="18" cy="55.9375" fill="none" rx="3" ry="3" style="stroke: #038048; stroke-width: 1.0;"/><text fill="#000000" font-family="sans-serif" font-size="11" lengthAdjust="spacingAndGlyphs" textLength="76" x="27" y="59.1479">email : string</text><ellipse cx="18" cy="68.7422" fill="none" rx="3" ry="3" style="stroke: #038048; stroke-width: 1.0;"/><text fill="#000000" font-family="sans-serif" font-size="11" lengthAdjust="spacingAndGlyphs" textLength="106" x="27" y="71.9526">first_name : string</text><ellipse cx="18" cy="81.5469" fill="none" rx="3" ry="3" style="stroke: #038048; stroke-width: 1.0;"/><text fill="#000000" font-family="sans-serif" font-size="11" lengthAdjust="spacingAndGlyphs" textLength="104" x="27" y="84.7573">last_name : string</text><ellipse cx="18" cy="94.3516" fill="none" rx="3" ry="3" style="stroke: #038048; stroke-width: 1.0;"/><text fill="#000000" font-family="sans-serif" font-size="11" lengthAdjust="spacingAndGlyphs" textLength="80" x="27" y="97.562">phone : string</text><line style="stroke: #A80036; stroke-width: 1.5;" x1="8" x2="138" y1="104.1563" y2="104.1563"/><!--MD5=[01066371ac5ae018167c14574bdcc85d]
@startuml
''''''''''''''''''''''''''''''''''''''''''
''                                      ''
''  AUTOGENERATED CODE - - DO NOT EDIT!  ''
''                                      ''
''''''''''''''''''''''''''''''''''''''''''

class "Customer" as _0 << (D,orchid) Customer >> {
+ email : string
+ first_name : string
+ last_name : string
+ phone : string
}
@enduml

@startuml

class "Customer" as _0 << (D,orchid) Customer >> {
+ email : string
+ first_name : string
+ last_name : string
+ phone : string
}
@enduml

PlantUML version 1.2020.15(Sun Jun 28 11:39:45 UTC 2020)
(GPL source distribution)
Java Runtime: OpenJDK Runtime Environment
JVM: OpenJDK 64-Bit Server VM
Default Encoding: UTF-8
Language: en
Country: null
--></g></svg>