<?xml version="1.0" encoding="UTF-8" standalone="no"?><svg xmlns="http://www.w3.org/2000/svg" xmlns:xlink="http://www.w3.org/1999/xlink" contentScriptType="application/ecmascript" contentStyleType="text/css" height="131px" preserveAspectRatio="none" style="width:154px;height:131px;" version="1.1" viewBox="0 0 154 131" width="154px" zoomAndPan="magnify"><defs><filter height="300%" id="f493jkr6nuamc" width="300%" x="-1" y="-1"><feGaussianBlur result="blurOut" stdDeviation="2.0"/><feColorMatrix in="blurOut" result="blurOut2" type="matrix" values="0 0 0 0 0 0 0 0 0 0 0 0 0 0 0 0 0 0 .4 0"/><feOffset dx="4.0" dy="4.0" in="blurOut2" result="blurOut3"/><feBlend in="SourceGraphic" in2="blurOut3" mode="normal"/></filter></defs><g><!--MD5=[f77682fd75c3e1fc6a82f566c0814d0f]
class _0--><rect codeLine="7" fill="#FEFECE" filter="url(#f493jkr6nuamc)" height="105.1563" id="_0" style="stroke: #A80036; stroke-width: 1.5;" width="128" x="7" y="7"/><ellipse cx="34.6" cy="25.9688" fill="#DA70D6" rx="11" ry="11" style="stroke: #A80036; stroke-width: 1.0;"/><path d="M32.1156,29.2656 C31.4594,29.2656 31.0688,29.5781 31.0688,30.125 C31.0688,30.375 31.2094,30.6406 31.4281,30.7969 C31.5844,30.9219 31.8031,30.9688 32.2094,30.9688 L35.6781,30.9688 C37.1625,30.9688 38.1781,30.5781 39.0063,29.6875 C39.7875,28.875 40.1938,27.8281 40.1938,26.5781 L40.1938,25.7813 C40.1938,23.1094 38.3031,21.0625 35.8188,21.0625 L32.2094,21.0625 C31.7563,21.0625 31.6313,21.0781 31.475,21.1719 C31.225,21.3281 31.0688,21.625 31.0688,21.9063 C31.0688,22.4531 31.4438,22.75 32.1156,22.75 L32.1156,29.2656 Z M33.8031,29.2656 L33.8031,22.75 L35.6781,22.75 C36.5844,22.75 37.225,23.0313 37.7406,23.625 C38.225,24.2031 38.5063,24.9531 38.5063,25.75 L38.5063,26.5313 C38.5063,27.4063 38.2719,28 37.8031,28.5156 C37.2719,29.0625 36.7094,29.2656 35.6938,29.2656 L33.8031,29.2656 Z "/><text fill="#000000" font-family="sans-serif" font-size="12" font-style="italic" lengthAdjust="spacingAndGlyphs" textLength="72" x="49.4" y="23.1387">«Customer»</text><text fill="#000000" font-family="sans-serif" font-size="12" lengthAdjust="spacingAndGlyphs" textLength="58" x="56.4" y="37.1074">Customer</text><line style="stroke: #A80036; stroke-width: 1.5;" x1="8" x2="134" y1="44.9375" y2="44.9375"/><ellipse cx="18" cy="55.9375" fill="none" rx="3" ry="3" style="stroke: #038048; stroke-width: 1.0;"/><text fill="#000000" font-family="sans-serif" font-size="11" lengthAdjust="spacingAndGlyphs" textLength="74" x="27" y="59.1479">email : string</text><ellipse cx="18" cy="68.7422" fill="none" rx="3" ry="3" style="stroke: #038048; stroke-width: 1.0;"/><text fill="#000000" font-family="sans-serif" font-size="11" lengthAdjust="spacingAndGlyphs" textLength="102" x="27" y="71.9526">first_name : string</text><ellipse cx="18" cy="81.5469" fill="none" rx="3" ry="3" style="stroke: #038048; stroke-width: 1.0;"/><text fill="#000000" font-family="sans-serif" font-size="11" lengthAdjust="spacingAndGlyphs" textLength="101" x="27" y="84.7573">last_name : string</text><ellipse cx="18" cy="94.3516" fill="none" rx="3" ry="3" style="stroke: #038048; stroke-width: 1.0;"/><text fill="#000000" font-family="sans-serif" font-size="11" lengthAdjust="spacingAndGlyphs" textLength="78" x="27" y="97.562">phone : string</text><line style="stroke: #A80036; stroke-width: 1.5;" x1="8" x2="134" y1="104.1563" y2="104.1563"/><!--MD5=[3c5124963537639bcfe5d29515296735]
@startuml
''''''''''''''''''''''''''''''''''''''''''
''                                      ''
''  AUTOGENERATED CODE - - DO NOT EDIT!  ''
''                                      ''
''''''''''''''''''''''''''''''''''''''''''

class "Customer" as _0 << (D,orchid) Customer >> {
+ email : string
+ first_name : string
+ last_name : string
+ phone : string
}
@enduml

@startuml

class "Customer" as _0 << (D,orchid) Customer >> {
+ email : string
+ first_name : string
+ last_name : string
+ phone : string
}
@enduml

PlantUML version 1.2020.16beta7(Unknown compile time)
(GPL source distribution)
Java Runtime: Java(TM) SE Runtime Environment
JVM: Java HotSpot(TM) 64-Bit Server VM
Default Encoding: UTF-8
Language: en
Country: US
--></g></svg>