<?xml version="1.0" encoding="UTF-8" standalone="no"?><svg xmlns="http://www.w3.org/2000/svg" xmlns:xlink="http://www.w3.org/1999/xlink" contentScriptType="application/ecmascript" contentStyleType="text/css" height="353px" preserveAspectRatio="none" style="width:336px;height:353px;" version="1.1" viewBox="0 0 336 353" width="336px" zoomAndPan="magnify"><defs><filter height="300%" id="f1suqcf8hegdv6" width="300%" x="-1" y="-1"><feGaussianBlur result="blurOut" stdDeviation="2.0"/><feColorMatrix in="blurOut" result="blurOut2" type="matrix" values="0 0 0 0 0 0 0 0 0 0 0 0 0 0 0 0 0 0 .4 0"/><feOffset dx="4.0" dy="4.0" in="blurOut2" result="blurOut3"/><feBlend in="SourceGraphic" in2="blurOut3" mode="normal"/></filter></defs><g><text fill="#000000" font-family="sans-serif" font-size="18" lengthAdjust="spacingAndGlyphs" textLength="306" x="12" y="26.708">IdentityServer &lt;- CustomerProfile</text><rect fill="#FFFFFF" filter="url(#f1suqcf8hegdv6)" height="87.3984" style="stroke: #A80036; stroke-width: 1.0;" width="10" x="127" y="174.5156"/><rect fill="#FFFFFF" filter="url(#f1suqcf8hegdv6)" height="29.1328" style="stroke: #A80036; stroke-width: 1.0;" width="10" x="259" y="203.6484"/><line style="stroke: #A80036; stroke-width: 1.0; stroke-dasharray: 5.0,5.0;" x1="132" x2="132" y1="100.25" y2="279.9141"/><line style="stroke: #A80036; stroke-width: 1.0; stroke-dasharray: 5.0,5.0;" x1="264" x2="264" y1="100.25" y2="279.9141"/><text fill="#000000" font-family="sans-serif" font-size="14" lengthAdjust="spacingAndGlyphs" textLength="94" x="82" y="96.9482">IdentityServer</text><ellipse cx="132" cy="67.9531" fill="#FEFECE" filter="url(#f1suqcf8hegdv6)" rx="12" ry="12" style="stroke: #A80036; stroke-width: 2.0;"/><polygon fill="#A80036" points="128,55.9531,134,50.9531,132,55.9531,134,60.9531,128,55.9531" style="stroke: #A80036; stroke-width: 1.0;"/><text fill="#000000" font-family="sans-serif" font-size="14" lengthAdjust="spacingAndGlyphs" textLength="94" x="82" y="291.9092">IdentityServer</text><ellipse cx="132" cy="311.2109" fill="#FEFECE" filter="url(#f1suqcf8hegdv6)" rx="12" ry="12" style="stroke: #A80036; stroke-width: 2.0;"/><polygon fill="#A80036" points="128,299.2109,134,294.2109,132,299.2109,134,304.2109,128,299.2109" style="stroke: #A80036; stroke-width: 1.0;"/><text fill="#000000" font-family="sans-serif" font-size="14" lengthAdjust="spacingAndGlyphs" textLength="104" x="209" y="96.9482">MegaDatabase</text><path d="M246,47.9531 C246,37.9531 264,37.9531 264,37.9531 C264,37.9531 282,37.9531 282,47.9531 L282,73.9531 C282,83.9531 264,83.9531 264,83.9531 C264,83.9531 246,83.9531 246,73.9531 L246,47.9531 " fill="#FEFECE" filter="url(#f1suqcf8hegdv6)" style="stroke: #000000; stroke-width: 1.5;"/><path d="M246,47.9531 C246,57.9531 264,57.9531 264,57.9531 C264,57.9531 282,57.9531 282,47.9531 " fill="none" style="stroke: #000000; stroke-width: 1.5;"/><text fill="#000000" font-family="sans-serif" font-size="14" lengthAdjust="spacingAndGlyphs" textLength="104" x="209" y="291.9092">MegaDatabase</text><path d="M246,305.2109 C246,295.2109 264,295.2109 264,295.2109 C264,295.2109 282,295.2109 282,305.2109 L282,331.2109 C282,341.2109 264,341.2109 264,341.2109 C264,341.2109 246,341.2109 246,331.2109 L246,305.2109 " fill="#FEFECE" filter="url(#f1suqcf8hegdv6)" style="stroke: #000000; stroke-width: 1.5;"/><path d="M246,305.2109 C246,315.2109 264,315.2109 264,315.2109 C264,315.2109 282,315.2109 282,305.2109 " fill="none" style="stroke: #000000; stroke-width: 1.5;"/><rect fill="#FFFFFF" filter="url(#f1suqcf8hegdv6)" height="87.3984" style="stroke: #A80036; stroke-width: 1.0;" width="10" x="127" y="174.5156"/><rect fill="#FFFFFF" filter="url(#f1suqcf8hegdv6)" height="29.1328" style="stroke: #A80036; stroke-width: 1.0;" width="10" x="259" y="203.6484"/><rect fill="#EEEEEE" filter="url(#f1suqcf8hegdv6)" height="3" style="stroke: #EEEEEE; stroke-width: 1.0;" width="318" x="6" y="130.8164"/><line style="stroke: #000000; stroke-width: 1.0;" x1="6" x2="324" y1="130.8164" y2="130.8164"/><line style="stroke: #000000; stroke-width: 1.0;" x1="6" x2="324" y1="133.8164" y2="133.8164"/><rect fill="#EEEEEE" filter="url(#f1suqcf8hegdv6)" height="23.1328" style="stroke: #000000; stroke-width: 2.0;" width="267" x="31.5" y="120.25"/><text fill="#000000" font-family="sans-serif" font-size="13" font-weight="bold" lengthAdjust="spacingAndGlyphs" textLength="248" x="37.5" y="136.3169">IdentityServer &lt;- CustomerProfile</text><polygon fill="#A80036" points="115,170.5156,125,174.5156,115,178.5156,119,174.5156" style="stroke: #A80036; stroke-width: 1.0;"/><line style="stroke: #A80036; stroke-width: 1.0;" x1="6" x2="121" y1="174.5156" y2="174.5156"/><text fill="#000000" font-family="sans-serif" font-size="13" lengthAdjust="spacingAndGlyphs" textLength="102" x="13" y="169.4497">CustomerProfile</text><polygon fill="#A80036" points="247,199.6484,257,203.6484,247,207.6484,251,203.6484" style="stroke: #A80036; stroke-width: 1.0;"/><line style="stroke: #A80036; stroke-width: 1.0;" x1="137" x2="253" y1="203.6484" y2="203.6484"/><text fill="#000000" font-family="sans-serif" font-size="13" lengthAdjust="spacingAndGlyphs" textLength="103" x="144" y="198.5825">SelectCustomer</text><polygon fill="#A80036" points="148,228.7813,138,232.7813,148,236.7813,144,232.7813" style="stroke: #A80036; stroke-width: 1.0;"/><line style="stroke: #A80036; stroke-width: 1.0; stroke-dasharray: 2.0,2.0;" x1="142" x2="263" y1="232.7813" y2="232.7813"/><text fill="#000000" font-family="sans-serif" font-size="13" lengthAdjust="spacingAndGlyphs" textLength="15" x="154" y="227.7153">ok</text><polygon fill="#A80036" points="17,257.9141,7,261.9141,17,265.9141,13,261.9141" style="stroke: #A80036; stroke-width: 1.0;"/><line style="stroke: #A80036; stroke-width: 1.0; stroke-dasharray: 2.0,2.0;" x1="11" x2="131" y1="261.9141" y2="261.9141"/><text fill="#000000" font-family="sans-serif" font-size="13" lengthAdjust="spacingAndGlyphs" textLength="63" x="23" y="256.8481">Customer</text><!--MD5=[9544d263a83a49f22111f6e818408a8b]
@startuml
''''''''''''''''''''''''''''''''''''''''''
''                                      ''
''  AUTOGENERATED CODE - - DO NOT EDIT!  ''
''                                      ''
''''''''''''''''''''''''''''''''''''''''''


control "IdentityServer" as _0
database "MegaDatabase" as _1
skinparam maxMessageSize 250
title IdentityServer <- CustomerProfile
== IdentityServer <- CustomerProfile ==
[->_0 : CustomerProfile
activate _0
 _0->_1 : SelectCustomer
 activate _1
 _0<- -_1 : ok
 deactivate _1
[<- -_0 : Customer
deactivate _0
@enduml

@startuml


control "IdentityServer" as _0
database "MegaDatabase" as _1
skinparam maxMessageSize 250
title IdentityServer <- CustomerProfile
== IdentityServer <- CustomerProfile ==
[->_0 : CustomerProfile
activate _0
 _0->_1 : SelectCustomer
 activate _1
 _0<- -_1 : ok
 deactivate _1
[<- -_0 : Customer
deactivate _0
@enduml

PlantUML version 1.2020.15(Sun Jun 28 11:39:45 UTC 2020)
(GPL source distribution)
Java Runtime: OpenJDK Runtime Environment
JVM: OpenJDK 64-Bit Server VM
Default Encoding: UTF-8
Language: en
Country: null
--></g></svg>