<?xml version="1.0" encoding="UTF-8" standalone="no"?><svg xmlns="http://www.w3.org/2000/svg" xmlns:xlink="http://www.w3.org/1999/xlink" contentScriptType="application/ecmascript" contentStyleType="text/css" height="143px" preserveAspectRatio="none" style="width:172px;height:143px;" version="1.1" viewBox="0 0 172 143" width="172px" zoomAndPan="magnify"><defs><filter height="300%" id="ft544l9gx5v94" width="300%" x="-1" y="-1"><feGaussianBlur result="blurOut" stdDeviation="2.0"/><feColorMatrix in="blurOut" result="blurOut2" type="matrix" values="0 0 0 0 0 0 0 0 0 0 0 0 0 0 0 0 0 0 .4 0"/><feOffset dx="4.0" dy="4.0" in="blurOut2" result="blurOut3"/><feBlend in="SourceGraphic" in2="blurOut3" mode="normal"/></filter></defs><g><!--MD5=[f77682fd75c3e1fc6a82f566c0814d0f]
class _0--><rect codeLine="7" fill="#FEFECE" filter="url(#ft544l9gx5v94)" height="117.9609" id="_0" style="stroke: #A80036; stroke-width: 1.5;" width="146" x="7" y="7"/><ellipse cx="42.7" cy="25.9688" fill="#DA70D6" rx="11" ry="11" style="stroke: #A80036; stroke-width: 1.0;"/><path d="M40.2156,29.2656 C39.5594,29.2656 39.1688,29.5781 39.1688,30.125 C39.1688,30.375 39.3094,30.6406 39.5281,30.7969 C39.6844,30.9219 39.9031,30.9688 40.3094,30.9688 L43.7781,30.9688 C45.2625,30.9688 46.2781,30.5781 47.1063,29.6875 C47.8875,28.875 48.2938,27.8281 48.2938,26.5781 L48.2938,25.7813 C48.2938,23.1094 46.4031,21.0625 43.9188,21.0625 L40.3094,21.0625 C39.8563,21.0625 39.7313,21.0781 39.575,21.1719 C39.325,21.3281 39.1688,21.625 39.1688,21.9063 C39.1688,22.4531 39.5438,22.75 40.2156,22.75 L40.2156,29.2656 Z M41.9031,29.2656 L41.9031,22.75 L43.7781,22.75 C44.6844,22.75 45.325,23.0313 45.8406,23.625 C46.325,24.2031 46.6063,24.9531 46.6063,25.75 L46.6063,26.5313 C46.6063,27.4063 46.3719,28 45.9031,28.5156 C45.3719,29.0625 44.8094,29.2656 43.7938,29.2656 L41.9031,29.2656 Z "/><text fill="#000000" font-family="sans-serif" font-size="12" font-style="italic" lengthAdjust="spacingAndGlyphs" textLength="72" x="59.3" y="23.1387">«Customer»</text><text fill="#000000" font-family="sans-serif" font-size="12" lengthAdjust="spacingAndGlyphs" textLength="58" x="66.3" y="37.1074">Customer</text><line style="stroke: #A80036; stroke-width: 1.5;" x1="8" x2="152" y1="44.9375" y2="44.9375"/><ellipse cx="18" cy="55.9375" fill="none" rx="3" ry="3" style="stroke: #038048; stroke-width: 1.0;"/><text fill="#000000" font-family="sans-serif" font-size="11" lengthAdjust="spacingAndGlyphs" textLength="74" x="27" y="59.1479">email : string</text><ellipse cx="18" cy="68.7422" fill="none" rx="3" ry="3" style="stroke: #038048; stroke-width: 1.0;"/><text fill="#000000" font-family="sans-serif" font-size="11" lengthAdjust="spacingAndGlyphs" textLength="102" x="27" y="71.9526">first_name : string</text><ellipse cx="18" cy="81.5469" fill="none" rx="3" ry="3" style="stroke: #038048; stroke-width: 1.0;"/><text fill="#000000" font-family="sans-serif" font-size="11" lengthAdjust="spacingAndGlyphs" textLength="101" x="27" y="84.7573">last_name : string</text><ellipse cx="18" cy="94.3516" fill="none" rx="3" ry="3" style="stroke: #038048; stroke-width: 1.0;"/><text fill="#000000" font-family="sans-serif" font-size="11" lengthAdjust="spacingAndGlyphs" textLength="120" x="27" y="97.562">middle_name : string</text><ellipse cx="18" cy="107.1563" fill="none" rx="3" ry="3" style="stroke: #038048; stroke-width: 1.0;"/><text fill="#000000" font-family="sans-serif" font-size="11" lengthAdjust="spacingAndGlyphs" textLength="78" x="27" y="110.3667">phone : string</text><line style="stroke: #A80036; stroke-width: 1.5;" x1="8" x2="152" y1="116.9609" y2="116.9609"/><!--MD5=[0c69eb68423f49247377d3552ef21625]
@startuml
''''''''''''''''''''''''''''''''''''''''''
''                                      ''
''  AUTOGENERATED CODE - - DO NOT EDIT!  ''
''                                      ''
''''''''''''''''''''''''''''''''''''''''''

class "Customer" as _0 << (D,orchid) Customer >> {
+ email : string
+ first_name : string
+ last_name : string
+ middle_name : string
+ phone : string
}
@enduml

@startuml

class "Customer" as _0 << (D,orchid) Customer >> {
+ email : string
+ first_name : string
+ last_name : string
+ middle_name : string
+ phone : string
}
@enduml

PlantUML version 1.2020.16beta7(Unknown compile time)
(GPL source distribution)
Java Runtime: Java(TM) SE Runtime Environment
JVM: Java HotSpot(TM) 64-Bit Server VM
Default Encoding: UTF-8
Language: en
Country: US
--></g></svg>