<?xml version="1.0" encoding="UTF-8" standalone="no"?><svg xmlns="http://www.w3.org/2000/svg" xmlns:xlink="http://www.w3.org/1999/xlink" contentScriptType="application/ecmascript" contentStyleType="text/css" height="143px" preserveAspectRatio="none" style="width:206px;height:143px;" version="1.1" viewBox="0 0 206 143" width="206px" zoomAndPan="magnify"><defs><filter height="300%" id="fzjk26vlwkm3c" width="300%" x="-1" y="-1"><feGaussianBlur result="blurOut" stdDeviation="2.0"/><feColorMatrix in="blurOut" result="blurOut2" type="matrix" values="0 0 0 0 0 0 0 0 0 0 0 0 0 0 0 0 0 0 .4 0"/><feOffset dx="4.0" dy="4.0" in="blurOut2" result="blurOut3"/><feBlend in="SourceGraphic" in2="blurOut3" mode="normal"/></filter></defs><g><!--MD5=[f77682fd75c3e1fc6a82f566c0814d0f]
class _0--><rect fill="#FEFECE" filter="url(#fzjk26vlwkm3c)" height="117.9609" id="_0" style="stroke: #A80036; stroke-width: 1.5;" width="180" x="7" y="7"/><ellipse cx="22" cy="25.9688" fill="#DA70D6" rx="11" ry="11" style="stroke: #A80036; stroke-width: 1.0;"/><path d="M21.5938,21.7813 L21.5938,29.7656 L22.25,29.7656 Q23.6875,29.7656 24.2969,28.8594 Q24.9219,27.9375 24.9219,25.7656 Q24.9219,23.5938 24.2969,22.6875 Q23.6875,21.7813 22.25,21.7813 L21.5938,21.7813 Z M19.1406,19.5781 L21.7656,19.5781 Q24.7969,19.5781 26.125,21.0313 Q27.4688,22.4688 27.4688,25.7656 Q27.4688,29.0625 26.125,30.5156 Q24.7969,31.9688 21.7656,31.9688 L19.1406,31.9688 L19.1406,19.5781 Z "/><text fill="#000000" font-family="sans-serif" font-size="12" font-style="italic" lengthAdjust="spacingAndGlyphs" textLength="152" x="34" y="23.1387">«NewCustomerRequest»</text><text fill="#000000" font-family="sans-serif" font-size="12" lengthAdjust="spacingAndGlyphs" textLength="138" x="41" y="37.1074">NewCustomerRequest</text><line style="stroke: #A80036; stroke-width: 1.5;" x1="8" x2="186" y1="44.9375" y2="44.9375"/><ellipse cx="18" cy="55.9375" fill="none" rx="3" ry="3" style="stroke: #038048; stroke-width: 1.0;"/><text fill="#000000" font-family="sans-serif" font-size="11" lengthAdjust="spacingAndGlyphs" textLength="76" x="27" y="59.1479">email : string</text><ellipse cx="18" cy="68.7422" fill="none" rx="3" ry="3" style="stroke: #038048; stroke-width: 1.0;"/><text fill="#000000" font-family="sans-serif" font-size="11" lengthAdjust="spacingAndGlyphs" textLength="106" x="27" y="71.9526">first_name : string</text><ellipse cx="18" cy="81.5469" fill="none" rx="3" ry="3" style="stroke: #038048; stroke-width: 1.0;"/><text fill="#000000" font-family="sans-serif" font-size="11" lengthAdjust="spacingAndGlyphs" textLength="104" x="27" y="84.7573">last_name : string</text><ellipse cx="18" cy="94.3516" fill="none" rx="3" ry="3" style="stroke: #038048; stroke-width: 1.0;"/><text fill="#000000" font-family="sans-serif" font-size="11" lengthAdjust="spacingAndGlyphs" textLength="101" x="27" y="97.562">password : string</text><ellipse cx="18" cy="107.1563" fill="none" rx="3" ry="3" style="stroke: #038048; stroke-width: 1.0;"/><text fill="#000000" font-family="sans-serif" font-size="11" lengthAdjust="spacingAndGlyphs" textLength="80" x="27" y="110.3667">phone : string</text><line style="stroke: #A80036; stroke-width: 1.5;" x1="8" x2="186" y1="116.9609" y2="116.9609"/><!--MD5=[fc1e20df7bc196f91ffc5537592a1500]
@startuml
''''''''''''''''''''''''''''''''''''''''''
''                                      ''
''  AUTOGENERATED CODE - - DO NOT EDIT!  ''
''                                      ''
''''''''''''''''''''''''''''''''''''''''''

class "NewCustomerRequest" as _0 << (D,orchid) NewCustomerRequest >> {
+ email : string
+ first_name : string
+ last_name : string
+ password : string
+ phone : string
}
@enduml

@startuml

class "NewCustomerRequest" as _0 << (D,orchid) NewCustomerRequest >> {
+ email : string
+ first_name : string
+ last_name : string
+ password : string
+ phone : string
}
@enduml

PlantUML version 1.2020.15(Sun Jun 28 11:39:45 UTC 2020)
(GPL source distribution)
Java Runtime: OpenJDK Runtime Environment
JVM: OpenJDK 64-Bit Server VM
Default Encoding: UTF-8
Language: en
Country: null
--></g></svg>