<?xml version="1.0" encoding="UTF-8" standalone="no"?><svg xmlns="http://www.w3.org/2000/svg" xmlns:xlink="http://www.w3.org/1999/xlink" contentScriptType="application/ecmascript" contentStyleType="text/css" height="353px" preserveAspectRatio="none" style="width:320px;height:353px;" version="1.1" viewBox="0 0 320 353" width="320px" zoomAndPan="magnify"><defs><filter height="300%" id="f1eowz605sfrsm" width="300%" x="-1" y="-1"><feGaussianBlur result="blurOut" stdDeviation="2.0"/><feColorMatrix in="blurOut" result="blurOut2" type="matrix" values="0 0 0 0 0 0 0 0 0 0 0 0 0 0 0 0 0 0 .4 0"/><feOffset dx="4.0" dy="4.0" in="blurOut2" result="blurOut3"/><feBlend in="SourceGraphic" in2="blurOut3" mode="normal"/></filter></defs><g><text fill="#000000" font-family="sans-serif" font-size="18" lengthAdjust="spacingAndGlyphs" textLength="290" x="12" y="26.708">IdentityServer &lt;- NewCustomer</text><rect fill="#FFFFFF" filter="url(#f1eowz605sfrsm)" height="87.3984" style="stroke: #A80036; stroke-width: 1.0;" width="10" x="115" y="174.5156"/><rect fill="#FFFFFF" filter="url(#f1eowz605sfrsm)" height="29.1328" style="stroke: #A80036; stroke-width: 1.0;" width="10" x="243" y="203.6484"/><line style="stroke: #A80036; stroke-width: 1.0; stroke-dasharray: 5.0,5.0;" x1="120" x2="120" y1="100.25" y2="279.9141"/><line style="stroke: #A80036; stroke-width: 1.0; stroke-dasharray: 5.0,5.0;" x1="248" x2="248" y1="100.25" y2="279.9141"/><text fill="#000000" font-family="sans-serif" font-size="14" lengthAdjust="spacingAndGlyphs" textLength="94" x="70" y="96.9482">IdentityServer</text><ellipse cx="120" cy="67.9531" fill="#FEFECE" filter="url(#f1eowz605sfrsm)" rx="12" ry="12" style="stroke: #A80036; stroke-width: 2.0;"/><polygon fill="#A80036" points="116,55.9531,122,50.9531,120,55.9531,122,60.9531,116,55.9531" style="stroke: #A80036; stroke-width: 1.0;"/><text fill="#000000" font-family="sans-serif" font-size="14" lengthAdjust="spacingAndGlyphs" textLength="94" x="70" y="291.9092">IdentityServer</text><ellipse cx="120" cy="311.2109" fill="#FEFECE" filter="url(#f1eowz605sfrsm)" rx="12" ry="12" style="stroke: #A80036; stroke-width: 2.0;"/><polygon fill="#A80036" points="116,299.2109,122,294.2109,120,299.2109,122,304.2109,116,299.2109" style="stroke: #A80036; stroke-width: 1.0;"/><text fill="#000000" font-family="sans-serif" font-size="14" lengthAdjust="spacingAndGlyphs" textLength="104" x="193" y="96.9482">MegaDatabase</text><path d="M230,47.9531 C230,37.9531 248,37.9531 248,37.9531 C248,37.9531 266,37.9531 266,47.9531 L266,73.9531 C266,83.9531 248,83.9531 248,83.9531 C248,83.9531 230,83.9531 230,73.9531 L230,47.9531 " fill="#FEFECE" filter="url(#f1eowz605sfrsm)" style="stroke: #000000; stroke-width: 1.5;"/><path d="M230,47.9531 C230,57.9531 248,57.9531 248,57.9531 C248,57.9531 266,57.9531 266,47.9531 " fill="none" style="stroke: #000000; stroke-width: 1.5;"/><text fill="#000000" font-family="sans-serif" font-size="14" lengthAdjust="spacingAndGlyphs" textLength="104" x="193" y="291.9092">MegaDatabase</text><path d="M230,305.2109 C230,295.2109 248,295.2109 248,295.2109 C248,295.2109 266,295.2109 266,305.2109 L266,331.2109 C266,341.2109 248,341.2109 248,341.2109 C248,341.2109 230,341.2109 230,331.2109 L230,305.2109 " fill="#FEFECE" filter="url(#f1eowz605sfrsm)" style="stroke: #000000; stroke-width: 1.5;"/><path d="M230,305.2109 C230,315.2109 248,315.2109 248,315.2109 C248,315.2109 266,315.2109 266,305.2109 " fill="none" style="stroke: #000000; stroke-width: 1.5;"/><rect fill="#FFFFFF" filter="url(#f1eowz605sfrsm)" height="87.3984" style="stroke: #A80036; stroke-width: 1.0;" width="10" x="115" y="174.5156"/><rect fill="#FFFFFF" filter="url(#f1eowz605sfrsm)" height="29.1328" style="stroke: #A80036; stroke-width: 1.0;" width="10" x="243" y="203.6484"/><rect fill="#EEEEEE" filter="url(#f1eowz605sfrsm)" height="3" style="stroke: #EEEEEE; stroke-width: 1.0;" width="302" x="6" y="130.8164"/><line style="stroke: #000000; stroke-width: 1.0;" x1="6" x2="308" y1="130.8164" y2="130.8164"/><line style="stroke: #000000; stroke-width: 1.0;" x1="6" x2="308" y1="133.8164" y2="133.8164"/><rect fill="#EEEEEE" filter="url(#f1eowz605sfrsm)" height="23.1328" style="stroke: #000000; stroke-width: 2.0;" width="251" x="31.5" y="120.25"/><text fill="#000000" font-family="sans-serif" font-size="13" font-weight="bold" lengthAdjust="spacingAndGlyphs" textLength="232" x="37.5" y="136.3169">IdentityServer &lt;- NewCustomer</text><polygon fill="#A80036" points="103,170.5156,113,174.5156,103,178.5156,107,174.5156" style="stroke: #A80036; stroke-width: 1.0;"/><line style="stroke: #A80036; stroke-width: 1.0;" x1="6" x2="109" y1="174.5156" y2="174.5156"/><text fill="#000000" font-family="sans-serif" font-size="13" lengthAdjust="spacingAndGlyphs" textLength="90" x="13" y="169.4497">NewCustomer</text><polygon fill="#A80036" points="231,199.6484,241,203.6484,231,207.6484,235,203.6484" style="stroke: #A80036; stroke-width: 1.0;"/><line style="stroke: #A80036; stroke-width: 1.0;" x1="125" x2="237" y1="203.6484" y2="203.6484"/><text fill="#000000" font-family="sans-serif" font-size="13" lengthAdjust="spacingAndGlyphs" textLength="99" x="132" y="198.5825">InsertCustomer</text><polygon fill="#A80036" points="136,228.7813,126,232.7813,136,236.7813,132,232.7813" style="stroke: #A80036; stroke-width: 1.0;"/><line style="stroke: #A80036; stroke-width: 1.0; stroke-dasharray: 2.0,2.0;" x1="130" x2="247" y1="232.7813" y2="232.7813"/><text fill="#000000" font-family="sans-serif" font-size="13" lengthAdjust="spacingAndGlyphs" textLength="15" x="142" y="227.7153">ok</text><polygon fill="#A80036" points="17,257.9141,7,261.9141,17,265.9141,13,261.9141" style="stroke: #A80036; stroke-width: 1.0;"/><line style="stroke: #A80036; stroke-width: 1.0; stroke-dasharray: 2.0,2.0;" x1="11" x2="119" y1="261.9141" y2="261.9141"/><text fill="#000000" font-family="sans-serif" font-size="13" lengthAdjust="spacingAndGlyphs" textLength="63" x="23" y="256.8481">Customer</text><!--MD5=[46e1f4b34a8437c436e258785738022f]
@startuml
''''''''''''''''''''''''''''''''''''''''''
''                                      ''
''  AUTOGENERATED CODE - - DO NOT EDIT!  ''
''                                      ''
''''''''''''''''''''''''''''''''''''''''''


control "IdentityServer" as _0
database "MegaDatabase" as _1
skinparam maxMessageSize 250
title IdentityServer <- NewCustomer
== IdentityServer <- NewCustomer ==
[->_0 : NewCustomer
activate _0
 _0->_1 : InsertCustomer
 activate _1
 _0<- -_1 : ok
 deactivate _1
[<- -_0 : Customer
deactivate _0
@enduml

@startuml


control "IdentityServer" as _0
database "MegaDatabase" as _1
skinparam maxMessageSize 250
title IdentityServer <- NewCustomer
== IdentityServer <- NewCustomer ==
[->_0 : NewCustomer
activate _0
 _0->_1 : InsertCustomer
 activate _1
 _0<- -_1 : ok
 deactivate _1
[<- -_0 : Customer
deactivate _0
@enduml

PlantUML version 1.2020.15(Sun Jun 28 11:39:45 UTC 2020)
(GPL source distribution)
Java Runtime: OpenJDK Runtime Environment
JVM: OpenJDK 64-Bit Server VM
Default Encoding: UTF-8
Language: en
Country: null
--></g></svg>