<?xml version="1.0" encoding="UTF-8" standalone="no"?><svg xmlns="http://www.w3.org/2000/svg" xmlns:xlink="http://www.w3.org/1999/xlink" contentScriptType="application/ecmascript" contentStyleType="text/css" height="200px" preserveAspectRatio="none" style="width:198px;height:200px;" version="1.1" viewBox="0 0 198 200" width="198px" zoomAndPan="magnify"><defs><filter height="300%" id="f109w3bcaapihq" width="300%" x="-1" y="-1"><feGaussianBlur result="blurOut" stdDeviation="2.0"/><feColorMatrix in="blurOut" result="blurOut2" type="matrix" values="0 0 0 0 0 0 0 0 0 0 0 0 0 0 0 0 0 0 .4 0"/><feOffset dx="4.0" dy="4.0" in="blurOut2" result="blurOut3"/><feBlend in="SourceGraphic" in2="blurOut3" mode="normal"/></filter></defs><g><!--MD5=[f77682fd75c3e1fc6a82f566c0814d0f]
class _0--><rect fill="#FEFECE" filter="url(#f109w3bcaapihq)" height="60.8047" id="_0" style="stroke: #A80036; stroke-width: 1.5;" width="173" x="10" y="129"/><ellipse cx="25" cy="145" fill="#DA70D6" rx="11" ry="11" style="stroke: #A80036; stroke-width: 1.0;"/><path d="M24.5938,140.8125 L24.5938,148.7969 L25.25,148.7969 Q26.6875,148.7969 27.2969,147.8906 Q27.9219,146.9688 27.9219,144.7969 Q27.9219,142.625 27.2969,141.7188 Q26.6875,140.8125 25.25,140.8125 L24.5938,140.8125 Z M22.1406,138.6094 L24.7656,138.6094 Q27.7969,138.6094 29.125,140.0625 Q30.4688,141.5 30.4688,144.7969 Q30.4688,148.0938 29.125,149.5469 Q27.7969,151 24.7656,151 L22.1406,151 L22.1406,138.6094 Z "/><text fill="#000000" font-family="sans-serif" font-size="12" lengthAdjust="spacingAndGlyphs" textLength="141" x="39" y="149.1543">simpleredoc.SimpleObj</text><line style="stroke: #A80036; stroke-width: 1.5;" x1="11" x2="182" y1="161" y2="161"/><ellipse cx="21" cy="172" fill="none" rx="3" ry="3" style="stroke: #038048; stroke-width: 1.0;"/><text fill="#000000" font-family="sans-serif" font-size="11" lengthAdjust="spacingAndGlyphs" textLength="77" x="30" y="175.2104">name : string</text><line style="stroke: #A80036; stroke-width: 1.5;" x1="11" x2="182" y1="181.8047" y2="181.8047"/><!--MD5=[37d6e5304215b5e345f427169db70937]
class _1--><rect fill="#FEFECE" filter="url(#f109w3bcaapihq)" height="60.8047" id="_1" style="stroke: #A80036; stroke-width: 1.5;" width="181" x="6" y="8"/><ellipse cx="21" cy="24" fill="#DA70D6" rx="11" ry="11" style="stroke: #A80036; stroke-width: 1.0;"/><path d="M20.5938,19.8125 L20.5938,27.7969 L21.25,27.7969 Q22.6875,27.7969 23.2969,26.8906 Q23.9219,25.9688 23.9219,23.7969 Q23.9219,21.625 23.2969,20.7188 Q22.6875,19.8125 21.25,19.8125 L20.5938,19.8125 Z M18.1406,17.6094 L20.7656,17.6094 Q23.7969,17.6094 25.125,19.0625 Q26.4688,20.5 26.4688,23.7969 Q26.4688,27.0938 25.125,28.5469 Q23.7969,30 20.7656,30 L18.1406,30 L18.1406,17.6094 Z "/><text fill="#000000" font-family="sans-serif" font-size="12" lengthAdjust="spacingAndGlyphs" textLength="149" x="35" y="28.1543">simpleredoc.SimpleObj2</text><line style="stroke: #A80036; stroke-width: 1.5;" x1="7" x2="186" y1="40" y2="40"/><ellipse cx="17" cy="51" fill="none" rx="3" ry="3" style="stroke: #038048; stroke-width: 1.0;"/><text fill="#000000" font-family="sans-serif" font-size="11" lengthAdjust="spacingAndGlyphs" textLength="40" x="26" y="54.2104">name :</text><text fill="#000000" font-family="sans-serif" font-size="11" font-weight="bold" lengthAdjust="spacingAndGlyphs" textLength="65" x="70" y="54.2104">SimpleObj</text><line style="stroke: #A80036; stroke-width: 1.5;" x1="7" x2="186" y1="60.8047" y2="60.8047"/><!--MD5=[533817dd71937d491a48f9e800845371]
reverse link _1 to _0--><path d="M96.5,82.1434 C96.5,97.663 96.5,114.7908 96.5,128.9764 " fill="none" id="_1&lt;-_0" style="stroke: #A80036; stroke-width: 1.0;"/><polygon fill="#A80036" points="96.5,69.0334,92.5,75.0334,96.5,81.0334,100.5,75.0334,96.5,69.0334" style="stroke: #A80036; stroke-width: 1.0;"/><text fill="#000000" font-family="sans-serif" font-size="13" lengthAdjust="spacingAndGlyphs" textLength="24" x="65.4375" y="117.7615">1..1</text><!--MD5=[64397f7d5f07cc90845203349d2f0eb7]
@startuml

class "simpleredoc.SimpleObj" as _0 << (D,orchid) >> {
+ name : string
}
class "simpleredoc.SimpleObj2" as _1 << (D,orchid) >> {
+ name : **SimpleObj**
}
_1 *- - "1..1 " _0
@enduml

PlantUML version 1.2020.09(Sun May 10 10:51:06 UTC 2020)
(GPL source distribution)
Java Runtime: OpenJDK Runtime Environment
JVM: OpenJDK 64-Bit Server VM
Java Version: 1.8.0_252-b09
Operating System: Linux
Default Encoding: UTF-8
Language: en
Country: null
--></g></svg>