<?xml version="1.0" encoding="UTF-8" standalone="no"?><svg xmlns="http://www.w3.org/2000/svg" xmlns:xlink="http://www.w3.org/1999/xlink" contentScriptType="application/ecmascript" contentStyleType="text/css" height="221px" preserveAspectRatio="none" style="width:238px;height:221px;" version="1.1" viewBox="0 0 238 221" width="238px" zoomAndPan="magnify"><defs><filter height="300%" id="f1dyp53zcbgat3" width="300%" x="-1" y="-1"><feGaussianBlur result="blurOut" stdDeviation="2.0"/><feColorMatrix in="blurOut" result="blurOut2" type="matrix" values="0 0 0 0 0 0 0 0 0 0 0 0 0 0 0 0 0 0 .4 0"/><feOffset dx="4.0" dy="4.0" in="blurOut2" result="blurOut3"/><feBlend in="SourceGraphic" in2="blurOut3" mode="normal"/></filter></defs><g><text fill="#000000" font-family="sans-serif" font-size="18" lengthAdjust="spacingAndGlyphs" textLength="181" x="32" y="16.708">datagenParams.Title</text><!--MD5=[f77682fd75c3e1fc6a82f566c0814d0f]
class _0--><rect fill="#FEFECE" filter="url(#f1dyp53zcbgat3)" height="73.6094" id="_0" style="stroke: #A80036; stroke-width: 1.5;" width="221" x="6" y="28.9531"/><ellipse cx="47.1" cy="44.9531" fill="#DA70D6" rx="11" ry="11" style="stroke: #A80036; stroke-width: 1.0;"/><path d="M46.6938,40.7656 L46.6938,48.75 L47.35,48.75 Q48.7875,48.75 49.4047,47.8359 Q50.0219,46.9219 50.0219,44.75 Q50.0219,42.5781 49.4047,41.6719 Q48.7875,40.7656 47.35,40.7656 L46.6938,40.7656 Z M44.2406,38.5625 L46.8656,38.5625 Q49.8969,38.5625 51.2328,40.0078 Q52.5688,41.4531 52.5688,44.75 Q52.5688,48.0469 51.2328,49.5 Q49.8969,50.9531 46.8656,50.9531 L44.2406,50.9531 L44.2406,38.5625 Z "/><text fill="#000000" font-family="sans-serif" font-size="12" lengthAdjust="spacingAndGlyphs" textLength="131" x="66.9" y="49.1074">GrpcTesting.Request</text><line style="stroke: #A80036; stroke-width: 1.5;" x1="7" x2="226" y1="60.9531" y2="60.9531"/><ellipse cx="17" cy="71.9531" fill="none" rx="3" ry="3" style="stroke: #038048; stroke-width: 1.0;"/><text fill="#000000" font-family="sans-serif" font-size="11" lengthAdjust="spacingAndGlyphs" textLength="40" x="26" y="75.1636">query :</text><text fill="#000000" font-family="sans-serif" font-size="11" font-weight="bold" lengthAdjust="spacingAndGlyphs" textLength="151" x="70" y="75.1636">GrpcTesting2.Response</text><ellipse cx="17" cy="84.7578" fill="none" rx="3" ry="3" style="stroke: #038048; stroke-width: 1.0;"/><text fill="#000000" font-family="sans-serif" font-size="11" lengthAdjust="spacingAndGlyphs" textLength="67" x="26" y="87.9683">that : string</text><line style="stroke: #A80036; stroke-width: 1.5;" x1="7" x2="226" y1="94.5625" y2="94.5625"/><!--MD5=[37d6e5304215b5e345f427169db70937]
class _1--><rect fill="#FEFECE" filter="url(#f1dyp53zcbgat3)" height="48" id="_1" style="stroke: #A80036; stroke-width: 1.5;" width="46" x="93.5" y="162.9531"/><ellipse cx="108.5" cy="178.9531" fill="#ADD1B2" rx="11" ry="11" style="stroke: #A80036; stroke-width: 1.0;"/><path d="M111.4688,184.5938 Q110.8906,184.8906 110.25,185.0391 Q109.6094,185.1875 108.9063,185.1875 Q106.4063,185.1875 105.0859,183.5391 Q103.7656,181.8906 103.7656,178.7656 Q103.7656,175.6406 105.0859,173.9844 Q106.4063,172.3281 108.9063,172.3281 Q109.6094,172.3281 110.2578,172.4844 Q110.9063,172.6406 111.4688,172.9375 L111.4688,175.6563 Q110.8438,175.0781 110.25,174.8047 Q109.6563,174.5313 109.0313,174.5313 Q107.6875,174.5313 107,175.6016 Q106.3125,176.6719 106.3125,178.7656 Q106.3125,180.8594 107,181.9297 Q107.6875,183 109.0313,183 Q109.6563,183 110.25,182.7266 Q110.8438,182.4531 111.4688,181.875 L111.4688,184.5938 Z "/><text fill="#000000" font-family="sans-serif" font-size="12" lengthAdjust="spacingAndGlyphs" textLength="14" x="122.5" y="183.1074">_1</text><line style="stroke: #A80036; stroke-width: 1.5;" x1="94.5" x2="138.5" y1="194.9531" y2="194.9531"/><line style="stroke: #A80036; stroke-width: 1.5;" x1="94.5" x2="138.5" y1="202.9531" y2="202.9531"/><!--MD5=[bde1413f829cc278731640fabc810278]
reverse link _0 to _1--><path d="M116.5,116.1915 C116.5,132.3402 116.5,149.5288 116.5,162.8036 " fill="none" id="_0&lt;-_1" style="stroke: #A80036; stroke-width: 1.0;"/><polygon fill="#A80036" points="116.5,102.9801,112.5,108.9801,116.5,114.9801,120.5,108.9801,116.5,102.9801" style="stroke: #A80036; stroke-width: 1.0;"/><text fill="#000000" font-family="sans-serif" font-size="13" lengthAdjust="spacingAndGlyphs" textLength="24" x="84.9125" y="151.7774">1..1</text><!--MD5=[47f61748390069435f6c975181e6bbe4]
@startuml
title datagenParams.Title

class "GrpcTesting.Request" as _0 << (D,orchid) >> {
+ query : **GrpcTesting2.Response**
+ that : string
}
_0 *- - "1..1 " _1
@enduml

PlantUML version 1.2019.11(Sun Sep 22 10:02:15 UTC 2019)
(GPL source distribution)
Java Runtime: OpenJDK Runtime Environment
JVM: OpenJDK 64-Bit Server VM
Java Version: 1.8.0_222-b10
Operating System: Linux
Default Encoding: UTF-8
Language: en
Country: null
--></g></svg>
