<?xml version="1.0" encoding="UTF-8" standalone="no"?><svg xmlns="http://www.w3.org/2000/svg" xmlns:xlink="http://www.w3.org/1999/xlink" contentScriptType="application/ecmascript" contentStyleType="text/css" height="234px" preserveAspectRatio="none" style="width:230px;height:234px;" version="1.1" viewBox="0 0 230 234" width="230px" zoomAndPan="magnify"><defs><filter height="300%" id="f1omev0waa4nwx" width="300%" x="-1" y="-1"><feGaussianBlur result="blurOut" stdDeviation="2.0"/><feColorMatrix in="blurOut" result="blurOut2" type="matrix" values="0 0 0 0 0 0 0 0 0 0 0 0 0 0 0 0 0 0 .4 0"/><feOffset dx="4.0" dy="4.0" in="blurOut2" result="blurOut3"/><feBlend in="SourceGraphic" in2="blurOut3" mode="normal"/></filter></defs><g><text fill="#000000" font-family="sans-serif" font-size="18" lengthAdjust="spacingAndGlyphs" textLength="181" x="28" y="16.708">datagenParams.Title</text><!--MD5=[f77682fd75c3e1fc6a82f566c0814d0f]
class _0--><rect fill="#FEFECE" filter="url(#f1omev0waa4nwx)" height="73.6094" id="_0" style="stroke: #A80036; stroke-width: 1.5;" width="213" x="6" y="28.9531"/><ellipse cx="43.5" cy="44.9531" fill="#DA70D6" rx="11" ry="11" style="stroke: #A80036; stroke-width: 1.0;"/><path d="M43.0938,40.7656 L43.0938,48.75 L43.75,48.75 Q45.1875,48.75 45.8047,47.8359 Q46.4219,46.9219 46.4219,44.75 Q46.4219,42.5781 45.8047,41.6719 Q45.1875,40.7656 43.75,40.7656 L43.0938,40.7656 Z M40.6406,38.5625 L43.2656,38.5625 Q46.2969,38.5625 47.6328,40.0078 Q48.9688,41.4531 48.9688,44.75 Q48.9688,48.0469 47.6328,49.5 Q46.2969,50.9531 43.2656,50.9531 L40.6406,50.9531 L40.6406,38.5625 Z "/><text fill="#000000" font-family="sans-serif" font-size="12" lengthAdjust="spacingAndGlyphs" textLength="131" x="62.5" y="49.1074">GrpcTesting.Request</text><line style="stroke: #A80036; stroke-width: 1.5;" x1="7" x2="218" y1="60.9531" y2="60.9531"/><ellipse cx="17" cy="71.9531" fill="none" rx="3" ry="3" style="stroke: #038048; stroke-width: 1.0;"/><text fill="#000000" font-family="sans-serif" font-size="11" lengthAdjust="spacingAndGlyphs" textLength="40" x="26" y="75.1636">query :</text><text fill="#000000" font-family="sans-serif" font-size="11" font-weight="bold" lengthAdjust="spacingAndGlyphs" textLength="143" x="70" y="75.1636">GrpcTesting.Response</text><ellipse cx="17" cy="84.7578" fill="none" rx="3" ry="3" style="stroke: #038048; stroke-width: 1.0;"/><text fill="#000000" font-family="sans-serif" font-size="11" lengthAdjust="spacingAndGlyphs" textLength="67" x="26" y="87.9683">that : string</text><line style="stroke: #A80036; stroke-width: 1.5;" x1="7" x2="218" y1="94.5625" y2="94.5625"/><!--MD5=[37d6e5304215b5e345f427169db70937]
class _1--><rect fill="#FEFECE" filter="url(#f1omev0waa4nwx)" height="60.8047" id="_1" style="stroke: #A80036; stroke-width: 1.5;" width="173" x="26" y="162.9531"/><ellipse cx="41" cy="178.9531" fill="#DA70D6" rx="11" ry="11" style="stroke: #A80036; stroke-width: 1.0;"/><path d="M40.5938,174.7656 L40.5938,182.75 L41.25,182.75 Q42.6875,182.75 43.3047,181.8359 Q43.9219,180.9219 43.9219,178.75 Q43.9219,176.5781 43.3047,175.6719 Q42.6875,174.7656 41.25,174.7656 L40.5938,174.7656 Z M38.1406,172.5625 L40.7656,172.5625 Q43.7969,172.5625 45.1328,174.0078 Q46.4688,175.4531 46.4688,178.75 Q46.4688,182.0469 45.1328,183.5 Q43.7969,184.9531 40.7656,184.9531 L38.1406,184.9531 L38.1406,172.5625 Z "/><text fill="#000000" font-family="sans-serif" font-size="12" lengthAdjust="spacingAndGlyphs" textLength="141" x="55" y="183.1074">GrpcTesting.Response</text><line style="stroke: #A80036; stroke-width: 1.5;" x1="27" x2="198" y1="194.9531" y2="194.9531"/><ellipse cx="37" cy="205.9531" fill="none" rx="3" ry="3" style="stroke: #038048; stroke-width: 1.0;"/><text fill="#000000" font-family="sans-serif" font-size="11" lengthAdjust="spacingAndGlyphs" textLength="77" x="46" y="209.1636">query : string</text><line style="stroke: #A80036; stroke-width: 1.5;" x1="27" x2="198" y1="215.7578" y2="215.7578"/><!--MD5=[bde1413f829cc278731640fabc810278]
reverse link _0 to _1--><path d="M112.5,116.5421 C112.5,132.1124 112.5,148.8146 112.5,162.5771 " fill="none" id="_0&lt;-_1" style="stroke: #A80036; stroke-width: 1.0;"/><polygon fill="#A80036" points="112.5,103.2531,108.5,109.2531,112.5,115.2531,116.5,109.2531,112.5,103.2531" style="stroke: #A80036; stroke-width: 1.0;"/><text fill="#000000" font-family="sans-serif" font-size="13" lengthAdjust="spacingAndGlyphs" textLength="24" x="81.6125" y="151.7628">1..1</text><!--MD5=[f7ce328e512d92ad6a637f8ba240a6c7]
@startuml
title datagenParams.Title

class "GrpcTesting.Request" as _0 << (D,orchid) >> {
+ query : **GrpcTesting.Response**
+ that : string
}
class "GrpcTesting.Response" as _1 << (D,orchid) >> {
+ query : string
}
_0 *- - "1..1 " _1
@enduml

PlantUML version 1.2019.11(Sun Sep 22 10:02:15 UTC 2019)
(GPL source distribution)
Java Runtime: OpenJDK Runtime Environment
JVM: OpenJDK 64-Bit Server VM
Java Version: 1.8.0_222-b10
Operating System: Linux
Default Encoding: UTF-8
Language: en
Country: null
--></g></svg>
