<?xml version="1.0" encoding="UTF-8" standalone="no"?><svg xmlns="http://www.w3.org/2000/svg" xmlns:xlink="http://www.w3.org/1999/xlink" contentScriptType="application/ecmascript" contentStyleType="text/css" height="374px" preserveAspectRatio="none" style="width:562px;height:374px;" version="1.1" viewBox="0 0 562 374" width="562px" zoomAndPan="magnify"><defs><filter height="300%" id="f14gqjdrdnje49" width="300%" x="-1" y="-1"><feGaussianBlur result="blurOut" stdDeviation="2.0"/><feColorMatrix in="blurOut" result="blurOut2" type="matrix" values="0 0 0 0 0 0 0 0 0 0 0 0 0 0 0 0 0 0 .4 0"/><feOffset dx="4.0" dy="4.0" in="blurOut2" result="blurOut3"/><feBlend in="SourceGraphic" in2="blurOut3" mode="normal"/></filter></defs><g><text fill="#000000" font-family="sans-serif" font-size="14" font-weight="bold" lengthAdjust="spacingAndGlyphs" textLength="183" x="185" y="22.9951">Banana &lt;- thisEndpoint</text><rect fill="#FFFFFF" filter="url(#f14gqjdrdnje49)" height="146.5313" style="stroke: #A80036; stroke-width: 1.0;" width="10" x="220" y="155.8594"/><rect fill="#FFFFFF" filter="url(#f14gqjdrdnje49)" height="29.1328" style="stroke: #A80036; stroke-width: 1.0;" width="10" x="452" y="184.9922"/><rect fill="#FFFFFF" filter="url(#f14gqjdrdnje49)" height="30" style="stroke: #A80036; stroke-width: 1.0;" width="10" x="509" y="243.2578"/><line style="stroke: #A80036; stroke-width: 1.0; stroke-dasharray: 5.0,5.0;" x1="225" x2="225" y1="81.5938" y2="320.3906"/><line style="stroke: #A80036; stroke-width: 1.0; stroke-dasharray: 5.0,5.0;" x1="457" x2="457" y1="81.5938" y2="320.3906"/><line style="stroke: #A80036; stroke-width: 1.0; stroke-dasharray: 5.0,5.0;" x1="514" x2="514" y1="81.5938" y2="320.3906"/><text fill="#000000" font-family="sans-serif" font-size="14" lengthAdjust="spacingAndGlyphs" textLength="52" x="196" y="78.292">Banana</text><ellipse cx="225" cy="49.2969" fill="#FEFECE" filter="url(#f14gqjdrdnje49)" rx="12" ry="12" style="stroke: #A80036; stroke-width: 2.0;"/><polygon fill="#A80036" points="221,37.2969,227,32.2969,225,37.2969,227,42.2969,221,37.2969" style="stroke: #A80036; stroke-width: 1.0;"/><text fill="#000000" font-family="sans-serif" font-size="14" lengthAdjust="spacingAndGlyphs" textLength="52" x="196" y="332.3857">Banana</text><ellipse cx="225" cy="351.6875" fill="#FEFECE" filter="url(#f14gqjdrdnje49)" rx="12" ry="12" style="stroke: #A80036; stroke-width: 2.0;"/><polygon fill="#A80036" points="221,339.6875,227,334.6875,225,339.6875,227,344.6875,221,339.6875" style="stroke: #A80036; stroke-width: 1.0;"/><text fill="#000000" font-family="sans-serif" font-size="14" lengthAdjust="spacingAndGlyphs" textLength="23" x="442.5" y="78.292">Bar</text><ellipse cx="457" cy="49.2969" fill="#FEFECE" filter="url(#f14gqjdrdnje49)" rx="12" ry="12" style="stroke: #A80036; stroke-width: 2.0;"/><polygon fill="#A80036" points="453,37.2969,459,32.2969,457,37.2969,459,42.2969,453,37.2969" style="stroke: #A80036; stroke-width: 1.0;"/><text fill="#000000" font-family="sans-serif" font-size="14" lengthAdjust="spacingAndGlyphs" textLength="23" x="442.5" y="332.3857">Bar</text><ellipse cx="457" cy="351.6875" fill="#FEFECE" filter="url(#f14gqjdrdnje49)" rx="12" ry="12" style="stroke: #A80036; stroke-width: 2.0;"/><polygon fill="#A80036" points="453,339.6875,459,334.6875,457,339.6875,459,344.6875,453,339.6875" style="stroke: #A80036; stroke-width: 1.0;"/><text fill="#000000" font-family="sans-serif" font-size="14" lengthAdjust="spacingAndGlyphs" textLength="56" x="483" y="78.292">ThisApp</text><ellipse cx="514" cy="49.2969" fill="#FEFECE" filter="url(#f14gqjdrdnje49)" rx="12" ry="12" style="stroke: #A80036; stroke-width: 2.0;"/><polygon fill="#A80036" points="510,37.2969,516,32.2969,514,37.2969,516,42.2969,510,37.2969" style="stroke: #A80036; stroke-width: 1.0;"/><text fill="#000000" font-family="sans-serif" font-size="14" lengthAdjust="spacingAndGlyphs" textLength="56" x="483" y="332.3857">ThisApp</text><ellipse cx="514" cy="351.6875" fill="#FEFECE" filter="url(#f14gqjdrdnje49)" rx="12" ry="12" style="stroke: #A80036; stroke-width: 2.0;"/><polygon fill="#A80036" points="510,339.6875,516,334.6875,514,339.6875,516,344.6875,510,339.6875" style="stroke: #A80036; stroke-width: 1.0;"/><rect fill="#FFFFFF" filter="url(#f14gqjdrdnje49)" height="146.5313" style="stroke: #A80036; stroke-width: 1.0;" width="10" x="220" y="155.8594"/><rect fill="#FFFFFF" filter="url(#f14gqjdrdnje49)" height="29.1328" style="stroke: #A80036; stroke-width: 1.0;" width="10" x="452" y="184.9922"/><rect fill="#FFFFFF" filter="url(#f14gqjdrdnje49)" height="30" style="stroke: #A80036; stroke-width: 1.0;" width="10" x="509" y="243.2578"/><rect fill="#EEEEEE" filter="url(#f14gqjdrdnje49)" height="3" style="stroke: #EEEEEE; stroke-width: 1.0;" width="547" x="3" y="112.1602"/><line style="stroke: #000000; stroke-width: 1.0;" x1="3" x2="550" y1="112.1602" y2="112.1602"/><line style="stroke: #000000; stroke-width: 1.0;" x1="3" x2="550" y1="115.1602" y2="115.1602"/><rect fill="#EEEEEE" filter="url(#f14gqjdrdnje49)" height="23.1328" style="stroke: #000000; stroke-width: 2.0;" width="193" x="180" y="101.5938"/><text fill="#000000" font-family="sans-serif" font-size="13" font-weight="bold" lengthAdjust="spacingAndGlyphs" textLength="174" x="186" y="117.6606">Banana &lt;- thisEndpoint</text><polygon fill="#A80036" points="208,151.8594,218,155.8594,208,159.8594,212,155.8594" style="stroke: #A80036; stroke-width: 1.0;"/><line style="stroke: #A80036; stroke-width: 1.0;" x1="3" x2="214" y1="155.8594" y2="155.8594"/><text fill="#000000" font-family="sans-serif" font-size="13" lengthAdjust="spacingAndGlyphs" textLength="79" x="10" y="150.7935">thisEndpoint</text><polygon fill="#A80036" points="440,180.9922,450,184.9922,440,188.9922,444,184.9922" style="stroke: #A80036; stroke-width: 1.0;"/><line style="stroke: #A80036; stroke-width: 1.0;" x1="230" x2="446" y1="184.9922" y2="184.9922"/><text fill="#000000" font-family="sans-serif" font-size="13" lengthAdjust="spacingAndGlyphs" textLength="107" x="237" y="179.9263">AnotherEndpoint</text><polygon fill="#A80036" points="241,210.125,231,214.125,241,218.125,237,214.125" style="stroke: #A80036; stroke-width: 1.0;"/><line style="stroke: #A80036; stroke-width: 1.0; stroke-dasharray: 2.0,2.0;" x1="235" x2="456" y1="214.125" y2="214.125"/><text fill="#0000FF" font-family="sans-serif" font-size="13" lengthAdjust="spacingAndGlyphs" textLength="150" x="247" y="209.0591">GrpcTesting2.Response</text><text fill="#000000" font-family="sans-serif" font-size="13" lengthAdjust="spacingAndGlyphs" textLength="11" x="401" y="209.0591">&lt;</text><text fill="#008000" font-family="sans-serif" font-size="13" lengthAdjust="spacingAndGlyphs" textLength="22" x="412" y="209.0591">?, ?</text><text fill="#000000" font-family="sans-serif" font-size="13" lengthAdjust="spacingAndGlyphs" textLength="11" x="434" y="209.0591">&gt;</text><polygon fill="#A80036" points="497,239.2578,507,243.2578,497,247.2578,501,243.2578" style="stroke: #A80036; stroke-width: 1.0;"/><line style="stroke: #A80036; stroke-width: 1.0;" x1="230" x2="503" y1="243.2578" y2="243.2578"/><text fill="#000000" font-family="sans-serif" font-size="13" lengthAdjust="spacingAndGlyphs" textLength="76" x="237" y="238.1919">DoesntExist</text><polygon fill="#A80036" points="14,298.3906,4,302.3906,14,306.3906,10,302.3906" style="stroke: #A80036; stroke-width: 1.0;"/><line style="stroke: #A80036; stroke-width: 1.0; stroke-dasharray: 2.0,2.0;" x1="8" x2="224" y1="302.3906" y2="302.3906"/><text fill="#0000FF" font-family="sans-serif" font-size="13" lengthAdjust="spacingAndGlyphs" textLength="150" x="20" y="297.3247">GrpcTesting2.Response</text><text fill="#000000" font-family="sans-serif" font-size="13" lengthAdjust="spacingAndGlyphs" textLength="11" x="174" y="297.3247">&lt;</text><text fill="#008000" font-family="sans-serif" font-size="13" lengthAdjust="spacingAndGlyphs" textLength="22" x="185" y="297.3247">?, ?</text><text fill="#000000" font-family="sans-serif" font-size="13" lengthAdjust="spacingAndGlyphs" textLength="11" x="207" y="297.3247">&gt;</text><!--MD5=[86ad909d0909ef391f9b66bfc4f6448e]
@startuml


control "Banana" as _0
control "Bar" as _1
control "ThisApp" as _2
skinparam maxMessageSize 250
title Banana <- thisEndpoint
== Banana <- thisEndpoint ==
[->_0 : thisEndpoint
activate _0
 _0->_1 : AnotherEndpoint
 activate _1
 _0<- -_1 : <color blue>GrpcTesting2.Response</color> <<color green>?, ?</color>>
 deactivate _1
 _0->_2 : DoesntExist
 activate _2
 deactivate _2
[<- -_0 : <color blue>GrpcTesting2.Response</color> <<color green>?, ?</color>>
deactivate _0
@enduml

PlantUML version 1.2019.11(Sun Sep 22 10:02:15 UTC 2019)
(GPL source distribution)
Java Runtime: OpenJDK Runtime Environment
JVM: OpenJDK 64-Bit Server VM
Java Version: 1.8.0_222-b10
Operating System: Linux
Default Encoding: UTF-8
Language: en
Country: null
--></g></svg>
