<?xml version="1.0" encoding="UTF-8" standalone="no"?><svg xmlns="http://www.w3.org/2000/svg" xmlns:xlink="http://www.w3.org/1999/xlink" contentScriptType="application/ecmascript" contentStyleType="text/css" height="374px" preserveAspectRatio="none" style="width:546px;height:374px;" version="1.1" viewBox="0 0 546 374" width="546px" zoomAndPan="magnify"><defs><filter height="300%" id="fqeldl3153a0n" width="300%" x="-1" y="-1"><feGaussianBlur result="blurOut" stdDeviation="2.0"/><feColorMatrix in="blurOut" result="blurOut2" type="matrix" values="0 0 0 0 0 0 0 0 0 0 0 0 0 0 0 0 0 0 .4 0"/><feOffset dx="4.0" dy="4.0" in="blurOut2" result="blurOut3"/><feBlend in="SourceGraphic" in2="blurOut3" mode="normal"/></filter></defs><g><text fill="#000000" font-family="sans-serif" font-size="14" font-weight="bold" lengthAdjust="spacingAndGlyphs" textLength="183" x="177" y="22.9951">Banana &lt;- thisEndpoint</text><rect fill="#FFFFFF" filter="url(#fqeldl3153a0n)" height="146.5313" style="stroke: #A80036; stroke-width: 1.0;" width="10" x="212" y="155.8594"/><rect fill="#FFFFFF" filter="url(#fqeldl3153a0n)" height="29.1328" style="stroke: #A80036; stroke-width: 1.0;" width="10" x="436" y="184.9922"/><rect fill="#FFFFFF" filter="url(#fqeldl3153a0n)" height="30" style="stroke: #A80036; stroke-width: 1.0;" width="10" x="493" y="243.2578"/><line style="stroke: #A80036; stroke-width: 1.0; stroke-dasharray: 5.0,5.0;" x1="217" x2="217" y1="81.5938" y2="320.3906"/><line style="stroke: #A80036; stroke-width: 1.0; stroke-dasharray: 5.0,5.0;" x1="441" x2="441" y1="81.5938" y2="320.3906"/><line style="stroke: #A80036; stroke-width: 1.0; stroke-dasharray: 5.0,5.0;" x1="498" x2="498" y1="81.5938" y2="320.3906"/><text fill="#000000" font-family="sans-serif" font-size="14" lengthAdjust="spacingAndGlyphs" textLength="52" x="188" y="78.292">Banana</text><ellipse cx="217" cy="49.2969" fill="#FEFECE" filter="url(#fqeldl3153a0n)" rx="12" ry="12" style="stroke: #A80036; stroke-width: 2.0;"/><polygon fill="#A80036" points="213,37.2969,219,32.2969,217,37.2969,219,42.2969,213,37.2969" style="stroke: #A80036; stroke-width: 1.0;"/><text fill="#000000" font-family="sans-serif" font-size="14" lengthAdjust="spacingAndGlyphs" textLength="52" x="188" y="332.3857">Banana</text><ellipse cx="217" cy="351.6875" fill="#FEFECE" filter="url(#fqeldl3153a0n)" rx="12" ry="12" style="stroke: #A80036; stroke-width: 2.0;"/><polygon fill="#A80036" points="213,339.6875,219,334.6875,217,339.6875,219,344.6875,213,339.6875" style="stroke: #A80036; stroke-width: 1.0;"/><text fill="#000000" font-family="sans-serif" font-size="14" lengthAdjust="spacingAndGlyphs" textLength="23" x="426.5" y="78.292">Bar</text><ellipse cx="441" cy="49.2969" fill="#FEFECE" filter="url(#fqeldl3153a0n)" rx="12" ry="12" style="stroke: #A80036; stroke-width: 2.0;"/><polygon fill="#A80036" points="437,37.2969,443,32.2969,441,37.2969,443,42.2969,437,37.2969" style="stroke: #A80036; stroke-width: 1.0;"/><text fill="#000000" font-family="sans-serif" font-size="14" lengthAdjust="spacingAndGlyphs" textLength="23" x="426.5" y="332.3857">Bar</text><ellipse cx="441" cy="351.6875" fill="#FEFECE" filter="url(#fqeldl3153a0n)" rx="12" ry="12" style="stroke: #A80036; stroke-width: 2.0;"/><polygon fill="#A80036" points="437,339.6875,443,334.6875,441,339.6875,443,344.6875,437,339.6875" style="stroke: #A80036; stroke-width: 1.0;"/><text fill="#000000" font-family="sans-serif" font-size="14" lengthAdjust="spacingAndGlyphs" textLength="56" x="467" y="78.292">ThisApp</text><ellipse cx="498" cy="49.2969" fill="#FEFECE" filter="url(#fqeldl3153a0n)" rx="12" ry="12" style="stroke: #A80036; stroke-width: 2.0;"/><polygon fill="#A80036" points="494,37.2969,500,32.2969,498,37.2969,500,42.2969,494,37.2969" style="stroke: #A80036; stroke-width: 1.0;"/><text fill="#000000" font-family="sans-serif" font-size="14" lengthAdjust="spacingAndGlyphs" textLength="56" x="467" y="332.3857">ThisApp</text><ellipse cx="498" cy="351.6875" fill="#FEFECE" filter="url(#fqeldl3153a0n)" rx="12" ry="12" style="stroke: #A80036; stroke-width: 2.0;"/><polygon fill="#A80036" points="494,339.6875,500,334.6875,498,339.6875,500,344.6875,494,339.6875" style="stroke: #A80036; stroke-width: 1.0;"/><rect fill="#FFFFFF" filter="url(#fqeldl3153a0n)" height="146.5313" style="stroke: #A80036; stroke-width: 1.0;" width="10" x="212" y="155.8594"/><rect fill="#FFFFFF" filter="url(#fqeldl3153a0n)" height="29.1328" style="stroke: #A80036; stroke-width: 1.0;" width="10" x="436" y="184.9922"/><rect fill="#FFFFFF" filter="url(#fqeldl3153a0n)" height="30" style="stroke: #A80036; stroke-width: 1.0;" width="10" x="493" y="243.2578"/><rect fill="#EEEEEE" filter="url(#fqeldl3153a0n)" height="3" style="stroke: #EEEEEE; stroke-width: 1.0;" width="531" x="3" y="112.1602"/><line style="stroke: #000000; stroke-width: 1.0;" x1="3" x2="534" y1="112.1602" y2="112.1602"/><line style="stroke: #000000; stroke-width: 1.0;" x1="3" x2="534" y1="115.1602" y2="115.1602"/><rect fill="#EEEEEE" filter="url(#fqeldl3153a0n)" height="23.1328" style="stroke: #000000; stroke-width: 2.0;" width="193" x="172" y="101.5938"/><text fill="#000000" font-family="sans-serif" font-size="13" font-weight="bold" lengthAdjust="spacingAndGlyphs" textLength="174" x="178" y="117.6606">Banana &lt;- thisEndpoint</text><polygon fill="#A80036" points="200,151.8594,210,155.8594,200,159.8594,204,155.8594" style="stroke: #A80036; stroke-width: 1.0;"/><line style="stroke: #A80036; stroke-width: 1.0;" x1="3" x2="206" y1="155.8594" y2="155.8594"/><text fill="#000000" font-family="sans-serif" font-size="13" lengthAdjust="spacingAndGlyphs" textLength="79" x="10" y="150.7935">thisEndpoint</text><polygon fill="#A80036" points="424,180.9922,434,184.9922,424,188.9922,428,184.9922" style="stroke: #A80036; stroke-width: 1.0;"/><line style="stroke: #A80036; stroke-width: 1.0;" x1="222" x2="430" y1="184.9922" y2="184.9922"/><text fill="#000000" font-family="sans-serif" font-size="13" lengthAdjust="spacingAndGlyphs" textLength="107" x="229" y="179.9263">AnotherEndpoint</text><polygon fill="#A80036" points="233,210.125,223,214.125,233,218.125,229,214.125" style="stroke: #A80036; stroke-width: 1.0;"/><line style="stroke: #A80036; stroke-width: 1.0; stroke-dasharray: 2.0,2.0;" x1="227" x2="440" y1="214.125" y2="214.125"/><text fill="#0000FF" font-family="sans-serif" font-size="13" lengthAdjust="spacingAndGlyphs" textLength="142" x="239" y="209.0591">GrpcTesting.Response</text><text fill="#000000" font-family="sans-serif" font-size="13" lengthAdjust="spacingAndGlyphs" textLength="11" x="385" y="209.0591">&lt;</text><text fill="#008000" font-family="sans-serif" font-size="13" lengthAdjust="spacingAndGlyphs" textLength="22" x="396" y="209.0591">?, ?</text><text fill="#000000" font-family="sans-serif" font-size="13" lengthAdjust="spacingAndGlyphs" textLength="11" x="418" y="209.0591">&gt;</text><polygon fill="#A80036" points="481,239.2578,491,243.2578,481,247.2578,485,243.2578" style="stroke: #A80036; stroke-width: 1.0;"/><line style="stroke: #A80036; stroke-width: 1.0;" x1="222" x2="487" y1="243.2578" y2="243.2578"/><text fill="#000000" font-family="sans-serif" font-size="13" lengthAdjust="spacingAndGlyphs" textLength="76" x="229" y="238.1919">DoesntExist</text><polygon fill="#A80036" points="14,298.3906,4,302.3906,14,306.3906,10,302.3906" style="stroke: #A80036; stroke-width: 1.0;"/><line style="stroke: #A80036; stroke-width: 1.0; stroke-dasharray: 2.0,2.0;" x1="8" x2="216" y1="302.3906" y2="302.3906"/><text fill="#0000FF" font-family="sans-serif" font-size="13" lengthAdjust="spacingAndGlyphs" textLength="142" x="20" y="297.3247">GrpcTesting.Response</text><text fill="#000000" font-family="sans-serif" font-size="13" lengthAdjust="spacingAndGlyphs" textLength="11" x="166" y="297.3247">&lt;</text><text fill="#008000" font-family="sans-serif" font-size="13" lengthAdjust="spacingAndGlyphs" textLength="22" x="177" y="297.3247">?, ?</text><text fill="#000000" font-family="sans-serif" font-size="13" lengthAdjust="spacingAndGlyphs" textLength="11" x="199" y="297.3247">&gt;</text><!--MD5=[cb78b719774e9a9a7382465c394533df]
@startuml


control "Banana" as _0
control "Bar" as _1
control "ThisApp" as _2
skinparam maxMessageSize 250
title Banana <- thisEndpoint
== Banana <- thisEndpoint ==
[->_0 : thisEndpoint
activate _0
 _0->_1 : AnotherEndpoint
 activate _1
 _0<- -_1 : <color blue>GrpcTesting.Response</color> <<color green>?, ?</color>>
 deactivate _1
 _0->_2 : DoesntExist
 activate _2
 deactivate _2
[<- -_0 : <color blue>GrpcTesting.Response</color> <<color green>?, ?</color>>
deactivate _0
@enduml

PlantUML version 1.2019.11(Sun Sep 22 10:02:15 UTC 2019)
(GPL source distribution)
Java Runtime: OpenJDK Runtime Environment
JVM: OpenJDK 64-Bit Server VM
Java Version: 1.8.0_222-b10
Operating System: Linux
Default Encoding: UTF-8
Language: en
Country: null
--></g></svg>
