<?xml version="1.0" encoding="UTF-8" standalone="no"?><svg xmlns="http://www.w3.org/2000/svg" xmlns:xlink="http://www.w3.org/1999/xlink" contentScriptType="application/ecmascript" contentStyleType="text/css" height="66px" preserveAspectRatio="none" style="width:128px;height:66px;" version="1.1" viewBox="0 0 128 66" width="128px" zoomAndPan="magnify"><defs><filter height="300%" id="f10xm2im300iw8" width="300%" x="-1" y="-1"><feGaussianBlur result="blurOut" stdDeviation="2.0"/><feColorMatrix in="blurOut" result="blurOut2" type="matrix" values="0 0 0 0 0 0 0 0 0 0 0 0 0 0 0 0 0 0 .4 0"/><feOffset dx="4.0" dy="4.0" in="blurOut2" result="blurOut3"/><feBlend in="SourceGraphic" in2="blurOut3" mode="normal"/></filter></defs><g><!--MD5=[f77682fd75c3e1fc6a82f566c0814d0f]
class _0--><rect fill="#FEFECE" filter="url(#f10xm2im300iw8)" height="48" id="_0" style="stroke: #A80036; stroke-width: 1.5;" width="110" x="7" y="7"/><ellipse cx="22" cy="23" fill="#DA70D6" rx="11" ry="11" style="stroke: #A80036; stroke-width: 1.0;"/><path d="M21.5938,18.8125 L21.5938,26.7969 L22.25,26.7969 Q23.6875,26.7969 24.2969,25.8906 Q24.9219,24.9688 24.9219,22.7969 Q24.9219,20.625 24.2969,19.7188 Q23.6875,18.8125 22.25,18.8125 L21.5938,18.8125 Z M19.1406,16.6094 L21.7656,16.6094 Q24.7969,16.6094 26.125,18.0625 Q27.4688,19.5 27.4688,22.7969 Q27.4688,26.0938 26.125,27.5469 Q24.7969,29 21.7656,29 L19.1406,29 L19.1406,16.6094 Z "/><text fill="#000000" font-family="sans-serif" font-size="12" lengthAdjust="spacingAndGlyphs" textLength="78" x="36" y="27.1543">ServerEmpty</text><line style="stroke: #A80036; stroke-width: 1.5;" x1="8" x2="116" y1="39" y2="39"/><line style="stroke: #A80036; stroke-width: 1.5;" x1="8" x2="116" y1="47" y2="47"/><!--MD5=[f2170275783a34e9b91d5921cf80ef0a]
@startuml
''''''''''''''''''''''''''''''''''''''''''
''                                      ''
''  AUTOGENERATED CODE - - DO NOT EDIT!  ''
''                                      ''
''''''''''''''''''''''''''''''''''''''''''

class "ServerEmpty" as _0<< (D,orchid) >> {
}
@enduml

@startuml

class "ServerEmpty" as _0<< (D,orchid) >> {
}
@enduml

PlantUML version 1.2020.10(Sun May 17 09:35:57 GMT 2020)
(GPL source distribution)
Java Runtime: OpenJDK Runtime Environment
JVM: OpenJDK 64-Bit Server VM
Java Version: 14-ea+33
Operating System: Linux
Default Encoding: UTF-8
Language: en
Country: US
--></g></svg>