<?xml version="1.0" encoding="UTF-8" standalone="no"?><svg xmlns="http://www.w3.org/2000/svg" xmlns:xlink="http://www.w3.org/1999/xlink" contentScriptType="application/ecmascript" contentStyleType="text/css" height="195px" preserveAspectRatio="none" style="width:642px;height:195px;" version="1.1" viewBox="0 0 642 195" width="642px" zoomAndPan="magnify"><defs><filter height="300%" id="f1mc42v5ohlhh7" width="300%" x="-1" y="-1"><feGaussianBlur result="blurOut" stdDeviation="2.0"/><feColorMatrix in="blurOut" result="blurOut2" type="matrix" values="0 0 0 0 0 0 0 0 0 0 0 0 0 0 0 0 0 0 .4 0"/><feOffset dx="4.0" dy="4.0" in="blurOut2" result="blurOut3"/><feBlend in="SourceGraphic" in2="blurOut3" mode="normal"/></filter></defs><g><!--MD5=[f77682fd75c3e1fc6a82f566c0814d0f]
class _0--><rect fill="#FEFECE" filter="url(#f1mc42v5ohlhh7)" height="48" id="_0" style="stroke: #A80036; stroke-width: 1.5;" width="162" x="7" y="13.5"/><ellipse cx="22" cy="29.5" fill="#DA70D6" rx="11" ry="11" style="stroke: #A80036; stroke-width: 1.0;"/><path d="M19.5156,32.7969 C18.8594,32.7969 18.4688,33.1094 18.4688,33.6563 C18.4688,33.9063 18.6094,34.1719 18.8281,34.3281 C18.9844,34.4531 19.2031,34.5 19.6094,34.5 L23.0781,34.5 C24.5625,34.5 25.5781,34.1094 26.4063,33.2188 C27.1875,32.4063 27.5938,31.3594 27.5938,30.1094 L27.5938,29.3125 C27.5938,26.6406 25.7031,24.5938 23.2188,24.5938 L19.6094,24.5938 C19.1563,24.5938 19.0313,24.6094 18.875,24.7031 C18.625,24.8594 18.4688,25.1563 18.4688,25.4375 C18.4688,25.9844 18.8438,26.2813 19.5156,26.2813 L19.5156,32.7969 Z M21.2031,32.7969 L21.2031,26.2813 L23.0781,26.2813 C23.9844,26.2813 24.625,26.5625 25.1406,27.1563 C25.625,27.7344 25.9063,28.4844 25.9063,29.2813 L25.9063,30.0625 C25.9063,30.9375 25.6719,31.5313 25.2031,32.0469 C24.6719,32.5938 24.1094,32.7969 23.0938,32.7969 L21.2031,32.7969 Z "/><text fill="#000000" font-family="sans-serif" font-size="12" lengthAdjust="spacingAndGlyphs" textLength="130" x="36" y="33.6543">MegaDatabase.Empty</text><line style="stroke: #A80036; stroke-width: 1.5;" x1="8" x2="168" y1="45.5" y2="45.5"/><line style="stroke: #A80036; stroke-width: 1.5;" x1="8" x2="168" y1="53.5" y2="53.5"/><!--MD5=[37d6e5304215b5e345f427169db70937]
class _1--><rect fill="#FEFECE" filter="url(#f1mc42v5ohlhh7)" height="60.8047" id="_1" style="stroke: #A80036; stroke-width: 1.5;" width="165" x="204.5" y="7"/><ellipse cx="219.5" cy="23" fill="#DA70D6" rx="11" ry="11" style="stroke: #A80036; stroke-width: 1.0;"/><path d="M217.0156,26.2969 C216.3594,26.2969 215.9688,26.6094 215.9688,27.1563 C215.9688,27.4063 216.1094,27.6719 216.3281,27.8281 C216.4844,27.9531 216.7031,28 217.1094,28 L220.5781,28 C222.0625,28 223.0781,27.6094 223.9063,26.7188 C224.6875,25.9063 225.0938,24.8594 225.0938,23.6094 L225.0938,22.8125 C225.0938,20.1406 223.2031,18.0938 220.7188,18.0938 L217.1094,18.0938 C216.6563,18.0938 216.5313,18.1094 216.375,18.2031 C216.125,18.3594 215.9688,18.6563 215.9688,18.9375 C215.9688,19.4844 216.3438,19.7813 217.0156,19.7813 L217.0156,26.2969 Z M218.7031,26.2969 L218.7031,19.7813 L220.5781,19.7813 C221.4844,19.7813 222.125,20.0625 222.6406,20.6563 C223.125,21.2344 223.4063,21.9844 223.4063,22.7813 L223.4063,23.5625 C223.4063,24.4375 223.1719,25.0313 222.7031,25.5469 C222.1719,26.0938 221.6094,26.2969 220.5938,26.2969 L218.7031,26.2969 Z "/><text fill="#000000" font-family="sans-serif" font-size="12" lengthAdjust="spacingAndGlyphs" textLength="133" x="233.5" y="27.1543">MegaDatabase.Money</text><line style="stroke: #A80036; stroke-width: 1.5;" x1="205.5" x2="368.5" y1="39" y2="39"/><ellipse cx="215.5" cy="50" fill="none" rx="3" ry="3" style="stroke: #038048; stroke-width: 1.0;"/><text fill="#000000" font-family="sans-serif" font-size="11" lengthAdjust="spacingAndGlyphs" textLength="68" x="224.5" y="53.2104">amount : int</text><line style="stroke: #A80036; stroke-width: 1.5;" x1="205.5" x2="368.5" y1="59.8047" y2="59.8047"/><!--MD5=[95d1cea1cd7f69d371fe62aa72675e9c]
class _2--><rect fill="#FEFECE" filter="url(#f1mc42v5ohlhh7)" height="60.8047" id="_2" style="stroke: #A80036; stroke-width: 1.5;" width="218" x="405" y="7"/><ellipse cx="463.25" cy="23" fill="#DA70D6" rx="11" ry="11" style="stroke: #A80036; stroke-width: 1.0;"/><path d="M460.7656,26.2969 C460.1094,26.2969 459.7188,26.6094 459.7188,27.1563 C459.7188,27.4063 459.8594,27.6719 460.0781,27.8281 C460.2344,27.9531 460.4531,28 460.8594,28 L464.3281,28 C465.8125,28 466.8281,27.6094 467.6563,26.7188 C468.4375,25.9063 468.8438,24.8594 468.8438,23.6094 L468.8438,22.8125 C468.8438,20.1406 466.9531,18.0938 464.4688,18.0938 L460.8594,18.0938 C460.4063,18.0938 460.2813,18.1094 460.125,18.2031 C459.875,18.3594 459.7188,18.6563 459.7188,18.9375 C459.7188,19.4844 460.0938,19.7813 460.7656,19.7813 L460.7656,26.2969 Z M462.4531,26.2969 L462.4531,19.7813 L464.3281,19.7813 C465.2344,19.7813 465.875,20.0625 466.3906,20.6563 C466.875,21.2344 467.1563,21.9844 467.1563,22.7813 L467.1563,23.5625 C467.1563,24.4375 466.9219,25.0313 466.4531,25.5469 C465.9219,26.0938 465.3594,26.2969 464.3438,26.2969 L462.4531,26.2969 Z "/><text fill="#000000" font-family="sans-serif" font-size="12" lengthAdjust="spacingAndGlyphs" textLength="93" x="483.75" y="27.1543">Server.Request</text><line style="stroke: #A80036; stroke-width: 1.5;" x1="406" x2="622" y1="39" y2="39"/><ellipse cx="416" cy="50" fill="none" rx="3" ry="3" style="stroke: #038048; stroke-width: 1.0;"/><text fill="#000000" font-family="sans-serif" font-size="11" lengthAdjust="spacingAndGlyphs" textLength="40" x="425" y="53.2104">query :</text><text fill="#000000" font-family="sans-serif" font-size="11" font-weight="bold" lengthAdjust="spacingAndGlyphs" textLength="148" x="469" y="53.2104">Sequence &lt;Response&gt;</text><line style="stroke: #A80036; stroke-width: 1.5;" x1="406" x2="622" y1="59.8047" y2="59.8047"/><!--MD5=[4df2e88eba431a2a56d213b7bca710d9]
class _3--><rect fill="#FEFECE" filter="url(#f1mc42v5ohlhh7)" height="48" id="_3" style="stroke: #A80036; stroke-width: 1.5;" width="46" x="491" y="128"/><ellipse cx="506" cy="144" fill="#ADD1B2" rx="11" ry="11" style="stroke: #A80036; stroke-width: 1.0;"/><path d="M508.3438,139.6719 C507.4063,139.2344 506.8125,139.0938 505.9375,139.0938 C503.3125,139.0938 501.3125,141.1719 501.3125,143.8906 L501.3125,145.0156 C501.3125,147.5938 503.4219,149.4844 506.3125,149.4844 C507.5313,149.4844 508.6875,149.1875 509.4375,148.6406 C510.0156,148.2344 510.3438,147.7813 510.3438,147.3906 C510.3438,146.9375 509.9531,146.5469 509.4844,146.5469 C509.2656,146.5469 509.0625,146.625 508.875,146.8125 C508.4219,147.2969 508.4219,147.2969 508.2344,147.3906 C507.8125,147.6563 507.125,147.7813 506.3594,147.7813 C504.3125,147.7813 503.0156,146.6875 503.0156,144.9844 L503.0156,143.8906 C503.0156,142.1094 504.2656,140.7969 506,140.7969 C506.5781,140.7969 507.1875,140.9531 507.6563,141.2031 C508.1406,141.4844 508.3125,141.7031 508.4063,142.1094 C508.4688,142.5156 508.5,142.6406 508.6406,142.7656 C508.7813,142.9063 509.0156,143.0156 509.2344,143.0156 C509.5,143.0156 509.7656,142.875 509.9375,142.6563 C510.0469,142.5 510.0781,142.3125 510.0781,141.8906 L510.0781,140.4688 C510.0781,140.0313 510.0625,139.9063 509.9688,139.75 C509.8125,139.4844 509.5313,139.3438 509.2344,139.3438 C508.9375,139.3438 508.7344,139.4375 508.5156,139.75 L508.3438,139.6719 Z "/><text fill="#000000" font-family="sans-serif" font-size="12" lengthAdjust="spacingAndGlyphs" textLength="14" x="520" y="148.1543">_3</text><line style="stroke: #A80036; stroke-width: 1.5;" x1="492" x2="536" y1="160" y2="160"/><line style="stroke: #A80036; stroke-width: 1.5;" x1="492" x2="536" y1="168" y2="168"/><!--MD5=[d55d8d636913339d8dba5a305028d51c]
reverse link _2 to _3--><path d="M514,81.3617 C514,97.0865 514,114.2932 514,127.6686 " fill="none" id="_2&lt;-_3" style="stroke: #A80036; stroke-width: 1.0;"/><polygon fill="#A80036" points="514,68.058,510,74.058,514,80.058,518,74.058,514,68.058" style="stroke: #A80036; stroke-width: 1.0;"/><text fill="#000000" font-family="sans-serif" font-size="13" lengthAdjust="spacingAndGlyphs" textLength="23" x="488.1969" y="116.9928">0..*</text><!--MD5=[550eeefa02285a59a4638764c606e4b7]
@startuml
''''''''''''''''''''''''''''''''''''''''''
''                                      ''
''  AUTOGENERATED CODE - - DO NOT EDIT!  ''
''                                      ''
''''''''''''''''''''''''''''''''''''''''''

class "MegaDatabase.Empty" as _0<< (D,orchid) >> {
}
class "MegaDatabase.Money" as _1 << (D,orchid) >> {
+ amount : int
}
class "Server.Request" as _2 << (D,orchid) >> {
+ query : **Sequence <Response>**
}
_2 *- - "0..*" _3
@enduml

@startuml

class "MegaDatabase.Empty" as _0<< (D,orchid) >> {
}
class "MegaDatabase.Money" as _1 << (D,orchid) >> {
+ amount : int
}
class "Server.Request" as _2 << (D,orchid) >> {
+ query : **Sequence <Response>**
}
_2 *- - "0..*" _3
@enduml

PlantUML version 1.2020.13(Sat Jun 13 12:26:38 UTC 2020)
(GPL source distribution)
Java Runtime: Java(TM) SE Runtime Environment
JVM: Java HotSpot(TM) 64-Bit Server VM
Default Encoding: UTF-8
Language: en
Country: US
--></g></svg>