<?xml version="1.0" encoding="UTF-8" standalone="no"?><svg xmlns="http://www.w3.org/2000/svg" xmlns:xlink="http://www.w3.org/1999/xlink" contentScriptType="application/ecmascript" contentStyleType="text/css" height="92px" preserveAspectRatio="none" style="width:244px;height:92px;" version="1.1" viewBox="0 0 244 92" width="244px" zoomAndPan="magnify"><defs><filter height="300%" id="f1d7ydc737dhko" width="300%" x="-1" y="-1"><feGaussianBlur result="blurOut" stdDeviation="2.0"/><feColorMatrix in="blurOut" result="blurOut2" type="matrix" values="0 0 0 0 0 0 0 0 0 0 0 0 0 0 0 0 0 0 .4 0"/><feOffset dx="4.0" dy="4.0" in="blurOut2" result="blurOut3"/><feBlend in="SourceGraphic" in2="blurOut3" mode="normal"/></filter></defs><g><!--MD5=[f77682fd75c3e1fc6a82f566c0814d0f]
class _0--><rect fill="#FEFECE" filter="url(#f1d7ydc737dhko)" height="66.7422" id="_0" style="stroke: #A80036; stroke-width: 1.5;" width="218" x="7" y="7"/><ellipse cx="82.25" cy="25.9688" fill="#DA70D6" rx="11" ry="11" style="stroke: #A80036; stroke-width: 1.0;"/><path d="M79.7656,29.2656 C79.1094,29.2656 78.7188,29.5781 78.7188,30.125 C78.7188,30.375 78.8594,30.6406 79.0781,30.7969 C79.2344,30.9219 79.4531,30.9688 79.8594,30.9688 L83.3281,30.9688 C84.8125,30.9688 85.8281,30.5781 86.6563,29.6875 C87.4375,28.875 87.8438,27.8281 87.8438,26.5781 L87.8438,25.7813 C87.8438,23.1094 85.9531,21.0625 83.4688,21.0625 L79.8594,21.0625 C79.4063,21.0625 79.2813,21.0781 79.125,21.1719 C78.875,21.3281 78.7188,21.625 78.7188,21.9063 C78.7188,22.4531 79.0938,22.75 79.7656,22.75 L79.7656,29.2656 Z M81.4531,29.2656 L81.4531,22.75 L83.3281,22.75 C84.2344,22.75 84.875,23.0313 85.3906,23.625 C85.875,24.2031 86.1563,24.9531 86.1563,25.75 L86.1563,26.5313 C86.1563,27.4063 85.9219,28 85.4531,28.5156 C84.9219,29.0625 84.3594,29.2656 83.3438,29.2656 L81.4531,29.2656 Z "/><text fill="#000000" font-family="sans-serif" font-size="12" font-style="italic" lengthAdjust="spacingAndGlyphs" textLength="63" x="100.75" y="23.1387">«Request»</text><text fill="#000000" font-family="sans-serif" font-size="12" lengthAdjust="spacingAndGlyphs" textLength="49" x="107.75" y="37.1074">Request</text><line style="stroke: #A80036; stroke-width: 1.5;" x1="8" x2="224" y1="44.9375" y2="44.9375"/><ellipse cx="18" cy="55.9375" fill="none" rx="3" ry="3" style="stroke: #038048; stroke-width: 1.0;"/><text fill="#000000" font-family="sans-serif" font-size="11" lengthAdjust="spacingAndGlyphs" textLength="40" x="27" y="59.1479">query :</text><text fill="#000000" font-family="sans-serif" font-size="11" font-weight="bold" lengthAdjust="spacingAndGlyphs" textLength="148" x="71" y="59.1479">Sequence &lt;Response&gt;</text><line style="stroke: #A80036; stroke-width: 1.5;" x1="8" x2="224" y1="65.7422" y2="65.7422"/><!--MD5=[535e657b41cf032e5e63fc310b456085]
@startuml
''''''''''''''''''''''''''''''''''''''''''
''                                      ''
''  AUTOGENERATED CODE - - DO NOT EDIT!  ''
''                                      ''
''''''''''''''''''''''''''''''''''''''''''

class "Request" as _0 << (D,orchid) Request >> {
+ query : **Sequence <Response>**
}
@enduml

@startuml

class "Request" as _0 << (D,orchid) Request >> {
+ query : **Sequence <Response>**
}
@enduml

PlantUML version 1.2020.16beta1(Unknown compile time)
(GPL source distribution)
Java Runtime: Java(TM) SE Runtime Environment
JVM: Java HotSpot(TM) 64-Bit Server VM
Default Encoding: UTF-8
Language: en
Country: US
--></g></svg>