<?xml version="1.0" encoding="UTF-8" standalone="no"?><svg xmlns="http://www.w3.org/2000/svg" xmlns:xlink="http://www.w3.org/1999/xlink" contentScriptType="application/ecmascript" contentStyleType="text/css" height="359px" preserveAspectRatio="none" style="width:396px;height:359px;" version="1.1" viewBox="0 0 396 359" width="396px" zoomAndPan="magnify"><defs><filter height="300%" id="f1n9vta13b37vm" width="300%" x="-1" y="-1"><feGaussianBlur result="blurOut" stdDeviation="2.0"/><feColorMatrix in="blurOut" result="blurOut2" type="matrix" values="0 0 0 0 0 0 0 0 0 0 0 0 0 0 0 0 0 0 .4 0"/><feOffset dx="4.0" dy="4.0" in="blurOut2" result="blurOut3"/><feBlend in="SourceGraphic" in2="blurOut3" mode="normal"/></filter></defs><g><!--MD5=[f77682fd75c3e1fc6a82f566c0814d0f]
class _0--><rect codeLine="7" fill="#FEFECE" filter="url(#f1n9vta13b37vm)" height="48" id="_0" style="stroke: #A80036; stroke-width: 1.5;" width="162" x="7" y="283.5"/><ellipse cx="22" cy="299.5" fill="#DA70D6" rx="11" ry="11" style="stroke: #A80036; stroke-width: 1.0;"/><path d="M19.5156,302.7969 C18.8594,302.7969 18.4688,303.1094 18.4688,303.6563 C18.4688,303.9063 18.6094,304.1719 18.8281,304.3281 C18.9844,304.4531 19.2031,304.5 19.6094,304.5 L23.0781,304.5 C24.5625,304.5 25.5781,304.1094 26.4063,303.2188 C27.1875,302.4063 27.5938,301.3594 27.5938,300.1094 L27.5938,299.3125 C27.5938,296.6406 25.7031,294.5938 23.2188,294.5938 L19.6094,294.5938 C19.1563,294.5938 19.0313,294.6094 18.875,294.7031 C18.625,294.8594 18.4688,295.1563 18.4688,295.4375 C18.4688,295.9844 18.8438,296.2813 19.5156,296.2813 L19.5156,302.7969 Z M21.2031,302.7969 L21.2031,296.2813 L23.0781,296.2813 C23.9844,296.2813 24.625,296.5625 25.1406,297.1563 C25.625,297.7344 25.9063,298.4844 25.9063,299.2813 L25.9063,300.0625 C25.9063,300.9375 25.6719,301.5313 25.2031,302.0469 C24.6719,302.5938 24.1094,302.7969 23.0938,302.7969 L21.2031,302.7969 Z "/><text fill="#000000" font-family="sans-serif" font-size="12" lengthAdjust="spacingAndGlyphs" textLength="130" x="36" y="303.6543">MegaDatabase.Empty</text><line style="stroke: #A80036; stroke-width: 1.5;" x1="8" x2="168" y1="315.5" y2="315.5"/><line style="stroke: #A80036; stroke-width: 1.5;" x1="8" x2="168" y1="323.5" y2="323.5"/><!--MD5=[37d6e5304215b5e345f427169db70937]
class _1--><rect codeLine="9" fill="#FEFECE" filter="url(#f1n9vta13b37vm)" height="66.7422" id="_1" style="stroke: #A80036; stroke-width: 1.5;" width="173" x="204.5" y="274"/><ellipse cx="219.5" cy="292.9688" fill="#DA70D6" rx="11" ry="11" style="stroke: #A80036; stroke-width: 1.0;"/><path d="M217.0156,296.2656 C216.3594,296.2656 215.9688,296.5781 215.9688,297.125 C215.9688,297.375 216.1094,297.6406 216.3281,297.7969 C216.4844,297.9219 216.7031,297.9688 217.1094,297.9688 L220.5781,297.9688 C222.0625,297.9688 223.0781,297.5781 223.9063,296.6875 C224.6875,295.875 225.0938,294.8281 225.0938,293.5781 L225.0938,292.7813 C225.0938,290.1094 223.2031,288.0625 220.7188,288.0625 L217.1094,288.0625 C216.6563,288.0625 216.5313,288.0781 216.375,288.1719 C216.125,288.3281 215.9688,288.625 215.9688,288.9063 C215.9688,289.4531 216.3438,289.75 217.0156,289.75 L217.0156,296.2656 Z M218.7031,296.2656 L218.7031,289.75 L220.5781,289.75 C221.4844,289.75 222.125,290.0313 222.6406,290.625 C223.125,291.2031 223.4063,291.9531 223.4063,292.75 L223.4063,293.5313 C223.4063,294.4063 223.1719,295 222.7031,295.5156 C222.1719,296.0625 221.6094,296.2656 220.5938,296.2656 L218.7031,296.2656 Z "/><text fill="#000000" font-family="sans-serif" font-size="12" font-style="italic" lengthAdjust="spacingAndGlyphs" textLength="145" x="231.5" y="290.1387">«MegaDatabase.Money»</text><text fill="#000000" font-family="sans-serif" font-size="12" lengthAdjust="spacingAndGlyphs" textLength="35" x="286.5" y="304.1074">query</text><line style="stroke: #A80036; stroke-width: 1.5;" x1="205.5" x2="376.5" y1="311.9375" y2="311.9375"/><ellipse cx="215.5" cy="322.9375" fill="none" rx="3" ry="3" style="stroke: #038048; stroke-width: 1.0;"/><text fill="#000000" font-family="sans-serif" font-size="11" lengthAdjust="spacingAndGlyphs" textLength="68" x="224.5" y="326.1479">amount : int</text><line style="stroke: #A80036; stroke-width: 1.5;" x1="205.5" x2="376.5" y1="332.7422" y2="332.7422"/><!--MD5=[95d1cea1cd7f69d371fe62aa72675e9c]
class _2--><rect codeLine="12" fill="#FEFECE" filter="url(#f1n9vta13b37vm)" height="66.7422" id="_2" style="stroke: #A80036; stroke-width: 1.5;" width="218" x="80" y="7"/><ellipse cx="126.25" cy="25.9688" fill="#DA70D6" rx="11" ry="11" style="stroke: #A80036; stroke-width: 1.0;"/><path d="M123.7656,29.2656 C123.1094,29.2656 122.7188,29.5781 122.7188,30.125 C122.7188,30.375 122.8594,30.6406 123.0781,30.7969 C123.2344,30.9219 123.4531,30.9688 123.8594,30.9688 L127.3281,30.9688 C128.8125,30.9688 129.8281,30.5781 130.6563,29.6875 C131.4375,28.875 131.8438,27.8281 131.8438,26.5781 L131.8438,25.7813 C131.8438,23.1094 129.9531,21.0625 127.4688,21.0625 L123.8594,21.0625 C123.4063,21.0625 123.2813,21.0781 123.125,21.1719 C122.875,21.3281 122.7188,21.625 122.7188,21.9063 C122.7188,22.4531 123.0938,22.75 123.7656,22.75 L123.7656,29.2656 Z M125.4531,29.2656 L125.4531,22.75 L127.3281,22.75 C128.2344,22.75 128.875,23.0313 129.3906,23.625 C129.875,24.2031 130.1563,24.9531 130.1563,25.75 L130.1563,26.5313 C130.1563,27.4063 129.9219,28 129.4531,28.5156 C128.9219,29.0625 128.3594,29.2656 127.3438,29.2656 L125.4531,29.2656 Z "/><text fill="#000000" font-family="sans-serif" font-size="12" font-style="italic" lengthAdjust="spacingAndGlyphs" textLength="106" x="152.25" y="23.1387">«Server.Request»</text><text fill="#000000" font-family="sans-serif" font-size="12" lengthAdjust="spacingAndGlyphs" textLength="117" x="146.75" y="37.1074">secondQueryString</text><line style="stroke: #A80036; stroke-width: 1.5;" x1="81" x2="297" y1="44.9375" y2="44.9375"/><ellipse cx="91" cy="55.9375" fill="none" rx="3" ry="3" style="stroke: #038048; stroke-width: 1.0;"/><text fill="#000000" font-family="sans-serif" font-size="11" lengthAdjust="spacingAndGlyphs" textLength="40" x="100" y="59.1479">query :</text><text fill="#000000" font-family="sans-serif" font-size="11" font-weight="bold" lengthAdjust="spacingAndGlyphs" textLength="148" x="144" y="59.1479">Sequence &lt;Response&gt;</text><line style="stroke: #A80036; stroke-width: 1.5;" x1="81" x2="297" y1="65.7422" y2="65.7422"/><!--MD5=[4df2e88eba431a2a56d213b7bca710d9]
class _3--><rect codeLine="15" fill="#FEFECE" filter="url(#f1n9vta13b37vm)" height="79.5469" id="_3" style="stroke: #A80036; stroke-width: 1.5;" width="225" x="76.5" y="134"/><ellipse cx="129.75" cy="152.9688" fill="#DA70D6" rx="11" ry="11" style="stroke: #A80036; stroke-width: 1.0;"/><path d="M127.2656,156.2656 C126.6094,156.2656 126.2188,156.5781 126.2188,157.125 C126.2188,157.375 126.3594,157.6406 126.5781,157.7969 C126.7344,157.9219 126.9531,157.9688 127.3594,157.9688 L130.8281,157.9688 C132.3125,157.9688 133.3281,157.5781 134.1563,156.6875 C134.9375,155.875 135.3438,154.8281 135.3438,153.5781 L135.3438,152.7813 C135.3438,150.1094 133.4531,148.0625 130.9688,148.0625 L127.3594,148.0625 C126.9063,148.0625 126.7813,148.0781 126.625,148.1719 C126.375,148.3281 126.2188,148.625 126.2188,148.9063 C126.2188,149.4531 126.5938,149.75 127.2656,149.75 L127.2656,156.2656 Z M128.9531,156.2656 L128.9531,149.75 L130.8281,149.75 C131.7344,149.75 132.375,150.0313 132.8906,150.625 C133.375,151.2031 133.6563,151.9531 133.6563,152.75 L133.6563,153.5313 C133.6563,154.4063 133.4219,155 132.9531,155.5156 C132.4219,156.0625 131.8594,156.2656 130.8438,156.2656 L128.9531,156.2656 Z "/><text fill="#000000" font-family="sans-serif" font-size="12" font-style="italic" lengthAdjust="spacingAndGlyphs" textLength="114" x="148.25" y="150.1387">«Server.Response»</text><text fill="#000000" font-family="sans-serif" font-size="12" lengthAdjust="spacingAndGlyphs" textLength="35" x="187.75" y="164.1074">query</text><line style="stroke: #A80036; stroke-width: 1.5;" x1="77.5" x2="300.5" y1="171.9375" y2="171.9375"/><ellipse cx="87.5" cy="182.9375" fill="none" rx="3" ry="3" style="stroke: #038048; stroke-width: 1.0;"/><text fill="#000000" font-family="sans-serif" font-size="11" lengthAdjust="spacingAndGlyphs" textLength="52" x="96.5" y="186.1479">balance :</text><text fill="#000000" font-family="sans-serif" font-size="11" font-weight="bold" lengthAdjust="spacingAndGlyphs" textLength="143" x="152.5" y="186.1479">MegaDatabase.Empty</text><ellipse cx="87.5" cy="195.7422" fill="none" rx="3" ry="3" style="stroke: #038048; stroke-width: 1.0;"/><text fill="#000000" font-family="sans-serif" font-size="11" lengthAdjust="spacingAndGlyphs" textLength="40" x="96.5" y="198.9526">query :</text><text fill="#000000" font-family="sans-serif" font-size="11" font-weight="bold" lengthAdjust="spacingAndGlyphs" textLength="145" x="140.5" y="198.9526">MegaDatabase.Money</text><line style="stroke: #A80036; stroke-width: 1.5;" x1="77.5" x2="300.5" y1="205.5469" y2="205.5469"/><!--MD5=[d55d8d636913339d8dba5a305028d51c]
reverse link _2 to _3--><path codeLine="19" d="M189,87.38 C189,102.533 189,119.241 189,133.843 " fill="none" id="_2&lt;-_3" style="stroke: #A80036; stroke-width: 1.0;"/><polygon fill="#A80036" points="189,74.006,185,80.006,189,86.006,193,80.006,189,74.006" style="stroke: #A80036; stroke-width: 1.0;"/><text fill="#000000" font-family="sans-serif" font-size="13" lengthAdjust="spacingAndGlyphs" textLength="23" x="164.0953" y="123.0652">0..*</text><!--MD5=[7ecbe2165298d12861085e98d6b29611]
reverse link _3 to _0--><path codeLine="20" d="M151.032,224.434 C135.492,244.6667 118.262,267.0997 105.7491,283.391 " fill="none" id="_3&lt;-_0" style="stroke: #A80036; stroke-width: 1.0;"/><polygon fill="#A80036" points="158.97,214.098,152.143,216.42,151.6605,223.6149,158.4876,221.2929,158.97,214.098" style="stroke: #A80036; stroke-width: 1.0;"/><text fill="#000000" font-family="sans-serif" font-size="13" lengthAdjust="spacingAndGlyphs" textLength="24" x="78.7098" y="272.3751">1..1</text><!--MD5=[78d397c859dd83567ec038622751e188]
reverse link _3 to _1--><path codeLine="21" d="M227.539,224.684 C240.334,241.1808 254.245,259.1144 265.772,273.9759 " fill="none" id="_3&lt;-_1" style="stroke: #A80036; stroke-width: 1.0;"/><polygon fill="#A80036" points="219.327,214.098,219.8437,221.2906,226.6818,223.5799,226.165,216.3874,219.327,214.098" style="stroke: #A80036; stroke-width: 1.0;"/><text fill="#000000" font-family="sans-serif" font-size="13" lengthAdjust="spacingAndGlyphs" textLength="24" x="230.049" y="263.0046">1..1</text><!--MD5=[8478b703877a20c5ed7958d86c49c00b]
@startuml
''''''''''''''''''''''''''''''''''''''''''
''                                      ''
''  AUTOGENERATED CODE - - DO NOT EDIT!  ''
''                                      ''
''''''''''''''''''''''''''''''''''''''''''

class "MegaDatabase.Empty" as _0<< (D,orchid) >> {
}
class "query" as _1 << (D,orchid) MegaDatabase.Money >> {
+ amount : int
}
class "secondQueryString" as _2 << (D,orchid) Server.Request >> {
+ query : **Sequence <Response>**
}
class "query" as _3 << (D,orchid) Server.Response >> {
+ balance : **MegaDatabase.Empty**
+ query : **MegaDatabase.Money**
}
_2 *- - "0..*" _3
_3 *- - "1..1 " _0
_3 *- - "1..1 " _1
@enduml

@startuml

class "MegaDatabase.Empty" as _0<< (D,orchid) >> {
}
class "query" as _1 << (D,orchid) MegaDatabase.Money >> {
+ amount : int
}
class "secondQueryString" as _2 << (D,orchid) Server.Request >> {
+ query : **Sequence <Response>**
}
class "query" as _3 << (D,orchid) Server.Response >> {
+ balance : **MegaDatabase.Empty**
+ query : **MegaDatabase.Money**
}
_2 *- - "0..*" _3
_3 *- - "1..1 " _0
_3 *- - "1..1 " _1
@enduml

PlantUML version 1.2020.16beta3(Unknown compile time)
(GPL source distribution)
Java Runtime: Java(TM) SE Runtime Environment
JVM: Java HotSpot(TM) 64-Bit Server VM
Default Encoding: UTF-8
Language: en
Country: US
--></g></svg>