<?xml version="1.0" encoding="UTF-8" standalone="no"?><svg xmlns="http://www.w3.org/2000/svg" xmlns:xlink="http://www.w3.org/1999/xlink" contentScriptType="application/ecmascript" contentStyleType="text/css" height="86px" preserveAspectRatio="none" style="width:244px;height:86px;" version="1.1" viewBox="0 0 244 86" width="244px" zoomAndPan="magnify"><defs><filter height="300%" id="f98d4y5h6unkn" width="300%" x="-1" y="-1"><feGaussianBlur result="blurOut" stdDeviation="2.0"/><feColorMatrix in="blurOut" result="blurOut2" type="matrix" values="0 0 0 0 0 0 0 0 0 0 0 0 0 0 0 0 0 0 .4 0"/><feOffset dx="4.0" dy="4.0" in="blurOut2" result="blurOut3"/><feBlend in="SourceGraphic" in2="blurOut3" mode="normal"/></filter></defs><g><!--MD5=[f77682fd75c3e1fc6a82f566c0814d0f]
class _0--><rect fill="#FEFECE" filter="url(#f98d4y5h6unkn)" height="60.8047" id="_0" style="stroke: #A80036; stroke-width: 1.5;" width="218" x="7" y="7"/><ellipse cx="87.25" cy="23" fill="#DA70D6" rx="11" ry="11" style="stroke: #A80036; stroke-width: 1.0;"/><path d="M84.7656,26.2969 C84.1094,26.2969 83.7188,26.6094 83.7188,27.1563 C83.7188,27.4063 83.8594,27.6719 84.0781,27.8281 C84.2344,27.9531 84.4531,28 84.8594,28 L88.3281,28 C89.8125,28 90.8281,27.6094 91.6563,26.7188 C92.4375,25.9063 92.8438,24.8594 92.8438,23.6094 L92.8438,22.8125 C92.8438,20.1406 90.9531,18.0938 88.4688,18.0938 L84.8594,18.0938 C84.4063,18.0938 84.2813,18.1094 84.125,18.2031 C83.875,18.3594 83.7188,18.6563 83.7188,18.9375 C83.7188,19.4844 84.0938,19.7813 84.7656,19.7813 L84.7656,26.2969 Z M86.4531,26.2969 L86.4531,19.7813 L88.3281,19.7813 C89.2344,19.7813 89.875,20.0625 90.3906,20.6563 C90.875,21.2344 91.1563,21.9844 91.1563,22.7813 L91.1563,23.5625 C91.1563,24.4375 90.9219,25.0313 90.4531,25.5469 C89.9219,26.0938 89.3594,26.2969 88.3438,26.2969 L86.4531,26.2969 Z "/><text fill="#000000" font-family="sans-serif" font-size="12" lengthAdjust="spacingAndGlyphs" textLength="49" x="107.75" y="27.1543">Request</text><line style="stroke: #A80036; stroke-width: 1.5;" x1="8" x2="224" y1="39" y2="39"/><ellipse cx="18" cy="50" fill="none" rx="3" ry="3" style="stroke: #038048; stroke-width: 1.0;"/><text fill="#000000" font-family="sans-serif" font-size="11" lengthAdjust="spacingAndGlyphs" textLength="40" x="27" y="53.2104">query :</text><text fill="#000000" font-family="sans-serif" font-size="11" font-weight="bold" lengthAdjust="spacingAndGlyphs" textLength="148" x="71" y="53.2104">Sequence &lt;Response&gt;</text><line style="stroke: #A80036; stroke-width: 1.5;" x1="8" x2="224" y1="59.8047" y2="59.8047"/><!--MD5=[bf7e7e592dcdbda76da3dae1d43fb090]
@startuml
''''''''''''''''''''''''''''''''''''''''''
''                                      ''
''  AUTOGENERATED CODE - - DO NOT EDIT!  ''
''                                      ''
''''''''''''''''''''''''''''''''''''''''''

class "Request" as _0 << (D,orchid) >> {
+ query : **Sequence <Response>**
}
@enduml

@startuml

class "Request" as _0 << (D,orchid) >> {
+ query : **Sequence <Response>**
}
@enduml

PlantUML version 1.2020.15beta1(Unknown compile time)
(GPL source distribution)
Java Runtime: Java(TM) SE Runtime Environment
JVM: Java HotSpot(TM) 64-Bit Server VM
Default Encoding: UTF-8
Language: en
Country: US
--></g></svg>