<?xml version="1.0" encoding="UTF-8" standalone="no"?><svg xmlns="http://www.w3.org/2000/svg" xmlns:xlink="http://www.w3.org/1999/xlink" contentScriptType="application/ecmascript" contentStyleType="text/css" height="201px" preserveAspectRatio="none" style="width:663px;height:201px;" version="1.1" viewBox="0 0 663 201" width="663px" zoomAndPan="magnify"><defs><filter height="300%" id="fusro0dftxyrp" width="300%" x="-1" y="-1"><feGaussianBlur result="blurOut" stdDeviation="2.0"/><feColorMatrix in="blurOut" result="blurOut2" type="matrix" values="0 0 0 0 0 0 0 0 0 0 0 0 0 0 0 0 0 0 .4 0"/><feOffset dx="4.0" dy="4.0" in="blurOut2" result="blurOut3"/><feBlend in="SourceGraphic" in2="blurOut3" mode="normal"/></filter></defs><g><!--MD5=[f77682fd75c3e1fc6a82f566c0814d0f]
class _0--><rect fill="#FEFECE" filter="url(#fusro0dftxyrp)" height="48" id="_0" style="stroke: #A80036; stroke-width: 1.5;" width="169" x="7" y="16.5"/><ellipse cx="22" cy="32.5" fill="#DA70D6" rx="11" ry="11" style="stroke: #A80036; stroke-width: 1.0;"/><path d="M21.5938,28.3125 L21.5938,36.2969 L22.25,36.2969 Q23.6875,36.2969 24.2969,35.3906 Q24.9219,34.4688 24.9219,32.2969 Q24.9219,30.125 24.2969,29.2188 Q23.6875,28.3125 22.25,28.3125 L21.5938,28.3125 Z M19.1406,26.1094 L21.7656,26.1094 Q24.7969,26.1094 26.125,27.5625 Q27.4688,29 27.4688,32.2969 Q27.4688,35.5938 26.125,37.0469 Q24.7969,38.5 21.7656,38.5 L19.1406,38.5 L19.1406,26.1094 Z "/><text fill="#000000" font-family="sans-serif" font-size="12" lengthAdjust="spacingAndGlyphs" textLength="137" x="36" y="36.6543">MegaDatabase.Empty</text><line style="stroke: #A80036; stroke-width: 1.5;" x1="8" x2="175" y1="48.5" y2="48.5"/><line style="stroke: #A80036; stroke-width: 1.5;" x1="8" x2="175" y1="56.5" y2="56.5"/><!--MD5=[37d6e5304215b5e345f427169db70937]
class _1--><rect fill="#FEFECE" filter="url(#fusro0dftxyrp)" height="66.7422" id="_1" style="stroke: #A80036; stroke-width: 1.5;" width="181" x="211" y="7"/><ellipse cx="226" cy="25.9688" fill="#DA70D6" rx="11" ry="11" style="stroke: #A80036; stroke-width: 1.0;"/><path d="M225.5938,21.7813 L225.5938,29.7656 L226.25,29.7656 Q227.6875,29.7656 228.2969,28.8594 Q228.9219,27.9375 228.9219,25.7656 Q228.9219,23.5938 228.2969,22.6875 Q227.6875,21.7813 226.25,21.7813 L225.5938,21.7813 Z M223.1406,19.5781 L225.7656,19.5781 Q228.7969,19.5781 230.125,21.0313 Q231.4688,22.4688 231.4688,25.7656 Q231.4688,29.0625 230.125,30.5156 Q228.7969,31.9688 225.7656,31.9688 L223.1406,31.9688 L223.1406,19.5781 Z "/><text fill="#000000" font-family="sans-serif" font-size="12" font-style="italic" lengthAdjust="spacingAndGlyphs" textLength="153" x="238" y="23.1387">«MegaDatabase.Money»</text><text fill="#000000" font-family="sans-serif" font-size="12" lengthAdjust="spacingAndGlyphs" textLength="35" x="297" y="37.1074">query</text><line style="stroke: #A80036; stroke-width: 1.5;" x1="212" x2="391" y1="44.9375" y2="44.9375"/><ellipse cx="222" cy="55.9375" fill="none" rx="3" ry="3" style="stroke: #038048; stroke-width: 1.0;"/><text fill="#000000" font-family="sans-serif" font-size="11" lengthAdjust="spacingAndGlyphs" textLength="69" x="231" y="59.1479">amount : int</text><line style="stroke: #A80036; stroke-width: 1.5;" x1="212" x2="391" y1="65.7422" y2="65.7422"/><!--MD5=[95d1cea1cd7f69d371fe62aa72675e9c]
class _2--><rect fill="#FEFECE" filter="url(#fusro0dftxyrp)" height="66.7422" id="_2" style="stroke: #A80036; stroke-width: 1.5;" width="217" x="427" y="7"/><ellipse cx="478.25" cy="25.9688" fill="#DA70D6" rx="11" ry="11" style="stroke: #A80036; stroke-width: 1.0;"/><path d="M477.8438,21.7813 L477.8438,29.7656 L478.5,29.7656 Q479.9375,29.7656 480.5469,28.8594 Q481.1719,27.9375 481.1719,25.7656 Q481.1719,23.5938 480.5469,22.6875 Q479.9375,21.7813 478.5,21.7813 L477.8438,21.7813 Z M475.3906,19.5781 L478.0156,19.5781 Q481.0469,19.5781 482.375,21.0313 Q483.7188,22.4688 483.7188,25.7656 Q483.7188,29.0625 482.375,30.5156 Q481.0469,31.9688 478.0156,31.9688 L475.3906,31.9688 L475.3906,19.5781 Z "/><text fill="#000000" font-family="sans-serif" font-size="12" font-style="italic" lengthAdjust="spacingAndGlyphs" textLength="110" x="496.75" y="23.1387">«Server.Request»</text><text fill="#000000" font-family="sans-serif" font-size="12" lengthAdjust="spacingAndGlyphs" textLength="32" x="535.75" y="37.1074">input</text><line style="stroke: #A80036; stroke-width: 1.5;" x1="428" x2="643" y1="44.9375" y2="44.9375"/><ellipse cx="438" cy="55.9375" fill="none" rx="3" ry="3" style="stroke: #038048; stroke-width: 1.0;"/><text fill="#000000" font-family="sans-serif" font-size="11" lengthAdjust="spacingAndGlyphs" textLength="40" x="447" y="59.1479">query :</text><text fill="#000000" font-family="sans-serif" font-size="11" font-weight="bold" lengthAdjust="spacingAndGlyphs" textLength="147" x="491" y="59.1479">Sequence &lt;Response&gt;</text><line style="stroke: #A80036; stroke-width: 1.5;" x1="428" x2="643" y1="65.7422" y2="65.7422"/><!--MD5=[4df2e88eba431a2a56d213b7bca710d9]
class _3--><rect fill="#FEFECE" filter="url(#fusro0dftxyrp)" height="48" id="_3" style="stroke: #A80036; stroke-width: 1.5;" width="46" x="512.5" y="134"/><ellipse cx="527.5" cy="150" fill="#ADD1B2" rx="11" ry="11" style="stroke: #A80036; stroke-width: 1.0;"/><path d="M530.4688,155.6406 Q529.8906,155.9375 529.25,156.0781 Q528.6094,156.2344 527.9063,156.2344 Q525.4063,156.2344 524.0781,154.5938 Q522.7656,152.9375 522.7656,149.8125 Q522.7656,146.6875 524.0781,145.0313 Q525.4063,143.375 527.9063,143.375 Q528.6094,143.375 529.25,143.5313 Q529.9063,143.6875 530.4688,143.9844 L530.4688,146.7031 Q529.8438,146.125 529.25,145.8594 Q528.6563,145.5781 528.0313,145.5781 Q526.6875,145.5781 526,146.6563 Q525.3125,147.7188 525.3125,149.8125 Q525.3125,151.9063 526,152.9844 Q526.6875,154.0469 528.0313,154.0469 Q528.6563,154.0469 529.25,153.7813 Q529.8438,153.5 530.4688,152.9219 L530.4688,155.6406 Z "/><text fill="#000000" font-family="sans-serif" font-size="12" lengthAdjust="spacingAndGlyphs" textLength="14" x="541.5" y="154.1543">_3</text><line style="stroke: #A80036; stroke-width: 1.5;" x1="513.5" x2="557.5" y1="166" y2="166"/><line style="stroke: #A80036; stroke-width: 1.5;" x1="513.5" x2="557.5" y1="174" y2="174"/><!--MD5=[d55d8d636913339d8dba5a305028d51c]
reverse link _2 to _3--><path d="M535.5,87.6186 C535.5,103.4003 535.5,120.3485 535.5,133.6584 " fill="none" id="_2&lt;-_3" style="stroke: #A80036; stroke-width: 1.0;"/><polygon fill="#A80036" points="535.5,74.1708,531.5,80.1708,535.5,86.1708,539.5,80.1708,535.5,74.1708" style="stroke: #A80036; stroke-width: 1.0;"/><text fill="#000000" font-family="sans-serif" font-size="13" lengthAdjust="spacingAndGlyphs" textLength="23" x="509.6969" y="122.9801">0..*</text><!--MD5=[bc3b56a8d87c428405745a5eb6dd2e58]
@startuml
''''''''''''''''''''''''''''''''''''''''''
''                                      ''
''  AUTOGENERATED CODE - - DO NOT EDIT!  ''
''                                      ''
''''''''''''''''''''''''''''''''''''''''''

class "MegaDatabase.Empty" as _0<< (D,orchid) >> {
}
class "query" as _1 << (D,orchid) MegaDatabase.Money >> {
+ amount : int
}
class "input" as _2 << (D,orchid) Server.Request >> {
+ query : **Sequence <Response>**
}
_2 *- - "0..*" _3
@enduml

@startuml

class "MegaDatabase.Empty" as _0<< (D,orchid) >> {
}
class "query" as _1 << (D,orchid) MegaDatabase.Money >> {
+ amount : int
}
class "input" as _2 << (D,orchid) Server.Request >> {
+ query : **Sequence <Response>**
}
_2 *- - "0..*" _3
@enduml

PlantUML version 1.2020.15(Sun Jun 28 11:39:45 UTC 2020)
(GPL source distribution)
Java Runtime: OpenJDK Runtime Environment
JVM: OpenJDK 64-Bit Server VM
Default Encoding: UTF-8
Language: en
Country: null
--></g></svg>