<?xml version="1.0" encoding="UTF-8" standalone="no"?><svg xmlns="http://www.w3.org/2000/svg" xmlns:xlink="http://www.w3.org/1999/xlink" contentScriptType="application/ecmascript" contentStyleType="text/css" height="359px" preserveAspectRatio="none" style="width:411px;height:359px;" version="1.1" viewBox="0 0 411 359" width="411px" zoomAndPan="magnify"><defs><filter height="300%" id="fszvik2a0lgwo" width="300%" x="-1" y="-1"><feGaussianBlur result="blurOut" stdDeviation="2.0"/><feColorMatrix in="blurOut" result="blurOut2" type="matrix" values="0 0 0 0 0 0 0 0 0 0 0 0 0 0 0 0 0 0 .4 0"/><feOffset dx="4.0" dy="4.0" in="blurOut2" result="blurOut3"/><feBlend in="SourceGraphic" in2="blurOut3" mode="normal"/></filter></defs><g><!--MD5=[f77682fd75c3e1fc6a82f566c0814d0f]
class _0--><rect fill="#FEFECE" filter="url(#fszvik2a0lgwo)" height="48" id="_0" style="stroke: #A80036; stroke-width: 1.5;" width="169" x="7" y="283.5"/><ellipse cx="22" cy="299.5" fill="#DA70D6" rx="11" ry="11" style="stroke: #A80036; stroke-width: 1.0;"/><path d="M21.5938,295.3125 L21.5938,303.2969 L22.25,303.2969 Q23.6875,303.2969 24.2969,302.3906 Q24.9219,301.4688 24.9219,299.2969 Q24.9219,297.125 24.2969,296.2188 Q23.6875,295.3125 22.25,295.3125 L21.5938,295.3125 Z M19.1406,293.1094 L21.7656,293.1094 Q24.7969,293.1094 26.125,294.5625 Q27.4688,296 27.4688,299.2969 Q27.4688,302.5938 26.125,304.0469 Q24.7969,305.5 21.7656,305.5 L19.1406,305.5 L19.1406,293.1094 Z "/><text fill="#000000" font-family="sans-serif" font-size="12" lengthAdjust="spacingAndGlyphs" textLength="137" x="36" y="303.6543">MegaDatabase.Empty</text><line style="stroke: #A80036; stroke-width: 1.5;" x1="8" x2="175" y1="315.5" y2="315.5"/><line style="stroke: #A80036; stroke-width: 1.5;" x1="8" x2="175" y1="323.5" y2="323.5"/><!--MD5=[37d6e5304215b5e345f427169db70937]
class _1--><rect fill="#FEFECE" filter="url(#fszvik2a0lgwo)" height="66.7422" id="_1" style="stroke: #A80036; stroke-width: 1.5;" width="181" x="211" y="274"/><ellipse cx="226" cy="292.9688" fill="#DA70D6" rx="11" ry="11" style="stroke: #A80036; stroke-width: 1.0;"/><path d="M225.5938,288.7813 L225.5938,296.7656 L226.25,296.7656 Q227.6875,296.7656 228.2969,295.8594 Q228.9219,294.9375 228.9219,292.7656 Q228.9219,290.5938 228.2969,289.6875 Q227.6875,288.7813 226.25,288.7813 L225.5938,288.7813 Z M223.1406,286.5781 L225.7656,286.5781 Q228.7969,286.5781 230.125,288.0313 Q231.4688,289.4688 231.4688,292.7656 Q231.4688,296.0625 230.125,297.5156 Q228.7969,298.9688 225.7656,298.9688 L223.1406,298.9688 L223.1406,286.5781 Z "/><text fill="#000000" font-family="sans-serif" font-size="12" font-style="italic" lengthAdjust="spacingAndGlyphs" textLength="153" x="238" y="290.1387">«MegaDatabase.Money»</text><text fill="#000000" font-family="sans-serif" font-size="12" lengthAdjust="spacingAndGlyphs" textLength="35" x="297" y="304.1074">query</text><line style="stroke: #A80036; stroke-width: 1.5;" x1="212" x2="391" y1="311.9375" y2="311.9375"/><ellipse cx="222" cy="322.9375" fill="none" rx="3" ry="3" style="stroke: #038048; stroke-width: 1.0;"/><text fill="#000000" font-family="sans-serif" font-size="11" lengthAdjust="spacingAndGlyphs" textLength="69" x="231" y="326.1479">amount : int</text><line style="stroke: #A80036; stroke-width: 1.5;" x1="212" x2="391" y1="332.7422" y2="332.7422"/><!--MD5=[95d1cea1cd7f69d371fe62aa72675e9c]
class _2--><rect fill="#FEFECE" filter="url(#fszvik2a0lgwo)" height="66.7422" id="_2" style="stroke: #A80036; stroke-width: 1.5;" width="217" x="88" y="7"/><ellipse cx="139.25" cy="25.9688" fill="#DA70D6" rx="11" ry="11" style="stroke: #A80036; stroke-width: 1.0;"/><path d="M138.8438,21.7813 L138.8438,29.7656 L139.5,29.7656 Q140.9375,29.7656 141.5469,28.8594 Q142.1719,27.9375 142.1719,25.7656 Q142.1719,23.5938 141.5469,22.6875 Q140.9375,21.7813 139.5,21.7813 L138.8438,21.7813 Z M136.3906,19.5781 L139.0156,19.5781 Q142.0469,19.5781 143.375,21.0313 Q144.7188,22.4688 144.7188,25.7656 Q144.7188,29.0625 143.375,30.5156 Q142.0469,31.9688 139.0156,31.9688 L136.3906,31.9688 L136.3906,19.5781 Z "/><text fill="#000000" font-family="sans-serif" font-size="12" font-style="italic" lengthAdjust="spacingAndGlyphs" textLength="110" x="157.75" y="23.1387">«Server.Request»</text><text fill="#000000" font-family="sans-serif" font-size="12" lengthAdjust="spacingAndGlyphs" textLength="52" x="186.75" y="37.1074">Request</text><line style="stroke: #A80036; stroke-width: 1.5;" x1="89" x2="304" y1="44.9375" y2="44.9375"/><ellipse cx="99" cy="55.9375" fill="none" rx="3" ry="3" style="stroke: #038048; stroke-width: 1.0;"/><text fill="#000000" font-family="sans-serif" font-size="11" lengthAdjust="spacingAndGlyphs" textLength="40" x="108" y="59.1479">query :</text><text fill="#000000" font-family="sans-serif" font-size="11" font-weight="bold" lengthAdjust="spacingAndGlyphs" textLength="147" x="152" y="59.1479">Sequence &lt;Response&gt;</text><line style="stroke: #A80036; stroke-width: 1.5;" x1="89" x2="304" y1="65.7422" y2="65.7422"/><!--MD5=[4df2e88eba431a2a56d213b7bca710d9]
class _3--><rect fill="#FEFECE" filter="url(#fszvik2a0lgwo)" height="79.5469" id="_3" style="stroke: #A80036; stroke-width: 1.5;" width="221" x="86" y="134"/><ellipse cx="134.25" cy="152.9688" fill="#DA70D6" rx="11" ry="11" style="stroke: #A80036; stroke-width: 1.0;"/><path d="M133.8438,148.7813 L133.8438,156.7656 L134.5,156.7656 Q135.9375,156.7656 136.5469,155.8594 Q137.1719,154.9375 137.1719,152.7656 Q137.1719,150.5938 136.5469,149.6875 Q135.9375,148.7813 134.5,148.7813 L133.8438,148.7813 Z M131.3906,146.5781 L134.0156,146.5781 Q137.0469,146.5781 138.375,148.0313 Q139.7188,149.4688 139.7188,152.7656 Q139.7188,156.0625 138.375,157.5156 Q137.0469,158.9688 134.0156,158.9688 L131.3906,158.9688 L131.3906,146.5781 Z "/><text fill="#000000" font-family="sans-serif" font-size="12" font-style="italic" lengthAdjust="spacingAndGlyphs" textLength="120" x="152.75" y="150.1387">«Server.Response»</text><text fill="#000000" font-family="sans-serif" font-size="12" lengthAdjust="spacingAndGlyphs" textLength="35" x="195.25" y="164.1074">query</text><line style="stroke: #A80036; stroke-width: 1.5;" x1="87" x2="306" y1="171.9375" y2="171.9375"/><ellipse cx="97" cy="182.9375" fill="none" rx="3" ry="3" style="stroke: #038048; stroke-width: 1.0;"/><text fill="#000000" font-family="sans-serif" font-size="11" lengthAdjust="spacingAndGlyphs" textLength="52" x="106" y="186.1479">balance :</text><text fill="#000000" font-family="sans-serif" font-size="11" font-weight="bold" lengthAdjust="spacingAndGlyphs" textLength="139" x="162" y="186.1479">MegaDatabase.Empty</text><ellipse cx="97" cy="195.7422" fill="none" rx="3" ry="3" style="stroke: #038048; stroke-width: 1.0;"/><text fill="#000000" font-family="sans-serif" font-size="11" lengthAdjust="spacingAndGlyphs" textLength="40" x="106" y="198.9526">query :</text><text fill="#000000" font-family="sans-serif" font-size="11" font-weight="bold" lengthAdjust="spacingAndGlyphs" textLength="142" x="150" y="198.9526">MegaDatabase.Money</text><line style="stroke: #A80036; stroke-width: 1.5;" x1="87" x2="306" y1="205.5469" y2="205.5469"/><!--MD5=[d55d8d636913339d8dba5a305028d51c]
reverse link _2 to _3--><path d="M196.5,87.5101 C196.5,102.5764 196.5,119.1171 196.5,133.6626 " fill="none" id="_2&lt;-_3" style="stroke: #A80036; stroke-width: 1.0;"/><polygon fill="#A80036" points="196.5,74.1877,192.5,80.1877,196.5,86.1877,200.5,80.1877,196.5,74.1877" style="stroke: #A80036; stroke-width: 1.0;"/><text fill="#000000" font-family="sans-serif" font-size="13" lengthAdjust="spacingAndGlyphs" textLength="23" x="171.5953" y="122.8549">0..*</text><!--MD5=[7ecbe2165298d12861085e98d6b29611]
reverse link _3 to _0--><path d="M156.8678,224.3895 C140.9667,244.6067 123.3872,266.9578 110.4672,283.3846 " fill="none" id="_3&lt;-_0" style="stroke: #A80036; stroke-width: 1.0;"/><polygon fill="#A80036" points="164.9965,214.0544,158.1432,216.2976,157.5779,223.4865,164.4312,221.2433,164.9965,214.0544" style="stroke: #A80036; stroke-width: 1.0;"/><text fill="#000000" font-family="sans-serif" font-size="13" lengthAdjust="spacingAndGlyphs" textLength="24" x="83.74" y="272.3671">1..1</text><!--MD5=[78d397c859dd83567ec038622751e188]
reverse link _3 to _1--><path d="M236.3079,224.6129 C249.2389,241.0537 263.2626,258.8839 274.9786,273.78 " fill="none" id="_3&lt;-_1" style="stroke: #A80036; stroke-width: 1.0;"/><polygon fill="#A80036" points="228.0035,214.0544,228.5688,221.2433,235.4221,223.4865,234.8568,216.2976,228.0035,214.0544" style="stroke: #A80036; stroke-width: 1.0;"/><text fill="#000000" font-family="sans-serif" font-size="13" lengthAdjust="spacingAndGlyphs" textLength="24" x="239.2542" y="263.0266">1..1</text><!--MD5=[d06e6dd1505728a88ea63328493f3812]
@startuml
''''''''''''''''''''''''''''''''''''''''''
''                                      ''
''  AUTOGENERATED CODE - - DO NOT EDIT!  ''
''                                      ''
''''''''''''''''''''''''''''''''''''''''''

class "MegaDatabase.Empty" as _0<< (D,orchid) >> {
}
class "query" as _1 << (D,orchid) MegaDatabase.Money >> {
+ amount : int
}
class "Request" as _2 << (D,orchid) Server.Request >> {
+ query : **Sequence <Response>**
}
class "query" as _3 << (D,orchid) Server.Response >> {
+ balance : **MegaDatabase.Empty**
+ query : **MegaDatabase.Money**
}
_2 *- - "0..*" _3
_3 *- - "1..1 " _0
_3 *- - "1..1 " _1
@enduml

@startuml

class "MegaDatabase.Empty" as _0<< (D,orchid) >> {
}
class "query" as _1 << (D,orchid) MegaDatabase.Money >> {
+ amount : int
}
class "Request" as _2 << (D,orchid) Server.Request >> {
+ query : **Sequence <Response>**
}
class "query" as _3 << (D,orchid) Server.Response >> {
+ balance : **MegaDatabase.Empty**
+ query : **MegaDatabase.Money**
}
_2 *- - "0..*" _3
_3 *- - "1..1 " _0
_3 *- - "1..1 " _1
@enduml

PlantUML version 1.2020.15(Sun Jun 28 11:39:45 UTC 2020)
(GPL source distribution)
Java Runtime: OpenJDK Runtime Environment
JVM: OpenJDK 64-Bit Server VM
Default Encoding: UTF-8
Language: en
Country: null
--></g></svg>