<?xml version="1.0" encoding="UTF-8" standalone="no"?><svg xmlns="http://www.w3.org/2000/svg" xmlns:xlink="http://www.w3.org/1999/xlink" contentScriptType="application/ecmascript" contentStyleType="text/css" height="201px" preserveAspectRatio="none" style="width:650px;height:201px;" version="1.1" viewBox="0 0 650 201" width="650px" zoomAndPan="magnify"><defs><filter height="300%" id="f1c0h6ddm3hzti" width="300%" x="-1" y="-1"><feGaussianBlur result="blurOut" stdDeviation="2.0"/><feColorMatrix in="blurOut" result="blurOut2" type="matrix" values="0 0 0 0 0 0 0 0 0 0 0 0 0 0 0 0 0 0 .4 0"/><feOffset dx="4.0" dy="4.0" in="blurOut2" result="blurOut3"/><feBlend in="SourceGraphic" in2="blurOut3" mode="normal"/></filter></defs><g><!--MD5=[f77682fd75c3e1fc6a82f566c0814d0f]
class _0--><rect codeLine="7" fill="#FEFECE" filter="url(#f1c0h6ddm3hzti)" height="48" id="_0" style="stroke: #A80036; stroke-width: 1.5;" width="162" x="7" y="16.5"/><ellipse cx="22" cy="32.5" fill="#DA70D6" rx="11" ry="11" style="stroke: #A80036; stroke-width: 1.0;"/><path d="M19.5156,35.7969 C18.8594,35.7969 18.4688,36.1094 18.4688,36.6563 C18.4688,36.9063 18.6094,37.1719 18.8281,37.3281 C18.9844,37.4531 19.2031,37.5 19.6094,37.5 L23.0781,37.5 C24.5625,37.5 25.5781,37.1094 26.4063,36.2188 C27.1875,35.4063 27.5938,34.3594 27.5938,33.1094 L27.5938,32.3125 C27.5938,29.6406 25.7031,27.5938 23.2188,27.5938 L19.6094,27.5938 C19.1563,27.5938 19.0313,27.6094 18.875,27.7031 C18.625,27.8594 18.4688,28.1563 18.4688,28.4375 C18.4688,28.9844 18.8438,29.2813 19.5156,29.2813 L19.5156,35.7969 Z M21.2031,35.7969 L21.2031,29.2813 L23.0781,29.2813 C23.9844,29.2813 24.625,29.5625 25.1406,30.1563 C25.625,30.7344 25.9063,31.4844 25.9063,32.2813 L25.9063,33.0625 C25.9063,33.9375 25.6719,34.5313 25.2031,35.0469 C24.6719,35.5938 24.1094,35.7969 23.0938,35.7969 L21.2031,35.7969 Z "/><text fill="#000000" font-family="sans-serif" font-size="12" lengthAdjust="spacingAndGlyphs" textLength="130" x="36" y="36.6543">MegaDatabase.Empty</text><line style="stroke: #A80036; stroke-width: 1.5;" x1="8" x2="168" y1="48.5" y2="48.5"/><line style="stroke: #A80036; stroke-width: 1.5;" x1="8" x2="168" y1="56.5" y2="56.5"/><!--MD5=[37d6e5304215b5e345f427169db70937]
class _1--><rect codeLine="9" fill="#FEFECE" filter="url(#f1c0h6ddm3hzti)" height="66.7422" id="_1" style="stroke: #A80036; stroke-width: 1.5;" width="173" x="204.5" y="7"/><ellipse cx="219.5" cy="25.9688" fill="#DA70D6" rx="11" ry="11" style="stroke: #A80036; stroke-width: 1.0;"/><path d="M217.0156,29.2656 C216.3594,29.2656 215.9688,29.5781 215.9688,30.125 C215.9688,30.375 216.1094,30.6406 216.3281,30.7969 C216.4844,30.9219 216.7031,30.9688 217.1094,30.9688 L220.5781,30.9688 C222.0625,30.9688 223.0781,30.5781 223.9063,29.6875 C224.6875,28.875 225.0938,27.8281 225.0938,26.5781 L225.0938,25.7813 C225.0938,23.1094 223.2031,21.0625 220.7188,21.0625 L217.1094,21.0625 C216.6563,21.0625 216.5313,21.0781 216.375,21.1719 C216.125,21.3281 215.9688,21.625 215.9688,21.9063 C215.9688,22.4531 216.3438,22.75 217.0156,22.75 L217.0156,29.2656 Z M218.7031,29.2656 L218.7031,22.75 L220.5781,22.75 C221.4844,22.75 222.125,23.0313 222.6406,23.625 C223.125,24.2031 223.4063,24.9531 223.4063,25.75 L223.4063,26.5313 C223.4063,27.4063 223.1719,28 222.7031,28.5156 C222.1719,29.0625 221.6094,29.2656 220.5938,29.2656 L218.7031,29.2656 Z "/><text fill="#000000" font-family="sans-serif" font-size="12" font-style="italic" lengthAdjust="spacingAndGlyphs" textLength="145" x="231.5" y="23.1387">«MegaDatabase.Money»</text><text fill="#000000" font-family="sans-serif" font-size="12" lengthAdjust="spacingAndGlyphs" textLength="35" x="286.5" y="37.1074">query</text><line style="stroke: #A80036; stroke-width: 1.5;" x1="205.5" x2="376.5" y1="44.9375" y2="44.9375"/><ellipse cx="215.5" cy="55.9375" fill="none" rx="3" ry="3" style="stroke: #038048; stroke-width: 1.0;"/><text fill="#000000" font-family="sans-serif" font-size="11" lengthAdjust="spacingAndGlyphs" textLength="68" x="224.5" y="59.1479">amount : int</text><line style="stroke: #A80036; stroke-width: 1.5;" x1="205.5" x2="376.5" y1="65.7422" y2="65.7422"/><!--MD5=[95d1cea1cd7f69d371fe62aa72675e9c]
class _2--><rect codeLine="12" fill="#FEFECE" filter="url(#f1c0h6ddm3hzti)" height="66.7422" id="_2" style="stroke: #A80036; stroke-width: 1.5;" width="218" x="413" y="7"/><ellipse cx="466.75" cy="25.9688" fill="#DA70D6" rx="11" ry="11" style="stroke: #A80036; stroke-width: 1.0;"/><path d="M464.2656,29.2656 C463.6094,29.2656 463.2188,29.5781 463.2188,30.125 C463.2188,30.375 463.3594,30.6406 463.5781,30.7969 C463.7344,30.9219 463.9531,30.9688 464.3594,30.9688 L467.8281,30.9688 C469.3125,30.9688 470.3281,30.5781 471.1563,29.6875 C471.9375,28.875 472.3438,27.8281 472.3438,26.5781 L472.3438,25.7813 C472.3438,23.1094 470.4531,21.0625 467.9688,21.0625 L464.3594,21.0625 C463.9063,21.0625 463.7813,21.0781 463.625,21.1719 C463.375,21.3281 463.2188,21.625 463.2188,21.9063 C463.2188,22.4531 463.5938,22.75 464.2656,22.75 L464.2656,29.2656 Z M465.9531,29.2656 L465.9531,22.75 L467.8281,22.75 C468.7344,22.75 469.375,23.0313 469.8906,23.625 C470.375,24.2031 470.6563,24.9531 470.6563,25.75 L470.6563,26.5313 C470.6563,27.4063 470.4219,28 469.9531,28.5156 C469.4219,29.0625 468.8594,29.2656 467.8438,29.2656 L465.9531,29.2656 Z "/><text fill="#000000" font-family="sans-serif" font-size="12" font-style="italic" lengthAdjust="spacingAndGlyphs" textLength="106" x="485.25" y="23.1387">«Server.Request»</text><text fill="#000000" font-family="sans-serif" font-size="12" lengthAdjust="spacingAndGlyphs" textLength="70" x="503.25" y="37.1074">queryString</text><line style="stroke: #A80036; stroke-width: 1.5;" x1="414" x2="630" y1="44.9375" y2="44.9375"/><ellipse cx="424" cy="55.9375" fill="none" rx="3" ry="3" style="stroke: #038048; stroke-width: 1.0;"/><text fill="#000000" font-family="sans-serif" font-size="11" lengthAdjust="spacingAndGlyphs" textLength="40" x="433" y="59.1479">query :</text><text fill="#000000" font-family="sans-serif" font-size="11" font-weight="bold" lengthAdjust="spacingAndGlyphs" textLength="148" x="477" y="59.1479">Sequence &lt;Response&gt;</text><line style="stroke: #A80036; stroke-width: 1.5;" x1="414" x2="630" y1="65.7422" y2="65.7422"/><!--MD5=[4df2e88eba431a2a56d213b7bca710d9]
class _3--><rect fill="#FEFECE" filter="url(#f1c0h6ddm3hzti)" height="48" id="_3" style="stroke: #A80036; stroke-width: 1.5;" width="46" x="499" y="134"/><ellipse cx="514" cy="150" fill="#ADD1B2" rx="11" ry="11" style="stroke: #A80036; stroke-width: 1.0;"/><path d="M516.3438,145.6719 C515.4063,145.2344 514.8125,145.0938 513.9375,145.0938 C511.3125,145.0938 509.3125,147.1719 509.3125,149.8906 L509.3125,151.0156 C509.3125,153.5938 511.4219,155.4844 514.3125,155.4844 C515.5313,155.4844 516.6875,155.1875 517.4375,154.6406 C518.0156,154.2344 518.3438,153.7813 518.3438,153.3906 C518.3438,152.9375 517.9531,152.5469 517.4844,152.5469 C517.2656,152.5469 517.0625,152.625 516.875,152.8125 C516.4219,153.2969 516.4219,153.2969 516.2344,153.3906 C515.8125,153.6563 515.125,153.7813 514.3594,153.7813 C512.3125,153.7813 511.0156,152.6875 511.0156,150.9844 L511.0156,149.8906 C511.0156,148.1094 512.2656,146.7969 514,146.7969 C514.5781,146.7969 515.1875,146.9531 515.6563,147.2031 C516.1406,147.4844 516.3125,147.7031 516.4063,148.1094 C516.4688,148.5156 516.5,148.6406 516.6406,148.7656 C516.7813,148.9063 517.0156,149.0156 517.2344,149.0156 C517.5,149.0156 517.7656,148.875 517.9375,148.6563 C518.0469,148.5 518.0781,148.3125 518.0781,147.8906 L518.0781,146.4688 C518.0781,146.0313 518.0625,145.9063 517.9688,145.75 C517.8125,145.4844 517.5313,145.3438 517.2344,145.3438 C516.9375,145.3438 516.7344,145.4375 516.5156,145.75 L516.3438,145.6719 Z "/><text fill="#000000" font-family="sans-serif" font-size="12" lengthAdjust="spacingAndGlyphs" textLength="14" x="528" y="154.1543">_3</text><line style="stroke: #A80036; stroke-width: 1.5;" x1="500" x2="544" y1="166" y2="166"/><line style="stroke: #A80036; stroke-width: 1.5;" x1="500" x2="544" y1="174" y2="174"/><!--MD5=[d55d8d636913339d8dba5a305028d51c]
reverse link _2 to _3--><path codeLine="15" d="M522,87.7207 C522,103.4981 522,120.4724 522,133.6703 " fill="none" id="_2&lt;-_3" style="stroke: #A80036; stroke-width: 1.0;"/><polygon fill="#A80036" points="522,74.289,518,80.289,522,86.289,526,80.289,522,74.289" style="stroke: #A80036; stroke-width: 1.0;"/><text fill="#000000" font-family="sans-serif" font-size="13" lengthAdjust="spacingAndGlyphs" textLength="23" x="496.1969" y="122.9949">0..*</text><!--MD5=[db81470d5181ae85e49617ff05bb040d]
@startuml
''''''''''''''''''''''''''''''''''''''''''
''                                      ''
''  AUTOGENERATED CODE - - DO NOT EDIT!  ''
''                                      ''
''''''''''''''''''''''''''''''''''''''''''

class "MegaDatabase.Empty" as _0<< (D,orchid) >> {
}
class "query" as _1 << (D,orchid) MegaDatabase.Money >> {
+ amount : int
}
class "queryString" as _2 << (D,orchid) Server.Request >> {
+ query : **Sequence <Response>**
}
_2 *- - "0..*" _3
@enduml

@startuml

class "MegaDatabase.Empty" as _0<< (D,orchid) >> {
}
class "query" as _1 << (D,orchid) MegaDatabase.Money >> {
+ amount : int
}
class "queryString" as _2 << (D,orchid) Server.Request >> {
+ query : **Sequence <Response>**
}
_2 *- - "0..*" _3
@enduml

PlantUML version 1.2020.16beta3(Unknown compile time)
(GPL source distribution)
Java Runtime: Java(TM) SE Runtime Environment
JVM: Java HotSpot(TM) 64-Bit Server VM
Default Encoding: UTF-8
Language: en
Country: US
--></g></svg>