<?xml version="1.0" encoding="UTF-8" standalone="no"?><svg xmlns="http://www.w3.org/2000/svg" xmlns:xlink="http://www.w3.org/1999/xlink" contentScriptType="application/ecmascript" contentStyleType="text/css" height="334px" preserveAspectRatio="none" style="width:379px;height:334px;" version="1.1" viewBox="0 0 379 334" width="379px" zoomAndPan="magnify"><defs><filter height="300%" id="f1wswptso0mk3h" width="300%" x="-1" y="-1"><feGaussianBlur result="blurOut" stdDeviation="2.0"/><feColorMatrix in="blurOut" result="blurOut2" type="matrix" values="0 0 0 0 0 0 0 0 0 0 0 0 0 0 0 0 0 0 .4 0"/><feOffset dx="4.0" dy="4.0" in="blurOut2" result="blurOut3"/><feBlend in="SourceGraphic" in2="blurOut3" mode="normal"/></filter></defs><g><!--MD5=[f77682fd75c3e1fc6a82f566c0814d0f]
class _0--><rect fill="#FEFECE" filter="url(#f1wswptso0mk3h)" height="48" id="_0" style="stroke: #A80036; stroke-width: 1.5;" width="162" x="6" y="269.5"/><ellipse cx="21" cy="285.5" fill="#DA70D6" rx="11" ry="11" style="stroke: #A80036; stroke-width: 1.0;"/><path d="M18.5156,288.7969 C17.8594,288.7969 17.4688,289.1094 17.4688,289.6563 C17.4688,289.9063 17.6094,290.1719 17.8281,290.3281 C17.9844,290.4531 18.2031,290.5 18.6094,290.5 L22.0781,290.5 C23.5625,290.5 24.5781,290.1094 25.4063,289.2188 C26.1875,288.4063 26.5938,287.3594 26.5938,286.1094 L26.5938,285.3125 C26.5938,282.6406 24.7031,280.5938 22.2188,280.5938 L18.6094,280.5938 C18.1563,280.5938 18.0313,280.6094 17.875,280.7031 C17.625,280.8594 17.4688,281.1563 17.4688,281.4375 C17.4688,281.9844 17.8438,282.2813 18.5156,282.2813 L18.5156,288.7969 Z M20.2031,288.7969 L20.2031,282.2813 L22.0781,282.2813 C22.9844,282.2813 23.625,282.5625 24.1406,283.1563 C24.625,283.7344 24.9063,284.4844 24.9063,285.2813 L24.9063,286.0625 C24.9063,286.9375 24.6719,287.5313 24.2031,288.0469 C23.6719,288.5938 23.1094,288.7969 22.0938,288.7969 L20.2031,288.7969 Z "/><text fill="#000000" font-family="sans-serif" font-size="12" lengthAdjust="spacingAndGlyphs" textLength="130" x="35" y="289.6543">MegaDatabase.Empty</text><line style="stroke: #A80036; stroke-width: 1.5;" x1="7" x2="167" y1="301.5" y2="301.5"/><line style="stroke: #A80036; stroke-width: 1.5;" x1="7" x2="167" y1="309.5" y2="309.5"/><!--MD5=[37d6e5304215b5e345f427169db70937]
class _1--><rect fill="#FEFECE" filter="url(#f1wswptso0mk3h)" height="60.8047" id="_1" style="stroke: #A80036; stroke-width: 1.5;" width="165" x="203.5" y="263"/><ellipse cx="218.5" cy="279" fill="#DA70D6" rx="11" ry="11" style="stroke: #A80036; stroke-width: 1.0;"/><path d="M216.0156,282.2969 C215.3594,282.2969 214.9688,282.6094 214.9688,283.1563 C214.9688,283.4063 215.1094,283.6719 215.3281,283.8281 C215.4844,283.9531 215.7031,284 216.1094,284 L219.5781,284 C221.0625,284 222.0781,283.6094 222.9063,282.7188 C223.6875,281.9063 224.0938,280.8594 224.0938,279.6094 L224.0938,278.8125 C224.0938,276.1406 222.2031,274.0938 219.7188,274.0938 L216.1094,274.0938 C215.6563,274.0938 215.5313,274.1094 215.375,274.2031 C215.125,274.3594 214.9688,274.6563 214.9688,274.9375 C214.9688,275.4844 215.3438,275.7813 216.0156,275.7813 L216.0156,282.2969 Z M217.7031,282.2969 L217.7031,275.7813 L219.5781,275.7813 C220.4844,275.7813 221.125,276.0625 221.6406,276.6563 C222.125,277.2344 222.4063,277.9844 222.4063,278.7813 L222.4063,279.5625 C222.4063,280.4375 222.1719,281.0313 221.7031,281.5469 C221.1719,282.0938 220.6094,282.2969 219.5938,282.2969 L217.7031,282.2969 Z "/><text fill="#000000" font-family="sans-serif" font-size="12" lengthAdjust="spacingAndGlyphs" textLength="133" x="232.5" y="283.1543">MegaDatabase.Money</text><line style="stroke: #A80036; stroke-width: 1.5;" x1="204.5" x2="367.5" y1="295" y2="295"/><ellipse cx="214.5" cy="306" fill="none" rx="3" ry="3" style="stroke: #038048; stroke-width: 1.0;"/><text fill="#000000" font-family="sans-serif" font-size="11" lengthAdjust="spacingAndGlyphs" textLength="68" x="223.5" y="309.2104">amount : int</text><line style="stroke: #A80036; stroke-width: 1.5;" x1="204.5" x2="367.5" y1="315.8047" y2="315.8047"/><!--MD5=[95d1cea1cd7f69d371fe62aa72675e9c]
class _2--><rect fill="#FEFECE" filter="url(#f1wswptso0mk3h)" height="60.8047" id="_2" style="stroke: #A80036; stroke-width: 1.5;" width="218" x="77" y="8"/><ellipse cx="135.25" cy="24" fill="#DA70D6" rx="11" ry="11" style="stroke: #A80036; stroke-width: 1.0;"/><path d="M132.7656,27.2969 C132.1094,27.2969 131.7188,27.6094 131.7188,28.1563 C131.7188,28.4063 131.8594,28.6719 132.0781,28.8281 C132.2344,28.9531 132.4531,29 132.8594,29 L136.3281,29 C137.8125,29 138.8281,28.6094 139.6563,27.7188 C140.4375,26.9063 140.8438,25.8594 140.8438,24.6094 L140.8438,23.8125 C140.8438,21.1406 138.9531,19.0938 136.4688,19.0938 L132.8594,19.0938 C132.4063,19.0938 132.2813,19.1094 132.125,19.2031 C131.875,19.3594 131.7188,19.6563 131.7188,19.9375 C131.7188,20.4844 132.0938,20.7813 132.7656,20.7813 L132.7656,27.2969 Z M134.4531,27.2969 L134.4531,20.7813 L136.3281,20.7813 C137.2344,20.7813 137.875,21.0625 138.3906,21.6563 C138.875,22.2344 139.1563,22.9844 139.1563,23.7813 L139.1563,24.5625 C139.1563,25.4375 138.9219,26.0313 138.4531,26.5469 C137.9219,27.0938 137.3594,27.2969 136.3438,27.2969 L134.4531,27.2969 Z "/><text fill="#000000" font-family="sans-serif" font-size="12" lengthAdjust="spacingAndGlyphs" textLength="93" x="155.75" y="28.1543">Server.Request</text><line style="stroke: #A80036; stroke-width: 1.5;" x1="78" x2="294" y1="40" y2="40"/><ellipse cx="88" cy="51" fill="none" rx="3" ry="3" style="stroke: #038048; stroke-width: 1.0;"/><text fill="#000000" font-family="sans-serif" font-size="11" lengthAdjust="spacingAndGlyphs" textLength="40" x="97" y="54.2104">query :</text><text fill="#000000" font-family="sans-serif" font-size="11" font-weight="bold" lengthAdjust="spacingAndGlyphs" textLength="148" x="141" y="54.2104">Sequence &lt;Response&gt;</text><line style="stroke: #A80036; stroke-width: 1.5;" x1="78" x2="294" y1="60.8047" y2="60.8047"/><!--MD5=[4df2e88eba431a2a56d213b7bca710d9]
class _3--><rect fill="#FEFECE" filter="url(#f1wswptso0mk3h)" height="73.6094" id="_3" style="stroke: #A80036; stroke-width: 1.5;" width="225" x="73.5" y="129"/><ellipse cx="129.75" cy="145" fill="#DA70D6" rx="11" ry="11" style="stroke: #A80036; stroke-width: 1.0;"/><path d="M127.2656,148.2969 C126.6094,148.2969 126.2188,148.6094 126.2188,149.1563 C126.2188,149.4063 126.3594,149.6719 126.5781,149.8281 C126.7344,149.9531 126.9531,150 127.3594,150 L130.8281,150 C132.3125,150 133.3281,149.6094 134.1563,148.7188 C134.9375,147.9063 135.3438,146.8594 135.3438,145.6094 L135.3438,144.8125 C135.3438,142.1406 133.4531,140.0938 130.9688,140.0938 L127.3594,140.0938 C126.9063,140.0938 126.7813,140.1094 126.625,140.2031 C126.375,140.3594 126.2188,140.6563 126.2188,140.9375 C126.2188,141.4844 126.5938,141.7813 127.2656,141.7813 L127.2656,148.2969 Z M128.9531,148.2969 L128.9531,141.7813 L130.8281,141.7813 C131.7344,141.7813 132.375,142.0625 132.8906,142.6563 C133.375,143.2344 133.6563,143.9844 133.6563,144.7813 L133.6563,145.5625 C133.6563,146.4375 133.4219,147.0313 132.9531,147.5469 C132.4219,148.0938 131.8594,148.2969 130.8438,148.2969 L128.9531,148.2969 Z "/><text fill="#000000" font-family="sans-serif" font-size="12" lengthAdjust="spacingAndGlyphs" textLength="104" x="150.25" y="149.1543">Server.Response</text><line style="stroke: #A80036; stroke-width: 1.5;" x1="74.5" x2="297.5" y1="161" y2="161"/><ellipse cx="84.5" cy="172" fill="none" rx="3" ry="3" style="stroke: #038048; stroke-width: 1.0;"/><text fill="#000000" font-family="sans-serif" font-size="11" lengthAdjust="spacingAndGlyphs" textLength="52" x="93.5" y="175.2104">balance :</text><text fill="#000000" font-family="sans-serif" font-size="11" font-weight="bold" lengthAdjust="spacingAndGlyphs" textLength="143" x="149.5" y="175.2104">MegaDatabase.Empty</text><ellipse cx="84.5" cy="184.8047" fill="none" rx="3" ry="3" style="stroke: #038048; stroke-width: 1.0;"/><text fill="#000000" font-family="sans-serif" font-size="11" lengthAdjust="spacingAndGlyphs" textLength="40" x="93.5" y="188.0151">query :</text><text fill="#000000" font-family="sans-serif" font-size="11" font-weight="bold" lengthAdjust="spacingAndGlyphs" textLength="145" x="137.5" y="188.0151">MegaDatabase.Money</text><line style="stroke: #A80036; stroke-width: 1.5;" x1="74.5" x2="297.5" y1="194.6094" y2="194.6094"/><!--MD5=[d55d8d636913339d8dba5a305028d51c]
reverse link _2 to _3--><path d="M186,82.484 C186,97.546 186,114.3 186,128.755 " fill="none" id="_2&lt;-_3" style="stroke: #A80036; stroke-width: 1.0;"/><polygon fill="#A80036" points="186,69.242,182,75.242,186,81.242,190,75.242,186,69.242" style="stroke: #A80036; stroke-width: 1.0;"/><text fill="#000000" font-family="sans-serif" font-size="13" lengthAdjust="spacingAndGlyphs" textLength="23" x="160.9516" y="117.8983">0..*</text><!--MD5=[7ecbe2165298d12861085e98d6b29611]
reverse link _3 to _0--><path d="M149.246,213.592 C134.254,232.5977 117.587,253.7258 105.2753,269.3328 " fill="none" id="_3&lt;-_0" style="stroke: #A80036; stroke-width: 1.0;"/><polygon fill="#A80036" points="157.365,203.3,150.5085,205.5336,149.9332,212.7217,156.7896,210.4881,157.365,203.3" style="stroke: #A80036; stroke-width: 1.0;"/><text fill="#000000" font-family="sans-serif" font-size="13" lengthAdjust="spacingAndGlyphs" textLength="24" x="78.3708" y="258.302">1..1</text><!--MD5=[78d397c859dd83567ec038622751e188]
reverse link _3 to _1--><path d="M223.268,213.771 C236.298,230.1239 250.564,248.0274 262.194,262.624 " fill="none" id="_3&lt;-_1" style="stroke: #A80036; stroke-width: 1.0;"/><polygon fill="#A80036" points="214.924,203.3,215.5348,210.4852,222.4022,212.6849,221.7914,205.4998,214.924,203.3" style="stroke: #A80036; stroke-width: 1.0;"/><text fill="#000000" font-family="sans-serif" font-size="13" lengthAdjust="spacingAndGlyphs" textLength="24" x="226.3965" y="251.8097">1..1</text><!--MD5=[a1ee85256df184f9c07c3dd6c9c88422]
@startuml
''''''''''''''''''''''''''''''''''''''''''
''                                      ''
''  AUTOGENERATED CODE - - DO NOT EDIT!  ''
''                                      ''
''''''''''''''''''''''''''''''''''''''''''

class "MegaDatabase.Empty" as _0<< (D,orchid) >> {
}
class "MegaDatabase.Money" as _1 << (D,orchid) >> {
+ amount : int
}
class "Server.Request" as _2 << (D,orchid) >> {
+ query : **Sequence <Response>**
}
class "Server.Response" as _3 << (D,orchid) >> {
+ balance : **MegaDatabase.Empty**
+ query : **MegaDatabase.Money**
}
_2 *- - "0..*" _3
_3 *- - "1..1 " _0
_3 *- - "1..1 " _1
@enduml

@startuml

class "MegaDatabase.Empty" as _0<< (D,orchid) >> {
}
class "MegaDatabase.Money" as _1 << (D,orchid) >> {
+ amount : int
}
class "Server.Request" as _2 << (D,orchid) >> {
+ query : **Sequence <Response>**
}
class "Server.Response" as _3 << (D,orchid) >> {
+ balance : **MegaDatabase.Empty**
+ query : **MegaDatabase.Money**
}
_2 *- - "0..*" _3
_3 *- - "1..1 " _0
_3 *- - "1..1 " _1
@enduml

PlantUML version 1.2020.11(Sat May 30 10:13:43 UTC 2020)
(GPL source distribution)
Java Runtime: Java(TM) SE Runtime Environment
JVM: Java HotSpot(TM) 64-Bit Server VM
Default Encoding: UTF-8
Language: en
Country: US
--></g></svg>