<?xml version="1.0" encoding="UTF-8" standalone="no"?><svg xmlns="http://www.w3.org/2000/svg" xmlns:xlink="http://www.w3.org/1999/xlink" contentScriptType="application/ecmascript" contentStyleType="text/css" height="92px" preserveAspectRatio="none" style="width:243px;height:92px;" version="1.1" viewBox="0 0 243 92" width="243px" zoomAndPan="magnify"><defs><filter height="300%" id="f1d7ydc737dhko" width="300%" x="-1" y="-1"><feGaussianBlur result="blurOut" stdDeviation="2.0"/><feColorMatrix in="blurOut" result="blurOut2" type="matrix" values="0 0 0 0 0 0 0 0 0 0 0 0 0 0 0 0 0 0 .4 0"/><feOffset dx="4.0" dy="4.0" in="blurOut2" result="blurOut3"/><feBlend in="SourceGraphic" in2="blurOut3" mode="normal"/></filter></defs><g><!--MD5=[f77682fd75c3e1fc6a82f566c0814d0f]
class _0--><rect fill="#FEFECE" filter="url(#f1d7ydc737dhko)" height="66.7422" id="_0" style="stroke: #A80036; stroke-width: 1.5;" width="217" x="7" y="7"/><ellipse cx="80.25" cy="25.9688" fill="#DA70D6" rx="11" ry="11" style="stroke: #A80036; stroke-width: 1.0;"/><path d="M79.8438,21.7813 L79.8438,29.7656 L80.5,29.7656 Q81.9375,29.7656 82.5469,28.8594 Q83.1719,27.9375 83.1719,25.7656 Q83.1719,23.5938 82.5469,22.6875 Q81.9375,21.7813 80.5,21.7813 L79.8438,21.7813 Z M77.3906,19.5781 L80.0156,19.5781 Q83.0469,19.5781 84.375,21.0313 Q85.7188,22.4688 85.7188,25.7656 Q85.7188,29.0625 84.375,30.5156 Q83.0469,31.9688 80.0156,31.9688 L77.3906,31.9688 L77.3906,19.5781 Z "/><text fill="#000000" font-family="sans-serif" font-size="12" font-style="italic" lengthAdjust="spacingAndGlyphs" textLength="66" x="98.75" y="23.1387">«Request»</text><text fill="#000000" font-family="sans-serif" font-size="12" lengthAdjust="spacingAndGlyphs" textLength="52" x="105.75" y="37.1074">Request</text><line style="stroke: #A80036; stroke-width: 1.5;" x1="8" x2="223" y1="44.9375" y2="44.9375"/><ellipse cx="18" cy="55.9375" fill="none" rx="3" ry="3" style="stroke: #038048; stroke-width: 1.0;"/><text fill="#000000" font-family="sans-serif" font-size="11" lengthAdjust="spacingAndGlyphs" textLength="40" x="27" y="59.1479">query :</text><text fill="#000000" font-family="sans-serif" font-size="11" font-weight="bold" lengthAdjust="spacingAndGlyphs" textLength="147" x="71" y="59.1479">Sequence &lt;Response&gt;</text><line style="stroke: #A80036; stroke-width: 1.5;" x1="8" x2="223" y1="65.7422" y2="65.7422"/><!--MD5=[ed7749e9bf9ab297464b341bc3555f94]
@startuml
''''''''''''''''''''''''''''''''''''''''''
''                                      ''
''  AUTOGENERATED CODE - - DO NOT EDIT!  ''
''                                      ''
''''''''''''''''''''''''''''''''''''''''''

class "Request" as _0 << (D,orchid) Request >> {
+ query : **Sequence <Response>**
}
@enduml

@startuml

class "Request" as _0 << (D,orchid) Request >> {
+ query : **Sequence <Response>**
}
@enduml

PlantUML version 1.2020.15(Sun Jun 28 11:39:45 UTC 2020)
(GPL source distribution)
Java Runtime: OpenJDK Runtime Environment
JVM: OpenJDK 64-Bit Server VM
Default Encoding: UTF-8
Language: en
Country: null
--></g></svg>