<?xml version="1.0" encoding="UTF-8" standalone="no"?><svg xmlns="http://www.w3.org/2000/svg" xmlns:xlink="http://www.w3.org/1999/xlink" contentScriptType="application/ecmascript" contentStyleType="text/css" height="99px" preserveAspectRatio="none" style="width:247px;height:99px;" version="1.1" viewBox="0 0 247 99" width="247px" zoomAndPan="magnify"><defs><filter height="300%" id="f1g1em4bmfpydk" width="300%" x="-1" y="-1"><feGaussianBlur result="blurOut" stdDeviation="2.0"/><feColorMatrix in="blurOut" result="blurOut2" type="matrix" values="0 0 0 0 0 0 0 0 0 0 0 0 0 0 0 0 0 0 .4 0"/><feOffset dx="4.0" dy="4.0" in="blurOut2" result="blurOut3"/><feBlend in="SourceGraphic" in2="blurOut3" mode="normal"/></filter></defs><g><!--MD5=[f77682fd75c3e1fc6a82f566c0814d0f]
class _0--><rect fill="#FEFECE" filter="url(#f1g1em4bmfpydk)" height="73.6094" id="_0" style="stroke: #A80036; stroke-width: 1.5;" width="221" x="7" y="7"/><ellipse cx="82.25" cy="23" fill="#DA70D6" rx="11" ry="11" style="stroke: #A80036; stroke-width: 1.0;"/><path d="M81.8438,18.8125 L81.8438,26.7969 L82.5,26.7969 Q83.9375,26.7969 84.5469,25.8906 Q85.1719,24.9688 85.1719,22.7969 Q85.1719,20.625 84.5469,19.7188 Q83.9375,18.8125 82.5,18.8125 L81.8438,18.8125 Z M79.3906,16.6094 L82.0156,16.6094 Q85.0469,16.6094 86.375,18.0625 Q87.7188,19.5 87.7188,22.7969 Q87.7188,26.0938 86.375,27.5469 Q85.0469,29 82.0156,29 L79.3906,29 L79.3906,16.6094 Z "/><text fill="#000000" font-family="sans-serif" font-size="12" lengthAdjust="spacingAndGlyphs" textLength="62" x="102.75" y="27.1543">Response</text><line style="stroke: #A80036; stroke-width: 1.5;" x1="8" x2="227" y1="39" y2="39"/><ellipse cx="18" cy="50" fill="none" rx="3" ry="3" style="stroke: #038048; stroke-width: 1.0;"/><text fill="#000000" font-family="sans-serif" font-size="11" lengthAdjust="spacingAndGlyphs" textLength="52" x="27" y="53.2104">balance :</text><text fill="#000000" font-family="sans-serif" font-size="11" font-weight="bold" lengthAdjust="spacingAndGlyphs" textLength="139" x="83" y="53.2104">MegaDatabase.Empty</text><ellipse cx="18" cy="62.8047" fill="none" rx="3" ry="3" style="stroke: #038048; stroke-width: 1.0;"/><text fill="#000000" font-family="sans-serif" font-size="11" lengthAdjust="spacingAndGlyphs" textLength="40" x="27" y="66.0151">query :</text><text fill="#000000" font-family="sans-serif" font-size="11" font-weight="bold" lengthAdjust="spacingAndGlyphs" textLength="142" x="71" y="66.0151">MegaDatabase.Money</text><line style="stroke: #A80036; stroke-width: 1.5;" x1="8" x2="227" y1="72.6094" y2="72.6094"/><!--MD5=[00281dba2e3d905608d72b757e388440]
@startuml
''''''''''''''''''''''''''''''''''''''''''
''                                      ''
''  AUTOGENERATED CODE - - DO NOT EDIT!  ''
''                                      ''
''''''''''''''''''''''''''''''''''''''''''

class "Response" as _0 << (D,orchid) >> {
+ balance : **MegaDatabase.Empty**
+ query : **MegaDatabase.Money**
}
@enduml

@startuml

class "Response" as _0 << (D,orchid) >> {
+ balance : **MegaDatabase.Empty**
+ query : **MegaDatabase.Money**
}
@enduml

PlantUML version 1.2020.13(Sat Jun 13 12:26:38 UTC 2020)
(GPL source distribution)
Java Runtime: OpenJDK Runtime Environment
JVM: OpenJDK 64-Bit Server VM
Default Encoding: UTF-8
Language: en
Country: null
--></g></svg>