<?xml version="1.0" encoding="UTF-8" standalone="no"?><svg xmlns="http://www.w3.org/2000/svg" xmlns:xlink="http://www.w3.org/1999/xlink" contentScriptType="application/ecmascript" contentStyleType="text/css" height="105px" preserveAspectRatio="none" style="width:247px;height:105px;" version="1.1" viewBox="0 0 247 105" width="247px" zoomAndPan="magnify"><defs><filter height="300%" id="f5at60xflr7kd" width="300%" x="-1" y="-1"><feGaussianBlur result="blurOut" stdDeviation="2.0"/><feColorMatrix in="blurOut" result="blurOut2" type="matrix" values="0 0 0 0 0 0 0 0 0 0 0 0 0 0 0 0 0 0 .4 0"/><feOffset dx="4.0" dy="4.0" in="blurOut2" result="blurOut3"/><feBlend in="SourceGraphic" in2="blurOut3" mode="normal"/></filter></defs><g><!--MD5=[f77682fd75c3e1fc6a82f566c0814d0f]
class _0--><rect fill="#FEFECE" filter="url(#f5at60xflr7kd)" height="79.5469" id="_0" style="stroke: #A80036; stroke-width: 1.5;" width="221" x="7" y="7"/><ellipse cx="77.25" cy="25.9688" fill="#DA70D6" rx="11" ry="11" style="stroke: #A80036; stroke-width: 1.0;"/><path d="M76.8438,21.7813 L76.8438,29.7656 L77.5,29.7656 Q78.9375,29.7656 79.5469,28.8594 Q80.1719,27.9375 80.1719,25.7656 Q80.1719,23.5938 79.5469,22.6875 Q78.9375,21.7813 77.5,21.7813 L76.8438,21.7813 Z M74.3906,19.5781 L77.0156,19.5781 Q80.0469,19.5781 81.375,21.0313 Q82.7188,22.4688 82.7188,25.7656 Q82.7188,29.0625 81.375,30.5156 Q80.0469,31.9688 77.0156,31.9688 L74.3906,31.9688 L74.3906,19.5781 Z "/><text fill="#000000" font-family="sans-serif" font-size="12" font-style="italic" lengthAdjust="spacingAndGlyphs" textLength="76" x="95.75" y="23.1387">«Response»</text><text fill="#000000" font-family="sans-serif" font-size="12" lengthAdjust="spacingAndGlyphs" textLength="62" x="102.75" y="37.1074">Response</text><line style="stroke: #A80036; stroke-width: 1.5;" x1="8" x2="227" y1="44.9375" y2="44.9375"/><ellipse cx="18" cy="55.9375" fill="none" rx="3" ry="3" style="stroke: #038048; stroke-width: 1.0;"/><text fill="#000000" font-family="sans-serif" font-size="11" lengthAdjust="spacingAndGlyphs" textLength="52" x="27" y="59.1479">balance :</text><text fill="#000000" font-family="sans-serif" font-size="11" font-weight="bold" lengthAdjust="spacingAndGlyphs" textLength="139" x="83" y="59.1479">MegaDatabase.Empty</text><ellipse cx="18" cy="68.7422" fill="none" rx="3" ry="3" style="stroke: #038048; stroke-width: 1.0;"/><text fill="#000000" font-family="sans-serif" font-size="11" lengthAdjust="spacingAndGlyphs" textLength="40" x="27" y="71.9526">query :</text><text fill="#000000" font-family="sans-serif" font-size="11" font-weight="bold" lengthAdjust="spacingAndGlyphs" textLength="142" x="71" y="71.9526">MegaDatabase.Money</text><line style="stroke: #A80036; stroke-width: 1.5;" x1="8" x2="227" y1="78.5469" y2="78.5469"/><!--MD5=[7a1268d10a0537303f344871672e5a04]
@startuml
''''''''''''''''''''''''''''''''''''''''''
''                                      ''
''  AUTOGENERATED CODE - - DO NOT EDIT!  ''
''                                      ''
''''''''''''''''''''''''''''''''''''''''''

class "Response" as _0 << (D,orchid) Response >> {
+ balance : **MegaDatabase.Empty**
+ query : **MegaDatabase.Money**
}
@enduml

@startuml

class "Response" as _0 << (D,orchid) Response >> {
+ balance : **MegaDatabase.Empty**
+ query : **MegaDatabase.Money**
}
@enduml

PlantUML version 1.2020.15(Sun Jun 28 11:39:45 UTC 2020)
(GPL source distribution)
Java Runtime: OpenJDK Runtime Environment
JVM: OpenJDK 64-Bit Server VM
Default Encoding: UTF-8
Language: en
Country: null
--></g></svg>