<?xml version="1.0" encoding="UTF-8" standalone="no"?><svg xmlns="http://www.w3.org/2000/svg" xmlns:xlink="http://www.w3.org/1999/xlink" contentScriptType="application/ecmascript" contentStyleType="text/css" height="213px" preserveAspectRatio="none" style="width:369px;height:213px;" version="1.1" viewBox="0 0 369 213" width="369px" zoomAndPan="magnify"><defs><filter height="300%" id="f1r5nacn4o6qgp" width="300%" x="-1" y="-1"><feGaussianBlur result="blurOut" stdDeviation="2.0"/><feColorMatrix in="blurOut" result="blurOut2" type="matrix" values="0 0 0 0 0 0 0 0 0 0 0 0 0 0 0 0 0 0 .4 0"/><feOffset dx="4.0" dy="4.0" in="blurOut2" result="blurOut3"/><feBlend in="SourceGraphic" in2="blurOut3" mode="normal"/></filter></defs><g><!--MD5=[f77682fd75c3e1fc6a82f566c0814d0f]
class _0--><rect fill="#FEFECE" filter="url(#f1r5nacn4o6qgp)" height="48" id="_0" style="stroke: #A80036; stroke-width: 1.5;" width="158" x="6" y="148.5"/><ellipse cx="21" cy="164.5" fill="#DA70D6" rx="11" ry="11" style="stroke: #A80036; stroke-width: 1.0;"/><path d="M20.0859,160.8149 L20.0859,168.792 L20.75,168.792 Q22.1943,168.792 22.8086,167.8831 Q23.4229,166.9741 23.4229,164.791 Q23.4229,162.6245 22.8086,161.7197 Q22.1943,160.8149 20.75,160.8149 Z M17.6372,158.6069 L20.2603,158.6069 Q23.2983,158.6069 24.6348,160.0554 Q25.9712,161.5039 25.9712,164.791 Q25.9712,168.0864 24.6348,169.5432 Q23.2983,171 20.2603,171 L17.6372,171 Z "/><text fill="#000000" font-family="sans-serif" font-size="12" lengthAdjust="spacingAndGlyphs" textLength="126" x="35" y="169.0352">MegaDatabase.Empty</text><line style="stroke: #A80036; stroke-width: 1.5;" x1="7" x2="163" y1="180.5" y2="180.5"/><line style="stroke: #A80036; stroke-width: 1.5;" x1="7" x2="163" y1="188.5" y2="188.5"/><!--MD5=[37d6e5304215b5e345f427169db70937]
class _1--><rect fill="#FEFECE" filter="url(#f1r5nacn4o6qgp)" height="60.9551" id="_1" style="stroke: #A80036; stroke-width: 1.5;" width="159" x="199.5" y="142"/><ellipse cx="214.5" cy="158" fill="#DA70D6" rx="11" ry="11" style="stroke: #A80036; stroke-width: 1.0;"/><path d="M213.5859,154.3149 L213.5859,162.292 L214.25,162.292 Q215.6943,162.292 216.3086,161.3831 Q216.9229,160.4741 216.9229,158.291 Q216.9229,156.1245 216.3086,155.2197 Q215.6943,154.3149 214.25,154.3149 Z M211.1372,152.1069 L213.7603,152.1069 Q216.7983,152.1069 218.1348,153.5554 Q219.4712,155.0039 219.4712,158.291 Q219.4712,161.5864 218.1348,163.0432 Q216.7983,164.5 213.7603,164.5 L211.1372,164.5 Z "/><text fill="#000000" font-family="sans-serif" font-size="12" lengthAdjust="spacingAndGlyphs" textLength="127" x="228.5" y="162.5352">MegaDatabase.Money</text><line style="stroke: #A80036; stroke-width: 1.5;" x1="200.5" x2="357.5" y1="174" y2="174"/><ellipse cx="210.5" cy="185" fill="none" rx="3" ry="3" style="stroke: #038048; stroke-width: 1.0;"/><text fill="#000000" font-family="sans-serif" font-size="11" lengthAdjust="spacingAndGlyphs" textLength="64" x="219.5" y="188.6348">amount : int</text><line style="stroke: #A80036; stroke-width: 1.5;" x1="200.5" x2="357.5" y1="194.9551" y2="194.9551"/><!--MD5=[95d1cea1cd7f69d371fe62aa72675e9c]
class _2--><rect fill="#FEFECE" filter="url(#f1r5nacn4o6qgp)" height="73.9102" id="_2" style="stroke: #A80036; stroke-width: 1.5;" width="193" x="85.5" y="8"/><ellipse cx="129.75" cy="24" fill="#DA70D6" rx="11" ry="11" style="stroke: #A80036; stroke-width: 1.0;"/><path d="M128.8359,20.3149 L128.8359,28.292 L129.5,28.292 Q130.9443,28.292 131.5586,27.3831 Q132.1729,26.4741 132.1729,24.291 Q132.1729,22.1245 131.5586,21.2197 Q130.9443,20.3149 129.5,20.3149 Z M126.3872,18.1069 L129.0103,18.1069 Q132.0483,18.1069 133.3848,19.5554 Q134.7212,21.0039 134.7212,24.291 Q134.7212,27.5864 133.3848,29.0432 Q132.0483,30.5 129.0103,30.5 L126.3872,30.5 Z "/><text fill="#000000" font-family="sans-serif" font-size="12" lengthAdjust="spacingAndGlyphs" textLength="96" x="150.25" y="28.5352">Server.Response</text><line style="stroke: #A80036; stroke-width: 1.5;" x1="86.5" x2="277.5" y1="40" y2="40"/><ellipse cx="96.5" cy="51" fill="none" rx="3" ry="3" style="stroke: #038048; stroke-width: 1.0;"/><text fill="#000000" font-family="sans-serif" font-size="11" lengthAdjust="spacingAndGlyphs" textLength="47" x="105.5" y="54.6348">balance :</text><text fill="#000000" font-family="sans-serif" font-size="11" font-weight="bold" lengthAdjust="spacingAndGlyphs" textLength="117" x="155.5" y="54.6348">MegaDatabase.Empty</text><ellipse cx="96.5" cy="63.9551" fill="none" rx="3" ry="3" style="stroke: #038048; stroke-width: 1.0;"/><text fill="#000000" font-family="sans-serif" font-size="11" lengthAdjust="spacingAndGlyphs" textLength="37" x="105.5" y="67.5898">query :</text><text fill="#000000" font-family="sans-serif" font-size="11" font-weight="bold" lengthAdjust="spacingAndGlyphs" textLength="118" x="145.5" y="67.5898">MegaDatabase.Money</text><line style="stroke: #A80036; stroke-width: 1.5;" x1="86.5" x2="277.5" y1="73.9102" y2="73.9102"/><!--MD5=[59b725bd629d11771785352f69ebf978]
reverse link _2 to _0--><path d="M145.99,92.59 C131.3,111.6 114.97,132.73 102.91,148.33 " fill="none" id="_2&lt;-_0" style="stroke: #A80036; stroke-width: 1.0;"/><polygon fill="#A80036" points="153.94,82.3,147.1049,84.5981,146.5974,91.7914,153.4325,89.4932,153.94,82.3" style="stroke: #A80036; stroke-width: 1.0;"/><text fill="#000000" font-family="sans-serif" font-size="13" lengthAdjust="spacingAndGlyphs" textLength="24" x="75.9119" y="137.8227">1..1</text><!--MD5=[03837af55dfe97398128afec89a6c29c]
reverse link _2 to _1--><path d="M218.15,92.77 C230.79,109.12 244.63,127.03 255.91,141.62 " fill="none" id="_2&lt;-_1" style="stroke: #A80036; stroke-width: 1.0;"/><polygon fill="#A80036" points="210.06,82.3,210.5675,89.4932,217.4026,91.7914,216.8951,84.5981,210.06,82.3" style="stroke: #A80036; stroke-width: 1.0;"/><text fill="#000000" font-family="sans-serif" font-size="13" lengthAdjust="spacingAndGlyphs" textLength="24" x="220.2602" y="131.3091">1..1</text><!--MD5=[43cff98ae64372bf64e7357e735c8558]
@startuml
''''''''''''''''''''''''''''''''''''''''''
''                                      ''
''  AUTOGENERATED CODE - - DO NOT EDIT!  ''
''                                      ''
''''''''''''''''''''''''''''''''''''''''''

class "MegaDatabase.Empty" as _0<< (D,orchid) >> {
}
class "MegaDatabase.Money" as _1 << (D,orchid) >> {
+ amount : int
}
class "Server.Response" as _2 << (D,orchid) >> {
+ balance : **MegaDatabase.Empty**
+ query : **MegaDatabase.Money**
}
_2 *- - "1..1 " _0
_2 *- - "1..1 " _1
@enduml

@startuml

class "MegaDatabase.Empty" as _0<< (D,orchid) >> {
}
class "MegaDatabase.Money" as _1 << (D,orchid) >> {
+ amount : int
}
class "Server.Response" as _2 << (D,orchid) >> {
+ balance : **MegaDatabase.Empty**
+ query : **MegaDatabase.Money**
}
_2 *- - "1..1 " _0
_2 *- - "1..1 " _1
@enduml

PlantUML version 1.2020.10(Sun May 17 19:35:57 AEST 2020)
(GPL source distribution)
Java Runtime: Java(TM) SE Runtime Environment
JVM: Java HotSpot(TM) 64-Bit Server VM
Java Version: 13.0.1+9
Operating System: Mac OS X
Default Encoding: UTF-8
Language: en
Country: AU
--></g></svg>