<?xml version="1.0" encoding="UTF-8" standalone="no"?><svg xmlns="http://www.w3.org/2000/svg" xmlns:xlink="http://www.w3.org/1999/xlink" contentScriptType="application/ecmascript" contentStyleType="text/css" height="220px" preserveAspectRatio="none" style="width:388px;height:220px;" version="1.1" viewBox="0 0 388 220" width="388px" zoomAndPan="magnify"><defs><filter height="300%" id="f1r5nacn4o6qgp" width="300%" x="-1" y="-1"><feGaussianBlur result="blurOut" stdDeviation="2.0"/><feColorMatrix in="blurOut" result="blurOut2" type="matrix" values="0 0 0 0 0 0 0 0 0 0 0 0 0 0 0 0 0 0 .4 0"/><feOffset dx="4.0" dy="4.0" in="blurOut2" result="blurOut3"/><feBlend in="SourceGraphic" in2="blurOut3" mode="normal"/></filter></defs><g><!--MD5=[f77682fd75c3e1fc6a82f566c0814d0f]
class _0--><rect fill="#FEFECE" filter="url(#f1r5nacn4o6qgp)" height="48" id="_0" style="stroke: #A80036; stroke-width: 1.5;" width="162" x="7" y="147.5"/><ellipse cx="22" cy="163.5" fill="#DA70D6" rx="11" ry="11" style="stroke: #A80036; stroke-width: 1.0;"/><path d="M19.5156,166.7969 C18.8594,166.7969 18.4688,167.1094 18.4688,167.6563 C18.4688,167.9063 18.6094,168.1719 18.8281,168.3281 C18.9844,168.4531 19.2031,168.5 19.6094,168.5 L23.0781,168.5 C24.5625,168.5 25.5781,168.1094 26.4063,167.2188 C27.1875,166.4063 27.5938,165.3594 27.5938,164.1094 L27.5938,163.3125 C27.5938,160.6406 25.7031,158.5938 23.2188,158.5938 L19.6094,158.5938 C19.1563,158.5938 19.0313,158.6094 18.875,158.7031 C18.625,158.8594 18.4688,159.1563 18.4688,159.4375 C18.4688,159.9844 18.8438,160.2813 19.5156,160.2813 L19.5156,166.7969 Z M21.2031,166.7969 L21.2031,160.2813 L23.0781,160.2813 C23.9844,160.2813 24.625,160.5625 25.1406,161.1563 C25.625,161.7344 25.9063,162.4844 25.9063,163.2813 L25.9063,164.0625 C25.9063,164.9375 25.6719,165.5313 25.2031,166.0469 C24.6719,166.5938 24.1094,166.7969 23.0938,166.7969 L21.2031,166.7969 Z "/><text fill="#000000" font-family="sans-serif" font-size="12" lengthAdjust="spacingAndGlyphs" textLength="130" x="36" y="167.6543">MegaDatabase.Empty</text><line style="stroke: #A80036; stroke-width: 1.5;" x1="8" x2="168" y1="179.5" y2="179.5"/><line style="stroke: #A80036; stroke-width: 1.5;" x1="8" x2="168" y1="187.5" y2="187.5"/><!--MD5=[37d6e5304215b5e345f427169db70937]
class _1--><rect fill="#FEFECE" filter="url(#f1r5nacn4o6qgp)" height="60.8047" id="_1" style="stroke: #A80036; stroke-width: 1.5;" width="165" x="204.5" y="141"/><ellipse cx="219.5" cy="157" fill="#DA70D6" rx="11" ry="11" style="stroke: #A80036; stroke-width: 1.0;"/><path d="M217.0156,160.2969 C216.3594,160.2969 215.9688,160.6094 215.9688,161.1563 C215.9688,161.4063 216.1094,161.6719 216.3281,161.8281 C216.4844,161.9531 216.7031,162 217.1094,162 L220.5781,162 C222.0625,162 223.0781,161.6094 223.9063,160.7188 C224.6875,159.9063 225.0938,158.8594 225.0938,157.6094 L225.0938,156.8125 C225.0938,154.1406 223.2031,152.0938 220.7188,152.0938 L217.1094,152.0938 C216.6563,152.0938 216.5313,152.1094 216.375,152.2031 C216.125,152.3594 215.9688,152.6563 215.9688,152.9375 C215.9688,153.4844 216.3438,153.7813 217.0156,153.7813 L217.0156,160.2969 Z M218.7031,160.2969 L218.7031,153.7813 L220.5781,153.7813 C221.4844,153.7813 222.125,154.0625 222.6406,154.6563 C223.125,155.2344 223.4063,155.9844 223.4063,156.7813 L223.4063,157.5625 C223.4063,158.4375 223.1719,159.0313 222.7031,159.5469 C222.1719,160.0938 221.6094,160.2969 220.5938,160.2969 L218.7031,160.2969 Z "/><text fill="#000000" font-family="sans-serif" font-size="12" lengthAdjust="spacingAndGlyphs" textLength="133" x="233.5" y="161.1543">MegaDatabase.Money</text><line style="stroke: #A80036; stroke-width: 1.5;" x1="205.5" x2="368.5" y1="173" y2="173"/><ellipse cx="215.5" cy="184" fill="none" rx="3" ry="3" style="stroke: #038048; stroke-width: 1.0;"/><text fill="#000000" font-family="sans-serif" font-size="11" lengthAdjust="spacingAndGlyphs" textLength="68" x="224.5" y="187.2104">amount : int</text><line style="stroke: #A80036; stroke-width: 1.5;" x1="205.5" x2="368.5" y1="193.8047" y2="193.8047"/><!--MD5=[95d1cea1cd7f69d371fe62aa72675e9c]
class _2--><rect fill="#FEFECE" filter="url(#f1r5nacn4o6qgp)" height="73.6094" id="_2" style="stroke: #A80036; stroke-width: 1.5;" width="225" x="74.5" y="7"/><ellipse cx="130.75" cy="23" fill="#DA70D6" rx="11" ry="11" style="stroke: #A80036; stroke-width: 1.0;"/><path d="M128.2656,26.2969 C127.6094,26.2969 127.2188,26.6094 127.2188,27.1563 C127.2188,27.4063 127.3594,27.6719 127.5781,27.8281 C127.7344,27.9531 127.9531,28 128.3594,28 L131.8281,28 C133.3125,28 134.3281,27.6094 135.1563,26.7188 C135.9375,25.9063 136.3438,24.8594 136.3438,23.6094 L136.3438,22.8125 C136.3438,20.1406 134.4531,18.0938 131.9688,18.0938 L128.3594,18.0938 C127.9063,18.0938 127.7813,18.1094 127.625,18.2031 C127.375,18.3594 127.2188,18.6563 127.2188,18.9375 C127.2188,19.4844 127.5938,19.7813 128.2656,19.7813 L128.2656,26.2969 Z M129.9531,26.2969 L129.9531,19.7813 L131.8281,19.7813 C132.7344,19.7813 133.375,20.0625 133.8906,20.6563 C134.375,21.2344 134.6563,21.9844 134.6563,22.7813 L134.6563,23.5625 C134.6563,24.4375 134.4219,25.0313 133.9531,25.5469 C133.4219,26.0938 132.8594,26.2969 131.8438,26.2969 L129.9531,26.2969 Z "/><text fill="#000000" font-family="sans-serif" font-size="12" lengthAdjust="spacingAndGlyphs" textLength="104" x="151.25" y="27.1543">Server.Response</text><line style="stroke: #A80036; stroke-width: 1.5;" x1="75.5" x2="298.5" y1="39" y2="39"/><ellipse cx="85.5" cy="50" fill="none" rx="3" ry="3" style="stroke: #038048; stroke-width: 1.0;"/><text fill="#000000" font-family="sans-serif" font-size="11" lengthAdjust="spacingAndGlyphs" textLength="52" x="94.5" y="53.2104">balance :</text><text fill="#000000" font-family="sans-serif" font-size="11" font-weight="bold" lengthAdjust="spacingAndGlyphs" textLength="143" x="150.5" y="53.2104">MegaDatabase.Empty</text><ellipse cx="85.5" cy="62.8047" fill="none" rx="3" ry="3" style="stroke: #038048; stroke-width: 1.0;"/><text fill="#000000" font-family="sans-serif" font-size="11" lengthAdjust="spacingAndGlyphs" textLength="40" x="94.5" y="66.0151">query :</text><text fill="#000000" font-family="sans-serif" font-size="11" font-weight="bold" lengthAdjust="spacingAndGlyphs" textLength="145" x="138.5" y="66.0151">MegaDatabase.Money</text><line style="stroke: #A80036; stroke-width: 1.5;" x1="75.5" x2="298.5" y1="72.6094" y2="72.6094"/><!--MD5=[59b725bd629d11771785352f69ebf978]
reverse link _2 to _0--><path d="M150.246,91.592 C135.254,110.5977 118.587,131.7258 106.2753,147.3328 " fill="none" id="_2&lt;-_0" style="stroke: #A80036; stroke-width: 1.0;"/><polygon fill="#A80036" points="158.365,81.3,151.5085,83.5336,150.9332,90.7217,157.7896,88.4881,158.365,81.3" style="stroke: #A80036; stroke-width: 1.0;"/><text fill="#000000" font-family="sans-serif" font-size="13" lengthAdjust="spacingAndGlyphs" textLength="24" x="79.3708" y="136.302">1..1</text><!--MD5=[03837af55dfe97398128afec89a6c29c]
reverse link _2 to _1--><path d="M224.268,91.771 C237.298,108.1239 251.564,126.0274 263.194,140.624 " fill="none" id="_2&lt;-_1" style="stroke: #A80036; stroke-width: 1.0;"/><polygon fill="#A80036" points="215.924,81.3,216.5348,88.4852,223.4022,90.6849,222.7914,83.4998,215.924,81.3" style="stroke: #A80036; stroke-width: 1.0;"/><text fill="#000000" font-family="sans-serif" font-size="13" lengthAdjust="spacingAndGlyphs" textLength="24" x="227.3965" y="129.8097">1..1</text><!--MD5=[6a87039d2d5619dda7713ac2bb9667d6]
@startuml
''''''''''''''''''''''''''''''''''''''''''
''                                      ''
''  AUTOGENERATED CODE - - DO NOT EDIT!  ''
''                                      ''
''''''''''''''''''''''''''''''''''''''''''

class "MegaDatabase.Empty" as _0<< (D,orchid) >> {
}
class "MegaDatabase.Money" as _1 << (D,orchid) >> {
+ amount : int
}
class "Server.Response" as _2 << (D,orchid) >> {
+ balance : **MegaDatabase.Empty**
+ query : **MegaDatabase.Money**
}
_2 *- - "1..1 " _0
_2 *- - "1..1 " _1
@enduml

@startuml

class "MegaDatabase.Empty" as _0<< (D,orchid) >> {
}
class "MegaDatabase.Money" as _1 << (D,orchid) >> {
+ amount : int
}
class "Server.Response" as _2 << (D,orchid) >> {
+ balance : **MegaDatabase.Empty**
+ query : **MegaDatabase.Money**
}
_2 *- - "1..1 " _0
_2 *- - "1..1 " _1
@enduml

PlantUML version 1.2020.15beta1(Unknown compile time)
(GPL source distribution)
Java Runtime: Java(TM) SE Runtime Environment
JVM: Java HotSpot(TM) 64-Bit Server VM
Default Encoding: UTF-8
Language: en
Country: US
--></g></svg>