<?xml version="1.0" encoding="UTF-8" standalone="no"?><svg xmlns="http://www.w3.org/2000/svg" xmlns:xlink="http://www.w3.org/1999/xlink" contentScriptType="application/ecmascript" contentStyleType="text/css" height="220px" preserveAspectRatio="none" style="width:401px;height:220px;" version="1.1" viewBox="0 0 401 220" width="401px" zoomAndPan="magnify"><defs><filter height="300%" id="f1r5nacn4o6qgp" width="300%" x="-1" y="-1"><feGaussianBlur result="blurOut" stdDeviation="2.0"/><feColorMatrix in="blurOut" result="blurOut2" type="matrix" values="0 0 0 0 0 0 0 0 0 0 0 0 0 0 0 0 0 0 .4 0"/><feOffset dx="4.0" dy="4.0" in="blurOut2" result="blurOut3"/><feBlend in="SourceGraphic" in2="blurOut3" mode="normal"/></filter></defs><g><!--MD5=[f77682fd75c3e1fc6a82f566c0814d0f]
class _0--><rect fill="#FEFECE" filter="url(#f1r5nacn4o6qgp)" height="48" id="_0" style="stroke: #A80036; stroke-width: 1.5;" width="169" x="7" y="147.5"/><ellipse cx="22" cy="163.5" fill="#DA70D6" rx="11" ry="11" style="stroke: #A80036; stroke-width: 1.0;"/><path d="M21.5938,159.3125 L21.5938,167.2969 L22.25,167.2969 Q23.6875,167.2969 24.2969,166.3906 Q24.9219,165.4688 24.9219,163.2969 Q24.9219,161.125 24.2969,160.2188 Q23.6875,159.3125 22.25,159.3125 L21.5938,159.3125 Z M19.1406,157.1094 L21.7656,157.1094 Q24.7969,157.1094 26.125,158.5625 Q27.4688,160 27.4688,163.2969 Q27.4688,166.5938 26.125,168.0469 Q24.7969,169.5 21.7656,169.5 L19.1406,169.5 L19.1406,157.1094 Z "/><text fill="#000000" font-family="sans-serif" font-size="12" lengthAdjust="spacingAndGlyphs" textLength="137" x="36" y="167.6543">MegaDatabase.Empty</text><line style="stroke: #A80036; stroke-width: 1.5;" x1="8" x2="175" y1="179.5" y2="179.5"/><line style="stroke: #A80036; stroke-width: 1.5;" x1="8" x2="175" y1="187.5" y2="187.5"/><!--MD5=[37d6e5304215b5e345f427169db70937]
class _1--><rect fill="#FEFECE" filter="url(#f1r5nacn4o6qgp)" height="60.8047" id="_1" style="stroke: #A80036; stroke-width: 1.5;" width="171" x="211" y="141"/><ellipse cx="226" cy="157" fill="#DA70D6" rx="11" ry="11" style="stroke: #A80036; stroke-width: 1.0;"/><path d="M225.5938,152.8125 L225.5938,160.7969 L226.25,160.7969 Q227.6875,160.7969 228.2969,159.8906 Q228.9219,158.9688 228.9219,156.7969 Q228.9219,154.625 228.2969,153.7188 Q227.6875,152.8125 226.25,152.8125 L225.5938,152.8125 Z M223.1406,150.6094 L225.7656,150.6094 Q228.7969,150.6094 230.125,152.0625 Q231.4688,153.5 231.4688,156.7969 Q231.4688,160.0938 230.125,161.5469 Q228.7969,163 225.7656,163 L223.1406,163 L223.1406,150.6094 Z "/><text fill="#000000" font-family="sans-serif" font-size="12" lengthAdjust="spacingAndGlyphs" textLength="139" x="240" y="161.1543">MegaDatabase.Money</text><line style="stroke: #A80036; stroke-width: 1.5;" x1="212" x2="381" y1="173" y2="173"/><ellipse cx="222" cy="184" fill="none" rx="3" ry="3" style="stroke: #038048; stroke-width: 1.0;"/><text fill="#000000" font-family="sans-serif" font-size="11" lengthAdjust="spacingAndGlyphs" textLength="69" x="231" y="187.2104">amount : int</text><line style="stroke: #A80036; stroke-width: 1.5;" x1="212" x2="381" y1="193.8047" y2="193.8047"/><!--MD5=[95d1cea1cd7f69d371fe62aa72675e9c]
class _2--><rect fill="#FEFECE" filter="url(#f1r5nacn4o6qgp)" height="73.6094" id="_2" style="stroke: #A80036; stroke-width: 1.5;" width="221" x="83" y="7"/><ellipse cx="136.25" cy="23" fill="#DA70D6" rx="11" ry="11" style="stroke: #A80036; stroke-width: 1.0;"/><path d="M135.8438,18.8125 L135.8438,26.7969 L136.5,26.7969 Q137.9375,26.7969 138.5469,25.8906 Q139.1719,24.9688 139.1719,22.7969 Q139.1719,20.625 138.5469,19.7188 Q137.9375,18.8125 136.5,18.8125 L135.8438,18.8125 Z M133.3906,16.6094 L136.0156,16.6094 Q139.0469,16.6094 140.375,18.0625 Q141.7188,19.5 141.7188,22.7969 Q141.7188,26.0938 140.375,27.5469 Q139.0469,29 136.0156,29 L133.3906,29 L133.3906,16.6094 Z "/><text fill="#000000" font-family="sans-serif" font-size="12" lengthAdjust="spacingAndGlyphs" textLength="106" x="156.75" y="27.1543">Server.Response</text><line style="stroke: #A80036; stroke-width: 1.5;" x1="84" x2="303" y1="39" y2="39"/><ellipse cx="94" cy="50" fill="none" rx="3" ry="3" style="stroke: #038048; stroke-width: 1.0;"/><text fill="#000000" font-family="sans-serif" font-size="11" lengthAdjust="spacingAndGlyphs" textLength="52" x="103" y="53.2104">balance :</text><text fill="#000000" font-family="sans-serif" font-size="11" font-weight="bold" lengthAdjust="spacingAndGlyphs" textLength="139" x="159" y="53.2104">MegaDatabase.Empty</text><ellipse cx="94" cy="62.8047" fill="none" rx="3" ry="3" style="stroke: #038048; stroke-width: 1.0;"/><text fill="#000000" font-family="sans-serif" font-size="11" lengthAdjust="spacingAndGlyphs" textLength="40" x="103" y="66.0151">query :</text><text fill="#000000" font-family="sans-serif" font-size="11" font-weight="bold" lengthAdjust="spacingAndGlyphs" textLength="142" x="147" y="66.0151">MegaDatabase.Money</text><line style="stroke: #A80036; stroke-width: 1.5;" x1="84" x2="303" y1="72.6094" y2="72.6094"/><!--MD5=[59b725bd629d11771785352f69ebf978]
reverse link _2 to _0--><path d="M155.4851,91.5186 C140.2836,110.5205 123.4333,131.5834 110.8419,147.3226 " fill="none" id="_2&lt;-_0" style="stroke: #A80036; stroke-width: 1.0;"/><polygon fill="#A80036" points="163.7232,81.221,156.8516,83.4075,156.2269,90.5915,163.0986,88.405,163.7232,81.221" style="stroke: #A80036; stroke-width: 1.0;"/><text fill="#000000" font-family="sans-serif" font-size="13" lengthAdjust="spacingAndGlyphs" textLength="24" x="84.2108" y="136.2892">1..1</text><!--MD5=[03837af55dfe97398128afec89a6c29c]
reverse link _2 to _1--><path d="M232.0847,91.7627 C245.3743,108.2133 259.8904,126.1822 271.7726,140.8909 " fill="none" id="_2&lt;-_1" style="stroke: #A80036; stroke-width: 1.0;"/><polygon fill="#A80036" points="223.5688,81.221,224.2277,88.4019,231.1096,90.5556,230.4508,83.3747,223.5688,81.221" style="stroke: #A80036; stroke-width: 1.0;"/><text fill="#000000" font-family="sans-serif" font-size="13" lengthAdjust="spacingAndGlyphs" textLength="24" x="235.7851" y="130.1316">1..1</text><!--MD5=[228d29d872afe1fd50843184e94327c7]
@startuml
''''''''''''''''''''''''''''''''''''''''''
''                                      ''
''  AUTOGENERATED CODE - - DO NOT EDIT!  ''
''                                      ''
''''''''''''''''''''''''''''''''''''''''''

class "MegaDatabase.Empty" as _0<< (D,orchid) >> {
}
class "MegaDatabase.Money" as _1 << (D,orchid) >> {
+ amount : int
}
class "Server.Response" as _2 << (D,orchid) >> {
+ balance : **MegaDatabase.Empty**
+ query : **MegaDatabase.Money**
}
_2 *- - "1..1 " _0
_2 *- - "1..1 " _1
@enduml

@startuml

class "MegaDatabase.Empty" as _0<< (D,orchid) >> {
}
class "MegaDatabase.Money" as _1 << (D,orchid) >> {
+ amount : int
}
class "Server.Response" as _2 << (D,orchid) >> {
+ balance : **MegaDatabase.Empty**
+ query : **MegaDatabase.Money**
}
_2 *- - "1..1 " _0
_2 *- - "1..1 " _1
@enduml

PlantUML version 1.2020.15(Sun Jun 28 11:39:45 UTC 2020)
(GPL source distribution)
Java Runtime: OpenJDK Runtime Environment
JVM: OpenJDK 64-Bit Server VM
Default Encoding: UTF-8
Language: en
Country: null
--></g></svg>