<?xml version="1.0" encoding="UTF-8" standalone="no"?><svg xmlns="http://www.w3.org/2000/svg" xmlns:xlink="http://www.w3.org/1999/xlink" contentScriptType="application/ecmascript" contentStyleType="text/css" height="105px" preserveAspectRatio="none" style="width:251px;height:105px;" version="1.1" viewBox="0 0 251 105" width="251px" zoomAndPan="magnify"><defs><filter height="300%" id="f5at60xflr7kd" width="300%" x="-1" y="-1"><feGaussianBlur result="blurOut" stdDeviation="2.0"/><feColorMatrix in="blurOut" result="blurOut2" type="matrix" values="0 0 0 0 0 0 0 0 0 0 0 0 0 0 0 0 0 0 .4 0"/><feOffset dx="4.0" dy="4.0" in="blurOut2" result="blurOut3"/><feBlend in="SourceGraphic" in2="blurOut3" mode="normal"/></filter></defs><g><!--MD5=[f77682fd75c3e1fc6a82f566c0814d0f]
class _0--><rect fill="#FEFECE" filter="url(#f5at60xflr7kd)" height="79.5469" id="_0" style="stroke: #A80036; stroke-width: 1.5;" width="225" x="7" y="7"/><ellipse cx="81.75" cy="25.9688" fill="#DA70D6" rx="11" ry="11" style="stroke: #A80036; stroke-width: 1.0;"/><path d="M79.2656,29.2656 C78.6094,29.2656 78.2188,29.5781 78.2188,30.125 C78.2188,30.375 78.3594,30.6406 78.5781,30.7969 C78.7344,30.9219 78.9531,30.9688 79.3594,30.9688 L82.8281,30.9688 C84.3125,30.9688 85.3281,30.5781 86.1563,29.6875 C86.9375,28.875 87.3438,27.8281 87.3438,26.5781 L87.3438,25.7813 C87.3438,23.1094 85.4531,21.0625 82.9688,21.0625 L79.3594,21.0625 C78.9063,21.0625 78.7813,21.0781 78.625,21.1719 C78.375,21.3281 78.2188,21.625 78.2188,21.9063 C78.2188,22.4531 78.5938,22.75 79.2656,22.75 L79.2656,29.2656 Z M80.9531,29.2656 L80.9531,22.75 L82.8281,22.75 C83.7344,22.75 84.375,23.0313 84.8906,23.625 C85.375,24.2031 85.6563,24.9531 85.6563,25.75 L85.6563,26.5313 C85.6563,27.4063 85.4219,28 84.9531,28.5156 C84.4219,29.0625 83.8594,29.2656 82.8438,29.2656 L80.9531,29.2656 Z "/><text fill="#000000" font-family="sans-serif" font-size="12" font-style="italic" lengthAdjust="spacingAndGlyphs" textLength="71" x="100.25" y="23.1387">«Response»</text><text fill="#000000" font-family="sans-serif" font-size="12" lengthAdjust="spacingAndGlyphs" textLength="60" x="105.75" y="37.1074">Response</text><line style="stroke: #A80036; stroke-width: 1.5;" x1="8" x2="231" y1="44.9375" y2="44.9375"/><ellipse cx="18" cy="55.9375" fill="none" rx="3" ry="3" style="stroke: #038048; stroke-width: 1.0;"/><text fill="#000000" font-family="sans-serif" font-size="11" lengthAdjust="spacingAndGlyphs" textLength="52" x="27" y="59.1479">balance :</text><text fill="#000000" font-family="sans-serif" font-size="11" font-weight="bold" lengthAdjust="spacingAndGlyphs" textLength="143" x="83" y="59.1479">MegaDatabase.Empty</text><ellipse cx="18" cy="68.7422" fill="none" rx="3" ry="3" style="stroke: #038048; stroke-width: 1.0;"/><text fill="#000000" font-family="sans-serif" font-size="11" lengthAdjust="spacingAndGlyphs" textLength="40" x="27" y="71.9526">query :</text><text fill="#000000" font-family="sans-serif" font-size="11" font-weight="bold" lengthAdjust="spacingAndGlyphs" textLength="145" x="71" y="71.9526">MegaDatabase.Money</text><line style="stroke: #A80036; stroke-width: 1.5;" x1="8" x2="231" y1="78.5469" y2="78.5469"/><!--MD5=[9e0e1e749f536048ce6763af79a36f15]
@startuml
''''''''''''''''''''''''''''''''''''''''''
''                                      ''
''  AUTOGENERATED CODE - - DO NOT EDIT!  ''
''                                      ''
''''''''''''''''''''''''''''''''''''''''''

class "Response" as _0 << (D,orchid) Response >> {
+ balance : **MegaDatabase.Empty**
+ query : **MegaDatabase.Money**
}
@enduml

@startuml

class "Response" as _0 << (D,orchid) Response >> {
+ balance : **MegaDatabase.Empty**
+ query : **MegaDatabase.Money**
}
@enduml

PlantUML version 1.2020.16beta1(Unknown compile time)
(GPL source distribution)
Java Runtime: Java(TM) SE Runtime Environment
JVM: Java HotSpot(TM) 64-Bit Server VM
Default Encoding: UTF-8
Language: en
Country: US
--></g></svg>