<?xml version="1.0" encoding="UTF-8" standalone="no"?><svg xmlns="http://www.w3.org/2000/svg" xmlns:xlink="http://www.w3.org/1999/xlink" contentScriptType="application/ecmascript" contentStyleType="text/css" height="443px" preserveAspectRatio="none" style="width:523px;height:443px;" version="1.1" viewBox="0 0 523 443" width="523px" zoomAndPan="magnify"><defs><filter height="300%" id="f1mkdgxu56xdpd" width="300%" x="-1" y="-1"><feGaussianBlur result="blurOut" stdDeviation="2.0"/><feColorMatrix in="blurOut" result="blurOut2" type="matrix" values="0 0 0 0 0 0 0 0 0 0 0 0 0 0 0 0 0 0 .4 0"/><feOffset dx="4.0" dy="4.0" in="blurOut2" result="blurOut3"/><feBlend in="SourceGraphic" in2="blurOut3" mode="normal"/></filter></defs><g><!--MD5=[f77682fd75c3e1fc6a82f566c0814d0f]
class _0--><rect fill="#FEFECE" filter="url(#f1mkdgxu56xdpd)" height="48" id="_0" style="stroke: #A80036; stroke-width: 1.5;" width="175" x="123" y="384"/><ellipse cx="138" cy="400" fill="#DA70D6" rx="11" ry="11" style="stroke: #A80036; stroke-width: 1.0;"/><path d="M137.5938,395.8125 L137.5938,403.7969 L138.25,403.7969 Q139.6875,403.7969 140.3047,402.8828 Q140.9219,401.9688 140.9219,399.7969 Q140.9219,397.625 140.3047,396.7188 Q139.6875,395.8125 138.25,395.8125 L137.5938,395.8125 Z M135.1406,393.6094 L137.7656,393.6094 Q140.7969,393.6094 142.1328,395.0547 Q143.4688,396.5 143.4688,399.7969 Q143.4688,403.0938 142.1328,404.5469 Q140.7969,406 137.7656,406 L135.1406,406 L135.1406,393.6094 Z "/><text fill="#000000" font-family="sans-serif" font-size="12" lengthAdjust="spacingAndGlyphs" textLength="143" x="152" y="404.1543">FourthApp.qwert enum</text><line style="stroke: #A80036; stroke-width: 1.5;" x1="124" x2="297" y1="416" y2="416"/><line style="stroke: #A80036; stroke-width: 1.5;" x1="124" x2="297" y1="424" y2="424"/><!--MD5=[37d6e5304215b5e345f427169db70937]
class _1--><rect fill="#FEFECE" filter="url(#f1mkdgxu56xdpd)" height="73.6094" id="_1" style="stroke: #A80036; stroke-width: 1.5;" width="176" x="336.5" y="8"/><ellipse cx="357.35" cy="24" fill="#DA70D6" rx="11" ry="11" style="stroke: #A80036; stroke-width: 1.0;"/><path d="M356.9438,19.8125 L356.9438,27.7969 L357.6,27.7969 Q359.0375,27.7969 359.6547,26.8828 Q360.2719,25.9688 360.2719,23.7969 Q360.2719,21.625 359.6547,20.7188 Q359.0375,19.8125 357.6,19.8125 L356.9438,19.8125 Z M354.4906,17.6094 L357.1156,17.6094 Q360.1469,17.6094 361.4828,19.0547 Q362.8188,20.5 362.8188,23.7969 Q362.8188,27.0938 361.4828,28.5469 Q360.1469,30 357.1156,30 L354.4906,30 L354.4906,17.6094 Z "/><text fill="#000000" font-family="sans-serif" font-size="12" lengthAdjust="spacingAndGlyphs" textLength="131" x="372.65" y="28.1543">GrpcTesting.Request</text><line style="stroke: #A80036; stroke-width: 1.5;" x1="337.5" x2="511.5" y1="40" y2="40"/><ellipse cx="347.5" cy="51" fill="none" rx="3" ry="3" style="stroke: #038048; stroke-width: 1.0;"/><text fill="#000000" font-family="sans-serif" font-size="11" lengthAdjust="spacingAndGlyphs" textLength="40" x="356.5" y="54.2104">query :</text><text fill="#000000" font-family="sans-serif" font-size="11" font-weight="bold" lengthAdjust="spacingAndGlyphs" textLength="106" x="400.5" y="54.2104">OtherApp.Money</text><ellipse cx="347.5" cy="63.8047" fill="none" rx="3" ry="3" style="stroke: #038048; stroke-width: 1.0;"/><text fill="#000000" font-family="sans-serif" font-size="11" lengthAdjust="spacingAndGlyphs" textLength="67" x="356.5" y="67.0151">that : string</text><line style="stroke: #A80036; stroke-width: 1.5;" x1="337.5" x2="511.5" y1="73.6094" y2="73.6094"/><!--MD5=[4df2e88eba431a2a56d213b7bca710d9]
class _3--><rect fill="#FEFECE" filter="url(#f1mkdgxu56xdpd)" height="60.8047" id="_3" style="stroke: #A80036; stroke-width: 1.5;" width="171" x="133" y="142"/><ellipse cx="182.75" cy="158" fill="#DA70D6" rx="11" ry="11" style="stroke: #A80036; stroke-width: 1.0;"/><path d="M182.3438,153.8125 L182.3438,161.7969 L183,161.7969 Q184.4375,161.7969 185.0547,160.8828 Q185.6719,159.9688 185.6719,157.7969 Q185.6719,155.625 185.0547,154.7188 Q184.4375,153.8125 183,153.8125 L182.3438,153.8125 Z M179.8906,151.6094 L182.5156,151.6094 Q185.5469,151.6094 186.8828,153.0547 Q188.2188,154.5 188.2188,157.7969 Q188.2188,161.0938 186.8828,162.5469 Q185.5469,164 182.5156,164 L179.8906,164 L179.8906,151.6094 Z "/><text fill="#000000" font-family="sans-serif" font-size="12" lengthAdjust="spacingAndGlyphs" textLength="63" x="203.25" y="162.1543">OtherApp.</text><line style="stroke: #A80036; stroke-width: 1.5;" x1="134" x2="303" y1="174" y2="174"/><ellipse cx="144" cy="185" fill="none" rx="3" ry="3" style="stroke: #038048; stroke-width: 1.0;"/><text fill="#000000" font-family="sans-serif" font-size="11" lengthAdjust="spacingAndGlyphs" textLength="18" x="153" y="188.2104">id :</text><text fill="#000000" font-family="sans-serif" font-size="11" font-weight="bold" lengthAdjust="spacingAndGlyphs" textLength="123" x="175" y="188.2104">ThirdApp.Whatever</text><line style="stroke: #A80036; stroke-width: 1.5;" x1="134" x2="303" y1="194.8047" y2="194.8047"/><!--MD5=[95d1cea1cd7f69d371fe62aa72675e9c]
class _2--><rect fill="#FEFECE" filter="url(#f1mkdgxu56xdpd)" height="60.8047" id="_2" style="stroke: #A80036; stroke-width: 1.5;" width="171" x="339" y="142"/><ellipse cx="370.2" cy="158" fill="#DA70D6" rx="11" ry="11" style="stroke: #A80036; stroke-width: 1.0;"/><path d="M369.7938,153.8125 L369.7938,161.7969 L370.45,161.7969 Q371.8875,161.7969 372.5047,160.8828 Q373.1219,159.9688 373.1219,157.7969 Q373.1219,155.625 372.5047,154.7188 Q371.8875,153.8125 370.45,153.8125 L369.7938,153.8125 Z M367.3406,151.6094 L369.9656,151.6094 Q372.9969,151.6094 374.3328,153.0547 Q375.6688,154.5 375.6688,157.7969 Q375.6688,161.0938 374.3328,162.5469 Q372.9969,164 369.9656,164 L367.3406,164 L367.3406,151.6094 Z "/><text fill="#000000" font-family="sans-serif" font-size="12" lengthAdjust="spacingAndGlyphs" textLength="103" x="387.8" y="162.1543">OtherApp.Money</text><line style="stroke: #A80036; stroke-width: 1.5;" x1="340" x2="509" y1="174" y2="174"/><ellipse cx="350" cy="185" fill="none" rx="3" ry="3" style="stroke: #038048; stroke-width: 1.0;"/><text fill="#000000" font-family="sans-serif" font-size="11" lengthAdjust="spacingAndGlyphs" textLength="18" x="359" y="188.2104">id :</text><text fill="#000000" font-family="sans-serif" font-size="11" font-weight="bold" lengthAdjust="spacingAndGlyphs" textLength="123" x="381" y="188.2104">ThirdApp.Whatever</text><line style="stroke: #A80036; stroke-width: 1.5;" x1="340" x2="509" y1="194.8047" y2="194.8047"/><!--MD5=[9f3b5866fc3516bb7b126afd03fd81f9]
class _5--><rect fill="#FEFECE" filter="url(#f1mkdgxu56xdpd)" height="60.8047" id="_5" style="stroke: #A80036; stroke-width: 1.5;" width="187" x="6" y="263"/><ellipse cx="65.75" cy="279" fill="#DA70D6" rx="11" ry="11" style="stroke: #A80036; stroke-width: 1.0;"/><path d="M65.3438,274.8125 L65.3438,282.7969 L66,282.7969 Q67.4375,282.7969 68.0547,281.8828 Q68.6719,280.9688 68.6719,278.7969 Q68.6719,276.625 68.0547,275.7188 Q67.4375,274.8125 66,274.8125 L65.3438,274.8125 Z M62.8906,272.6094 L65.5156,272.6094 Q68.5469,272.6094 69.8828,274.0547 Q71.2188,275.5 71.2188,278.7969 Q71.2188,282.0938 69.8828,283.5469 Q68.5469,285 65.5156,285 L62.8906,285 L62.8906,272.6094 Z "/><text fill="#000000" font-family="sans-serif" font-size="12" lengthAdjust="spacingAndGlyphs" textLength="59" x="86.25" y="283.1543">ThirdApp.</text><line style="stroke: #A80036; stroke-width: 1.5;" x1="7" x2="192" y1="295" y2="295"/><ellipse cx="17" cy="306" fill="none" rx="3" ry="3" style="stroke: #038048; stroke-width: 1.0;"/><text fill="#000000" font-family="sans-serif" font-size="11" lengthAdjust="spacingAndGlyphs" textLength="50" x="26" y="309.2104">content :</text><text fill="#000000" font-family="sans-serif" font-size="11" font-weight="bold" lengthAdjust="spacingAndGlyphs" textLength="107" x="80" y="309.2104">FourthApp.qwert</text><line style="stroke: #A80036; stroke-width: 1.5;" x1="7" x2="192" y1="315.8047" y2="315.8047"/><!--MD5=[5598b231efb7df47efa6733795d42804]
class _4--><rect fill="#FEFECE" filter="url(#f1mkdgxu56xdpd)" height="60.8047" id="_4" style="stroke: #A80036; stroke-width: 1.5;" width="187" x="228" y="263"/><ellipse cx="259.65" cy="279" fill="#DA70D6" rx="11" ry="11" style="stroke: #A80036; stroke-width: 1.0;"/><path d="M259.2438,274.8125 L259.2438,282.7969 L259.9,282.7969 Q261.3375,282.7969 261.9547,281.8828 Q262.5719,280.9688 262.5719,278.7969 Q262.5719,276.625 261.9547,275.7188 Q261.3375,274.8125 259.9,274.8125 L259.2438,274.8125 Z M256.7906,272.6094 L259.4156,272.6094 Q262.4469,272.6094 263.7828,274.0547 Q265.1188,275.5 265.1188,278.7969 Q265.1188,282.0938 263.7828,283.5469 Q262.4469,285 259.4156,285 L256.7906,285 L256.7906,272.6094 Z "/><text fill="#000000" font-family="sans-serif" font-size="12" lengthAdjust="spacingAndGlyphs" textLength="118" x="277.35" y="283.1543">ThirdApp.Whatever</text><line style="stroke: #A80036; stroke-width: 1.5;" x1="229" x2="414" y1="295" y2="295"/><ellipse cx="239" cy="306" fill="none" rx="3" ry="3" style="stroke: #038048; stroke-width: 1.0;"/><text fill="#000000" font-family="sans-serif" font-size="11" lengthAdjust="spacingAndGlyphs" textLength="50" x="248" y="309.2104">content :</text><text fill="#000000" font-family="sans-serif" font-size="11" font-weight="bold" lengthAdjust="spacingAndGlyphs" textLength="107" x="302" y="309.2104">FourthApp.qwert</text><line style="stroke: #A80036; stroke-width: 1.5;" x1="229" x2="414" y1="315.8047" y2="315.8047"/><!--MD5=[3d320bbf20f182627c60f67c45b19382]
reverse link _1 to _2--><path d="M424.5,95.589 C424.5,111.159 424.5,127.862 424.5,141.624 " fill="none" id="_1&lt;-_2" style="stroke: #A80036; stroke-width: 1.0;"/><polygon fill="#A80036" points="424.5,82.3,420.5,88.3,424.5,94.3,428.5,88.3,424.5,82.3" style="stroke: #A80036; stroke-width: 1.0;"/><text fill="#000000" font-family="sans-serif" font-size="13" lengthAdjust="spacingAndGlyphs" textLength="24" x="393.6125" y="130.8097">1..1</text><!--MD5=[68addd6110fd42dc811da417aeccbe4e]
reverse link _2 to _4--><path d="M389.926,213.445 C375.977,229.561 360.163,247.831 347.255,262.745 " fill="none" id="_2&lt;-_4" style="stroke: #A80036; stroke-width: 1.0;"/><polygon fill="#A80036" points="398.774,203.222,391.8229,205.1408,390.9205,212.2952,397.8716,210.3764,398.774,203.222" style="stroke: #A80036; stroke-width: 1.0;"/><text fill="#000000" font-family="sans-serif" font-size="13" lengthAdjust="spacingAndGlyphs" textLength="24" x="321.6795" y="251.9556">1..1</text><!--MD5=[1ce125303ffdfaa7ac3f9a2efe886314]
reverse link _3 to _4--><path d="M253.074,213.445 C267.023,229.561 282.837,247.831 295.745,262.745 " fill="none" id="_3&lt;-_4" style="stroke: #A80036; stroke-width: 1.0;"/><polygon fill="#A80036" points="244.226,203.222,245.1284,210.3764,252.0795,212.2952,251.1771,205.1408,244.226,203.222" style="stroke: #A80036; stroke-width: 1.0;"/><text fill="#000000" font-family="sans-serif" font-size="13" lengthAdjust="spacingAndGlyphs" textLength="24" x="259.5455" y="251.9556">1..1</text><!--MD5=[dcdc9bd13298625487e736574ee9ea65]
reverse link _4 to _0--><path d="M282.94,333.5815 C266.463,350.2806 247.784,369.2124 233.52,383.6686 " fill="none" id="_4&lt;-_0" style="stroke: #A80036; stroke-width: 1.0;"/><polygon fill="#A80036" points="292.336,324.058,285.2745,325.5191,283.9072,332.5994,290.9687,331.1383,292.336,324.058" style="stroke: #A80036; stroke-width: 1.0;"/><text fill="#000000" font-family="sans-serif" font-size="13" lengthAdjust="spacingAndGlyphs" textLength="24" x="207.7186" y="372.9928">1..1</text><!--MD5=[7df979ec91b682fd40e3f4a22e861334]
reverse link _5 to _0--><path d="M138.06,333.5815 C154.537,350.2806 173.216,369.2124 187.48,383.6686 " fill="none" id="_5&lt;-_0" style="stroke: #A80036; stroke-width: 1.0;"/><polygon fill="#A80036" points="128.664,324.058,130.0313,331.1383,137.0928,332.5994,135.7255,325.5191,128.664,324.058" style="stroke: #A80036; stroke-width: 1.0;"/><text fill="#000000" font-family="sans-serif" font-size="13" lengthAdjust="spacingAndGlyphs" textLength="24" x="150.4564" y="372.9928">1..1</text><!--MD5=[3e0788cdb0171149ac314bcff7b31835]
@startuml

class "FourthApp.qwert enum" as _0<< (D,orchid) >> {
}
class "GrpcTesting.Request" as _1 << (D,orchid) >> {
+ query : **OtherApp.Money**
+ that : string
}
class "OtherApp." as _3 << (D,orchid) >> {
+ id : **ThirdApp.Whatever**
}
class "OtherApp.Money" as _2 << (D,orchid) >> {
+ id : **ThirdApp.Whatever**
}
class "ThirdApp." as _5 << (D,orchid) >> {
+ content : **FourthApp.qwert**
}
class "ThirdApp.Whatever" as _4 << (D,orchid) >> {
+ content : **FourthApp.qwert**
}
_1 *- - "1..1 " _2
_2 *- - "1..1 " _4
_3 *- - "1..1 " _4
_4 *- - "1..1 " _0
_5 *- - "1..1 " _0
@enduml

PlantUML version 1.2019.11(Sun Sep 22 10:02:15 UTC 2019)
(GPL source distribution)
Java Runtime: OpenJDK Runtime Environment
JVM: OpenJDK 64-Bit Server VM
Java Version: 1.8.0_222-b10
Operating System: Linux
Default Encoding: UTF-8
Language: en
Country: null
--></g></svg>
