<?xml version="1.0" encoding="UTF-8" standalone="no"?><svg xmlns="http://www.w3.org/2000/svg" xmlns:xlink="http://www.w3.org/1999/xlink" contentScriptType="application/ecmascript" contentStyleType="text/css" height="221px" preserveAspectRatio="none" style="width:230px;height:221px;" version="1.1" viewBox="0 0 230 221" width="230px" zoomAndPan="magnify"><defs><filter height="300%" id="f1nin1pfjpzhv7" width="300%" x="-1" y="-1"><feGaussianBlur result="blurOut" stdDeviation="2.0"/><feColorMatrix in="blurOut" result="blurOut2" type="matrix" values="0 0 0 0 0 0 0 0 0 0 0 0 0 0 0 0 0 0 .4 0"/><feOffset dx="4.0" dy="4.0" in="blurOut2" result="blurOut3"/><feBlend in="SourceGraphic" in2="blurOut3" mode="normal"/></filter></defs><g><text fill="#000000" font-family="sans-serif" font-size="18" lengthAdjust="spacingAndGlyphs" textLength="181" x="28" y="16.708">datagenParams.Title</text><!--MD5=[f77682fd75c3e1fc6a82f566c0814d0f]
class _0--><rect fill="#FEFECE" filter="url(#f1nin1pfjpzhv7)" height="73.6094" id="_0" style="stroke: #A80036; stroke-width: 1.5;" width="213" x="6" y="28.9531"/><ellipse cx="43.5" cy="44.9531" fill="#DA70D6" rx="11" ry="11" style="stroke: #A80036; stroke-width: 1.0;"/><path d="M43.0938,40.7656 L43.0938,48.75 L43.75,48.75 Q45.1875,48.75 45.8047,47.8359 Q46.4219,46.9219 46.4219,44.75 Q46.4219,42.5781 45.8047,41.6719 Q45.1875,40.7656 43.75,40.7656 L43.0938,40.7656 Z M40.6406,38.5625 L43.2656,38.5625 Q46.2969,38.5625 47.6328,40.0078 Q48.9688,41.4531 48.9688,44.75 Q48.9688,48.0469 47.6328,49.5 Q46.2969,50.9531 43.2656,50.9531 L40.6406,50.9531 L40.6406,38.5625 Z "/><text fill="#000000" font-family="sans-serif" font-size="12" lengthAdjust="spacingAndGlyphs" textLength="131" x="62.5" y="49.1074">GrpcTesting.Request</text><line style="stroke: #A80036; stroke-width: 1.5;" x1="7" x2="218" y1="60.9531" y2="60.9531"/><ellipse cx="17" cy="71.9531" fill="none" rx="3" ry="3" style="stroke: #038048; stroke-width: 1.0;"/><text fill="#000000" font-family="sans-serif" font-size="11" lengthAdjust="spacingAndGlyphs" textLength="40" x="26" y="75.1636">query :</text><text fill="#000000" font-family="sans-serif" font-size="11" font-weight="bold" lengthAdjust="spacingAndGlyphs" textLength="143" x="70" y="75.1636">GrpcTesting.Response</text><ellipse cx="17" cy="84.7578" fill="none" rx="3" ry="3" style="stroke: #038048; stroke-width: 1.0;"/><text fill="#000000" font-family="sans-serif" font-size="11" lengthAdjust="spacingAndGlyphs" textLength="67" x="26" y="87.9683">that : string</text><line style="stroke: #A80036; stroke-width: 1.5;" x1="7" x2="218" y1="94.5625" y2="94.5625"/><!--MD5=[37d6e5304215b5e345f427169db70937]
class _1--><rect fill="#FEFECE" filter="url(#f1nin1pfjpzhv7)" height="48" id="_1" style="stroke: #A80036; stroke-width: 1.5;" width="46" x="89.5" y="162.9531"/><ellipse cx="104.5" cy="178.9531" fill="#ADD1B2" rx="11" ry="11" style="stroke: #A80036; stroke-width: 1.0;"/><path d="M107.4688,184.5938 Q106.8906,184.8906 106.25,185.0391 Q105.6094,185.1875 104.9063,185.1875 Q102.4063,185.1875 101.0859,183.5391 Q99.7656,181.8906 99.7656,178.7656 Q99.7656,175.6406 101.0859,173.9844 Q102.4063,172.3281 104.9063,172.3281 Q105.6094,172.3281 106.2578,172.4844 Q106.9063,172.6406 107.4688,172.9375 L107.4688,175.6563 Q106.8438,175.0781 106.25,174.8047 Q105.6563,174.5313 105.0313,174.5313 Q103.6875,174.5313 103,175.6016 Q102.3125,176.6719 102.3125,178.7656 Q102.3125,180.8594 103,181.9297 Q103.6875,183 105.0313,183 Q105.6563,183 106.25,182.7266 Q106.8438,182.4531 107.4688,181.875 L107.4688,184.5938 Z "/><text fill="#000000" font-family="sans-serif" font-size="12" lengthAdjust="spacingAndGlyphs" textLength="14" x="118.5" y="183.1074">_1</text><line style="stroke: #A80036; stroke-width: 1.5;" x1="90.5" x2="134.5" y1="194.9531" y2="194.9531"/><line style="stroke: #A80036; stroke-width: 1.5;" x1="90.5" x2="134.5" y1="202.9531" y2="202.9531"/><!--MD5=[bde1413f829cc278731640fabc810278]
reverse link _0 to _1--><path d="M112.5,116.1915 C112.5,132.3402 112.5,149.5288 112.5,162.8036 " fill="none" id="_0&lt;-_1" style="stroke: #A80036; stroke-width: 1.0;"/><polygon fill="#A80036" points="112.5,102.9801,108.5,108.9801,112.5,114.9801,116.5,108.9801,112.5,102.9801" style="stroke: #A80036; stroke-width: 1.0;"/><text fill="#000000" font-family="sans-serif" font-size="13" lengthAdjust="spacingAndGlyphs" textLength="24" x="80.9125" y="151.7774">1..1</text><!--MD5=[e9a8a236ff570bf64b06adea0197c324]
@startuml
title datagenParams.Title

class "GrpcTesting.Request" as _0 << (D,orchid) >> {
+ query : **GrpcTesting.Response**
+ that : string
}
_0 *- - "1..1 " _1
@enduml

PlantUML version 1.2019.11(Sun Sep 22 10:02:15 UTC 2019)
(GPL source distribution)
Java Runtime: OpenJDK Runtime Environment
JVM: OpenJDK 64-Bit Server VM
Java Version: 1.8.0_222-b10
Operating System: Linux
Default Encoding: UTF-8
Language: en
Country: null
--></g></svg>
