<?xml version="1.0" encoding="UTF-8" standalone="no"?><svg xmlns="http://www.w3.org/2000/svg" xmlns:xlink="http://www.w3.org/1999/xlink" contentScriptType="application/ecmascript" contentStyleType="text/css" height="309px" preserveAspectRatio="none" style="width:426px;height:309px;" version="1.1" viewBox="0 0 426 309" width="426px" zoomAndPan="magnify"><defs><filter height="300%" id="f13r1x687xqfdh" width="300%" x="-1" y="-1"><feGaussianBlur result="blurOut" stdDeviation="2.0"/><feColorMatrix in="blurOut" result="blurOut2" type="matrix" values="0 0 0 0 0 0 0 0 0 0 0 0 0 0 0 0 0 0 .4 0"/><feOffset dx="4.0" dy="4.0" in="blurOut2" result="blurOut3"/><feBlend in="SourceGraphic" in2="blurOut3" mode="normal"/></filter></defs><g><!--MD5=[f77682fd75c3e1fc6a82f566c0814d0f]
class _0--><rect fill="#FEFECE" filter="url(#f13r1x687xqfdh)" height="48" id="_0" style="stroke: #A80036; stroke-width: 1.5;" width="175" x="123" y="250"/><ellipse cx="138" cy="266" fill="#DA70D6" rx="11" ry="11" style="stroke: #A80036; stroke-width: 1.0;"/><path d="M137.5938,261.8125 L137.5938,269.7969 L138.25,269.7969 Q139.6875,269.7969 140.3047,268.8828 Q140.9219,267.9688 140.9219,265.7969 Q140.9219,263.625 140.3047,262.7188 Q139.6875,261.8125 138.25,261.8125 L137.5938,261.8125 Z M135.1406,259.6094 L137.7656,259.6094 Q140.7969,259.6094 142.1328,261.0547 Q143.4688,262.5 143.4688,265.7969 Q143.4688,269.0938 142.1328,270.5469 Q140.7969,272 137.7656,272 L135.1406,272 L135.1406,259.6094 Z "/><text fill="#000000" font-family="sans-serif" font-size="12" lengthAdjust="spacingAndGlyphs" textLength="143" x="152" y="270.1543">FourthApp.qwert enum</text><line style="stroke: #A80036; stroke-width: 1.5;" x1="124" x2="297" y1="282" y2="282"/><line style="stroke: #A80036; stroke-width: 1.5;" x1="124" x2="297" y1="290" y2="290"/><!--MD5=[37d6e5304215b5e345f427169db70937]
class _1--><rect fill="#FEFECE" filter="url(#f13r1x687xqfdh)" height="60.8047" id="_1" style="stroke: #A80036; stroke-width: 1.5;" width="171" x="236" y="8"/><ellipse cx="267.2" cy="24" fill="#DA70D6" rx="11" ry="11" style="stroke: #A80036; stroke-width: 1.0;"/><path d="M266.7938,19.8125 L266.7938,27.7969 L267.45,27.7969 Q268.8875,27.7969 269.5047,26.8828 Q270.1219,25.9688 270.1219,23.7969 Q270.1219,21.625 269.5047,20.7188 Q268.8875,19.8125 267.45,19.8125 L266.7938,19.8125 Z M264.3406,17.6094 L266.9656,17.6094 Q269.9969,17.6094 271.3328,19.0547 Q272.6688,20.5 272.6688,23.7969 Q272.6688,27.0938 271.3328,28.5469 Q269.9969,30 266.9656,30 L264.3406,30 L264.3406,17.6094 Z "/><text fill="#000000" font-family="sans-serif" font-size="12" lengthAdjust="spacingAndGlyphs" textLength="103" x="284.8" y="28.1543">OtherApp.Money</text><line style="stroke: #A80036; stroke-width: 1.5;" x1="237" x2="406" y1="40" y2="40"/><ellipse cx="247" cy="51" fill="none" rx="3" ry="3" style="stroke: #038048; stroke-width: 1.0;"/><text fill="#000000" font-family="sans-serif" font-size="11" lengthAdjust="spacingAndGlyphs" textLength="18" x="256" y="54.2104">id :</text><text fill="#000000" font-family="sans-serif" font-size="11" font-weight="bold" lengthAdjust="spacingAndGlyphs" textLength="123" x="278" y="54.2104">ThirdApp.Whatever</text><line style="stroke: #A80036; stroke-width: 1.5;" x1="237" x2="406" y1="60.8047" y2="60.8047"/><!--MD5=[4df2e88eba431a2a56d213b7bca710d9]
class _3--><rect fill="#FEFECE" filter="url(#f13r1x687xqfdh)" height="60.8047" id="_3" style="stroke: #A80036; stroke-width: 1.5;" width="187" x="6" y="129"/><ellipse cx="65.75" cy="145" fill="#DA70D6" rx="11" ry="11" style="stroke: #A80036; stroke-width: 1.0;"/><path d="M65.3438,140.8125 L65.3438,148.7969 L66,148.7969 Q67.4375,148.7969 68.0547,147.8828 Q68.6719,146.9688 68.6719,144.7969 Q68.6719,142.625 68.0547,141.7188 Q67.4375,140.8125 66,140.8125 L65.3438,140.8125 Z M62.8906,138.6094 L65.5156,138.6094 Q68.5469,138.6094 69.8828,140.0547 Q71.2188,141.5 71.2188,144.7969 Q71.2188,148.0938 69.8828,149.5469 Q68.5469,151 65.5156,151 L62.8906,151 L62.8906,138.6094 Z "/><text fill="#000000" font-family="sans-serif" font-size="12" lengthAdjust="spacingAndGlyphs" textLength="59" x="86.25" y="149.1543">ThirdApp.</text><line style="stroke: #A80036; stroke-width: 1.5;" x1="7" x2="192" y1="161" y2="161"/><ellipse cx="17" cy="172" fill="none" rx="3" ry="3" style="stroke: #038048; stroke-width: 1.0;"/><text fill="#000000" font-family="sans-serif" font-size="11" lengthAdjust="spacingAndGlyphs" textLength="50" x="26" y="175.2104">content :</text><text fill="#000000" font-family="sans-serif" font-size="11" font-weight="bold" lengthAdjust="spacingAndGlyphs" textLength="107" x="80" y="175.2104">FourthApp.qwert</text><line style="stroke: #A80036; stroke-width: 1.5;" x1="7" x2="192" y1="181.8047" y2="181.8047"/><!--MD5=[95d1cea1cd7f69d371fe62aa72675e9c]
class _2--><rect fill="#FEFECE" filter="url(#f13r1x687xqfdh)" height="60.8047" id="_2" style="stroke: #A80036; stroke-width: 1.5;" width="187" x="228" y="129"/><ellipse cx="259.65" cy="145" fill="#DA70D6" rx="11" ry="11" style="stroke: #A80036; stroke-width: 1.0;"/><path d="M259.2438,140.8125 L259.2438,148.7969 L259.9,148.7969 Q261.3375,148.7969 261.9547,147.8828 Q262.5719,146.9688 262.5719,144.7969 Q262.5719,142.625 261.9547,141.7188 Q261.3375,140.8125 259.9,140.8125 L259.2438,140.8125 Z M256.7906,138.6094 L259.4156,138.6094 Q262.4469,138.6094 263.7828,140.0547 Q265.1188,141.5 265.1188,144.7969 Q265.1188,148.0938 263.7828,149.5469 Q262.4469,151 259.4156,151 L256.7906,151 L256.7906,138.6094 Z "/><text fill="#000000" font-family="sans-serif" font-size="12" lengthAdjust="spacingAndGlyphs" textLength="118" x="277.35" y="149.1543">ThirdApp.Whatever</text><line style="stroke: #A80036; stroke-width: 1.5;" x1="229" x2="414" y1="161" y2="161"/><ellipse cx="239" cy="172" fill="none" rx="3" ry="3" style="stroke: #038048; stroke-width: 1.0;"/><text fill="#000000" font-family="sans-serif" font-size="11" lengthAdjust="spacingAndGlyphs" textLength="50" x="248" y="175.2104">content :</text><text fill="#000000" font-family="sans-serif" font-size="11" font-weight="bold" lengthAdjust="spacingAndGlyphs" textLength="107" x="302" y="175.2104">FourthApp.qwert</text><line style="stroke: #A80036; stroke-width: 1.5;" x1="229" x2="414" y1="181.8047" y2="181.8047"/><!--MD5=[3d320bbf20f182627c60f67c45b19382]
reverse link _1 to _2--><path d="M321.5,82.228 C321.5,97.638 321.5,114.683 321.5,128.745 " fill="none" id="_1&lt;-_2" style="stroke: #A80036; stroke-width: 1.0;"/><polygon fill="#A80036" points="321.5,69.222,317.5,75.222,321.5,81.222,325.5,75.222,321.5,69.222" style="stroke: #A80036; stroke-width: 1.0;"/><text fill="#000000" font-family="sans-serif" font-size="13" lengthAdjust="spacingAndGlyphs" textLength="24" x="290.6125" y="117.9556">1..1</text><!--MD5=[59b725bd629d11771785352f69ebf978]
reverse link _2 to _0--><path d="M282.94,199.5815 C266.463,216.2806 247.784,235.2124 233.52,249.6686 " fill="none" id="_2&lt;-_0" style="stroke: #A80036; stroke-width: 1.0;"/><polygon fill="#A80036" points="292.336,190.058,285.2745,191.5191,283.9072,198.5994,290.9687,197.1383,292.336,190.058" style="stroke: #A80036; stroke-width: 1.0;"/><text fill="#000000" font-family="sans-serif" font-size="13" lengthAdjust="spacingAndGlyphs" textLength="24" x="207.7186" y="238.9928">1..1</text><!--MD5=[7ecbe2165298d12861085e98d6b29611]
reverse link _3 to _0--><path d="M138.06,199.5815 C154.537,216.2806 173.216,235.2124 187.48,249.6686 " fill="none" id="_3&lt;-_0" style="stroke: #A80036; stroke-width: 1.0;"/><polygon fill="#A80036" points="128.664,190.058,130.0313,197.1383,137.0928,198.5994,135.7255,191.5191,128.664,190.058" style="stroke: #A80036; stroke-width: 1.0;"/><text fill="#000000" font-family="sans-serif" font-size="13" lengthAdjust="spacingAndGlyphs" textLength="24" x="150.4564" y="238.9928">1..1</text><!--MD5=[14e9676cb0e349f21043b5df17e0c81f]
@startuml

class "FourthApp.qwert enum" as _0<< (D,orchid) >> {
}
class "OtherApp.Money" as _1 << (D,orchid) >> {
+ id : **ThirdApp.Whatever**
}
class "ThirdApp." as _3 << (D,orchid) >> {
+ content : **FourthApp.qwert**
}
class "ThirdApp.Whatever" as _2 << (D,orchid) >> {
+ content : **FourthApp.qwert**
}
_1 *- - "1..1 " _2
_2 *- - "1..1 " _0
_3 *- - "1..1 " _0
@enduml

PlantUML version 1.2019.11(Sun Sep 22 10:02:15 UTC 2019)
(GPL source distribution)
Java Runtime: OpenJDK Runtime Environment
JVM: OpenJDK 64-Bit Server VM
Java Version: 1.8.0_222-b10
Operating System: Linux
Default Encoding: UTF-8
Language: en
Country: null
--></g></svg>
