<?xml version="1.0" encoding="UTF-8" standalone="no"?><svg xmlns="http://www.w3.org/2000/svg" xmlns:xlink="http://www.w3.org/1999/xlink" contentScriptType="application/ecmascript" contentStyleType="text/css" height="86px" preserveAspectRatio="none" style="width:104px;height:86px;" version="1.1" viewBox="0 0 104 86" width="104px" zoomAndPan="magnify"><defs><filter height="300%" id="f1wqrjhlp2hdvp" width="300%" x="-1" y="-1"><feGaussianBlur result="blurOut" stdDeviation="2.0"/><feColorMatrix in="blurOut" result="blurOut2" type="matrix" values="0 0 0 0 0 0 0 0 0 0 0 0 0 0 0 0 0 0 .4 0"/><feOffset dx="4.0" dy="4.0" in="blurOut2" result="blurOut3"/><feBlend in="SourceGraphic" in2="blurOut3" mode="normal"/></filter></defs><g><!--MD5=[f77682fd75c3e1fc6a82f566c0814d0f]
class _0--><rect fill="#FEFECE" filter="url(#f1wqrjhlp2hdvp)" height="60.8047" id="_0" style="stroke: #A80036; stroke-width: 1.5;" width="78" x="7" y="7"/><ellipse cx="23.8" cy="23" fill="#DA70D6" rx="11" ry="11" style="stroke: #A80036; stroke-width: 1.0;"/><path d="M21.3156,26.2969 C20.6594,26.2969 20.2688,26.6094 20.2688,27.1563 C20.2688,27.4063 20.4094,27.6719 20.6281,27.8281 C20.7844,27.9531 21.0031,28 21.4094,28 L24.8781,28 C26.3625,28 27.3781,27.6094 28.2063,26.7188 C28.9875,25.9063 29.3938,24.8594 29.3938,23.6094 L29.3938,22.8125 C29.3938,20.1406 27.5031,18.0938 25.0188,18.0938 L21.4094,18.0938 C20.9563,18.0938 20.8313,18.1094 20.675,18.2031 C20.425,18.3594 20.2688,18.6563 20.2688,18.9375 C20.2688,19.4844 20.6438,19.7813 21.3156,19.7813 L21.3156,26.2969 Z M23.0031,26.2969 L23.0031,19.7813 L24.8781,19.7813 C25.7844,19.7813 26.425,20.0625 26.9406,20.6563 C27.425,21.2344 27.7063,21.9844 27.7063,22.7813 L27.7063,23.5625 C27.7063,24.4375 27.4719,25.0313 27.0031,25.5469 C26.4719,26.0938 25.9094,26.2969 24.8938,26.2969 L23.0031,26.2969 Z "/><text fill="#000000" font-family="sans-serif" font-size="12" lengthAdjust="spacingAndGlyphs" textLength="42" x="38.2" y="27.1543">STRING</text><line style="stroke: #A80036; stroke-width: 1.5;" x1="8" x2="84" y1="39" y2="39"/><ellipse cx="18" cy="50" fill="none" rx="3" ry="3" style="stroke: #038048; stroke-width: 1.0;"/><text fill="#000000" font-family="sans-serif" font-size="11" lengthAdjust="spacingAndGlyphs" textLength="52" x="27" y="53.2104">id : string</text><line style="stroke: #A80036; stroke-width: 1.5;" x1="8" x2="84" y1="59.8047" y2="59.8047"/><!--MD5=[e4971e609ebba160b3c44c468be79225]
@startuml
''''''''''''''''''''''''''''''''''''''''''
''                                      ''
''  AUTOGENERATED CODE - - DO NOT EDIT!  ''
''                                      ''
''''''''''''''''''''''''''''''''''''''''''

class "STRING" as _0 << (D,orchid) >> {
+ id : string
}
@enduml

@startuml

class "STRING" as _0 << (D,orchid) >> {
+ id : string
}
@enduml

PlantUML version 1.2020.13(Sat Jun 13 12:26:38 UTC 2020)
(GPL source distribution)
Java Runtime: Java(TM) SE Runtime Environment
JVM: Java HotSpot(TM) 64-Bit Server VM
Default Encoding: UTF-8
Language: en
Country: US
--></g></svg>