<?xml version="1.0" encoding="UTF-8" standalone="no"?><svg xmlns="http://www.w3.org/2000/svg" xmlns:xlink="http://www.w3.org/1999/xlink" contentScriptType="application/ecmascript" contentStyleType="text/css" height="79px" preserveAspectRatio="none" style="width:122px;height:79px;" version="1.1" viewBox="0 0 122 79" width="122px" zoomAndPan="magnify"><defs><filter height="300%" id="f432xkvyzfr63" width="300%" x="-1" y="-1"><feGaussianBlur result="blurOut" stdDeviation="2.0"/><feColorMatrix in="blurOut" result="blurOut2" type="matrix" values="0 0 0 0 0 0 0 0 0 0 0 0 0 0 0 0 0 0 .4 0"/><feOffset dx="4.0" dy="4.0" in="blurOut2" result="blurOut3"/><feBlend in="SourceGraphic" in2="blurOut3" mode="normal"/></filter></defs><g><!--MD5=[f77682fd75c3e1fc6a82f566c0814d0f]
class _0--><rect fill="#FEFECE" filter="url(#f432xkvyzfr63)" height="53.9375" id="_0" style="stroke: #A80036; stroke-width: 1.5;" width="96" x="7" y="7"/><ellipse cx="22" cy="25.9688" fill="#DA70D6" rx="11" ry="11" style="stroke: #A80036; stroke-width: 1.0;"/><path d="M21.5938,21.7813 L21.5938,29.7656 L22.25,29.7656 Q23.6875,29.7656 24.2969,28.8594 Q24.9219,27.9375 24.9219,25.7656 Q24.9219,23.5938 24.2969,22.6875 Q23.6875,21.7813 22.25,21.7813 L21.5938,21.7813 Z M19.1406,19.5781 L21.7656,19.5781 Q24.7969,19.5781 26.125,21.0313 Q27.4688,22.4688 27.4688,25.7656 Q27.4688,29.0625 26.125,30.5156 Q24.7969,31.9688 21.7656,31.9688 L19.1406,31.9688 L19.1406,19.5781 Z "/><text fill="#000000" font-family="sans-serif" font-size="12" font-style="italic" lengthAdjust="spacingAndGlyphs" textLength="50" x="43" y="23.1387">«string»</text><text fill="#000000" font-family="sans-serif" font-size="12" lengthAdjust="spacingAndGlyphs" textLength="64" x="36" y="37.1074">primitiveID</text><line style="stroke: #A80036; stroke-width: 1.5;" x1="8" x2="102" y1="44.9375" y2="44.9375"/><line style="stroke: #A80036; stroke-width: 1.5;" x1="8" x2="102" y1="52.9375" y2="52.9375"/><!--MD5=[27483f09bc1d205f1c805645b82b5405]
@startuml
''''''''''''''''''''''''''''''''''''''''''
''                                      ''
''  AUTOGENERATED CODE - - DO NOT EDIT!  ''
''                                      ''
''''''''''''''''''''''''''''''''''''''''''

class "primitiveID" as _0 << (D,orchid) string >> {
}
@enduml

@startuml

class "primitiveID" as _0 << (D,orchid) string >> {
}
@enduml

PlantUML version 1.2020.15(Sun Jun 28 11:39:45 UTC 2020)
(GPL source distribution)
Java Runtime: OpenJDK Runtime Environment
JVM: OpenJDK 64-Bit Server VM
Default Encoding: UTF-8
Language: en
Country: null
--></g></svg>