<?xml version="1.0" encoding="UTF-8" standalone="no"?><svg xmlns="http://www.w3.org/2000/svg" xmlns:xlink="http://www.w3.org/1999/xlink" contentScriptType="application/ecmascript" contentStyleType="text/css" height="78px" preserveAspectRatio="none" style="width:99px;height:78px;" version="1.1" viewBox="0 0 99 78" width="99px" zoomAndPan="magnify"><defs><filter height="300%" id="f1wqrjhlp2hdvp" width="300%" x="-1" y="-1"><feGaussianBlur result="blurOut" stdDeviation="2.0"/><feColorMatrix in="blurOut" result="blurOut2" type="matrix" values="0 0 0 0 0 0 0 0 0 0 0 0 0 0 0 0 0 0 .4 0"/><feOffset dx="4.0" dy="4.0" in="blurOut2" result="blurOut3"/><feBlend in="SourceGraphic" in2="blurOut3" mode="normal"/></filter></defs><g><!--MD5=[f77682fd75c3e1fc6a82f566c0814d0f]
class _0--><rect fill="#FEFECE" filter="url(#f1wqrjhlp2hdvp)" height="60.8047" id="_0" style="stroke: #A80036; stroke-width: 1.5;" width="81" x="7" y="7"/><ellipse cx="24.25" cy="23" fill="#DA70D6" rx="11" ry="11" style="stroke: #A80036; stroke-width: 1.0;"/><path d="M23.8438,18.8125 L23.8438,26.7969 L24.5,26.7969 Q25.9375,26.7969 26.5469,25.8906 Q27.1719,24.9688 27.1719,22.7969 Q27.1719,20.625 26.5469,19.7188 Q25.9375,18.8125 24.5,18.8125 L23.8438,18.8125 Z M21.3906,16.6094 L24.0156,16.6094 Q27.0469,16.6094 28.375,18.0625 Q29.7188,19.5 29.7188,22.7969 Q29.7188,26.0938 28.375,27.5469 Q27.0469,29 24.0156,29 L21.3906,29 L21.3906,16.6094 Z "/><text fill="#000000" font-family="sans-serif" font-size="12" lengthAdjust="spacingAndGlyphs" textLength="44" x="38.75" y="27.1543">STRING</text><line style="stroke: #A80036; stroke-width: 1.5;" x1="8" x2="87" y1="39" y2="39"/><ellipse cx="18" cy="50" fill="none" rx="3" ry="3" style="stroke: #038048; stroke-width: 1.0;"/><text fill="#000000" font-family="sans-serif" font-size="11" lengthAdjust="spacingAndGlyphs" textLength="55" x="27" y="53.2104">id : string</text><line style="stroke: #A80036; stroke-width: 1.5;" x1="8" x2="87" y1="59.8047" y2="59.8047"/><!--MD5=[647079673d00ccf93489b3ad872448ac]
@startuml
''''''''''''''''''''''''''''''''''''''''''
''                                      ''
''  AUTOGENERATED CODE - - DO NOT EDIT!  ''
''                                      ''
''''''''''''''''''''''''''''''''''''''''''

class "STRING" as _0 << (D,orchid) >> {
+ id : string
}
@enduml

@startuml

class "STRING" as _0 << (D,orchid) >> {
+ id : string
}
@enduml

PlantUML version 1.2020.10(Sun May 17 09:35:57 GMT 2020)
(GPL source distribution)
Java Runtime: OpenJDK Runtime Environment
JVM: OpenJDK 64-Bit Server VM
Java Version: 14-ea+33
Operating System: Linux
Default Encoding: UTF-8
Language: en
Country: US
--></g></svg>