<?xml version="1.0" encoding="UTF-8" standalone="no"?><svg xmlns="http://www.w3.org/2000/svg" xmlns:xlink="http://www.w3.org/1999/xlink" contentScriptType="application/ecmascript" contentStyleType="text/css" height="270px" preserveAspectRatio="none" style="width:150px;height:270px;" version="1.1" viewBox="0 0 150 270" width="150px" zoomAndPan="magnify"><defs><filter height="300%" id="f26txmmbp0nxl" width="300%" x="-1" y="-1"><feGaussianBlur result="blurOut" stdDeviation="2.0"/><feColorMatrix in="blurOut" result="blurOut2" type="matrix" values="0 0 0 0 0 0 0 0 0 0 0 0 0 0 0 0 0 0 .4 0"/><feOffset dx="4.0" dy="4.0" in="blurOut2" result="blurOut3"/><feBlend in="SourceGraphic" in2="blurOut3" mode="normal"/></filter></defs><g><text fill="#000000" font-family="sans-serif" font-size="14" font-weight="bold" lengthAdjust="spacingAndGlyphs" textLength="96" x="22.5" y="22.9951">simple2 &lt;- _</text><rect fill="#FFFFFF" filter="url(#f26txmmbp0nxl)" height="35.1328" style="stroke: #A80036; stroke-width: 1.0;" width="10" x="33" y="155.8594"/><line style="stroke: #A80036; stroke-width: 1.0; stroke-dasharray: 5.0,5.0;" x1="38" x2="38" y1="81.5938" y2="215.9922"/><text fill="#000000" font-family="sans-serif" font-size="14" lengthAdjust="spacingAndGlyphs" textLength="54" x="8" y="78.292">simple2</text><ellipse cx="38" cy="49.2969" fill="#FEFECE" filter="url(#f26txmmbp0nxl)" rx="12" ry="12" style="stroke: #A80036; stroke-width: 2.0;"/><polygon fill="#A80036" points="34,37.2969,40,32.2969,38,37.2969,40,42.2969,34,37.2969" style="stroke: #A80036; stroke-width: 1.0;"/><text fill="#000000" font-family="sans-serif" font-size="14" lengthAdjust="spacingAndGlyphs" textLength="54" x="8" y="227.9873">simple2</text><ellipse cx="38" cy="247.2891" fill="#FEFECE" filter="url(#f26txmmbp0nxl)" rx="12" ry="12" style="stroke: #A80036; stroke-width: 2.0;"/><polygon fill="#A80036" points="34,235.2891,40,230.2891,38,235.2891,40,240.2891,34,235.2891" style="stroke: #A80036; stroke-width: 1.0;"/><rect fill="#FFFFFF" filter="url(#f26txmmbp0nxl)" height="35.1328" style="stroke: #A80036; stroke-width: 1.0;" width="10" x="33" y="155.8594"/><rect fill="#EEEEEE" filter="url(#f26txmmbp0nxl)" height="3" style="stroke: #EEEEEE; stroke-width: 1.0;" width="135" x="3" y="112.1602"/><line style="stroke: #000000; stroke-width: 1.0;" x1="3" x2="138" y1="112.1602" y2="112.1602"/><line style="stroke: #000000; stroke-width: 1.0;" x1="3" x2="138" y1="115.1602" y2="115.1602"/><rect fill="#EEEEEE" filter="url(#f26txmmbp0nxl)" height="23.1328" style="stroke: #000000; stroke-width: 2.0;" width="110" x="15.5" y="101.5938"/><text fill="#000000" font-family="sans-serif" font-size="13" font-weight="bold" lengthAdjust="spacingAndGlyphs" textLength="91" x="21.5" y="117.6606">simple2 &lt;- _</text><polygon fill="#A80036" points="21,151.8594,31,155.8594,21,159.8594,25,155.8594" style="stroke: #A80036; stroke-width: 1.0;"/><line style="stroke: #A80036; stroke-width: 1.0;" x1="3" x2="27" y1="155.8594" y2="155.8594"/><text fill="#000000" font-family="sans-serif" font-size="13" lengthAdjust="spacingAndGlyphs" textLength="7" x="10" y="150.7935">_</text><line style="stroke: #A80036; stroke-width: 1.0;" x1="43" x2="85" y1="189.9922" y2="189.9922"/><line style="stroke: #A80036; stroke-width: 1.0;" x1="85" x2="85" y1="189.9922" y2="202.9922"/><line style="stroke: #A80036; stroke-width: 1.0;" x1="38" x2="85" y1="202.9922" y2="202.9922"/><polygon fill="#A80036" points="48,198.9922,38,202.9922,48,206.9922,44,202.9922" style="stroke: #A80036; stroke-width: 1.0;"/><text fill="#000000" font-family="sans-serif" font-size="13" lengthAdjust="spacingAndGlyphs" textLength="76" x="50" y="184.9263">GrpcTesting</text><!--MD5=[c58591ade74e180ad9eaa5e0ade39a24]
@startuml


control "simple2" as _0
skinparam maxMessageSize 250
title simple2 <- _
== simple2 <- _ ==
[->_0 : _
activate _0
_0 -> _0 : GrpcTesting
deactivate _0
@enduml

PlantUML version 1.2019.11(Sun Sep 22 10:02:15 UTC 2019)
(GPL source distribution)
Java Runtime: OpenJDK Runtime Environment
JVM: OpenJDK 64-Bit Server VM
Java Version: 1.8.0_222-b10
Operating System: Linux
Default Encoding: UTF-8
Language: en
Country: null
--></g></svg>
