<?xml version="1.0" encoding="UTF-8" standalone="no"?><svg xmlns="http://www.w3.org/2000/svg" xmlns:xlink="http://www.w3.org/1999/xlink" contentScriptType="application/ecmascript" contentStyleType="text/css" height="66px" preserveAspectRatio="none" style="width:187px;height:66px;" version="1.1" viewBox="0 0 187 66" width="187px" zoomAndPan="magnify"><defs><filter height="300%" id="f99dm7gx9ylls" width="300%" x="-1" y="-1"><feGaussianBlur result="blurOut" stdDeviation="2.0"/><feColorMatrix in="blurOut" result="blurOut2" type="matrix" values="0 0 0 0 0 0 0 0 0 0 0 0 0 0 0 0 0 0 .4 0"/><feOffset dx="4.0" dy="4.0" in="blurOut2" result="blurOut3"/><feBlend in="SourceGraphic" in2="blurOut3" mode="normal"/></filter></defs><g><!--MD5=[f77682fd75c3e1fc6a82f566c0814d0f]
class _0--><rect fill="#FEFECE" filter="url(#f99dm7gx9ylls)" height="48" id="_0" style="stroke: #A80036; stroke-width: 1.5;" width="169" x="7" y="7"/><ellipse cx="22" cy="23" fill="#DA70D6" rx="11" ry="11" style="stroke: #A80036; stroke-width: 1.0;"/><path d="M19.2656,26.2969 L19.2656,19.7813 C18.5938,19.7813 18.2188,19.4844 18.2188,18.9375 C18.2188,18.6563 18.375,18.3594 18.625,18.2031 C18.7813,18.1094 18.9063,18.0938 19.3594,18.0938 L22.9688,18.0938 C25.4531,18.0938 27.3438,20.1406 27.3438,22.8125 L27.3438,23.6094 C27.3438,24.8594 26.9375,25.9063 26.1563,26.7188 C25.3281,27.6094 24.3125,28 22.8281,28 L19.3594,28 C18.9531,28 18.7344,27.9531 18.5781,27.8281 C18.3594,27.6719 18.2188,27.4063 18.2188,27.1563 C18.2188,26.6094 18.6094,26.2969 19.2656,26.2969 Z M20.9531,26.2969 L22.8438,26.2969 C23.8594,26.2969 24.4219,26.0938 24.9531,25.5469 C25.4219,25.0313 25.6563,24.4375 25.6563,23.5625 L25.6563,22.7813 C25.6563,21.9844 25.375,21.2344 24.8906,20.6563 C24.375,20.0625 23.7344,19.7813 22.8281,19.7813 L20.9531,19.7813 Z "/><text fill="#000000" font-family="sans-serif" font-size="12" lengthAdjust="spacingAndGlyphs" textLength="137" x="36" y="27.1543">MegaDatabase.Empty</text><line style="stroke: #A80036; stroke-width: 1.5;" x1="8" x2="175" y1="39" y2="39"/><line style="stroke: #A80036; stroke-width: 1.5;" x1="8" x2="175" y1="47" y2="47"/><!--MD5=[5436ab5d22148485c5b8c9392c5c62d5]
@startuml

class "MegaDatabase.Empty" as _0<< (D,orchid) >> {
}
@enduml

PlantUML version 1.2020.03beta11(Unknown compile time)
(GPL source distribution)
Java Runtime: Java(TM) SE Runtime Environment
JVM: Java HotSpot(TM) 64-Bit Server VM
Java Version: 1.7.0_25-b15
Operating System: Linux
Default Encoding: UTF-8
Language: en
Country: US
--></g></svg>
