<?xml version="1.0" encoding="UTF-8" standalone="no"?><svg xmlns="http://www.w3.org/2000/svg" xmlns:xlink="http://www.w3.org/1999/xlink" contentScriptType="application/ecmascript" contentStyleType="text/css" height="539px" preserveAspectRatio="none" style="width:499px;height:539px;" version="1.1" viewBox="0 0 499 539" width="499px" zoomAndPan="magnify"><defs><filter height="300%" id="f1wr8hh7mu0w20" width="300%" x="-1" y="-1"><feGaussianBlur result="blurOut" stdDeviation="2.0"/><feColorMatrix in="blurOut" result="blurOut2" type="matrix" values="0 0 0 0 0 0 0 0 0 0 0 0 0 0 0 0 0 0 .4 0"/><feOffset dx="4.0" dy="4.0" in="blurOut2" result="blurOut3"/><feBlend in="SourceGraphic" in2="blurOut3" mode="normal"/></filter></defs><g><text fill="#000000" font-family="sans-serif" font-size="18" lengthAdjust="spacingAndGlyphs" textLength="204" x="143" y="26.708">PaymentServer &lt;- Pay</text><rect fill="#FFFFFF" filter="url(#f1wr8hh7mu0w20)" height="298.1953" style="stroke: #A80036; stroke-width: 1.0;" width="10" x="193" y="160.5156"/><rect fill="#FFFFFF" filter="url(#f1wr8hh7mu0w20)" height="58.2656" style="stroke: #A80036; stroke-width: 1.0;" width="10" x="300.5" y="304.0469"/><rect fill="#FFFFFF" filter="url(#f1wr8hh7mu0w20)" height="30" style="stroke: #A80036; stroke-width: 1.0;" width="10" x="370" y="213.7813"/><rect fill="#FFFFFF" filter="url(#f1wr8hh7mu0w20)" height="76.2656" style="stroke: #000000; stroke-width: 2.0;" width="269" x="133" y="175.5156"/><rect fill="#FFFFFF" filter="url(#f1wr8hh7mu0w20)" height="104.5313" style="stroke: #000000; stroke-width: 2.0;" width="344" x="133" y="265.7813"/><rect fill="#FFFFFF" filter="url(#f1wr8hh7mu0w20)" height="46.2656" style="stroke: #000000; stroke-width: 2.0;" width="257" x="6" y="384.3125"/><line style="stroke: #A80036; stroke-width: 1.0; stroke-dasharray: 5.0,5.0;" x1="198" x2="198" y1="86.25" y2="476.7109"/><line style="stroke: #A80036; stroke-width: 1.0; stroke-dasharray: 5.0,5.0;" x1="305" x2="305" y1="86.25" y2="476.7109"/><line style="stroke: #A80036; stroke-width: 1.0; stroke-dasharray: 5.0,5.0;" x1="375" x2="375" y1="86.25" y2="476.7109"/><text fill="#000000" font-family="sans-serif" font-size="14" lengthAdjust="spacingAndGlyphs" textLength="104" x="143" y="82.9482">PaymentServer</text><ellipse cx="198" cy="53.9531" fill="#FEFECE" filter="url(#f1wr8hh7mu0w20)" rx="12" ry="12" style="stroke: #A80036; stroke-width: 2.0;"/><polygon fill="#A80036" points="194,41.9531,200,36.9531,198,41.9531,200,46.9531,194,41.9531" style="stroke: #A80036; stroke-width: 1.0;"/><text fill="#000000" font-family="sans-serif" font-size="14" lengthAdjust="spacingAndGlyphs" textLength="104" x="143" y="488.7061">PaymentServer</text><ellipse cx="198" cy="508.0078" fill="#FEFECE" filter="url(#f1wr8hh7mu0w20)" rx="12" ry="12" style="stroke: #A80036; stroke-width: 2.0;"/><polygon fill="#A80036" points="194,496.0078,200,491.0078,198,496.0078,200,501.0078,194,496.0078" style="stroke: #A80036; stroke-width: 1.0;"/><text fill="#000000" font-family="sans-serif" font-size="14" lengthAdjust="spacingAndGlyphs" textLength="79" x="263" y="82.9482">MasterCard</text><ellipse cx="305.5" cy="53.9531" fill="#FEFECE" filter="url(#f1wr8hh7mu0w20)" rx="12" ry="12" style="stroke: #A80036; stroke-width: 2.0;"/><polygon fill="#A80036" points="301.5,41.9531,307.5,36.9531,305.5,41.9531,307.5,46.9531,301.5,41.9531" style="stroke: #A80036; stroke-width: 1.0;"/><text fill="#000000" font-family="sans-serif" font-size="14" lengthAdjust="spacingAndGlyphs" textLength="79" x="263" y="488.7061">MasterCard</text><ellipse cx="305.5" cy="508.0078" fill="#FEFECE" filter="url(#f1wr8hh7mu0w20)" rx="12" ry="12" style="stroke: #A80036; stroke-width: 2.0;"/><polygon fill="#A80036" points="301.5,496.0078,307.5,491.0078,305.5,496.0078,307.5,501.0078,301.5,496.0078" style="stroke: #A80036; stroke-width: 1.0;"/><text fill="#000000" font-family="sans-serif" font-size="14" lengthAdjust="spacingAndGlyphs" textLength="28" x="358" y="82.9482">Visa</text><ellipse cx="375" cy="53.9531" fill="#FEFECE" filter="url(#f1wr8hh7mu0w20)" rx="12" ry="12" style="stroke: #A80036; stroke-width: 2.0;"/><polygon fill="#A80036" points="371,41.9531,377,36.9531,375,41.9531,377,46.9531,371,41.9531" style="stroke: #A80036; stroke-width: 1.0;"/><text fill="#000000" font-family="sans-serif" font-size="14" lengthAdjust="spacingAndGlyphs" textLength="28" x="358" y="488.7061">Visa</text><ellipse cx="375" cy="508.0078" fill="#FEFECE" filter="url(#f1wr8hh7mu0w20)" rx="12" ry="12" style="stroke: #A80036; stroke-width: 2.0;"/><polygon fill="#A80036" points="371,496.0078,377,491.0078,375,496.0078,377,501.0078,371,496.0078" style="stroke: #A80036; stroke-width: 1.0;"/><rect fill="#FFFFFF" filter="url(#f1wr8hh7mu0w20)" height="298.1953" style="stroke: #A80036; stroke-width: 1.0;" width="10" x="193" y="160.5156"/><rect fill="#FFFFFF" filter="url(#f1wr8hh7mu0w20)" height="58.2656" style="stroke: #A80036; stroke-width: 1.0;" width="10" x="300.5" y="304.0469"/><rect fill="#FFFFFF" filter="url(#f1wr8hh7mu0w20)" height="30" style="stroke: #A80036; stroke-width: 1.0;" width="10" x="370" y="213.7813"/><rect fill="#EEEEEE" filter="url(#f1wr8hh7mu0w20)" height="3" style="stroke: #EEEEEE; stroke-width: 1.0;" width="484" x="3" y="116.8164"/><line style="stroke: #000000; stroke-width: 1.0;" x1="3" x2="487" y1="116.8164" y2="116.8164"/><line style="stroke: #000000; stroke-width: 1.0;" x1="3" x2="487" y1="119.8164" y2="119.8164"/><rect fill="#EEEEEE" filter="url(#f1wr8hh7mu0w20)" height="23.1328" style="stroke: #000000; stroke-width: 2.0;" width="184" x="153" y="106.25"/><text fill="#000000" font-family="sans-serif" font-size="13" font-weight="bold" lengthAdjust="spacingAndGlyphs" textLength="165" x="159" y="122.3169">PaymentServer &lt;- Pay</text><polygon fill="#A80036" points="181,156.5156,191,160.5156,181,164.5156,185,160.5156" style="stroke: #A80036; stroke-width: 1.0;"/><line style="stroke: #A80036; stroke-width: 1.0;" x1="3" x2="187" y1="160.5156" y2="160.5156"/><text fill="#000000" font-family="sans-serif" font-size="13" lengthAdjust="spacingAndGlyphs" textLength="23" x="10" y="155.4497">Pay</text><path d="M133,175.5156 L203,175.5156 L203,182.5156 L193,192.5156 L133,192.5156 L133,175.5156 " fill="#EEEEEE" style="stroke: #000000; stroke-width: 1.0;"/><rect fill="none" height="76.2656" style="stroke: #000000; stroke-width: 2.0;" width="269" x="133" y="175.5156"/><text fill="#000000" font-family="sans-serif" font-size="13" font-weight="bold" lengthAdjust="spacingAndGlyphs" textLength="25" x="148" y="188.5825">opt</text><text fill="#000000" font-family="sans-serif" font-size="11" font-weight="bold" lengthAdjust="spacingAndGlyphs" textLength="171" x="218" y="187.7261">[processor_type == "visa"]</text><polygon fill="#A80036" points="358,209.7813,368,213.7813,358,217.7813,362,213.7813" style="stroke: #A80036; stroke-width: 1.0;"/><line style="stroke: #A80036; stroke-width: 1.0;" x1="203" x2="364" y1="213.7813" y2="213.7813"/><text fill="#000000" font-family="sans-serif" font-size="13" lengthAdjust="spacingAndGlyphs" textLength="23" x="210" y="208.7153">Pay</text><path d="M133,265.7813 L472,265.7813 L472,272.7813 L462,282.7813 L133,282.7813 L133,265.7813 " fill="#EEEEEE" style="stroke: #000000; stroke-width: 1.0;"/><rect fill="none" height="104.5313" style="stroke: #000000; stroke-width: 2.0;" width="344" x="133" y="265.7813"/><text fill="#000000" font-family="sans-serif" font-size="13" font-weight="bold" lengthAdjust="spacingAndGlyphs" textLength="294" x="148" y="278.8481">else if processor_type == "mastercard"</text><polygon fill="#A80036" points="288.5,300.0469,298.5,304.0469,288.5,308.0469,292.5,304.0469" style="stroke: #A80036; stroke-width: 1.0;"/><line style="stroke: #A80036; stroke-width: 1.0;" x1="203" x2="294.5" y1="304.0469" y2="304.0469"/><text fill="#000000" font-family="sans-serif" font-size="13" lengthAdjust="spacingAndGlyphs" textLength="65" x="210" y="298.981">POST /pay</text><polygon fill="#A80036" points="214,329.1797,204,333.1797,214,337.1797,210,333.1797" style="stroke: #A80036; stroke-width: 1.0;"/><line style="stroke: #A80036; stroke-width: 1.0; stroke-dasharray: 2.0,2.0;" x1="208" x2="299.5" y1="333.1797" y2="333.1797"/><text fill="#000000" font-family="sans-serif" font-size="13" lengthAdjust="spacingAndGlyphs" textLength="31" x="220" y="328.1138">error</text><polygon fill="#A80036" points="214,358.3125,204,362.3125,214,366.3125,210,362.3125" style="stroke: #A80036; stroke-width: 1.0;"/><line style="stroke: #A80036; stroke-width: 1.0; stroke-dasharray: 2.0,2.0;" x1="208" x2="304.5" y1="362.3125" y2="362.3125"/><text fill="#000000" font-family="sans-serif" font-size="13" lengthAdjust="spacingAndGlyphs" textLength="65" x="220" y="357.2466">SimpleObj</text><path d="M6,384.3125 L81,384.3125 L81,391.3125 L71,401.3125 L6,401.3125 L6,384.3125 " fill="#EEEEEE" style="stroke: #000000; stroke-width: 1.0;"/><rect fill="none" height="46.2656" style="stroke: #000000; stroke-width: 2.0;" width="257" x="6" y="384.3125"/><text fill="#000000" font-family="sans-serif" font-size="13" font-weight="bold" lengthAdjust="spacingAndGlyphs" textLength="30" x="21" y="397.3794">else</text><polygon fill="#A80036" points="14,418.5781,4,422.5781,14,426.5781,10,422.5781" style="stroke: #A80036; stroke-width: 1.0;"/><line style="stroke: #A80036; stroke-width: 1.0; stroke-dasharray: 2.0,2.0;" x1="8" x2="192" y1="422.5781" y2="422.5781"/><text fill="#000000" font-family="sans-serif" font-size="13" lengthAdjust="spacingAndGlyphs" textLength="164" x="20" y="417.5122">500 &lt; NotSupportedError</text><polygon fill="#A80036" points="14,454.7109,4,458.7109,14,462.7109,10,458.7109" style="stroke: #A80036; stroke-width: 1.0;"/><line style="stroke: #A80036; stroke-width: 1.0; stroke-dasharray: 2.0,2.0;" x1="8" x2="197" y1="458.7109" y2="458.7109"/><text fill="#000000" font-family="sans-serif" font-size="13" lengthAdjust="spacingAndGlyphs" textLength="24" x="20" y="453.645">200</text><!--MD5=[50c46d3083635ae2a2615d7888abd9cd]
@startuml
''''''''''''''''''''''''''''''''''''''''''
''                                      ''
''  AUTOGENERATED CODE - - DO NOT EDIT!  ''
''                                      ''
''''''''''''''''''''''''''''''''''''''''''


control "PaymentServer" as _0
control "MasterCard" as _2
control "Visa" as _1
skinparam maxMessageSize 250
title PaymentServer <- Pay
== PaymentServer <- Pay ==
[->_0 : Pay
activate _0
opt processor_type == "visa"
  _0->_1 : Pay
  activate _1
  deactivate _1
end
group else if processor_type == "mastercard"
  _0->_2 : POST /pay
  activate _2
  _0<- -_2 : error
  _0<- -_2 : SimpleObj
  deactivate _2
end
group else
 [<- -_0 : 500 < NotSupportedError
end
[<- -_0 : 200
deactivate _0
@enduml

@startuml


control "PaymentServer" as _0
control "MasterCard" as _2
control "Visa" as _1
skinparam maxMessageSize 250
title PaymentServer <- Pay
== PaymentServer <- Pay ==
[->_0 : Pay
activate _0
opt processor_type == "visa"
  _0->_1 : Pay
  activate _1
  deactivate _1
end
group else if processor_type == "mastercard"
  _0->_2 : POST /pay
  activate _2
  _0<- -_2 : error
  _0<- -_2 : SimpleObj
  deactivate _2
end
group else
 [<- -_0 : 500 < NotSupportedError
end
[<- -_0 : 200
deactivate _0
@enduml

PlantUML version 1.2020.15(Sun Jun 28 11:39:45 UTC 2020)
(GPL source distribution)
Java Runtime: OpenJDK Runtime Environment
JVM: OpenJDK 64-Bit Server VM
Default Encoding: UTF-8
Language: en
Country: null
--></g></svg>