<?xml version="1.0" encoding="UTF-8" standalone="no"?><svg xmlns="http://www.w3.org/2000/svg" xmlns:xlink="http://www.w3.org/1999/xlink" contentScriptType="application/ecmascript" contentStyleType="text/css" height="305px" preserveAspectRatio="none" style="width:698px;height:305px;" version="1.1" viewBox="0 0 698 305" width="698px" zoomAndPan="magnify"><defs><filter height="300%" id="f1pjts4a9757ns" width="300%" x="-1" y="-1"><feGaussianBlur result="blurOut" stdDeviation="2.0"/><feColorMatrix in="blurOut" result="blurOut2" type="matrix" values="0 0 0 0 0 0 0 0 0 0 0 0 0 0 0 0 0 0 .4 0"/><feOffset dx="4.0" dy="4.0" in="blurOut2" result="blurOut3"/><feBlend in="SourceGraphic" in2="blurOut3" mode="normal"/></filter></defs><g><text fill="#000000" font-family="sans-serif" font-size="18" lengthAdjust="spacingAndGlyphs" textLength="34" x="323.25" y="16.708">BFF</text><!--MD5=[834ef74a6aa73a899f9de7987f49a674]
entity _0--><rect fill="#FFFAF0" filter="url(#f1pjts4a9757ns)" height="46.2969" style="stroke: #000000; stroke-width: 1.5;" width="151" x="7" y="133.9531"/><rect fill="#FFFAF0" height="10" style="stroke: #000000; stroke-width: 1.5;" width="15" x="138" y="138.9531"/><rect fill="#FFFAF0" height="2" style="stroke: #000000; stroke-width: 1.5;" width="4" x="136" y="140.9531"/><rect fill="#FFFAF0" height="2" style="stroke: #000000; stroke-width: 1.5;" width="4" x="136" y="144.9531"/><text fill="#000000" font-family="sans-serif" font-size="14" lengthAdjust="spacingAndGlyphs" textLength="111" x="22" y="166.9482">PaymentServer</text><!--MD5=[5793e68b51480d2da18d2edf8802f392]
entity _1--><rect fill="#FFFAF0" filter="url(#f1pjts4a9757ns)" height="46.2969" style="stroke: #000000; stroke-width: 1.5;" width="69" x="48" y="239.9531"/><rect fill="#FFFAF0" height="10" style="stroke: #000000; stroke-width: 1.5;" width="15" x="97" y="244.9531"/><rect fill="#FFFAF0" height="2" style="stroke: #000000; stroke-width: 1.5;" width="4" x="95" y="246.9531"/><rect fill="#FFFAF0" height="2" style="stroke: #000000; stroke-width: 1.5;" width="4" x="95" y="250.9531"/><text fill="#000000" font-family="sans-serif" font-size="14" lengthAdjust="spacingAndGlyphs" textLength="29" x="63" y="272.9482">Visa</text><!--MD5=[fc69c2ef26418c6b4957312aae07cc91]
entity _2--><rect fill="#FFFAF0" filter="url(#f1pjts4a9757ns)" height="46.2969" style="stroke: #000000; stroke-width: 1.5;" width="117" x="24" y="27.9531"/><rect fill="#FFFAF0" height="10" style="stroke: #000000; stroke-width: 1.5;" width="15" x="121" y="32.9531"/><rect fill="#FFFAF0" height="2" style="stroke: #000000; stroke-width: 1.5;" width="4" x="119" y="34.9531"/><rect fill="#FFFAF0" height="2" style="stroke: #000000; stroke-width: 1.5;" width="4" x="119" y="38.9531"/><text fill="#000000" font-family="sans-serif" font-size="14" lengthAdjust="spacingAndGlyphs" textLength="77" x="39" y="60.9482">Dashboard</text><!--MD5=[491502b257624c25ed563d7bf73ae0a0]
entity _3--><rect fill="#FFFAF0" filter="url(#f1pjts4a9757ns)" height="46.2969" style="stroke: #000000; stroke-width: 1.5;" width="88" x="485.5" y="27.9531"/><rect fill="#FFFAF0" height="10" style="stroke: #000000; stroke-width: 1.5;" width="15" x="553.5" y="32.9531"/><rect fill="#FFFAF0" height="2" style="stroke: #000000; stroke-width: 1.5;" width="4" x="551.5" y="34.9531"/><rect fill="#FFFAF0" height="2" style="stroke: #000000; stroke-width: 1.5;" width="4" x="551.5" y="38.9531"/><text fill="#000000" font-family="sans-serif" font-size="14" lengthAdjust="spacingAndGlyphs" textLength="48" x="500.5" y="60.9482">Mobile</text><!--MD5=[e10aba13bcd25b8e2f2c6ecd09c6015a]
entity _4--><rect fill="#FFFAF0" filter="url(#f1pjts4a9757ns)" height="46.2969" style="stroke: #000000; stroke-width: 1.5;" width="143" x="373" y="133.9531"/><rect fill="#FFFAF0" height="10" style="stroke: #000000; stroke-width: 1.5;" width="15" x="496" y="138.9531"/><rect fill="#FFFAF0" height="2" style="stroke: #000000; stroke-width: 1.5;" width="4" x="494" y="140.9531"/><rect fill="#FFFAF0" height="2" style="stroke: #000000; stroke-width: 1.5;" width="4" x="494" y="144.9531"/><text fill="#000000" font-family="sans-serif" font-size="14" lengthAdjust="spacingAndGlyphs" textLength="103" x="388" y="166.9482">ProductServer</text><!--MD5=[9e283554f6c225a5c09d9b9f4b518823]
entity _5--><rect fill="#FFFAF0" filter="url(#f1pjts4a9757ns)" height="46.2969" style="stroke: #000000; stroke-width: 1.5;" width="128" x="551.5" y="133.9531"/><rect fill="#FFFAF0" height="10" style="stroke: #000000; stroke-width: 1.5;" width="15" x="659.5" y="138.9531"/><rect fill="#FFFAF0" height="2" style="stroke: #000000; stroke-width: 1.5;" width="4" x="657.5" y="140.9531"/><rect fill="#FFFAF0" height="2" style="stroke: #000000; stroke-width: 1.5;" width="4" x="657.5" y="144.9531"/><text fill="#000000" font-family="sans-serif" font-size="14" lengthAdjust="spacingAndGlyphs" textLength="88" x="566.5" y="166.9482">OrderServer</text><!--MD5=[91935b7652ee4fab4148391a7b11bd92]
entity _6--><rect fill="#FFFAF0" filter="url(#f1pjts4a9757ns)" height="46.2969" style="stroke: #000000; stroke-width: 1.5;" width="100" x="240.5" y="27.9531"/><rect fill="#FFFAF0" height="10" style="stroke: #000000; stroke-width: 1.5;" width="15" x="320.5" y="32.9531"/><rect fill="#FFFAF0" height="2" style="stroke: #000000; stroke-width: 1.5;" width="4" x="318.5" y="34.9531"/><rect fill="#FFFAF0" height="2" style="stroke: #000000; stroke-width: 1.5;" width="4" x="318.5" y="38.9531"/><text fill="#000000" font-family="sans-serif" font-size="14" lengthAdjust="spacingAndGlyphs" textLength="60" x="255.5" y="60.9482">Website</text><!--MD5=[298d702d1872fc728c85faa77d789d69]
entity _7--><rect fill="#FFFAF0" filter="url(#f1pjts4a9757ns)" height="46.2969" style="stroke: #000000; stroke-width: 1.5;" width="144" x="193.5" y="133.9531"/><rect fill="#FFFAF0" height="10" style="stroke: #000000; stroke-width: 1.5;" width="15" x="317.5" y="138.9531"/><rect fill="#FFFAF0" height="2" style="stroke: #000000; stroke-width: 1.5;" width="4" x="315.5" y="140.9531"/><rect fill="#FFFAF0" height="2" style="stroke: #000000; stroke-width: 1.5;" width="4" x="315.5" y="144.9531"/><text fill="#000000" font-family="sans-serif" font-size="14" lengthAdjust="spacingAndGlyphs" textLength="104" x="208.5" y="166.9482">IdentityServer</text><!--MD5=[b84326987e98dcb917912705a3ef9c62]
link _0 to _1--><path d="M82.5,180.0091 C82.5,196.0034 82.5,217.7316 82.5,234.7949 " fill="none" id="_0-&gt;_1" style="stroke: #DC143C; stroke-width: 1.0;"/><polygon fill="#DC143C" points="82.5,239.9292,86.5,230.9292,82.5,234.9292,78.5,230.9292,82.5,239.9292" style="stroke: #DC143C; stroke-width: 1.0;"/><!--MD5=[f66a3fcae2732dd8e1fa566b839f94c6]
link _2 to _0--><path d="M82.5,74.0091 C82.5,90.0031 82.5,111.7311 82.5,128.7951 " fill="none" id="_2-&gt;_0" style="stroke: #DC143C; stroke-width: 1.0;"/><polygon fill="#DC143C" points="82.5,133.9291,86.5,124.9291,82.5,128.9291,78.5,124.9291,82.5,133.9291" style="stroke: #DC143C; stroke-width: 1.0;"/><!--MD5=[93ef791431a7b6117d678d1cd8d8ef27]
link _3 to _4--><path d="M511.474,74.0091 C498.176,90.2791 480.029,112.4821 465.979,129.6731 " fill="none" id="_3-&gt;_4" style="stroke: #DC143C; stroke-width: 1.0;"/><polygon fill="#DC143C" points="462.5,133.9291,471.2927,129.492,465.6642,130.0577,465.0985,124.4293,462.5,133.9291" style="stroke: #DC143C; stroke-width: 1.0;"/><!--MD5=[6d0ac5e9347bdb5725f48fc0bd3bd7ba]
link _3 to _5--><path d="M547.738,74.0091 C561.193,90.2791 579.553,112.4821 593.769,129.6731 " fill="none" id="_3-&gt;_5" style="stroke: #DC143C; stroke-width: 1.0;"/><polygon fill="#DC143C" points="597.288,133.9291,594.6356,124.4441,594.1019,130.0758,588.4702,129.542,597.288,133.9291" style="stroke: #DC143C; stroke-width: 1.0;"/><!--MD5=[a95ccebab27d805ca2570b1585a03a39]
link _6 to _7--><path d="M285.198,74.0091 C281.353,90.0031 276.13,111.7311 272.028,128.7951 " fill="none" id="_6-&gt;_7" style="stroke: #DC143C; stroke-width: 1.0;"/><polygon fill="#DC143C" points="270.794,133.9291,276.7867,126.1133,271.9626,129.0676,269.0083,124.2435,270.794,133.9291" style="stroke: #DC143C; stroke-width: 1.0;"/><!--MD5=[ab8cfac35efbe81c697ce9e92bffb793]
link _6 to _4--><path d="M323.159,74.0091 C347.865,90.6931 381.808,113.6151 407.513,130.9741 " fill="none" id="_6-&gt;_4" style="stroke: #DC143C; stroke-width: 1.0;"/><polygon fill="#DC143C" points="411.888,133.9291,406.6659,125.5787,407.7436,131.1319,402.1904,132.2097,411.888,133.9291" style="stroke: #DC143C; stroke-width: 1.0;"/><!--MD5=[c6d103796782b03246687d21fec6ff16]
link _6 to _5--><path d="M340.569,67.9751 C395.753,85.6341 484.868,114.1511 546.615,133.9101 " fill="none" id="_6-&gt;_5" style="stroke: #DC143C; stroke-width: 1.0;"/><polygon fill="#DC143C" points="551.384,135.4361,544.0315,128.8832,546.6219,133.9121,541.593,136.5025,551.384,135.4361" style="stroke: #DC143C; stroke-width: 1.0;"/><!--MD5=[9585cf7d1d21c22dd47359ade972c561]
link _6 to _0--><path d="M246.389,74.0091 C212.607,90.9001 166.037,114.1851 131.171,131.6171 " fill="none" id="_6-&gt;_0" style="stroke: #DC143C; stroke-width: 1.0;"/><polygon fill="#DC143C" points="126.548,133.9291,136.3866,133.4794,131.0196,131.6919,132.807,126.3249,126.548,133.9291" style="stroke: #DC143C; stroke-width: 1.0;"/><!--MD5=[b75b625718e79c65385da539bf536ed2]
@startuml
''''''''''''''''''''''''''''''''''''''''''
''                                      ''
''  AUTOGENERATED CODE - - DO NOT EDIT!  ''
''                                      ''
''''''''''''''''''''''''''''''''''''''''''


title BFF
hide stereotype
scale max 16384 height
skinparam component {
  BackgroundColor FloralWhite
  BorderColor Black
  ArrowColor Crimson
}
[PaymentServer] as _0 <<highlight>>
[Visa] as _1
_0 - -> _1
[Dashboard] as _2
_2 - -> _0
[Mobile] as _3
[ProductServer] as _4 <<highlight>>
_3 - -> _4
[OrderServer] as _5 <<highlight>>
_3 - -> _5
[Website] as _6
[IdentityServer] as _7 <<highlight>>
_6 - -> _7
_6 - -> _4
_6 - -> _5
_6 - -> _0
@enduml

@startuml


title BFF
hide stereotype
scale max 16384 height
skinparam component {
  BackgroundColor FloralWhite
  BorderColor Black
  ArrowColor Crimson
}
[PaymentServer] as _0 <<highlight>>
[Visa] as _1
_0 - -> _1
[Dashboard] as _2
_2 - -> _0
[Mobile] as _3
[ProductServer] as _4 <<highlight>>
_3 - -> _4
[OrderServer] as _5 <<highlight>>
_3 - -> _5
[Website] as _6
[IdentityServer] as _7 <<highlight>>
_6 - -> _7
_6 - -> _4
_6 - -> _5
_6 - -> _0
@enduml

PlantUML version 1.2020.16beta7(Unknown compile time)
(GPL source distribution)
Java Runtime: Java(TM) SE Runtime Environment
JVM: Java HotSpot(TM) 64-Bit Server VM
Default Encoding: UTF-8
Language: en
Country: US
--></g></svg>