<?xml version="1.0" encoding="UTF-8" standalone="no"?><svg xmlns="http://www.w3.org/2000/svg" xmlns:xlink="http://www.w3.org/1999/xlink" contentScriptType="application/ecmascript" contentStyleType="text/css" height="78px" preserveAspectRatio="none" style="width:113px;height:78px;" version="1.1" viewBox="0 0 113 78" width="113px" zoomAndPan="magnify"><defs><filter height="300%" id="frgg4tfif85ct" width="300%" x="-1" y="-1"><feGaussianBlur result="blurOut" stdDeviation="2.0"/><feColorMatrix in="blurOut" result="blurOut2" type="matrix" values="0 0 0 0 0 0 0 0 0 0 0 0 0 0 0 0 0 0 .4 0"/><feOffset dx="4.0" dy="4.0" in="blurOut2" result="blurOut3"/><feBlend in="SourceGraphic" in2="blurOut3" mode="normal"/></filter></defs><g><!--MD5=[f77682fd75c3e1fc6a82f566c0814d0f]
class _0--><rect fill="#FEFECE" filter="url(#frgg4tfif85ct)" height="60.8047" id="_0" style="stroke: #A80036; stroke-width: 1.5;" width="95" x="7" y="7"/><ellipse cx="32.35" cy="23" fill="#DA70D6" rx="11" ry="11" style="stroke: #A80036; stroke-width: 1.0;"/><path d="M31.9438,18.8125 L31.9438,26.7969 L32.6,26.7969 Q34.0375,26.7969 34.6469,25.8906 Q35.2719,24.9688 35.2719,22.7969 Q35.2719,20.625 34.6469,19.7188 Q34.0375,18.8125 32.6,18.8125 L31.9438,18.8125 Z M29.4906,16.6094 L32.1156,16.6094 Q35.1469,16.6094 36.475,18.0625 Q37.8188,19.5 37.8188,22.7969 Q37.8188,26.0938 36.475,27.5469 Q35.1469,29 32.1156,29 L29.4906,29 L29.4906,16.6094 Z "/><text fill="#000000" font-family="sans-serif" font-size="12" lengthAdjust="spacingAndGlyphs" textLength="40" x="48.65" y="27.1543">Money</text><line style="stroke: #A80036; stroke-width: 1.5;" x1="8" x2="101" y1="39" y2="39"/><ellipse cx="18" cy="50" fill="none" rx="3" ry="3" style="stroke: #038048; stroke-width: 1.0;"/><text fill="#000000" font-family="sans-serif" font-size="11" lengthAdjust="spacingAndGlyphs" textLength="69" x="27" y="53.2104">amount : int</text><line style="stroke: #A80036; stroke-width: 1.5;" x1="8" x2="101" y1="59.8047" y2="59.8047"/><!--MD5=[f6bbce25acf648baebf264ed665ec5ef]
@startuml

class "Money" as _0 << (D,orchid) >> {
+ amount : int
}
@enduml

PlantUML version 1.2020.09(Sun May 10 10:51:06 UTC 2020)
(GPL source distribution)
Java Runtime: OpenJDK Runtime Environment
JVM: OpenJDK 64-Bit Server VM
Java Version: 1.8.0_252-b09
Operating System: Linux
Default Encoding: UTF-8
Language: en
Country: null
--></g></svg>