<?xml version="1.0" encoding="UTF-8" standalone="no"?><svg xmlns="http://www.w3.org/2000/svg" xmlns:xlink="http://www.w3.org/1999/xlink" contentScriptType="application/ecmascript" contentStyleType="text/css" height="117px" preserveAspectRatio="none" style="width:160px;height:117px;" version="1.1" viewBox="0 0 160 117" width="160px" zoomAndPan="magnify"><defs><filter height="300%" id="fupl5l83j3bce" width="300%" x="-1" y="-1"><feGaussianBlur result="blurOut" stdDeviation="2.0"/><feColorMatrix in="blurOut" result="blurOut2" type="matrix" values="0 0 0 0 0 0 0 0 0 0 0 0 0 0 0 0 0 0 .4 0"/><feOffset dx="4.0" dy="4.0" in="blurOut2" result="blurOut3"/><feBlend in="SourceGraphic" in2="blurOut3" mode="normal"/></filter></defs><g><!--MD5=[f77682fd75c3e1fc6a82f566c0814d0f]
class _0--><rect fill="#FEFECE" filter="url(#fupl5l83j3bce)" height="99.2188" id="_0" style="stroke: #A80036; stroke-width: 1.5;" width="142" x="7" y="7"/><ellipse cx="22" cy="23" fill="#DA70D6" rx="11" ry="11" style="stroke: #A80036; stroke-width: 1.0;"/><path d="M21.5938,18.8125 L21.5938,26.7969 L22.25,26.7969 Q23.6875,26.7969 24.3047,25.8828 Q24.9219,24.9688 24.9219,22.7969 Q24.9219,20.625 24.3047,19.7188 Q23.6875,18.8125 22.25,18.8125 L21.5938,18.8125 Z M19.1406,16.6094 L21.7656,16.6094 Q24.7969,16.6094 26.1328,18.0547 Q27.4688,19.5 27.4688,22.7969 Q27.4688,26.0938 26.1328,27.5469 Q24.7969,29 21.7656,29 L19.1406,29 L19.1406,16.6094 Z "/><text fill="#000000" font-family="sans-serif" font-size="12" lengthAdjust="spacingAndGlyphs" textLength="110" x="36" y="27.1543">RelModel.location</text><line style="stroke: #A80036; stroke-width: 1.5;" x1="8" x2="148" y1="39" y2="39"/><ellipse cx="18" cy="50" fill="none" rx="3" ry="3" style="stroke: #038048; stroke-width: 1.0;"/><text fill="#000000" font-family="sans-serif" font-size="11" lengthAdjust="spacingAndGlyphs" textLength="86" x="27" y="53.2104">location_id : int</text><ellipse cx="18" cy="62.8047" fill="none" rx="3" ry="3" style="stroke: #038048; stroke-width: 1.0;"/><text fill="#000000" font-family="sans-serif" font-size="11" lengthAdjust="spacingAndGlyphs" textLength="69" x="27" y="66.0151">name : float</text><ellipse cx="18" cy="75.6094" fill="none" rx="3" ry="3" style="stroke: #038048; stroke-width: 1.0;"/><text fill="#000000" font-family="sans-serif" font-size="11" lengthAdjust="spacingAndGlyphs" textLength="87" x="27" y="78.8198">time : datetime</text><ellipse cx="18" cy="88.4141" fill="none" rx="3" ry="3" style="stroke: #038048; stroke-width: 1.0;"/><text fill="#000000" font-family="sans-serif" font-size="11" lengthAdjust="spacingAndGlyphs" textLength="61" x="27" y="91.6245">type : float</text><line style="stroke: #A80036; stroke-width: 1.5;" x1="8" x2="148" y1="98.2188" y2="98.2188"/><!--MD5=[39af3e46d70cc7a8d8a052dfd4f78e35]
@startuml

class "RelModel.location" as _0 << (D,orchid) >> {
+ location_id : int
+ name : float
+ time : datetime
+ type : float
}
@enduml

PlantUML version 1.2019.11(Sun Sep 22 10:02:15 UTC 2019)
(GPL source distribution)
Java Runtime: OpenJDK Runtime Environment
JVM: OpenJDK 64-Bit Server VM
Java Version: 1.8.0_222-b10
Operating System: Linux
Default Encoding: UTF-8
Language: en
Country: null
--></g></svg>
