<?xml version="1.0" encoding="UTF-8" standalone="no"?><svg xmlns="http://www.w3.org/2000/svg" xmlns:xlink="http://www.w3.org/1999/xlink" contentScriptType="application/ecmascript" contentStyleType="text/css" height="315px" preserveAspectRatio="none" style="width:370px;height:315px;" version="1.1" viewBox="0 0 370 315" width="370px" zoomAndPan="magnify"><defs><filter height="300%" id="fys70d8dbbfa3" width="300%" x="-1" y="-1"><feGaussianBlur result="blurOut" stdDeviation="2.0"/><feColorMatrix in="blurOut" result="blurOut2" type="matrix" values="0 0 0 0 0 0 0 0 0 0 0 0 0 0 0 0 0 0 .4 0"/><feOffset dx="4.0" dy="4.0" in="blurOut2" result="blurOut3"/><feBlend in="SourceGraphic" in2="blurOut3" mode="normal"/></filter></defs><g><text fill="#000000" font-family="sans-serif" font-size="14" font-weight="bold" lengthAdjust="spacingAndGlyphs" textLength="248" x="56.5" y="22.9951">MobileApp2 &lt;- SecondEndpoint</text><rect fill="#FFFFFF" filter="url(#fys70d8dbbfa3)" height="87.3984" style="stroke: #A80036; stroke-width: 1.0;" width="10" x="212" y="155.8594"/><rect fill="#FFFFFF" filter="url(#fys70d8dbbfa3)" height="29.1328" style="stroke: #A80036; stroke-width: 1.0;" width="10" x="323" y="184.9922"/><line style="stroke: #A80036; stroke-width: 1.0; stroke-dasharray: 5.0,5.0;" x1="216.5" x2="216.5" y1="81.5938" y2="261.2578"/><line style="stroke: #A80036; stroke-width: 1.0; stroke-dasharray: 5.0,5.0;" x1="328" x2="328" y1="81.5938" y2="261.2578"/><text fill="#000000" font-family="sans-serif" font-size="14" lengthAdjust="spacingAndGlyphs" textLength="81" x="173.5" y="78.292">MobileApp2</text><ellipse cx="217" cy="49.2969" fill="#FEFECE" filter="url(#fys70d8dbbfa3)" rx="12" ry="12" style="stroke: #A80036; stroke-width: 2.0;"/><polygon fill="#A80036" points="213,37.2969,219,32.2969,217,37.2969,219,42.2969,213,37.2969" style="stroke: #A80036; stroke-width: 1.0;"/><text fill="#000000" font-family="sans-serif" font-size="14" lengthAdjust="spacingAndGlyphs" textLength="81" x="173.5" y="273.2529">MobileApp2</text><ellipse cx="217" cy="292.5547" fill="#FEFECE" filter="url(#fys70d8dbbfa3)" rx="12" ry="12" style="stroke: #A80036; stroke-width: 2.0;"/><polygon fill="#A80036" points="213,280.5547,219,275.5547,217,280.5547,219,285.5547,213,280.5547" style="stroke: #A80036; stroke-width: 1.0;"/><text fill="#000000" font-family="sans-serif" font-size="14" lengthAdjust="spacingAndGlyphs" textLength="44" x="303" y="78.292">Server</text><ellipse cx="328" cy="49.2969" fill="#FEFECE" filter="url(#fys70d8dbbfa3)" rx="12" ry="12" style="stroke: #A80036; stroke-width: 2.0;"/><polygon fill="#A80036" points="324,37.2969,330,32.2969,328,37.2969,330,42.2969,324,37.2969" style="stroke: #A80036; stroke-width: 1.0;"/><text fill="#000000" font-family="sans-serif" font-size="14" lengthAdjust="spacingAndGlyphs" textLength="44" x="303" y="273.2529">Server</text><ellipse cx="328" cy="292.5547" fill="#FEFECE" filter="url(#fys70d8dbbfa3)" rx="12" ry="12" style="stroke: #A80036; stroke-width: 2.0;"/><polygon fill="#A80036" points="324,280.5547,330,275.5547,328,280.5547,330,285.5547,324,280.5547" style="stroke: #A80036; stroke-width: 1.0;"/><rect fill="#FFFFFF" filter="url(#fys70d8dbbfa3)" height="87.3984" style="stroke: #A80036; stroke-width: 1.0;" width="10" x="212" y="155.8594"/><rect fill="#FFFFFF" filter="url(#fys70d8dbbfa3)" height="29.1328" style="stroke: #A80036; stroke-width: 1.0;" width="10" x="323" y="184.9922"/><rect fill="#EEEEEE" filter="url(#fys70d8dbbfa3)" height="3" style="stroke: #EEEEEE; stroke-width: 1.0;" width="355" x="3" y="112.1602"/><line style="stroke: #000000; stroke-width: 1.0;" x1="3" x2="358" y1="112.1602" y2="112.1602"/><line style="stroke: #000000; stroke-width: 1.0;" x1="3" x2="358" y1="115.1602" y2="115.1602"/><rect fill="#EEEEEE" filter="url(#fys70d8dbbfa3)" height="23.1328" style="stroke: #000000; stroke-width: 2.0;" width="253" x="54" y="101.5938"/><text fill="#000000" font-family="sans-serif" font-size="13" font-weight="bold" lengthAdjust="spacingAndGlyphs" textLength="234" x="60" y="117.6606">MobileApp2 &lt;- SecondEndpoint</text><polygon fill="#A80036" points="200,151.8594,210,155.8594,200,159.8594,204,155.8594" style="stroke: #A80036; stroke-width: 1.0;"/><line style="stroke: #A80036; stroke-width: 1.0;" x1="3" x2="206" y1="155.8594" y2="155.8594"/><text fill="#000000" font-family="sans-serif" font-size="13" lengthAdjust="spacingAndGlyphs" textLength="104" x="10" y="150.7935">SecondEndpoint</text><polygon fill="#A80036" points="311,180.9922,321,184.9922,311,188.9922,315,184.9922" style="stroke: #A80036; stroke-width: 1.0;"/><line style="stroke: #A80036; stroke-width: 1.0;" x1="222" x2="317" y1="184.9922" y2="184.9922"/><text fill="#000000" font-family="sans-serif" font-size="13" lengthAdjust="spacingAndGlyphs" textLength="82" x="229" y="179.9263">Authenticate</text><polygon fill="#A80036" points="233,210.125,223,214.125,233,218.125,229,214.125" style="stroke: #A80036; stroke-width: 1.0;"/><line style="stroke: #A80036; stroke-width: 1.0; stroke-dasharray: 2.0,2.0;" x1="227" x2="327" y1="214.125" y2="214.125"/><text fill="#000000" font-family="sans-serif" font-size="13" lengthAdjust="spacingAndGlyphs" textLength="62" x="239" y="209.0591">Response</text><polygon fill="#A80036" points="14,239.2578,4,243.2578,14,247.2578,10,243.2578" style="stroke: #A80036; stroke-width: 1.0;"/><line style="stroke: #A80036; stroke-width: 1.0; stroke-dasharray: 2.0,2.0;" x1="8" x2="216" y1="243.2578" y2="243.2578"/><text fill="#0000FF" font-family="sans-serif" font-size="13" lengthAdjust="spacingAndGlyphs" textLength="142" x="20" y="238.1919">MegaDatabase.Empty</text><text fill="#000000" font-family="sans-serif" font-size="13" lengthAdjust="spacingAndGlyphs" textLength="11" x="166" y="238.1919">&lt;</text><text fill="#008000" font-family="sans-serif" font-size="13" lengthAdjust="spacingAndGlyphs" textLength="22" x="177" y="238.1919">?, ?</text><text fill="#000000" font-family="sans-serif" font-size="13" lengthAdjust="spacingAndGlyphs" textLength="11" x="199" y="238.1919">&gt;</text><!--MD5=[95a6baee65df704493a5e266d41da638]
@startuml


control "MobileApp2" as _0
control "Server" as _1
skinparam maxMessageSize 250
title MobileApp2 <- SecondEndpoint
== MobileApp2 <- SecondEndpoint ==
[->_0 : SecondEndpoint
activate _0
 _0->_1 : Authenticate
 activate _1
 _0<- -_1 : Response
 deactivate _1
[<- -_0 : <color blue>MegaDatabase.Empty</color> <<color green>?, ?</color>>
deactivate _0
@enduml

PlantUML version 1.2019.11(Sun Sep 22 10:02:15 UTC 2019)
(GPL source distribution)
Java Runtime: OpenJDK Runtime Environment
JVM: OpenJDK 64-Bit Server VM
Java Version: 1.8.0_222-b10
Operating System: Linux
Default Encoding: UTF-8
Language: en
Country: null
--></g></svg>