<?xml version="1.0" encoding="UTF-8" standalone="no"?><svg xmlns="http://www.w3.org/2000/svg" xmlns:xlink="http://www.w3.org/1999/xlink" contentScriptType="application/ecmascript" contentStyleType="text/css" height="2354px" preserveAspectRatio="none" style="width:671px;height:2354px;" version="1.1" viewBox="0 0 671 2354" width="671px" zoomAndPan="magnify"><defs><filter height="300%" id="fy0sfimnf2ft1" width="300%" x="-1" y="-1"><feGaussianBlur result="blurOut" stdDeviation="2.0"/><feColorMatrix in="blurOut" result="blurOut2" type="matrix" values="0 0 0 0 0 0 0 0 0 0 0 0 0 0 0 0 0 0 .4 0"/><feOffset dx="4.0" dy="4.0" in="blurOut2" result="blurOut3"/><feBlend in="SourceGraphic" in2="blurOut3" mode="normal"/></filter></defs><g><text fill="#000000" font-family="sans-serif" font-size="18" lengthAdjust="spacingAndGlyphs" textLength="78" x="287.5" y="16.708">Backend</text><!--MD5=[758d88821a0e741df1f73accbabae398]
cluster X_0--><rect fill="#FFFAF0" filter="url(#fy0sfimnf2ft1)" height="91" rx="12.5" ry="12.5" style="stroke: #000000; stroke-width: 1.5;" width="319" x="47" y="1494.9531"/><rect fill="#FFFFFF" height="58.7031" rx="12.5" ry="12.5" style="stroke: #FFFFFF; stroke-width: 1.0;" width="313" x="50" y="1524.25"/><line style="stroke: #000000; stroke-width: 1.5;" x1="47" x2="366" y1="1521.25" y2="1521.25"/><text fill="#000000" font-family="sans-serif" font-size="14" lengthAdjust="spacingAndGlyphs" textLength="77" x="168" y="1511.9482">Dashboard</text><!--MD5=[cecb9a85ae19b9003f4441b135e71cd6]
cluster X_1--><rect fill="#FFFAF0" filter="url(#fy0sfimnf2ft1)" height="332" rx="12.5" ry="12.5" style="stroke: #000000; stroke-width: 1.5;" width="424" x="230" y="2005.9531"/><rect fill="#FFFFFF" height="299.7031" rx="12.5" ry="12.5" style="stroke: #FFFFFF; stroke-width: 1.0;" width="418" x="233" y="2035.25"/><line style="stroke: #000000; stroke-width: 1.5;" x1="230" x2="654" y1="2032.25" y2="2032.25"/><text fill="#000000" font-family="sans-serif" font-size="14" lengthAdjust="spacingAndGlyphs" textLength="104" x="390" y="2022.9482">IdentityServer</text><!--MD5=[51e8d94a944361a156a1f52e5c4894ba]
cluster X_2--><rect fill="#FFFAF0" filter="url(#fy0sfimnf2ft1)" height="91" rx="12.5" ry="12.5" style="stroke: #000000; stroke-width: 1.5;" width="115" x="495" y="1379.9531"/><rect fill="#FFFFFF" height="58.7031" rx="12.5" ry="12.5" style="stroke: #FFFFFF; stroke-width: 1.0;" width="109" x="498" y="1409.25"/><line style="stroke: #000000; stroke-width: 1.5;" x1="495" x2="610" y1="1406.25" y2="1406.25"/><text fill="#000000" font-family="sans-serif" font-size="14" lengthAdjust="spacingAndGlyphs" textLength="82" x="511.5" y="1396.9482">MasterCard</text><!--MD5=[52e5ef116ba828aa6123157a74d6ac2a]
cluster X_3--><rect fill="#FFFAF0" filter="url(#fy0sfimnf2ft1)" height="166" rx="12.5" ry="12.5" style="stroke: #000000; stroke-width: 1.5;" width="158" x="473.5" y="1815.9531"/><rect fill="#FFFFFF" height="133.7031" rx="12.5" ry="12.5" style="stroke: #FFFFFF; stroke-width: 1.0;" width="152" x="476.5" y="1845.25"/><line style="stroke: #000000; stroke-width: 1.5;" x1="473.5" x2="631.5" y1="1842.25" y2="1842.25"/><text fill="#000000" font-family="sans-serif" font-size="14" lengthAdjust="spacingAndGlyphs" textLength="106" x="499.5" y="1832.9482">MegaDatabase</text><!--MD5=[10c245466cf08064e9ba7704cd70265a]
cluster X_4--><rect fill="#FFFAF0" filter="url(#fy0sfimnf2ft1)" height="316" rx="12.5" ry="12.5" style="stroke: #000000; stroke-width: 1.5;" width="395.5" x="27.5" y="1154.9531"/><rect fill="#FFFFFF" height="283.7031" rx="12.5" ry="12.5" style="stroke: #FFFFFF; stroke-width: 1.0;" width="389.5" x="30.5" y="1184.25"/><line style="stroke: #000000; stroke-width: 1.5;" x1="27.5" x2="423" y1="1181.25" y2="1181.25"/><text fill="#000000" font-family="sans-serif" font-size="14" lengthAdjust="spacingAndGlyphs" textLength="48" x="201.25" y="1171.9482">Mobile</text><!--MD5=[dfe8839dc810cb7b6db420a1627d41ba]
cluster X_5--><rect fill="#FFFAF0" filter="url(#fy0sfimnf2ft1)" height="257" rx="12.5" ry="12.5" style="stroke: #000000; stroke-width: 1.5;" width="181" x="219.5" y="742.9531"/><rect fill="#FFFFFF" height="224.7031" rx="12.5" ry="12.5" style="stroke: #FFFFFF; stroke-width: 1.0;" width="175" x="222.5" y="772.25"/><line style="stroke: #000000; stroke-width: 1.5;" x1="219.5" x2="400.5" y1="769.25" y2="769.25"/><text fill="#000000" font-family="sans-serif" font-size="14" lengthAdjust="spacingAndGlyphs" textLength="88" x="266" y="759.9482">OrderServer</text><!--MD5=[5077f028a0b9deb0e5bd5930e99c59be]
cluster X_6--><rect fill="#FFFAF0" filter="url(#fy0sfimnf2ft1)" height="182" rx="12.5" ry="12.5" style="stroke: #000000; stroke-width: 1.5;" width="363.5" x="269" y="1609.9531"/><rect fill="#FFFFFF" height="149.7031" rx="12.5" ry="12.5" style="stroke: #FFFFFF; stroke-width: 1.0;" width="357.5" x="272" y="1639.25"/><line style="stroke: #000000; stroke-width: 1.5;" x1="269" x2="632.5" y1="1636.25" y2="1636.25"/><text fill="#000000" font-family="sans-serif" font-size="14" lengthAdjust="spacingAndGlyphs" textLength="111" x="395.25" y="1626.9482">PaymentServer</text><!--MD5=[ec7116737ec83627e31da805d463bdc7]
cluster X_7--><rect fill="#FFFAF0" filter="url(#fy0sfimnf2ft1)" height="107" rx="12.5" ry="12.5" style="stroke: #000000; stroke-width: 1.5;" width="119" x="251" y="1023.9531"/><rect fill="#FFFFFF" height="74.7031" rx="12.5" ry="12.5" style="stroke: #FFFFFF; stroke-width: 1.0;" width="113" x="254" y="1053.25"/><line style="stroke: #000000; stroke-width: 1.5;" x1="251" x2="370" y1="1050.25" y2="1050.25"/><text fill="#000000" font-family="sans-serif" font-size="14" lengthAdjust="spacingAndGlyphs" textLength="103" x="259" y="1040.9482">ProductServer</text><!--MD5=[e22d2d72662d7bf2b43e08230ff1cd21]
cluster X_8--><rect fill="#FFFAF0" filter="url(#fy0sfimnf2ft1)" height="91" rx="12.5" ry="12.5" style="stroke: #000000; stroke-width: 1.5;" width="82" x="511.5" y="1494.9531"/><rect fill="#FFFFFF" height="58.7031" rx="12.5" ry="12.5" style="stroke: #FFFFFF; stroke-width: 1.0;" width="76" x="514.5" y="1524.25"/><line style="stroke: #000000; stroke-width: 1.5;" x1="511.5" x2="593.5" y1="1521.25" y2="1521.25"/><text fill="#000000" font-family="sans-serif" font-size="14" lengthAdjust="spacingAndGlyphs" textLength="29" x="538" y="1511.9482">Visa</text><!--MD5=[48ae506470ddeeab1ca502d8fbec7331]
cluster X_9--><rect fill="#FFFAF0" filter="url(#fy0sfimnf2ft1)" height="691" rx="12.5" ry="12.5" style="stroke: #000000; stroke-width: 1.5;" width="416" x="7" y="27.9531"/><rect fill="#FFFFFF" height="658.7031" rx="12.5" ry="12.5" style="stroke: #FFFFFF; stroke-width: 1.0;" width="410" x="10" y="57.25"/><line style="stroke: #000000; stroke-width: 1.5;" x1="7" x2="423" y1="54.25" y2="54.25"/><text fill="#000000" font-family="sans-serif" font-size="14" lengthAdjust="spacingAndGlyphs" textLength="60" x="185" y="44.9482">Website</text><rect fill="#FFFAF0" filter="url(#fy0sfimnf2ft1)" height="40" rx="12.5" ry="12.5" style="stroke: #000000; stroke-width: 1.5;" width="50" x="63" y="1529.9531"/><text fill="#000000" font-family="sans-serif" font-size="14" lengthAdjust="spacingAndGlyphs" textLength="25" x="75.5" y="1554.7998">Pay</text><rect fill="#FFFAF0" filter="url(#fy0sfimnf2ft1)" height="40" rx="12.5" ry="12.5" style="stroke: #000000; stroke-width: 1.5;" width="80" x="270" y="1529.9531"/><text fill="#000000" font-family="sans-serif" font-size="14" lengthAdjust="spacingAndGlyphs" textLength="70" x="275" y="1554.7998">Pay client</text><rect fill="#FFFAF0" filter="url(#fy0sfimnf2ft1)" height="40" rx="12.5" ry="12.5" style="stroke: #000000; stroke-width: 1.5;" width="105" x="257.5" y="2131.9531"/><text fill="#000000" font-family="sans-serif" font-size="14" lengthAdjust="spacingAndGlyphs" textLength="95" x="262.5" y="2156.7998">Authenticate</text><rect fill="#FFFAF0" filter="url(#fy0sfimnf2ft1)" height="40" rx="12.5" ry="12.5" style="stroke: #000000; stroke-width: 1.5;" width="127" x="246.5" y="2206.9531"/><text fill="#000000" font-family="sans-serif" font-size="14" lengthAdjust="spacingAndGlyphs" textLength="117" x="251.5" y="2231.7998">CustomerProfile</text><rect fill="#FFFAF0" filter="url(#fy0sfimnf2ft1)" height="40" rx="12.5" ry="12.5" style="stroke: #000000; stroke-width: 1.5;" width="167" x="469" y="2244.9531"/><text fill="#000000" font-family="sans-serif" font-size="14" lengthAdjust="spacingAndGlyphs" textLength="157" x="474" y="2269.7998">InsertCustomer client</text><rect fill="#FFFAF0" filter="url(#fy0sfimnf2ft1)" height="40" rx="12.5" ry="12.5" style="stroke: #000000; stroke-width: 1.5;" width="110" x="255" y="2281.9531"/><text fill="#000000" font-family="sans-serif" font-size="14" lengthAdjust="spacingAndGlyphs" textLength="100" x="260" y="2306.7998">NewCustomer</text><rect fill="#FFFAF0" filter="url(#fy0sfimnf2ft1)" height="40" rx="12.5" ry="12.5" style="stroke: #000000; stroke-width: 1.5;" width="171" x="467" y="2094.9531"/><text fill="#000000" font-family="sans-serif" font-size="14" lengthAdjust="spacingAndGlyphs" textLength="161" x="472" y="2119.7998">SelectCustomer client</text><rect fill="#FFFAF0" filter="url(#fy0sfimnf2ft1)" height="40" rx="12.5" ry="12.5" style="stroke: #000000; stroke-width: 1.5;" width="128" x="246" y="2056.9531"/><text fill="#000000" font-family="sans-serif" font-size="14" lengthAdjust="spacingAndGlyphs" textLength="118" x="251" y="2081.7998">UpdatePassword</text><rect fill="#FFFAF0" filter="url(#fy0sfimnf2ft1)" height="40" rx="12.5" ry="12.5" style="stroke: #000000; stroke-width: 1.5;" width="83" x="511" y="1414.9531"/><text fill="#000000" font-family="sans-serif" font-size="14" lengthAdjust="spacingAndGlyphs" textLength="73" x="516" y="1439.7998">POST /pay</text><rect fill="#FFFAF0" filter="url(#fy0sfimnf2ft1)" height="40" rx="12.5" ry="12.5" style="stroke: #000000; stroke-width: 1.5;" width="122" x="491.5" y="1925.9531"/><text fill="#000000" font-family="sans-serif" font-size="14" lengthAdjust="spacingAndGlyphs" textLength="112" x="496.5" y="1950.7998">InsertCustomer</text><rect fill="#FFFAF0" filter="url(#fy0sfimnf2ft1)" height="40" rx="12.5" ry="12.5" style="stroke: #000000; stroke-width: 1.5;" width="126" x="489.5" y="1850.9531"/><text fill="#000000" font-family="sans-serif" font-size="14" lengthAdjust="spacingAndGlyphs" textLength="116" x="494.5" y="1875.7998">SelectCustomer</text><rect fill="#FFFAF0" filter="url(#fy0sfimnf2ft1)" height="40" rx="12.5" ry="12.5" style="stroke: #000000; stroke-width: 1.5;" width="50" x="63" y="1189.9531"/><text fill="#000000" font-family="sans-serif" font-size="14" lengthAdjust="spacingAndGlyphs" textLength="38" x="69" y="1214.7998">Menu</text><rect fill="#FFFAF0" filter="url(#fy0sfimnf2ft1)" height="40" rx="12.5" ry="12.5" style="stroke: #000000; stroke-width: 1.5;" width="93" x="263.5" y="1189.9531"/><text fill="#000000" font-family="sans-serif" font-size="14" lengthAdjust="spacingAndGlyphs" textLength="83" x="268.5" y="1214.7998">Menu client</text><rect fill="#FFFAF0" filter="url(#fy0sfimnf2ft1)" height="40" rx="12.5" ry="12.5" style="stroke: #000000; stroke-width: 1.5;" width="51" x="62.5" y="1264.9531"/><text fill="#000000" font-family="sans-serif" font-size="14" lengthAdjust="spacingAndGlyphs" textLength="41" x="67.5" y="1289.7998">Order</text><rect fill="#FFFAF0" filter="url(#fy0sfimnf2ft1)" height="40" rx="12.5" ry="12.5" style="stroke: #000000; stroke-width: 1.5;" width="96" x="262" y="1264.9531"/><text fill="#000000" font-family="sans-serif" font-size="14" lengthAdjust="spacingAndGlyphs" textLength="86" x="267" y="1289.7998">Order client</text><rect fill="#FFFAF0" filter="url(#fy0sfimnf2ft1)" height="40" rx="12.5" ry="12.5" style="stroke: #000000; stroke-width: 1.5;" width="89" x="43.5" y="1339.9531"/><text fill="#000000" font-family="sans-serif" font-size="14" lengthAdjust="spacingAndGlyphs" textLength="79" x="48.5" y="1364.7998">PlaceOrder</text><rect fill="#FFFAF0" filter="url(#fy0sfimnf2ft1)" height="40" rx="12.5" ry="12.5" style="stroke: #000000; stroke-width: 1.5;" width="61" x="57.5" y="1414.9531"/><text fill="#000000" font-family="sans-serif" font-size="14" lengthAdjust="spacingAndGlyphs" textLength="51" x="62.5" y="1439.7998">Review</text><rect fill="#FFFAF0" filter="url(#fy0sfimnf2ft1)" height="40" rx="12.5" ry="12.5" style="stroke: #000000; stroke-width: 1.5;" width="106" x="257" y="1414.9531"/><text fill="#000000" font-family="sans-serif" font-size="14" lengthAdjust="spacingAndGlyphs" textLength="96" x="262" y="1439.7998">Review client</text><rect fill="#FFFAF0" filter="url(#fy0sfimnf2ft1)" height="40" rx="12.5" ry="12.5" style="stroke: #000000; stroke-width: 1.5;" width="194" x="213" y="1339.9531"/><text fill="#000000" font-family="sans-serif" font-size="14" lengthAdjust="spacingAndGlyphs" textLength="184" x="218" y="1364.7998">UpdateOrderStatus client</text><rect fill="#FFFAF0" filter="url(#fy0sfimnf2ft1)" height="40" rx="12.5" ry="12.5" style="stroke: #000000; stroke-width: 1.5;" width="51" x="284.5" y="793.9531"/><text fill="#000000" font-family="sans-serif" font-size="14" lengthAdjust="spacingAndGlyphs" textLength="41" x="289.5" y="818.7998">Order</text><rect fill="#FFFAF0" filter="url(#fy0sfimnf2ft1)" height="40" rx="12.5" ry="12.5" style="stroke: #000000; stroke-width: 1.5;" width="61" x="279.5" y="943.9531"/><text fill="#000000" font-family="sans-serif" font-size="14" lengthAdjust="spacingAndGlyphs" textLength="51" x="284.5" y="968.7998">Review</text><rect fill="#FFFAF0" filter="url(#fy0sfimnf2ft1)" height="40" rx="12.5" ry="12.5" style="stroke: #000000; stroke-width: 1.5;" width="149" x="235.5" y="868.9531"/><text fill="#000000" font-family="sans-serif" font-size="14" lengthAdjust="spacingAndGlyphs" textLength="139" x="240.5" y="893.7998">UpdateOrderStatus</text><rect fill="#FFFAF0" filter="url(#fy0sfimnf2ft1)" height="40" rx="12.5" ry="12.5" style="stroke: #000000; stroke-width: 1.5;" width="128" x="488.5" y="1660.9531"/><text fill="#000000" font-family="sans-serif" font-size="14" lengthAdjust="spacingAndGlyphs" textLength="118" x="493.5" y="1685.7998">POST /pay client</text><rect fill="#FFFAF0" filter="url(#fy0sfimnf2ft1)" height="40" rx="12.5" ry="12.5" style="stroke: #000000; stroke-width: 1.5;" width="50" x="285" y="1660.9531"/><text fill="#000000" font-family="sans-serif" font-size="14" lengthAdjust="spacingAndGlyphs" textLength="25" x="297.5" y="1685.7998">Pay</text><rect fill="#FFFAF0" filter="url(#fy0sfimnf2ft1)" height="40" rx="12.5" ry="12.5" style="stroke: #000000; stroke-width: 1.5;" width="80" x="512.5" y="1735.9531"/><text fill="#000000" font-family="sans-serif" font-size="14" lengthAdjust="spacingAndGlyphs" textLength="70" x="517.5" y="1760.7998">Pay client</text><rect fill="#FFFAF0" filter="url(#fy0sfimnf2ft1)" height="40" rx="12.5" ry="12.5" style="stroke: #000000; stroke-width: 1.5;" width="50" x="285" y="1074.9531"/><text fill="#000000" font-family="sans-serif" font-size="14" lengthAdjust="spacingAndGlyphs" textLength="38" x="291" y="1099.7998">Menu</text><rect fill="#FFFAF0" filter="url(#fy0sfimnf2ft1)" height="40" rx="12.5" ry="12.5" style="stroke: #000000; stroke-width: 1.5;" width="50" x="527.5" y="1529.9531"/><text fill="#000000" font-family="sans-serif" font-size="14" lengthAdjust="spacingAndGlyphs" textLength="25" x="540" y="1554.7998">Pay</text><rect fill="#FFFAF0" filter="url(#fy0sfimnf2ft1)" height="40" rx="12.5" ry="12.5" style="stroke: #000000; stroke-width: 1.5;" width="150" x="235" y="137.9531"/><text fill="#000000" font-family="sans-serif" font-size="14" lengthAdjust="spacingAndGlyphs" textLength="140" x="240" y="162.7998">Authenticate client</text><rect fill="#FFFAF0" filter="url(#fy0sfimnf2ft1)" height="40" rx="12.5" ry="12.5" style="stroke: #000000; stroke-width: 1.5;" width="130" x="23" y="62.9531"/><text fill="#000000" font-family="sans-serif" font-size="14" lengthAdjust="spacingAndGlyphs" textLength="120" x="28" y="87.7998">ChangePassword</text><rect fill="#FFFAF0" filter="url(#fy0sfimnf2ft1)" height="40" rx="12.5" ry="12.5" style="stroke: #000000; stroke-width: 1.5;" width="172" x="224" y="512.9531"/><text fill="#000000" font-family="sans-serif" font-size="14" lengthAdjust="spacingAndGlyphs" textLength="162" x="229" y="537.7998">CustomerProfile client</text><rect fill="#FFFAF0" filter="url(#fy0sfimnf2ft1)" height="40" rx="12.5" ry="12.5" style="stroke: #000000; stroke-width: 1.5;" width="50" x="63" y="137.9531"/><text fill="#000000" font-family="sans-serif" font-size="14" lengthAdjust="spacingAndGlyphs" textLength="39" x="68.5" y="162.7998">Login</text><rect fill="#FFFAF0" filter="url(#fy0sfimnf2ft1)" height="40" rx="12.5" ry="12.5" style="stroke: #000000; stroke-width: 1.5;" width="50" x="63" y="212.9531"/><text fill="#000000" font-family="sans-serif" font-size="14" lengthAdjust="spacingAndGlyphs" textLength="38" x="69" y="237.7998">Menu</text><rect fill="#FFFAF0" filter="url(#fy0sfimnf2ft1)" height="40" rx="12.5" ry="12.5" style="stroke: #000000; stroke-width: 1.5;" width="93" x="263.5" y="212.9531"/><text fill="#000000" font-family="sans-serif" font-size="14" lengthAdjust="spacingAndGlyphs" textLength="83" x="268.5" y="237.7998">Menu client</text><rect fill="#FFFAF0" filter="url(#fy0sfimnf2ft1)" height="40" rx="12.5" ry="12.5" style="stroke: #000000; stroke-width: 1.5;" width="155" x="232.5" y="662.9531"/><text fill="#000000" font-family="sans-serif" font-size="14" lengthAdjust="spacingAndGlyphs" textLength="145" x="237.5" y="687.7998">NewCustomer client</text><rect fill="#FFFAF0" filter="url(#fy0sfimnf2ft1)" height="40" rx="12.5" ry="12.5" style="stroke: #000000; stroke-width: 1.5;" width="51" x="62.5" y="287.9531"/><text fill="#000000" font-family="sans-serif" font-size="14" lengthAdjust="spacingAndGlyphs" textLength="41" x="67.5" y="312.7998">Order</text><rect fill="#FFFAF0" filter="url(#fy0sfimnf2ft1)" height="40" rx="12.5" ry="12.5" style="stroke: #000000; stroke-width: 1.5;" width="96" x="262" y="287.9531"/><text fill="#000000" font-family="sans-serif" font-size="14" lengthAdjust="spacingAndGlyphs" textLength="86" x="267" y="312.7998">Order client</text><rect fill="#FFFAF0" filter="url(#fy0sfimnf2ft1)" height="40" rx="12.5" ry="12.5" style="stroke: #000000; stroke-width: 1.5;" width="50" x="63" y="362.9531"/><text fill="#000000" font-family="sans-serif" font-size="14" lengthAdjust="spacingAndGlyphs" textLength="25" x="75.5" y="387.7998">Pay</text><rect fill="#FFFAF0" filter="url(#fy0sfimnf2ft1)" height="40" rx="12.5" ry="12.5" style="stroke: #000000; stroke-width: 1.5;" width="80" x="270" y="362.9531"/><text fill="#000000" font-family="sans-serif" font-size="14" lengthAdjust="spacingAndGlyphs" textLength="70" x="275" y="387.7998">Pay client</text><rect fill="#FFFAF0" filter="url(#fy0sfimnf2ft1)" height="40" rx="12.5" ry="12.5" style="stroke: #000000; stroke-width: 1.5;" width="89" x="43.5" y="437.9531"/><text fill="#000000" font-family="sans-serif" font-size="14" lengthAdjust="spacingAndGlyphs" textLength="79" x="48.5" y="462.7998">PlaceOrder</text><rect fill="#FFFAF0" filter="url(#fy0sfimnf2ft1)" height="40" rx="12.5" ry="12.5" style="stroke: #000000; stroke-width: 1.5;" width="57" x="59.5" y="512.9531"/><text fill="#000000" font-family="sans-serif" font-size="14" lengthAdjust="spacingAndGlyphs" textLength="47" x="64.5" y="537.7998">Profile</text><rect fill="#FFFAF0" filter="url(#fy0sfimnf2ft1)" height="40" rx="12.5" ry="12.5" style="stroke: #000000; stroke-width: 1.5;" width="61" x="57.5" y="587.9531"/><text fill="#000000" font-family="sans-serif" font-size="14" lengthAdjust="spacingAndGlyphs" textLength="51" x="62.5" y="612.7998">Review</text><rect fill="#FFFAF0" filter="url(#fy0sfimnf2ft1)" height="40" rx="12.5" ry="12.5" style="stroke: #000000; stroke-width: 1.5;" width="106" x="257" y="587.9531"/><text fill="#000000" font-family="sans-serif" font-size="14" lengthAdjust="spacingAndGlyphs" textLength="96" x="262" y="612.7998">Review client</text><rect fill="#FFFAF0" filter="url(#fy0sfimnf2ft1)" height="40" rx="12.5" ry="12.5" style="stroke: #000000; stroke-width: 1.5;" width="59" x="58.5" y="662.9531"/><text fill="#000000" font-family="sans-serif" font-size="14" lengthAdjust="spacingAndGlyphs" textLength="49" x="63.5" y="687.7998">Signup</text><rect fill="#FFFAF0" filter="url(#fy0sfimnf2ft1)" height="40" rx="12.5" ry="12.5" style="stroke: #000000; stroke-width: 1.5;" width="194" x="213" y="437.9531"/><text fill="#000000" font-family="sans-serif" font-size="14" lengthAdjust="spacingAndGlyphs" textLength="184" x="218" y="462.7998">UpdateOrderStatus client</text><rect fill="#FFFAF0" filter="url(#fy0sfimnf2ft1)" height="40" rx="12.5" ry="12.5" style="stroke: #000000; stroke-width: 1.5;" width="173" x="223.5" y="62.9531"/><text fill="#000000" font-family="sans-serif" font-size="14" lengthAdjust="spacingAndGlyphs" textLength="163" x="228.5" y="87.7998">UpdatePassword client</text><!--MD5=[0ea368ddd915f2a407f414932c55ddae]
link _3 to _6--><path d="M373.796,2210.9151 C392.569,2205.2411 412.95,2198.1861 431,2189.9531 C462.659,2175.5141 496.056,2154.1841 519.64,2137.9591 " fill="none" id="_3-&gt;_6" style="stroke: #C0C0C0; stroke-width: 1.0;"/><polygon fill="#C0C0C0" points="523.927,2134.9911,514.2502,2136.8242,519.8157,2137.8367,518.8032,2143.4022,523.927,2134.9911" style="stroke: #C0C0C0; stroke-width: 1.0;"/><!--MD5=[4e29bfd3418fa57f132e402b8cdb03e3]
link _6 to _10--><path d="M532.342,2094.7691 C506.979,2067.7971 464.747,2017.2411 448.25,1964.4531 C443.212,1948.3331 441.843,1942.0791 448.25,1926.4531 C452.393,1916.3481 456.5,1915.1391 465.5,1908.9531 C474.021,1903.0961 483.59,1897.8271 493.183,1893.2111 " fill="none" id="_6-&gt;_10" style="stroke: #000000; stroke-width: 1.0;"/><polygon fill="#000000" points="497.889,1890.9971,488.0424,1891.2091,493.3647,1893.1257,491.4481,1898.448,497.889,1890.9971" style="stroke: #000000; stroke-width: 1.0;"/><!--MD5=[9bcbbfdf6afb1d4759bb95b02668f8b4]
link _5 to _4--><path d="M365.273,2293.6034 C394.204,2289.1525 430.515,2283.5662 463.373,2278.5111 " fill="none" id="_5-&gt;_4" style="stroke: #C0C0C0; stroke-width: 1.0;"/><polygon fill="#C0C0C0" points="468.615,2277.7046,459.1116,2275.1191,463.6731,2278.4646,460.3276,2283.0262,468.615,2277.7046" style="stroke: #C0C0C0; stroke-width: 1.0;"/><!--MD5=[1efb5967f4c449dd56d6249280be653c]
link _4 to _9--><path d="M528.811,2244.9451 C503.284,2221.6761 464.178,2180.6401 448.25,2135.4531 C436.873,2103.1771 435.757,2090.3141 448.25,2058.4531 C462.644,2021.7441 495.266,1989.8621 520.213,1969.5051 " fill="none" id="_4-&gt;_9" style="stroke: #000000; stroke-width: 1.0;"/><polygon fill="#000000" points="524.147,1966.3371,514.6284,1968.8661,520.2526,1969.473,519.6457,1975.0972,524.147,1966.3371" style="stroke: #000000; stroke-width: 1.0;"/><!--MD5=[62ad056fd2ad6c1a7d9c7b17cd6e64c5]
link _23 to _24--><path d="M335.384,1688.5571 C375.758,1701.1481 457.048,1726.4981 507.612,1742.2671 " fill="none" id="_23-&gt;_24" style="stroke: #C0C0C0; stroke-width: 1.0;"/><polygon fill="#C0C0C0" points="512.407,1743.7621,505.0061,1737.2639,507.6338,1742.2734,502.6242,1744.9011,512.407,1743.7621" style="stroke: #C0C0C0; stroke-width: 1.0;"/><!--MD5=[342f12d79725bf24ce09f1f5e1fb8089]
link _24 to _26--><path d="M512.473,1748.2751 C487.762,1741.0281 458.825,1727.2471 448.25,1701.4531 C426.776,1649.0791 485.047,1596.5851 522.907,1569.2571 " fill="none" id="_24-&gt;_26" style="stroke: #000000; stroke-width: 1.0;"/><polygon fill="#000000" points="527.416,1566.0511,517.7637,1568.0091,523.3418,1568.9496,522.4013,1574.5277,527.416,1566.0511" style="stroke: #000000; stroke-width: 1.0;"/><!--MD5=[4bab9894dcf906c1e84cd9b5623ff792]
link _23 to _22--><path d="M335.384,1680.9531 C369.789,1680.9531 433.905,1680.9531 483.4,1680.9531 " fill="none" id="_23-&gt;_22" style="stroke: #C0C0C0; stroke-width: 1.0;"/><polygon fill="#C0C0C0" points="488.446,1680.9531,479.446,1676.9531,483.446,1680.9531,479.446,1684.9531,488.446,1680.9531" style="stroke: #C0C0C0; stroke-width: 1.0;"/><!--MD5=[4a53e0e6c9f010e9cc3a878cac968a5c]
link _22 to _8--><path d="M524.147,1660.5691 C498.809,1640.4421 463.414,1607.1261 448.25,1568.4531 C430.92,1524.2561 476.905,1482.7121 513.242,1458.0511 " fill="none" id="_22-&gt;_8" style="stroke: #000000; stroke-width: 1.0;"/><polygon fill="#000000" points="517.62,1455.1281,507.9134,1456.7961,513.4608,1457.9033,512.3536,1463.4507,517.62,1455.1281" style="stroke: #000000; stroke-width: 1.0;"/><!--MD5=[b84326987e98dcb917912705a3ef9c62]
link _0 to _1--><path d="M113.384,1549.9531 C149.795,1549.9531 218.957,1549.9531 264.521,1549.9531 " fill="none" id="_0-&gt;_1" style="stroke: #C0C0C0; stroke-width: 1.0;"/><polygon fill="#C0C0C0" points="269.68,1549.9531,260.68,1545.9531,264.68,1549.9531,260.68,1553.9531,269.68,1549.9531" style="stroke: #C0C0C0; stroke-width: 1.0;"/><!--MD5=[bc83b3fabef1aeb733b8f0a42ce4fd6d]
link _1 to _23--><path d="M310,1570.2931 C310,1598.6751 310,1627.0581 310,1655.4401 " fill="none" id="_1-&gt;_23" style="stroke: #000000; stroke-width: 1.0;"/><polygon fill="#000000" points="310,1660.7401,314,1651.7401,310,1655.7401,306,1651.7401,310,1660.7401" style="stroke: #000000; stroke-width: 1.0;"/><!--MD5=[7a2cb289c35b92a5a43b54d75e95b057]
link _11 to _12--><path d="M113.384,1209.9531 C148.179,1209.9531 212.883,1209.9531 258.32,1209.9531 " fill="none" id="_11-&gt;_12" style="stroke: #C0C0C0; stroke-width: 1.0;"/><polygon fill="#C0C0C0" points="263.485,1209.9531,254.485,1205.9531,258.485,1209.9531,254.485,1213.9531,263.485,1209.9531" style="stroke: #C0C0C0; stroke-width: 1.0;"/><!--MD5=[8ca65a405ba64f544febfbdb2153c782]
link _12 to _25--><path d="M310,1189.7431 C310,1166.6731 310,1143.6131 310,1120.5531 " fill="none" id="_12-&gt;_25" style="stroke: #000000; stroke-width: 1.0;"/><polygon fill="#000000" points="310,1115.3131,306,1124.3131,310,1120.3131,314,1124.3131,310,1115.3131" style="stroke: #000000; stroke-width: 1.0;"/><!--MD5=[2e09ed96493301d0e77104c448ea3f5a]
link _13 to _14--><path d="M113.809,1284.9531 C148.326,1284.9531 211.679,1284.9531 256.846,1284.9531 " fill="none" id="_13-&gt;_14" style="stroke: #C0C0C0; stroke-width: 1.0;"/><polygon fill="#C0C0C0" points="261.985,1284.9531,252.985,1280.9531,256.985,1284.9531,252.985,1288.9531,261.985,1284.9531" style="stroke: #C0C0C0; stroke-width: 1.0;"/><!--MD5=[248ca33d45f368d3654f4fe55fee3431]
link _14 to _19--><path d="M261.796,1278.8431 C232.698,1272.2731 198.247,1258.6631 182.25,1230.4531 C162.465,1195.5631 162.465,904.3431 182.25,869.4531 C201.643,835.2531 247.935,822.1031 279.135,817.0631 " fill="none" id="_14-&gt;_19" style="stroke: #000000; stroke-width: 1.0;"/><polygon fill="#000000" points="284.39,816.2731,274.8925,813.6659,279.4464,817.0218,276.0904,821.5757,284.39,816.2731" style="stroke: #000000; stroke-width: 1.0;"/><!--MD5=[8a4a2e99901e03a27c75c1124701025d]
link _15 to _18--><path d="M132.728,1359.9531 C154.226,1359.9531 181.109,1359.9531 207.354,1359.9531 " fill="none" id="_15-&gt;_18" style="stroke: #C0C0C0; stroke-width: 1.0;"/><polygon fill="#C0C0C0" points="212.593,1359.9531,203.593,1355.9531,207.593,1359.9531,203.593,1363.9531,212.593,1359.9531" style="stroke: #C0C0C0; stroke-width: 1.0;"/><!--MD5=[1df40e8b58f22dce7e92709b3ff9107f]
link _18 to _21--><path d="M221.123,1339.8531 C205.244,1331.9231 190.992,1320.8731 182.25,1305.4531 C162.465,1270.5631 162.465,979.3431 182.25,944.4531 C192.696,926.0331 210.946,913.7131 230.437,905.4931 " fill="none" id="_18-&gt;_21" style="stroke: #000000; stroke-width: 1.0;"/><polygon fill="#000000" points="235.416,903.4831,225.5731,903.1405,230.7791,905.3536,228.5659,910.5596,235.416,903.4831" style="stroke: #000000; stroke-width: 1.0;"/><!--MD5=[4330cd2bc2f43e8cfef87705304d31ab]
link _16 to _17--><path d="M118.67,1434.9531 C152.594,1434.9531 208.931,1434.9531 251.531,1434.9531 " fill="none" id="_16-&gt;_17" style="stroke: #C0C0C0; stroke-width: 1.0;"/><polygon fill="#C0C0C0" points="256.656,1434.9531,247.656,1430.9531,251.656,1434.9531,247.656,1438.9531,256.656,1434.9531" style="stroke: #C0C0C0; stroke-width: 1.0;"/><!--MD5=[5c8a90a3bec598804742f89c6ab60c73]
link _17 to _20--><path d="M256.883,1427.6761 C228.913,1420.7131 197.355,1407.0921 182.25,1380.4531 C148.928,1321.6831 154.433,1138.0131 182.25,1076.4531 C201.098,1034.7431 243.901,1002.3231 274.773,983.2231 " fill="none" id="_17-&gt;_20" style="stroke: #000000; stroke-width: 1.0;"/><polygon fill="#000000" points="279.238,980.5031,269.471,981.7706,274.9683,983.1049,273.634,988.6022,279.238,980.5031" style="stroke: #000000; stroke-width: 1.0;"/><!--MD5=[9ae800529f37d604279e879669cef019]
link _28 to _44--><path d="M153.225,82.9531 C173.537,82.9531 196.385,82.9531 218.194,82.9531 " fill="none" id="_28-&gt;_44" style="stroke: #C0C0C0; stroke-width: 1.0;"/><polygon fill="#C0C0C0" points="223.417,82.9531,214.417,78.9531,218.417,82.9531,214.417,86.9531,223.417,82.9531" style="stroke: #C0C0C0; stroke-width: 1.0;"/><!--MD5=[5d43653fea8babef0f591c5bfe7cabe2]
link _44 to _7--><path d="M223.44,102.6531 C206.651,110.7831 191.434,122.2531 182.25,138.4531 C137.419,217.5131 164.211,1685.3721 182.25,1774.4531 C204.326,1883.4701 266.959,2002.0271 295.504,2052.2571 " fill="none" id="_44-&gt;_7" style="stroke: #000000; stroke-width: 1.0;"/><polygon fill="#000000" points="297.993,2056.6161,297.0021,2046.8172,295.5129,2052.2746,290.0556,2050.7854,297.993,2056.6161" style="stroke: #000000; stroke-width: 1.0;"/><!--MD5=[c149ed2a4e7c24b2295ea4895b65d61c]
link _30 to _27--><path d="M113.384,157.9531 C141.279,157.9531 188.396,157.9531 229.398,157.9531 " fill="none" id="_30-&gt;_27" style="stroke: #C0C0C0; stroke-width: 1.0;"/><polygon fill="#C0C0C0" points="234.623,157.9531,225.623,153.9531,229.623,157.9531,225.623,161.9531,234.623,157.9531" style="stroke: #C0C0C0; stroke-width: 1.0;"/><!--MD5=[b223eccd934c94f43c77681a43f58c15]
link _27 to _2--><path d="M234.743,172.7431 C213.664,180.9431 193.462,193.6831 182.25,213.4531 C156.437,258.9731 156.437,2051.9291 182.25,2097.4531 C196.526,2122.6301 225.498,2136.1781 252.248,2143.4681 " fill="none" id="_27-&gt;_2" style="stroke: #000000; stroke-width: 1.0;"/><polygon fill="#000000" points="257.213,2144.7581,249.5076,2138.624,252.3736,2143.5011,247.4965,2146.3671,257.213,2144.7581" style="stroke: #000000; stroke-width: 1.0;"/><!--MD5=[070e8fe19cf0af93cfc5a1b0cc8db2d4]
link _31 to _32--><path d="M113.384,232.9531 C148.179,232.9531 212.883,232.9531 258.32,232.9531 " fill="none" id="_31-&gt;_32" style="stroke: #C0C0C0; stroke-width: 1.0;"/><polygon fill="#C0C0C0" points="263.485,232.9531,254.485,228.9531,258.485,232.9531,254.485,236.9531,263.485,232.9531" style="stroke: #C0C0C0; stroke-width: 1.0;"/><!--MD5=[107f5dc15129f17c3a96d3b682d35a4f]
link _32 to _25--><path d="M263.443,239.1031 C234.028,245.7631 198.591,259.6331 182.25,288.4531 C144.215,355.5331 150.498,912.1831 182.25,982.4531 C202.257,1026.7331 249.259,1060.5431 280.329,1079.0631 " fill="none" id="_32-&gt;_25" style="stroke: #000000; stroke-width: 1.0;"/><polygon fill="#000000" points="284.793,1081.6831,279.0549,1073.6785,280.4805,1079.1528,275.0063,1080.5785,284.793,1081.6831" style="stroke: #000000; stroke-width: 1.0;"/><!--MD5=[f123722eccb79b284378b0c21d8399f6]
link _34 to _35--><path d="M113.809,307.9531 C148.326,307.9531 211.679,307.9531 256.846,307.9531 " fill="none" id="_34-&gt;_35" style="stroke: #C0C0C0; stroke-width: 1.0;"/><polygon fill="#C0C0C0" points="261.985,307.9531,252.985,303.9531,256.985,307.9531,252.985,311.9531,261.985,307.9531" style="stroke: #C0C0C0; stroke-width: 1.0;"/><!--MD5=[6c03364fb7290d1bdc7f52fe040c58b0]
link _35 to _19--><path d="M261.827,314.4731 C232.741,321.2731 198.292,335.1631 182.25,363.4531 C145.202,428.7931 151.322,633.0031 182.25,701.4531 C202.141,745.4731 248.715,779.1431 279.787,797.7331 " fill="none" id="_35-&gt;_19" style="stroke: #000000; stroke-width: 1.0;"/><polygon fill="#000000" points="284.254,800.3731,278.5257,792.3615,279.9447,797.8375,274.4687,799.2564,284.254,800.3731" style="stroke: #000000; stroke-width: 1.0;"/><!--MD5=[af37201a6cf1dcd2d5dc9261c43baf1d]
link _36 to _37--><path d="M113.384,382.9531 C149.795,382.9531 218.957,382.9531 264.521,382.9531 " fill="none" id="_36-&gt;_37" style="stroke: #C0C0C0; stroke-width: 1.0;"/><polygon fill="#C0C0C0" points="269.68,382.9531,260.68,378.9531,264.68,382.9531,260.68,386.9531,269.68,382.9531" style="stroke: #C0C0C0; stroke-width: 1.0;"/><!--MD5=[830ffa3ac5379e9f87d484b129857cb2]
link _37 to _23--><path d="M269.779,387.7531 C239.303,393.8231 199.783,407.5331 182.25,438.4531 C151.285,493.0631 156.4,1511.2441 182.25,1568.4531 C202.257,1612.7321 249.259,1646.5381 280.329,1665.0611 " fill="none" id="_37-&gt;_23" style="stroke: #000000; stroke-width: 1.0;"/><polygon fill="#000000" points="284.793,1667.6821,279.0572,1659.6759,280.4813,1665.1505,275.0066,1666.5746,284.793,1667.6821" style="stroke: #000000; stroke-width: 1.0;"/><!--MD5=[23d4cf6012f8fcce05929c4a14fb8707]
link _38 to _43--><path d="M132.728,457.9531 C154.226,457.9531 181.109,457.9531 207.354,457.9531 " fill="none" id="_38-&gt;_43" style="stroke: #C0C0C0; stroke-width: 1.0;"/><polygon fill="#C0C0C0" points="212.593,457.9531,203.593,453.9531,207.593,457.9531,203.593,461.9531,212.593,457.9531" style="stroke: #C0C0C0; stroke-width: 1.0;"/><!--MD5=[49441d74f0145c060cc1f6578ba3269f]
link _43 to _21--><path d="M222.787,477.9731 C206.257,486.0831 191.315,497.4631 182.25,513.4531 C147.065,575.5031 147.065,772.4031 182.25,834.4531 C192.666,852.8231 210.907,865.0031 230.399,873.0731 " fill="none" id="_43-&gt;_21" style="stroke: #000000; stroke-width: 1.0;"/><polygon fill="#000000" points="235.377,875.0431,228.4801,868.0123,230.7277,873.2034,225.5366,875.4511,235.377,875.0431" style="stroke: #000000; stroke-width: 1.0;"/><!--MD5=[3974a7cc4e967321e05a0f9e91c08d1c]
link _39 to _29--><path d="M116.863,532.9531 C142.43,532.9531 181.752,532.9531 218.178,532.9531 " fill="none" id="_39-&gt;_29" style="stroke: #C0C0C0; stroke-width: 1.0;"/><polygon fill="#C0C0C0" points="223.529,532.9531,214.529,528.9531,218.529,532.9531,214.529,536.9531,223.529,532.9531" style="stroke: #C0C0C0; stroke-width: 1.0;"/><!--MD5=[4a42c856ce51a631a81d199aea0c4bd3]
link _29 to _3--><path d="M223.768,552.4931 C206.849,560.6331 191.494,572.1531 182.25,588.4531 C160.547,626.7331 160.547,2134.1781 182.25,2172.4531 C194.575,2194.1901 217.855,2207.2591 241.202,2215.1161 " fill="none" id="_29-&gt;_3" style="stroke: #000000; stroke-width: 1.0;"/><polygon fill="#000000" points="246.181,2216.7151,238.835,2210.1549,241.4204,2215.1864,236.389,2217.7718,246.181,2216.7151" style="stroke: #000000; stroke-width: 1.0;"/><!--MD5=[39413098f57c1a77eea6168bc4941621]
link _40 to _41--><path d="M118.67,607.9531 C152.594,607.9531 208.931,607.9531 251.531,607.9531 " fill="none" id="_40-&gt;_41" style="stroke: #C0C0C0; stroke-width: 1.0;"/><polygon fill="#C0C0C0" points="256.656,607.9531,247.656,603.9531,251.656,607.9531,247.656,611.9531,256.656,607.9531" style="stroke: #C0C0C0; stroke-width: 1.0;"/><!--MD5=[01c7e39e41b407e9ef1fb85fddaec5d2]
link _41 to _20--><path d="M256.916,615.6731 C228.957,622.8731 197.398,636.7431 182.25,663.4531 C155.286,711.0031 155.286,861.9031 182.25,909.4531 C200.576,941.7731 243.123,954.9331 274.094,960.2831 " fill="none" id="_41-&gt;_20" style="stroke: #000000; stroke-width: 1.0;"/><polygon fill="#000000" points="279.346,961.1331,271.1062,955.7381,274.411,960.3292,269.82,963.6341,279.346,961.1331" style="stroke: #000000; stroke-width: 1.0;"/><!--MD5=[3a8b16414360117d36afdd4c073deb9c]
link _42 to _33--><path d="M117.761,682.9531 C145.517,682.9531 188.863,682.9531 227.274,682.9531 " fill="none" id="_42-&gt;_33" style="stroke: #C0C0C0; stroke-width: 1.0;"/><polygon fill="#C0C0C0" points="232.417,682.9531,223.417,678.9531,227.417,682.9531,223.417,686.9531,232.417,682.9531" style="stroke: #C0C0C0; stroke-width: 1.0;"/><!--MD5=[455cde1fde73b3ada402392634de3052]
link _33 to _5--><path d="M273.34,703.1131 C242.589,722.3231 200.808,754.3831 182.25,795.4531 C149.034,868.9631 142.461,2177.2821 182.25,2247.4531 C196.134,2271.9387 223.919,2285.4259 250.041,2292.8539 " fill="none" id="_33-&gt;_5" style="stroke: #000000; stroke-width: 1.0;"/><polygon fill="#000000" points="254.895,2294.1716,247.2574,2287.9533,250.0697,2292.8616,245.1614,2295.6739,254.895,2294.1716" style="stroke: #000000; stroke-width: 1.0;"/><!--MD5=[a2f59c0c3af5c7ea36692ce4793bba3d]
@startuml
''''''''''''''''''''''''''''''''''''''''''
''                                      ''
''  AUTOGENERATED CODE - - DO NOT EDIT!  ''
''                                      ''
''''''''''''''''''''''''''''''''''''''''''


title Backend
left to right direction
scale max 16384 height
hide empty description
skinparam state {
  BackgroundColor FloralWhite
  BorderColor Black
  ArrowColor Crimson
}
state "Dashboard" as X_0 {
  state "Pay" as _0
  state "Pay client" as _1
}
state "IdentityServer" as X_1 <<highlight>> {
  state "Authenticate" as _2 <<highlight>>
  state "CustomerProfile" as _3 <<highlight>>
  state "InsertCustomer client" as _4 <<highlight>>
  state "NewCustomer" as _5 <<highlight>>
  state "SelectCustomer client" as _6 <<highlight>>
  state "UpdatePassword" as _7 <<highlight>>
}
state "MasterCard" as X_2 {
  state "POST /pay" as _8
}
state "MegaDatabase" as X_3 {
  state "InsertCustomer" as _9
  state "SelectCustomer" as _10
}
state "Mobile" as X_4 {
  state "Menu" as _11
  state "Menu client" as _12
  state "Order" as _13
  state "Order client" as _14
  state "PlaceOrder" as _15
  state "Review" as _16
  state "Review client" as _17
  state "UpdateOrderStatus client" as _18
}
state "OrderServer" as X_5 <<highlight>> {
  state "Order" as _19 <<highlight>>
  state "Review" as _20 <<highlight>>
  state "UpdateOrderStatus" as _21 <<highlight>>
}
state "PaymentServer" as X_6 <<highlight>> {
  state "POST /pay client" as _22 <<highlight>>
  state "Pay" as _23 <<highlight>>
  state "Pay client" as _24 <<highlight>>
}
state "ProductServer" as X_7 <<highlight>> {
  state "Menu" as _25 <<highlight>>
}
state "Visa" as X_8 {
  state "Pay" as _26
}
state "Website" as X_9 {
  state "Authenticate client" as _27
  state "ChangePassword" as _28
  state "CustomerProfile client" as _29
  state "Login" as _30
  state "Menu" as _31
  state "Menu client" as _32
  state "NewCustomer client" as _33
  state "Order" as _34
  state "Order client" as _35
  state "Pay" as _36
  state "Pay client" as _37
  state "PlaceOrder" as _38
  state "Profile" as _39
  state "Review" as _40
  state "Review client" as _41
  state "Signup" as _42
  state "UpdateOrderStatus client" as _43
  state "UpdatePassword client" as _44
}
_3 -[#silver]-> _6
_6 -[#black]> _10
_5 -[#silver]-> _4
_4 -[#black]> _9
_23 -[#silver]-> _24
_24 -[#black]> _26
_23 -[#silver]-> _22
_22 -[#black]> _8
_0 -[#silver]-> _1
_1 -[#black]> _23
_11 -[#silver]-> _12
_12 -[#black]> _25
_13 -[#silver]-> _14
_14 -[#black]> _19
_15 -[#silver]-> _18
_18 -[#black]> _21
_16 -[#silver]-> _17
_17 -[#black]> _20
_28 -[#silver]-> _44
_44 -[#black]> _7
_30 -[#silver]-> _27
_27 -[#black]> _2
_31 -[#silver]-> _32
_32 -[#black]> _25
_34 -[#silver]-> _35
_35 -[#black]> _19
_36 -[#silver]-> _37
_37 -[#black]> _23
_38 -[#silver]-> _43
_43 -[#black]> _21
_39 -[#silver]-> _29
_29 -[#black]> _3
_40 -[#silver]-> _41
_41 -[#black]> _20
_42 -[#silver]-> _33
_33 -[#black]> _5
@enduml

@startuml


title Backend
left to right direction
scale max 16384 height
hide empty description
skinparam state {
  BackgroundColor FloralWhite
  BorderColor Black
  ArrowColor Crimson
}
state "Dashboard" as X_0 {
  state "Pay" as _0
  state "Pay client" as _1
}
state "IdentityServer" as X_1 <<highlight>> {
  state "Authenticate" as _2 <<highlight>>
  state "CustomerProfile" as _3 <<highlight>>
  state "InsertCustomer client" as _4 <<highlight>>
  state "NewCustomer" as _5 <<highlight>>
  state "SelectCustomer client" as _6 <<highlight>>
  state "UpdatePassword" as _7 <<highlight>>
}
state "MasterCard" as X_2 {
  state "POST /pay" as _8
}
state "MegaDatabase" as X_3 {
  state "InsertCustomer" as _9
  state "SelectCustomer" as _10
}
state "Mobile" as X_4 {
  state "Menu" as _11
  state "Menu client" as _12
  state "Order" as _13
  state "Order client" as _14
  state "PlaceOrder" as _15
  state "Review" as _16
  state "Review client" as _17
  state "UpdateOrderStatus client" as _18
}
state "OrderServer" as X_5 <<highlight>> {
  state "Order" as _19 <<highlight>>
  state "Review" as _20 <<highlight>>
  state "UpdateOrderStatus" as _21 <<highlight>>
}
state "PaymentServer" as X_6 <<highlight>> {
  state "POST /pay client" as _22 <<highlight>>
  state "Pay" as _23 <<highlight>>
  state "Pay client" as _24 <<highlight>>
}
state "ProductServer" as X_7 <<highlight>> {
  state "Menu" as _25 <<highlight>>
}
state "Visa" as X_8 {
  state "Pay" as _26
}
state "Website" as X_9 {
  state "Authenticate client" as _27
  state "ChangePassword" as _28
  state "CustomerProfile client" as _29
  state "Login" as _30
  state "Menu" as _31
  state "Menu client" as _32
  state "NewCustomer client" as _33
  state "Order" as _34
  state "Order client" as _35
  state "Pay" as _36
  state "Pay client" as _37
  state "PlaceOrder" as _38
  state "Profile" as _39
  state "Review" as _40
  state "Review client" as _41
  state "Signup" as _42
  state "UpdateOrderStatus client" as _43
  state "UpdatePassword client" as _44
}
_3 -[#silver]-> _6
_6 -[#black]> _10
_5 -[#silver]-> _4
_4 -[#black]> _9
_23 -[#silver]-> _24
_24 -[#black]> _26
_23 -[#silver]-> _22
_22 -[#black]> _8
_0 -[#silver]-> _1
_1 -[#black]> _23
_11 -[#silver]-> _12
_12 -[#black]> _25
_13 -[#silver]-> _14
_14 -[#black]> _19
_15 -[#silver]-> _18
_18 -[#black]> _21
_16 -[#silver]-> _17
_17 -[#black]> _20
_28 -[#silver]-> _44
_44 -[#black]> _7
_30 -[#silver]-> _27
_27 -[#black]> _2
_31 -[#silver]-> _32
_32 -[#black]> _25
_34 -[#silver]-> _35
_35 -[#black]> _19
_36 -[#silver]-> _37
_37 -[#black]> _23
_38 -[#silver]-> _43
_43 -[#black]> _21
_39 -[#silver]-> _29
_29 -[#black]> _3
_40 -[#silver]-> _41
_41 -[#black]> _20
_42 -[#silver]-> _33
_33 -[#black]> _5
@enduml

PlantUML version 1.2020.16beta7(Unknown compile time)
(GPL source distribution)
Java Runtime: Java(TM) SE Runtime Environment
JVM: Java HotSpot(TM) 64-Bit Server VM
Default Encoding: UTF-8
Language: en
Country: US
--></g></svg>