<?xml version="1.0" encoding="UTF-8" standalone="no"?><svg xmlns="http://www.w3.org/2000/svg" xmlns:xlink="http://www.w3.org/1999/xlink" contentScriptType="application/ecmascript" contentStyleType="text/css" height="305px" preserveAspectRatio="none" style="width:781px;height:305px;" version="1.1" viewBox="0 0 781 305" width="781px" zoomAndPan="magnify"><defs><filter height="300%" id="fnnr2equ243gh" width="300%" x="-1" y="-1"><feGaussianBlur result="blurOut" stdDeviation="2.0"/><feColorMatrix in="blurOut" result="blurOut2" type="matrix" values="0 0 0 0 0 0 0 0 0 0 0 0 0 0 0 0 0 0 .4 0"/><feOffset dx="4.0" dy="4.0" in="blurOut2" result="blurOut3"/><feBlend in="SourceGraphic" in2="blurOut3" mode="normal"/></filter></defs><g><text fill="#000000" font-family="sans-serif" font-size="18" lengthAdjust="spacingAndGlyphs" textLength="78" x="342.75" y="16.708">Backend</text><!--MD5=[834ef74a6aa73a899f9de7987f49a674]
entity _0--><rect fill="#FFFAF0" filter="url(#fnnr2equ243gh)" height="46.2969" style="stroke: #000000; stroke-width: 1.5;" width="144" x="276.5" y="133.9531"/><rect fill="#FFFAF0" height="10" style="stroke: #000000; stroke-width: 1.5;" width="15" x="400.5" y="138.9531"/><rect fill="#FFFAF0" height="2" style="stroke: #000000; stroke-width: 1.5;" width="4" x="398.5" y="140.9531"/><rect fill="#FFFAF0" height="2" style="stroke: #000000; stroke-width: 1.5;" width="4" x="398.5" y="144.9531"/><text fill="#000000" font-family="sans-serif" font-size="14" lengthAdjust="spacingAndGlyphs" textLength="104" x="291.5" y="166.9482">IdentityServer</text><!--MD5=[5793e68b51480d2da18d2edf8802f392]
entity _1--><rect fill="#FFFAF0" filter="url(#fnnr2equ243gh)" height="46.2969" style="stroke: #000000; stroke-width: 1.5;" width="146" x="275.5" y="239.9531"/><rect fill="#FFFAF0" height="10" style="stroke: #000000; stroke-width: 1.5;" width="15" x="401.5" y="244.9531"/><rect fill="#FFFAF0" height="2" style="stroke: #000000; stroke-width: 1.5;" width="4" x="399.5" y="246.9531"/><rect fill="#FFFAF0" height="2" style="stroke: #000000; stroke-width: 1.5;" width="4" x="399.5" y="250.9531"/><text fill="#000000" font-family="sans-serif" font-size="14" lengthAdjust="spacingAndGlyphs" textLength="106" x="290.5" y="272.9482">MegaDatabase</text><!--MD5=[fc69c2ef26418c6b4957312aae07cc91]
entity _2--><rect fill="#FFFAF0" filter="url(#fnnr2equ243gh)" height="46.2969" style="stroke: #000000; stroke-width: 1.5;" width="151" x="90" y="133.9531"/><rect fill="#FFFAF0" height="10" style="stroke: #000000; stroke-width: 1.5;" width="15" x="221" y="138.9531"/><rect fill="#FFFAF0" height="2" style="stroke: #000000; stroke-width: 1.5;" width="4" x="219" y="140.9531"/><rect fill="#FFFAF0" height="2" style="stroke: #000000; stroke-width: 1.5;" width="4" x="219" y="144.9531"/><text fill="#000000" font-family="sans-serif" font-size="14" lengthAdjust="spacingAndGlyphs" textLength="111" x="105" y="166.9482">PaymentServer</text><!--MD5=[491502b257624c25ed563d7bf73ae0a0]
entity _3--><rect fill="#FFFAF0" filter="url(#fnnr2equ243gh)" height="46.2969" style="stroke: #000000; stroke-width: 1.5;" width="69" x="7" y="239.9531"/><rect fill="#FFFAF0" height="10" style="stroke: #000000; stroke-width: 1.5;" width="15" x="56" y="244.9531"/><rect fill="#FFFAF0" height="2" style="stroke: #000000; stroke-width: 1.5;" width="4" x="54" y="246.9531"/><rect fill="#FFFAF0" height="2" style="stroke: #000000; stroke-width: 1.5;" width="4" x="54" y="250.9531"/><text fill="#000000" font-family="sans-serif" font-size="14" lengthAdjust="spacingAndGlyphs" textLength="29" x="22" y="272.9482">Visa</text><!--MD5=[e10aba13bcd25b8e2f2c6ecd09c6015a]
entity _4--><rect fill="#FFFAF0" filter="url(#fnnr2equ243gh)" height="46.2969" style="stroke: #000000; stroke-width: 1.5;" width="122" x="111.5" y="239.9531"/><rect fill="#FFFAF0" height="10" style="stroke: #000000; stroke-width: 1.5;" width="15" x="213.5" y="244.9531"/><rect fill="#FFFAF0" height="2" style="stroke: #000000; stroke-width: 1.5;" width="4" x="211.5" y="246.9531"/><rect fill="#FFFAF0" height="2" style="stroke: #000000; stroke-width: 1.5;" width="4" x="211.5" y="250.9531"/><text fill="#000000" font-family="sans-serif" font-size="14" lengthAdjust="spacingAndGlyphs" textLength="82" x="126.5" y="272.9482">MasterCard</text><!--MD5=[9e283554f6c225a5c09d9b9f4b518823]
entity _5--><rect fill="#FFFAF0" filter="url(#fnnr2equ243gh)" height="46.2969" style="stroke: #000000; stroke-width: 1.5;" width="117" x="107" y="27.9531"/><rect fill="#FFFAF0" height="10" style="stroke: #000000; stroke-width: 1.5;" width="15" x="204" y="32.9531"/><rect fill="#FFFAF0" height="2" style="stroke: #000000; stroke-width: 1.5;" width="4" x="202" y="34.9531"/><rect fill="#FFFAF0" height="2" style="stroke: #000000; stroke-width: 1.5;" width="4" x="202" y="38.9531"/><text fill="#000000" font-family="sans-serif" font-size="14" lengthAdjust="spacingAndGlyphs" textLength="77" x="122" y="60.9482">Dashboard</text><!--MD5=[91935b7652ee4fab4148391a7b11bd92]
entity _6--><rect fill="#FFFAF0" filter="url(#fnnr2equ243gh)" height="46.2969" style="stroke: #000000; stroke-width: 1.5;" width="88" x="568.5" y="27.9531"/><rect fill="#FFFAF0" height="10" style="stroke: #000000; stroke-width: 1.5;" width="15" x="636.5" y="32.9531"/><rect fill="#FFFAF0" height="2" style="stroke: #000000; stroke-width: 1.5;" width="4" x="634.5" y="34.9531"/><rect fill="#FFFAF0" height="2" style="stroke: #000000; stroke-width: 1.5;" width="4" x="634.5" y="38.9531"/><text fill="#000000" font-family="sans-serif" font-size="14" lengthAdjust="spacingAndGlyphs" textLength="48" x="583.5" y="60.9482">Mobile</text><!--MD5=[298d702d1872fc728c85faa77d789d69]
entity _7--><rect fill="#FFFAF0" filter="url(#fnnr2equ243gh)" height="46.2969" style="stroke: #000000; stroke-width: 1.5;" width="143" x="456" y="133.9531"/><rect fill="#FFFAF0" height="10" style="stroke: #000000; stroke-width: 1.5;" width="15" x="579" y="138.9531"/><rect fill="#FFFAF0" height="2" style="stroke: #000000; stroke-width: 1.5;" width="4" x="577" y="140.9531"/><rect fill="#FFFAF0" height="2" style="stroke: #000000; stroke-width: 1.5;" width="4" x="577" y="144.9531"/><text fill="#000000" font-family="sans-serif" font-size="14" lengthAdjust="spacingAndGlyphs" textLength="103" x="471" y="166.9482">ProductServer</text><!--MD5=[44fe721b4d4a777d892a0da9deb1717d]
entity _8--><rect fill="#FFFAF0" filter="url(#fnnr2equ243gh)" height="46.2969" style="stroke: #000000; stroke-width: 1.5;" width="128" x="634.5" y="133.9531"/><rect fill="#FFFAF0" height="10" style="stroke: #000000; stroke-width: 1.5;" width="15" x="742.5" y="138.9531"/><rect fill="#FFFAF0" height="2" style="stroke: #000000; stroke-width: 1.5;" width="4" x="740.5" y="140.9531"/><rect fill="#FFFAF0" height="2" style="stroke: #000000; stroke-width: 1.5;" width="4" x="740.5" y="144.9531"/><text fill="#000000" font-family="sans-serif" font-size="14" lengthAdjust="spacingAndGlyphs" textLength="88" x="649.5" y="166.9482">OrderServer</text><!--MD5=[11856a0957c24329d384e205f38b26b0]
entity _9--><rect fill="#FFFAF0" filter="url(#fnnr2equ243gh)" height="46.2969" style="stroke: #000000; stroke-width: 1.5;" width="100" x="323.5" y="27.9531"/><rect fill="#FFFAF0" height="10" style="stroke: #000000; stroke-width: 1.5;" width="15" x="403.5" y="32.9531"/><rect fill="#FFFAF0" height="2" style="stroke: #000000; stroke-width: 1.5;" width="4" x="401.5" y="34.9531"/><rect fill="#FFFAF0" height="2" style="stroke: #000000; stroke-width: 1.5;" width="4" x="401.5" y="38.9531"/><text fill="#000000" font-family="sans-serif" font-size="14" lengthAdjust="spacingAndGlyphs" textLength="60" x="338.5" y="60.9482">Website</text><!--MD5=[b84326987e98dcb917912705a3ef9c62]
link _0 to _1--><path d="M348.5,180.0091 C348.5,196.0034 348.5,217.7316 348.5,234.7949 " fill="none" id="_0-&gt;_1" style="stroke: #DC143C; stroke-width: 1.0;"/><polygon fill="#DC143C" points="348.5,239.9292,352.5,230.9292,348.5,234.9292,344.5,230.9292,348.5,239.9292" style="stroke: #DC143C; stroke-width: 1.0;"/><!--MD5=[d99ac6ad79726fc9199b9f217ddce05c]
link _2 to _3--><path d="M139.203,180.0091 C119.475,196.5549 92.4309,219.2369 71.7966,236.543 " fill="none" id="_2-&gt;_3" style="stroke: #DC143C; stroke-width: 1.0;"/><polygon fill="#DC143C" points="67.7593,239.9292,77.2255,237.2104,71.5902,236.7161,72.0845,231.0809,67.7593,239.9292" style="stroke: #DC143C; stroke-width: 1.0;"/><!--MD5=[7147dd2715d95ef75e19400737a46bd1]
link _2 to _4--><path d="M166.985,180.0091 C168.061,196.0034 169.524,217.7316 170.672,234.7949 " fill="none" id="_2-&gt;_4" style="stroke: #DC143C; stroke-width: 1.0;"/><polygon fill="#DC143C" points="171.018,239.9292,174.4044,230.6809,170.6821,234.9405,166.4225,231.2182,171.018,239.9292" style="stroke: #DC143C; stroke-width: 1.0;"/><!--MD5=[c7fbdd7d994d101b2f2fa3a54a2c78c1]
link _5 to _2--><path d="M165.5,74.0091 C165.5,90.0031 165.5,111.7311 165.5,128.7951 " fill="none" id="_5-&gt;_2" style="stroke: #DC143C; stroke-width: 1.0;"/><polygon fill="#DC143C" points="165.5,133.9291,169.5,124.9291,165.5,128.9291,161.5,124.9291,165.5,133.9291" style="stroke: #DC143C; stroke-width: 1.0;"/><!--MD5=[a95ccebab27d805ca2570b1585a03a39]
link _6 to _7--><path d="M594.474,74.0091 C581.176,90.2791 563.029,112.4821 548.979,129.6731 " fill="none" id="_6-&gt;_7" style="stroke: #DC143C; stroke-width: 1.0;"/><polygon fill="#DC143C" points="545.5,133.9291,554.2927,129.492,548.6642,130.0577,548.0985,124.4293,545.5,133.9291" style="stroke: #DC143C; stroke-width: 1.0;"/><!--MD5=[b98b025d6c536a7f26cfa45310a3f1f3]
link _6 to _8--><path d="M630.738,74.0091 C644.193,90.2791 662.553,112.4821 676.769,129.6731 " fill="none" id="_6-&gt;_8" style="stroke: #DC143C; stroke-width: 1.0;"/><polygon fill="#DC143C" points="680.288,133.9291,677.6356,124.4441,677.1019,130.0758,671.4702,129.542,680.288,133.9291" style="stroke: #DC143C; stroke-width: 1.0;"/><!--MD5=[c6fa416527323d829d6b3db489aca473]
link _9 to _0--><path d="M368.198,74.0091 C364.353,90.0031 359.13,111.7311 355.028,128.7951 " fill="none" id="_9-&gt;_0" style="stroke: #DC143C; stroke-width: 1.0;"/><polygon fill="#DC143C" points="353.794,133.9291,359.7867,126.1133,354.9626,129.0676,352.0083,124.2435,353.794,133.9291" style="stroke: #DC143C; stroke-width: 1.0;"/><!--MD5=[980e23bd63edb9ba29c096c13c23f6fb]
link _9 to _7--><path d="M406.159,74.0091 C430.865,90.6931 464.808,113.6151 490.513,130.9741 " fill="none" id="_9-&gt;_7" style="stroke: #DC143C; stroke-width: 1.0;"/><polygon fill="#DC143C" points="494.888,133.9291,489.6659,125.5787,490.7436,131.1319,485.1904,132.2097,494.888,133.9291" style="stroke: #DC143C; stroke-width: 1.0;"/><!--MD5=[c6701b45e5593f743f3ddfb627fefd79]
link _9 to _8--><path d="M423.569,67.9751 C478.753,85.6341 567.868,114.1511 629.615,133.9101 " fill="none" id="_9-&gt;_8" style="stroke: #DC143C; stroke-width: 1.0;"/><polygon fill="#DC143C" points="634.384,135.4361,627.0315,128.8832,629.6219,133.9121,624.593,136.5025,634.384,135.4361" style="stroke: #DC143C; stroke-width: 1.0;"/><!--MD5=[bb46c9f7d99067d64878dac6db102a12]
link _9 to _2--><path d="M329.389,74.0091 C295.607,90.9001 249.037,114.1851 214.171,131.6171 " fill="none" id="_9-&gt;_2" style="stroke: #DC143C; stroke-width: 1.0;"/><polygon fill="#DC143C" points="209.548,133.9291,219.3866,133.4794,214.0196,131.6919,215.807,126.3249,209.548,133.9291" style="stroke: #DC143C; stroke-width: 1.0;"/><!--MD5=[d4f716b76712395b4d68683208d9b7f0]
@startuml
''''''''''''''''''''''''''''''''''''''''''
''                                      ''
''  AUTOGENERATED CODE - - DO NOT EDIT!  ''
''                                      ''
''''''''''''''''''''''''''''''''''''''''''


title Backend
hide stereotype
scale max 16384 height
skinparam component {
  BackgroundColor FloralWhite
  BorderColor Black
  ArrowColor Crimson
}
[IdentityServer] as _0 <<highlight>>
[MegaDatabase] as _1 <<highlight>>
_0 - -> _1
[PaymentServer] as _2 <<highlight>>
[Visa] as _3
_2 - -> _3
[MasterCard] as _4
_2 - -> _4
[Dashboard] as _5
_5 - -> _2
[Mobile] as _6
[ProductServer] as _7 <<highlight>>
_6 - -> _7
[OrderServer] as _8 <<highlight>>
_6 - -> _8
[Website] as _9
_9 - -> _0
_9 - -> _7
_9 - -> _8
_9 - -> _2
@enduml

@startuml


title Backend
hide stereotype
scale max 16384 height
skinparam component {
  BackgroundColor FloralWhite
  BorderColor Black
  ArrowColor Crimson
}
[IdentityServer] as _0 <<highlight>>
[MegaDatabase] as _1 <<highlight>>
_0 - -> _1
[PaymentServer] as _2 <<highlight>>
[Visa] as _3
_2 - -> _3
[MasterCard] as _4
_2 - -> _4
[Dashboard] as _5
_5 - -> _2
[Mobile] as _6
[ProductServer] as _7 <<highlight>>
_6 - -> _7
[OrderServer] as _8 <<highlight>>
_6 - -> _8
[Website] as _9
_9 - -> _0
_9 - -> _7
_9 - -> _8
_9 - -> _2
@enduml

PlantUML version 1.2020.16beta7(Unknown compile time)
(GPL source distribution)
Java Runtime: Java(TM) SE Runtime Environment
JVM: Java HotSpot(TM) 64-Bit Server VM
Default Encoding: UTF-8
Language: en
Country: US
--></g></svg>