<?xml version="1.0" encoding="UTF-8" standalone="no"?><svg xmlns="http://www.w3.org/2000/svg" xmlns:xlink="http://www.w3.org/1999/xlink" contentScriptType="application/ecmascript" contentStyleType="text/css" height="305px" preserveAspectRatio="none" style="width:757px;height:305px;" version="1.1" viewBox="0 0 757 305" width="757px" zoomAndPan="magnify"><defs><filter height="300%" id="fnnr2equ243gh" width="300%" x="-1" y="-1"><feGaussianBlur result="blurOut" stdDeviation="2.0"/><feColorMatrix in="blurOut" result="blurOut2" type="matrix" values="0 0 0 0 0 0 0 0 0 0 0 0 0 0 0 0 0 0 .4 0"/><feOffset dx="4.0" dy="4.0" in="blurOut2" result="blurOut3"/><feBlend in="SourceGraphic" in2="blurOut3" mode="normal"/></filter></defs><g><text fill="#000000" font-family="sans-serif" font-size="18" lengthAdjust="spacingAndGlyphs" textLength="74" x="332.75" y="16.708">Backend</text><!--MD5=[834ef74a6aa73a899f9de7987f49a674]
entity _0--><rect fill="#FFFAF0" filter="url(#fnnr2equ243gh)" height="46.2969" style="stroke: #000000; stroke-width: 1.5;" width="134" x="273" y="133.9531"/><rect fill="#FFFAF0" height="10" style="stroke: #000000; stroke-width: 1.5;" width="15" x="387" y="138.9531"/><rect fill="#FFFAF0" height="2" style="stroke: #000000; stroke-width: 1.5;" width="4" x="385" y="140.9531"/><rect fill="#FFFAF0" height="2" style="stroke: #000000; stroke-width: 1.5;" width="4" x="385" y="144.9531"/><text fill="#000000" font-family="sans-serif" font-size="14" lengthAdjust="spacingAndGlyphs" textLength="94" x="288" y="166.9482">IdentityServer</text><!--MD5=[5793e68b51480d2da18d2edf8802f392]
entity _1--><rect fill="#FFFAF0" filter="url(#fnnr2equ243gh)" height="46.2969" style="stroke: #000000; stroke-width: 1.5;" width="144" x="268" y="239.9531"/><rect fill="#FFFAF0" height="10" style="stroke: #000000; stroke-width: 1.5;" width="15" x="392" y="244.9531"/><rect fill="#FFFAF0" height="2" style="stroke: #000000; stroke-width: 1.5;" width="4" x="390" y="246.9531"/><rect fill="#FFFAF0" height="2" style="stroke: #000000; stroke-width: 1.5;" width="4" x="390" y="250.9531"/><text fill="#000000" font-family="sans-serif" font-size="14" lengthAdjust="spacingAndGlyphs" textLength="104" x="283" y="272.9482">MegaDatabase</text><!--MD5=[fc69c2ef26418c6b4957312aae07cc91]
entity _2--><rect fill="#FFFAF0" filter="url(#fnnr2equ243gh)" height="46.2969" style="stroke: #000000; stroke-width: 1.5;" width="144" x="94" y="133.9531"/><rect fill="#FFFAF0" height="10" style="stroke: #000000; stroke-width: 1.5;" width="15" x="218" y="138.9531"/><rect fill="#FFFAF0" height="2" style="stroke: #000000; stroke-width: 1.5;" width="4" x="216" y="140.9531"/><rect fill="#FFFAF0" height="2" style="stroke: #000000; stroke-width: 1.5;" width="4" x="216" y="144.9531"/><text fill="#000000" font-family="sans-serif" font-size="14" lengthAdjust="spacingAndGlyphs" textLength="104" x="109" y="166.9482">PaymentServer</text><!--MD5=[491502b257624c25ed563d7bf73ae0a0]
entity _3--><rect fill="#FFFAF0" filter="url(#fnnr2equ243gh)" height="46.2969" style="stroke: #000000; stroke-width: 1.5;" width="68" x="7" y="239.9531"/><rect fill="#FFFAF0" height="10" style="stroke: #000000; stroke-width: 1.5;" width="15" x="55" y="244.9531"/><rect fill="#FFFAF0" height="2" style="stroke: #000000; stroke-width: 1.5;" width="4" x="53" y="246.9531"/><rect fill="#FFFAF0" height="2" style="stroke: #000000; stroke-width: 1.5;" width="4" x="53" y="250.9531"/><text fill="#000000" font-family="sans-serif" font-size="14" lengthAdjust="spacingAndGlyphs" textLength="28" x="22" y="272.9482">Visa</text><!--MD5=[e10aba13bcd25b8e2f2c6ecd09c6015a]
entity _4--><rect fill="#FFFAF0" filter="url(#fnnr2equ243gh)" height="46.2969" style="stroke: #000000; stroke-width: 1.5;" width="119" x="110.5" y="239.9531"/><rect fill="#FFFAF0" height="10" style="stroke: #000000; stroke-width: 1.5;" width="15" x="209.5" y="244.9531"/><rect fill="#FFFAF0" height="2" style="stroke: #000000; stroke-width: 1.5;" width="4" x="207.5" y="246.9531"/><rect fill="#FFFAF0" height="2" style="stroke: #000000; stroke-width: 1.5;" width="4" x="207.5" y="250.9531"/><text fill="#000000" font-family="sans-serif" font-size="14" lengthAdjust="spacingAndGlyphs" textLength="79" x="125.5" y="272.9482">MasterCard</text><!--MD5=[9e283554f6c225a5c09d9b9f4b518823]
entity _5--><rect fill="#FFFAF0" filter="url(#fnnr2equ243gh)" height="46.2969" style="stroke: #000000; stroke-width: 1.5;" width="116" x="108" y="27.9531"/><rect fill="#FFFAF0" height="10" style="stroke: #000000; stroke-width: 1.5;" width="15" x="204" y="32.9531"/><rect fill="#FFFAF0" height="2" style="stroke: #000000; stroke-width: 1.5;" width="4" x="202" y="34.9531"/><rect fill="#FFFAF0" height="2" style="stroke: #000000; stroke-width: 1.5;" width="4" x="202" y="38.9531"/><text fill="#000000" font-family="sans-serif" font-size="14" lengthAdjust="spacingAndGlyphs" textLength="76" x="123" y="60.9482">Dashboard</text><!--MD5=[91935b7652ee4fab4148391a7b11bd92]
entity _6--><rect fill="#FFFAF0" filter="url(#fnnr2equ243gh)" height="46.2969" style="stroke: #000000; stroke-width: 1.5;" width="85" x="551.5" y="27.9531"/><rect fill="#FFFAF0" height="10" style="stroke: #000000; stroke-width: 1.5;" width="15" x="616.5" y="32.9531"/><rect fill="#FFFAF0" height="2" style="stroke: #000000; stroke-width: 1.5;" width="4" x="614.5" y="34.9531"/><rect fill="#FFFAF0" height="2" style="stroke: #000000; stroke-width: 1.5;" width="4" x="614.5" y="38.9531"/><text fill="#000000" font-family="sans-serif" font-size="14" lengthAdjust="spacingAndGlyphs" textLength="45" x="566.5" y="60.9482">Mobile</text><!--MD5=[298d702d1872fc728c85faa77d789d69]
entity _7--><rect fill="#FFFAF0" filter="url(#fnnr2equ243gh)" height="46.2969" style="stroke: #000000; stroke-width: 1.5;" width="138" x="442" y="133.9531"/><rect fill="#FFFAF0" height="10" style="stroke: #000000; stroke-width: 1.5;" width="15" x="560" y="138.9531"/><rect fill="#FFFAF0" height="2" style="stroke: #000000; stroke-width: 1.5;" width="4" x="558" y="140.9531"/><rect fill="#FFFAF0" height="2" style="stroke: #000000; stroke-width: 1.5;" width="4" x="558" y="144.9531"/><text fill="#000000" font-family="sans-serif" font-size="14" lengthAdjust="spacingAndGlyphs" textLength="98" x="457" y="166.9482">ProductServer</text><!--MD5=[44fe721b4d4a777d892a0da9deb1717d]
entity _8--><rect fill="#FFFAF0" filter="url(#fnnr2equ243gh)" height="46.2969" style="stroke: #000000; stroke-width: 1.5;" width="123" x="615.5" y="133.9531"/><rect fill="#FFFAF0" height="10" style="stroke: #000000; stroke-width: 1.5;" width="15" x="718.5" y="138.9531"/><rect fill="#FFFAF0" height="2" style="stroke: #000000; stroke-width: 1.5;" width="4" x="716.5" y="140.9531"/><rect fill="#FFFAF0" height="2" style="stroke: #000000; stroke-width: 1.5;" width="4" x="716.5" y="144.9531"/><text fill="#000000" font-family="sans-serif" font-size="14" lengthAdjust="spacingAndGlyphs" textLength="83" x="630.5" y="166.9482">OrderServer</text><!--MD5=[11856a0957c24329d384e205f38b26b0]
entity _9--><rect fill="#FFFAF0" filter="url(#fnnr2equ243gh)" height="46.2969" style="stroke: #000000; stroke-width: 1.5;" width="96" x="314" y="27.9531"/><rect fill="#FFFAF0" height="10" style="stroke: #000000; stroke-width: 1.5;" width="15" x="390" y="32.9531"/><rect fill="#FFFAF0" height="2" style="stroke: #000000; stroke-width: 1.5;" width="4" x="388" y="34.9531"/><rect fill="#FFFAF0" height="2" style="stroke: #000000; stroke-width: 1.5;" width="4" x="388" y="38.9531"/><text fill="#000000" font-family="sans-serif" font-size="14" lengthAdjust="spacingAndGlyphs" textLength="56" x="329" y="60.9482">Website</text><!--MD5=[b84326987e98dcb917912705a3ef9c62]
link _0 to _1--><path d="M340,179.9535 C340,195.9561 340,217.3992 340,234.4811 " fill="none" id="_0-&gt;_1" style="stroke: #DC143C; stroke-width: 1.0;"/><polygon fill="#DC143C" points="340,239.6315,344,230.6315,340,234.6315,336,230.6315,340,239.6315" style="stroke: #DC143C; stroke-width: 1.0;"/><!--MD5=[d99ac6ad79726fc9199b9f217ddce05c]
link _2 to _3--><path d="M138.8769,179.9535 C119.3552,196.5079 92.9677,218.8845 72.5105,236.2322 " fill="none" id="_2-&gt;_3" style="stroke: #DC143C; stroke-width: 1.0;"/><polygon fill="#DC143C" points="68.5019,239.6315,77.9531,236.8613,72.3153,236.3977,72.779,230.7599,68.5019,239.6315" style="stroke: #DC143C; stroke-width: 1.0;"/><!--MD5=[7147dd2715d95ef75e19400737a46bd1]
link _2 to _4--><path d="M166.8679,179.9535 C167.4718,195.9561 168.281,217.3992 168.9256,234.4811 " fill="none" id="_2-&gt;_4" style="stroke: #DC143C; stroke-width: 1.0;"/><polygon fill="#DC143C" points="169.1199,239.6315,172.7776,230.4871,168.9313,234.6351,164.7833,230.7888,169.1199,239.6315" style="stroke: #DC143C; stroke-width: 1.0;"/><!--MD5=[c7fbdd7d994d101b2f2fa3a54a2c78c1]
link _5 to _2--><path d="M166,73.9535 C166,89.9561 166,111.3992 166,128.4811 " fill="none" id="_5-&gt;_2" style="stroke: #DC143C; stroke-width: 1.0;"/><polygon fill="#DC143C" points="166,133.6315,170,124.6315,166,128.6315,162,124.6315,166,133.6315" style="stroke: #DC143C; stroke-width: 1.0;"/><!--MD5=[a95ccebab27d805ca2570b1585a03a39]
link _6 to _7--><path d="M575.9902,73.9535 C563.2439,90.232 546.0893,112.1402 532.6054,129.3607 " fill="none" id="_6-&gt;_7" style="stroke: #DC143C; stroke-width: 1.0;"/><polygon fill="#DC143C" points="529.2612,133.6315,537.9591,129.0113,532.3437,129.6948,531.6603,124.0793,529.2612,133.6315" style="stroke: #DC143C; stroke-width: 1.0;"/><!--MD5=[b98b025d6c536a7f26cfa45310a3f1f3]
link _6 to _8--><path d="M612.0098,73.9535 C624.7561,90.232 641.9107,112.1402 655.3946,129.3607 " fill="none" id="_6-&gt;_8" style="stroke: #DC143C; stroke-width: 1.0;"/><polygon fill="#DC143C" points="658.7388,133.6315,656.3397,124.0793,655.6563,129.6948,650.0409,129.0113,658.7388,133.6315" style="stroke: #DC143C; stroke-width: 1.0;"/><!--MD5=[c6fa416527323d829d6b3db489aca473]
link _9 to _0--><path d="M357.2263,73.9535 C353.905,89.9561 349.4546,111.3992 345.9093,128.4811 " fill="none" id="_9-&gt;_0" style="stroke: #DC143C; stroke-width: 1.0;"/><polygon fill="#DC143C" points="344.8403,133.6315,350.5859,125.6322,345.8564,128.7359,342.7528,124.0064,344.8403,133.6315" style="stroke: #DC143C; stroke-width: 1.0;"/><!--MD5=[980e23bd63edb9ba29c096c13c23f6fb]
link _9 to _7--><path d="M394.3308,73.9535 C417.8754,90.7034 449.7986,113.4138 474.3005,130.8448 " fill="none" id="_9-&gt;_7" style="stroke: #DC143C; stroke-width: 1.0;"/><polygon fill="#DC143C" points="478.4754,133.8148,473.4605,125.3383,474.4012,130.9164,468.8231,131.8571,478.4754,133.8148" style="stroke: #DC143C; stroke-width: 1.0;"/><!--MD5=[c6701b45e5593f743f3ddfb627fefd79]
link _9 to _8--><path d="M410.1846,67.1676 C463.6595,85.1623 550.3093,114.3207 610.2868,134.5036 " fill="none" id="_9-&gt;_8" style="stroke: #DC143C; stroke-width: 1.0;"/><polygon fill="#DC143C" points="615.2805,136.184,608.0263,129.5224,610.5416,134.5893,605.4748,137.1046,615.2805,136.184" style="stroke: #DC143C; stroke-width: 1.0;"/><!--MD5=[bb46c9f7d99067d64878dac6db102a12]
link _9 to _2--><path d="M319.4709,73.9535 C288.2435,90.8418 245.8117,113.7896 213.4787,131.2758 " fill="none" id="_9-&gt;_2" style="stroke: #DC143C; stroke-width: 1.0;"/><polygon fill="#DC143C" points="208.7841,133.8148,218.6034,133.0518,213.1821,131.4363,214.7976,126.015,208.7841,133.8148" style="stroke: #DC143C; stroke-width: 1.0;"/><!--MD5=[7eafeb03223c5b595d99522e3e17c196]
@startuml
''''''''''''''''''''''''''''''''''''''''''
''                                      ''
''  AUTOGENERATED CODE - - DO NOT EDIT!  ''
''                                      ''
''''''''''''''''''''''''''''''''''''''''''


title Backend
hide stereotype
scale max 16384 height
skinparam component {
  BackgroundColor FloralWhite
  BorderColor Black
  ArrowColor Crimson
}
[IdentityServer] as _0 <<highlight>>
[MegaDatabase] as _1 <<highlight>>
_0 - -> _1
[PaymentServer] as _2 <<highlight>>
[Visa] as _3
_2 - -> _3
[MasterCard] as _4
_2 - -> _4
[Dashboard] as _5
_5 - -> _2
[Mobile] as _6
[ProductServer] as _7 <<highlight>>
_6 - -> _7
[OrderServer] as _8 <<highlight>>
_6 - -> _8
[Website] as _9
_9 - -> _0
_9 - -> _7
_9 - -> _8
_9 - -> _2
@enduml

@startuml


title Backend
hide stereotype
scale max 16384 height
skinparam component {
  BackgroundColor FloralWhite
  BorderColor Black
  ArrowColor Crimson
}
[IdentityServer] as _0 <<highlight>>
[MegaDatabase] as _1 <<highlight>>
_0 - -> _1
[PaymentServer] as _2 <<highlight>>
[Visa] as _3
_2 - -> _3
[MasterCard] as _4
_2 - -> _4
[Dashboard] as _5
_5 - -> _2
[Mobile] as _6
[ProductServer] as _7 <<highlight>>
_6 - -> _7
[OrderServer] as _8 <<highlight>>
_6 - -> _8
[Website] as _9
_9 - -> _0
_9 - -> _7
_9 - -> _8
_9 - -> _2
@enduml

PlantUML version 1.2020.15(Sun Jun 28 11:39:45 UTC 2020)
(GPL source distribution)
Java Runtime: OpenJDK Runtime Environment
JVM: OpenJDK 64-Bit Server VM
Default Encoding: UTF-8
Language: en
Country: null
--></g></svg>