<?xml version="1.0" encoding="UTF-8" standalone="no"?><svg xmlns="http://www.w3.org/2000/svg" xmlns:xlink="http://www.w3.org/1999/xlink" contentScriptType="application/ecmascript" contentStyleType="text/css" height="305px" preserveAspectRatio="none" style="width:795px;height:305px;" version="1.1" viewBox="0 0 795 305" width="795px" zoomAndPan="magnify"><defs><filter height="300%" id="fp10dklntd4ha" width="300%" x="-1" y="-1"><feGaussianBlur result="blurOut" stdDeviation="2.0"/><feColorMatrix in="blurOut" result="blurOut2" type="matrix" values="0 0 0 0 0 0 0 0 0 0 0 0 0 0 0 0 0 0 .4 0"/><feOffset dx="4.0" dy="4.0" in="blurOut2" result="blurOut3"/><feBlend in="SourceGraphic" in2="blurOut3" mode="normal"/></filter></defs><g><text fill="#000000" font-family="sans-serif" font-size="18" lengthAdjust="spacingAndGlyphs" textLength="78" x="349.5" y="16.708">Backend</text><!--MD5=[834ef74a6aa73a899f9de7987f49a674]
entity _0--><rect fill="#FFFAF0" filter="url(#fp10dklntd4ha)" height="46.2969" style="stroke: #000000; stroke-width: 1.5;" width="151" x="103.5" y="133.9531"/><rect fill="#FFFAF0" height="10" style="stroke: #000000; stroke-width: 1.5;" width="15" x="234.5" y="138.9531"/><rect fill="#FFFAF0" height="2" style="stroke: #000000; stroke-width: 1.5;" width="4" x="232.5" y="140.9531"/><rect fill="#FFFAF0" height="2" style="stroke: #000000; stroke-width: 1.5;" width="4" x="232.5" y="144.9531"/><text fill="#000000" font-family="sans-serif" font-size="14" lengthAdjust="spacingAndGlyphs" textLength="111" x="118.5" y="166.9482">PaymentServer</text><!--MD5=[5793e68b51480d2da18d2edf8802f392]
entity _1--><rect fill="#FFFAF0" filter="url(#fp10dklntd4ha)" height="46.2969" style="stroke: #000000; stroke-width: 1.5;" width="69" x="164.5" y="239.9531"/><rect fill="#FFFAF0" height="10" style="stroke: #000000; stroke-width: 1.5;" width="15" x="213.5" y="244.9531"/><rect fill="#FFFAF0" height="2" style="stroke: #000000; stroke-width: 1.5;" width="4" x="211.5" y="246.9531"/><rect fill="#FFFAF0" height="2" style="stroke: #000000; stroke-width: 1.5;" width="4" x="211.5" y="250.9531"/><text fill="#000000" font-family="sans-serif" font-size="14" lengthAdjust="spacingAndGlyphs" textLength="29" x="179.5" y="272.9482">Visa</text><!--MD5=[fc69c2ef26418c6b4957312aae07cc91]
entity _2--><rect fill="#FFFAF0" filter="url(#fp10dklntd4ha)" height="46.2969" style="stroke: #000000; stroke-width: 1.5;" width="122" x="7" y="239.9531"/><rect fill="#FFFAF0" height="10" style="stroke: #000000; stroke-width: 1.5;" width="15" x="109" y="244.9531"/><rect fill="#FFFAF0" height="2" style="stroke: #000000; stroke-width: 1.5;" width="4" x="107" y="246.9531"/><rect fill="#FFFAF0" height="2" style="stroke: #000000; stroke-width: 1.5;" width="4" x="107" y="250.9531"/><text fill="#000000" font-family="sans-serif" font-size="14" lengthAdjust="spacingAndGlyphs" textLength="82" x="22" y="272.9482">MasterCard</text><!--MD5=[491502b257624c25ed563d7bf73ae0a0]
entity _3--><rect fill="#FFFAF0" filter="url(#fp10dklntd4ha)" height="46.2969" style="stroke: #000000; stroke-width: 1.5;" width="144" x="290" y="133.9531"/><rect fill="#FFFAF0" height="10" style="stroke: #000000; stroke-width: 1.5;" width="15" x="414" y="138.9531"/><rect fill="#FFFAF0" height="2" style="stroke: #000000; stroke-width: 1.5;" width="4" x="412" y="140.9531"/><rect fill="#FFFAF0" height="2" style="stroke: #000000; stroke-width: 1.5;" width="4" x="412" y="144.9531"/><text fill="#000000" font-family="sans-serif" font-size="14" lengthAdjust="spacingAndGlyphs" textLength="104" x="305" y="166.9482">IdentityServer</text><!--MD5=[e10aba13bcd25b8e2f2c6ecd09c6015a]
entity _4--><rect fill="#FFFAF0" filter="url(#fp10dklntd4ha)" height="46.2969" style="stroke: #000000; stroke-width: 1.5;" width="146" x="289" y="239.9531"/><rect fill="#FFFAF0" height="10" style="stroke: #000000; stroke-width: 1.5;" width="15" x="415" y="244.9531"/><rect fill="#FFFAF0" height="2" style="stroke: #000000; stroke-width: 1.5;" width="4" x="413" y="246.9531"/><rect fill="#FFFAF0" height="2" style="stroke: #000000; stroke-width: 1.5;" width="4" x="413" y="250.9531"/><text fill="#000000" font-family="sans-serif" font-size="14" lengthAdjust="spacingAndGlyphs" textLength="106" x="304" y="272.9482">MegaDatabase</text><!--MD5=[9e283554f6c225a5c09d9b9f4b518823]
entity _5--><rect fill="#FFFAF0" filter="url(#fp10dklntd4ha)" height="46.2969" style="stroke: #000000; stroke-width: 1.5;" width="117" x="120.5" y="27.9531"/><rect fill="#FFFAF0" height="10" style="stroke: #000000; stroke-width: 1.5;" width="15" x="217.5" y="32.9531"/><rect fill="#FFFAF0" height="2" style="stroke: #000000; stroke-width: 1.5;" width="4" x="215.5" y="34.9531"/><rect fill="#FFFAF0" height="2" style="stroke: #000000; stroke-width: 1.5;" width="4" x="215.5" y="38.9531"/><text fill="#000000" font-family="sans-serif" font-size="14" lengthAdjust="spacingAndGlyphs" textLength="77" x="135.5" y="60.9482">Dashboard</text><!--MD5=[91935b7652ee4fab4148391a7b11bd92]
entity _6--><rect fill="#FFFAF0" filter="url(#fp10dklntd4ha)" height="46.2969" style="stroke: #000000; stroke-width: 1.5;" width="88" x="582" y="27.9531"/><rect fill="#FFFAF0" height="10" style="stroke: #000000; stroke-width: 1.5;" width="15" x="650" y="32.9531"/><rect fill="#FFFAF0" height="2" style="stroke: #000000; stroke-width: 1.5;" width="4" x="648" y="34.9531"/><rect fill="#FFFAF0" height="2" style="stroke: #000000; stroke-width: 1.5;" width="4" x="648" y="38.9531"/><text fill="#000000" font-family="sans-serif" font-size="14" lengthAdjust="spacingAndGlyphs" textLength="48" x="597" y="60.9482">Mobile</text><!--MD5=[298d702d1872fc728c85faa77d789d69]
entity _7--><rect fill="#FFFAF0" filter="url(#fp10dklntd4ha)" height="46.2969" style="stroke: #000000; stroke-width: 1.5;" width="143" x="469.5" y="133.9531"/><rect fill="#FFFAF0" height="10" style="stroke: #000000; stroke-width: 1.5;" width="15" x="592.5" y="138.9531"/><rect fill="#FFFAF0" height="2" style="stroke: #000000; stroke-width: 1.5;" width="4" x="590.5" y="140.9531"/><rect fill="#FFFAF0" height="2" style="stroke: #000000; stroke-width: 1.5;" width="4" x="590.5" y="144.9531"/><text fill="#000000" font-family="sans-serif" font-size="14" lengthAdjust="spacingAndGlyphs" textLength="103" x="484.5" y="166.9482">ProductServer</text><!--MD5=[44fe721b4d4a777d892a0da9deb1717d]
entity _8--><rect fill="#FFFAF0" filter="url(#fp10dklntd4ha)" height="46.2969" style="stroke: #000000; stroke-width: 1.5;" width="128" x="648" y="133.9531"/><rect fill="#FFFAF0" height="10" style="stroke: #000000; stroke-width: 1.5;" width="15" x="756" y="138.9531"/><rect fill="#FFFAF0" height="2" style="stroke: #000000; stroke-width: 1.5;" width="4" x="754" y="140.9531"/><rect fill="#FFFAF0" height="2" style="stroke: #000000; stroke-width: 1.5;" width="4" x="754" y="144.9531"/><text fill="#000000" font-family="sans-serif" font-size="14" lengthAdjust="spacingAndGlyphs" textLength="88" x="663" y="166.9482">OrderServer</text><!--MD5=[11856a0957c24329d384e205f38b26b0]
entity _9--><rect fill="#FFFAF0" filter="url(#fp10dklntd4ha)" height="46.2969" style="stroke: #000000; stroke-width: 1.5;" width="100" x="337" y="27.9531"/><rect fill="#FFFAF0" height="10" style="stroke: #000000; stroke-width: 1.5;" width="15" x="417" y="32.9531"/><rect fill="#FFFAF0" height="2" style="stroke: #000000; stroke-width: 1.5;" width="4" x="415" y="34.9531"/><rect fill="#FFFAF0" height="2" style="stroke: #000000; stroke-width: 1.5;" width="4" x="415" y="38.9531"/><text fill="#000000" font-family="sans-serif" font-size="14" lengthAdjust="spacingAndGlyphs" textLength="60" x="352" y="60.9482">Website</text><!--MD5=[b84326987e98dcb917912705a3ef9c62]
link _0 to _1--><path d="M183.241,180.0091 C186.317,196.0034 190.496,217.7316 193.777,234.7949 " fill="none" id="_0-&gt;_1" style="stroke: #DC143C; stroke-width: 1.0;"/><polygon fill="#DC143C" points="194.765,239.9292,196.9933,230.3358,193.8207,235.0192,189.1373,231.8466,194.765,239.9292" style="stroke: #DC143C; stroke-width: 1.0;"/><!--MD5=[0fa3c531946f58762b8ab90cbdfa2c60]
link _0 to _2--><path d="M155.46,180.0091 C137.947,196.417 113.994,218.8593 95.5833,236.1093 " fill="none" id="_0-&gt;_2" style="stroke: #DC143C; stroke-width: 1.0;"/><polygon fill="#DC143C" points="91.5063,239.9292,100.8088,236.6946,95.155,236.5106,95.339,230.8567,91.5063,239.9292" style="stroke: #DC143C; stroke-width: 1.0;"/><!--MD5=[93ef791431a7b6117d678d1cd8d8ef27]
link _3 to _4--><path d="M362,180.0091 C362,196.0034 362,217.7316 362,234.7949 " fill="none" id="_3-&gt;_4" style="stroke: #DC143C; stroke-width: 1.0;"/><polygon fill="#DC143C" points="362,239.9292,366,230.9292,362,234.9292,358,230.9292,362,239.9292" style="stroke: #DC143C; stroke-width: 1.0;"/><!--MD5=[d4654c54feb3981cfc6680d91eccfd0c]
link _5 to _0--><path d="M179,74.0091 C179,90.0031 179,111.7311 179,128.7951 " fill="none" id="_5-&gt;_0" style="stroke: #DC143C; stroke-width: 1.0;"/><polygon fill="#DC143C" points="179,133.9291,183,124.9291,179,128.9291,175,124.9291,179,133.9291" style="stroke: #DC143C; stroke-width: 1.0;"/><!--MD5=[a95ccebab27d805ca2570b1585a03a39]
link _6 to _7--><path d="M607.974,74.0091 C594.676,90.2791 576.529,112.4821 562.479,129.6731 " fill="none" id="_6-&gt;_7" style="stroke: #DC143C; stroke-width: 1.0;"/><polygon fill="#DC143C" points="559,133.9291,567.7927,129.492,562.1642,130.0577,561.5985,124.4293,559,133.9291" style="stroke: #DC143C; stroke-width: 1.0;"/><!--MD5=[b98b025d6c536a7f26cfa45310a3f1f3]
link _6 to _8--><path d="M644.238,74.0091 C657.693,90.2791 676.053,112.4821 690.269,129.6731 " fill="none" id="_6-&gt;_8" style="stroke: #DC143C; stroke-width: 1.0;"/><polygon fill="#DC143C" points="693.788,133.9291,691.1356,124.4441,690.6019,130.0758,684.9702,129.542,693.788,133.9291" style="stroke: #DC143C; stroke-width: 1.0;"/><!--MD5=[ba6b2ddf8f73b79ebac92cf65f82987c]
link _9 to _3--><path d="M381.698,74.0091 C377.853,90.0031 372.63,111.7311 368.528,128.7951 " fill="none" id="_9-&gt;_3" style="stroke: #DC143C; stroke-width: 1.0;"/><polygon fill="#DC143C" points="367.294,133.9291,373.2867,126.1133,368.4626,129.0676,365.5083,124.2435,367.294,133.9291" style="stroke: #DC143C; stroke-width: 1.0;"/><!--MD5=[980e23bd63edb9ba29c096c13c23f6fb]
link _9 to _7--><path d="M419.659,74.0091 C444.365,90.6931 478.308,113.6151 504.013,130.9741 " fill="none" id="_9-&gt;_7" style="stroke: #DC143C; stroke-width: 1.0;"/><polygon fill="#DC143C" points="508.388,133.9291,503.1659,125.5787,504.2436,131.1319,498.6904,132.2097,508.388,133.9291" style="stroke: #DC143C; stroke-width: 1.0;"/><!--MD5=[c6701b45e5593f743f3ddfb627fefd79]
link _9 to _8--><path d="M437.069,67.9751 C492.253,85.6341 581.368,114.1511 643.115,133.9101 " fill="none" id="_9-&gt;_8" style="stroke: #DC143C; stroke-width: 1.0;"/><polygon fill="#DC143C" points="647.884,135.4361,640.5315,128.8832,643.1219,133.9121,638.093,136.5025,647.884,135.4361" style="stroke: #DC143C; stroke-width: 1.0;"/><!--MD5=[c6fa416527323d829d6b3db489aca473]
link _9 to _0--><path d="M342.889,74.0091 C309.107,90.9001 262.537,114.1851 227.671,131.6171 " fill="none" id="_9-&gt;_0" style="stroke: #DC143C; stroke-width: 1.0;"/><polygon fill="#DC143C" points="223.048,133.9291,232.8866,133.4794,227.5196,131.6919,229.307,126.3249,223.048,133.9291" style="stroke: #DC143C; stroke-width: 1.0;"/><!--MD5=[8e0102a73f6d6837d8e864dddf3c96b4]
@startuml
''''''''''''''''''''''''''''''''''''''''''
''                                      ''
''  AUTOGENERATED CODE - - DO NOT EDIT!  ''
''                                      ''
''''''''''''''''''''''''''''''''''''''''''


title Backend
hide stereotype
scale max 16384 height
skinparam component {
  BackgroundColor FloralWhite
  BorderColor Black
  ArrowColor Crimson
}
[PaymentServer] as _0 <<highlight>>
[Visa] as _1
_0 - -> _1
[MasterCard] as _2
_0 - -> _2
[IdentityServer] as _3 <<highlight>>
[MegaDatabase] as _4 <<highlight>>
_3 - -> _4
[Dashboard] as _5
_5 - -> _0
[Mobile] as _6
[ProductServer] as _7 <<highlight>>
_6 - -> _7
[OrderServer] as _8 <<highlight>>
_6 - -> _8
[Website] as _9
_9 - -> _3
_9 - -> _7
_9 - -> _8
_9 - -> _0
@enduml

@startuml


title Backend
hide stereotype
scale max 16384 height
skinparam component {
  BackgroundColor FloralWhite
  BorderColor Black
  ArrowColor Crimson
}
[PaymentServer] as _0 <<highlight>>
[Visa] as _1
_0 - -> _1
[MasterCard] as _2
_0 - -> _2
[IdentityServer] as _3 <<highlight>>
[MegaDatabase] as _4 <<highlight>>
_3 - -> _4
[Dashboard] as _5
_5 - -> _0
[Mobile] as _6
[ProductServer] as _7 <<highlight>>
_6 - -> _7
[OrderServer] as _8 <<highlight>>
_6 - -> _8
[Website] as _9
_9 - -> _3
_9 - -> _7
_9 - -> _8
_9 - -> _0
@enduml

PlantUML version 1.2020.16beta7(Unknown compile time)
(GPL source distribution)
Java Runtime: Java(TM) SE Runtime Environment
JVM: Java HotSpot(TM) 64-Bit Server VM
Default Encoding: UTF-8
Language: en
Country: US
--></g></svg>