<?xml version="1.0" encoding="UTF-8" standalone="no"?><svg xmlns="http://www.w3.org/2000/svg" xmlns:xlink="http://www.w3.org/1999/xlink" contentScriptType="application/ecmascript" contentStyleType="text/css" height="2122px" preserveAspectRatio="none" style="width:637px;height:2122px;" version="1.1" viewBox="0 0 637 2122" width="637px" zoomAndPan="magnify"><defs><filter height="300%" id="f1g3yzpvghzn9n" width="300%" x="-1" y="-1"><feGaussianBlur result="blurOut" stdDeviation="2.0"/><feColorMatrix in="blurOut" result="blurOut2" type="matrix" values="0 0 0 0 0 0 0 0 0 0 0 0 0 0 0 0 0 0 .4 0"/><feOffset dx="4.0" dy="4.0" in="blurOut2" result="blurOut3"/><feBlend in="SourceGraphic" in2="blurOut3" mode="normal"/></filter></defs><g><text fill="#000000" font-family="sans-serif" font-size="18" lengthAdjust="spacingAndGlyphs" textLength="74" x="272.5" y="16.708">Backend</text><!--MD5=[758d88821a0e741df1f73accbabae398]
cluster X_0--><rect fill="#FFFAF0" filter="url(#f1g3yzpvghzn9n)" height="75" rx="12.5" ry="12.5" style="stroke: #000000; stroke-width: 1.5;" width="296" x="47.5" y="1366.9531"/><rect fill="#FFFFFF" height="42.7031" rx="12.5" ry="12.5" style="stroke: #FFFFFF; stroke-width: 1.0;" width="290" x="50.5" y="1396.25"/><line style="stroke: #000000; stroke-width: 1.5;" x1="47.5" x2="343.5" y1="1393.25" y2="1393.25"/><text fill="#000000" font-family="sans-serif" font-size="14" lengthAdjust="spacingAndGlyphs" textLength="76" x="157.5" y="1383.9482">Dashboard</text><!--MD5=[cecb9a85ae19b9003f4441b135e71cd6]
cluster X_1--><rect fill="#FFFAF0" filter="url(#f1g3yzpvghzn9n)" height="316" rx="12.5" ry="12.5" style="stroke: #000000; stroke-width: 1.5;" width="393.5" x="226.5" y="1449.9531"/><rect fill="#FFFFFF" height="283.7031" rx="12.5" ry="12.5" style="stroke: #FFFFFF; stroke-width: 1.0;" width="387.5" x="229.5" y="1479.25"/><line style="stroke: #000000; stroke-width: 1.5;" x1="226.5" x2="620" y1="1476.25" y2="1476.25"/><text fill="#000000" font-family="sans-serif" font-size="14" lengthAdjust="spacingAndGlyphs" textLength="94" x="376.25" y="1466.9482">IdentityServer</text><!--MD5=[51e8d94a944361a156a1f52e5c4894ba]
cluster X_2--><rect fill="#FFFAF0" filter="url(#f1g3yzpvghzn9n)" height="75" rx="12.5" ry="12.5" style="stroke: #000000; stroke-width: 1.5;" width="97" x="482.5" y="1773.9531"/><rect fill="#FFFFFF" height="42.7031" rx="12.5" ry="12.5" style="stroke: #FFFFFF; stroke-width: 1.0;" width="91" x="485.5" y="1803.25"/><line style="stroke: #000000; stroke-width: 1.5;" x1="482.5" x2="579.5" y1="1800.25" y2="1800.25"/><text fill="#000000" font-family="sans-serif" font-size="14" lengthAdjust="spacingAndGlyphs" textLength="79" x="491.5" y="1790.9482">MasterCard</text><!--MD5=[52e5ef116ba828aa6123157a74d6ac2a]
cluster X_3--><rect fill="#FFFAF0" filter="url(#f1g3yzpvghzn9n)" height="166" rx="12.5" ry="12.5" style="stroke: #000000; stroke-width: 1.5;" width="137" x="462.5" y="1275.9531"/><rect fill="#FFFFFF" height="133.7031" rx="12.5" ry="12.5" style="stroke: #FFFFFF; stroke-width: 1.0;" width="131" x="465.5" y="1305.25"/><line style="stroke: #000000; stroke-width: 1.5;" x1="462.5" x2="599.5" y1="1302.25" y2="1302.25"/><text fill="#000000" font-family="sans-serif" font-size="14" lengthAdjust="spacingAndGlyphs" textLength="104" x="479" y="1292.9482">MegaDatabase</text><!--MD5=[10c245466cf08064e9ba7704cd70265a]
cluster X_4--><rect fill="#FFFAF0" filter="url(#f1g3yzpvghzn9n)" height="300" rx="12.5" ry="12.5" style="stroke: #000000; stroke-width: 1.5;" width="368.5" x="29.5" y="1058.9531"/><rect fill="#FFFFFF" height="267.7031" rx="12.5" ry="12.5" style="stroke: #FFFFFF; stroke-width: 1.0;" width="362.5" x="32.5" y="1088.25"/><line style="stroke: #000000; stroke-width: 1.5;" x1="29.5" x2="398" y1="1085.25" y2="1085.25"/><text fill="#000000" font-family="sans-serif" font-size="14" lengthAdjust="spacingAndGlyphs" textLength="45" x="191.25" y="1075.9482">Mobile</text><!--MD5=[dfe8839dc810cb7b6db420a1627d41ba]
cluster X_5--><rect fill="#FFFAF0" filter="url(#f1g3yzpvghzn9n)" height="241" rx="12.5" ry="12.5" style="stroke: #000000; stroke-width: 1.5;" width="159" x="218.5" y="710.9531"/><rect fill="#FFFFFF" height="208.7031" rx="12.5" ry="12.5" style="stroke: #FFFFFF; stroke-width: 1.0;" width="153" x="221.5" y="740.25"/><line style="stroke: #000000; stroke-width: 1.5;" x1="218.5" x2="377.5" y1="737.25" y2="737.25"/><text fill="#000000" font-family="sans-serif" font-size="14" lengthAdjust="spacingAndGlyphs" textLength="83" x="256.5" y="727.9482">OrderServer</text><!--MD5=[5077f028a0b9deb0e5bd5930e99c59be]
cluster X_6--><rect fill="#FFFAF0" filter="url(#f1g3yzpvghzn9n)" height="166" rx="12.5" ry="12.5" style="stroke: #000000; stroke-width: 1.5;" width="335" x="265" y="1939.9531"/><rect fill="#FFFFFF" height="133.7031" rx="12.5" ry="12.5" style="stroke: #FFFFFF; stroke-width: 1.0;" width="329" x="268" y="1969.25"/><line style="stroke: #000000; stroke-width: 1.5;" x1="265" x2="600" y1="1966.25" y2="1966.25"/><text fill="#000000" font-family="sans-serif" font-size="14" lengthAdjust="spacingAndGlyphs" textLength="104" x="380.5" y="1956.9482">PaymentServer</text><!--MD5=[ec7116737ec83627e31da805d463bdc7]
cluster X_7--><rect fill="#FFFAF0" filter="url(#f1g3yzpvghzn9n)" height="91" rx="12.5" ry="12.5" style="stroke: #000000; stroke-width: 1.5;" width="114" x="241" y="959.9531"/><rect fill="#FFFFFF" height="58.7031" rx="12.5" ry="12.5" style="stroke: #FFFFFF; stroke-width: 1.0;" width="108" x="244" y="989.25"/><line style="stroke: #000000; stroke-width: 1.5;" x1="241" x2="355" y1="986.25" y2="986.25"/><text fill="#000000" font-family="sans-serif" font-size="14" lengthAdjust="spacingAndGlyphs" textLength="98" x="249" y="976.9482">ProductServer</text><!--MD5=[e22d2d72662d7bf2b43e08230ff1cd21]
cluster X_8--><rect fill="#FFFAF0" filter="url(#f1g3yzpvghzn9n)" height="75" rx="12.5" ry="12.5" style="stroke: #000000; stroke-width: 1.5;" width="66" x="498" y="1856.9531"/><rect fill="#FFFFFF" height="42.7031" rx="12.5" ry="12.5" style="stroke: #FFFFFF; stroke-width: 1.0;" width="60" x="501" y="1886.25"/><line style="stroke: #000000; stroke-width: 1.5;" x1="498" x2="564" y1="1883.25" y2="1883.25"/><text fill="#000000" font-family="sans-serif" font-size="14" lengthAdjust="spacingAndGlyphs" textLength="28" x="517" y="1873.9482">Visa</text><!--MD5=[48ae506470ddeeab1ca502d8fbec7331]
cluster X_9--><rect fill="#FFFAF0" filter="url(#f1g3yzpvghzn9n)" height="675" rx="12.5" ry="12.5" style="stroke: #000000; stroke-width: 1.5;" width="391" x="7" y="27.9531"/><rect fill="#FFFFFF" height="642.7031" rx="12.5" ry="12.5" style="stroke: #FFFFFF; stroke-width: 1.0;" width="385" x="10" y="57.25"/><line style="stroke: #000000; stroke-width: 1.5;" x1="7" x2="398" y1="54.25" y2="54.25"/><text fill="#000000" font-family="sans-serif" font-size="14" lengthAdjust="spacingAndGlyphs" textLength="56" x="174.5" y="44.9482">Website</text><rect fill="#FFFAF0" filter="url(#f1g3yzpvghzn9n)" height="40" rx="12.5" ry="12.5" style="stroke: #000000; stroke-width: 1.5;" width="50" x="55.5" y="1393.9531"/><text fill="#000000" font-family="sans-serif" font-size="14" lengthAdjust="spacingAndGlyphs" textLength="24" x="68.5" y="1418.7998">Pay</text><rect fill="#FFFAF0" filter="url(#f1g3yzpvghzn9n)" height="40" rx="12.5" ry="12.5" style="stroke: #000000; stroke-width: 1.5;" width="75" x="260.5" y="1393.9531"/><text fill="#000000" font-family="sans-serif" font-size="14" lengthAdjust="spacingAndGlyphs" textLength="65" x="265.5" y="1418.7998">Pay client</text><rect fill="#FFFAF0" filter="url(#f1g3yzpvghzn9n)" height="40" rx="12.5" ry="12.5" style="stroke: #000000; stroke-width: 1.5;" width="98" x="249" y="1567.9531"/><text fill="#000000" font-family="sans-serif" font-size="14" lengthAdjust="spacingAndGlyphs" textLength="88" x="254" y="1592.7998">Authenticate</text><rect fill="#FFFAF0" filter="url(#f1g3yzpvghzn9n)" height="40" rx="12.5" ry="12.5" style="stroke: #000000; stroke-width: 1.5;" width="120" x="238" y="1642.9531"/><text fill="#000000" font-family="sans-serif" font-size="14" lengthAdjust="spacingAndGlyphs" textLength="110" x="243" y="1667.7998">CustomerProfile</text><rect fill="#FFFAF0" filter="url(#f1g3yzpvghzn9n)" height="40" rx="12.5" ry="12.5" style="stroke: #000000; stroke-width: 1.5;" width="158" x="452" y="1642.9531"/><text fill="#000000" font-family="sans-serif" font-size="14" lengthAdjust="spacingAndGlyphs" textLength="148" x="457" y="1667.7998">InsertCustomer client</text><rect fill="#FFFAF0" filter="url(#f1g3yzpvghzn9n)" height="40" rx="12.5" ry="12.5" style="stroke: #000000; stroke-width: 1.5;" width="108" x="244" y="1717.9531"/><text fill="#000000" font-family="sans-serif" font-size="14" lengthAdjust="spacingAndGlyphs" textLength="98" x="249" y="1742.7998">NewCustomer</text><rect fill="#FFFAF0" filter="url(#f1g3yzpvghzn9n)" height="40" rx="12.5" ry="12.5" style="stroke: #000000; stroke-width: 1.5;" width="162" x="450" y="1530.9531"/><text fill="#000000" font-family="sans-serif" font-size="14" lengthAdjust="spacingAndGlyphs" textLength="152" x="455" y="1555.7998">SelectCustomer client</text><rect fill="#FFFAF0" filter="url(#f1g3yzpvghzn9n)" height="40" rx="12.5" ry="12.5" style="stroke: #000000; stroke-width: 1.5;" width="127" x="234.5" y="1492.9531"/><text fill="#000000" font-family="sans-serif" font-size="14" lengthAdjust="spacingAndGlyphs" textLength="117" x="239.5" y="1517.7998">UpdatePassword</text><rect fill="#FFFAF0" filter="url(#f1g3yzpvghzn9n)" height="40" rx="12.5" ry="12.5" style="stroke: #000000; stroke-width: 1.5;" width="81" x="490.5" y="1800.9531"/><text fill="#000000" font-family="sans-serif" font-size="14" lengthAdjust="spacingAndGlyphs" textLength="71" x="495.5" y="1825.7998">POST /pay</text><rect fill="#FFFAF0" filter="url(#f1g3yzpvghzn9n)" height="40" rx="12.5" ry="12.5" style="stroke: #000000; stroke-width: 1.5;" width="117" x="472.5" y="1393.9531"/><text fill="#000000" font-family="sans-serif" font-size="14" lengthAdjust="spacingAndGlyphs" textLength="107" x="477.5" y="1418.7998">InsertCustomer</text><rect fill="#FFFAF0" filter="url(#f1g3yzpvghzn9n)" height="40" rx="12.5" ry="12.5" style="stroke: #000000; stroke-width: 1.5;" width="121" x="470.5" y="1318.9531"/><text fill="#000000" font-family="sans-serif" font-size="14" lengthAdjust="spacingAndGlyphs" textLength="111" x="475.5" y="1343.7998">SelectCustomer</text><rect fill="#FFFAF0" filter="url(#f1g3yzpvghzn9n)" height="40" rx="12.5" ry="12.5" style="stroke: #000000; stroke-width: 1.5;" width="50" x="55.5" y="1085.9531"/><text fill="#000000" font-family="sans-serif" font-size="14" lengthAdjust="spacingAndGlyphs" textLength="39" x="61" y="1110.7998">Menu</text><rect fill="#FFFAF0" filter="url(#f1g3yzpvghzn9n)" height="40" rx="12.5" ry="12.5" style="stroke: #000000; stroke-width: 1.5;" width="90" x="253" y="1085.9531"/><text fill="#000000" font-family="sans-serif" font-size="14" lengthAdjust="spacingAndGlyphs" textLength="80" x="258" y="1110.7998">Menu client</text><rect fill="#FFFAF0" filter="url(#f1g3yzpvghzn9n)" height="40" rx="12.5" ry="12.5" style="stroke: #000000; stroke-width: 1.5;" width="50" x="55.5" y="1160.9531"/><text fill="#000000" font-family="sans-serif" font-size="14" lengthAdjust="spacingAndGlyphs" textLength="39" x="61" y="1185.7998">Order</text><rect fill="#FFFAF0" filter="url(#f1g3yzpvghzn9n)" height="40" rx="12.5" ry="12.5" style="stroke: #000000; stroke-width: 1.5;" width="90" x="253" y="1160.9531"/><text fill="#000000" font-family="sans-serif" font-size="14" lengthAdjust="spacingAndGlyphs" textLength="80" x="258" y="1185.7998">Order client</text><rect fill="#FFFAF0" filter="url(#f1g3yzpvghzn9n)" height="40" rx="12.5" ry="12.5" style="stroke: #000000; stroke-width: 1.5;" width="86" x="37.5" y="1235.9531"/><text fill="#000000" font-family="sans-serif" font-size="14" lengthAdjust="spacingAndGlyphs" textLength="76" x="42.5" y="1260.7998">PlaceOrder</text><rect fill="#FFFAF0" filter="url(#f1g3yzpvghzn9n)" height="40" rx="12.5" ry="12.5" style="stroke: #000000; stroke-width: 1.5;" width="59" x="51" y="1310.9531"/><text fill="#000000" font-family="sans-serif" font-size="14" lengthAdjust="spacingAndGlyphs" textLength="49" x="56" y="1335.7998">Review</text><rect fill="#FFFAF0" filter="url(#f1g3yzpvghzn9n)" height="40" rx="12.5" ry="12.5" style="stroke: #000000; stroke-width: 1.5;" width="100" x="248" y="1310.9531"/><text fill="#000000" font-family="sans-serif" font-size="14" lengthAdjust="spacingAndGlyphs" textLength="90" x="253" y="1335.7998">Review client</text><rect fill="#FFFAF0" filter="url(#f1g3yzpvghzn9n)" height="40" rx="12.5" ry="12.5" style="stroke: #000000; stroke-width: 1.5;" width="184" x="206" y="1235.9531"/><text fill="#000000" font-family="sans-serif" font-size="14" lengthAdjust="spacingAndGlyphs" textLength="174" x="211" y="1260.7998">UpdateOrderStatus client</text><rect fill="#FFFAF0" filter="url(#f1g3yzpvghzn9n)" height="40" rx="12.5" ry="12.5" style="stroke: #000000; stroke-width: 1.5;" width="50" x="273" y="753.9531"/><text fill="#000000" font-family="sans-serif" font-size="14" lengthAdjust="spacingAndGlyphs" textLength="39" x="278.5" y="778.7998">Order</text><rect fill="#FFFAF0" filter="url(#f1g3yzpvghzn9n)" height="40" rx="12.5" ry="12.5" style="stroke: #000000; stroke-width: 1.5;" width="59" x="268.5" y="903.9531"/><text fill="#000000" font-family="sans-serif" font-size="14" lengthAdjust="spacingAndGlyphs" textLength="49" x="273.5" y="928.7998">Review</text><rect fill="#FFFAF0" filter="url(#f1g3yzpvghzn9n)" height="40" rx="12.5" ry="12.5" style="stroke: #000000; stroke-width: 1.5;" width="143" x="226.5" y="828.9531"/><text fill="#000000" font-family="sans-serif" font-size="14" lengthAdjust="spacingAndGlyphs" textLength="133" x="231.5" y="853.7998">UpdateOrderStatus</text><rect fill="#FFFAF0" filter="url(#f1g3yzpvghzn9n)" height="40" rx="12.5" ry="12.5" style="stroke: #000000; stroke-width: 1.5;" width="122" x="470" y="1982.9531"/><text fill="#000000" font-family="sans-serif" font-size="14" lengthAdjust="spacingAndGlyphs" textLength="112" x="475" y="2007.7998">POST /pay client</text><rect fill="#FFFAF0" filter="url(#f1g3yzpvghzn9n)" height="40" rx="12.5" ry="12.5" style="stroke: #000000; stroke-width: 1.5;" width="50" x="273" y="1982.9531"/><text fill="#000000" font-family="sans-serif" font-size="14" lengthAdjust="spacingAndGlyphs" textLength="24" x="286" y="2007.7998">Pay</text><rect fill="#FFFAF0" filter="url(#f1g3yzpvghzn9n)" height="40" rx="12.5" ry="12.5" style="stroke: #000000; stroke-width: 1.5;" width="75" x="493.5" y="2057.9531"/><text fill="#000000" font-family="sans-serif" font-size="14" lengthAdjust="spacingAndGlyphs" textLength="65" x="498.5" y="2082.7998">Pay client</text><rect fill="#FFFAF0" filter="url(#f1g3yzpvghzn9n)" height="40" rx="12.5" ry="12.5" style="stroke: #000000; stroke-width: 1.5;" width="50" x="273" y="1002.9531"/><text fill="#000000" font-family="sans-serif" font-size="14" lengthAdjust="spacingAndGlyphs" textLength="39" x="278.5" y="1027.7998">Menu</text><rect fill="#FFFAF0" filter="url(#f1g3yzpvghzn9n)" height="40" rx="12.5" ry="12.5" style="stroke: #000000; stroke-width: 1.5;" width="50" x="506" y="1883.9531"/><text fill="#000000" font-family="sans-serif" font-size="14" lengthAdjust="spacingAndGlyphs" textLength="24" x="519" y="1908.7998">Pay</text><rect fill="#FFFAF0" filter="url(#f1g3yzpvghzn9n)" height="40" rx="12.5" ry="12.5" style="stroke: #000000; stroke-width: 1.5;" width="139" x="228.5" y="129.9531"/><text fill="#000000" font-family="sans-serif" font-size="14" lengthAdjust="spacingAndGlyphs" textLength="129" x="233.5" y="154.7998">Authenticate client</text><rect fill="#FFFAF0" filter="url(#f1g3yzpvghzn9n)" height="40" rx="12.5" ry="12.5" style="stroke: #000000; stroke-width: 1.5;" width="131" x="15" y="54.9531"/><text fill="#000000" font-family="sans-serif" font-size="14" lengthAdjust="spacingAndGlyphs" textLength="121" x="20" y="79.7998">ChangePassword</text><rect fill="#FFFAF0" filter="url(#f1g3yzpvghzn9n)" height="40" rx="12.5" ry="12.5" style="stroke: #000000; stroke-width: 1.5;" width="161" x="217.5" y="504.9531"/><text fill="#000000" font-family="sans-serif" font-size="14" lengthAdjust="spacingAndGlyphs" textLength="151" x="222.5" y="529.7998">CustomerProfile client</text><rect fill="#FFFAF0" filter="url(#f1g3yzpvghzn9n)" height="40" rx="12.5" ry="12.5" style="stroke: #000000; stroke-width: 1.5;" width="50" x="55.5" y="129.9531"/><text fill="#000000" font-family="sans-serif" font-size="14" lengthAdjust="spacingAndGlyphs" textLength="37" x="62" y="154.7998">Login</text><rect fill="#FFFAF0" filter="url(#f1g3yzpvghzn9n)" height="40" rx="12.5" ry="12.5" style="stroke: #000000; stroke-width: 1.5;" width="50" x="55.5" y="204.9531"/><text fill="#000000" font-family="sans-serif" font-size="14" lengthAdjust="spacingAndGlyphs" textLength="39" x="61" y="229.7998">Menu</text><rect fill="#FFFAF0" filter="url(#f1g3yzpvghzn9n)" height="40" rx="12.5" ry="12.5" style="stroke: #000000; stroke-width: 1.5;" width="90" x="253" y="204.9531"/><text fill="#000000" font-family="sans-serif" font-size="14" lengthAdjust="spacingAndGlyphs" textLength="80" x="258" y="229.7998">Menu client</text><rect fill="#FFFAF0" filter="url(#f1g3yzpvghzn9n)" height="40" rx="12.5" ry="12.5" style="stroke: #000000; stroke-width: 1.5;" width="149" x="223.5" y="654.9531"/><text fill="#000000" font-family="sans-serif" font-size="14" lengthAdjust="spacingAndGlyphs" textLength="139" x="228.5" y="679.7998">NewCustomer client</text><rect fill="#FFFAF0" filter="url(#f1g3yzpvghzn9n)" height="40" rx="12.5" ry="12.5" style="stroke: #000000; stroke-width: 1.5;" width="50" x="55.5" y="279.9531"/><text fill="#000000" font-family="sans-serif" font-size="14" lengthAdjust="spacingAndGlyphs" textLength="39" x="61" y="304.7998">Order</text><rect fill="#FFFAF0" filter="url(#f1g3yzpvghzn9n)" height="40" rx="12.5" ry="12.5" style="stroke: #000000; stroke-width: 1.5;" width="90" x="253" y="279.9531"/><text fill="#000000" font-family="sans-serif" font-size="14" lengthAdjust="spacingAndGlyphs" textLength="80" x="258" y="304.7998">Order client</text><rect fill="#FFFAF0" filter="url(#f1g3yzpvghzn9n)" height="40" rx="12.5" ry="12.5" style="stroke: #000000; stroke-width: 1.5;" width="50" x="55.5" y="354.9531"/><text fill="#000000" font-family="sans-serif" font-size="14" lengthAdjust="spacingAndGlyphs" textLength="24" x="68.5" y="379.7998">Pay</text><rect fill="#FFFAF0" filter="url(#f1g3yzpvghzn9n)" height="40" rx="12.5" ry="12.5" style="stroke: #000000; stroke-width: 1.5;" width="75" x="260.5" y="354.9531"/><text fill="#000000" font-family="sans-serif" font-size="14" lengthAdjust="spacingAndGlyphs" textLength="65" x="265.5" y="379.7998">Pay client</text><rect fill="#FFFAF0" filter="url(#f1g3yzpvghzn9n)" height="40" rx="12.5" ry="12.5" style="stroke: #000000; stroke-width: 1.5;" width="86" x="37.5" y="429.9531"/><text fill="#000000" font-family="sans-serif" font-size="14" lengthAdjust="spacingAndGlyphs" textLength="76" x="42.5" y="454.7998">PlaceOrder</text><rect fill="#FFFAF0" filter="url(#f1g3yzpvghzn9n)" height="40" rx="12.5" ry="12.5" style="stroke: #000000; stroke-width: 1.5;" width="52" x="54.5" y="504.9531"/><text fill="#000000" font-family="sans-serif" font-size="14" lengthAdjust="spacingAndGlyphs" textLength="42" x="59.5" y="529.7998">Profile</text><rect fill="#FFFAF0" filter="url(#f1g3yzpvghzn9n)" height="40" rx="12.5" ry="12.5" style="stroke: #000000; stroke-width: 1.5;" width="59" x="51" y="579.9531"/><text fill="#000000" font-family="sans-serif" font-size="14" lengthAdjust="spacingAndGlyphs" textLength="49" x="56" y="604.7998">Review</text><rect fill="#FFFAF0" filter="url(#f1g3yzpvghzn9n)" height="40" rx="12.5" ry="12.5" style="stroke: #000000; stroke-width: 1.5;" width="100" x="248" y="579.9531"/><text fill="#000000" font-family="sans-serif" font-size="14" lengthAdjust="spacingAndGlyphs" textLength="90" x="253" y="604.7998">Review client</text><rect fill="#FFFAF0" filter="url(#f1g3yzpvghzn9n)" height="40" rx="12.5" ry="12.5" style="stroke: #000000; stroke-width: 1.5;" width="58" x="51.5" y="654.9531"/><text fill="#000000" font-family="sans-serif" font-size="14" lengthAdjust="spacingAndGlyphs" textLength="48" x="56.5" y="679.7998">Signup</text><rect fill="#FFFAF0" filter="url(#f1g3yzpvghzn9n)" height="40" rx="12.5" ry="12.5" style="stroke: #000000; stroke-width: 1.5;" width="184" x="206" y="429.9531"/><text fill="#000000" font-family="sans-serif" font-size="14" lengthAdjust="spacingAndGlyphs" textLength="174" x="211" y="454.7998">UpdateOrderStatus client</text><rect fill="#FFFAF0" filter="url(#f1g3yzpvghzn9n)" height="40" rx="12.5" ry="12.5" style="stroke: #000000; stroke-width: 1.5;" width="168" x="214" y="54.9531"/><text fill="#000000" font-family="sans-serif" font-size="14" lengthAdjust="spacingAndGlyphs" textLength="158" x="219" y="79.7998">UpdatePassword client</text><!--MD5=[62ad056fd2ad6c1a7d9c7b17cd6e64c5]
link _23 to _24--><path d="M323.3786,2011.1222 C363.0611,2023.8955 440.2435,2048.7396 488.5068,2064.275 " fill="none" id="_23-&gt;_24" style="stroke: #C0C0C0; stroke-width: 1.0;"/><polygon fill="#C0C0C0" points="493.3744,2065.8419,486.0329,2059.2767,488.6149,2064.3099,483.5817,2066.892,493.3744,2065.8419" style="stroke: #C0C0C0; stroke-width: 1.0;"/><!--MD5=[342f12d79725bf24ce09f1f5e1fb8089]
link _24 to _26--><path d="M493.4492,2070.3931 C468.4297,2063.1003 437.7148,2049.2162 424,2023.4531 C408.5453,1994.4215 408.5453,1978.4847 424,1949.4531 C438.673,1921.8899 474.6812,1911.0239 500.8836,1906.7404 " fill="none" id="_24-&gt;_26" style="stroke: #000000; stroke-width: 1.0;"/><polygon fill="#000000" points="505.9841,1905.9685,496.4868,1903.3605,501.0404,1906.7168,497.6841,1911.2704,505.9841,1905.9685" style="stroke: #000000; stroke-width: 1.0;"/><!--MD5=[4bab9894dcf906c1e84cd9b5623ff792]
link _23 to _22--><path d="M323.3786,2002.9531 C357.0633,2002.9531 417.7689,2002.9531 464.8702,2002.9531 " fill="none" id="_23-&gt;_22" style="stroke: #C0C0C0; stroke-width: 1.0;"/><polygon fill="#C0C0C0" points="469.9627,2002.9531,460.9627,1998.9531,464.9627,2002.9531,460.9627,2006.9531,469.9627,2002.9531" style="stroke: #C0C0C0; stroke-width: 1.0;"/><!--MD5=[4a53e0e6c9f010e9cc3a878cac968a5c]
link _22 to _8--><path d="M487.7398,1982.8287 C464.2464,1969.3594 437.3391,1949.1812 424,1922.4531 C412.886,1900.1835 412.3046,1888.4229 424,1866.4531 C435.9552,1843.9953 462.0738,1832.6221 485.512,1826.8625 " fill="none" id="_22-&gt;_8" style="stroke: #000000; stroke-width: 1.0;"/><polygon fill="#000000" points="490.4667,1825.7167,480.7969,1823.8474,485.5953,1826.8433,482.5994,1831.6417,490.4667,1825.7167" style="stroke: #000000; stroke-width: 1.0;"/><!--MD5=[0ea368ddd915f2a407f414932c55ddae]
link _3 to _6--><path d="M357.0691,1642.8703 C370.6829,1637.7554 384.9832,1631.9847 398,1625.9531 C431.5364,1610.4132 467.9961,1589.552 494.246,1573.7762 " fill="none" id="_3-&gt;_6" style="stroke: #C0C0C0; stroke-width: 1.0;"/><polygon fill="#C0C0C0" points="498.6967,1571.0913,488.9242,1572.3152,494.4154,1573.674,493.0565,1579.1653,498.6967,1571.0913" style="stroke: #C0C0C0; stroke-width: 1.0;"/><!--MD5=[4e29bfd3418fa57f132e402b8cdb03e3]
link _6 to _10--><path d="M499.8948,1530.7099 C459.233,1501.5629 396.2724,1445.5393 424,1393.4531 C432.8201,1376.8846 448.6712,1365.2292 465.5168,1357.0803 " fill="none" id="_6-&gt;_10" style="stroke: #000000; stroke-width: 1.0;"/><polygon fill="#000000" points="470.2895,1354.8737,460.4417,1355.0199,465.7511,1356.972,463.799,1362.2814,470.2895,1354.8737" style="stroke: #000000; stroke-width: 1.0;"/><!--MD5=[9bcbbfdf6afb1d4759bb95b02668f8b4]
link _5 to _4--><path d="M352.0405,1720.5581 C385.227,1709.8757 428.0139,1696.1031 463.4289,1684.7035 " fill="none" id="_5-&gt;_4" style="stroke: #C0C0C0; stroke-width: 1.0;"/><polygon fill="#C0C0C0" points="468.5986,1683.0394,458.8058,1681.9897,463.8391,1684.5716,461.2573,1689.6049,468.5986,1683.0394" style="stroke: #C0C0C0; stroke-width: 1.0;"/><!--MD5=[1efb5967f4c449dd56d6249280be653c]
link _4 to _9--><path d="M494.086,1642.9311 C469.1945,1627.1594 438.3679,1602.6445 424,1571.4531 C403.1739,1526.2414 400.6091,1503.3928 424,1459.4531 C432.9305,1442.6771 449.7644,1432.0864 467.4806,1425.4006 " fill="none" id="_4-&gt;_9" style="stroke: #000000; stroke-width: 1.0;"/><polygon fill="#000000" points="472.495,1423.6165,462.6749,1422.865,467.7843,1425.2927,465.3567,1430.4021,472.495,1423.6165" style="stroke: #000000; stroke-width: 1.0;"/><!--MD5=[b84326987e98dcb917912705a3ef9c62]
link _0 to _1--><path d="M105.8757,1413.9531 C142.5618,1413.9531 210.8837,1413.9531 255.385,1413.9531 " fill="none" id="_0-&gt;_1" style="stroke: #C0C0C0; stroke-width: 1.0;"/><polygon fill="#C0C0C0" points="260.4208,1413.9531,251.4208,1409.9531,255.4208,1413.9531,251.4208,1417.9531,260.4208,1413.9531" style="stroke: #C0C0C0; stroke-width: 1.0;"/><!--MD5=[bc83b3fabef1aeb733b8f0a42ce4fd6d]
link _1 to _23--><path d="M260.3737,1415.8855 C231.0937,1419.6954 192.7196,1430.3437 176,1459.4531 C143.128,1516.6845 160.9669,1692.188 176,1756.4531 C196.4518,1843.8825 252.6831,1935.8698 281.0963,1978.5467 " fill="none" id="_1-&gt;_23" style="stroke: #000000; stroke-width: 1.0;"/><polygon fill="#000000" points="283.9227,1982.7671,282.2381,1973.0634,281.1404,1978.6127,275.5911,1977.515,283.9227,1982.7671" style="stroke: #000000; stroke-width: 1.0;"/><!--MD5=[7a2cb289c35b92a5a43b54d75e95b057]
link _11 to _12--><path d="M105.8757,1105.9531 C140.5117,1105.9531 203.3465,1105.9531 247.711,1105.9531 " fill="none" id="_11-&gt;_12" style="stroke: #C0C0C0; stroke-width: 1.0;"/><polygon fill="#C0C0C0" points="252.7553,1105.9531,243.7553,1101.9531,247.7553,1105.9531,243.7553,1109.9531,252.7553,1105.9531" style="stroke: #C0C0C0; stroke-width: 1.0;"/><!--MD5=[8ca65a405ba64f544febfbdb2153c782]
link _12 to _25--><path d="M298,1085.8515 C298,1073.2711 298,1060.6906 298,1048.1102 " fill="none" id="_12-&gt;_25" style="stroke: #000000; stroke-width: 1.0;"/><polygon fill="#000000" points="298,1043.1003,294,1052.1003,298,1048.1003,302,1052.1003,298,1043.1003" style="stroke: #000000; stroke-width: 1.0;"/><!--MD5=[2e09ed96493301d0e77104c448ea3f5a]
link _13 to _14--><path d="M105.8757,1180.9531 C140.5117,1180.9531 203.3465,1180.9531 247.711,1180.9531 " fill="none" id="_13-&gt;_14" style="stroke: #C0C0C0; stroke-width: 1.0;"/><polygon fill="#C0C0C0" points="252.7553,1180.9531,243.7553,1176.9531,247.7553,1180.9531,243.7553,1184.9531,252.7553,1180.9531" style="stroke: #C0C0C0; stroke-width: 1.0;"/><!--MD5=[248ca33d45f368d3654f4fe55fee3431]
link _14 to _19--><path d="M252.7932,1173.8123 C224.9626,1166.7405 191.7038,1152.7939 176,1125.4531 C143.128,1068.2217 143.128,885.6845 176,828.4531 C194.6222,796.0312 238.1548,782.8314 267.8494,777.5011 " fill="none" id="_14-&gt;_19" style="stroke: #000000; stroke-width: 1.0;"/><polygon fill="#000000" points="272.8566,776.6528,263.3148,774.2126,267.9269,777.4881,264.6513,782.1001,272.8566,776.6528" style="stroke: #000000; stroke-width: 1.0;"/><!--MD5=[8a4a2e99901e03a27c75c1124701025d]
link _15 to _18--><path d="M123.731,1255.9531 C145.8902,1255.9531 173.8354,1255.9531 200.8197,1255.9531 " fill="none" id="_15-&gt;_18" style="stroke: #C0C0C0; stroke-width: 1.0;"/><polygon fill="#C0C0C0" points="205.8454,1255.9531,196.8454,1251.9531,200.8454,1255.9531,196.8454,1259.9531,205.8454,1255.9531" style="stroke: #C0C0C0; stroke-width: 1.0;"/><!--MD5=[1df40e8b58f22dce7e92709b3ff9107f]
link _18 to _21--><path d="M216.8141,1235.9075 C200.2787,1227.781 185.1557,1216.3935 176,1200.4531 C143.128,1143.2217 143.128,960.6845 176,903.4531 C186.0122,886.0214 203.2253,874.1463 221.6169,866.0632 " fill="none" id="_18-&gt;_21" style="stroke: #000000; stroke-width: 1.0;"/><polygon fill="#000000" points="226.3145,864.0889,216.4677,863.8888,221.7051,866.0263,219.5675,871.2638,226.3145,864.0889" style="stroke: #000000; stroke-width: 1.0;"/><!--MD5=[4330cd2bc2f43e8cfef87705304d31ab]
link _16 to _17--><path d="M110.2864,1330.9531 C144.2732,1330.9531 200.5845,1330.9531 242.6817,1330.9531 " fill="none" id="_16-&gt;_17" style="stroke: #C0C0C0; stroke-width: 1.0;"/><polygon fill="#C0C0C0" points="247.7426,1330.9531,238.7426,1326.9531,242.7426,1330.9531,238.7426,1334.9531,247.7426,1330.9531" style="stroke: #C0C0C0; stroke-width: 1.0;"/><!--MD5=[5c8a90a3bec598804742f89c6ab60c73]
link _17 to _20--><path d="M247.8118,1322.4865 C221.0965,1315.047 190.7766,1301.1797 176,1275.4531 C142.1319,1216.4874 142.1319,1028.4188 176,969.4531 C193.2953,939.3414 233.762,928.984 263.3647,925.5158 " fill="none" id="_17-&gt;_20" style="stroke: #000000; stroke-width: 1.0;"/><polygon fill="#000000" points="268.3867,924.9806,259.0134,921.9572,263.4149,925.5106,259.8614,929.9121,268.3867,924.9806" style="stroke: #000000; stroke-width: 1.0;"/><!--MD5=[9ae800529f37d604279e879669cef019]
link _28 to _44--><path d="M146.0521,74.9531 C165.7377,74.9531 187.6782,74.9531 208.6273,74.9531 " fill="none" id="_28-&gt;_44" style="stroke: #C0C0C0; stroke-width: 1.0;"/><polygon fill="#C0C0C0" points="213.645,74.9531,204.645,70.9531,208.645,74.9531,204.645,78.9531,213.645,74.9531" style="stroke: #C0C0C0; stroke-width: 1.0;"/><!--MD5=[5d43653fea8babef0f591c5bfe7cabe2]
link _44 to _7--><path d="M215.2086,95.0644 C199.2894,103.0062 184.8388,114.0645 176,129.4531 C139.9459,192.2246 141.6914,1368.7109 176,1432.4531 C190.0395,1458.5372 216.6426,1477.5713 241.4323,1490.5613 " fill="none" id="_44-&gt;_7" style="stroke: #000000; stroke-width: 1.0;"/><polygon fill="#000000" points="246.0365,1492.9168,239.8462,1485.2565,241.5853,1490.6394,236.2024,1492.3785,246.0365,1492.9168" style="stroke: #000000; stroke-width: 1.0;"/><!--MD5=[c149ed2a4e7c24b2295ea4895b65d61c]
link _30 to _27--><path d="M105.8757,149.9531 C134.4025,149.9531 182.0579,149.9531 222.7679,149.9531 " fill="none" id="_30-&gt;_27" style="stroke: #C0C0C0; stroke-width: 1.0;"/><polygon fill="#C0C0C0" points="228.2069,149.9531,219.2069,145.9531,223.2069,149.9531,219.2069,153.9531,228.2069,149.9531" style="stroke: #C0C0C0; stroke-width: 1.0;"/><!--MD5=[b223eccd934c94f43c77681a43f58c15]
link _27 to _2--><path d="M228.243,164.3278 C207.4371,172.3905 187.2073,184.9407 176,204.4531 C139.2265,268.4771 139.2265,1469.4291 176,1533.4531 C189.9731,1557.7807 217.9712,1571.286 243.6247,1578.7648 " fill="none" id="_27-&gt;_2" style="stroke: #000000; stroke-width: 1.0;"/><polygon fill="#000000" points="248.7193,1580.1816,241.1201,1573.9164,243.9021,1578.8419,238.9766,1581.6239,248.7193,1580.1816" style="stroke: #000000; stroke-width: 1.0;"/><!--MD5=[070e8fe19cf0af93cfc5a1b0cc8db2d4]
link _31 to _32--><path d="M105.8757,224.9531 C140.5117,224.9531 203.3465,224.9531 247.711,224.9531 " fill="none" id="_31-&gt;_32" style="stroke: #C0C0C0; stroke-width: 1.0;"/><polygon fill="#C0C0C0" points="252.7553,224.9531,243.7553,220.9531,247.7553,224.9531,243.7553,228.9531,252.7553,224.9531" style="stroke: #C0C0C0; stroke-width: 1.0;"/><!--MD5=[107f5dc15129f17c3a96d3b682d35a4f]
link _32 to _25--><path d="M252.7612,231.6935 C224.9172,238.5247 191.6556,252.1961 176,279.4531 C139.3095,343.3326 141.0858,877.5857 176,942.4531 C195.3275,978.3619 238.4655,1000.9098 267.9037,1012.7208 " fill="none" id="_32-&gt;_25" style="stroke: #000000; stroke-width: 1.0;"/><polygon fill="#000000" points="272.8681,1014.6634,265.9447,1007.6587,268.2119,1012.8413,263.0293,1015.1086,272.8681,1014.6634" style="stroke: #000000; stroke-width: 1.0;"/><!--MD5=[f123722eccb79b284378b0c21d8399f6]
link _34 to _35--><path d="M105.8757,299.9531 C140.5117,299.9531 203.3465,299.9531 247.711,299.9531 " fill="none" id="_34-&gt;_35" style="stroke: #C0C0C0; stroke-width: 1.0;"/><polygon fill="#C0C0C0" points="252.7553,299.9531,243.7553,295.9531,247.7553,299.9531,243.7553,303.9531,252.7553,299.9531" style="stroke: #C0C0C0; stroke-width: 1.0;"/><!--MD5=[6c03364fb7290d1bdc7f52fe040c58b0]
link _35 to _19--><path d="M252.7612,306.6935 C224.9172,313.5247 191.6556,327.1961 176,354.4531 C138.4794,419.7778 140.2959,627.1181 176,693.4531 C195.3275,729.3619 238.4655,751.9098 267.9037,763.7208 " fill="none" id="_35-&gt;_19" style="stroke: #000000; stroke-width: 1.0;"/><polygon fill="#000000" points="272.8681,765.6634,265.9447,758.6587,268.2119,763.8413,263.0293,766.1086,272.8681,765.6634" style="stroke: #000000; stroke-width: 1.0;"/><!--MD5=[af37201a6cf1dcd2d5dc9261c43baf1d]
link _36 to _37--><path d="M105.8757,374.9531 C142.5618,374.9531 210.8837,374.9531 255.385,374.9531 " fill="none" id="_36-&gt;_37" style="stroke: #C0C0C0; stroke-width: 1.0;"/><polygon fill="#C0C0C0" points="260.4208,374.9531,251.4208,370.9531,255.4208,374.9531,251.4208,378.9531,260.4208,374.9531" style="stroke: #C0C0C0; stroke-width: 1.0;"/><!--MD5=[830ffa3ac5379e9f87d484b129857cb2]
link _37 to _23--><path d="M260.3107,379.9723 C231.2039,386.118 193.0999,399.6816 176,429.4531 C139.2819,493.3807 159.208,1684.6687 176,1756.4531 C196.4518,1843.8825 252.6831,1935.8698 281.0963,1978.5467 " fill="none" id="_37-&gt;_23" style="stroke: #000000; stroke-width: 1.0;"/><polygon fill="#000000" points="283.9227,1982.7671,282.2381,1973.0634,281.1404,1978.6127,275.5911,1977.515,283.9227,1982.7671" style="stroke: #000000; stroke-width: 1.0;"/><!--MD5=[23d4cf6012f8fcce05929c4a14fb8707]
link _38 to _43--><path d="M123.731,449.9531 C145.8902,449.9531 173.8354,449.9531 200.8197,449.9531 " fill="none" id="_38-&gt;_43" style="stroke: #C0C0C0; stroke-width: 1.0;"/><polygon fill="#C0C0C0" points="205.8454,449.9531,196.8454,445.9531,200.8454,449.9531,196.8454,453.9531,205.8454,449.9531" style="stroke: #C0C0C0; stroke-width: 1.0;"/><!--MD5=[49441d74f0145c060cc1f6578ba3269f]
link _43 to _21--><path d="M215.2086,470.0644 C199.2894,478.0062 184.8388,489.0645 176,504.4531 C144.0134,560.1429 144.0134,737.7633 176,793.4531 C186.043,810.9384 203.266,822.9454 221.6574,831.1795 " fill="none" id="_43-&gt;_21" style="stroke: #000000; stroke-width: 1.0;"/><polygon fill="#000000" points="226.3546,833.1927,219.6581,825.9707,221.7589,831.223,216.5066,833.3238,226.3546,833.1927" style="stroke: #000000; stroke-width: 1.0;"/><!--MD5=[3974a7cc4e967321e05a0f9e91c08d1c]
link _39 to _29--><path d="M106.7356,524.9531 C132.9031,524.9531 174.5331,524.9531 212.2825,524.9531 " fill="none" id="_39-&gt;_29" style="stroke: #C0C0C0; stroke-width: 1.0;"/><polygon fill="#C0C0C0" points="217.3418,524.9531,208.3418,520.9531,212.3418,524.9531,208.3418,528.9531,217.3418,524.9531" style="stroke: #C0C0C0; stroke-width: 1.0;"/><!--MD5=[4a42c856ce51a631a81d199aea0c4bd3]
link _29 to _3--><path d="M217.4024,543.9938 C200.6234,552.0034 185.2432,563.3604 176,579.4531 C147.5275,629.0247 147.5275,1558.8815 176,1608.4531 C188.0811,1629.4867 210.6464,1642.4303 233.1159,1650.3835 " fill="none" id="_29-&gt;_3" style="stroke: #000000; stroke-width: 1.0;"/><polygon fill="#000000" points="237.9054,1652.006,230.6646,1645.3298,233.1698,1650.4018,228.0978,1652.9069,237.9054,1652.006" style="stroke: #000000; stroke-width: 1.0;"/><!--MD5=[39413098f57c1a77eea6168bc4941621]
link _40 to _41--><path d="M110.2864,599.9531 C144.2732,599.9531 200.5845,599.9531 242.6817,599.9531 " fill="none" id="_40-&gt;_41" style="stroke: #C0C0C0; stroke-width: 1.0;"/><polygon fill="#C0C0C0" points="247.7426,599.9531,238.7426,595.9531,242.7426,599.9531,238.7426,603.9531,247.7426,599.9531" style="stroke: #C0C0C0; stroke-width: 1.0;"/><!--MD5=[01c7e39e41b407e9ef1fb85fddaec5d2]
link _41 to _20--><path d="M247.7775,607.9764 C221.051,615.1864 190.7313,628.8054 176,654.4531 C152.3144,695.6905 152.3144,827.2157 176,868.4531 C193.7482,899.3534 233.92,913.1449 263.3363,919.2391 " fill="none" id="_41-&gt;_20" style="stroke: #000000; stroke-width: 1.0;"/><polygon fill="#000000" points="268.3272,920.2213,260.2691,914.5586,263.4213,919.2557,258.7242,922.408,268.3272,920.2213" style="stroke: #000000; stroke-width: 1.0;"/><!--MD5=[3a8b16414360117d36afdd4c073deb9c]
link _42 to _33--><path d="M109.833,674.9531 C137.5758,674.9531 180.4801,674.9531 218.3178,674.9531 " fill="none" id="_42-&gt;_33" style="stroke: #C0C0C0; stroke-width: 1.0;"/><polygon fill="#C0C0C0" points="223.3818,674.9531,214.3818,670.9531,218.3818,674.9531,214.3818,678.9531,223.3818,674.9531" style="stroke: #C0C0C0; stroke-width: 1.0;"/><!--MD5=[455cde1fde73b3ada402392634de3052]
link _33 to _5--><path d="M223.416,685.2824 C204.2201,691.9499 186.1331,702.811 176,720.4531 C149.3538,766.8452 149.3538,1637.061 176,1683.4531 C189.1607,1706.3663 214.763,1719.679 239.1297,1727.3983 " fill="none" id="_33-&gt;_5" style="stroke: #000000; stroke-width: 1.0;"/><polygon fill="#000000" points="243.9825,1728.8687,236.5294,1722.4304,239.1974,1727.4186,234.2092,1730.0866,243.9825,1728.8687" style="stroke: #000000; stroke-width: 1.0;"/><!--MD5=[5a8b6e0495e5e3b738501605001f714a]
@startuml
''''''''''''''''''''''''''''''''''''''''''
''                                      ''
''  AUTOGENERATED CODE - - DO NOT EDIT!  ''
''                                      ''
''''''''''''''''''''''''''''''''''''''''''


title Backend
left to right direction
scale max 16384 height
hide empty description
skinparam state {
  BackgroundColor FloralWhite
  BorderColor Black
  ArrowColor Crimson
}
state "Dashboard" as X_0 {
  state "Pay" as _0
  state "Pay client" as _1
}
state "IdentityServer" as X_1 <<highlight>> {
  state "Authenticate" as _2 <<highlight>>
  state "CustomerProfile" as _3 <<highlight>>
  state "InsertCustomer client" as _4 <<highlight>>
  state "NewCustomer" as _5 <<highlight>>
  state "SelectCustomer client" as _6 <<highlight>>
  state "UpdatePassword" as _7 <<highlight>>
}
state "MasterCard" as X_2 {
  state "POST /pay" as _8
}
state "MegaDatabase" as X_3 <<highlight>> {
  state "InsertCustomer" as _9 <<highlight>>
  state "SelectCustomer" as _10 <<highlight>>
}
state "Mobile" as X_4 {
  state "Menu" as _11
  state "Menu client" as _12
  state "Order" as _13
  state "Order client" as _14
  state "PlaceOrder" as _15
  state "Review" as _16
  state "Review client" as _17
  state "UpdateOrderStatus client" as _18
}
state "OrderServer" as X_5 <<highlight>> {
  state "Order" as _19 <<highlight>>
  state "Review" as _20 <<highlight>>
  state "UpdateOrderStatus" as _21 <<highlight>>
}
state "PaymentServer" as X_6 <<highlight>> {
  state "POST /pay client" as _22 <<highlight>>
  state "Pay" as _23 <<highlight>>
  state "Pay client" as _24 <<highlight>>
}
state "ProductServer" as X_7 <<highlight>> {
  state "Menu" as _25 <<highlight>>
}
state "Visa" as X_8 {
  state "Pay" as _26
}
state "Website" as X_9 {
  state "Authenticate client" as _27
  state "ChangePassword" as _28
  state "CustomerProfile client" as _29
  state "Login" as _30
  state "Menu" as _31
  state "Menu client" as _32
  state "NewCustomer client" as _33
  state "Order" as _34
  state "Order client" as _35
  state "Pay" as _36
  state "Pay client" as _37
  state "PlaceOrder" as _38
  state "Profile" as _39
  state "Review" as _40
  state "Review client" as _41
  state "Signup" as _42
  state "UpdateOrderStatus client" as _43
  state "UpdatePassword client" as _44
}
_23 -[#silver]-> _24
_24 -[#black]> _26
_23 -[#silver]-> _22
_22 -[#black]> _8
_3 -[#silver]-> _6
_6 -[#black]> _10
_5 -[#silver]-> _4
_4 -[#black]> _9
_0 -[#silver]-> _1
_1 -[#black]> _23
_11 -[#silver]-> _12
_12 -[#black]> _25
_13 -[#silver]-> _14
_14 -[#black]> _19
_15 -[#silver]-> _18
_18 -[#black]> _21
_16 -[#silver]-> _17
_17 -[#black]> _20
_28 -[#silver]-> _44
_44 -[#black]> _7
_30 -[#silver]-> _27
_27 -[#black]> _2
_31 -[#silver]-> _32
_32 -[#black]> _25
_34 -[#silver]-> _35
_35 -[#black]> _19
_36 -[#silver]-> _37
_37 -[#black]> _23
_38 -[#silver]-> _43
_43 -[#black]> _21
_39 -[#silver]-> _29
_29 -[#black]> _3
_40 -[#silver]-> _41
_41 -[#black]> _20
_42 -[#silver]-> _33
_33 -[#black]> _5
@enduml

@startuml


title Backend
left to right direction
scale max 16384 height
hide empty description
skinparam state {
  BackgroundColor FloralWhite
  BorderColor Black
  ArrowColor Crimson
}
state "Dashboard" as X_0 {
  state "Pay" as _0
  state "Pay client" as _1
}
state "IdentityServer" as X_1 <<highlight>> {
  state "Authenticate" as _2 <<highlight>>
  state "CustomerProfile" as _3 <<highlight>>
  state "InsertCustomer client" as _4 <<highlight>>
  state "NewCustomer" as _5 <<highlight>>
  state "SelectCustomer client" as _6 <<highlight>>
  state "UpdatePassword" as _7 <<highlight>>
}
state "MasterCard" as X_2 {
  state "POST /pay" as _8
}
state "MegaDatabase" as X_3 <<highlight>> {
  state "InsertCustomer" as _9 <<highlight>>
  state "SelectCustomer" as _10 <<highlight>>
}
state "Mobile" as X_4 {
  state "Menu" as _11
  state "Menu client" as _12
  state "Order" as _13
  state "Order client" as _14
  state "PlaceOrder" as _15
  state "Review" as _16
  state "Review client" as _17
  state "UpdateOrderStatus client" as _18
}
state "OrderServer" as X_5 <<highlight>> {
  state "Order" as _19 <<highlight>>
  state "Review" as _20 <<highlight>>
  state "UpdateOrderStatus" as _21 <<highlight>>
}
state "PaymentServer" as X_6 <<highlight>> {
  state "POST /pay client" as _22 <<highlight>>
  state "Pay" as _23 <<highlight>>
  state "Pay client" as _24 <<highlight>>
}
state "ProductServer" as X_7 <<highlight>> {
  state "Menu" as _25 <<highlight>>
}
state "Visa" as X_8 {
  state "Pay" as _26
}
state "Website" as X_9 {
  state "Authenticate client" as _27
  state "ChangePassword" as _28
  state "CustomerProfile client" as _29
  state "Login" as _30
  state "Menu" as _31
  state "Menu client" as _32
  state "NewCustomer client" as _33
  state "Order" as _34
  state "Order client" as _35
  state "Pay" as _36
  state "Pay client" as _37
  state "PlaceOrder" as _38
  state "Profile" as _39
  state "Review" as _40
  state "Review client" as _41
  state "Signup" as _42
  state "UpdateOrderStatus client" as _43
  state "UpdatePassword client" as _44
}
_23 -[#silver]-> _24
_24 -[#black]> _26
_23 -[#silver]-> _22
_22 -[#black]> _8
_3 -[#silver]-> _6
_6 -[#black]> _10
_5 -[#silver]-> _4
_4 -[#black]> _9
_0 -[#silver]-> _1
_1 -[#black]> _23
_11 -[#silver]-> _12
_12 -[#black]> _25
_13 -[#silver]-> _14
_14 -[#black]> _19
_15 -[#silver]-> _18
_18 -[#black]> _21
_16 -[#silver]-> _17
_17 -[#black]> _20
_28 -[#silver]-> _44
_44 -[#black]> _7
_30 -[#silver]-> _27
_27 -[#black]> _2
_31 -[#silver]-> _32
_32 -[#black]> _25
_34 -[#silver]-> _35
_35 -[#black]> _19
_36 -[#silver]-> _37
_37 -[#black]> _23
_38 -[#silver]-> _43
_43 -[#black]> _21
_39 -[#silver]-> _29
_29 -[#black]> _3
_40 -[#silver]-> _41
_41 -[#black]> _20
_42 -[#silver]-> _33
_33 -[#black]> _5
@enduml

PlantUML version 1.2020.15(Sun Jun 28 11:39:45 UTC 2020)
(GPL source distribution)
Java Runtime: OpenJDK Runtime Environment
JVM: OpenJDK 64-Bit Server VM
Default Encoding: UTF-8
Language: en
Country: null
--></g></svg>