<?xml version="1.0" encoding="UTF-8" standalone="no"?><svg xmlns="http://www.w3.org/2000/svg" xmlns:xlink="http://www.w3.org/1999/xlink" contentScriptType="application/ecmascript" contentStyleType="text/css" height="2089px" preserveAspectRatio="none" style="width:580px;height:2089px;" version="1.1" viewBox="0 0 580 2089" width="580px" zoomAndPan="magnify"><defs><filter height="300%" id="fk8f8uozex1ep" width="300%" x="-1" y="-1"><feGaussianBlur result="blurOut" stdDeviation="2.0"/><feColorMatrix in="blurOut" result="blurOut2" type="matrix" values="0 0 0 0 0 0 0 0 0 0 0 0 0 0 0 0 0 0 .4 0"/><feOffset dx="4.0" dy="4.0" in="blurOut2" result="blurOut3"/><feBlend in="SourceGraphic" in2="blurOut3" mode="normal"/></filter></defs><g><text fill="#000000" font-family="sans-serif" font-size="18" lengthAdjust="spacingAndGlyphs" textLength="78" x="242" y="16.708">Backend</text><!--MD5=[758d88821a0e741df1f73accbabae398]
cluster X_0--><rect fill="#FFFAF0" filter="url(#fk8f8uozex1ep)" height="91" rx="12.5" ry="12.5" style="stroke: #000000; stroke-width: 1.5;" width="319" x="47" y="1850.9531"/><rect fill="#FFFFFF" height="58.7031" rx="12.5" ry="12.5" style="stroke: #FFFFFF; stroke-width: 1.0;" width="313" x="50" y="1880.25"/><line style="stroke: #000000; stroke-width: 1.5;" x1="47" x2="366" y1="1877.25" y2="1877.25"/><text fill="#000000" font-family="sans-serif" font-size="14" lengthAdjust="spacingAndGlyphs" textLength="77" x="168" y="1867.9482">Dashboard</text><!--MD5=[cecb9a85ae19b9003f4441b135e71cd6]
cluster X_1--><rect fill="#FFFAF0" filter="url(#fk8f8uozex1ep)" height="332" rx="12.5" ry="12.5" style="stroke: #000000; stroke-width: 1.5;" width="160" x="230" y="27.9531"/><rect fill="#FFFFFF" height="299.7031" rx="12.5" ry="12.5" style="stroke: #FFFFFF; stroke-width: 1.0;" width="154" x="233" y="57.25"/><line style="stroke: #000000; stroke-width: 1.5;" x1="230" x2="390" y1="54.25" y2="54.25"/><text fill="#000000" font-family="sans-serif" font-size="14" lengthAdjust="spacingAndGlyphs" textLength="104" x="258" y="44.9482">IdentityServer</text><!--MD5=[51e8d94a944361a156a1f52e5c4894ba]
cluster X_2--><rect fill="#FFFAF0" filter="url(#fk8f8uozex1ep)" height="316" rx="12.5" ry="12.5" style="stroke: #000000; stroke-width: 1.5;" width="395.5" x="27.5" y="1510.9531"/><rect fill="#FFFFFF" height="283.7031" rx="12.5" ry="12.5" style="stroke: #FFFFFF; stroke-width: 1.0;" width="389.5" x="30.5" y="1540.25"/><line style="stroke: #000000; stroke-width: 1.5;" x1="27.5" x2="423" y1="1537.25" y2="1537.25"/><text fill="#000000" font-family="sans-serif" font-size="14" lengthAdjust="spacingAndGlyphs" textLength="48" x="201.25" y="1527.9482">Mobile</text><!--MD5=[52e5ef116ba828aa6123157a74d6ac2a]
cluster X_3--><rect fill="#FFFAF0" filter="url(#fk8f8uozex1ep)" height="257" rx="12.5" ry="12.5" style="stroke: #000000; stroke-width: 1.5;" width="181" x="219.5" y="1098.9531"/><rect fill="#FFFFFF" height="224.7031" rx="12.5" ry="12.5" style="stroke: #FFFFFF; stroke-width: 1.0;" width="175" x="222.5" y="1128.25"/><line style="stroke: #000000; stroke-width: 1.5;" x1="219.5" x2="400.5" y1="1125.25" y2="1125.25"/><text fill="#000000" font-family="sans-serif" font-size="14" lengthAdjust="spacingAndGlyphs" textLength="88" x="266" y="1115.9482">OrderServer</text><!--MD5=[10c245466cf08064e9ba7704cd70265a]
cluster X_4--><rect fill="#FFFAF0" filter="url(#fk8f8uozex1ep)" height="107" rx="12.5" ry="12.5" style="stroke: #000000; stroke-width: 1.5;" width="294" x="269" y="1965.9531"/><rect fill="#FFFFFF" height="74.7031" rx="12.5" ry="12.5" style="stroke: #FFFFFF; stroke-width: 1.0;" width="288" x="272" y="1995.25"/><line style="stroke: #000000; stroke-width: 1.5;" x1="269" x2="563" y1="1992.25" y2="1992.25"/><text fill="#000000" font-family="sans-serif" font-size="14" lengthAdjust="spacingAndGlyphs" textLength="111" x="360.5" y="1982.9482">PaymentServer</text><!--MD5=[dfe8839dc810cb7b6db420a1627d41ba]
cluster X_5--><rect fill="#FFFAF0" filter="url(#fk8f8uozex1ep)" height="107" rx="12.5" ry="12.5" style="stroke: #000000; stroke-width: 1.5;" width="119" x="251" y="1379.9531"/><rect fill="#FFFFFF" height="74.7031" rx="12.5" ry="12.5" style="stroke: #FFFFFF; stroke-width: 1.0;" width="113" x="254" y="1409.25"/><line style="stroke: #000000; stroke-width: 1.5;" x1="251" x2="370" y1="1406.25" y2="1406.25"/><text fill="#000000" font-family="sans-serif" font-size="14" lengthAdjust="spacingAndGlyphs" textLength="103" x="259" y="1396.9482">ProductServer</text><!--MD5=[5077f028a0b9deb0e5bd5930e99c59be]
cluster X_6--><rect fill="#FFFAF0" filter="url(#fk8f8uozex1ep)" height="91" rx="12.5" ry="12.5" style="stroke: #000000; stroke-width: 1.5;" width="82" x="466" y="1850.9531"/><rect fill="#FFFFFF" height="58.7031" rx="12.5" ry="12.5" style="stroke: #FFFFFF; stroke-width: 1.0;" width="76" x="469" y="1880.25"/><line style="stroke: #000000; stroke-width: 1.5;" x1="466" x2="548" y1="1877.25" y2="1877.25"/><text fill="#000000" font-family="sans-serif" font-size="14" lengthAdjust="spacingAndGlyphs" textLength="29" x="492.5" y="1867.9482">Visa</text><!--MD5=[ec7116737ec83627e31da805d463bdc7]
cluster X_7--><rect fill="#FFFAF0" filter="url(#fk8f8uozex1ep)" height="691" rx="12.5" ry="12.5" style="stroke: #000000; stroke-width: 1.5;" width="416" x="7" y="383.9531"/><rect fill="#FFFFFF" height="658.7031" rx="12.5" ry="12.5" style="stroke: #FFFFFF; stroke-width: 1.0;" width="410" x="10" y="413.25"/><line style="stroke: #000000; stroke-width: 1.5;" x1="7" x2="423" y1="410.25" y2="410.25"/><text fill="#000000" font-family="sans-serif" font-size="14" lengthAdjust="spacingAndGlyphs" textLength="60" x="185" y="400.9482">Website</text><rect fill="#FFFAF0" filter="url(#fk8f8uozex1ep)" height="40" rx="12.5" ry="12.5" style="stroke: #000000; stroke-width: 1.5;" width="50" x="63" y="1885.9531"/><text fill="#000000" font-family="sans-serif" font-size="14" lengthAdjust="spacingAndGlyphs" textLength="25" x="75.5" y="1910.7998">Pay</text><rect fill="#FFFAF0" filter="url(#fk8f8uozex1ep)" height="40" rx="12.5" ry="12.5" style="stroke: #000000; stroke-width: 1.5;" width="80" x="270" y="1885.9531"/><text fill="#000000" font-family="sans-serif" font-size="14" lengthAdjust="spacingAndGlyphs" textLength="70" x="275" y="1910.7998">Pay client</text><rect fill="#FFFAF0" filter="url(#fk8f8uozex1ep)" height="40" rx="12.5" ry="12.5" style="stroke: #000000; stroke-width: 1.5;" width="105" x="257.5" y="153.9531"/><text fill="#000000" font-family="sans-serif" font-size="14" lengthAdjust="spacingAndGlyphs" textLength="95" x="262.5" y="178.7998">Authenticate</text><rect fill="#FFFAF0" filter="url(#fk8f8uozex1ep)" height="40" rx="12.5" ry="12.5" style="stroke: #000000; stroke-width: 1.5;" width="127" x="246.5" y="228.9531"/><text fill="#000000" font-family="sans-serif" font-size="14" lengthAdjust="spacingAndGlyphs" textLength="117" x="251.5" y="253.7998">CustomerProfile</text><rect fill="#FFFAF0" filter="url(#fk8f8uozex1ep)" height="40" rx="12.5" ry="12.5" style="stroke: #000000; stroke-width: 1.5;" width="110" x="255" y="303.9531"/><text fill="#000000" font-family="sans-serif" font-size="14" lengthAdjust="spacingAndGlyphs" textLength="100" x="260" y="328.7998">NewCustomer</text><rect fill="#FFFAF0" filter="url(#fk8f8uozex1ep)" height="40" rx="12.5" ry="12.5" style="stroke: #000000; stroke-width: 1.5;" width="128" x="246" y="78.9531"/><text fill="#000000" font-family="sans-serif" font-size="14" lengthAdjust="spacingAndGlyphs" textLength="118" x="251" y="103.7998">UpdatePassword</text><rect fill="#FFFAF0" filter="url(#fk8f8uozex1ep)" height="40" rx="12.5" ry="12.5" style="stroke: #000000; stroke-width: 1.5;" width="50" x="63" y="1545.9531"/><text fill="#000000" font-family="sans-serif" font-size="14" lengthAdjust="spacingAndGlyphs" textLength="38" x="69" y="1570.7998">Menu</text><rect fill="#FFFAF0" filter="url(#fk8f8uozex1ep)" height="40" rx="12.5" ry="12.5" style="stroke: #000000; stroke-width: 1.5;" width="93" x="263.5" y="1545.9531"/><text fill="#000000" font-family="sans-serif" font-size="14" lengthAdjust="spacingAndGlyphs" textLength="83" x="268.5" y="1570.7998">Menu client</text><rect fill="#FFFAF0" filter="url(#fk8f8uozex1ep)" height="40" rx="12.5" ry="12.5" style="stroke: #000000; stroke-width: 1.5;" width="51" x="62.5" y="1620.9531"/><text fill="#000000" font-family="sans-serif" font-size="14" lengthAdjust="spacingAndGlyphs" textLength="41" x="67.5" y="1645.7998">Order</text><rect fill="#FFFAF0" filter="url(#fk8f8uozex1ep)" height="40" rx="12.5" ry="12.5" style="stroke: #000000; stroke-width: 1.5;" width="96" x="262" y="1620.9531"/><text fill="#000000" font-family="sans-serif" font-size="14" lengthAdjust="spacingAndGlyphs" textLength="86" x="267" y="1645.7998">Order client</text><rect fill="#FFFAF0" filter="url(#fk8f8uozex1ep)" height="40" rx="12.5" ry="12.5" style="stroke: #000000; stroke-width: 1.5;" width="89" x="43.5" y="1695.9531"/><text fill="#000000" font-family="sans-serif" font-size="14" lengthAdjust="spacingAndGlyphs" textLength="79" x="48.5" y="1720.7998">PlaceOrder</text><rect fill="#FFFAF0" filter="url(#fk8f8uozex1ep)" height="40" rx="12.5" ry="12.5" style="stroke: #000000; stroke-width: 1.5;" width="61" x="57.5" y="1770.9531"/><text fill="#000000" font-family="sans-serif" font-size="14" lengthAdjust="spacingAndGlyphs" textLength="51" x="62.5" y="1795.7998">Review</text><rect fill="#FFFAF0" filter="url(#fk8f8uozex1ep)" height="40" rx="12.5" ry="12.5" style="stroke: #000000; stroke-width: 1.5;" width="106" x="257" y="1770.9531"/><text fill="#000000" font-family="sans-serif" font-size="14" lengthAdjust="spacingAndGlyphs" textLength="96" x="262" y="1795.7998">Review client</text><rect fill="#FFFAF0" filter="url(#fk8f8uozex1ep)" height="40" rx="12.5" ry="12.5" style="stroke: #000000; stroke-width: 1.5;" width="194" x="213" y="1695.9531"/><text fill="#000000" font-family="sans-serif" font-size="14" lengthAdjust="spacingAndGlyphs" textLength="184" x="218" y="1720.7998">UpdateOrderStatus client</text><rect fill="#FFFAF0" filter="url(#fk8f8uozex1ep)" height="40" rx="12.5" ry="12.5" style="stroke: #000000; stroke-width: 1.5;" width="51" x="284.5" y="1149.9531"/><text fill="#000000" font-family="sans-serif" font-size="14" lengthAdjust="spacingAndGlyphs" textLength="41" x="289.5" y="1174.7998">Order</text><rect fill="#FFFAF0" filter="url(#fk8f8uozex1ep)" height="40" rx="12.5" ry="12.5" style="stroke: #000000; stroke-width: 1.5;" width="61" x="279.5" y="1299.9531"/><text fill="#000000" font-family="sans-serif" font-size="14" lengthAdjust="spacingAndGlyphs" textLength="51" x="284.5" y="1324.7998">Review</text><rect fill="#FFFAF0" filter="url(#fk8f8uozex1ep)" height="40" rx="12.5" ry="12.5" style="stroke: #000000; stroke-width: 1.5;" width="149" x="235.5" y="1224.9531"/><text fill="#000000" font-family="sans-serif" font-size="14" lengthAdjust="spacingAndGlyphs" textLength="139" x="240.5" y="1249.7998">UpdateOrderStatus</text><rect fill="#FFFAF0" filter="url(#fk8f8uozex1ep)" height="40" rx="12.5" ry="12.5" style="stroke: #000000; stroke-width: 1.5;" width="50" x="285" y="2016.9531"/><text fill="#000000" font-family="sans-serif" font-size="14" lengthAdjust="spacingAndGlyphs" textLength="25" x="297.5" y="2041.7998">Pay</text><rect fill="#FFFAF0" filter="url(#fk8f8uozex1ep)" height="40" rx="12.5" ry="12.5" style="stroke: #000000; stroke-width: 1.5;" width="80" x="467" y="2016.9531"/><text fill="#000000" font-family="sans-serif" font-size="14" lengthAdjust="spacingAndGlyphs" textLength="70" x="472" y="2041.7998">Pay client</text><rect fill="#FFFAF0" filter="url(#fk8f8uozex1ep)" height="40" rx="12.5" ry="12.5" style="stroke: #000000; stroke-width: 1.5;" width="50" x="285" y="1430.9531"/><text fill="#000000" font-family="sans-serif" font-size="14" lengthAdjust="spacingAndGlyphs" textLength="38" x="291" y="1455.7998">Menu</text><rect fill="#FFFAF0" filter="url(#fk8f8uozex1ep)" height="40" rx="12.5" ry="12.5" style="stroke: #000000; stroke-width: 1.5;" width="50" x="482" y="1885.9531"/><text fill="#000000" font-family="sans-serif" font-size="14" lengthAdjust="spacingAndGlyphs" textLength="25" x="494.5" y="1910.7998">Pay</text><rect fill="#FFFAF0" filter="url(#fk8f8uozex1ep)" height="40" rx="12.5" ry="12.5" style="stroke: #000000; stroke-width: 1.5;" width="150" x="235" y="493.9531"/><text fill="#000000" font-family="sans-serif" font-size="14" lengthAdjust="spacingAndGlyphs" textLength="140" x="240" y="518.7998">Authenticate client</text><rect fill="#FFFAF0" filter="url(#fk8f8uozex1ep)" height="40" rx="12.5" ry="12.5" style="stroke: #000000; stroke-width: 1.5;" width="130" x="23" y="418.9531"/><text fill="#000000" font-family="sans-serif" font-size="14" lengthAdjust="spacingAndGlyphs" textLength="120" x="28" y="443.7998">ChangePassword</text><rect fill="#FFFAF0" filter="url(#fk8f8uozex1ep)" height="40" rx="12.5" ry="12.5" style="stroke: #000000; stroke-width: 1.5;" width="172" x="224" y="868.9531"/><text fill="#000000" font-family="sans-serif" font-size="14" lengthAdjust="spacingAndGlyphs" textLength="162" x="229" y="893.7998">CustomerProfile client</text><rect fill="#FFFAF0" filter="url(#fk8f8uozex1ep)" height="40" rx="12.5" ry="12.5" style="stroke: #000000; stroke-width: 1.5;" width="50" x="63" y="493.9531"/><text fill="#000000" font-family="sans-serif" font-size="14" lengthAdjust="spacingAndGlyphs" textLength="39" x="68.5" y="518.7998">Login</text><rect fill="#FFFAF0" filter="url(#fk8f8uozex1ep)" height="40" rx="12.5" ry="12.5" style="stroke: #000000; stroke-width: 1.5;" width="50" x="63" y="568.9531"/><text fill="#000000" font-family="sans-serif" font-size="14" lengthAdjust="spacingAndGlyphs" textLength="38" x="69" y="593.7998">Menu</text><rect fill="#FFFAF0" filter="url(#fk8f8uozex1ep)" height="40" rx="12.5" ry="12.5" style="stroke: #000000; stroke-width: 1.5;" width="93" x="263.5" y="568.9531"/><text fill="#000000" font-family="sans-serif" font-size="14" lengthAdjust="spacingAndGlyphs" textLength="83" x="268.5" y="593.7998">Menu client</text><rect fill="#FFFAF0" filter="url(#fk8f8uozex1ep)" height="40" rx="12.5" ry="12.5" style="stroke: #000000; stroke-width: 1.5;" width="155" x="232.5" y="1018.9531"/><text fill="#000000" font-family="sans-serif" font-size="14" lengthAdjust="spacingAndGlyphs" textLength="145" x="237.5" y="1043.7998">NewCustomer client</text><rect fill="#FFFAF0" filter="url(#fk8f8uozex1ep)" height="40" rx="12.5" ry="12.5" style="stroke: #000000; stroke-width: 1.5;" width="51" x="62.5" y="643.9531"/><text fill="#000000" font-family="sans-serif" font-size="14" lengthAdjust="spacingAndGlyphs" textLength="41" x="67.5" y="668.7998">Order</text><rect fill="#FFFAF0" filter="url(#fk8f8uozex1ep)" height="40" rx="12.5" ry="12.5" style="stroke: #000000; stroke-width: 1.5;" width="96" x="262" y="643.9531"/><text fill="#000000" font-family="sans-serif" font-size="14" lengthAdjust="spacingAndGlyphs" textLength="86" x="267" y="668.7998">Order client</text><rect fill="#FFFAF0" filter="url(#fk8f8uozex1ep)" height="40" rx="12.5" ry="12.5" style="stroke: #000000; stroke-width: 1.5;" width="50" x="63" y="718.9531"/><text fill="#000000" font-family="sans-serif" font-size="14" lengthAdjust="spacingAndGlyphs" textLength="25" x="75.5" y="743.7998">Pay</text><rect fill="#FFFAF0" filter="url(#fk8f8uozex1ep)" height="40" rx="12.5" ry="12.5" style="stroke: #000000; stroke-width: 1.5;" width="80" x="270" y="718.9531"/><text fill="#000000" font-family="sans-serif" font-size="14" lengthAdjust="spacingAndGlyphs" textLength="70" x="275" y="743.7998">Pay client</text><rect fill="#FFFAF0" filter="url(#fk8f8uozex1ep)" height="40" rx="12.5" ry="12.5" style="stroke: #000000; stroke-width: 1.5;" width="89" x="43.5" y="793.9531"/><text fill="#000000" font-family="sans-serif" font-size="14" lengthAdjust="spacingAndGlyphs" textLength="79" x="48.5" y="818.7998">PlaceOrder</text><rect fill="#FFFAF0" filter="url(#fk8f8uozex1ep)" height="40" rx="12.5" ry="12.5" style="stroke: #000000; stroke-width: 1.5;" width="57" x="59.5" y="868.9531"/><text fill="#000000" font-family="sans-serif" font-size="14" lengthAdjust="spacingAndGlyphs" textLength="47" x="64.5" y="893.7998">Profile</text><rect fill="#FFFAF0" filter="url(#fk8f8uozex1ep)" height="40" rx="12.5" ry="12.5" style="stroke: #000000; stroke-width: 1.5;" width="61" x="57.5" y="943.9531"/><text fill="#000000" font-family="sans-serif" font-size="14" lengthAdjust="spacingAndGlyphs" textLength="51" x="62.5" y="968.7998">Review</text><rect fill="#FFFAF0" filter="url(#fk8f8uozex1ep)" height="40" rx="12.5" ry="12.5" style="stroke: #000000; stroke-width: 1.5;" width="106" x="257" y="943.9531"/><text fill="#000000" font-family="sans-serif" font-size="14" lengthAdjust="spacingAndGlyphs" textLength="96" x="262" y="968.7998">Review client</text><rect fill="#FFFAF0" filter="url(#fk8f8uozex1ep)" height="40" rx="12.5" ry="12.5" style="stroke: #000000; stroke-width: 1.5;" width="59" x="58.5" y="1018.9531"/><text fill="#000000" font-family="sans-serif" font-size="14" lengthAdjust="spacingAndGlyphs" textLength="49" x="63.5" y="1043.7998">Signup</text><rect fill="#FFFAF0" filter="url(#fk8f8uozex1ep)" height="40" rx="12.5" ry="12.5" style="stroke: #000000; stroke-width: 1.5;" width="194" x="213" y="793.9531"/><text fill="#000000" font-family="sans-serif" font-size="14" lengthAdjust="spacingAndGlyphs" textLength="184" x="218" y="818.7998">UpdateOrderStatus client</text><rect fill="#FFFAF0" filter="url(#fk8f8uozex1ep)" height="40" rx="12.5" ry="12.5" style="stroke: #000000; stroke-width: 1.5;" width="173" x="223.5" y="418.9531"/><text fill="#000000" font-family="sans-serif" font-size="14" lengthAdjust="spacingAndGlyphs" textLength="163" x="228.5" y="443.7998">UpdatePassword client</text><!--MD5=[894229f1ebb5acb74a71ac5c51a7f2d5]
link _17 to _18--><path d="M335.303,2036.9531 C366.863,2036.9531 422.536,2036.9531 461.701,2036.9531 " fill="none" id="_17-&gt;_18" style="stroke: #C0C0C0; stroke-width: 1.0;"/><polygon fill="#C0C0C0" points="466.873,2036.9531,457.873,2032.9531,461.873,2036.9531,457.873,2040.9531,466.873,2036.9531" style="stroke: #C0C0C0; stroke-width: 1.0;"/><!--MD5=[ac87603f2473b7b07d0b22e29ba366f0]
link _18 to _20--><path d="M507,2016.7402 C507,1988.3581 507,1959.9751 507,1931.5921 " fill="none" id="_18-&gt;_20" style="stroke: #000000; stroke-width: 1.0;"/><polygon fill="#000000" points="507,1926.2931,503,1935.2931,507,1931.2931,511,1935.2931,507,1926.2931" style="stroke: #000000; stroke-width: 1.0;"/><!--MD5=[b84326987e98dcb917912705a3ef9c62]
link _0 to _1--><path d="M113.384,1905.9531 C149.795,1905.9531 218.957,1905.9531 264.521,1905.9531 " fill="none" id="_0-&gt;_1" style="stroke: #C0C0C0; stroke-width: 1.0;"/><polygon fill="#C0C0C0" points="269.68,1905.9531,260.68,1901.9531,264.68,1905.9531,260.68,1909.9531,269.68,1905.9531" style="stroke: #C0C0C0; stroke-width: 1.0;"/><!--MD5=[77fcc4949b1dac1eb154d6e24b7e3a15]
link _1 to _17--><path d="M310,1926.2931 C310,1954.6751 310,1983.0581 310,2011.4406 " fill="none" id="_1-&gt;_17" style="stroke: #000000; stroke-width: 1.0;"/><polygon fill="#000000" points="310,2016.7402,314,2007.7402,310,2011.7402,306,2007.7402,310,2016.7402" style="stroke: #000000; stroke-width: 1.0;"/><!--MD5=[a95ccebab27d805ca2570b1585a03a39]
link _6 to _7--><path d="M113.384,1565.9531 C148.179,1565.9531 212.883,1565.9531 258.32,1565.9531 " fill="none" id="_6-&gt;_7" style="stroke: #C0C0C0; stroke-width: 1.0;"/><polygon fill="#C0C0C0" points="263.485,1565.9531,254.485,1561.9531,258.485,1565.9531,254.485,1569.9531,263.485,1565.9531" style="stroke: #C0C0C0; stroke-width: 1.0;"/><!--MD5=[eb17bb6aebc3c0ee414e1ca96129a482]
link _7 to _19--><path d="M310,1545.7381 C310,1522.6751 310,1499.6131 310,1476.5501 " fill="none" id="_7-&gt;_19" style="stroke: #000000; stroke-width: 1.0;"/><polygon fill="#000000" points="310,1471.3171,306,1480.3171,310,1476.3171,314,1480.3171,310,1471.3171" style="stroke: #000000; stroke-width: 1.0;"/><!--MD5=[84e6f0f27a0fdef22c4f0577d9493251]
link _8 to _9--><path d="M113.809,1640.9531 C148.326,1640.9531 211.679,1640.9531 256.846,1640.9531 " fill="none" id="_8-&gt;_9" style="stroke: #C0C0C0; stroke-width: 1.0;"/><polygon fill="#C0C0C0" points="261.985,1640.9531,252.985,1636.9531,256.985,1640.9531,252.985,1644.9531,261.985,1640.9531" style="stroke: #C0C0C0; stroke-width: 1.0;"/><!--MD5=[f085de9e5163c84685ec56aa7cc4b6b5]
link _9 to _14--><path d="M261.796,1634.8411 C232.698,1628.2761 198.247,1614.6651 182.25,1586.4531 C162.465,1551.5611 162.465,1260.3451 182.25,1225.4531 C201.643,1191.2511 247.935,1178.1061 279.135,1173.0671 " fill="none" id="_9-&gt;_14" style="stroke: #000000; stroke-width: 1.0;"/><polygon fill="#000000" points="284.39,1172.2721,274.8926,1169.6645,279.4463,1173.0206,276.0902,1177.5743,284.39,1172.2721" style="stroke: #000000; stroke-width: 1.0;"/><!--MD5=[db76ade31f0e59746cb3b62dcdb56132]
link _10 to _13--><path d="M132.728,1715.9531 C154.226,1715.9531 181.109,1715.9531 207.354,1715.9531 " fill="none" id="_10-&gt;_13" style="stroke: #C0C0C0; stroke-width: 1.0;"/><polygon fill="#C0C0C0" points="212.593,1715.9531,203.593,1711.9531,207.593,1715.9531,203.593,1719.9531,212.593,1715.9531" style="stroke: #C0C0C0; stroke-width: 1.0;"/><!--MD5=[2f6d4b2c7d56411279b6b0b7bbdf080b]
link _13 to _16--><path d="M221.123,1695.8561 C205.244,1687.9271 190.992,1676.8701 182.25,1661.4531 C162.465,1626.5611 162.465,1335.3451 182.25,1300.4531 C192.696,1282.0311 210.946,1269.7181 230.437,1261.4901 " fill="none" id="_13-&gt;_16" style="stroke: #000000; stroke-width: 1.0;"/><polygon fill="#000000" points="235.416,1259.4851,225.5733,1259.1362,230.7779,1261.3527,228.5614,1266.5572,235.416,1259.4851" style="stroke: #000000; stroke-width: 1.0;"/><!--MD5=[7a2cb289c35b92a5a43b54d75e95b057]
link _11 to _12--><path d="M118.67,1790.9531 C152.594,1790.9531 208.931,1790.9531 251.531,1790.9531 " fill="none" id="_11-&gt;_12" style="stroke: #C0C0C0; stroke-width: 1.0;"/><polygon fill="#C0C0C0" points="256.656,1790.9531,247.656,1786.9531,251.656,1790.9531,247.656,1794.9531,256.656,1790.9531" style="stroke: #C0C0C0; stroke-width: 1.0;"/><!--MD5=[c5fe2e14c77eb0b9efc7a536e5ae32c6]
link _12 to _15--><path d="M256.883,1783.6761 C228.913,1776.7131 197.355,1763.0921 182.25,1736.4531 C148.928,1677.6871 154.433,1494.0161 182.25,1432.4531 C201.098,1390.7411 243.901,1358.3221 274.773,1339.2201 " fill="none" id="_12-&gt;_15" style="stroke: #000000; stroke-width: 1.0;"/><polygon fill="#000000" points="279.238,1336.4991,269.4714,1337.7695,274.9691,1339.1022,273.6364,1344.5998,279.238,1336.4991" style="stroke: #000000; stroke-width: 1.0;"/><!--MD5=[df696a05833165803d5025b85d7af4ee]
link _22 to _38--><path d="M153.225,438.9531 C173.537,438.9531 196.385,438.9531 218.194,438.9531 " fill="none" id="_22-&gt;_38" style="stroke: #C0C0C0; stroke-width: 1.0;"/><polygon fill="#C0C0C0" points="223.417,438.9531,214.417,434.9531,218.417,438.9531,214.417,442.9531,223.417,438.9531" style="stroke: #C0C0C0; stroke-width: 1.0;"/><!--MD5=[662ffa914583fafc77333fa8c2c77368]
link _38 to _5--><path d="M265.764,418.9231 C236.173,402.8831 199.593,377.2931 182.25,342.4531 C163.532,304.8531 161.534,189.9931 182.25,153.4531 C194.52,131.8131 217.646,118.7631 240.886,110.8931 " fill="none" id="_38-&gt;_5" style="stroke: #000000; stroke-width: 1.0;"/><polygon fill="#000000" points="245.843,109.2931,236.0491,108.2541,241.0852,110.8305,238.5089,115.8666,245.843,109.2931" style="stroke: #000000; stroke-width: 1.0;"/><!--MD5=[3f32f7e64e852c2a4e58d517cf12c031]
link _24 to _21--><path d="M113.384,513.9531 C141.279,513.9531 188.396,513.9531 229.398,513.9531 " fill="none" id="_24-&gt;_21" style="stroke: #C0C0C0; stroke-width: 1.0;"/><polygon fill="#C0C0C0" points="234.623,513.9531,225.623,509.9531,229.623,513.9531,225.623,517.9531,234.623,513.9531" style="stroke: #C0C0C0; stroke-width: 1.0;"/><!--MD5=[3eb8102d9f0d55dc06619c31172b757d]
link _21 to _2--><path d="M234.704,499.7831 C213.624,491.7531 193.43,479.1731 182.25,459.4531 C156.93,414.8031 156.93,273.1031 182.25,228.4531 C196.526,203.2731 225.498,189.7231 252.248,182.4331 " fill="none" id="_21-&gt;_2" style="stroke: #000000; stroke-width: 1.0;"/><polygon fill="#000000" points="257.213,181.1431,247.4967,179.5328,252.3734,182.3994,249.5068,187.2761,257.213,181.1431" style="stroke: #000000; stroke-width: 1.0;"/><!--MD5=[e5ebfae5959daf37b5a780ea65c24d34]
link _25 to _26--><path d="M113.384,588.9531 C148.179,588.9531 212.883,588.9531 258.32,588.9531 " fill="none" id="_25-&gt;_26" style="stroke: #C0C0C0; stroke-width: 1.0;"/><polygon fill="#C0C0C0" points="263.485,588.9531,254.485,584.9531,258.485,588.9531,254.485,592.9531,263.485,588.9531" style="stroke: #C0C0C0; stroke-width: 1.0;"/><!--MD5=[8ee1f343b60f913813d76395566995bd]
link _26 to _19--><path d="M263.443,595.1031 C234.028,601.7631 198.591,615.6331 182.25,644.4531 C144.215,711.5331 150.498,1268.1831 182.25,1338.4531 C202.257,1382.7321 249.259,1416.5381 280.329,1435.0611 " fill="none" id="_26-&gt;_19" style="stroke: #000000; stroke-width: 1.0;"/><polygon fill="#000000" points="284.793,1437.6821,279.0572,1429.6759,280.4813,1435.1505,275.0066,1436.5746,284.793,1437.6821" style="stroke: #000000; stroke-width: 1.0;"/><!--MD5=[2a868a36972d24ccff76334e9fba78c6]
link _28 to _29--><path d="M113.809,663.9531 C148.326,663.9531 211.679,663.9531 256.846,663.9531 " fill="none" id="_28-&gt;_29" style="stroke: #C0C0C0; stroke-width: 1.0;"/><polygon fill="#C0C0C0" points="261.985,663.9531,252.985,659.9531,256.985,663.9531,252.985,667.9531,261.985,663.9531" style="stroke: #C0C0C0; stroke-width: 1.0;"/><!--MD5=[127222b6f15f422eb653c4ad85cd95ac]
link _29 to _14--><path d="M261.827,670.4731 C232.741,677.2731 198.292,691.1631 182.25,719.4531 C145.202,784.7931 151.322,989.0031 182.25,1057.4531 C202.141,1101.4751 248.715,1135.1461 279.787,1153.7371 " fill="none" id="_29-&gt;_14" style="stroke: #000000; stroke-width: 1.0;"/><polygon fill="#000000" points="284.254,1156.3701,278.5315,1148.3543,279.9465,1153.8313,274.4695,1155.2463,284.254,1156.3701" style="stroke: #000000; stroke-width: 1.0;"/><!--MD5=[d60252dbe7f2f6fb9b6d8ea872b98467]
link _30 to _31--><path d="M113.384,738.9531 C149.795,738.9531 218.957,738.9531 264.521,738.9531 " fill="none" id="_30-&gt;_31" style="stroke: #C0C0C0; stroke-width: 1.0;"/><polygon fill="#C0C0C0" points="269.68,738.9531,260.68,734.9531,264.68,738.9531,260.68,742.9531,269.68,738.9531" style="stroke: #C0C0C0; stroke-width: 1.0;"/><!--MD5=[1154c55cd2570c94414d3965e40d398f]
link _31 to _17--><path d="M269.779,743.7531 C239.303,749.8231 199.783,763.5331 182.25,794.4531 C151.285,849.0631 156.4,1867.2441 182.25,1924.4531 C202.257,1968.7321 249.259,2002.5386 280.329,2021.0607 " fill="none" id="_31-&gt;_17" style="stroke: #000000; stroke-width: 1.0;"/><polygon fill="#000000" points="284.793,2023.682,279.0571,2015.6758,280.4812,2021.1505,275.0066,2022.5747,284.793,2023.682" style="stroke: #000000; stroke-width: 1.0;"/><!--MD5=[b81353deead7f8fe38602553f4796db1]
link _32 to _37--><path d="M132.728,813.9531 C154.226,813.9531 181.109,813.9531 207.354,813.9531 " fill="none" id="_32-&gt;_37" style="stroke: #C0C0C0; stroke-width: 1.0;"/><polygon fill="#C0C0C0" points="212.593,813.9531,203.593,809.9531,207.593,813.9531,203.593,817.9531,212.593,813.9531" style="stroke: #C0C0C0; stroke-width: 1.0;"/><!--MD5=[764be7e9b2aeb13d73c90fefad743d67]
link _37 to _16--><path d="M222.787,833.9731 C206.257,842.0831 191.315,853.4631 182.25,869.4531 C147.065,931.5031 147.065,1128.4011 182.25,1190.4531 C192.666,1208.8231 210.907,1221.0021 230.399,1229.0771 " fill="none" id="_37-&gt;_16" style="stroke: #000000; stroke-width: 1.0;"/><polygon fill="#000000" points="235.377,1231.0431,228.4764,1224.0159,230.7268,1229.2059,225.5368,1231.4563,235.377,1231.0431" style="stroke: #000000; stroke-width: 1.0;"/><!--MD5=[2487165b1c7d1540967cb357003a2f2f]
link _33 to _23--><path d="M116.863,888.9531 C142.43,888.9531 181.752,888.9531 218.178,888.9531 " fill="none" id="_33-&gt;_23" style="stroke: #C0C0C0; stroke-width: 1.0;"/><polygon fill="#C0C0C0" points="223.529,888.9531,214.529,884.9531,218.529,888.9531,214.529,892.9531,223.529,888.9531" style="stroke: #C0C0C0; stroke-width: 1.0;"/><!--MD5=[af7e47c772f271759f73986dbc9491ff]
link _23 to _3--><path d="M223.729,870.1231 C206.812,862.1131 191.467,850.7131 182.25,834.4531 C153.148,783.1331 153.148,354.7731 182.25,303.4531 C194.575,281.7131 217.855,268.6431 241.202,260.7931 " fill="none" id="_23-&gt;_3" style="stroke: #000000; stroke-width: 1.0;"/><polygon fill="#000000" points="246.181,259.1931,236.3888,258.1381,241.4207,260.7227,238.8361,265.7546,246.181,259.1931" style="stroke: #000000; stroke-width: 1.0;"/><!--MD5=[f123722eccb79b284378b0c21d8399f6]
link _34 to _35--><path d="M118.67,963.9531 C152.594,963.9531 208.931,963.9531 251.531,963.9531 " fill="none" id="_34-&gt;_35" style="stroke: #C0C0C0; stroke-width: 1.0;"/><polygon fill="#C0C0C0" points="256.656,963.9531,247.656,959.9531,251.656,963.9531,247.656,967.9531,256.656,963.9531" style="stroke: #C0C0C0; stroke-width: 1.0;"/><!--MD5=[b96347c17479485405a7dafa2861746e]
link _35 to _15--><path d="M256.916,971.6731 C228.957,978.8731 197.398,992.7431 182.25,1019.4531 C155.286,1067.0031 155.286,1217.8991 182.25,1265.4531 C200.576,1297.7731 243.123,1310.9311 274.094,1316.2851 " fill="none" id="_35-&gt;_15" style="stroke: #000000; stroke-width: 1.0;"/><polygon fill="#000000" points="279.346,1317.1381,271.1052,1311.7447,274.4109,1316.3351,269.8204,1319.6408,279.346,1317.1381" style="stroke: #000000; stroke-width: 1.0;"/><!--MD5=[d0f58e469c1b17a9aa7798534685cc14]
link _36 to _27--><path d="M117.761,1038.9531 C145.517,1038.9531 188.863,1038.9531 227.274,1038.9531 " fill="none" id="_36-&gt;_27" style="stroke: #C0C0C0; stroke-width: 1.0;"/><polygon fill="#C0C0C0" points="232.417,1038.9531,223.417,1034.9531,227.417,1038.9531,223.417,1042.9531,232.417,1038.9531" style="stroke: #C0C0C0; stroke-width: 1.0;"/><!--MD5=[45fd7fcef195c93c3984e530ef458746]
link _27 to _4--><path d="M232.354,1023.8731 C212.132,1015.8131 193.014,1003.4331 182.25,984.4531 C151.34,929.9431 154.321,476.5531 182.25,420.4531 C198.712,387.3831 232.508,362.6431 261.205,346.5031 " fill="none" id="_27-&gt;_4" style="stroke: #000000; stroke-width: 1.0;"/><polygon fill="#000000" points="265.764,343.9831,255.9511,344.8241,261.385,346.3966,259.8126,351.8305,265.764,343.9831" style="stroke: #000000; stroke-width: 1.0;"/><!--MD5=[824ad9cac1a31b6027a76499891ee6bc]
@startuml
''''''''''''''''''''''''''''''''''''''''''
''                                      ''
''  AUTOGENERATED CODE - - DO NOT EDIT!  ''
''                                      ''
''''''''''''''''''''''''''''''''''''''''''


title Backend
left to right direction
scale max 16384 height
hide empty description
skinparam state {
  BackgroundColor FloralWhite
  BorderColor Black
  ArrowColor Crimson
}
state "Dashboard" as X_0 {
  state "Pay" as _0
  state "Pay client" as _1
}
state "IdentityServer" as X_1 <<highlight>> {
  state "Authenticate" as _2 <<highlight>>
  state "CustomerProfile" as _3 <<highlight>>
  state "NewCustomer" as _4 <<highlight>>
  state "UpdatePassword" as _5 <<highlight>>
}
state "Mobile" as X_2 {
  state "Menu" as _6
  state "Menu client" as _7
  state "Order" as _8
  state "Order client" as _9
  state "PlaceOrder" as _10
  state "Review" as _11
  state "Review client" as _12
  state "UpdateOrderStatus client" as _13
}
state "OrderServer" as X_3 <<highlight>> {
  state "Order" as _14 <<highlight>>
  state "Review" as _15 <<highlight>>
  state "UpdateOrderStatus" as _16 <<highlight>>
}
state "PaymentServer" as X_4 <<highlight>> {
  state "Pay" as _17 <<highlight>>
  state "Pay client" as _18 <<highlight>>
}
state "ProductServer" as X_5 <<highlight>> {
  state "Menu" as _19 <<highlight>>
}
state "Visa" as X_6 {
  state "Pay" as _20
}
state "Website" as X_7 {
  state "Authenticate client" as _21
  state "ChangePassword" as _22
  state "CustomerProfile client" as _23
  state "Login" as _24
  state "Menu" as _25
  state "Menu client" as _26
  state "NewCustomer client" as _27
  state "Order" as _28
  state "Order client" as _29
  state "Pay" as _30
  state "Pay client" as _31
  state "PlaceOrder" as _32
  state "Profile" as _33
  state "Review" as _34
  state "Review client" as _35
  state "Signup" as _36
  state "UpdateOrderStatus client" as _37
  state "UpdatePassword client" as _38
}
_17 -[#silver]-> _18
_18 -[#black]> _20
_0 -[#silver]-> _1
_1 -[#black]> _17
_6 -[#silver]-> _7
_7 -[#black]> _19
_8 -[#silver]-> _9
_9 -[#black]> _14
_10 -[#silver]-> _13
_13 -[#black]> _16
_11 -[#silver]-> _12
_12 -[#black]> _15
_22 -[#silver]-> _38
_38 -[#black]> _5
_24 -[#silver]-> _21
_21 -[#black]> _2
_25 -[#silver]-> _26
_26 -[#black]> _19
_28 -[#silver]-> _29
_29 -[#black]> _14
_30 -[#silver]-> _31
_31 -[#black]> _17
_32 -[#silver]-> _37
_37 -[#black]> _16
_33 -[#silver]-> _23
_23 -[#black]> _3
_34 -[#silver]-> _35
_35 -[#black]> _15
_36 -[#silver]-> _27
_27 -[#black]> _4
@enduml

@startuml


title Backend
left to right direction
scale max 16384 height
hide empty description
skinparam state {
  BackgroundColor FloralWhite
  BorderColor Black
  ArrowColor Crimson
}
state "Dashboard" as X_0 {
  state "Pay" as _0
  state "Pay client" as _1
}
state "IdentityServer" as X_1 <<highlight>> {
  state "Authenticate" as _2 <<highlight>>
  state "CustomerProfile" as _3 <<highlight>>
  state "NewCustomer" as _4 <<highlight>>
  state "UpdatePassword" as _5 <<highlight>>
}
state "Mobile" as X_2 {
  state "Menu" as _6
  state "Menu client" as _7
  state "Order" as _8
  state "Order client" as _9
  state "PlaceOrder" as _10
  state "Review" as _11
  state "Review client" as _12
  state "UpdateOrderStatus client" as _13
}
state "OrderServer" as X_3 <<highlight>> {
  state "Order" as _14 <<highlight>>
  state "Review" as _15 <<highlight>>
  state "UpdateOrderStatus" as _16 <<highlight>>
}
state "PaymentServer" as X_4 <<highlight>> {
  state "Pay" as _17 <<highlight>>
  state "Pay client" as _18 <<highlight>>
}
state "ProductServer" as X_5 <<highlight>> {
  state "Menu" as _19 <<highlight>>
}
state "Visa" as X_6 {
  state "Pay" as _20
}
state "Website" as X_7 {
  state "Authenticate client" as _21
  state "ChangePassword" as _22
  state "CustomerProfile client" as _23
  state "Login" as _24
  state "Menu" as _25
  state "Menu client" as _26
  state "NewCustomer client" as _27
  state "Order" as _28
  state "Order client" as _29
  state "Pay" as _30
  state "Pay client" as _31
  state "PlaceOrder" as _32
  state "Profile" as _33
  state "Review" as _34
  state "Review client" as _35
  state "Signup" as _36
  state "UpdateOrderStatus client" as _37
  state "UpdatePassword client" as _38
}
_17 -[#silver]-> _18
_18 -[#black]> _20
_0 -[#silver]-> _1
_1 -[#black]> _17
_6 -[#silver]-> _7
_7 -[#black]> _19
_8 -[#silver]-> _9
_9 -[#black]> _14
_10 -[#silver]-> _13
_13 -[#black]> _16
_11 -[#silver]-> _12
_12 -[#black]> _15
_22 -[#silver]-> _38
_38 -[#black]> _5
_24 -[#silver]-> _21
_21 -[#black]> _2
_25 -[#silver]-> _26
_26 -[#black]> _19
_28 -[#silver]-> _29
_29 -[#black]> _14
_30 -[#silver]-> _31
_31 -[#black]> _17
_32 -[#silver]-> _37
_37 -[#black]> _16
_33 -[#silver]-> _23
_23 -[#black]> _3
_34 -[#silver]-> _35
_35 -[#black]> _15
_36 -[#silver]-> _27
_27 -[#black]> _4
@enduml

PlantUML version 1.2020.16beta7(Unknown compile time)
(GPL source distribution)
Java Runtime: Java(TM) SE Runtime Environment
JVM: Java HotSpot(TM) 64-Bit Server VM
Default Encoding: UTF-8
Language: en
Country: US
--></g></svg>