<?xml version="1.0" encoding="UTF-8" standalone="no"?><svg xmlns="http://www.w3.org/2000/svg" xmlns:xlink="http://www.w3.org/1999/xlink" contentScriptType="application/ecmascript" contentStyleType="text/css" height="66px" preserveAspectRatio="none" style="width:176px;height:66px;" version="1.1" viewBox="0 0 176 66" width="176px" zoomAndPan="magnify"><defs><filter height="300%" id="f99dm7gx9ylls" width="300%" x="-1" y="-1"><feGaussianBlur result="blurOut" stdDeviation="2.0"/><feColorMatrix in="blurOut" result="blurOut2" type="matrix" values="0 0 0 0 0 0 0 0 0 0 0 0 0 0 0 0 0 0 .4 0"/><feOffset dx="4.0" dy="4.0" in="blurOut2" result="blurOut3"/><feBlend in="SourceGraphic" in2="blurOut3" mode="normal"/></filter></defs><g><!--MD5=[f77682fd75c3e1fc6a82f566c0814d0f]
class _0--><rect fill="#FEFECE" filter="url(#f99dm7gx9ylls)" height="48" id="_0" style="stroke: #A80036; stroke-width: 1.5;" width="158" x="7" y="7"/><ellipse cx="22" cy="23" fill="#DA70D6" rx="11" ry="11" style="stroke: #A80036; stroke-width: 1.0;"/><path d="M21.0859,19.3149 L21.0859,27.292 L21.75,27.292 Q23.1943,27.292 23.8086,26.3831 Q24.4229,25.4741 24.4229,23.291 Q24.4229,21.1245 23.8086,20.2197 Q23.1943,19.3149 21.75,19.3149 Z M18.6372,17.1069 L21.2603,17.1069 Q24.2983,17.1069 25.6348,18.5554 Q26.9712,20.0039 26.9712,23.291 Q26.9712,26.5864 25.6348,28.0432 Q24.2983,29.5 21.2603,29.5 L18.6372,29.5 Z "/><text fill="#000000" font-family="sans-serif" font-size="12" lengthAdjust="spacingAndGlyphs" textLength="126" x="36" y="27.5352">MegaDatabase.Empty</text><line style="stroke: #A80036; stroke-width: 1.5;" x1="8" x2="164" y1="39" y2="39"/><line style="stroke: #A80036; stroke-width: 1.5;" x1="8" x2="164" y1="47" y2="47"/><!--MD5=[d8250e8fd972ce6ccd1ba3de76be6dcd]
@startuml
''''''''''''''''''''''''''''''''''''''''''
''                                      ''
''  AUTOGENERATED CODE - - DO NOT EDIT!  ''
''                                      ''
''''''''''''''''''''''''''''''''''''''''''

class "MegaDatabase.Empty" as _0<< (D,orchid) >> {
}
@enduml

@startuml

class "MegaDatabase.Empty" as _0<< (D,orchid) >> {
}
@enduml

PlantUML version 1.2020.10(Sun May 17 19:35:57 AEST 2020)
(GPL source distribution)
Java Runtime: Java(TM) SE Runtime Environment
JVM: Java HotSpot(TM) 64-Bit Server VM
Java Version: 13.0.1+9
Operating System: Mac OS X
Default Encoding: UTF-8
Language: en
Country: AU
--></g></svg>