<?xml version="1.0" encoding="UTF-8" standalone="no"?><svg xmlns="http://www.w3.org/2000/svg" xmlns:xlink="http://www.w3.org/1999/xlink" contentScriptType="application/ecmascript" contentStyleType="text/css" height="261px" preserveAspectRatio="none" style="width:141px;height:261px;" version="1.1" viewBox="0 0 141 261" width="141px" zoomAndPan="magnify"><defs><filter height="300%" id="f1anovx0q4y49r" width="300%" x="-1" y="-1"><feGaussianBlur result="blurOut" stdDeviation="2.0"/><feColorMatrix in="blurOut" result="blurOut2" type="matrix" values="0 0 0 0 0 0 0 0 0 0 0 0 0 0 0 0 0 0 .4 0"/><feOffset dx="4.0" dy="4.0" in="blurOut2" result="blurOut3"/><feBlend in="SourceGraphic" in2="blurOut3" mode="normal"/></filter></defs><g><text fill="#000000" font-family="sans-serif" font-size="18" lengthAdjust="spacingAndGlyphs" textLength="100" x="16" y="26.708">that &lt;- this</text><rect fill="#FFFFFF" filter="url(#f1anovx0q4y49r)" height="29.1328" style="stroke: #A80036; stroke-width: 1.0;" width="10" x="45" y="160.5156"/><rect fill="#FFFFFF" filter="url(#f1anovx0q4y49r)" height="9" style="stroke: #A80036; stroke-width: 1.0;" width="10" x="97" y="189.6484"/><line style="stroke: #A80036; stroke-width: 1.0; stroke-dasharray: 5.0,5.0;" x1="49.5" x2="49.5" y1="86.25" y2="207.6484"/><line style="stroke: #A80036; stroke-width: 1.0; stroke-dasharray: 5.0,5.0;" x1="102" x2="102" y1="86.25" y2="207.6484"/><text fill="#000000" font-family="sans-serif" font-size="14" lengthAdjust="spacingAndGlyphs" textLength="27" x="33.5" y="82.9482">that</text><ellipse cx="50" cy="53.9531" fill="#FEFECE" filter="url(#f1anovx0q4y49r)" rx="12" ry="12" style="stroke: #A80036; stroke-width: 2.0;"/><polygon fill="#A80036" points="46,41.9531,52,36.9531,50,41.9531,52,46.9531,46,41.9531" style="stroke: #A80036; stroke-width: 1.0;"/><text fill="#000000" font-family="sans-serif" font-size="14" lengthAdjust="spacingAndGlyphs" textLength="27" x="33.5" y="219.6436">that</text><ellipse cx="50" cy="238.9453" fill="#FEFECE" filter="url(#f1anovx0q4y49r)" rx="12" ry="12" style="stroke: #A80036; stroke-width: 2.0;"/><polygon fill="#A80036" points="46,226.9453,52,221.9453,50,226.9453,52,231.9453,46,226.9453" style="stroke: #A80036; stroke-width: 1.0;"/><text fill="#000000" font-family="sans-serif" font-size="14" lengthAdjust="spacingAndGlyphs" textLength="25" x="86.5" y="82.9482">this</text><ellipse cx="102" cy="53.9531" fill="#FEFECE" filter="url(#f1anovx0q4y49r)" rx="12" ry="12" style="stroke: #A80036; stroke-width: 2.0;"/><polygon fill="#A80036" points="98,41.9531,104,36.9531,102,41.9531,104,46.9531,98,41.9531" style="stroke: #A80036; stroke-width: 1.0;"/><text fill="#000000" font-family="sans-serif" font-size="14" lengthAdjust="spacingAndGlyphs" textLength="25" x="86.5" y="219.6436">this</text><ellipse cx="102" cy="238.9453" fill="#FEFECE" filter="url(#f1anovx0q4y49r)" rx="12" ry="12" style="stroke: #A80036; stroke-width: 2.0;"/><polygon fill="#A80036" points="98,226.9453,104,221.9453,102,226.9453,104,231.9453,98,226.9453" style="stroke: #A80036; stroke-width: 1.0;"/><rect fill="#FFFFFF" filter="url(#f1anovx0q4y49r)" height="29.1328" style="stroke: #A80036; stroke-width: 1.0;" width="10" x="45" y="160.5156"/><rect fill="#FFFFFF" filter="url(#f1anovx0q4y49r)" height="9" style="stroke: #A80036; stroke-width: 1.0;" width="10" x="97" y="189.6484"/><rect fill="#EEEEEE" filter="url(#f1anovx0q4y49r)" height="3" style="stroke: #EEEEEE; stroke-width: 1.0;" width="126" x="3" y="116.8164"/><line style="stroke: #000000; stroke-width: 1.0;" x1="3" x2="129" y1="116.8164" y2="116.8164"/><line style="stroke: #000000; stroke-width: 1.0;" x1="3" x2="129" y1="119.8164" y2="119.8164"/><rect fill="#EEEEEE" filter="url(#f1anovx0q4y49r)" height="23.1328" style="stroke: #000000; stroke-width: 2.0;" width="102" x="15" y="106.25"/><text fill="#000000" font-family="sans-serif" font-size="13" font-weight="bold" lengthAdjust="spacingAndGlyphs" textLength="83" x="21" y="122.3169">that &lt;- this</text><polygon fill="#A80036" points="33,156.5156,43,160.5156,33,164.5156,37,160.5156" style="stroke: #A80036; stroke-width: 1.0;"/><line style="stroke: #A80036; stroke-width: 1.0;" x1="3" x2="39" y1="160.5156" y2="160.5156"/><text fill="#000000" font-family="sans-serif" font-size="13" lengthAdjust="spacingAndGlyphs" textLength="23" x="10" y="155.4497">this</text><polygon fill="#A80036" points="85,185.6484,95,189.6484,85,193.6484,89,189.6484" style="stroke: #A80036; stroke-width: 1.0;"/><line style="stroke: #A80036; stroke-width: 1.0;" x1="50" x2="91" y1="189.6484" y2="189.6484"/><text fill="#000000" font-family="sans-serif" font-size="13" lengthAdjust="spacingAndGlyphs" textLength="23" x="57" y="184.5825">this</text><!--MD5=[ea970a0c9ba2858253c01eafa85217ba]
@startuml


control "that" as _0
control "this" as _1
skinparam maxMessageSize 250
title that <- this
== that <- this ==
[->_0 : this
activate _0
 _0->_1 : this
 deactivate _0
 activate _1
 deactivate _1
@enduml

PlantUML version 1.2020.09(Sun May 10 10:51:06 UTC 2020)
(GPL source distribution)
Java Runtime: OpenJDK Runtime Environment
JVM: OpenJDK 64-Bit Server VM
Java Version: 1.8.0_252-b09
Operating System: Linux
Default Encoding: UTF-8
Language: en
Country: null
--></g></svg>