<?xml version="1.0" encoding="UTF-8" standalone="no"?><svg xmlns="http://www.w3.org/2000/svg" xmlns:xlink="http://www.w3.org/1999/xlink" contentScriptType="application/ecmascript" contentStyleType="text/css" height="213px" preserveAspectRatio="none" style="width:392px;height:213px;" version="1.1" viewBox="0 0 392 213" width="392px" zoomAndPan="magnify"><defs><filter height="300%" id="f1r5nacn4o6qgp" width="300%" x="-1" y="-1"><feGaussianBlur result="blurOut" stdDeviation="2.0"/><feColorMatrix in="blurOut" result="blurOut2" type="matrix" values="0 0 0 0 0 0 0 0 0 0 0 0 0 0 0 0 0 0 .4 0"/><feOffset dx="4.0" dy="4.0" in="blurOut2" result="blurOut3"/><feBlend in="SourceGraphic" in2="blurOut3" mode="normal"/></filter></defs><g><!--MD5=[f77682fd75c3e1fc6a82f566c0814d0f]
class _0--><rect fill="#FEFECE" filter="url(#f1r5nacn4o6qgp)" height="48" id="_0" style="stroke: #A80036; stroke-width: 1.5;" width="169" x="6" y="148.5"/><ellipse cx="21" cy="164.5" fill="#DA70D6" rx="11" ry="11" style="stroke: #A80036; stroke-width: 1.0;"/><path d="M18.2656,167.7969 L18.2656,161.2813 C17.5938,161.2813 17.2188,160.9844 17.2188,160.4375 C17.2188,160.1563 17.375,159.8594 17.625,159.7031 C17.7813,159.6094 17.9063,159.5938 18.3594,159.5938 L21.9688,159.5938 C24.4531,159.5938 26.3438,161.6406 26.3438,164.3125 L26.3438,165.1094 C26.3438,166.3594 25.9375,167.4063 25.1563,168.2188 C24.3281,169.1094 23.3125,169.5 21.8281,169.5 L18.3594,169.5 C17.9531,169.5 17.7344,169.4531 17.5781,169.3281 C17.3594,169.1719 17.2188,168.9063 17.2188,168.6563 C17.2188,168.1094 17.6094,167.7969 18.2656,167.7969 Z M19.9531,167.7969 L21.8438,167.7969 C22.8594,167.7969 23.4219,167.5938 23.9531,167.0469 C24.4219,166.5313 24.6563,165.9375 24.6563,165.0625 L24.6563,164.2813 C24.6563,163.4844 24.375,162.7344 23.8906,162.1563 C23.375,161.5625 22.7344,161.2813 21.8281,161.2813 L19.9531,161.2813 Z "/><text fill="#000000" font-family="sans-serif" font-size="12" lengthAdjust="spacingAndGlyphs" textLength="137" x="35" y="168.6543">MegaDatabase.Empty</text><line style="stroke: #A80036; stroke-width: 1.5;" x1="7" x2="174" y1="180.5" y2="180.5"/><line style="stroke: #A80036; stroke-width: 1.5;" x1="7" x2="174" y1="188.5" y2="188.5"/><!--MD5=[37d6e5304215b5e345f427169db70937]
class _1--><rect fill="#FEFECE" filter="url(#f1r5nacn4o6qgp)" height="60.8047" id="_1" style="stroke: #A80036; stroke-width: 1.5;" width="171" x="210" y="142"/><ellipse cx="225" cy="158" fill="#DA70D6" rx="11" ry="11" style="stroke: #A80036; stroke-width: 1.0;"/><path d="M222.2656,161.2969 L222.2656,154.7813 C221.5938,154.7813 221.2188,154.4844 221.2188,153.9375 C221.2188,153.6563 221.375,153.3594 221.625,153.2031 C221.7813,153.1094 221.9063,153.0938 222.3594,153.0938 L225.9688,153.0938 C228.4531,153.0938 230.3438,155.1406 230.3438,157.8125 L230.3438,158.6094 C230.3438,159.8594 229.9375,160.9063 229.1563,161.7188 C228.3281,162.6094 227.3125,163 225.8281,163 L222.3594,163 C221.9531,163 221.7344,162.9531 221.5781,162.8281 C221.3594,162.6719 221.2188,162.4063 221.2188,162.1563 C221.2188,161.6094 221.6094,161.2969 222.2656,161.2969 Z M223.9531,161.2969 L225.8438,161.2969 C226.8594,161.2969 227.4219,161.0938 227.9531,160.5469 C228.4219,160.0313 228.6563,159.4375 228.6563,158.5625 L228.6563,157.7813 C228.6563,156.9844 228.375,156.2344 227.8906,155.6563 C227.375,155.0625 226.7344,154.7813 225.8281,154.7813 L223.9531,154.7813 Z "/><text fill="#000000" font-family="sans-serif" font-size="12" lengthAdjust="spacingAndGlyphs" textLength="139" x="239" y="162.1543">MegaDatabase.Money</text><line style="stroke: #A80036; stroke-width: 1.5;" x1="211" x2="380" y1="174" y2="174"/><ellipse cx="221" cy="185" fill="none" rx="3" ry="3" style="stroke: #038048; stroke-width: 1.0;"/><text fill="#000000" font-family="sans-serif" font-size="11" lengthAdjust="spacingAndGlyphs" textLength="69" x="230" y="188.2104">amount : int</text><line style="stroke: #A80036; stroke-width: 1.5;" x1="211" x2="380" y1="194.8047" y2="194.8047"/><!--MD5=[95d1cea1cd7f69d371fe62aa72675e9c]
class _2--><rect fill="#FEFECE" filter="url(#f1r5nacn4o6qgp)" height="73.6094" id="_2" style="stroke: #A80036; stroke-width: 1.5;" width="221" x="82" y="8"/><ellipse cx="135.25" cy="24" fill="#DA70D6" rx="11" ry="11" style="stroke: #A80036; stroke-width: 1.0;"/><path d="M132.5156,27.2969 L132.5156,20.7813 C131.8438,20.7813 131.4688,20.4844 131.4688,19.9375 C131.4688,19.6563 131.625,19.3594 131.875,19.2031 C132.0313,19.1094 132.1563,19.0938 132.6094,19.0938 L136.2188,19.0938 C138.7031,19.0938 140.5938,21.1406 140.5938,23.8125 L140.5938,24.6094 C140.5938,25.8594 140.1875,26.9063 139.4063,27.7188 C138.5781,28.6094 137.5625,29 136.0781,29 L132.6094,29 C132.2031,29 131.9844,28.9531 131.8281,28.8281 C131.6094,28.6719 131.4688,28.4063 131.4688,28.1563 C131.4688,27.6094 131.8594,27.2969 132.5156,27.2969 Z M134.2031,27.2969 L136.0938,27.2969 C137.1094,27.2969 137.6719,27.0938 138.2031,26.5469 C138.6719,26.0313 138.9063,25.4375 138.9063,24.5625 L138.9063,23.7813 C138.9063,22.9844 138.625,22.2344 138.1406,21.6563 C137.625,21.0625 136.9844,20.7813 136.0781,20.7813 L134.2031,20.7813 Z "/><text fill="#000000" font-family="sans-serif" font-size="12" lengthAdjust="spacingAndGlyphs" textLength="106" x="155.75" y="28.1543">Server.Response</text><line style="stroke: #A80036; stroke-width: 1.5;" x1="83" x2="302" y1="40" y2="40"/><ellipse cx="93" cy="51" fill="none" rx="3" ry="3" style="stroke: #038048; stroke-width: 1.0;"/><text fill="#000000" font-family="sans-serif" font-size="11" lengthAdjust="spacingAndGlyphs" textLength="52" x="102" y="54.2104">balance :</text><text fill="#000000" font-family="sans-serif" font-size="11" font-weight="bold" lengthAdjust="spacingAndGlyphs" textLength="139" x="158" y="54.2104">MegaDatabase.Empty</text><ellipse cx="93" cy="63.8047" fill="none" rx="3" ry="3" style="stroke: #038048; stroke-width: 1.0;"/><text fill="#000000" font-family="sans-serif" font-size="11" lengthAdjust="spacingAndGlyphs" textLength="40" x="102" y="67.0151">query :</text><text fill="#000000" font-family="sans-serif" font-size="11" font-weight="bold" lengthAdjust="spacingAndGlyphs" textLength="142" x="146" y="67.0151">MegaDatabase.Money</text><line style="stroke: #A80036; stroke-width: 1.5;" x1="83" x2="302" y1="73.6094" y2="73.6094"/><!--MD5=[59b725bd629d11771785352f69ebf978]
reverse link _2 to _0--><path d="M154.633,92.592 C139.186,111.5977 122.014,132.7258 109.329,148.3328 " fill="none" id="_2&lt;-_0" style="stroke: #A80036; stroke-width: 1.0;"/><polygon fill="#A80036" points="162.997,82.3,156.1086,84.4331,155.4282,91.612,162.3166,89.4789,162.997,82.3" style="stroke: #A80036; stroke-width: 1.0;"/><text fill="#000000" font-family="sans-serif" font-size="13" lengthAdjust="spacingAndGlyphs" textLength="24" x="82.5666" y="137.302">1..1</text><!--MD5=[03837af55dfe97398128afec89a6c29c]
reverse link _2 to _1--><path d="M230.886,92.771 C244.307,109.1239 259.001,127.0274 270.98,141.624 " fill="none" id="_2&lt;-_1" style="stroke: #A80036; stroke-width: 1.0;"/><polygon fill="#A80036" points="222.292,82.3,223.0065,89.4756,229.905,91.5759,229.1905,84.4003,222.292,82.3" style="stroke: #A80036; stroke-width: 1.0;"/><text fill="#000000" font-family="sans-serif" font-size="13" lengthAdjust="spacingAndGlyphs" textLength="24" x="235.0353" y="130.8097">1..1</text><!--MD5=[96bf0dbf59e4796067687080706fd2aa]
@startuml

class "MegaDatabase.Empty" as _0<< (D,orchid) >> {
}
class "MegaDatabase.Money" as _1 << (D,orchid) >> {
+ amount : int
}
class "Server.Response" as _2 << (D,orchid) >> {
+ balance : **MegaDatabase.Empty**
+ query : **MegaDatabase.Money**
}
_2 *- - "1..1 " _0
_2 *- - "1..1 " _1
@enduml

PlantUML version 1.2020.03beta11(Unknown compile time)
(GPL source distribution)
Java Runtime: Java(TM) SE Runtime Environment
JVM: Java HotSpot(TM) 64-Bit Server VM
Java Version: 1.7.0_25-b15
Operating System: Linux
Default Encoding: UTF-8
Language: en
Country: US
--></g></svg>
