<?xml version="1.0" encoding="UTF-8" standalone="no"?><svg xmlns="http://www.w3.org/2000/svg" xmlns:xlink="http://www.w3.org/1999/xlink" contentScriptType="application/ecmascript" contentStyleType="text/css" height="304px" preserveAspectRatio="none" style="width:366px;height:304px;" version="1.1" viewBox="0 0 366 304" width="366px" zoomAndPan="magnify"><defs><filter height="300%" id="futi05fps9k2a" width="300%" x="-1" y="-1"><feGaussianBlur result="blurOut" stdDeviation="2.0"/><feColorMatrix in="blurOut" result="blurOut2" type="matrix" values="0 0 0 0 0 0 0 0 0 0 0 0 0 0 0 0 0 0 .4 0"/><feOffset dx="4.0" dy="4.0" in="blurOut2" result="blurOut3"/><feBlend in="SourceGraphic" in2="blurOut3" mode="normal"/></filter></defs><g><text fill="#000000" font-family="sans-serif" font-size="18" lengthAdjust="spacingAndGlyphs" textLength="117" x="131.5" y="16.708">ThirdDivision</text><!--MD5=[758d88821a0e741df1f73accbabae398]
cluster X_0--><rect fill="#FFFAF0" filter="url(#futi05fps9k2a)" height="75" rx="12.5" ry="12.5" style="stroke: #000000; stroke-width: 1.5;" width="302.5" x="51.5" y="218.9531"/><rect fill="#FFFFFF" height="42.7031" rx="12.5" ry="12.5" style="stroke: #FFFFFF; stroke-width: 1.0;" width="296.5" x="54.5" y="248.25"/><line style="stroke: #000000; stroke-width: 1.5;" x1="51.5" x2="354" y1="245.25" y2="245.25"/><text fill="#000000" font-family="sans-serif" font-size="14" lengthAdjust="spacingAndGlyphs" textLength="72" x="166.75" y="235.9482">MobileApp</text><!--MD5=[cecb9a85ae19b9003f4441b135e71cd6]
cluster X_1--><rect fill="#FFFAF0" filter="url(#futi05fps9k2a)" height="75" rx="12.5" ry="12.5" style="stroke: #000000; stroke-width: 1.5;" width="340" x="14" y="36.9531"/><rect fill="#FFFFFF" height="42.7031" rx="12.5" ry="12.5" style="stroke: #FFFFFF; stroke-width: 1.0;" width="334" x="17" y="66.25"/><line style="stroke: #000000; stroke-width: 1.5;" x1="14" x2="354" y1="63.25" y2="63.25"/><text fill="#000000" font-family="sans-serif" font-size="14" lengthAdjust="spacingAndGlyphs" textLength="81" x="143.5" y="53.9482">MobileApp2</text><!--MD5=[51e8d94a944361a156a1f52e5c4894ba]
cluster X_2--><rect fill="#FFFAF0" filter="url(#futi05fps9k2a)" height="91" rx="12.5" ry="12.5" style="stroke: #000000; stroke-width: 1.5;" width="114" x="219.5" y="119.9531"/><rect fill="#FFFFFF" height="58.7031" rx="12.5" ry="12.5" style="stroke: #FFFFFF; stroke-width: 1.0;" width="108" x="222.5" y="149.25"/><line style="stroke: #000000; stroke-width: 1.5;" x1="219.5" x2="333.5" y1="146.25" y2="146.25"/><text fill="#000000" font-family="sans-serif" font-size="14" lengthAdjust="spacingAndGlyphs" textLength="44" x="238" y="136.9482">Server</text><rect fill="#FFFAF0" filter="url(#futi05fps9k2a)" height="40" rx="12.5" ry="12.5" style="stroke: #000000; stroke-width: 1.5;" width="139" x="207" y="245.9531"/><text fill="#000000" font-family="sans-serif" font-size="14" lengthAdjust="spacingAndGlyphs" textLength="129" x="212" y="270.7998">Authenticate client</text><rect fill="#FFFAF0" filter="url(#futi05fps9k2a)" height="40" rx="12.5" ry="12.5" style="stroke: #000000; stroke-width: 1.5;" width="50" x="59.5" y="245.9531"/><text fill="#000000" font-family="sans-serif" font-size="14" lengthAdjust="spacingAndGlyphs" textLength="37" x="66" y="270.7998">Login</text><rect fill="#FFFAF0" filter="url(#futi05fps9k2a)" height="40" rx="12.5" ry="12.5" style="stroke: #000000; stroke-width: 1.5;" width="139" x="207" y="63.9531"/><text fill="#000000" font-family="sans-serif" font-size="14" lengthAdjust="spacingAndGlyphs" textLength="129" x="212" y="88.7998">Authenticate client</text><rect fill="#FFFAF0" filter="url(#futi05fps9k2a)" height="40" rx="12.5" ry="12.5" style="stroke: #000000; stroke-width: 1.5;" width="125" x="22" y="63.9531"/><text fill="#000000" font-family="sans-serif" font-size="14" lengthAdjust="spacingAndGlyphs" textLength="115" x="27" y="88.7998">SecondEndpoint</text><rect fill="#FFFAF0" filter="url(#futi05fps9k2a)" height="40" rx="12.5" ry="12.5" style="stroke: #000000; stroke-width: 1.5;" width="98" x="227.5" y="162.9531"/><text fill="#000000" font-family="sans-serif" font-size="14" lengthAdjust="spacingAndGlyphs" textLength="88" x="232.5" y="187.7998">Authenticate</text><!--MD5=[b4e3d399786c33682cf7201d5a7381ec]
link _1 to _0--><path d="M109.6006,265.9531 C132.9504,265.9531 168.9434,265.9531 201.5348,265.9531 " fill="none" id="_1-&gt;_0" style="stroke: #C0C0C0; stroke-width: 1.0;"/><polygon fill="#C0C0C0" points="206.7339,265.9531,197.7339,261.9531,201.7339,265.9531,197.7339,269.9531,206.7339,265.9531" style="stroke: #C0C0C0; stroke-width: 1.0;"/><!--MD5=[66d2e95ee2e3e1b5b59548f8bdae5bf2]
link _0 to _4--><path d="M276.5,245.8515 C276.5,233.2711 276.5,220.6906 276.5,208.1102 " fill="none" id="_0-&gt;_4" style="stroke: #000000; stroke-width: 1.0;"/><polygon fill="#000000" points="276.5,203.1003,272.5,212.1003,276.5,208.1003,280.5,212.1003,276.5,203.1003" style="stroke: #000000; stroke-width: 1.0;"/><!--MD5=[450ea2f654882f822490fe83b2b538b8]
link _3 to _2--><path d="M147.1023,83.9531 C164.5072,83.9531 183.5852,83.9531 201.6174,83.9531 " fill="none" id="_3-&gt;_2" style="stroke: #C0C0C0; stroke-width: 1.0;"/><polygon fill="#C0C0C0" points="206.6734,83.9531,197.6734,79.9531,201.6734,83.9531,197.6734,87.9531,206.6734,83.9531" style="stroke: #C0C0C0; stroke-width: 1.0;"/><!--MD5=[7147dd2715d95ef75e19400737a46bd1]
link _2 to _4--><path d="M276.5,103.9839 C276.5,121.9178 276.5,139.8516 276.5,157.7855 " fill="none" id="_2-&gt;_4" style="stroke: #000000; stroke-width: 1.0;"/><polygon fill="#000000" points="276.5,162.8437,280.5,153.8437,276.5,157.8437,272.5,153.8437,276.5,162.8437" style="stroke: #000000; stroke-width: 1.0;"/><!--MD5=[4b480ac71fda6cc8f57bc0a8fca59dee]
@startuml


title ThirdDivision
left to right direction
scale max 16384 height
hide empty description
skinparam state {
  BackgroundColor FloralWhite
  BorderColor Black
  ArrowColor Crimson
}
state "MobileApp" as X_0 {
  state "Authenticate client" as _0
  state "Login" as _1
}
state "MobileApp2" as X_1 {
  state "Authenticate client" as _2
  state "SecondEndpoint" as _3
}
state "Server" as X_2 <<highlight>> {
  state "Authenticate" as _4 <<highlight>>
}
_1 -[#silver]-> _0
_0 -[#black]> _4
_3 -[#silver]-> _2
_2 -[#black]> _4
@enduml

PlantUML version 1.2020.09(Sun May 10 10:51:06 UTC 2020)
(GPL source distribution)
Java Runtime: OpenJDK Runtime Environment
JVM: OpenJDK 64-Bit Server VM
Java Version: 1.8.0_252-b09
Operating System: Linux
Default Encoding: UTF-8
Language: en
Country: null
--></g></svg>